<svg xmlns="http://www.w3.org/2000/svg" xmlns:xlink="http://www.w3.org/1999/xlink" width="301.649" height="270.02" viewBox="0 0 301.649 270.02">
  <defs>
    <clipPath id="clip-path">
      <path id="Trazado_625010" data-name="Trazado 625010" d="M277.636,306.655A14.909,14.909,0,0,1,281.3,308.2c8.311,4.8,15.059,16.467,15.059,26.063a16.547,16.547,0,0,1-.449,3.978c-.433,1.764-2.739,4.968-5.866,8.729.774,8.435,1.656,49.757-3.529,54.942-3.1,3.1-25.49-6.02-25.49-6.02s6.794-46.724,15.477-56.691c-5.68-5.757-10.184-14.9-10.168-22.317C266.261,308.79,271.105,304.751,277.636,306.655Z" transform="translate(-261.03 -306.189)" fill="none"/>
    </clipPath>
  </defs>
  <g id="Grupo_1070650" data-name="Grupo 1070650" transform="translate(-476.314 -20441.898)">
    <path id="Trazado_624980" data-name="Trazado 624980" d="M153.422,347.8c11.747-6.779,30.814-6.779,42.576,0l87.984,50.562a23.4,23.4,0,0,1,4.55,3.4L331.6,376.74l23.9,13.79c-4.519-5.479-2.879-12.226,4.968-16.761,9.982-5.757,26.155-5.757,36.138,0l29.622,17.024c9.967,5.757,9.967,15.09,0,20.862s-26.155,5.757-36.138,0L386,409.288,282.961,469.306l-55.453-32.021,20.027-11.638a32.64,32.64,0,0,1-6.067-2.693l-88.046-50.547C141.659,365.613,141.659,354.609,153.422,347.8Z" transform="translate(344.26 20242.611)" fill="#35241a" opacity="0.1"/>
    <path id="Trazado_624981" data-name="Trazado 624981" d="M239.52,283.941l16.158-12.521-2.708-31.65,14.362-5.37,6.376,26.171v13.263l-1.346,8.388L244.952,291.6Z" transform="translate(445.336 20237.197)" fill="#d4eeff"/>
    <path id="Trazado_624982" data-name="Trazado 624982" d="M320.4,363.129c1.223,1.671,1.145,5.479.789,9.8-1.254,4.333-5.37,3.916-8.915,4.411-6.81.944-10.292,6-19.33,5.819-5.386-.093-8.961-1.316-10.029-4.736-.139-1.548.8-3.1,2.739-4.736,12.474-5.324,12.459-5.339,12.753-5.525a62.956,62.956,0,0,0,6.036-4.566c.108-.418,2.306-9.843,2.306-9.843l13.279.232Z" transform="translate(420.002 20248.656)"/>
    <path id="Trazado_624983" data-name="Trazado 624983" d="M320.746,295.98,311.181,348.4c1.439,15.972,6.949,31.711,5.479,47.142-1.176,6.392-14.393,5.432-16.916.727.867-11.994-6.191-29.762-8.822-49.432-.573-19.454-.34-39.481,3.621-54.926Z" transform="translate(424.268 20214.789)" fill="#0051a3"/>
    <path id="Trazado_624984" data-name="Trazado 624984" d="M331.064,374.711c1.238,3.931,1.47,5.061.96,7.97-.573,1.548-1.161,2.229-1.811,4.364-.743,2.631-.635,7.011-4.535,9.642-4.643,3.683-13.666,3.854-16.5-.077a20.662,20.662,0,0,1,3.622-9.565l4.643-8.5-.294-7.97,13.124-2.879Z" transform="translate(434.394 20256.295)"/>
    <path id="Trazado_624985" data-name="Trazado 624985" d="M341.66,413.751a4.086,4.086,0,0,1-1.749,3.389,6.331,6.331,0,0,1-1.548.851c-4.117,1.64-10.911.588-13.171-2.244-1.3-11.948-6.9-30.04-13.031-48.922-1.408-9.286-2.507-18.4-3.1-27.053-.263-3.451-.449-6.81-.557-10.106-11.19-3.606-13.619-16.73-17.179-19.485.851-7.537,0-10.834.8-17.024l18.185-.418,27.982-.65c2.693,8.822.975,17.659-2.569,26.48l-1.223,49.216A177.066,177.066,0,0,1,341.66,413.751Z" transform="translate(424.618 20214.887)" fill="#0071bc"/>
    <path id="Trazado_624986" data-name="Trazado 624986" d="M344.452,309.8c-8.729,6.918-18.293,9.642-28.183,8.172a45.453,45.453,0,0,1-17.984-7.1,7.011,7.011,0,0,0-.371-1.8c-2.43-6.825-15.693-15.477-17.984-29.22l1.408-17.117a32.81,32.81,0,0,1,13.4-3.1c8.466,0,15.477,4.132,21.9,9.843a22.751,22.751,0,0,1,9.982,3.5,21.9,21.9,0,0,1,5.061,4.643,37.47,37.47,0,0,1,5,8.667C339.654,293.24,341.635,301.535,344.452,309.8Z" transform="translate(418.375 20197.115)" fill="#0071bc"/>
    <path id="Trazado_624987" data-name="Trazado 624987" d="M326.715,375c3.714-10.184,3.683-24.964,2.817-40.719L308,348.1,307.447,338,293.1,310.573c6.191,3.188,11.762,3.776,15.956-1.656v-.387l.2-7.522.5-19.361L324.9,286.29l4.643-9.41c2.971,6.918,4.953,15.213,7.738,23.478,2.693,8.822.975,17.659-2.569,26.48l-1.176,49.277a177.067,177.067,0,0,1,7.15,45.981C335.955,403.664,331.141,381.022,326.715,375Z" transform="translate(425.588 20206.557)" fill="#0071bc" opacity="0.5"/>
    <path id="Trazado_624988" data-name="Trazado 624988" d="M267.74,311.526l21.234,36.8,27.254-20.29c1.873-1.424,3.018-4.008,3.018-7.568a27.13,27.13,0,0,0-12.257-21.234c-3.1-1.78-5.9-2.074-8.048-1.145C298.925,298.077,267.74,311.526,267.74,311.526Z" transform="translate(411.699 20217.893)" fill="#f15a24"/>
    <path id="Trazado_624989" data-name="Trazado 624989" d="M275.785,306.655a14.91,14.91,0,0,1,3.668,1.548c8.311,4.8,15.059,16.467,15.059,26.063a16.545,16.545,0,0,1-.449,3.978c-1.641,6.624-7.553,8.806-14.61,4.72-8.311-4.8-15.059-16.483-15.043-26.078C264.41,308.79,269.254,304.751,275.785,306.655Z" transform="translate(409.875 20222.607)" fill="#ad411a"/>
    <path id="Trazado_624990" data-name="Trazado 624990" d="M291.093,319.4a31.557,31.557,0,0,1,4.535,15.229,16.576,16.576,0,0,1-.48,4.179,9.286,9.286,0,0,1-5.216,6.732c-2.972,1.269-6.732.727-10.586-1.548-8.543-4.922-15.477-16.947-15.477-26.79,0-4.457,1.439-7.986,4.024-9.92a9.286,9.286,0,0,1,8.419-1.145,16.822,16.822,0,0,1,3.854,1.671A31.6,31.6,0,0,1,291.093,319.4Zm-21.28,12.288a30.01,30.01,0,0,0,10.354,10.927c3.4,1.965,6.64,2.461,9.131,1.408a7.738,7.738,0,0,0,4.256-5.6,15.864,15.864,0,0,0,.433-3.792c0-9.286-6.577-20.692-14.641-25.351a15.26,15.26,0,0,0-3.482-1.548,7.738,7.738,0,0,0-6.98.882c-2.167,1.625-3.358,4.643-3.358,8.6a30.056,30.056,0,0,0,4.287,14.471Z" transform="translate(409.58 20222.291)" fill="#ad411a"/>
    <path id="Trazado_624991" data-name="Trazado 624991" d="M286.746,322.9a12.723,12.723,0,0,1,0,5.912l-2.213,1.285c-1.223.7-2.213,0-2.213-1.671a5.308,5.308,0,0,1,2.213-4.241Z" transform="translate(419.684 20231.762)" fill="#f15a24"/>
    <path id="Trazado_624992" data-name="Trazado 624992" d="M266.772,309.9a13.078,13.078,0,0,1,0,5.9l-2.229,1.285c-1.223.712-2.213,0-2.213-1.671a5.309,5.309,0,0,1,2.213-4.241Z" transform="translate(408.736 20224.639)" fill="#ad411a"/>
    <path id="Trazado_624993" data-name="Trazado 624993" d="M264.41,310.433V314.3l1.95,1.656H270.2l2.306-1.316,3.266-2.724-.2-1.764-2.863.139.294-2.213,3.1-1.362a30.591,30.591,0,0,0,1.873,2.538c2.507,2.291,2.507-.356,2.507-.356l-1.316-3.5.341-.155-.836-2.8-3.637-1.207-5.943,3.1Z" transform="translate(409.875 20219.898)" fill="#ffb294"/>
    <path id="Trazado_624994" data-name="Trazado 624994" d="M303.736,311.68l-4.024,3.591-5.541,2.523-2.043,1.021-2.585,2.925c-1.052,1.424.7,2.414,2.151,1.269l3.652-2.244v4.643l-1.641,2.987-3.962,2.941h4.318l7.986-2.229,3.1-3.792,3.281-10.029Z" transform="translate(423.464 20225.615)" fill="#ffb294"/>
    <path id="Trazado_624995" data-name="Trazado 624995" d="M308.149,284.719l2.089,29.034L296,337.339c4.349,0,7.119,2.91,6.639,6.33,9.673-5.943,15.755-11.283,23.215-23.54,2.476-9.7,2.507-22.441,1.919-35.906C325.87,262.463,306.4,272.337,308.149,284.719Z" transform="translate(427.176 20203.547)" fill="#d4eeff"/>
    <path id="Trazado_624996" data-name="Trazado 624996" d="M325.143,273c-.6,0-17.752-.867-15.028,24.3l-20.584-4.8s-10.555-11.205-5.556-21.868a35.285,35.285,0,0,1,9.286-10.973c8.466,0,15.477,4.132,21.9,9.843a22.751,22.751,0,0,1,9.982,3.5Z" transform="translate(419.855 20197.125)" fill="#d4eeff"/>
    <path id="Trazado_624997" data-name="Trazado 624997" d="M299.98,261l3.683,6.469c2.956,7.878-6.407,14.424-12.165,13.48l-5.819-10.493Z" transform="translate(421.524 20197.859)" fill="#ffb294"/>
    <path id="Trazado_624998" data-name="Trazado 624998" d="M298.636,266.17c.217,3.854,1.548,11.406,0,14.7-4.3,7.831-9.781-1.919-11.576-4.442Z" transform="translate(422.28 20200.691)" fill="#ffb294" opacity="0.5"/>
    <path id="Trazado_624999" data-name="Trazado 624999" d="M302.5,270.126c-.6,5.339-2.213,10.447-8.094,14.177a4.07,4.07,0,0,1-5.061-.124l-4.8-6.547a17.55,17.55,0,0,1-4.055-6.964l7.29-15.028h11.329l5.37,7.4Z" transform="translate(418.682 20194.926)" fill="#ffb294"/>
    <path id="Trazado_625000" data-name="Trazado 625000" d="M306.438,270.554l-4.488.96a3.854,3.854,0,0,0-4.875-.371,17.334,17.334,0,0,1-10.834,3.42,7.831,7.831,0,0,1-7.738-8.574c.31-4.3,7.584-14.037,15.972-13.48,9.921.681,14.656,8.079,12.784,19.052Z" transform="translate(417.574 20193.195)"/>
    <path id="Trazado_625001" data-name="Trazado 625001" d="M296.159,261.021a1.857,1.857,0,0,1,1.966.7,2.522,2.522,0,0,1,.341,1.548,7.939,7.939,0,0,1-.774,3.312,3.482,3.482,0,0,1-.836,1.161,1.625,1.625,0,0,1-1.316.449c-1.7-.248-1.393-2.414-1.548-3.622A3.25,3.25,0,0,1,296.159,261.021Z" transform="translate(426.057 20197.838)" fill="#ffb294"/>
    <path id="Trazado_625002" data-name="Trazado 625002" d="M298.309,263.882c-.356,6.934-4.008,13.588-11.1,13.836L280,267.937l2.631-6.547Z" transform="translate(418.413 20198.072)" fill="#ffb294" opacity="0.5"/>
    <path id="Trazado_625003" data-name="Trazado 625003" d="M288.349,264.886a32.871,32.871,0,0,0,10.942-.573c-.077.108.758,0,.681.155-4.287,5.51-9.286,13.929-19.826,10.834-9.286-2.708-4.643-7.738-.325-13.186l.279-.356a16.235,16.235,0,0,0,8.249,3.126Z" transform="translate(415.544 20198.275)" fill="#0051a3"/>
    <path id="Trazado_625004" data-name="Trazado 625004" d="M298.176,270.887A19.036,19.036,0,0,0,307.2,262.9s-.681-13.372-12.784-12.846c-19.764.851-16.111,18.185-16.111,18.185C281.508,272.837,289.153,272.62,298.176,270.887Z" transform="translate(417.339 20191.857)" fill="#0071bc"/>
    <g id="Grupo_895854" data-name="Grupo 895854" transform="translate(571.505 20597.236)">
      <path id="Trazado_625005" data-name="Trazado 625005" d="M235.325,432.5v9.487c0,3.281-1.161,5.572-3.1,6.655l105.241-61.179c1.873-1.083,3.1-3.389,3.1-6.655V371.32Z" transform="translate(-179.254 -338.958)" fill="#754c24"/>
      <path id="Trazado_625006" data-name="Trazado 625006" d="M166.29,376.759,271.577,315.58l56.041,32.362L222.346,409.121Z" transform="translate(-166.275 -315.58)" fill="#fbb03b"/>
      <path id="Trazado_625007" data-name="Trazado 625007" d="M172.07,374.909l96.342-55.979,47.111,27.192-96.357,55.994Z" transform="translate(-163.109 -313.745)" fill="#754c24"/>
      <path id="Trazado_625008" data-name="Trazado 625008" d="M254.072,422.3v9.487c0,6.593-4.643,9.286-10.4,5.943l-35.3-20.383A22.782,22.782,0,0,1,198,399.427V389.94Z" transform="translate(-198 -328.761)" fill="#c4720e"/>
    </g>
    <g id="Grupo_895855" data-name="Grupo 895855" transform="translate(669.054 20528.797)" clip-path="url(#clip-path)">
      <path id="Trazado_625009" data-name="Trazado 625009" d="M292.066,314s-13.542,8.218-17.628,19.516-6.191,54.509-6.191,54.509L265.4,406.813l6.5-1.826,11.7-12.381,3.358-51.32L299.34,332.6Z" transform="translate(-258.637 -301.912)" fill="#54371a"/>
    </g>
    <path id="Trazado_625011" data-name="Trazado 625011" d="M279.073,330.348,266.289,324.9l-8.76,4.21-8.172,1.238-5.061,6.887L233.6,341.878l-10.044,3.188-15.972,16.142-3.111,12.335H193.333L182.53,381l30.907,17.844,90.1-52.373-14.749-6.16-.929-7.336Z" transform="translate(414.125 20286.76)" fill="#54371a"/>
    <path id="Trazado_625012" data-name="Trazado 625012" d="M226.106,397.361l2.677,7.553-3.962-2.631v5.757s-1.873.2-6.191-3.962a17.47,17.47,0,0,1-2.26-2.646,29.992,29.992,0,0,1-4.008-8.419s.217-17.752-5.85-28.817c-9.6-17.5-7.088-43.334-7.088-43.334s26.078,9.394,29.406,30.056-4.179,23.989-4.179,23.989l-.4,17.1Z" transform="translate(374.124 20230.643)" fill="#b85e5e"/>
    <path id="Trazado_625013" data-name="Trazado 625013" d="M222.682,377.913l-3.962-2.631v5.757s-1.873.2-6.191-3.962a17.47,17.47,0,0,1-2.26-2.646,15.865,15.865,0,0,1,3.947-3.235,8.4,8.4,0,0,1,5.85-.836Z" transform="translate(380.225 20257.643)"/>
    <path id="Trazado_625014" data-name="Trazado 625014" d="M182.781,374.915l2.662,7.553-3.947-2.631v5.757s-1.888.2-6.191-3.962a17.365,17.365,0,0,1-2.244-2.646,30.01,30.01,0,0,1-4.008-8.4s.217-17.752-5.85-28.817c-9.6-17.5-7.088-43.334-7.088-43.334s26.078,9.379,29.406,30.04-4.163,24-4.163,24l-.5,17.055Z" transform="translate(350.405 20218.357)" fill="#b85e5e"/>
    <path id="Trazado_625015" data-name="Trazado 625015" d="M179.381,355.472l-3.947-2.631V358.6s-1.888.2-6.191-3.962A17.364,17.364,0,0,1,167,351.99a16.078,16.078,0,0,1,3.931-3.219,8.373,8.373,0,0,1,5.866-.851Z" transform="translate(356.528 20245.354)"/>
    <path id="Trazado_625016" data-name="Trazado 625016" d="M275.12,364.218s-.263,17.581-27.858,23.215a97.5,97.5,0,0,1-26.31,1.78c-17.024-1.176-32.176-6.98-43.334-15.755a97.889,97.889,0,0,1-8.976-8.079,152.491,152.491,0,0,1-22.472-30.412c-2.585-4.442-3.467-12.1-2.755-18.99a28.987,28.987,0,0,1,2.755-10.323c3.916-7.351,20.12-12.985,20.12-12.985,4.039-1.671,11.932-1.254,17.256-.7a26.914,26.914,0,0,1,9.688,2.894c12.211,6.361,46.987,24.623,55.205,30.644C258.591,332.832,275.12,364.218,275.12,364.218Z" transform="translate(343.481 20214.555)" fill="#ff9797"/>
    <path id="Trazado_625017" data-name="Trazado 625017" d="M213.245,362.326l-1.285,6.732c-17.024-1.176-32.176-6.98-43.334-15.755a97.9,97.9,0,0,1-8.976-8.079l4.519-17.024C173.78,346.787,192.693,355.47,213.245,362.326Z" transform="translate(352.502 20234.662)" fill="#d98080" opacity="0.25"/>
    <path id="Trazado_625018" data-name="Trazado 625018" d="M169.464,381.706l3.42,9.642-3.977-2.291v5.432s-1.873.2-6.191-3.977a18.57,18.57,0,0,1-3.1-3.869,30.952,30.952,0,0,1-3.2-7.181s.232-17.752-5.835-28.818c-9.6-17.5-7.088-43.334-7.088-43.334s26.078,9.394,29.406,30.04-4.194,24-4.194,24l-.4,17.1Z" transform="translate(343.493 20223.221)" fill="#ff9797"/>
    <path id="Trazado_625019" data-name="Trazado 625019" d="M167.073,365.051,163.1,362.76v5.432s-1.873.2-6.191-3.978a18.572,18.572,0,0,1-3.1-3.869c2.445-3.544,8.141-5.448,9.874-4.937Z" transform="translate(349.304 20249.52)"/>
    <path id="Trazado_625020" data-name="Trazado 625020" d="M212.779,404.146l3.42,9.642-3.962-2.306v5.432s-1.888.2-6.191-3.962a19.161,19.161,0,0,1-3.1-3.869,31.218,31.218,0,0,1-3.188-7.181s.217-17.752-5.85-28.817c-9.6-17.5-7.088-43.334-7.088-43.334s10.122,21.961,29.406,30.04a3.885,3.885,0,0,1,2.229,3.5c.836,6.856-6.407,20.506-6.407,20.506l-.418,17.1Z" transform="translate(367.223 20235.512)" fill="#ff9797"/>
    <path id="Trazado_625021" data-name="Trazado 625021" d="M210.388,387.491l-3.962-2.306v5.432s-1.888.2-6.191-3.962a19.591,19.591,0,0,1-3.1-3.869c2.445-3.544,8.141-5.448,9.874-4.937Z" transform="translate(373.034 20261.809)"/>
    <path id="Trazado_625022" data-name="Trazado 625022" d="M210.706,375.681l-.418,17.1.758-25.088c-12.722-1.021-18.293-14.084-22.116-23.215l28.183,10.648C217.949,362.03,210.706,375.681,210.706,375.681Z" transform="translate(368.538 20243.576)" fill="#d98080" opacity="0.25"/>
    <path id="Trazado_625023" data-name="Trazado 625023" d="M188.93,347.233l32.965-2.414s15.477-7.553,28.167-4.643,4.287,15.956,4.287,15.956L198.324,354.2Z" transform="translate(368.538 20240.857)" fill="#d98080" opacity="0.25"/>
    <path id="Trazado_625024" data-name="Trazado 625024" d="M250.838,403.6a3.1,3.1,0,0,1-.712-.5c-2.832-1.842-5.277-3.374-7.46-4.643a63.742,63.742,0,0,0-11.886-5.618c-3-1.006-13.929-4.643-18.572-10.338-5.417-6.5-4.148-15.182-3.3-18.758.263-1.052.464-1.671.464-1.671l2.708-11.36c5.664-7.506,19.856-12.969,28.91-12.2l10.153,6.593c9.673,11.406,5.7,17.752,5.912,22.364l1.068,5.417c1.083,5.107,3.9,15.353,7.738,20.831a4.149,4.149,0,0,1,.635.9C268.079,398.73,256.348,406.762,250.838,403.6Z" transform="translate(379.061 20240.277)" fill="#ff9797"/>
    <path id="Trazado_625025" data-name="Trazado 625025" d="M226.1,354.295l3.606-5.448a114.074,114.074,0,0,1,3.977-14.44c1.966-4.891,8.76-14.858,8.76-14.858s8.729,15.662,7.351,23-12.706,15.477-12.706,15.477Z" transform="translate(388.895 20229.928)" fill="#ff9797"/>
    <path id="Trazado_625026" data-name="Trazado 625026" d="M235.72,384.489a3.1,3.1,0,0,1,.294-1.285,8.464,8.464,0,0,1,1.625-2.151l3.482-3.761a17.024,17.024,0,0,1,3.281-2.971,5.819,5.819,0,0,1,4.225-.944,4.3,4.3,0,0,1,2.554,1.749C252.853,379.413,241.307,387.77,235.72,384.489Z" transform="translate(394.163 20259.363)" fill="#d98080"/>
    <path id="Trazado_625027" data-name="Trazado 625027" d="M240.525,376.66c.155-.232.387-.464.65-.418s.418.573.418.929v1.78a6,6,0,0,1-.356,2.167c-.248.542-.867,1.316-1.548,1.254s-.371-.7-.217-1.207C239.86,379.709,239.674,377.975,240.525,376.66Z" transform="translate(396.105 20260.969)" fill="#1a1a1a"/>
    <path id="Trazado_625028" data-name="Trazado 625028" d="M242.674,376.035a1.764,1.764,0,0,1,.139-.743.712.712,0,0,1,.65-.4.681.681,0,0,1,.511.356,1.548,1.548,0,0,1,.186.573,8.543,8.543,0,0,1,.217,2.492c0,.48-1.068,2.941-1.7,1.919-.279-.433,0-1.331,0-1.811C242.627,377.629,242.658,376.825,242.674,376.035Z" transform="translate(397.904 20260.23)" fill="#1a1a1a"/>
    <path id="Trazado_625029" data-name="Trazado 625029" d="M224.051,359.5a3.761,3.761,0,0,0,1.269,1.548,2.694,2.694,0,0,0,.867.5,1.192,1.192,0,0,0,.975,0,1.238,1.238,0,0,0,.557-1.176,2.692,2.692,0,0,0-.464-1.254,3.405,3.405,0,0,0-1.223-1.3C224.639,356.95,223.494,358.08,224.051,359.5Z" transform="translate(387.693 20250.717)" fill="#1a1a1a"/>
    <path id="Trazado_625030" data-name="Trazado 625030" d="M238.373,355.131c.139.371.371.758.758.8a.758.758,0,0,0,.7-.418,1.548,1.548,0,0,0,.155-.836,3.25,3.25,0,0,0-.743-1.919,1.548,1.548,0,0,0-.511-.433C237.475,351.85,238.171,354.62,238.373,355.131Z" transform="translate(395.411 20247.848)" fill="#1a1a1a"/>
    <path id="Trazado_625031" data-name="Trazado 625031" d="M242.666,389.5a63.731,63.731,0,0,0-11.886-5.618c-3-1.006-13.929-4.643-18.572-10.338-5.417-6.5-4.148-15.182-3.3-18.758h.5s5.138,22.41,20.94,23.849Z" transform="translate(379.061 20249.225)" fill="#d98080" opacity="0.25"/>
    <path id="Trazado_625032" data-name="Trazado 625032" d="M226.648,348.833c-.433,0-6.1-3.42-10.4-4.148s-27.719.294-27.316-.139,10.926,26.976,31.448,18.835S226.648,348.833,226.648,348.833Z" transform="translate(368.536 20243.543)" fill="#ff9797"/>
    <path id="Trazado_625033" data-name="Trazado 625033" d="M191.36,346.4s6.887,21.977,27.254,15.09c4.4-1.548,3.761-6.609,3.761-6.609S203.261,351,191.36,346.4Z" transform="translate(369.869 20244.629)" fill="#a65050"/>
    <path id="Trazado_625034" data-name="Trazado 625034" d="M217.651,344.869a5.556,5.556,0,0,0,1.052,6.191c1.749,1.7,4.364,2.012,6.732,2.585a18.432,18.432,0,0,1,6.856,4.318,4.937,4.937,0,0,0,8.156-4.179,10.044,10.044,0,0,1,0-1.114,14.409,14.409,0,0,0-2.631-8.837,11,11,0,0,0-7.413-4.194C226.782,339.235,219.415,341.263,217.651,344.869Z" transform="translate(383.987 20240.898)" fill="#fff" opacity="0.15"/>
    <path id="Trazado_625035" data-name="Trazado 625035" d="M157.873,305.848a15.289,15.289,0,0,0,3.235-.4c6.314-1.269,12.753,0,18.881,1.78,24.5,7.042,47.2,19.81,63.129,39.342a2.538,2.538,0,0,0,4.38-2.445,41.246,41.246,0,0,0-5.355-9.781c-3.637-4.937-8.5-7.738-13.48-11.282-9.9-7.088-18.324-10.4-28.229-17.489-6.191-4.364-12.381-8.806-19.485-11.128a40.673,40.673,0,0,0-22.921-.48C152.224,295.679,147.117,305.724,157.873,305.848Z" transform="translate(348.089 20215.137)" fill="#fff" opacity="0.15"/>
    <path id="Trazado_625036" data-name="Trazado 625036" d="M145.588,303.654a9.038,9.038,0,0,1-8.915-10.834,1.254,1.254,0,0,1,1.548-.975,1.238,1.238,0,0,1,.96,1.548,6.578,6.578,0,0,0,7.847,7.738,7.6,7.6,0,0,1-3.235-4.3,6.392,6.392,0,0,1,.665-4.829,5.324,5.324,0,0,1,3.266-2.554,5.448,5.448,0,0,1,4.318.851,6.191,6.191,0,0,1,2.538,3.56,7.615,7.615,0,0,1-1.548,6.438,17.692,17.692,0,0,0,4.1-.557,1.256,1.256,0,1,1,.573,2.445,16.684,16.684,0,0,1-7.3.356A9.89,9.89,0,0,1,145.588,303.654Zm3.266-11.948a2.322,2.322,0,0,0-.573,0,2.786,2.786,0,0,0-1.718,1.393,3.761,3.761,0,0,0-.418,2.894,5.711,5.711,0,0,0,3.776,3.652l.294-.232a5.4,5.4,0,0,0,1.888-5.107,3.591,3.591,0,0,0-3.25-2.6Z" transform="translate(339.821 20213.365)" fill="#ff9797"/>
  </g>
</svg>
