<svg xmlns="http://www.w3.org/2000/svg" width="362" height="288" viewBox="0 0 362 288">
  <g id="Grupo_1075179" data-name="Grupo 1075179" transform="translate(-915 -31903)">
    <rect id="Rectángulo_376130" data-name="Rectángulo 376130" width="362" height="288" transform="translate(915 31903)" fill="none"/>
    <g id="_05" data-name="05" transform="translate(935.212 31910.566)">
      <g id="Grupo_1071082" data-name="Grupo 1071082" transform="translate(76.624 14)">
        <path id="Trazado_815579" data-name="Trazado 815579" d="M94.067,112.067a35.9,35.9,0,0,1,28.622,14.077,29.377,29.377,0,0,1,55.955,8.915,20.289,20.289,0,0,1,11.261,5.044,32.135,32.135,0,0,1,55.368-4.34,42.113,42.113,0,0,1,49.268-19.825,114.39,114.39,0,0,0-228.041,8.8A36.328,36.328,0,0,1,94.067,112.067Z" transform="translate(-66.5 -14)" fill="#9cc2e8"/>
      </g>
      <g id="Grupo_1071083" data-name="Grupo 1071083" transform="translate(76.389 30.305)">
        <path id="Trazado_815580" data-name="Trazado 815580" d="M66.3,54.294h90.442c-.117-4.223-6.686-7.742-14.78-7.977V45.261A17.4,17.4,0,0,0,124.6,27.9a17.2,17.2,0,0,0-14.663,8.211,12.346,12.346,0,0,0-4.692-.821,13.4,13.4,0,0,0-11.613,6.569c-7.625.587-13.49,4.106-13.49,7.859C75.333,47.49,67.473,50.071,66.3,54.294Z" transform="translate(-66.3 -27.9)" fill="#fff"/>
      </g>
      <g id="Grupo_1071084" data-name="Grupo 1071084" transform="translate(76.624 108.9)">
        <path id="Trazado_815581" data-name="Trazado 815581" d="M90.548,184.521H271.315a113.99,113.99,0,0,0,24.048-70.149,107.4,107.4,0,0,0-.7-12.434,42.112,42.112,0,0,0-49.268,19.825,32.135,32.135,0,0,0-55.368,4.34,20.661,20.661,0,0,0-11.261-5.044,29.377,29.377,0,0,0-55.955-8.915,36.229,36.229,0,0,0-56.189-1.408c0,1.173-.117,2.463-.117,3.636A113.773,113.773,0,0,0,90.548,184.521Z" transform="translate(-66.5 -94.9)" fill="#287559"/>
      </g>
      <g id="Grupo_1071085" data-name="Grupo 1071085" transform="translate(100.671 198.404)">
        <path id="Trazado_815582" data-name="Trazado 815582" d="M177.325,215.541A114.4,114.4,0,0,0,267.767,171.2H87A114,114,0,0,0,177.325,215.541Z" transform="translate(-87 -171.2)" fill="#7c5757"/>
      </g>
      <g id="Grupo_1071087" data-name="Grupo 1071087" transform="translate(230.059 141.863)">
        <g id="Grupo_1071086" data-name="Grupo 1071086">
          <path id="Trazado_815583" data-name="Trazado 815583" d="M199.763,162.3l-2.463-.235a34.412,34.412,0,0,0,.117-3.988c.117-7.625.352-15.367,1.994-18.182L211.142,123l1.994,1.408L201.406,141.3c-1.408,2.346-1.525,11.848-1.642,16.892A23.292,23.292,0,0,1,199.763,162.3Z" transform="translate(-197.3 -123)" fill="#c6c6c6"/>
        </g>
      </g>
      <g id="Grupo_1071088" data-name="Grupo 1071088" transform="translate(238.617 141.089)">
        <path id="Trazado_815584" data-name="Trazado 815584" d="M209.762,122.645l-5.044,7.273a.764.764,0,0,0,.235,1.056l1.408.938a.764.764,0,0,0,1.056-.235l5.044-7.273a.764.764,0,0,0-.235-1.056l-1.408-.938a.9.9,0,0,0-1.056.235Z" transform="translate(-204.596 -122.34)" fill="#898989" fill-rule="evenodd"/>
      </g>
      <g id="Grupo_1071089" data-name="Grupo 1071089" transform="translate(193.929 181.043)">
        <path id="Trazado_815585" data-name="Trazado 815585" d="M172.952,157.456c-1.994,1.408-4.106,2.815-6.1,4.106a3.48,3.48,0,0,1,0-3.05A2.754,2.754,0,0,1,169.2,156.4,7.277,7.277,0,0,1,172.952,157.456Z" transform="translate(-166.5 -156.4)" fill="#a88585"/>
      </g>
      <g id="Grupo_1071178" data-name="Grupo 1071178" transform="translate(8 53.18)">
        <g id="Grupo_1071095" data-name="Grupo 1071095" transform="translate(92.671 18.886)">
          <g id="Grupo_1071090" data-name="Grupo 1071090" transform="translate(0.235 0.117)">
            <path id="Trazado_815586" data-name="Trazado 815586" d="M132.949,63.6,87.317,99.965l-.117,4.927L138.932,63.6Z" transform="translate(-87.2 -63.6)" fill="#2b646f"/>
          </g>
          <g id="Grupo_1071091" data-name="Grupo 1071091" transform="translate(1.76)">
            <path id="Trazado_815587" data-name="Trazado 815587" d="M92.723,63.5c-1.76,7.273-3.05,14.78-4.223,22.171L116.184,63.5Z" transform="translate(-88.5 -63.5)" fill="#2b646f"/>
          </g>
          <g id="Grupo_1071092" data-name="Grupo 1071092" transform="translate(0 0.117)">
            <path id="Trazado_815588" data-name="Trazado 815588" d="M142.72,63.6l2.7,3.285L90.285,111.109l-3.05-3.754L87,121.783H98.261V121.2H129V94.451h18.417V63.6Z" transform="translate(-87 -63.6)" fill="#2b646f"/>
          </g>
          <g id="Grupo_1071093" data-name="Grupo 1071093" transform="translate(0.352)">
            <path id="Trazado_815589" data-name="Trazado 815589" d="M116.392,63.5,88.708,85.671c-.469,3.285-.938,6.569-1.29,9.854L87.3,100.1l45.514-36.482Z" transform="translate(-87.3 -63.5)" fill="#4eaaa7"/>
          </g>
          <g id="Grupo_1071094" data-name="Grupo 1071094" transform="translate(0.235 0.117)">
            <path id="Trazado_815590" data-name="Trazado 815590" d="M145.383,66.885l-2.7-3.285h-3.754L87.2,104.891v2.463l3.05,3.754Z" transform="translate(-87.2 -63.6)" fill="#4eaaa7"/>
          </g>
        </g>
        <g id="Grupo_1071175" data-name="Grupo 1071175" transform="translate(0 0)">
          <g id="Grupo_1071096" data-name="Grupo 1071096" transform="translate(94.313 73.433)">
            <path id="Trazado_815591" data-name="Trazado 815591" d="M88.4,110h25.573v5.631H88.4Z" transform="translate(-88.4 -110)" fill="#404041" fill-rule="evenodd"/>
          </g>
          <g id="Grupo_1071097" data-name="Grupo 1071097" transform="translate(160.708 47.039)">
            <path id="Trazado_815592" data-name="Trazado 815592" d="M154.267,98.409c5.161,0,9.267-2.463,9.267-5.513s-4.106-5.4-9.267-5.4S145,89.963,145,92.9c0,3.05,4.223,5.513,9.267,5.513Z" transform="translate(-145 -87.5)" fill="#17854a" fill-rule="evenodd"/>
          </g>
          <g id="Grupo_1071098" data-name="Grupo 1071098" transform="translate(173.143 47.274)">
            <path id="Trazado_815593" data-name="Trazado 815593" d="M161.583,93.448v-.587c0-2.346-2.463-4.34-5.983-5.161a9.95,9.95,0,0,0,5.983,5.748Z" transform="translate(-155.6 -87.7)" fill="#f48120" fill-rule="evenodd"/>
          </g>
          <g id="Grupo_1071099" data-name="Grupo 1071099" transform="translate(59.591 100.883)">
            <path id="Trazado_815594" data-name="Trazado 815594" d="M58.8,133.4h90.208v3.754H58.8Z" transform="translate(-58.8 -133.4)" fill="#404041" fill-rule="evenodd"/>
          </g>
          <g id="Grupo_1071100" data-name="Grupo 1071100" transform="translate(94.548 15.954)">
            <path id="Trazado_815595" data-name="Trazado 815595" d="M128.249,64.871V101.7h-2.933V64.871H88.6l.469-2.463L145.024,61v3.871Z" transform="translate(-88.6 -61)" fill="#404041" fill-rule="evenodd"/>
          </g>
          <g id="Grupo_1071101" data-name="Grupo 1071101" transform="translate(150.503 19.59)">
            <path id="Trazado_815596" data-name="Trazado 815596" d="M140.875,64.1l4.106,30.851L139,95.186l-2.7-30.734Z" transform="translate(-136.3 -64.1)" fill="#404041" fill-rule="evenodd"/>
          </g>
          <g id="Grupo_1071102" data-name="Grupo 1071102" transform="translate(115.68 44.103)">
            <path id="Trazado_815597" data-name="Trazado 815597" d="M145.191,85c-5.4,0-19.59,2.346-22.523,4.575-5.748,4.458-17.244,23.344-15.954,35.309,1.408,12.669,28.623,3.871,33.08-14.78.469-2.229,12.9-25.455,5.4-25.1Z" transform="translate(-106.615 -84.997)" fill="#404041" fill-rule="evenodd"/>
          </g>
          <g id="Grupo_1071103" data-name="Grupo 1071103" transform="translate(102.173 19.003)">
            <path id="Trazado_815598" data-name="Trazado 815598" d="M95.1,63.6h3.05v64.635H95.1Z" transform="translate(-95.1 -63.6)" fill="#404041" fill-rule="evenodd"/>
          </g>
          <g id="Grupo_1071104" data-name="Grupo 1071104" transform="translate(7.742 80.559)">
            <path id="Trazado_815599" data-name="Trazado 815599" d="M14.6,121.618l.352-3.871a1.739,1.739,0,0,1,.938-1.408,1.406,1.406,0,0,1,1.642,0l10.206,5.044-13.138.235Z" transform="translate(-14.6 -116.075)" fill="#17854a" fill-rule="evenodd"/>
          </g>
          <g id="Grupo_1071105" data-name="Grupo 1071105" transform="translate(22.288 47.139)">
            <path id="Trazado_815600" data-name="Trazado 815600" d="M50.813,138.63l-3.4-22.053-2.346-9.619c-1.056-4.458-4.223-5.044-7.625-5.044H27c8.329-8.681,54.547-10.557,72.612-10.557v26.276H122.6c3.05-10.675,10.675-23.226,15.954-26.159,42-13.138,60.06,10.909,59.943,14.78-.469,11.5-22.757,2.815-25.924,19.942-2.229,12.434-11.731,21.232-23.93,21.232-7.273,0-10.44-8.446-17.948-8.446l-79.885-.352Z" transform="translate(-27 -87.585)" fill="#00a551" fill-rule="evenodd"/>
          </g>
          <g id="Grupo_1071106" data-name="Grupo 1071106" transform="translate(22.171 60.412)">
            <path id="Trazado_815601" data-name="Trazado 815601" d="M26.9,99.956l3.167,27.1h25.69L47.663,98.9Z" transform="translate(-26.9 -98.9)" fill="#404041" fill-rule="evenodd"/>
          </g>
          <g id="Grupo_1071107" data-name="Grupo 1071107" transform="translate(23.813 61.351)">
            <path id="Trazado_815602" data-name="Trazado 815602" d="M28.3,99.7l3.636,27.215h1.642L29.708,99.7Z" transform="translate(-28.3 -99.7)" fill="#231f20" fill-rule="evenodd"/>
          </g>
          <g id="Grupo_1071108" data-name="Grupo 1071108" transform="translate(27.215 61.116)">
            <path id="Trazado_815603" data-name="Trazado 815603" d="M31.2,99.617l3.754,27.332h1.525L32.725,99.5Z" transform="translate(-31.2 -99.5)" fill="#231f20" fill-rule="evenodd"/>
          </g>
          <g id="Grupo_1071109" data-name="Grupo 1071109" transform="translate(30.734 60.999)">
            <path id="Trazado_815604" data-name="Trazado 815604" d="M34.2,99.4l3.754,27.567h1.525L35.608,99.4Z" transform="translate(-34.2 -99.4)" fill="#231f20" fill-rule="evenodd"/>
          </g>
          <g id="Grupo_1071110" data-name="Grupo 1071110" transform="translate(34.136 60.764)">
            <path id="Trazado_815605" data-name="Trazado 815605" d="M37.1,99.317,40.854,127H42.5L38.625,99.2Z" transform="translate(-37.1 -99.2)" fill="#231f20" fill-rule="evenodd"/>
          </g>
          <g id="Grupo_1071111" data-name="Grupo 1071111" transform="translate(37.538 60.647)">
            <path id="Trazado_815606" data-name="Trazado 815606" d="M40,99.1l3.871,27.919H45.4L41.525,99.1Z" transform="translate(-40 -99.1)" fill="#231f20" fill-rule="evenodd"/>
          </g>
          <g id="Grupo_1071112" data-name="Grupo 1071112" transform="translate(41.057 60.412)">
            <path id="Trazado_815607" data-name="Trazado 815607" d="M43,99.017l3.871,28.036H48.4L44.408,98.9Z" transform="translate(-43 -98.9)" fill="#231f20" fill-rule="evenodd"/>
          </g>
          <g id="Grupo_1071113" data-name="Grupo 1071113" transform="translate(185.108 109.68)">
            <path id="Trazado_815608" data-name="Trazado 815608" d="M182.809,143.95c.352,2.581-1.056,5.161-3.167,5.865-2.346.7-4.692-1.056-5.161-3.754a6.2,6.2,0,0,1,.235-3.285h-8.094c-.469,0-.821-.117-.821-.352v-1.173c0-.117.352-.352.821-.352h10.44c.469,0,.821.117.821.352v1.173c0,.117-.352.352-.821.352h-.587a4.4,4.4,0,0,0,.117,1.173c.469,2.229,1.994,3.754,3.519,3.285a3.26,3.26,0,0,0,1.877-3.05l.821-.235Z" transform="translate(-165.8 -140.9)" fill="#00a551" fill-rule="evenodd"/>
          </g>
          <g id="Grupo_1071114" data-name="Grupo 1071114" transform="translate(94.196 50.441)">
            <path id="Trazado_815609" data-name="Trazado 815609" d="M88.3,90.4h3.05v26.746H88.3Z" transform="translate(-88.3 -90.4)" fill="#404041" fill-rule="evenodd"/>
          </g>
          <g id="Grupo_1071115" data-name="Grupo 1071115" transform="translate(0 83.756)">
            <path id="Trazado_815610" data-name="Trazado 815610" d="M8,121.733c0,2.7.587,13.138,1.29,13.842,1.173,1.056,15.954,1.877,21.467,1.877,7.625,0,6.8-18.652.7-18.652-3.636,0-23.109,1.408-23.461,2.933Z" transform="translate(-8 -118.8)" fill="#00a551" fill-rule="evenodd"/>
          </g>
          <g id="Grupo_1071116" data-name="Grupo 1071116" transform="translate(95.017 13.371)">
            <path id="Trazado_815611" data-name="Trazado 815611" d="M89,62.789c.235-3.988,34.37-4.692,52.318-3.4,6.335.469,7.39,2.463,7.742,5.865h-4.575c-.352-1.408-1.056-2.463-6.8-2.463H89Z" transform="translate(-89 -58.799)" fill="#00a551" fill-rule="evenodd"/>
          </g>
          <g id="Grupo_1071117" data-name="Grupo 1071117" transform="translate(92.671 48.447)">
            <path id="Trazado_815612" data-name="Trazado 815612" d="M87.352,88.7h39.063v2.581L87,91.163Z" transform="translate(-87 -88.7)" fill="#404041" fill-rule="evenodd"/>
          </g>
          <g id="Grupo_1071118" data-name="Grupo 1071118" transform="translate(156.224 16.525)">
            <path id="Trazado_815613" data-name="Trazado 815613" d="M141.321,63.379h0a2.724,2.724,0,0,1,3.4-1.76l1.76.587-1.642,5.161-1.76-.587a2.59,2.59,0,0,1-1.76-3.4Z" transform="translate(-141.177 -61.487)" fill="#404041" fill-rule="evenodd"/>
          </g>
          <g id="Grupo_1071119" data-name="Grupo 1071119" transform="translate(89.606 25.103)">
            <path id="Trazado_815614" data-name="Trazado 815614" d="M85.575,68.8h3.754A1.175,1.175,0,0,1,90.5,69.973V82.759a1.175,1.175,0,0,1-1.173,1.173H85.575A1.176,1.176,0,0,1,84.4,82.759V69.973A1.1,1.1,0,0,1,85.575,68.8Z" transform="translate(-84.387 -68.8)" fill="#404041" fill-rule="evenodd"/>
          </g>
          <g id="Grupo_1071120" data-name="Grupo 1071120" transform="translate(91.85 18.534)">
            <path id="Trazado_815615" data-name="Trazado 815615" d="M87.473,71.881H86.3V67.423A4.205,4.205,0,0,1,90.523,63.2h5.748v1.173H90.523a3.106,3.106,0,0,0-3.05,3.05Z" transform="translate(-86.3 -63.2)" fill="#404041"/>
          </g>
          <g id="Grupo_1071121" data-name="Grupo 1071121" transform="translate(38.007 53.726)">
            <path id="Trazado_815616" data-name="Trazado 815616" d="M40.4,98.127c8.563-3.4,30.734-4.223,54.312-4.927l-.235,3.285C77.586,96.25,59.755,96.6,40.4,98.127Z" transform="translate(-40.4 -93.2)" fill="#ffdd0f" fill-rule="evenodd"/>
          </g>
          <g id="Grupo_1071122" data-name="Grupo 1071122" transform="translate(117.775 49.864)">
            <path id="Trazado_815617" data-name="Trazado 815617" d="M187.933,109.019c-1.877-6.569-26.276-24.165-48.212-17.713-19.942,5.865-30.969,19.473-31.321,47.274h25.807l53.726-29.561Z" transform="translate(-108.4 -89.908)" fill="#404041" fill-rule="evenodd"/>
          </g>
          <g id="Grupo_1071123" data-name="Grupo 1071123" transform="translate(121.528 59.591)">
            <path id="Trazado_815618" data-name="Trazado 815618" d="M149.724,98.2A38.124,38.124,0,1,1,111.6,136.324,38.123,38.123,0,0,1,149.724,98.2Z" transform="translate(-111.6 -98.2)" fill="#404041" fill-rule="evenodd"/>
          </g>
          <g id="Grupo_1071124" data-name="Grupo 1071124" transform="translate(126.924 64.987)">
            <path id="Trazado_815619" data-name="Trazado 815619" d="M148.928,102.8A32.728,32.728,0,1,1,116.2,135.528,32.741,32.741,0,0,1,148.928,102.8Z" transform="translate(-116.2 -102.8)" fill="#58595b" fill-rule="evenodd"/>
          </g>
          <g id="Grupo_1071125" data-name="Grupo 1071125" transform="translate(121.411 59.356)">
            <path id="Trazado_815620" data-name="Trazado 815620" d="M147.865,98.117l-.352,6.8c.7,0,1.408-.117,2.111-.117h1.056l-.587-6.8h-.469c-.469,0-1.056.117-1.76.117Zm8.094.469a15.084,15.084,0,0,1,2.229.469l-.821,6.8a30,30,0,0,0-3.167-.587l1.76-6.686ZM163.7,100.7a16.616,16.616,0,0,1,2.111.938l-2.229,6.452a22.153,22.153,0,0,0-2.933-1.29l3.05-6.1Zm7.038,3.636c.587.469,1.29.821,1.877,1.29L169.1,111.49c-.821-.7-1.76-1.29-2.581-1.877l4.223-5.279Zm6.217,5.044a19.5,19.5,0,0,1,1.525,1.642l-4.692,4.927a21.08,21.08,0,0,0-2.229-2.346l5.4-4.223ZM182,115.713c.352.587.821,1.29,1.173,1.994l-5.631,3.871a20.653,20.653,0,0,0-1.642-2.7l6.1-3.167Zm3.519,7.156.7,2.111-6.334,2.7a31.352,31.352,0,0,0-1.056-3.05l6.686-1.76Zm2.111,7.742a14.374,14.374,0,0,1,.235,2.229l-6.686,1.29-.352-3.167,6.8-.352Zm.352,7.977a14.374,14.374,0,0,1-.235,2.229l-6.8-.117a28.764,28.764,0,0,0,.235-3.167l6.8,1.056Zm-1.29,7.977c-.235.7-.469,1.408-.7,2.229l-6.686-1.525a23.168,23.168,0,0,0,.938-3.05l6.452,2.346Zm-2.933,7.39c-.352.7-.7,1.29-1.056,1.994l-6.217-2.933c.587-.938,1.056-1.877,1.525-2.815l5.748,3.754Zm-4.458,6.686a20.388,20.388,0,0,1-1.525,1.76l-5.4-4.106c.7-.821,1.408-1.525,2.111-2.346l4.81,4.692Zm-5.631,5.631-1.76,1.408-4.458-5.161c.938-.587,1.76-1.29,2.581-1.877l3.636,5.631Zm-6.8,4.34a16.617,16.617,0,0,1-2.111.938l-3.285-5.983a31.886,31.886,0,0,0,2.933-1.29l2.463,6.334Zm-7.39,2.815a15.085,15.085,0,0,1-2.229.469l-1.994-6.569c1.056-.235,2.112-.469,3.05-.7l1.173,6.8Zm-7.977,1.29h-2.229l-.587-6.8h1.056a12.751,12.751,0,0,0,2.112-.117l-.352,6.921Zm-7.977-.469a15.083,15.083,0,0,1-2.229-.469l.821-6.8a30,30,0,0,0,3.167.587l-1.76,6.686Zm-7.742-2.111a16.615,16.615,0,0,1-2.111-.938l2.229-6.452a22.155,22.155,0,0,0,2.933,1.29l-3.05,6.1Zm-7.156-3.754c-.587-.469-1.29-.821-1.877-1.29l3.519-5.865c.821.7,1.76,1.29,2.581,1.877l-4.223,5.279Zm-6.217-5.044a19.481,19.481,0,0,1-1.525-1.642l4.692-4.927a21.079,21.079,0,0,0,2.229,2.346l-5.4,4.223Zm-4.927-6.217c-.352-.587-.821-1.29-1.173-1.994l5.631-3.871a20.66,20.66,0,0,0,1.642,2.7l-6.1,3.167Zm-3.636-7.156-.7-2.111,6.334-2.7a31.34,31.34,0,0,0,1.056,3.05l-6.686,1.76Zm-1.994-7.859a14.373,14.373,0,0,1-.235-2.229l6.686-1.29.352,3.167-6.8.352Zm-.352-7.977a14.373,14.373,0,0,1,.235-2.229l6.8.117a28.76,28.76,0,0,0-.235,3.167l-6.8-1.056Zm1.29-7.859c.235-.7.469-1.408.7-2.229l6.686,1.525a23.17,23.17,0,0,0-.938,3.05l-6.452-2.346Zm2.815-7.508c.352-.7.7-1.29,1.056-1.994l6.217,2.933c-.587.938-1.056,1.877-1.525,2.815l-5.748-3.754Zm4.458-6.686a20.39,20.39,0,0,1,1.525-1.76l5.4,4.106c-.7.821-1.408,1.525-2.111,2.346l-4.81-4.692Zm5.748-5.631,1.76-1.408,4.458,5.161c-.938.587-1.76,1.29-2.581,1.877l-3.636-5.631Zm6.686-4.34a16.615,16.615,0,0,1,2.111-.938l3.285,5.983a31.884,31.884,0,0,0-2.933,1.29l-2.463-6.334Zm7.508-2.815a15.086,15.086,0,0,1,2.229-.469l1.994,6.569c-1.056.235-2.111.469-3.05.7l-1.173-6.8Z" transform="translate(-111.5 -98)" fill="#58595b" fill-rule="evenodd"/>
          </g>
          <g id="Grupo_1071126" data-name="Grupo 1071126" transform="translate(138.42 76.483)">
            <path id="Trazado_815621" data-name="Trazado 815621" d="M147.232,112.6A21.232,21.232,0,1,1,126,133.832,21.227,21.227,0,0,1,147.232,112.6Z" transform="translate(-126 -112.6)" fill="#ffdd0f" fill-rule="evenodd"/>
          </g>
          <g id="Grupo_1071127" data-name="Grupo 1071127" transform="translate(142.174 80.237)">
            <path id="Trazado_815622" data-name="Trazado 815622" d="M146.678,115.8A17.478,17.478,0,1,1,129.2,133.278,17.522,17.522,0,0,1,146.678,115.8Z" transform="translate(-129.2 -115.8)" fill="#eeb926" fill-rule="evenodd"/>
          </g>
          <g id="Grupo_1071128" data-name="Grupo 1071128" transform="translate(152.38 90.442)">
            <path id="Trazado_815623" data-name="Trazado 815623" d="M145.173,124.5a7.273,7.273,0,1,1-7.273,7.273,7.234,7.234,0,0,1,7.273-7.273Z" transform="translate(-137.9 -124.5)" fill="#ffdd0f" fill-rule="evenodd"/>
          </g>
          <g id="Grupo_1071129" data-name="Grupo 1071129" transform="translate(158.479 86.337)">
            <path id="Trazado_815624" data-name="Trazado 815624" d="M144.273,121a1.173,1.173,0,1,1-1.173,1.173A1.108,1.108,0,0,1,144.273,121Z" transform="translate(-143.1 -121)" fill="#ffdd0f" fill-rule="evenodd"/>
          </g>
          <g id="Grupo_1071130" data-name="Grupo 1071130" transform="translate(152.442 88.244)">
            <path id="Trazado_815625" data-name="Trazado 815625" d="M138.477,122.83a1.091,1.091,0,1,1-.235,1.525c-.469-.352-.352-1.056.235-1.525Z" transform="translate(-137.953 -122.626)" fill="#ffdd0f" fill-rule="evenodd"/>
          </g>
          <g id="Grupo_1071131" data-name="Grupo 1071131" transform="translate(148.714 93.419)">
            <path id="Trazado_815626" data-name="Trazado 815626" d="M134.8,127.815a1.113,1.113,0,1,1,.7,1.408,1.139,1.139,0,0,1-.7-1.408Z" transform="translate(-134.775 -127.037)" fill="#ffdd0f" fill-rule="evenodd"/>
          </g>
          <g id="Grupo_1071132" data-name="Grupo 1071132" transform="translate(148.67 99.753)">
            <path id="Trazado_815627" data-name="Trazado 815627" d="M134.811,133.919a1.113,1.113,0,1,1,1.408.7,1.093,1.093,0,0,1-1.408-.7Z" transform="translate(-134.737 -132.437)" fill="#ffdd0f" fill-rule="evenodd"/>
          </g>
          <g id="Grupo_1071133" data-name="Grupo 1071133" transform="translate(152.527 105.018)">
            <path id="Trazado_815628" data-name="Trazado 815628" d="M138.465,138.89a1.091,1.091,0,1,1,1.525-.235,1.112,1.112,0,0,1-1.525.235Z" transform="translate(-138.026 -136.926)" fill="#ffdd0f" fill-rule="evenodd"/>
          </g>
          <g id="Grupo_1071134" data-name="Grupo 1071134" transform="translate(158.479 106.748)">
            <path id="Trazado_815629" data-name="Trazado 815629" d="M144.273,140.746a1.173,1.173,0,1,1,1.173-1.173,1.257,1.257,0,0,1-1.173,1.173Z" transform="translate(-143.1 -138.4)" fill="#ffdd0f" fill-rule="evenodd"/>
          </g>
          <g id="Grupo_1071135" data-name="Grupo 1071135" transform="translate(164.609 105.018)">
            <path id="Trazado_815630" data-name="Trazado 815630" d="M150.055,138.89a1.091,1.091,0,1,1,.235-1.525,1.112,1.112,0,0,1-.235,1.525Z" transform="translate(-148.326 -136.926)" fill="#ffdd0f" fill-rule="evenodd"/>
          </g>
          <g id="Grupo_1071136" data-name="Grupo 1071136" transform="translate(168.26 99.753)">
            <path id="Trazado_815631" data-name="Trazado 815631" d="M153.622,133.919a1.113,1.113,0,1,1-.7-1.408,1.093,1.093,0,0,1,.7,1.408Z" transform="translate(-151.437 -132.437)" fill="#ffdd0f" fill-rule="evenodd"/>
          </g>
          <g id="Grupo_1071137" data-name="Grupo 1071137" transform="translate(168.26 93.419)">
            <path id="Trazado_815632" data-name="Trazado 815632" d="M153.622,127.815a1.113,1.113,0,1,1-1.408-.7,1.051,1.051,0,0,1,1.408.7Z" transform="translate(-151.437 -127.037)" fill="#ffdd0f" fill-rule="evenodd"/>
          </g>
          <g id="Grupo_1071138" data-name="Grupo 1071138" transform="translate(164.609 88.244)">
            <path id="Trazado_815633" data-name="Trazado 815633" d="M150.055,122.83a1.091,1.091,0,1,1-1.525.235,1.112,1.112,0,0,1,1.525-.235Z" transform="translate(-148.326 -122.626)" fill="#ffdd0f" fill-rule="evenodd"/>
          </g>
          <g id="Grupo_1071139" data-name="Grupo 1071139" transform="translate(103.111 7.508)">
            <path id="Trazado_815634" data-name="Trazado 815634" d="M95.9,53.8h1.76V68.58H95.9Z" transform="translate(-95.9 -53.8)" fill="#404041" fill-rule="evenodd"/>
          </g>
          <g id="Grupo_1071140" data-name="Grupo 1071140" transform="translate(101)">
            <path id="Trazado_815635" data-name="Trazado 815635" d="M97.033,47.4h0a2.9,2.9,0,0,1,2.933,2.933v1.994a2.9,2.9,0,0,1-2.933,2.933h0A2.9,2.9,0,0,1,94.1,52.327V50.333A2.98,2.98,0,0,1,97.033,47.4Z" transform="translate(-94.1 -47.4)" fill="#f48120" fill-rule="evenodd"/>
          </g>
          <g id="Grupo_1071141" data-name="Grupo 1071141" transform="translate(101.117 4.927)">
            <path id="Trazado_815636" data-name="Trazado 815636" d="M100.065,51.6h0a2.933,2.933,0,0,1-2.933,3.05h0A2.9,2.9,0,0,1,94.2,51.717V51.6Z" transform="translate(-94.2 -51.6)" fill="#404041" fill-rule="evenodd"/>
          </g>
          <g id="Grupo_1071142" data-name="Grupo 1071142" transform="translate(42.934 58.987)">
            <path id="Trazado_815637" data-name="Trazado 815637" d="M44.6,99.11c11.379-1.056,34.019-1.525,51.262-1.408v18.182h22.875l-.938,21.35-61.233-.352L47.65,109.433,44.6,99.11Z" transform="translate(-44.6 -97.685)" fill="#17854a" fill-rule="evenodd"/>
          </g>
          <g id="Grupo_1071143" data-name="Grupo 1071143" transform="translate(22.875 71.791)">
            <path id="Trazado_815638" data-name="Trazado 815638" d="M35.477,111.885h0c0,1.76-2.111,3.285-4.692,3.285H27.617L27.5,108.6h3.167c2.581,0,4.692,1.408,4.81,3.285Z" transform="translate(-27.5 -108.6)" fill="#58595b" fill-rule="evenodd"/>
          </g>
          <g id="Grupo_1071144" data-name="Grupo 1071144" transform="translate(109.798 80.706)">
            <path id="Trazado_815639" data-name="Trazado 815639" d="M103.008,116.2,101.6,147.051h5.631l1.76-30.851Z" transform="translate(-101.6 -116.2)" fill="#00a551" fill-rule="evenodd"/>
          </g>
          <g id="Grupo_1071145" data-name="Grupo 1071145" transform="translate(83.697 73.433)">
            <path id="Trazado_815640" data-name="Trazado 815640" d="M81.872,110H97.826l-1.76,35.426H86.33a1.7,1.7,0,0,1-1.76-1.642c-.821-10.909-2.111-20.763-5.044-27.332a1.74,1.74,0,0,1,0-1.525L81.872,110Z" transform="translate(-79.35 -110)" fill="#58595b" fill-rule="evenodd"/>
          </g>
          <g id="Grupo_1071146" data-name="Grupo 1071146" transform="translate(98.654 80.706)">
            <path id="Trazado_815641" data-name="Trazado 815641" d="M93.508,116.2,92.1,147.169l5.631-.117L99.49,116.2Z" transform="translate(-92.1 -116.2)" fill="#00a551" fill-rule="evenodd"/>
          </g>
          <g id="Grupo_1071147" data-name="Grupo 1071147" transform="translate(101.352 86.689)">
            <path id="Trazado_815642" data-name="Trazado 815642" d="M94.4,121.3h14.429v1.525H94.4Z" transform="translate(-94.4 -121.3)" fill="#a5cd39" fill-rule="evenodd"/>
          </g>
          <g id="Grupo_1071148" data-name="Grupo 1071148" transform="translate(100.648 97.481)">
            <path id="Trazado_815643" data-name="Trazado 815643" d="M93.8,130.5h14.546v1.525H93.8Z" transform="translate(-93.8 -130.5)" fill="#a5cd39" fill-rule="evenodd"/>
          </g>
          <g id="Grupo_1071149" data-name="Grupo 1071149" transform="translate(100.061 110.15)">
            <path id="Trazado_815644" data-name="Trazado 815644" d="M93.3,141.3h14.429v1.408H93.3Z" transform="translate(-93.3 -141.3)" fill="#a5cd39" fill-rule="evenodd"/>
          </g>
          <g id="Grupo_1071150" data-name="Grupo 1071150" transform="translate(47.204 59.35)">
            <path id="Trazado_815645" data-name="Trazado 815645" d="M51.008,117.943l-2.7-14.9a3.558,3.558,0,0,1,1.056-3.285,4.876,4.876,0,0,1,3.519-1.525L57.695,98a4.849,4.849,0,0,1,5.161,3.519l3.05,15.015a3.683,3.683,0,0,1-1.056,3.4,5.147,5.147,0,0,1-3.636,1.525l-5.161.235c-2.581-.117-4.692-1.642-5.044-3.754Z" transform="translate(-48.24 -97.995)" fill="#00a551" fill-rule="evenodd"/>
          </g>
          <g id="Grupo_1071151" data-name="Grupo 1071151" transform="translate(49.005 60.991)">
            <path id="Trazado_815646" data-name="Trazado 815646" d="M51.681,116.41,49.8,103.741a3.517,3.517,0,0,1,.821-2.815,3.278,3.278,0,0,1,2.581-1.29l3.519-.235a3.5,3.5,0,0,1,3.754,3.05l2.229,12.786a3.713,3.713,0,0,1-.7,2.933,3.507,3.507,0,0,1-2.7,1.29l-3.754.117a3.812,3.812,0,0,1-3.871-3.167Z" transform="translate(-49.775 -99.394)" fill="#404041" fill-rule="evenodd"/>
          </g>
          <g id="Grupo_1071152" data-name="Grupo 1071152" transform="translate(48.447 64.87)">
            <path id="Trazado_815647" data-name="Trazado 815647" d="M49.3,103.99l13.021-1.29-.117,1.525-12.9,1.29Z" transform="translate(-49.3 -102.7)" fill="#00a551" fill-rule="evenodd"/>
          </g>
          <g id="Grupo_1071153" data-name="Grupo 1071153" transform="translate(49.855 71.087)">
            <path id="Trazado_815648" data-name="Trazado 815648" d="M50.5,111.636,63.169,108l.117,1.525-12.552,3.519Z" transform="translate(-50.5 -108)" fill="#00a551" fill-rule="evenodd"/>
          </g>
          <g id="Grupo_1071154" data-name="Grupo 1071154" transform="translate(31.881 70.453)">
            <path id="Trazado_815649" data-name="Trazado 815649" d="M35.2,110.088c27.684-9.854,52.084,9.619,50.91,31.555-1.173.352-2.346.821-3.519,1.173-4.223-28.857-24.282-36.482-44.811-31.321.469-.587-2.933-.821-2.581-1.408Z" transform="translate(-35.178 -107.46)" fill="#6d6e70" fill-rule="evenodd"/>
          </g>
          <g id="Grupo_1071155" data-name="Grupo 1071155" transform="translate(83.639 73.433)">
            <path id="Trazado_815650" data-name="Trazado 815650" d="M81.881,110H97.834l-.235,5.513H79.3c0-.235.117-.352.117-.587L81.881,110Z" transform="translate(-79.3 -110)" fill="#6d6e70" fill-rule="evenodd"/>
          </g>
          <g id="Grupo_1071156" data-name="Grupo 1071156" transform="translate(87.252 68.976)">
            <path id="Trazado_815651" data-name="Trazado 815651" d="M83.107,106.2h2.229a.676.676,0,0,1,.7.7v3.988a.676.676,0,0,1-.7.7H83.107a.676.676,0,0,1-.7-.7V106.9c-.117-.469.235-.7.7-.7Z" transform="translate(-82.381 -106.2)" fill="#58595b" fill-rule="evenodd"/>
          </g>
          <g id="Grupo_1071157" data-name="Grupo 1071157" transform="translate(100.061 73.433)">
            <path id="Trazado_815652" data-name="Trazado 815652" d="M93.3,110h18.886a41.224,41.224,0,0,0-1.642,7.39H93.3V110Z" transform="translate(-93.3 -110)" fill="#404041" fill-rule="evenodd"/>
          </g>
          <g id="Grupo_1071158" data-name="Grupo 1071158" transform="translate(9.384 81.527)">
            <path id="Trazado_815653" data-name="Trazado 815653" d="M16.938,116.9a.938.938,0,1,1-.938.938.925.925,0,0,1,.938-.938Z" transform="translate(-16 -116.9)" fill="#fff" fill-rule="evenodd"/>
          </g>
          <g id="Grupo_1071159" data-name="Grupo 1071159" transform="translate(13.607 74.841)">
            <path id="Trazado_815654" data-name="Trazado 815654" d="M50.217,111.2A30.617,30.617,0,1,1,19.6,141.817,30.639,30.639,0,0,1,50.217,111.2Z" transform="translate(-19.6 -111.2)" fill="#404041" fill-rule="evenodd"/>
          </g>
          <g id="Grupo_1071160" data-name="Grupo 1071160" transform="translate(17.948 79.181)">
            <path id="Trazado_815655" data-name="Trazado 815655" d="M49.576,114.9A26.276,26.276,0,1,1,23.3,141.176,26.233,26.233,0,0,1,49.576,114.9Z" transform="translate(-23.3 -114.9)" fill="#58595b" fill-rule="evenodd"/>
          </g>
          <g id="Grupo_1071161" data-name="Grupo 1071161" transform="translate(13.49 74.723)">
            <path id="Trazado_815656" data-name="Trazado 815656" d="M48.709,111.1l-.235,5.513h2.463l-.469-5.4h-.352a4.834,4.834,0,0,0-1.408-.117Zm6.452.352,1.76.352-.7,5.4a18.214,18.214,0,0,0-2.463-.469l1.408-5.279Zm6.217,1.76c.587.235,1.173.469,1.642.7l-1.76,5.161c-.7-.352-1.525-.7-2.346-1.056l2.463-4.81Zm5.748,2.933c.469.352,1.056.7,1.525,1.056l-2.815,4.692c-.7-.469-1.408-1.056-2.111-1.525l3.4-4.223Zm4.927,4.106,1.29,1.29-3.754,3.988c-.587-.7-1.173-1.29-1.76-1.877l4.223-3.4Zm3.988,4.927c.352.469.587,1.056.938,1.525l-4.458,3.167a21.789,21.789,0,0,0-1.29-2.229l4.81-2.463Zm2.933,5.748a10.323,10.323,0,0,1,.587,1.76L74.516,134.8a20.217,20.217,0,0,0-.821-2.463l5.279-1.408Zm1.642,6.217c.117.587.117,1.173.235,1.76l-5.4,1.056a19.475,19.475,0,0,0-.352-2.581l5.513-.235Zm.235,6.452c0,.587-.117,1.173-.117,1.76l-5.513-.117a17.572,17.572,0,0,0,.235-2.581l5.4.938Zm-.938,6.334a10.322,10.322,0,0,1-.587,1.76l-5.279-1.29a19.417,19.417,0,0,0,.7-2.463l5.161,1.994Zm-2.346,5.983a11.721,11.721,0,0,1-.938,1.642L71.7,155.207c.469-.7.821-1.408,1.29-2.229l4.575,2.933Zm-3.636,5.4c-.352.469-.821.938-1.173,1.408l-4.34-3.285a23.492,23.492,0,0,0,1.642-1.877l3.871,3.754Zm-4.458,4.575-1.408,1.056-3.636-4.106a12.807,12.807,0,0,0,1.994-1.525l3.05,4.575Zm-5.513,3.4c-.587.235-1.056.587-1.642.821l-2.7-4.81c.821-.352,1.525-.7,2.346-1.056l1.994,5.044Zm-5.983,2.346-1.76.352L54.574,166.7a18.757,18.757,0,0,0,2.463-.587l.938,5.513Zm-6.334.938h-1.76l-.469-5.4h2.463l-.235,5.4Zm-6.452-.352-1.76-.352.7-5.4a18.213,18.213,0,0,0,2.463.469l-1.408,5.279Zm-6.217-1.76c-.587-.235-1.173-.469-1.642-.7l1.76-5.161c.821.352,1.525.7,2.346,1.056l-2.463,4.81Zm-5.631-2.933c-.469-.352-1.056-.7-1.525-1.056l2.815-4.692c.7.469,1.408,1.056,2.111,1.525l-3.4,4.223ZM28.3,163.418l-1.29-1.29,3.754-3.988c.587.7,1.173,1.29,1.76,1.877l-4.223,3.4Zm-3.988-5.044c-.352-.469-.587-1.056-.938-1.525l4.458-3.167a21.787,21.787,0,0,0,1.29,2.229l-4.81,2.463Zm-2.933-5.631a10.323,10.323,0,0,1-.587-1.76l5.044-2.111a20.215,20.215,0,0,0,.821,2.463l-5.279,1.408Zm-1.525-6.335c-.117-.587-.117-1.173-.235-1.76l5.4-1.056a19.478,19.478,0,0,0,.352,2.581l-5.513.235Zm-.352-6.334c0-.587.117-1.173.117-1.877l5.513.117A17.571,17.571,0,0,0,24.9,140.9l-5.4-.821Zm1.056-6.334a10.322,10.322,0,0,1,.587-1.76l5.279,1.29a19.417,19.417,0,0,0-.7,2.463l-5.161-1.994Zm2.346-5.983a11.723,11.723,0,0,1,.938-1.642l4.927,2.346c-.469.7-.821,1.408-1.29,2.229L22.9,127.757Zm3.519-5.4c.352-.469.821-.938,1.173-1.408l4.34,3.285a23.491,23.491,0,0,0-1.642,1.877l-3.871-3.754ZM31,117.786l1.408-1.056,3.636,4.106a12.807,12.807,0,0,0-1.994,1.525L31,117.786Zm5.4-3.4c.587-.235,1.056-.587,1.642-.821l2.7,4.81c-.821.352-1.525.7-2.346,1.056l-1.994-5.044Zm5.983-2.346,1.76-.352,1.642,5.279a18.753,18.753,0,0,0-2.463.587l-.938-5.513Z" transform="translate(-19.5 -111.1)" fill="#58595b" fill-rule="evenodd"/>
          </g>
          <g id="Grupo_1071162" data-name="Grupo 1071162" transform="translate(27.215 88.448)">
            <path id="Trazado_815657" data-name="Trazado 815657" d="M48.209,122.8A17.009,17.009,0,1,1,31.2,139.809,17.021,17.021,0,0,1,48.209,122.8Z" transform="translate(-31.2 -122.8)" fill="#ffdd0f" fill-rule="evenodd"/>
          </g>
          <g id="Grupo_1071163" data-name="Grupo 1071163" transform="translate(30.147 91.381)">
            <path id="Trazado_815658" data-name="Trazado 815658" d="M47.777,125.3A14.077,14.077,0,1,1,33.7,139.377,14.118,14.118,0,0,1,47.777,125.3Z" transform="translate(-33.7 -125.3)" fill="#eeb926" fill-rule="evenodd"/>
          </g>
          <g id="Grupo_1071164" data-name="Grupo 1071164" transform="translate(38.359 99.592)">
            <path id="Trazado_815659" data-name="Trazado 815659" d="M46.565,132.3a5.865,5.865,0,1,1-5.865,5.865,5.808,5.808,0,0,1,5.865-5.865Z" transform="translate(-40.7 -132.3)" fill="#ffdd0f" fill-rule="evenodd"/>
          </g>
          <g id="Grupo_1071165" data-name="Grupo 1071165" transform="translate(43.286 96.308)">
            <path id="Trazado_815660" data-name="Trazado 815660" d="M45.838,129.5a.938.938,0,1,1-.938.938.863.863,0,0,1,.938-.938Z" transform="translate(-44.9 -129.5)" fill="#ffdd0f" fill-rule="evenodd"/>
          </g>
          <g id="Grupo_1071166" data-name="Grupo 1071166" transform="translate(38.439 97.913)">
            <path id="Trazado_815661" data-name="Trazado 815661" d="M41.157,131.023a.927.927,0,1,1-.235,1.29c-.235-.469-.235-1.056.235-1.29Z" transform="translate(-40.769 -130.869)" fill="#ffdd0f" fill-rule="evenodd"/>
          </g>
          <g id="Grupo_1071167" data-name="Grupo 1071167" transform="translate(35.454 102.026)">
            <path id="Trazado_815662" data-name="Trazado 815662" d="M38.313,134.991a.927.927,0,1,1,.587,1.173c-.587-.235-.821-.7-.587-1.173Z" transform="translate(-38.223 -134.375)" fill="#ffdd0f" fill-rule="evenodd"/>
          </g>
          <g id="Grupo_1071168" data-name="Grupo 1071168" transform="translate(35.396 107.07)">
            <path id="Trazado_815663" data-name="Trazado 815663" d="M38.2,139.877a.927.927,0,1,1,1.173.587,1.028,1.028,0,0,1-1.173-.587Z" transform="translate(-38.175 -138.674)" fill="#ffdd0f" fill-rule="evenodd"/>
          </g>
          <g id="Grupo_1071169" data-name="Grupo 1071169" transform="translate(38.471 111.201)">
            <path id="Trazado_815664" data-name="Trazado 815664" d="M41.153,143.843a.927.927,0,1,1,1.29-.235.858.858,0,0,1-1.29.235Z" transform="translate(-40.796 -142.196)" fill="#ffdd0f" fill-rule="evenodd"/>
          </g>
          <g id="Grupo_1071170" data-name="Grupo 1071170" transform="translate(43.286 112.73)">
            <path id="Trazado_815665" data-name="Trazado 815665" d="M45.838,145.377a.938.938,0,1,1,.938-.938c-.117.587-.469.938-.938.938Z" transform="translate(-44.9 -143.5)" fill="#ffdd0f" fill-rule="evenodd"/>
          </g>
          <g id="Grupo_1071171" data-name="Grupo 1071171" transform="translate(48.176 111.169)">
            <path id="Trazado_815666" data-name="Trazado 815666" d="M50.513,143.848a.927.927,0,1,1,.235-1.29,1.039,1.039,0,0,1-.235,1.29Z" transform="translate(-49.069 -142.169)" fill="#ffdd0f" fill-rule="evenodd"/>
          </g>
          <g id="Grupo_1071172" data-name="Grupo 1071172" transform="translate(51.115 107.07)">
            <path id="Trazado_815667" data-name="Trazado 815667" d="M53.364,139.877a.927.927,0,1,1-.587-1.173,1.028,1.028,0,0,1,.587,1.173Z" transform="translate(-51.575 -138.674)" fill="#ffdd0f" fill-rule="evenodd"/>
          </g>
          <g id="Grupo_1071173" data-name="Grupo 1071173" transform="translate(51.115 102.026)">
            <path id="Trazado_815668" data-name="Trazado 815668" d="M53.364,134.991a.927.927,0,1,1-1.173-.587.968.968,0,0,1,1.173.587Z" transform="translate(-51.575 -134.375)" fill="#ffdd0f" fill-rule="evenodd"/>
          </g>
          <g id="Grupo_1071174" data-name="Grupo 1071174" transform="translate(48.208 97.863)">
            <path id="Trazado_815669" data-name="Trazado 815669" d="M50.508,131.03a.927.927,0,1,1-1.29.235.833.833,0,0,1,1.29-.235Z" transform="translate(-49.096 -130.826)" fill="#ffdd0f" fill-rule="evenodd"/>
          </g>
        </g>
        <g id="Grupo_1071176" data-name="Grupo 1071176" transform="translate(43.755 74.841)" opacity="0.33">
          <path id="Trazado_815670" data-name="Trazado 815670" d="M45.769,111.2H45.3v61.116h.469a30.558,30.558,0,1,0,0-61.116Z" transform="translate(-45.3 -111.2)" fill="#020000" fill-rule="evenodd"/>
        </g>
        <g id="Grupo_1071177" data-name="Grupo 1071177" transform="translate(159.652 59.591)" opacity="0.33">
          <path id="Trazado_815671" data-name="Trazado 815671" d="M144.1,98.2h0v76.366h0a38.183,38.183,0,0,0,0-76.366Z" transform="translate(-144.1 -98.2)" fill="#020000" fill-rule="evenodd"/>
        </g>
      </g>
      <g id="Grupo_1071179" data-name="Grupo 1071179" transform="translate(270.514 198.227)">
        <path id="Trazado_815672" data-name="Trazado 815672" d="M242.594,171.109a8.08,8.08,0,0,0-5.4,1.29,5.881,5.881,0,0,1-1.642.938c-.352.117-.821.117-1.173.235a4.079,4.079,0,0,0-2.346,1.173,1.087,1.087,0,0,0,.352,1.642,3.184,3.184,0,0,0,1.877.352c3.285-.117,6.569-.117,9.854-.235C244.94,174.628,242.125,172.868,242.594,171.109Z" transform="translate(-231.787 -171.05)" fill="#a88585"/>
      </g>
      <g id="Grupo_1071180" data-name="Grupo 1071180" transform="translate(252.464 203.444)">
        <path id="Trazado_815673" data-name="Trazado 815673" d="M216.4,178.551l7.39.352a3.284,3.284,0,0,0-1.642-2.581,2.883,2.883,0,0,0-3.167-.587A7.458,7.458,0,0,0,216.4,178.551Z" transform="translate(-216.4 -175.496)" fill="#a88585"/>
      </g>
      <g id="Grupo_1071181" data-name="Grupo 1071181" transform="translate(167.94 193.681)">
        <path id="Trazado_815674" data-name="Trazado 815674" d="M163.413,170.372c-.587-1.056-1.994-1.408-3.285-1.525a33.425,33.425,0,0,1-3.4-.352c-2.112-.352-3.988-1.525-6.1-1.29-2.346.235-4.223,1.877-6.217,2.933-.352.938.821,1.642,1.642,1.994a28.546,28.546,0,0,0,6.1,1.994,9.458,9.458,0,0,0,6.217-.821C160.128,172.366,161.536,170.841,163.413,170.372Z" transform="translate(-144.345 -167.174)" fill="#a88585"/>
      </g>
      <g id="Grupo_1071182" data-name="Grupo 1071182" transform="translate(97.739 193.477)">
        <path id="Trazado_815675" data-name="Trazado 815675" d="M96.348,173.569c2.815-.821,5.983.469,8.446-.938.938-1.29-.117-3.167-1.525-3.636-1.408-.587-3.05-.117-4.575.352a9.733,9.733,0,0,1-4.458.821c.235-.352-.117-.7-.469-1.056-.821-.7-1.525-1.408-2.346-2.111-2.463,0-4.81,1.29-6.921,2.581a6.65,6.65,0,0,0,1.525.938c1.76,1.056,3.519,2.111,5.279,3.285a6.067,6.067,0,0,0,1.525.7C94,174.625,95.175,173.921,96.348,173.569Z" transform="translate(-84.5 -167)" fill="#a88585"/>
      </g>
      <g id="Grupo_1071183" data-name="Grupo 1071183" transform="translate(140.672 199.888)">
        <path id="Trazado_815676" data-name="Trazado 815676" d="M125.44,178.019a3.541,3.541,0,0,0,2.463-.235,3.194,3.194,0,0,0,.938-1.173c.587-1.056,1.173-2.111,1.76-3.285a25.9,25.9,0,0,0-9.5-.7,2.835,2.835,0,0,1,1.173,2.229v1.056C122.508,177.316,124.15,177.785,125.44,178.019Z" transform="translate(-121.1 -172.465)" fill="#a88585"/>
      </g>
      <g id="Grupo_1071184" data-name="Grupo 1071184" transform="translate(155.57 200.163)">
        <path id="Trazado_815677" data-name="Trazado 815677" d="M153.507,177.392c-1.877-.938-3.871-1.76-5.748-2.7a34.217,34.217,0,0,0-3.636-1.642,3.123,3.123,0,0,0-1.408-.352,2.46,2.46,0,0,0-1.29.469c-2.581,1.408-5.044,2.815-7.625,4.223,5.4,2.7,11.613,2.346,17.6,1.877C152.569,179.269,154.211,178.331,153.507,177.392Z" transform="translate(-133.8 -172.7)" fill="#a88585"/>
      </g>
      <g id="Grupo_1071185" data-name="Grupo 1071185" transform="translate(195.102 196.753)">
        <path id="Trazado_815678" data-name="Trazado 815678" d="M167.5,174.493c3.285.469,6.569.821,9.854,1.29a20.2,20.2,0,0,0,7.508.117c2.463-.587,4.81-2.229,5.4-4.692-3.285-.821-6.686-1.76-9.971-1.29-2.815.469-5.4,1.76-8.211,2.111C170.081,172.147,167.5,172.617,167.5,174.493Z" transform="translate(-167.5 -169.793)" fill="#a88585"/>
      </g>
      <g id="Grupo_1071186" data-name="Grupo 1071186" transform="translate(239.907 196.987)">
        <path id="Trazado_815679" data-name="Trazado 815679" d="M205.818,173.755a2.777,2.777,0,0,0,1.525,1.525,6.648,6.648,0,0,0,7.038-.587c1.29-.938,2.229-2.463,3.754-2.815.821-.117,1.525.117,2.346,0s1.642-.7,1.525-1.408c-3.519-.117-7.038-.352-10.44-.469a8.92,8.92,0,0,0-3.988.469A2.75,2.75,0,0,0,205.818,173.755Z" transform="translate(-205.695 -169.992)" fill="#a88585"/>
      </g>
      <g id="Grupo_1071187" data-name="Grupo 1071187" transform="translate(204.777 176.82)">
        <path id="Trazado_815680" data-name="Trazado 815680" d="M184.49,152.8a7.8,7.8,0,0,0-4.575,3.05,6.806,6.806,0,0,1-1.173,1.408c-.352.235-.7.352-1.056.587a5.737,5.737,0,0,0-1.877,1.877,1.113,1.113,0,0,0,.821,1.408,3.577,3.577,0,0,0,1.877-.352c3.05-1.173,6.1-2.346,9.15-3.636C187.892,155.5,184.724,154.677,184.49,152.8Z" transform="translate(-175.747 -152.8)" fill="#a88585"/>
      </g>
      <g id="Grupo_1071188" data-name="Grupo 1071188" transform="translate(207.302 166.38)">
        <path id="Trazado_815681" data-name="Trazado 815681" d="M206.757,144.135,177.9,143.9v2.581l28.857.235Z" transform="translate(-177.9 -143.9)" fill="#c6c6c6" fill-rule="evenodd"/>
      </g>
      <g id="Grupo_1071203" data-name="Grupo 1071203" transform="translate(232.405 182.216)">
        <g id="Grupo_1071189" data-name="Grupo 1071189">
          <path id="Trazado_815682" data-name="Trazado 815682" d="M199.3,157.517l.938,12.786,1.642-12.9Z" transform="translate(-199.3 -157.4)" fill="#898989" fill-rule="evenodd"/>
        </g>
        <g id="Grupo_1071190" data-name="Grupo 1071190" transform="translate(6.452)">
          <path id="Trazado_815683" data-name="Trazado 815683" d="M205.856,170.3l1.525-12.9-2.581.117Z" transform="translate(-204.8 -157.4)" fill="#898989" fill-rule="evenodd"/>
        </g>
        <g id="Grupo_1071191" data-name="Grupo 1071191" transform="translate(13.021)">
          <path id="Trazado_815684" data-name="Trazado 815684" d="M211.456,170.3l1.525-12.9-2.581.117Z" transform="translate(-210.4 -157.4)" fill="#898989" fill-rule="evenodd"/>
        </g>
        <g id="Grupo_1071192" data-name="Grupo 1071192" transform="translate(19.59)">
          <path id="Trazado_815685" data-name="Trazado 815685" d="M217.056,170.3l1.525-12.9-2.581.117Z" transform="translate(-216 -157.4)" fill="#898989" fill-rule="evenodd"/>
        </g>
        <g id="Grupo_1071193" data-name="Grupo 1071193" transform="translate(26.159)">
          <path id="Trazado_815686" data-name="Trazado 815686" d="M222.656,170.3l1.525-12.9-2.581.117Z" transform="translate(-221.6 -157.4)" fill="#898989" fill-rule="evenodd"/>
        </g>
        <g id="Grupo_1071194" data-name="Grupo 1071194" transform="translate(32.728)">
          <path id="Trazado_815687" data-name="Trazado 815687" d="M228.138,170.3l1.642-12.9-2.581.117Z" transform="translate(-227.2 -157.4)" fill="#898989" fill-rule="evenodd"/>
        </g>
        <g id="Grupo_1071195" data-name="Grupo 1071195" transform="translate(39.18)">
          <path id="Trazado_815688" data-name="Trazado 815688" d="M233.756,170.3l1.525-12.9-2.581.117Z" transform="translate(-232.7 -157.4)" fill="#898989" fill-rule="evenodd"/>
        </g>
        <g id="Grupo_1071196" data-name="Grupo 1071196" transform="translate(45.749)">
          <path id="Trazado_815689" data-name="Trazado 815689" d="M239.356,170.3l1.525-12.9-2.581.117Z" transform="translate(-238.3 -157.4)" fill="#898989" fill-rule="evenodd"/>
        </g>
        <g id="Grupo_1071197" data-name="Grupo 1071197" transform="translate(52.318)">
          <path id="Trazado_815690" data-name="Trazado 815690" d="M244.956,170.3l1.525-12.9-2.581.117Z" transform="translate(-243.9 -157.4)" fill="#898989" fill-rule="evenodd"/>
        </g>
        <g id="Grupo_1071198" data-name="Grupo 1071198" transform="translate(58.887)">
          <path id="Trazado_815691" data-name="Trazado 815691" d="M250.438,170.3l1.642-12.9-2.581.117Z" transform="translate(-249.5 -157.4)" fill="#898989" fill-rule="evenodd"/>
        </g>
        <g id="Grupo_1071199" data-name="Grupo 1071199" transform="translate(65.339)">
          <path id="Trazado_815692" data-name="Trazado 815692" d="M256.056,170.3l1.642-12.9-2.7.117Z" transform="translate(-255 -157.4)" fill="#898989" fill-rule="evenodd"/>
        </g>
        <g id="Grupo_1071200" data-name="Grupo 1071200" transform="translate(71.908)">
          <path id="Trazado_815693" data-name="Trazado 815693" d="M261.656,170.3l1.525-12.9-2.581.117Z" transform="translate(-260.6 -157.4)" fill="#898989" fill-rule="evenodd"/>
        </g>
        <g id="Grupo_1071201" data-name="Grupo 1071201" transform="translate(78.477)">
          <path id="Trazado_815694" data-name="Trazado 815694" d="M267.256,170.3l1.525-12.9-2.581.117Z" transform="translate(-266.2 -157.4)" fill="#898989" fill-rule="evenodd"/>
        </g>
        <g id="Grupo_1071202" data-name="Grupo 1071202" transform="translate(85.046)">
          <path id="Trazado_815695" data-name="Trazado 815695" d="M271.8,157.517l1.056,12.786,1.525-12.9Z" transform="translate(-271.8 -157.4)" fill="#898989" fill-rule="evenodd"/>
        </g>
      </g>
      <g id="Grupo_1071204" data-name="Grupo 1071204" transform="translate(227.126 178.462)">
        <path id="Trazado_815696" data-name="Trazado 815696" d="M292.281,154.317,194.8,154.2v5.161h97.481Z" transform="translate(-194.8 -154.2)" fill="#c6c6c6" fill-rule="evenodd"/>
      </g>
      <g id="Grupo_1071205" data-name="Grupo 1071205" transform="translate(15.208 186.625)">
        <path id="Trazado_815697" data-name="Trazado 815697" d="M153.451,162.028c-13.49.469-26.98,2.229-40.47,2.346-17.361-.469-86.1-6.686-91.733-.469-16.775-1.994,1.642-.587,0,9.384,24.517-.117,49.034-1.877,73.433.235,12.786-1.408,25.69.235,38.476-1.173,17.478-.587,34.957,3.519,52.435,3.636,45.866-1.994,91.85-4.927,137.716.938,0-4.34.235-12.9.235-14.546C266.885,166.134,210.227,162.263,153.451,162.028Z" transform="translate(-14.144 -161.159)" fill="#a88585"/>
      </g>
      <g id="Grupo_1071206" data-name="Grupo 1071206" transform="translate(169.881 196.988)">
        <path id="Trazado_815698" data-name="Trazado 815698" d="M146,174.693c3.285.469,6.569.821,9.854,1.29a20.2,20.2,0,0,0,7.508.117c2.463-.587,4.81-2.229,5.4-4.692-3.285-.821-6.686-1.76-9.971-1.29-2.815.469-5.4,1.76-8.211,2.111C148.581,172.347,146,172.7,146,174.693Z" transform="translate(-146 -169.993)" fill="#7c5757"/>
      </g>
      <g id="Grupo_1071207" data-name="Grupo 1071207" transform="translate(252.459 195.227)">
        <path id="Trazado_815699" data-name="Trazado 815699" d="M216.518,172.255a2.777,2.777,0,0,0,1.525,1.525,6.647,6.647,0,0,0,7.038-.587c1.29-.938,2.229-2.463,3.754-2.815.821-.117,1.525.117,2.346,0s1.642-.7,1.525-1.408c-3.519-.117-7.038-.352-10.44-.469a8.92,8.92,0,0,0-3.988.469A2.807,2.807,0,0,0,216.518,172.255Z" transform="translate(-216.395 -168.492)" fill="#7c5757"/>
      </g>
      <g id="Grupo_1071208" data-name="Grupo 1071208" transform="translate(299.504 173.418)">
        <path id="Trazado_815700" data-name="Trazado 815700" d="M281.6,150.135l-25.1-.235v3.871l25.1.235Z" transform="translate(-256.5 -149.9)" fill="#6d6e70" fill-rule="evenodd"/>
      </g>
      <g id="Grupo_1071209" data-name="Grupo 1071209" transform="translate(190.41 205.325)">
        <path id="Trazado_815701" data-name="Trazado 815701" d="M173.823,179.681c0,1.408-2.346,2.581-5.161,2.581s-5.161-1.173-5.161-2.581,2.346-2.581,5.161-2.581S173.823,178.273,173.823,179.681Z" transform="translate(-163.5 -177.1)" fill="#a88585"/>
      </g>
      <g id="Grupo_1071210" data-name="Grupo 1071210" transform="translate(101.844 202.627)">
        <path id="Trazado_815702" data-name="Trazado 815702" d="M100.669,177.967c0,1.76-2.815,3.167-6.334,3.167S88,179.727,88,177.967s2.815-3.167,6.334-3.167S100.669,176.208,100.669,177.967Z" transform="translate(-88 -174.8)" fill="#a88585"/>
      </g>
      <g id="Grupo_1071211" data-name="Grupo 1071211" transform="translate(265.72 205.794)">
        <path id="Trazado_815703" data-name="Trazado 815703" d="M240.369,180.667c0,1.76-2.815,3.167-6.334,3.167s-6.335-1.408-6.335-3.167,2.815-3.167,6.335-3.167S240.369,178.908,240.369,180.667Z" transform="translate(-227.7 -177.5)" fill="#a88585"/>
      </g>
      <g id="Grupo_1071212" data-name="Grupo 1071212" transform="translate(214.34 197.573)">
        <path id="Trazado_815704" data-name="Trazado 815704" d="M192.581,172.613c0,1.173-1.994,2.112-4.34,2.112s-4.34-.938-4.34-2.112,1.994-2.111,4.34-2.111C190.586,170.384,192.581,171.323,192.581,172.613Z" transform="translate(-183.9 -170.492)" fill="#7c5757"/>
      </g>
      <g id="Grupo_1071213" data-name="Grupo 1071213" transform="translate(120.613 196.527)">
        <path id="Trazado_815705" data-name="Trazado 815705" d="M116.669,172.767c0,1.76-2.815,3.167-6.334,3.167S104,174.527,104,172.767s2.815-3.167,6.334-3.167C113.736,169.6,116.669,171.008,116.669,172.767Z" transform="translate(-104 -169.6)" fill="#7c5757"/>
      </g>
      <g id="Grupo_1071214" data-name="Grupo 1071214" transform="translate(217.625 44.617)">
        <path id="Trazado_815706" data-name="Trazado 815706" d="M186.7,66.494h90.442c-.117-4.223-6.686-7.742-14.78-7.977V57.461A17.4,17.4,0,0,0,245,40.1a17.2,17.2,0,0,0-14.663,8.211,12.346,12.346,0,0,0-4.692-.821,13.4,13.4,0,0,0-11.613,6.569c-7.625.587-13.49,4.106-13.49,7.859C195.733,59.807,187.873,62.388,186.7,66.494Z" transform="translate(-186.7 -40.1)" fill="#fff"/>
      </g>
    </g>
  </g>
</svg>
