<svg xmlns="http://www.w3.org/2000/svg" width="400" height="309.545" viewBox="0 0 400 309.545">
  <g id="Grupo_1070656" data-name="Grupo 1070656" transform="translate(-772.64 -20577.662)">
    <path id="Trazado_815038" data-name="Trazado 815038" d="M449.732,186.052l128.9,76.545c21.6,12.49,56.6,12.49,78.281,0s21.622-32.716,0-45.188L528.013,140.9c-21.6-12.49-56.6-12.49-78.281,0S428.109,173.562,449.732,186.052Z" transform="translate(468.284 20615.242)" fill="#35241a" opacity="0.1"/>
    <path id="Trazado_815039" data-name="Trazado 815039" d="M375.945,172.814,450,215.718c10.283,5.924,26.962,5.924,37.244,0s10.283-15.585,0-21.509l-74.055-42.9c-10.283-5.943-26.962-5.943-37.244,0S365.662,166.889,375.945,172.814Z" transform="translate(410.415 20628.82)" fill="#35241a" opacity="0.1"/>
    <path id="Trazado_815040" data-name="Trazado 815040" d="M567.33,149.65l-4.528,36.7c-1.208,6.7-2.17,11.453-8.887,10.415l-21.962-3.773h-3a15.7,15.7,0,0,1-4.868,7.075,6.359,6.359,0,0,1-2.6,1.075c-13.962,2.038-11.7-15.547-11.7-15.547l2.415-6.981,6.641-2.924.585-.245,6.509,1.887,21.207,3.17s-1.453-22.886-1.7-23.867S567.33,149.65,567.33,149.65Z" transform="translate(535.814 20631.305)" fill="#54371a"/>
    <path id="Trazado_815041" data-name="Trazado 815041" d="M524.085,187.808a6.361,6.361,0,0,1-2.6,1.075c-13.962,2.038-11.7-15.547-11.7-15.547l2.415-6.962,6.641-2.924a4.17,4.17,0,0,1,1.415,1.34c1.66,2.434.528,5.66,0,8.585a16.98,16.98,0,0,0,2.019,10.868,16.111,16.111,0,0,1,1.811,3.566Z" transform="translate(535.814 20643.543)" fill="#1a1a1a"/>
    <path id="Trazado_815042" data-name="Trazado 815042" d="M475.79,82.489a238.652,238.652,0,0,0-20.848,14.566,77.353,77.353,0,0,0-16.981,18.339,50.942,50.942,0,0,0-7.905,23.471,52.509,52.509,0,0,0,3.962,24.735l-1.434.641a54.715,54.715,0,0,1,2.245-50.753A81.127,81.127,0,0,1,451.81,93.413,242.445,242.445,0,0,1,472.564,77.64Z" transform="translate(462.886 20567.449)" fill="#754c24"/>
    <path id="Trazado_815043" data-name="Trazado 815043" d="M501.933,187.775c-5.868,7.075-18.056-9.83-18.056-9.83l.623-2.868.4-1.774-3.717-4.4v-6.132L470.16,122.833c0-1.887,11.509,1.736,16.453,2.358l5.509,8.283,1.7,25.886s1.094,7.415,3.075,10.585c1.623,2.566,3.623,4.943,5.094,7.3C504.084,180.643,505.065,184,501.933,187.775Z" transform="translate(500.798 20607.047)" fill="#54371a"/>
    <path id="Trazado_815044" data-name="Trazado 815044" d="M502.78,135.883a18.02,18.02,0,0,1-1.887,8.188,20.584,20.584,0,0,1-4.585,5.981A23.216,23.216,0,0,1,493.1,152.5a14.12,14.12,0,0,0,.925,3.868,9.944,9.944,0,0,1,.868,2.585,2.226,2.226,0,0,1-1.113,2.283,1.887,1.887,0,0,1-2.075-.528,4,4,0,0,1-1.019-1.887,28.616,28.616,0,0,1-.472-4.6,27.225,27.225,0,0,1-9.887,2.453l-.4,5.17c0,.641-.189,1.434-.774,1.679a1.189,1.189,0,0,1-1.226-.245,3.018,3.018,0,0,1-.66-1.113,16.206,16.206,0,0,1-.7-5.49,27.206,27.206,0,0,1-11.038-3.17l-1.472,4.566c-.264.792-.642,1.717-1.453,1.887a1.736,1.736,0,0,1-1.887-1.4,6.1,6.1,0,0,1,.151-2.6,19.62,19.62,0,0,0,.358-4.453,3.787,3.787,0,0,0-.113-1.113,19.208,19.208,0,0,1-6.811-14.434,19.7,19.7,0,0,1,8.7-15.924,26.263,26.263,0,0,1,13.924-4.773h1.642C491.837,115.129,502.78,124.43,502.78,135.883Z" transform="translate(486.743 20600.811)" fill="#ffb294"/>
    <path id="Trazado_815045" data-name="Trazado 815045" d="M654.384,192.043,630.5,206.854l-3.66,16.056-18.528,13.207a47.074,47.074,0,0,1-38.64-2.3L536.915,216.7a49.869,49.869,0,0,1-11.981-8.811l-18.339-18.358L486.633,169.61l-13.339-10.132-1.887-1.528-23.735-17.981-5.132-34.716,5.66-16.981a10.813,10.813,0,0,1,3.245-4.792,10.149,10.149,0,0,1,2.453-1.642l21.584-10.113a11.038,11.038,0,0,1,6.264-.943l24.282,3.434a15.094,15.094,0,0,1,6.321,2.377l16.66,10.886,56.093,23.83a16.094,16.094,0,0,1,4.906,3.377l21,20.905,19.547-.547h1.887l7.151-.17a8.66,8.66,0,0,1,8.868,7.547l.736,6.245,3.641,29.867.453,3.566Z" transform="translate(476.306 20561.271)" fill="#754c24"/>
    <path id="Trazado_815046" data-name="Trazado 815046" d="M430.354,130.277a42.422,42.422,0,0,0,4.057,6.17,11.679,11.679,0,0,1,2.453,6.849,20.074,20.074,0,0,0,.377-12.754c-.83-2.66-3.132-8-5.943-9.132-2.094-.849-2.038.736-2.113,3A12.868,12.868,0,0,0,430.354,130.277Z" transform="translate(464.455 20606.057)" fill="#54371a"/>
    <path id="Trazado_815047" data-name="Trazado 815047" d="M589.163,143.655l-19.6,12.188a11.924,11.924,0,0,0-5.358,7.547l-.566,2.453a23.6,23.6,0,0,1-9.3,13.962l-11.32,8a46.848,46.848,0,0,1-25.716,2.208l-1.226-3.019,7.83-2.849a28.81,28.81,0,0,0,18.566-22.3,19.641,19.641,0,0,1,8.66-13.207l10.434-6.773,12.7-16.622,13.207,4.906Z" transform="translate(541.509 20609.658)" fill="#c7b299"/>
    <path id="Trazado_815048" data-name="Trazado 815048" d="M640.817,163.026,616.93,177.837l-3.66,16.056L594.742,207.1a47.074,47.074,0,0,1-38.64-2.3l-32.754-17.113a49.869,49.869,0,0,1-11.981-8.811l-18.339-18.358-19.962-19.924-13.339-10.132-1.887-1.528,9.434-13.207c2.17,3.509,4.3,6.773,6.377,9.849a165.655,165.655,0,0,0,23.943,28.886c15.773,14.792,32.66,22.83,58,35.848l15.094-1.887A21.452,21.452,0,0,0,588.478,173.5l1.038-3.283a12.585,12.585,0,0,1,6.773-7.679,12.547,12.547,0,0,0,7.283-12.132c-2.094-3.189-5.981-4.679-9.736-5.4a89.506,89.506,0,0,1-15.962-5.321c-8.245-4.6-11.32-7.264-3.34-17.415s11.113-7.736,25.264-9.019c3.679-.34,11.811-4.622,19.018-7.434,5.509-2.151,10.453-3.434,12.4-1.415a17.584,17.584,0,0,1,4.547,13.471,16.145,16.145,0,0,1-.189,1.641,26.075,26.075,0,0,1-13.679,18.169,32.814,32.814,0,0,1-5.83,2.434l23.528,12.83Z" transform="translate(489.873 20590.289)" fill="#54371a" opacity="0.5"/>
    <path id="Trazado_815049" data-name="Trazado 815049" d="M502.581,128.037,486.77,147.207a39.735,39.735,0,0,1-13.924,10.641L459.2,164.112l-6.415,25.66a11.131,11.131,0,0,0,1.377,8.6,37.405,37.405,0,0,1,2.962,5.509c1.755,4.17,2.491,8.736-.811,11.32-7.207,5.66-18.056-9.83-18.056-9.83l.774-3.509.245-1.132-2.49-4.151,2.339-7.038.811-31.754A6.15,6.15,0,0,1,443,152.471c8.509-4.7,7.7-20,9.7-33.6l2.17-24.528Z" transform="translate(471.207 20582.258)" fill="#754c24"/>
    <path id="Trazado_815050" data-name="Trazado 815050" d="M554.848,259.889c-10.113,8.207-19.037-3.868-19.037-3.868v-5.283l-2.641-2.415V241.8L526.9,214.325a54.919,54.919,0,0,1-6.038-12.49c-1.321-5.264-.717-14.981-.717-14.981L506.66,155.76V140.1l29.15,12.3-.472,33.961a42.281,42.281,0,0,1,4.339,11.075,47.675,47.675,0,0,1-.962,12.528l8.66,32.282a45.92,45.92,0,0,1,6.641,7.547C556.357,253.418,557.866,257.437,554.848,259.889Z" transform="translate(533.164 20622.836)" fill="#754c24"/>
    <path id="Trazado_815051" data-name="Trazado 815051" d="M455.626,164.739c-7.207,5.66-18.056-9.83-18.056-9.83l.774-3.509c1.076.66,2.113,1.679,2.924,2.264a39.622,39.622,0,0,0,6.226,3.773,10.887,10.887,0,0,0,4.038,1.208,4.472,4.472,0,0,0,3.773-1.509,8.1,8.1,0,0,0,1.132-3.679C458.192,157.532,458.928,162.1,455.626,164.739Z" transform="translate(471.899 20632.857)" fill="#1a1a1a"/>
    <path id="Trazado_815052" data-name="Trazado 815052" d="M495.486,162.968c-5.868,7.075-18.056-9.83-18.056-9.83l.623-2.868a29.343,29.343,0,0,1,3.3,2.849,11.509,11.509,0,0,0,5.509,2.358,11.924,11.924,0,0,0,8.641-3.151C497.637,155.836,498.618,159.194,495.486,162.968Z" transform="translate(507.245 20631.855)" fill="#1a1a1a"/>
    <path id="Trazado_815053" data-name="Trazado 815053" d="M541.147,208.334c-10.113,8.207-19.037-3.868-19.037-3.868v-3.641h.34c2.056.4,4.094,2,6.226,2.509a11.075,11.075,0,0,0,9.113-1.321,6.866,6.866,0,0,0,2.528-3.774C542.657,201.863,544.166,205.881,541.147,208.334Z" transform="translate(546.865 20674.393)" fill="#1a1a1a"/>
    <path id="Trazado_815054" data-name="Trazado 815054" d="M627.713,135.028a9.848,9.848,0,0,1-2.905,5.132,26.187,26.187,0,0,1-7.547,4.509L592.732,155.8c-2.887,1.3-6,2.66-9.132,2.151-4.924-.792-7.906-5.66-11.132-9.434-7.83-9.207-19.83-13.585-31.49-16.754s-23.811-5.66-33.961-12.226c-8.113-5.321-14.471-13.037-22.641-18.4s-19.49-7.811-27.245-1.887c-2.736,2.094-5.924,5.264-8.962,3.66-2.132-1.113-2.528-4-2.434-6.434A37.168,37.168,0,0,1,448.6,83.6a9.887,9.887,0,0,1,2.472-1.641L472.66,71.728a10.792,10.792,0,0,1,6.245-.943l24.282,3.434a15.868,15.868,0,0,1,6.339,2.377l16.641,10.886,56.093,23.83a16.415,16.415,0,0,1,4.943,3.377l20.981,20.905Z" transform="translate(479.129 20561.27)" fill="#c7b299" opacity="0.1"/>
    <path id="Trazado_815055" data-name="Trazado 815055" d="M558.817,102.3c2.49-2.906,5.188-5.962,8.868-7.019,4.755-1.358,9.717.981,14.113,3.283A6.678,6.678,0,0,1,585.571,102c.7,2.264-1.113,4.49-2.773,6.17a17.773,17.773,0,0,1-17.584,6.943c-2.472,0-13.622.906-14.452-1.7S557.251,104.071,558.817,102.3Z" transform="translate(572.212 20582.736)" fill="#87582a"/>
    <path id="Trazado_815056" data-name="Trazado 815056" d="M558.989,104.2a21.924,21.924,0,0,1,6.811-6.113,11.075,11.075,0,0,1,9.434,0c1.679.849,3.283,2.472,2.981,4.321a5.66,5.66,0,0,1-2.283,3.113,20.642,20.642,0,0,1-6.585,4.283,20.34,20.34,0,0,1-7,.66c-1.358,0-6.905.623-7.434-.66S558.178,105.01,558.989,104.2Z" transform="translate(575.908 20584.645)" fill="#54371a" opacity="0.5"/>
    <path id="Trazado_815057" data-name="Trazado 815057" d="M604.938,178.752a21.906,21.906,0,0,1-11.736,3.6h-.3a11.056,11.056,0,0,1-9.7-5.019l-3.6-8.6-18.509-2.528a23.075,23.075,0,0,1-17.566-12.566l-8.038-16.075-2.377-18.547,23.32-15.849a8.622,8.622,0,0,1,4.868-1.509h14.641a8.68,8.68,0,0,1,6.491,2.924l5.358,6.038a8.584,8.584,0,0,1,2.075,4.4l1.547,9.547,13.49,22.886,3.208,3.226,3.3,3.283c.264.623.528,1.226.792,1.887C617.24,166.96,619.428,169.432,604.938,178.752Z" transform="translate(556.619 20588.75)" fill="#87582a"/>
    <path id="Trazado_815058" data-name="Trazado 815058" d="M535.835,111.435a21.282,21.282,0,0,0-8.547,1.887c-3.566,1.887-5.66,5.66-7.547,9.434-1.207,2.264-2.453,4.943-1.434,7.3s3.887,3.283,6.4,3.906a58.018,58.018,0,0,0,11.868,2.113,19.339,19.339,0,0,0,11.528-2.83,24.527,24.527,0,0,0,7.3-8.868,18.68,18.68,0,0,0,2.717-7.868c.189-4.34-1.887-6.736-5.943-6.472C546.665,110.36,541.25,110.964,535.835,111.435Z" transform="translate(543.158 20596.164)" fill="#87582a"/>
    <path id="Trazado_815059" data-name="Trazado 815059" d="M534.259,130.311c3.924.3,8.283,0,11.056-2.849s3.17-7.3,3.3-11.32a3.038,3.038,0,0,0-.547-2.264,3,3,0,0,0-1.887-.679,32.32,32.32,0,0,0-17.905,3.773c-3.773,1.887-13.207,7.547-5.83,10.849a36.678,36.678,0,0,0,11.811,2.491Z" transform="translate(544.734 20598.891)" fill="#54371a" opacity="0.5"/>
    <path id="Trazado_815060" data-name="Trazado 815060" d="M589.562,173.534a21.9,21.9,0,0,1-11.735,3.6h-.3a11.056,11.056,0,0,1-9.7-5.019l-3.6-8.6c2.472-2.151,5.773-2.623,7.32-5.66,3.132-6,1.076-12.981-1.773-18.622A111.062,111.062,0,0,0,559.3,123.29c-.283-.358-.547-.736-.83-1.113-1.472-1.887-7.547-2.868-8-5.283s7.339-7.849,9.434-9c2.547-1.377,3.283,1.6,4.924,3.981a26.962,26.962,0,0,1,2.924,8.151,37.886,37.886,0,0,0,12.585,19.132c4.924,3.962,6.641,5.528,10.056,6.717a2.849,2.849,0,0,0,2.245-.509l3.3,3.283c.264.623.528,1.226.792,1.887.434.943.83,1.887,1.189,2.641.509,1.113.981,2.132,1.358,3.075C602.09,162.987,601.2,166.062,589.562,173.534Z" transform="translate(571.995 20593.967)" fill="#c7b299"/>
    <path id="Trazado_815061" data-name="Trazado 815061" d="M565.286,139.337a1.368,1.368,0,1,0-1.887,1.981,2.717,2.717,0,0,0,2.207.491l7.434-.509a1.189,1.189,0,0,0,1.038-.434c.321-.623-.566-1.151-1.245-1.283a30.882,30.882,0,0,0-7.924-.547Z" transform="translate(583.101 20621.826)" fill="#1a1a1a"/>
    <path id="Trazado_815062" data-name="Trazado 815062" d="M578.01,134.805a.563.563,0,0,1,0,.189,15.954,15.954,0,0,1-1.736,4.245c-.283.547-.887,1.189-1.4.83s-.3-.717-.245-1.094c.245-1.717.566-5.66,1.793-7.019l.264-.226C577.161,132.843,577.632,133.862,578.01,134.805Z" transform="translate(593.359 20615.414)" fill="#1a1a1a"/>
    <path id="Trazado_815063" data-name="Trazado 815063" d="M548.01,122.9a2.982,2.982,0,0,0,1.491,2.17,3.887,3.887,0,0,0,2.641.4,2.83,2.83,0,0,0,2.17-1.472A2.661,2.661,0,0,0,553.1,120.9C551.236,119.711,547.689,119.824,548.01,122.9Z" transform="translate(569.813 20605.188)"/>
    <path id="Trazado_815064" data-name="Trazado 815064" d="M563.054,113.738a2.434,2.434,0,0,0,.132,2.358,1.528,1.528,0,0,0,2.151.4,2.377,2.377,0,0,0,.566-1.887,4.734,4.734,0,0,0-.245-1.717C564.866,110.889,563.564,112.455,563.054,113.738Z" transform="translate(582.956 20597.857)"/>
    <path id="Trazado_815065" data-name="Trazado 815065" d="M394.4,71.837s-12.113-17.924,2.17-27.226c12.886-8.377,26.245,9.7,26.245,9.7Z" transform="translate(429.37 20536.197)" fill="#fbb03b"/>
    <path id="Trazado_815066" data-name="Trazado 815066" d="M445.808,45.86c4.038,6.981-6.792,20.754-24.169,30.792s-34.735,12.6-38.773,5.566,6.811-20.754,24.188-30.811S441.789,38.9,445.808,45.86Z" transform="translate(422.643 20535.76)" fill="#c4720e"/>
    <path id="Trazado_815067" data-name="Trazado 815067" d="M424.44,96.748l3.585-.736,3.17-.792,5.528-.359a5.226,5.226,0,0,0,3.773-2.075l.415-.547c1.019-.245,1.189-1,1.585-1.887l1.453-1.887.113-2.17-.453-4.056c0-2.075-.849-1.7-1.774-1.019l-.245,1.6-1.377,1.264-3.34,2.641-.7-3.773,2.6-2.075,1.6-.943c1.358-.906.736-1.887-.641-1.6l-3.547,1.208-4.773,3.623L428.5,89.069l-4.038,2.623Z" transform="translate(460.256 20568.021)" fill="#ffb294"/>
    <path id="Trazado_815068" data-name="Trazado 815068" d="M414.75,65.82c6.434,5.321,9.245,22.339,11.811,35.848l18.7-1.057a4.132,4.132,0,0,0,1.113,6.245c-9.17,5.264-18.4,6.566-27.943,7.339-12.434-1.887.906-27.962-13.509-32.263Z" transform="translate(442.947 20556.971)" fill="#b4d7ed"/>
    <path id="Trazado_815069" data-name="Trazado 815069" d="M404.065,162.364l-7.151-5.66a14.018,14.018,0,0,1-2.981-7.547c-4.773-.849-9.113-2.943-10.585-7.547l-.453.34-1.34.717c-5.49.981-7.339,4.566-7.887,9.094.906,5.094,6.49,5.453,9.962,8.4,8,6.736,7.547,10.453,12.188,11.924,5.66,1.887,13.962-.208,14.66-2.717C411.046,167.383,409.518,164.987,404.065,162.364Zm-5.17-3.4c.6.6,1.264,1.208,1.887,1.887-.641-.66-1.283-1.283-1.962-1.887Zm-.755-.811-.17-.189Z" transform="translate(415.236 20624.178)"/>
    <path id="Trazado_815070" data-name="Trazado 815070" d="M437.453,184.035a36.131,36.131,0,0,1-9.434-14.509A25.453,25.453,0,0,1,417.7,169.3l.245.623c-3.868,2.509-3.773,7.547-2.887,11.32,1.887,3.038,4.434,4.906,7.415,9.434l2.83,2.943c5.66,3.773,15.7,4.226,19.245,2.245C446.887,192.677,444.208,189.488,437.453,184.035Zm-20.169-12.773.094-.226Z" transform="translate(451.488 20648.73)"/>
    <path id="Trazado_815071" data-name="Trazado 815071" d="M442.229,102.39l-32.961.283c4.83,11.585-2.132,16.981-5.66,39.056-19.584,8.755-17.886,27.4-25.7,35.848,1.377,8,12.7,11.641,18.3,9.226-.321-4.6,3.962-23.792,31.9-40.15a73.941,73.941,0,0,0,14.113-44.263Z" transform="translate(418.996 20589.396)" fill="#0051a3"/>
    <path id="Trazado_815072" data-name="Trazado 815072" d="M451.665,230.85c-2.736,2.3-9.434,2.113-14.264,1h-.132a12.85,12.85,0,0,1-4.811-1.887c-7.4-19.716-15.811-32.32-12.547-52.452-6.415-20.754-21.282-23.037-29.528-52.659-2.736-7.962-1.283-14.188,1.226-22.452h41.508a24.3,24.3,0,0,1-.434,2.566,29.018,29.018,0,0,1-12,18.66c6.717,12.566,11.037,29.49,14.151,48.678,4.3,13.207,8.7,35.546,15.49,55.376C450.552,228.057,451.514,230.453,451.665,230.85Z" transform="translate(428.748 20589.408)" fill="#0071bc"/>
    <path id="Trazado_815073" data-name="Trazado 815073" d="M433.633,112.9l.434,4.566L435.143,129a17.491,17.491,0,0,1-1.208,8.528c-.151.3-.264.585-.415.887-5.66,11.037-20.754,10.924-31.226,5.49a21.415,21.415,0,0,1-9.434-8.943,23.47,23.47,0,0,1,2.623-6.207,16.645,16.645,0,0,0,2.038-4.679c0-.208.094-.415.113-.623a8.587,8.587,0,0,0-.641-4.585c-1.472-3.641-2.736-7-3.773-9.7-.245-.679-.472-1.3-.7-1.887a.36.36,0,0,0,0-.132c-.189-.566-.377-1.057-.528-1.528l-1.132-3.207c-.4-1.189-.792-2.3-1.132-3.377s-.66-2.075-.943-3.057C386.748,88.885,386.9,84.036,392.842,79c1.4-1.038,2.792-2,4.189-2.924l2.057-1.34c8.868-5.528,17.943-8.962,27.377-8.962h1.774c5.056-1.434,4.641,11.32,5.849,18.867.755,4.679,8.038,11.188,8.321,15.905C443.067,111.79,433.633,112.9,433.633,112.9Z" transform="translate(427.592 20556.828)" fill="#0071bc"/>
    <path id="Trazado_815074" data-name="Trazado 815074" d="M396.858,112.9c-3.623-9.056-6.038-16.264-6.038-16.264-.811-2.34-1.547-4.472-2.075-6.434-2.038-7.094-1.887-11.943,4.057-16.981a11.1,11.1,0,0,1,1.4-1.038c5.905,1.887,8.585,12.509,10.792,31.886C405.669,109.915,402.726,113.707,396.858,112.9Z" transform="translate(427.556 20562.609)" fill="#d4eeff"/>
    <path id="Trazado_815075" data-name="Trazado 815075" d="M424.481,88.118c-4.3,5.66-19.32,9.094-19.32,9.094-2.4-17.584-11.49-22.641-11.49-22.641,8.868-5.528,15.094-8.811,24.528-8.811C423.952,71.7,424.481,88.118,424.481,88.118Z" transform="translate(432.971 20556.916)" fill="#d4eeff"/>
    <path id="Trazado_815076" data-name="Trazado 815076" d="M396.8,61.19l.4,14.943,4.773,7.679c.641,1.038,1.66,2.528,2.906,4.264a6.811,6.811,0,0,0,11.849-6.49c-.17-.415-.34-.811-.528-1.226l-.774-4.113-1.887-7.887Z" transform="translate(435.747 20552.863)" fill="#ffb294"/>
    <path id="Trazado_815077" data-name="Trazado 815077" d="M398.64,64c0,.17,2.208,15.868,10.755,15.415,5.339-.283,4.321-12.075,4.321-12.075Z" transform="translate(437.378 20555.355)" fill="#ffb294" opacity="0.5"/>
    <path id="Trazado_815078" data-name="Trazado 815078" d="M418.118,85.766c-3.906,1.736-9.566-2.4-12.132-4.547a7.4,7.4,0,0,1-2-2.66l-2.094-5.038-3.283.245s-5.792-.7-4.906-11.962c.453-5.66,8.641-12.056,14.6-12.094,9.434,0,11.868,4.132,14.377,7.981s1.057,11.736,1.057,11.736S423.344,83.426,418.118,85.766Z" transform="translate(432.919 20542.686)" fill="#ffb294"/>
    <path id="Trazado_815079" data-name="Trazado 815079" d="M405.784,81.042s13.113-5.509,15.6-19.735c0,0,2.792,7.962,6.321,9.962a15.587,15.587,0,0,1-.811-5.849c.3-2.283,2.811-14.773-9.943-16.849-11.83-1.887-22.641,7.849-24.113,15.7-2.642,14.6,7.66,23.018,11.151,25.98C403.992,90.25,402.954,83.307,405.784,81.042Z" transform="translate(431.857 20541.463)" fill="#722811"/>
    <path id="Trazado_815080" data-name="Trazado 815080" d="M438.047,252.878h-.132a12.849,12.849,0,0,1-4.811-1.887c-7.4-19.716-15.811-32.32-12.547-52.452-6.415-20.754-21.283-23.037-29.527-52.659-2.736-7.962-1.283-14.188,1.226-22.452a23.473,23.473,0,0,1,2.623-6.207,16.64,16.64,0,0,0,2.038-4.679,3.611,3.611,0,0,0,.113-.623,8.585,8.585,0,0,0-.642-4.585c-1.472-3.641-2.736-7-3.773-9.7-.245-.679-.472-1.3-.7-1.887a.361.361,0,0,0,0-.132c-.189-.566-.377-1.057-.528-1.528l-1.132-3.207c-.4-1.189-.792-2.3-1.132-3.377s-.66-2.075-.943-3.057c.585-3.453,1.34-6.434,2.075-5.66,13.849,14.358,15,31.867,28.943,30.188,7.754-.981,9.188-9.943,9.188-9.943,2,1.736,2.811,2.547,4.7,2.358l.434,4.566c-7.981,5.924-19.943,8.4-27.15,17.49a26.171,26.171,0,0,0-4.623,8.943,31.246,31.246,0,0,0-.849,3.585c-5.377,15.283,13.754,34.282,21.962,55.546C433.122,214.407,420.915,217.784,438.047,252.878Z" transform="translate(428.103 20568.361)" fill="#227fbc" opacity="0.3"/>
    <path id="Trazado_815081" data-name="Trazado 815081" d="M384.692,108.58l-2.623,4.038-8.736,6.189-3.773,4.849-3.17,5.868c-.7,1.057-.226,2.113.453,1.623l-1.4,2.472c-1.019,1.887.094,2.4,1.321,1l6.094-7.415-5.358,8.226c-.981,1.566.226,2.3,1.415.83l6.981-8.245-4.019,7.17c-1.057,1.887-.113,2.773,1.4,1.075l9.019-10.924-.83,5.17-.094,2.755c0,1.887,1.679,1.7,2.038-.264l.66-2.472,2.208-3.981.887-9.905,1.17-6.566Z" transform="translate(407.591 20594.889)" fill="#ffb294"/>
    <path id="Trazado_815082" data-name="Trazado 815082" d="M403.044,74.32c-4.075,1.094-9.811,15.773-15.754,32.075-5.245,6.924-8.113,24.056-13.49,37a15.094,15.094,0,0,1,6.755,3.773c4.717-13.943,13.094-23.49,14.188-34.9,4.717-6.792,10.151-13.509,13.735-18.66C413.516,86.716,409.554,74.32,403.044,74.32Z" transform="translate(415.352 20564.506)" fill="#d4eeff"/>
    <path id="Trazado_815083" data-name="Trazado 815083" d="M429.021,130.135a76.109,76.109,0,0,1,4.245-12.83,132.853,132.853,0,0,1,5.755-12.037,179.231,179.231,0,0,1,14.528-22.32l3.981-5.264c1.4-1.736,2.849-3.4,4.264-5.094,2.792-3.434,5.924-6.585,8.906-9.868s6.264-6.245,9.434-9.434l9.83-8.905a.267.267,0,1,1,.359.4l-9.66,9.075c-3.038,3.17-6.226,6.245-9.17,9.434s-5.962,6.509-8.66,9.981c-1.4,1.717-2.811,3.4-4.17,5.132l-3.924,5.3a178.913,178.913,0,0,0-13.886,22.377,126.284,126.284,0,0,0-5.434,11.962,75.112,75.112,0,0,0-3.924,12.471,1.283,1.283,0,0,1-1.509,1.075A1.264,1.264,0,0,1,429,130.1Z" transform="translate(464.279 20537.898)" fill="#722811"/>
    <path id="Trazado_815084" data-name="Trazado 815084" d="M408.452,58.868c9.189-5.321,18.377-6.622,20.49-2.943l-3.6-9.754-20.471,5.773L389,65.547l6.679,9.6C393.547,71.452,399.264,64.17,408.452,58.868Z" transform="translate(428.83 20539.543)" fill="#c4720e"/>
  </g>
</svg>
