<svg xmlns="http://www.w3.org/2000/svg" xmlns:xlink="http://www.w3.org/1999/xlink" width="505" height="486" viewBox="0 0 505 486">
  <defs>
    <linearGradient id="linear-gradient" x1="0.5" x2="0.5" y2="1" gradientUnits="objectBoundingBox">
      <stop offset="0" stop-color="#f9fef5"/>
      <stop offset="1" stop-color="#e7f7f8"/>
    </linearGradient>
    <clipPath id="clip-path">
      <path id="Trazado_625010" data-name="Trazado 625010" d="M268.917,306.41a7.083,7.083,0,0,1,1.742.735,15.8,15.8,0,0,1,7.152,12.379,7.855,7.855,0,0,1-.213,1.889,14.927,14.927,0,0,1-2.786,4.146c.367,4.006.786,23.633-1.676,26.1-1.47,1.47-12.107-2.859-12.107-2.859s3.227-22.192,7.351-26.926c-2.7-2.734-4.837-7.079-4.829-10.6C263.515,307.425,265.815,305.506,268.917,306.41Z" transform="translate(-261.03 -306.189)" fill="none"/>
    </clipPath>
  </defs>
  <g id="Grupo_1075436" data-name="Grupo 1075436" transform="translate(3390 -8018)">
    <rect id="Rectángulo_376244" data-name="Rectángulo 376244" width="505" height="486" transform="translate(-3390 8018)" fill="url(#linear-gradient)"/>
    <g id="Grupo_1075434" data-name="Grupo 1075434" transform="translate(-3371.858 8098.635)">
      <g id="_12" data-name="12">
        <path id="Trazado_631571" data-name="Trazado 631571" d="M202.858,89.783,125.942,134.19,49.01,89.783,125.942,45.36Z" transform="translate(27.922 -45.36)" fill="#783b25"/>
        <path id="Trazado_631572" data-name="Trazado 631572" d="M189.022,111.177l-53.276,30.766L58.83,97.521,112.09,66.77C161.568,72.2,139.152,106.8,189.022,111.177Z" transform="translate(18.102 -53.098)" fill="#61301d"/>
        <path id="Trazado_631574" data-name="Trazado 631574" d="M139.419,129.439l-3.673,2.119L58.83,87.135,62.582,85C116.062,95.266,102.845,120.538,139.419,129.439Z" transform="translate(18.102 -42.712)" fill="#783b25"/>
        <path id="Trazado_631575" data-name="Trazado 631575" d="M174.936,86.563,98.02,130.97v-12.9l76.916-44.41Z" transform="translate(55.843 -29.237)" fill="#5c2c1b"/>
        <path id="Trazado_631576" data-name="Trazado 631576" d="M49.01,86.563l76.932,44.407v-12.9L49.01,73.66Z" transform="translate(27.922 -29.237)" fill="#452014"/>
        <path id="Trazado_631577" data-name="Trazado 631577" d="M174.936,113.023,98.02,157.446V126.287L174.936,81.88Z" transform="translate(55.843 -24.554)" fill="#a8804c"/>
        <path id="Trazado_631578" data-name="Trazado 631578" d="M49.01,113.023l76.932,44.423V126.287L49.01,81.88Z" transform="translate(27.922 -24.554)" fill="#87673d"/>
        <path id="Trazado_631579" data-name="Trazado 631579" d="M174.936,119.112,98.02,163.52V146.143l76.916-44.423Z" transform="translate(55.843 -13.251)" fill="#878787"/>
        <path id="Trazado_631580" data-name="Trazado 631580" d="M49.01,119.112l76.932,44.407V146.143L49.01,101.72Z" transform="translate(27.922 -13.251)" fill="#636363"/>
        <path id="Trazado_631581" data-name="Trazado 631581" d="M251.868,118.067,174.936,162.49,98.02,118.067,174.936,73.66Z" transform="translate(55.843 -29.237)" fill="#783b25"/>
        <path id="Trazado_631582" data-name="Trazado 631582" d="M238.032,139.454l-53.276,30.829L107.84,125.876,161.116,95.11C210.578,100.478,188.225,135.075,238.032,139.454Z" transform="translate(46.023 -36.952)" fill="#61301d"/>
        <path id="Trazado_631583" data-name="Trazado 631583" d="M206.782,150.906,184.806,163.7,107.89,119.292l22.117-12.762C180.536,114.661,167.9,143.042,206.782,150.906Z" transform="translate(46.052 -30.446)" fill="#87422a"/>
        <path id="Trazado_631584" data-name="Trazado 631584" d="M188.429,157.706l-3.673,2.2L107.84,115.5l3.752-2.166C165.056,123.549,151.855,148.8,188.429,157.706Z" transform="translate(46.023 -26.572)" fill="#783b25"/>
        <path id="Trazado_631585" data-name="Trazado 631585" d="M223.952,114.853,147.02,159.26V146.373l76.932-44.423Z" transform="translate(83.759 -13.12)" fill="#5c2c1b"/>
        <path id="Trazado_631586" data-name="Trazado 631586" d="M98.02,114.853l76.916,44.407V146.373L98.02,101.95Z" transform="translate(55.843 -13.12)" fill="#452014"/>
        <path id="Trazado_631587" data-name="Trazado 631587" d="M223.952,141.329,147.02,185.736V154.577l76.932-44.407Z" transform="translate(83.759 -8.437)" fill="#a8804c"/>
        <path id="Trazado_631588" data-name="Trazado 631588" d="M98.02,141.329l76.916,44.407V154.577L98.02,110.17Z" transform="translate(55.843 -8.437)" fill="#87673d"/>
        <path id="Trazado_631589" data-name="Trazado 631589" d="M223.952,147.4,147.02,191.82V174.427l76.932-44.407Z" transform="translate(83.759 2.872)" fill="#878787"/>
        <path id="Trazado_631590" data-name="Trazado 631590" d="M98.02,147.4l76.916,44.423v-17.4L98.02,130.02Z" transform="translate(55.843 2.872)" fill="#636363"/>
        <path id="Trazado_631591" data-name="Trazado 631591" d="M300.883,146.373,223.952,190.78,147.02,146.373l76.932-44.423Z" transform="translate(83.759 -13.12)" fill="#783b25"/>
        <path id="Trazado_631592" data-name="Trazado 631592" d="M287.042,167.767l-53.276,30.751L156.85,154.111l53.276-30.751C259.572,128.791,237.219,163.388,287.042,167.767Z" transform="translate(73.945 -20.858)" fill="#61301d"/>
        <path id="Trazado_631593" data-name="Trazado 631593" d="M255.82,179.211l-22.054,12.777L156.85,147.582l22.1-12.762C229.575,142.951,216.939,171.332,255.82,179.211Z" transform="translate(73.945 -14.329)" fill="#87422a"/>
        <path id="Trazado_631594" data-name="Trazado 631594" d="M237.439,186.024l-3.673,2.119L156.85,143.736l3.752-2.166C214.066,151.867,200.865,177.14,237.439,186.024Z" transform="translate(73.945 -10.483)" fill="#783b25"/>
        <path id="Trazado_631595" data-name="Trazado 631595" d="M272.962,143.137,196.03,187.56v-12.9l76.932-44.407Z" transform="translate(111.681 3.003)" fill="#5c2c1b"/>
        <path id="Trazado_631596" data-name="Trazado 631596" d="M147.02,143.137l76.932,44.423v-12.9L147.02,130.25Z" transform="translate(83.759 3.003)" fill="#452014"/>
        <path id="Trazado_631597" data-name="Trazado 631597" d="M272.962,169.619,196.03,214.042V182.883l76.932-44.423Z" transform="translate(111.681 7.68)" fill="#a8804c"/>
        <path id="Trazado_631598" data-name="Trazado 631598" d="M147.02,169.619l76.932,44.423V182.883L147.02,138.46Z" transform="translate(83.759 7.68)" fill="#87673d"/>
        <path id="Trazado_631599" data-name="Trazado 631599" d="M272.962,175.7,196.03,220.11V202.733l76.932-44.423Z" transform="translate(111.681 18.989)" fill="#878787"/>
        <path id="Trazado_631600" data-name="Trazado 631600" d="M147.02,175.7l76.932,44.407V202.733L147.02,158.31Z" transform="translate(83.759 18.989)" fill="#636363"/>
        <path id="Trazado_631601" data-name="Trazado 631601" d="M349.893,174.657,272.962,219.08,196.03,174.657l76.932-44.407Z" transform="translate(111.681 3.003)" fill="#783b25"/>
        <path id="Trazado_631602" data-name="Trazado 631602" d="M336.052,196.123l-53.276,30.751L205.86,182.451,259.136,151.7C308.582,157.053,286.229,191.665,336.052,196.123Z" transform="translate(101.867 -4.712)" fill="#61301d"/>
        <path id="Trazado_631603" data-name="Trazado 631603" d="M304.83,207.5l-22.054,12.793L205.86,175.872l22.1-12.762C278.585,171.257,265.949,199.622,304.83,207.5Z" transform="translate(101.867 1.788)" fill="#87422a"/>
        <path id="Trazado_631604" data-name="Trazado 631604" d="M286.449,214.324l-3.673,2.119L205.86,172.021l3.752-2.151C263.076,180.167,249.875,205.424,286.449,214.324Z" transform="translate(101.867 5.64)" fill="#783b25"/>
        <path id="Trazado_631605" data-name="Trazado 631605" d="M321.972,171.443,245.04,215.85V202.963l76.932-44.423Z" transform="translate(139.603 19.12)" fill="#5c2c1b"/>
        <path id="Trazado_631606" data-name="Trazado 631606" d="M196.03,171.443l76.932,44.407V202.963L196.03,158.54Z" transform="translate(111.681 19.12)" fill="#452014"/>
        <path id="Trazado_631607" data-name="Trazado 631607" d="M321.972,197.919,245.04,242.326V211.167l76.932-44.407Z" transform="translate(139.603 23.803)" fill="#a8804c"/>
        <path id="Trazado_631608" data-name="Trazado 631608" d="M196.03,197.919l76.932,44.407V211.167L196.03,166.76Z" transform="translate(111.681 23.803)" fill="#87673d"/>
        <path id="Trazado_631609" data-name="Trazado 631609" d="M321.972,203.987,245.04,248.41V231.017l76.932-44.407Z" transform="translate(139.603 35.112)" fill="#878787"/>
        <path id="Trazado_631610" data-name="Trazado 631610" d="M196.03,203.987l76.932,44.423V231.017L196.03,186.61Z" transform="translate(111.681 35.112)" fill="#636363"/>
        <path id="Trazado_631611" data-name="Trazado 631611" d="M153.863,118.067,76.932,162.49,0,118.067,76.932,73.66Z" transform="translate(0 -29.237)" fill="#783b25"/>
        <path id="Trazado_631613" data-name="Trazado 631613" d="M108.762,150.906,86.786,163.7,9.87,119.292l22.1-12.762C82.532,114.661,69.9,143.042,108.762,150.906Z" transform="translate(-9.792 -30.446)" fill="#87422a"/>
        <path id="Trazado_631614" data-name="Trazado 631614" d="M90.4,157.706l-3.657,2.2L9.83,115.5l3.752-2.166C67.046,123.549,53.845,148.8,90.4,157.706Z" transform="translate(-9.814 -26.572)" fill="#783b25"/>
        <path id="Trazado_631615" data-name="Trazado 631615" d="M125.942,114.853,49.01,159.26V146.373l76.932-44.423Z" transform="translate(27.922 -13.12)" fill="#5c2c1b"/>
        <path id="Trazado_631616" data-name="Trazado 631616" d="M0,114.853,76.932,159.26V146.373L0,101.95Z" transform="translate(0 -13.12)" fill="#452014"/>
        <path id="Trazado_631617" data-name="Trazado 631617" d="M125.942,141.329,49.01,185.736V154.577l76.932-44.407Z" transform="translate(27.922 -8.437)" fill="#a8804c"/>
        <path id="Trazado_631618" data-name="Trazado 631618" d="M0,141.329l76.932,44.407V154.577L0,110.17Z" transform="translate(0 -8.437)" fill="#87673d"/>
        <path id="Trazado_631619" data-name="Trazado 631619" d="M125.942,147.4,49.01,191.82V174.427l76.932-44.407Z" transform="translate(27.922 2.872)" fill="#878787"/>
        <path id="Trazado_631620" data-name="Trazado 631620" d="M0,147.4l76.932,44.42V174.427L0,130.02Z" transform="translate(0 2.872)" fill="#636363"/>
        <path id="Trazado_631621" data-name="Trazado 631621" d="M202.858,146.373,125.942,190.78,49.01,146.373l76.932-44.423Z" transform="translate(27.922 -13.12)" fill="#783b25"/>
        <path id="Trazado_631622" data-name="Trazado 631622" d="M189.022,167.739,135.746,198.49,58.83,154.161l53.26-30.751C161.568,128.763,139.152,163.359,189.022,167.739Z" transform="translate(18.102 -20.829)" fill="#61301d"/>
        <path id="Trazado_631623" data-name="Trazado 631623" d="M157.8,179.183,135.824,191.96,58.83,147.632l22.1-12.762C131.571,142.923,118.919,171.3,157.8,179.183Z" transform="translate(18.102 -14.3)" fill="#87422a"/>
        <path id="Trazado_631624" data-name="Trazado 631624" d="M139.419,186l-3.673,2.119L58.83,143.786l3.752-2.166C116.062,151.839,102.845,177.111,139.419,186Z" transform="translate(18.102 -10.455)" fill="#783b25"/>
        <path id="Trazado_631625" data-name="Trazado 631625" d="M174.936,143.137,98.02,187.56v-12.9l76.916-44.407Z" transform="translate(55.843 3.003)" fill="#5c2c1b"/>
        <path id="Trazado_631626" data-name="Trazado 631626" d="M49.01,143.137l76.932,44.423v-12.9L49.01,130.25Z" transform="translate(27.922 3.003)" fill="#452014"/>
        <path id="Trazado_631627" data-name="Trazado 631627" d="M174.936,169.619,98.02,214.042V182.883l76.916-44.423Z" transform="translate(55.843 7.68)" fill="#a8804c"/>
        <path id="Trazado_631628" data-name="Trazado 631628" d="M49.01,169.619l76.932,44.423V182.883L49.01,138.46Z" transform="translate(27.922 7.68)" fill="#87673d"/>
        <path id="Trazado_631629" data-name="Trazado 631629" d="M174.936,175.7,98.02,220.11V202.733l76.916-44.423Z" transform="translate(55.843 18.989)" fill="#878787"/>
        <path id="Trazado_631630" data-name="Trazado 631630" d="M49.01,175.7l76.932,44.407V202.733L49.01,158.31Z" transform="translate(27.922 18.989)" fill="#636363"/>
        <path id="Trazado_631631" data-name="Trazado 631631" d="M251.868,174.657,174.936,219.08,98.02,174.657l76.916-44.407Z" transform="translate(55.843 3.003)" fill="#783b25"/>
        <path id="Trazado_631632" data-name="Trazado 631632" d="M238.032,196.123l-53.276,30.751L107.84,182.451,161.116,151.7C210.578,157.053,188.225,191.665,238.032,196.123Z" transform="translate(46.023 -4.712)" fill="#61301d"/>
        <path id="Trazado_631633" data-name="Trazado 631633" d="M206.782,207.5l-21.976,12.793L107.89,175.872l22.117-12.762C180.536,171.257,167.9,199.622,206.782,207.5Z" transform="translate(46.052 1.788)" fill="#87422a"/>
        <path id="Trazado_631634" data-name="Trazado 631634" d="M188.429,214.324l-3.673,2.119L107.84,172.021l3.752-2.151C165.056,180.167,151.855,205.424,188.429,214.324Z" transform="translate(46.023 5.64)" fill="#783b25"/>
        <path id="Trazado_631635" data-name="Trazado 631635" d="M223.952,171.443,147.02,215.85V202.963l76.932-44.423Z" transform="translate(83.759 19.12)" fill="#5c2c1b"/>
        <path id="Trazado_631636" data-name="Trazado 631636" d="M98.02,171.443l76.916,44.407V202.963L98.02,158.54Z" transform="translate(55.843 19.12)" fill="#452014"/>
        <path id="Trazado_631637" data-name="Trazado 631637" d="M223.952,197.919,147.02,242.326V211.167l76.932-44.407Z" transform="translate(83.759 23.803)" fill="#a8804c"/>
        <path id="Trazado_631638" data-name="Trazado 631638" d="M98.02,197.919l76.916,44.407V211.167L98.02,166.76Z" transform="translate(55.843 23.803)" fill="#87673d"/>
        <path id="Trazado_631639" data-name="Trazado 631639" d="M223.952,203.987,147.02,248.41V231.017l76.932-44.407Z" transform="translate(83.759 35.112)" fill="#878787"/>
        <path id="Trazado_631640" data-name="Trazado 631640" d="M98.02,203.987l76.916,44.423V231.017L98.02,186.61Z" transform="translate(55.843 35.112)" fill="#636363"/>
        <path id="Trazado_631641" data-name="Trazado 631641" d="M300.883,202.963,223.952,247.37,147.02,202.963l76.932-44.423Z" transform="translate(83.759 19.12)" fill="#783b25"/>
        <path id="Trazado_631642" data-name="Trazado 631642" d="M287.042,224.363l-53.276,30.751L156.85,210.706l53.276-30.766C259.572,185.387,237.219,219.983,287.042,224.363Z" transform="translate(73.945 11.377)" fill="#61301d"/>
        <path id="Trazado_631643" data-name="Trazado 631643" d="M255.82,235.8l-22.054,12.777-76.916-44.4,22.1-12.762C229.575,199.541,216.939,227.922,255.82,235.8Z" transform="translate(73.945 17.911)" fill="#87422a"/>
        <path id="Trazado_631644" data-name="Trazado 631644" d="M237.439,242.614l-3.673,2.119L156.85,200.326l3.752-2.166C214.066,208.457,200.865,233.714,237.439,242.614Z" transform="translate(73.945 21.757)" fill="#783b25"/>
        <path id="Trazado_631645" data-name="Trazado 631645" d="M272.962,199.727,196.03,244.15v-12.9l76.932-44.407Z" transform="translate(111.681 35.243)" fill="#5c2c1b"/>
        <path id="Trazado_631646" data-name="Trazado 631646" d="M147.02,199.727l76.932,44.423v-12.9L147.02,186.84Z" transform="translate(83.759 35.243)" fill="#452014"/>
        <path id="Trazado_631647" data-name="Trazado 631647" d="M272.962,226.209,196.03,270.632V239.473l76.932-44.423Z" transform="translate(111.681 39.92)" fill="#a8804c"/>
        <path id="Trazado_631648" data-name="Trazado 631648" d="M147.02,226.209l76.932,44.423V239.473L147.02,195.05Z" transform="translate(83.759 39.92)" fill="#87673d"/>
        <path id="Trazado_631649" data-name="Trazado 631649" d="M272.962,232.292,196.03,276.7V259.323L272.962,214.9Z" transform="translate(111.681 51.229)" fill="#878787"/>
        <path id="Trazado_631650" data-name="Trazado 631650" d="M147.02,232.292,223.952,276.7V259.323L147.02,214.9Z" transform="translate(83.759 51.229)" fill="#636363"/>
        <path id="Trazado_631691" data-name="Trazado 631691" d="M168.765,111.461c-7.331,4.238-25.115.8-39.839-7.66S108.3,84.964,115.646,80.789s25.115-.8,39.839,7.676S176.08,107.254,168.765,111.461Z" transform="translate(48.672 -46.129)" opacity="0.3"/>
        <path id="Trazado_631692" data-name="Trazado 631692" d="M110.06,71.1l.11.471-.549-.126.141-.534Z" transform="translate(62.452 -30.804)" fill="#947676"/>
        <path id="Trazado_631693" data-name="Trazado 631693" d="M117.8,73.422a13.022,13.022,0,0,1-.173-1.491c0-1.052,8.916,8.021,8.163,7.849a3.14,3.14,0,0,0-1.413.251c.22.3.314.471.2.455a2.2,2.2,0,0,0-1.271.361c-1,1.209-1.334,3.139-2.794,3.485-1.868,2.747.832,4.317,1.271,6.122a.44.44,0,0,1-.094.471l-.377-.392s.094.612,0,.644a1.334,1.334,0,0,1-.785,0,4.364,4.364,0,0,1-2.637-1.57,5.118,5.118,0,0,1-.738-2.056c0-.816.6-1,.738-1.931s-.753-3.453-.738-4.285.863-1.146.738-2.48-1.24-2.825-1.476-6.279C116.42,72.37,116.969,72.731,117.8,73.422Z" transform="translate(50.911 -50.206)" fill="#e6b8b8"/>
        <path id="Trazado_631694" data-name="Trazado 631694" d="M127.18,81.058l.094.471-.534-.126.141-.534Z" transform="translate(72.205 -25.13)" fill="#947676"/>
        <path id="Trazado_631695" data-name="Trazado 631695" d="M135.552,81.616l.361.612a7.956,7.956,0,0,1,1.036-1.428l4.285,8.163s-.3.392-.722,1.02l.11.173s-.549.675-1.256,1.57a12.369,12.369,0,0,0-1.837,4.4,17.487,17.487,0,0,0,1.381,4.709.926.926,0,0,1-.126.487l-.345-.44s.126.675,0,.706a1.57,1.57,0,0,1-.973,0s-2.653-.157-2.92-1.7a25.123,25.123,0,0,0-.094-3.94,95.1,95.1,0,0,1-.863-10.8,7.849,7.849,0,0,1,1.962-3.532Z" transform="translate(60.693 -45.105)" fill="#e6b8b8"/>
        <path id="Trazado_631696" data-name="Trazado 631696" d="M115.028,70.316a12.981,12.981,0,0,1,6.593-3.626h.094c2.92,0,9.23,4.474,16.278,9.418,6.467,4.458,13.547,9.324,15.7,11.49a61.707,61.707,0,0,1,9.826,15.493c.973,2.182-2.119,4.945,1.334,10.658.3,0,1.036.424.848.769-.345.816-.753.785-1.271,1.334s-1.13.989-1.57.91a17.157,17.157,0,0,1-7-2.5c-5.227-3.438-4.552-6.185-10.721-10.988s-5.054,0-13.892-5.541c-4.223-2.449-7.425-6.5-10.36-9.7-4.16-4.521-6.718-7.958-7.1-9.983,0,0-1.052-5.463,1.24-7.754Z" transform="translate(49.274 -53.143)" fill="#fcc"/>
        <path id="Trazado_631697" data-name="Trazado 631697" d="M147.846,97.118c-.345.816-.753.785-1.271,1.334s-1.13.989-1.57.91C144.282,98.986,146.951,96.475,147.846,97.118Z" transform="translate(67.127 -35.868)" fill="#cfa5a5"/>
        <path id="Trazado_631698" data-name="Trazado 631698" d="M147.287,89.584c.926.361,1.789.675,1.821.942,0,.675-2.37.094-3.689.283a1.413,1.413,0,0,0-1.319,1.13s-.722-2.2.44-2.857C145.152,88.752,146.282,89.192,147.287,89.584Z" transform="translate(66.555 -40.452)" fill="#fcc"/>
        <path id="Trazado_631699" data-name="Trazado 631699" d="M123.83,83l.094.471-.534-.141.126-.534Z" transform="translate(70.297 -24.03)" fill="#c29b9b"/>
        <path id="Trazado_631700" data-name="Trazado 631700" d="M132.208,83.541l.361.612A7.439,7.439,0,0,1,133.6,82.74L137.89,91s-.3.392-.722,1.02l.094.173s-.549.675-1.24,1.648a12.558,12.558,0,0,0-1.852,4.38,17.345,17.345,0,0,0,1.4,4.709.926.926,0,0,1-.126.487l-.361-.44s.141.675,0,.706a1.57,1.57,0,0,1-.973,0s-2.669-.141-2.92-1.68a25.383,25.383,0,0,0-.094-3.956,94.858,94.858,0,0,1-.863-10.8,7.707,7.707,0,0,1,1.978-3.7Z" transform="translate(58.779 -44)" fill="#fcc"/>
        <path id="Trazado_631701" data-name="Trazado 631701" d="M107.34,72.688l.094.471-.534-.126.141-.534Z" transform="translate(60.902 -29.898)" fill="#c29b9b"/>
        <path id="Trazado_631702" data-name="Trazado 631702" d="M115.081,75.04c0-.455-.141-.942-.188-1.57,0-1.052,8.947,8.037,8.178,7.849a3.532,3.532,0,0,0-1.428.235c.235.314.33.471.22.455a2.229,2.229,0,0,0-1.256.361c-1.02,1.209-1.35,3.139-2.81,3.5-1.868,2.747.832,4.317,1.271,6.122a.471.471,0,0,1-.094.471l-.377-.392s.094.612,0,.644a1.475,1.475,0,0,1-.785,0,4.364,4.364,0,0,1-2.637-1.57,5.432,5.432,0,0,1-.753-2.056c0-.816.612-1,.738-1.946a36.954,36.954,0,0,0-.738-4.285c0-.832.895-1.13.753-2.48s-1.24-2.81-1.476-6.279C113.7,73.973,114.249,74.35,115.081,75.04Z" transform="translate(49.362 -49.329)" fill="#fcc"/>
        <path id="Trazado_631703" data-name="Trazado 631703" d="M141.673,90.845a3.563,3.563,0,0,1,2.731.141,3.751,3.751,0,0,1,1.837,1.287c0,.675-2.37.094-3.7.283a2.763,2.763,0,0,0-1.821,1.366S140.5,91.489,141.673,90.845Z" transform="translate(64.744 -39.5)" fill="#e6b8b8"/>
        <path id="Trazado_631704" data-name="Trazado 631704" d="M141.915,93.541a.706.706,0,0,1,.345.518c0,.173-.157.22-.345.11a.706.706,0,0,1-.345-.518C141.57,93.479,141.727,93.432,141.915,93.541Z" transform="translate(65.24 -37.879)"/>
        <path id="Trazado_631705" data-name="Trazado 631705" d="M117.428,65.482c-2.355.6.926,4.1.926,4.1l-1.46.3S113.315,63.944,117.428,65.482Z" transform="translate(50.359 -53.976)" fill="#fcc"/>
        <path id="Trazado_631706" data-name="Trazado 631706" d="M145.8,97.67s-.377.785-.581.691S145.8,97.67,145.8,97.67Z" transform="translate(67.301 -35.494)" fill="#7d6464"/>
        <path id="Trazado_631707" data-name="Trazado 631707" d="M146.534,97.25s-.094.518-.424.565S146.534,97.25,146.534,97.25Z" transform="translate(67.779 -35.733)" fill="#7d6464"/>
        <path id="Trazado_631712" data-name="Trazado 631712" d="M67.177,82.164c1.193-.91,2.48-2.182,2.527-1.9,0,.848-2.574,3.626-4.285,5.855-1.57,1.978-1.57,2.2-1.57,2.2a2.7,2.7,0,0,1-.644-3.909C63.944,83.012,65.843,83.169,67.177,82.164Z" transform="translate(20.271 -45.433)" fill="#fcc"/>
        <path id="Trazado_631717" data-name="Trazado 631717" d="M68.808,88.72c.126,0,.173.157.141.345a.408.408,0,0,1-.267.377c-.094,0-.157-.157-.141-.345a.429.429,0,0,1,.267-.377Z" transform="translate(23.633 -40.593)"/>
        <path id="Trazado_631718" data-name="Trazado 631718" d="M162.91,150.856a76.916,76.916,0,0,1,9.418-4.568l-20.579-11.883,46.228-26.685,169.89,98.091L321.639,232.5l-25.618-14.8a69.505,69.505,0,0,1-10.109,7.032c-17.267,10-38.364,14.127-47.091,9.057s-1.57-17.157,15.7-27.156a89.929,89.929,0,0,1,12.165-5.839l-20-11.537a72.6,72.6,0,0,1-8.837,5.981c-17.267,9.983-38.379,14.049-47.091,9.042s-1.57-17.157,15.7-27.156a93.118,93.118,0,0,1,10.36-5.1l-19.37-11.255a60.043,60.043,0,0,1-7.849,5.415c-14.661,8.461-32.477,11.883-39.808,7.66S148.311,159.316,162.91,150.856Z" transform="translate(68.121 -29.768)" opacity="0.3"/>
        <path id="Trazado_631719" data-name="Trazado 631719" d="M356.2,182.451l-46.212,26.685L140.08,111.045,186.308,84.36Z" transform="translate(79.805 -23.141)" fill="#ffc935"/>
        <path id="Trazado_631720" data-name="Trazado 631720" d="M345.413,180.7l-7.582,4.364L183.058,95.7,152.15,113.545l-7.55-4.38,38.458-22.2Z" transform="translate(82.381 -21.654)" fill="#d49c00"/>
        <path id="Trazado_631721" data-name="Trazado 631721" d="M335.091,181.894,304.2,199.741,149.41,110.378,180.318,92.53Z" transform="translate(85.121 -18.487)" fill="#8a4d00"/>
        <path id="Trazado_631722" data-name="Trazado 631722" d="M285.868,168.528l-28.9,16.686-8.649-11.679,46.212-26.685Z" transform="translate(141.471 12.46)" fill="#f5b400"/>
        <path id="Trazado_631723" data-name="Trazado 631723" d="M318.635,211.13l-169.89-98.091L140.08,101.36l169.906,98.091Z" transform="translate(79.805 -13.456)" fill="#d49c00"/>
        <path id="Trazado_631724" data-name="Trazado 631724" d="M204,172.586c0-1.35,11.584-2.951,10.6-1.978l-.518.644c1.413-.126,2.355,0,2.041.235-3.03,3.438-3.846,8.743-5.824,12.055-1.962,5.62,1.24,5.353,1.036,6.922-.235,2.559-3.893,2.951-3.893,2.951a2.574,2.574,0,0,1-2.48-2.449c0-1.067,1.256-2.245,1.428-3.673s-.816-3.343-.816-4.505a28.033,28.033,0,0,0,.377-4.207C205.8,177.06,204.392,176.777,204,172.586Z" transform="translate(100.807 5.89)" fill="#fcc"/>
        <path id="Trazado_631725" data-name="Trazado 631725" d="M225.44,164.92a34.249,34.249,0,0,1,2.48-7.77l6.969,3.814h0l1.711.942s-5.777,11.679-6.059,15.258a8.116,8.116,0,0,0,1.57,4.207c.251,2.339-3.783,2.182-3.783,2.182-1.476.157-1.711-.644-1.7-.989a18.647,18.647,0,0,0,0-5.494C226.256,172.722,225.126,167.039,225.44,164.92Z" transform="translate(112.99 -1.607)" fill="#e6b8b8"/>
        <path id="Trazado_631726" data-name="Trazado 631726" d="M230.9,157.32c8.4-3.909,17.549-8.178,20.312-8.539,5.824-.471,9.56,2.088,12.558,3.139,4.066,2.339,6.4,3.579,7.126,6.153,1.209,2.92-.11,5.211.518,6.279.91-.455,2.276.6,2.731,1.57s.157,3.861-1.664,3.642a12.558,12.558,0,0,1-5.431,3.987c-6.765,3.375-5.9-1.193-13.923,1.9s-6.546,7.472-18,13.609c-5.463,3.139-9.607,2.668-13.421,2.935-12.558,1.57-17.188-4.709-17.6-6.5a21.27,21.27,0,0,1,5.7-15.933C213.588,165.137,221.766,161.574,230.9,157.32Z" transform="translate(100.842 -6.408)" fill="#fcc"/>
        <path id="Trazado_631727" data-name="Trazado 631727" d="M244.67,151.555c1.209-.91,2.48-2.2,2.543-1.9,0,.848-2.59,3.61-4.3,5.855-1.57,1.978-1.57,2.2-1.57,2.2a2.7,2.7,0,0,1-.738-3.909C241.4,152.45,243.32,152.56,244.67,151.555Z" transform="translate(121.355 -5.902)" fill="#fcc"/>
        <path id="Trazado_631728" data-name="Trazado 631728" d="M209.576,161.91c-2.512,3.548,1,3.626,1.476,3.516,1.491,0,.753,3.139-1.271,2.355C209.184,167.4,205.134,165.363,209.576,161.91Z" transform="translate(102.812 1.105)" fill="#e6b8b8"/>
        <path id="Trazado_631729" data-name="Trazado 631729" d="M229.82,167.45a34.25,34.25,0,0,1,2.48-7.77l6.954,3.814h0l1.711.926s-5.761,11.679-6.059,15.258a8.037,8.037,0,0,0,1.648,4.207c.251,2.339-3.783,2.182-3.783,2.182-1.475.157-1.727-.628-1.7-.973a19.952,19.952,0,0,0,0-5.494C230.621,175.252,229.506,169.6,229.82,167.45Z" transform="translate(115.486 -0.166)" fill="#fcc"/>
        <path id="Trazado_631730" data-name="Trazado 631730" d="M208.42,175.117c0-1.366,11.569-2.951,10.58-1.978l-.518.628c1.428-.11,2.355,0,2.041.251-3.03,3.422-3.83,8.743-5.824,12.04-1.962,5.635,1.24,5.368,1.036,6.922-.22,2.559-3.893,2.951-3.893,2.951a2.512,2.512,0,0,1-2.512-2.433c0-1.083,1.24-2.26,1.428-3.673s-.879-3.406-.863-4.505a26.3,26.3,0,0,0,.377-4.207C210.147,179.575,208.734,179.371,208.42,175.117Z" transform="translate(103.325 7.331)" fill="#fcc"/>
        <path id="Trazado_631731" data-name="Trazado 631731" d="M249.136,153.961c1.193-.91,2.308-2.072,2.37-1.774a30.623,30.623,0,0,1-3.249,6.389c-.5.644-1.271,2.574-1.884,2.2-.283-.126-3.061-1.287-1.24-3.752C245.934,155.672,247.817,154.966,249.136,153.961Z" transform="translate(123.891 -4.462)" fill="#e6b8b8"/>
        <path id="Trazado_631732" data-name="Trazado 631732" d="M246.258,158.11c.126,0,.173.141.141.345a.439.439,0,0,1-.251.377c-.11,0-.173-.157-.157-.345S246.148,158.11,246.258,158.11Z" transform="translate(124.728 -1.06)"/>
        <path id="Trazado_631733" data-name="Trazado 631733" d="M173.45,153.827c0-1.366,11.569-2.951,10.6-1.978a6.466,6.466,0,0,0-.518.628c1.413-.11,2.339,0,2.025.251-3.014,3.438-3.83,8.743-5.808,12.04-1.962,5.635,1.24,5.368,1.036,6.938-.235,2.543-3.909,2.935-3.909,2.935a2.512,2.512,0,0,1-2.464-2.433c0-1.083,1.256-2.26,1.428-3.689s-.863-3.391-.863-4.489a26.137,26.137,0,0,0,.392-4.207C175.192,158.238,173.764,157.955,173.45,153.827Z" transform="translate(83.402 -4.798)" fill="#fcc"/>
        <path id="Trazado_631734" data-name="Trazado 631734" d="M194.85,146.13a34.252,34.252,0,0,1,2.48-7.77l6.97,3.814h0l1.727.926s-5.777,11.679-6.075,15.258a8.037,8.037,0,0,0,1.648,4.207c.251,2.339-3.783,2.182-3.783,2.182-1.476.157-1.727-.628-1.7-.973a19.273,19.273,0,0,0,0-5.494C195.65,153.932,194.536,148.249,194.85,146.13Z" transform="translate(95.563 -12.312)" fill="#e6b8b8"/>
        <path id="Trazado_631735" data-name="Trazado 631735" d="M200.324,138.536c8.4-3.924,17.565-8.178,20.312-8.555,5.824-.471,9.56,2.088,12.479,3.139,4.066,2.339,6.4,3.563,7.142,6.153,1.209,2.9-.11,5.211.518,6.279.91-.455,2.26.6,2.731,1.57s.157,3.861-1.664,3.626a12.683,12.683,0,0,1-5.447,4c-6.765,3.359-5.886-1.193-13.908,1.9s-6.546,7.456-18,13.594c-5.463,3.139-9.622,2.684-13.421,2.935-12.558,1.57-17.188-4.709-17.6-6.483a21.223,21.223,0,0,1,5.777-15.98C183.026,146.353,191.2,142.79,200.324,138.536Z" transform="translate(83.386 -17.118)" fill="#fcc"/>
        <path id="Trazado_631736" data-name="Trazado 631736" d="M214.05,132.765c1.209-.91,2.48-2.2,2.543-1.9,0,.848-2.574,3.61-4.3,5.839-1.57,1.978-1.57,2.213-1.57,2.213a2.7,2.7,0,0,1-.738-3.909C210.832,133.66,212.732,133.77,214.05,132.765Z" transform="translate(103.911 -16.607)" fill="#fcc"/>
        <path id="Trazado_631737" data-name="Trazado 631737" d="M178.98,143.12c-2.512,3.532,1,3.61,1.476,3.5,1.491,0,.753,3.139-1.287,2.37C178.6,148.6,174.569,146.573,178.98,143.12Z" transform="translate(85.391 -9.6)" fill="#e6b8b8"/>
        <path id="Trazado_631738" data-name="Trazado 631738" d="M199.22,148.679a34.531,34.531,0,0,1,2.48-7.849l6.969,3.83h0l1.711.942s-5.761,11.679-6.059,15.258a7.849,7.849,0,0,0,1.57,4.207c.251,2.339-3.783,2.182-3.783,2.182-1.476.157-1.727-.644-1.7-.989a18.963,18.963,0,0,0,0-5.494C200.036,156.48,198.906,150.813,199.22,148.679Z" transform="translate(98.053 -10.905)" fill="#fcc"/>
        <path id="Trazado_631739" data-name="Trazado 631739" d="M177.83,156.314c0-1.35,11.569-2.951,10.58-1.962-.188.2-.345.408-.518.628,1.413-.11,2.355,0,2.041.251-3.03,3.422-3.83,8.728-5.824,12.04-1.962,5.635,1.24,5.353,1.036,6.922-.235,2.559-3.893,2.951-3.893,2.951a2.543,2.543,0,0,1-2.48-2.449c0-1.067,1.256-2.245,1.428-3.673s-.863-3.391-.863-4.489a26.314,26.314,0,0,0,.392-4.207C179.557,160.787,178.1,160.5,177.83,156.314Z" transform="translate(85.898 -3.376)" fill="#fcc"/>
        <path id="Trazado_631740" data-name="Trazado 631740" d="M218.533,135.175c1.209-.91,2.323-2.072,2.37-1.789a31.048,31.048,0,0,1-3.234,6.4c-.5.644-1.271,2.574-1.9,2.2-.267-.141-3.061-1.287-1.224-3.752C215.33,136.886,217.183,136.18,218.533,135.175Z" transform="translate(106.461 -15.171)" fill="#e6b8b8"/>
        <path id="Trazado_631741" data-name="Trazado 631741" d="M215.67,139.32c.11,0,.173.141.141.345s-.157.361-.267.361-.173-.141-.141-.345S215.56,139.32,215.67,139.32Z" transform="translate(107.299 -11.765)"/>
        <path id="Trazado_631742" data-name="Trazado 631742" d="M147.43,136.77c0-1.146,9.8-2.5,8.963-1.68l-.44.549c1.209-.094,1.994,0,1.727.2-2.559,2.9-3.249,7.393-4.929,10.187-1.57,4.709,1.067,4.552.879,5.871-.2,2.166-3.3,2.5-3.3,2.5a2.135,2.135,0,0,1-2.009-2.041c0-.91,1.052-1.9,1.209-3.139s-.738-2.873-.738-3.814a22.255,22.255,0,0,0,.33-3.563C148.906,140.553,147.7,140.318,147.43,136.77Z" transform="translate(68.578 -14.317)" fill="#fcc"/>
        <path id="Trazado_631743" data-name="Trazado 631743" d="M165.535,130.293a29.356,29.356,0,0,1,2.1-6.593l5.9,3.249h0l1.444.785s-4.882,9.889-5.133,12.919a6.922,6.922,0,0,0,1.4,3.563c.22,1.978-3.139,1.837-3.139,1.837-1.24.141-1.46-.534-1.444-.832a15.7,15.7,0,0,0,0-4.709C166.288,136.886,165.283,132.02,165.535,130.293Z" transform="translate(78.87 -20.664)" fill="#e6b8b8"/>
        <path id="Trazado_631744" data-name="Trazado 631744" d="M170.16,123.853c7.111-3.312,14.849-6.922,17.267-7.236,4.929-.392,8.084,1.774,10.564,2.684,3.438,1.978,5.416,3.03,6.043,5.211,1.02,2.464-.094,4.411.424,5.368.769-.392,1.931.5,2.323,1.3s.126,3.265-1.413,3.139a10.549,10.549,0,0,1-4.6,3.375c-5.729,2.857-4.992-1-11.789,1.57s-5.541,6.279-15.242,11.506c-4.615,2.669-8.131,2.276-11.349,2.5-10.611,1.366-14.551-4.034-14.9-5.51a18,18,0,0,1,4.9-13.515C155.5,130.462,162.437,127.448,170.16,123.853Z" transform="translate(68.594 -24.726)" fill="#fcc"/>
        <path id="Trazado_631745" data-name="Trazado 631745" d="M181.79,118.956c1.02-.769,2.088-1.852,2.135-1.57,0,.722-2.182,3.139-3.626,4.945s-1.287,1.868-1.287,1.868a2.292,2.292,0,0,1-.628-3.312C179.059,119.71,180.66,119.82,181.79,118.956Z" transform="translate(85.956 -24.287)" fill="#fcc"/>
        <path id="Trazado_631746" data-name="Trazado 631746" d="M152.119,127.73c-2.135,3,.848,3.139,1.24,2.982,1.271,0,.644,2.653-1.083,1.994C151.774,132.376,148.383,130.65,152.119,127.73Z" transform="translate(70.262 -18.368)" fill="#e6b8b8"/>
        <path id="Trazado_631747" data-name="Trazado 631747" d="M169.247,132.387a29.1,29.1,0,0,1,2.1-6.577l5.886,3.234h0l1.444.785s-4.866,9.889-5.117,12.9a6.687,6.687,0,0,0,1.381,3.563c.22,1.978-3.139,1.852-3.139,1.852-1.24.126-1.46-.534-1.428-.832a16.575,16.575,0,0,0,0-4.709C169.937,139.043,168.98,134.239,169.247,132.387Z" transform="translate(80.981 -19.462)" fill="#fcc"/>
        <path id="Trazado_631748" data-name="Trazado 631748" d="M151.14,138.913c0-1.162,9.8-2.512,8.947-1.68l-.424.549c1.193-.11,1.978,0,1.711.2-2.559,2.9-3.234,7.393-4.913,10.187-1.68,4.709,1.052,4.536.863,5.871-.188,2.15-3.281,2.48-3.281,2.48a2.135,2.135,0,0,1-2.1-2.056c0-.91,1.052-1.915,1.209-3.139s-.738-2.873-.722-3.814a22.412,22.412,0,0,0,.314-3.563C152.6,142.7,151.391,142.445,151.14,138.913Z" transform="translate(70.692 -13.101)" fill="#fcc"/>
        <path id="Trazado_631749" data-name="Trazado 631749" d="M185.587,121.028c1-.769,1.946-1.758,1.994-1.57a26.559,26.559,0,0,1-2.731,5.416c-.424.534-1.083,2.182-1.57,1.852-.235-.11-2.59-1.083-1.052-3.139C182.872,122.472,184.473,121.892,185.587,121.028Z" transform="translate(88.108 -23.094)" fill="#e6b8b8"/>
        <path id="Trazado_631750" data-name="Trazado 631750" d="M183.162,124.52c.094,0,.141.126.126.283s-.141.314-.22.314-.157-.11-.126-.283S183.037,124.52,183.162,124.52Z" transform="translate(88.806 -20.197)"/>
        <path id="Trazado_631751" data-name="Trazado 631751" d="M65.868,147.219c8.665,4.992,29.715.942,47.091-9.057s24.331-22.164,15.7-27.156-29.73-.942-47.091,9.042S57.2,142.212,65.868,147.219Z" transform="translate(19.995 -29.114)" opacity="0.3"/>
        <path id="Trazado_631752" data-name="Trazado 631752" d="M88.848,99.59l.173.691-.691.157.126-.6Z" transform="translate(50.323 -14.465)" fill="#947676"/>
        <path id="Trazado_631753" data-name="Trazado 631753" d="M105.352,97.15a11.675,11.675,0,0,1-.22,1.931c1.067-.895,1.789-1.381,1.789-1.036-.33,4.552-1.742,6.467-1.915,8.194s.942,2.119.958,3.139-1.13,4.332-.958,5.557.942,1.444.958,2.512a7.032,7.032,0,0,1-.958,2.669,5.761,5.761,0,0,1-3.422,1.978,1.868,1.868,0,0,1-1.02,0c-.11,0,0-.832,0-.832l-.5.518a.643.643,0,0,1-.11-.628c.565-2.339,4.066-4.364,1.648-7.849-1.884-.565-2.307-2.982-3.626-4.536a2.857,2.857,0,0,0-1.57-.471c-.157,0,0-.2.267-.6a4.286,4.286,0,0,0-1.837-.314C93.783,107.542,105.352,95.784,105.352,97.15Z" transform="translate(38.575 -35.853)" fill="#e6b8b8"/>
        <path id="Trazado_631754" data-name="Trazado 631754" d="M66.664,112.5l.173.691-.706.173.126-.612Z" transform="translate(37.675 -7.11)" fill="#947676"/>
        <path id="Trazado_631755" data-name="Trazado 631755" d="M79.482,108.65a9,9,0,0,1,1.35,1.837l.471-.8a10.14,10.14,0,0,1,2.48,4.913c.314,1.758-.644,9.089-1.1,14a35.162,35.162,0,0,0-.141,5.117c-.33,1.994-3.783,2.166-3.783,2.166a2.12,2.12,0,0,1-1.271,0c-.094,0,0-.91,0-.91l-.471.565a1.146,1.146,0,0,1-.157-.644s1.931-4.458,1.805-6.169a16.608,16.608,0,0,0-2.386-5.682c-.91-1.256-1.57-2.135-1.57-2.135l.126-.22c-.534-.816-.926-1.334-.926-1.334Z" transform="translate(26.693 -29.238)" fill="#e6b8b8"/>
        <path id="Trazado_631756" data-name="Trazado 631756" d="M64.274,151.21c4.489-7.393.455-10.988,1.727-13.813.706-1.57,5.431-12.212,12.746-20.077,2.747-2.81,11.914-9.136,20.312-14.912,9.136-6.279,17.267-12.181,21.1-12.087h.126c1.57,0,6.7,2.433,8.555,4.709h0c2.967,2.951,1.57,10.046,1.57,10.046-.5,2.621-3.814,7.079-9.214,12.95-3.8,4.128-7.958,9.418-13.421,12.558-11.459,7.1-10,1.052-18,7.189S82.633,147.49,75.852,151.9c-1.962,1.68-7.111,2.951-9.089,3.139-.534.11-1.57-.628-2.009-1.162s-1.193-.691-1.57-1.742C62.924,151.759,63.881,151.147,64.274,151.21Z" transform="translate(20.553 -39.681)" fill="#fcc"/>
        <path id="Trazado_631757" data-name="Trazado 631757" d="M66.789,132.7c-.534.11-1.57-.628-2.009-1.162s-1.193-.691-1.57-1.742C64.309,128.967,67.762,132.217,66.789,132.7Z" transform="translate(20.597 -17.267)" fill="#cfa5a5"/>
        <path id="Trazado_631758" data-name="Trazado 631758" d="M64.917,120.046c1.319-.534,2.778-1.1,3.563-.659,1.57.848.581,3.689.581,3.689a1.868,1.868,0,0,0-1.711-1.46c-1.727-.251-4.8.5-4.709-.361C62.609,120.894,63.724,120.517,64.917,120.046Z" transform="translate(20.271 -23.211)" fill="#fcc"/>
        <path id="Trazado_631759" data-name="Trazado 631759" d="M71,115.01l.173.691-.691.173.126-.612Z" transform="translate(40.153 -5.68)" fill="#c29b9b"/>
        <path id="Trazado_631760" data-name="Trazado 631760" d="M83.82,111.16A9.324,9.324,0,0,1,85.154,113l.471-.8a10.14,10.14,0,0,1,2.48,4.992c.314,1.758-.659,9.089-1.1,14a35.145,35.145,0,0,0-.141,5.117c-.33,1.994-3.783,2.182-3.783,2.182a1.9,1.9,0,0,1-1.271-.079c-.079,0,.094-.9.094-.9l-.471.565a1.146,1.146,0,0,1-.157-.644s1.915-4.458,1.789-6.169a16.011,16.011,0,0,0-2.386-5.682c-.895-1.256-1.57-2.135-1.57-2.135l.126-.22c-.549-.816-.926-1.334-.926-1.334Z" transform="translate(29.2 -27.808)" fill="#fcc"/>
        <path id="Trazado_631761" data-name="Trazado 631761" d="M92.384,101.64l.173.706-.706.157.126-.612Z" transform="translate(52.328 -13.297)" fill="#c29b9b"/>
        <path id="Trazado_631762" data-name="Trazado 631762" d="M108.864,99.2a11.878,11.878,0,0,1-.22,1.946c1.052-.895,1.789-1.381,1.789-1.036-.33,4.536-1.742,6.452-1.915,8.194s.942,2.119.958,3.139-1.146,4.348-.958,5.557.942,1.46.958,2.527a7.331,7.331,0,0,1-.958,2.653,5.714,5.714,0,0,1-3.422,1.978,1.868,1.868,0,0,1-1.02,0c-.126,0,0-.832,0-.832l-.487.518a.659.659,0,0,1-.126-.628c.581-2.323,4.081-4.364,1.57-7.849-1.868-.549-2.307-2.967-3.626-4.521a2.825,2.825,0,0,0-1.57-.487c-.141,0,0-.188.267-.581a4.066,4.066,0,0,0-1.837-.314C97.358,109.607,108.864,97.834,108.864,99.2Z" transform="translate(40.541 -34.685)" fill="#fcc"/>
        <path id="Trazado_631763" data-name="Trazado 631763" d="M68.866,121.839a4.709,4.709,0,0,1,3.548-.173c1.57.848,1.224,3.987,1.224,3.987a3.626,3.626,0,0,0-2.355-1.774c-1.727-.235-4.8.518-4.8-.345a5.039,5.039,0,0,1,2.386-1.7Z" transform="translate(22.46 -21.974)" fill="#e6b8b8"/>
        <path id="Trazado_631764" data-name="Trazado 631764" d="M69.785,125.151c.251-.141.455,0,.455.157a.9.9,0,0,1-.455.659c-.251.157-.455,0-.455-.141A.926.926,0,0,1,69.785,125.151Z" transform="translate(24.084 -19.871)"/>
        <path id="Trazado_631765" data-name="Trazado 631765" d="M102.553,88.778c5.353-1.978.722,5.714.722,5.714L101.36,94.1S105.614,89.547,102.553,88.778Z" transform="translate(42.332 -40.745)" fill="#fcc"/>
        <path id="Trazado_631766" data-name="Trazado 631766" d="M65.453,131.42c-.251.11-.753-.91-.753-.91S65.7,131.279,65.453,131.42Z" transform="translate(21.446 -16.784)" fill="#7d6464"/>
        <path id="Trazado_631767" data-name="Trazado 631767" d="M64.265,130.708c-.44,0-.565-.738-.565-.738S64.532,130.739,64.265,130.708Z" transform="translate(20.876 -17.092)" fill="#7d6464"/>
        <path id="Trazado_631768" data-name="Trazado 631768" d="M164.161,185.965c-7.927,4.568-27.219.863-43.057-8.288s-22.29-20.281-14.363-24.864,27.2-.863,43.057,8.288S172.072,181.4,164.161,185.965Z" transform="translate(43.465 -5.197)" opacity="0.3"/>
        <path id="Trazado_631769" data-name="Trazado 631769" d="M137.423,156.222l-.518-.644c-.989-.973,10.611.628,10.611,1.994-.3,4.191-1.727,4.474-1.915,6.012a30.789,30.789,0,0,0,.392,4.223c0,1.1-1.036,3.139-.863,4.5s1.428,2.606,1.444,3.689a2.559,2.559,0,0,1-2.5,2.386s-3.657-.392-3.893-2.951c-.22-1.57,3-1.3,1.036-6.954-1.994-3.312-2.81-8.633-5.839-12.087C135.068,156.159,135.994,156.1,137.423,156.222Z" transform="translate(61.68 -2.673)" fill="#fcc"/>
        <path id="Trazado_631770" data-name="Trazado 631770" d="M116.27,145.93h0l6.985-3.83a34.126,34.126,0,0,1,2.5,7.849c.314,2.119-.816,7.849-1.271,12.228a19.086,19.086,0,0,0,0,5.51c0,.345-.235,1.13-1.7.973,0,0-4.066.157-3.8-2.182a8.068,8.068,0,0,0,1.57-4.223c-.3-3.579-6.075-15.3-6.075-15.3Z" transform="translate(49.806 -10.181)" fill="#e6b8b8"/>
        <path id="Trazado_631771" data-name="Trazado 631771" d="M101.128,149.353c.644-1.13-.675-3.438.534-6.279.738-2.59,3.139-3.83,7.158-6.169,2.935-1.1,6.671-3.673,12.558-3.139,2.747.377,11.946,4.709,20.406,8.571,9.151,4.285,17.361,7.849,21.16,12.322a21.285,21.285,0,0,1,5.777,16.011c-.392,1.742-5.054,8.147-17.644,6.53-3.814-.267-7.974.22-13.468-2.951-11.49-6.153-10.03-10.533-18.052-13.641s-7.174,1.46-13.97-1.915a12.777,12.777,0,0,1-5.525-4.113c-1.805.22-2.2-2.48-1.57-3.657C98.868,149.95,100.218,148.9,101.128,149.353Z" transform="translate(40.538 -14.97)" fill="#fcc"/>
        <path id="Trazado_631772" data-name="Trazado 631772" d="M109.01,138.716a2.716,2.716,0,0,1-.753,3.924,9.9,9.9,0,0,0-1.57-2.213c-1.727-2.245-4.332-5.023-4.317-5.871,0-.3,1.35.989,2.559,1.915S108.225,137.35,109.01,138.716Z" transform="translate(42.907 -14.504)" fill="#fcc"/>
        <path id="Trazado_631773" data-name="Trazado 631773" d="M137.636,150.366c.471.126,4,0,1.476-3.516,4.411,3.469.392,5.51-.2,5.9C136.882,153.521,136.145,150.429,137.636,150.366Z" transform="translate(62.55 -7.475)" fill="#e6b8b8"/>
        <path id="Trazado_631774" data-name="Trazado 631774" d="M111.889,148.47h0l6.985-3.83a34.125,34.125,0,0,1,2.5,7.849c.314,2.119-.816,7.849-1.256,12.228a18.742,18.742,0,0,0,0,5.51c0,.361-.235,1.146-1.7.989,0,0-4.066.157-3.8-2.182a8.3,8.3,0,0,0,1.57-4.223c-.3-3.595-6.09-15.3-6.09-15.3Z" transform="translate(47.311 -8.734)" fill="#fcc"/>
        <path id="Trazado_631775" data-name="Trazado 631775" d="M133.033,158.752l-.518-.644c-.989-.973,10.627.628,10.627,1.994-.314,4.191-1.742,4.474-1.915,6.012a24.492,24.492,0,0,0,.392,4.223c0,1.1-1.052,3.139-.863,4.521s1.413,2.606,1.428,3.673a2.543,2.543,0,0,1-2.5,2.449s-3.657-.392-3.893-2.951c-.22-1.57,3-1.287,1.036-6.938-1.994-3.312-2.794-8.649-5.839-12.087C130.678,158.7,131.62,158.642,133.033,158.752Z" transform="translate(59.179 -1.231)" fill="#fcc"/>
        <path id="Trazado_631776" data-name="Trazado 631776" d="M104.42,141.948c1.837,2.48-.958,3.626-1.24,3.767-.612.377-1.381-1.57-1.9-2.213A31.394,31.394,0,0,1,98,137.1c0-.3,1.162.863,2.37,1.789S103.635,140.6,104.42,141.948Z" transform="translate(40.417 -13.059)" fill="#e6b8b8"/>
        <path id="Trazado_631777" data-name="Trazado 631777" d="M100.894,143c.11,0,.235.173.267.377s0,.345-.141.345-.235-.173-.267-.377S100.784,143,100.894,143Z" transform="translate(41.981 -9.669)"/>
        <path id="Trazado_631778" data-name="Trazado 631778" d="M149.047,140.066c-4.4,2.527-15.085.471-23.875-4.6s-12.354-11.239-7.958-13.782,15.085-.471,23.875,4.6S153.442,137.554,149.047,140.066Z" transform="translate(50.291 -22.432)" opacity="0.3"/>
        <path id="Trazado_631779" data-name="Trazado 631779" d="M134.218,123.587l-.283-.345c-.549-.549,5.886.345,5.886,1.1-.173,2.323-.973,2.48-1.067,3.328a16.285,16.285,0,0,0,.22,2.355c0,.6-.581,1.7-.487,2.5s.8,1.444.8,2.041a1.4,1.4,0,0,1-1.381,1.35s-2.025-.2-2.151-1.57c-.126-.863,1.664-.722.565-3.846-1.1-1.837-1.57-4.788-3.234-6.7C132.962,123.556,133.433,123.524,134.218,123.587Z" transform="translate(60.396 -21.022)" fill="#fcc"/>
        <path id="Trazado_631780" data-name="Trazado 631780" d="M122.488,117.895h0l3.877-2.135a19.215,19.215,0,0,1,1.381,4.332,52.416,52.416,0,0,1-.706,6.781,10.58,10.58,0,0,0,0,3.045c0,.2-.126.628-.942.549,0,0-2.245,0-2.1-1.209a4.536,4.536,0,0,0,.91-2.339c-.173-1.994-3.375-8.492-3.375-8.492Z" transform="translate(53.823 -25.188)" fill="#e6b8b8"/>
        <path id="Trazado_631781" data-name="Trazado 631781" d="M114.138,119.808c.345-.644-.392-1.915.283-3.532.408-1.444,1.711-2.119,3.971-3.422a13.829,13.829,0,0,1,6.938-1.774c1.57.2,6.624,2.574,11.3,4.709,5.086,2.37,9.638,4.348,11.741,6.828a11.82,11.82,0,0,1,3.139,8.885c-.22.958-2.81,4.505-9.8,3.61a14.127,14.127,0,0,1-7.456-1.57c-6.373-3.422-5.557-5.839-10.015-7.566s-3.971.816-7.739-1.052a7.1,7.1,0,0,1-3.03-2.229c-1,.126-1.224-1.381-.91-2.025S113.636,119.541,114.138,119.808Z" transform="translate(48.641 -27.854)" fill="#fcc"/>
        <path id="Trazado_631782" data-name="Trazado 631782" d="M118.462,113.846a1.57,1.57,0,0,1-.424,2.182,5.354,5.354,0,0,0-.832-1.224c-.832-1.1-2.4-2.794-2.386-3.265,0-.157.738.549,1.413,1.067S118.022,113.155,118.462,113.846Z" transform="translate(50 -27.606)" fill="#fcc"/>
        <path id="Trazado_631783" data-name="Trazado 631783" d="M134.34,120.346c.267,0,2.229,0,.832-1.946,2.433,1.915.2,3.045-.11,3.265C133.916,122.089,133.508,120.378,134.34,120.346Z" transform="translate(60.87 -23.684)" fill="#e6b8b8"/>
        <path id="Trazado_631784" data-name="Trazado 631784" d="M120.058,119.289h0l3.877-2.119a18.943,18.943,0,0,1,1.381,4.317,52.4,52.4,0,0,1-.706,6.781,10.738,10.738,0,0,0,0,3.139c0,.188-.126.628-.942.534,0,0-2.245.094-2.1-1.209a4.473,4.473,0,0,0,.91-2.339c-.173-1.994-3.375-8.476-3.375-8.476Z" transform="translate(52.438 -24.384)" fill="#fcc"/>
        <path id="Trazado_631785" data-name="Trazado 631785" d="M131.792,125l-.283-.361c-.549-.534,5.886.345,5.886,1.1-.173,2.323-.973,2.5-1.067,3.343a15.819,15.819,0,0,0,.22,2.339c0,.612-.581,1.711-.487,2.5s.785,1.444.8,2.056a1.428,1.428,0,0,1-1.381,1.35s-2.041-.22-2.166-1.57c-.11-.879,1.664-.722.581-3.862-1.115-1.837-1.57-4.709-3.234-6.7C130.489,124.969,131.007,124.938,131.792,125Z" transform="translate(59.006 -20.222)" fill="#fcc"/>
        <path id="Trazado_631786" data-name="Trazado 631786" d="M115.928,115.69c1.02,1.366-.534,2.009-.691,2.072s-.769-.863-1.052-1.224a17.156,17.156,0,0,1-1.805-3.548c0-.173.659.487,1.319.989S115.488,114.937,115.928,115.69Z" transform="translate(48.61 -26.782)" fill="#e6b8b8"/>
        <path id="Trazado_631787" data-name="Trazado 631787" d="M113.97,116.291a.484.484,0,0,1,.157.2c.031.11,0,.188-.079.188s-.141-.094-.157-.2S113.907,116.275,113.97,116.291Z" transform="translate(49.469 -24.886)"/>
      </g>
      <g id="Grupo_1070649" data-name="Grupo 1070649" transform="translate(236.491 149.889)">
        <path id="Trazado_624980" data-name="Trazado 624980" d="M148.79,345.13c5.579-3.22,14.635-3.22,20.222,0L210.8,369.144a11.113,11.113,0,0,1,2.161,1.617l20.457-11.886,11.349,6.549c-2.146-2.6-1.367-5.807,2.36-7.961,4.741-2.734,12.423-2.734,17.164,0l14.069,8.086c4.734,2.734,4.734,7.167,0,9.909s-12.423,2.734-17.164,0l-1.941-1.125-48.94,28.507-26.338-15.209,9.512-5.528a15.5,15.5,0,0,1-2.881-1.279L148.79,356.817C143.2,353.59,143.2,348.364,148.79,345.13Z" transform="translate(-138.641 -274.593)" fill="#35241a" opacity="0.1"/>
        <path id="Trazado_624981" data-name="Trazado 624981" d="M239.52,257.93l7.674-5.947-1.286-15.032,6.821-2.551,3.029,12.43v6.3l-.64,3.984L242.1,261.568Z" transform="translate(-140.472 -220.294)" fill="#d4eeff"/>
        <path id="Trazado_624982" data-name="Trazado 624982" d="M300.711,358.2c.581.794.544,2.6.375,4.653-.6,2.058-2.551,1.86-4.234,2.1-3.234.448-4.888,2.852-9.181,2.764-2.558-.044-4.256-.625-4.763-2.249a2.809,2.809,0,0,1,1.3-2.249c5.925-2.529,5.917-2.536,6.057-2.624a29.892,29.892,0,0,0,2.867-2.168c.051-.2,1.1-4.675,1.1-4.675l6.307.11Z" transform="translate(-175.281 -277.516)"/>
        <path id="Trazado_624983" data-name="Trazado 624983" d="M304.965,293.843l-4.543,24.9c.684,7.586,3.3,15.062,2.6,22.39-.559,3.036-6.836,2.58-8.034.345.412-5.7-2.94-14.135-4.19-23.478-.272-9.24-.162-18.752,1.72-26.088Z" transform="translate(-177.344 -261.132)" fill="#0051a3"/>
        <path id="Trazado_624984" data-name="Trazado 624984" d="M319.574,371.03a6.386,6.386,0,0,1,.456,3.786c-.272.735-.551,1.059-.86,2.073-.353,1.25-.3,3.33-2.154,4.579-2.2,1.749-6.491,1.83-7.836-.037a9.812,9.812,0,0,1,1.72-4.543l2.2-4.036-.14-3.786L319.2,367.7Z" transform="translate(-182.243 -281.211)"/>
        <path id="Trazado_624985" data-name="Trazado 624985" d="M315.234,349.874a1.941,1.941,0,0,1-.831,1.61,3.007,3.007,0,0,1-.735.4c-1.955.779-5.182.279-6.256-1.066-.617-5.675-3.278-14.268-6.189-23.236-.669-4.41-1.191-8.74-1.47-12.849-.125-1.639-.213-3.234-.265-4.8-5.315-1.713-6.469-7.946-8.159-9.255.4-3.58,0-5.146.382-8.086l8.637-.2,13.29-.309c1.279,4.19.463,8.387-1.22,12.577l-.581,23.375A84.1,84.1,0,0,1,315.234,349.874Z" transform="translate(-177.514 -261.181)" fill="#0071bc"/>
        <path id="Trazado_624986" data-name="Trazado 624986" d="M310.575,283.464a17,17,0,0,1-13.386,3.881,21.588,21.588,0,0,1-8.542-3.374,3.328,3.328,0,0,0-.176-.853c-1.154-3.242-7.454-7.351-8.542-13.878l.669-8.13a15.582,15.582,0,0,1,6.366-1.47c4.021,0,7.351,1.963,10.4,4.675a10.805,10.805,0,0,1,4.741,1.661,10.4,10.4,0,0,1,2.4,2.2,17.8,17.8,0,0,1,2.374,4.116C308.3,275.6,309.237,279.538,310.575,283.464Z" transform="translate(-174.494 -252.583)" fill="#0071bc"/>
        <path id="Trazado_624987" data-name="Trazado 624987" d="M309.066,323.483c1.764-4.837,1.749-11.857,1.338-19.34l-10.225,6.564-.265-4.8L293.1,292.882c2.94,1.514,5.587,1.794,7.579-.786v-.184l.1-3.572.235-9.2,7.2,2.2,2.2-4.469c1.411,3.286,2.352,7.226,3.675,11.151,1.279,4.19.463,8.387-1.22,12.577l-.559,23.4a84.1,84.1,0,0,1,3.4,21.839C313.454,337.1,311.168,326.343,309.066,323.483Z" transform="translate(-177.983 -257.151)" fill="#0071bc" opacity="0.5"/>
        <path id="Trazado_624988" data-name="Trazado 624988" d="M267.74,304.2l10.085,17.48,12.945-9.637a4.326,4.326,0,0,0,1.433-3.594,12.886,12.886,0,0,0-5.822-10.085,4.278,4.278,0,0,0-3.822-.544C282.552,297.814,267.74,304.2,267.74,304.2Z" transform="translate(-171.265 -262.634)" fill="#f15a24"/>
        <path id="Trazado_624989" data-name="Trazado 624989" d="M269.813,306.41a7.081,7.081,0,0,1,1.742.735,15.8,15.8,0,0,1,7.152,12.379,7.861,7.861,0,0,1-.213,1.889c-.779,3.146-3.587,4.183-6.939,2.242a15.788,15.788,0,0,1-7.145-12.386C264.41,307.425,266.711,305.506,269.813,306.41Z" transform="translate(-170.382 -264.916)" fill="#ad411a"/>
        <path id="Trazado_624990" data-name="Trazado 624990" d="M276.8,312.159a14.987,14.987,0,0,1,2.154,7.233,7.872,7.872,0,0,1-.228,1.985,4.411,4.411,0,0,1-2.477,3.2,5.618,5.618,0,0,1-5.028-.735,16.249,16.249,0,0,1-7.351-12.724,5.68,5.68,0,0,1,1.911-4.712,4.41,4.41,0,0,1,4-.544,7.988,7.988,0,0,1,1.83.794,15.01,15.01,0,0,1,5.189,5.5Zm-10.107,5.836a14.253,14.253,0,0,0,4.918,5.19,4.954,4.954,0,0,0,4.337.669,3.675,3.675,0,0,0,2.021-2.661,7.533,7.533,0,0,0,.206-1.8,15.422,15.422,0,0,0-6.954-12.04,7.248,7.248,0,0,0-1.654-.735,3.675,3.675,0,0,0-3.315.419,4.912,4.912,0,0,0-1.6,4.087A14.275,14.275,0,0,0,266.693,318Z" transform="translate(-170.239 -264.761)" fill="#ad411a"/>
        <path id="Trazado_624991" data-name="Trazado 624991" d="M284.422,322.9a6.041,6.041,0,0,1,0,2.808l-1.051.61c-.581.331-1.051,0-1.051-.794a2.521,2.521,0,0,1,1.051-2.014Z" transform="translate(-175.127 -269.342)" fill="#f15a24"/>
        <path id="Trazado_624992" data-name="Trazado 624992" d="M264.44,309.9a6.21,6.21,0,0,1,0,2.8l-1.059.61c-.581.338-1.051,0-1.051-.794a2.521,2.521,0,0,1,1.051-2.014Z" transform="translate(-169.831 -265.899)" fill="#ad411a"/>
        <path id="Trazado_624993" data-name="Trazado 624993" d="M264.41,305.606v1.838l.926.786h1.823l1.1-.625,1.551-1.294-.1-.838-1.36.066.14-1.051,1.47-.647a14.555,14.555,0,0,0,.889,1.206c1.191,1.088,1.191-.169,1.191-.169l-.625-1.661.162-.073-.4-1.33-1.727-.573-2.823,1.47Z" transform="translate(-170.382 -263.604)" fill="#ffb294"/>
        <path id="Trazado_624994" data-name="Trazado 624994" d="M296.116,311.68l-1.911,1.7-2.632,1.2-.97.485-1.228,1.389c-.5.676.331,1.147,1.022.6l1.735-1.066V318.2l-.779,1.419-1.882,1.4h2.051l3.793-1.059,1.47-1.8,1.558-4.763Z" transform="translate(-176.956 -266.37)" fill="#ffb294"/>
        <path id="Trazado_624995" data-name="Trazado 624995" d="M301.77,277.717l.992,13.79L296,302.71c2.066,0,3.381,1.382,3.153,3.006a29.208,29.208,0,0,0,11.026-11.18c1.176-4.609,1.191-10.659.911-17.054C310.187,267.147,300.94,271.837,301.77,277.717Z" transform="translate(-178.752 -255.695)" fill="#d4eeff"/>
        <path id="Trazado_624996" data-name="Trazado 624996" d="M302.823,266c-.287,0-8.431-.412-7.137,11.541l-9.776-2.279s-5.013-5.322-2.639-10.387a16.759,16.759,0,0,1,4.41-5.212c4.021,0,7.351,1.963,10.4,4.675A10.807,10.807,0,0,1,302.823,266Z" transform="translate(-175.21 -252.589)" fill="#d4eeff"/>
        <path id="Trazado_624997" data-name="Trazado 624997" d="M292.472,261l1.749,3.073c1.4,3.742-3.043,6.851-5.778,6.4l-2.764-4.984Z" transform="translate(-176.017 -252.944)" fill="#ffb294"/>
        <path id="Trazado_624998" data-name="Trazado 624998" d="M292.558,266.17c.1,1.83.735,5.417,0,6.983-2.044,3.719-4.646-.911-5.5-2.11Z" transform="translate(-176.383 -254.313)" fill="#ffb294" opacity="0.5"/>
        <path id="Trazado_624999" data-name="Trazado 624999" d="M290.943,262.52c-.287,2.536-1.051,4.962-3.844,6.733a1.933,1.933,0,0,1-2.4-.059l-2.279-3.109a8.335,8.335,0,0,1-1.926-3.308l3.462-7.138h5.381l2.551,3.514Z" transform="translate(-174.643 -251.523)" fill="#ffb294"/>
        <path id="Trazado_625000" data-name="Trazado 625000" d="M291.752,261.067l-2.132.456a1.83,1.83,0,0,0-2.315-.176,8.233,8.233,0,0,1-5.145,1.625,3.719,3.719,0,0,1-3.675-4.072c.147-2.044,3.6-6.667,7.586-6.4,4.712.323,6.961,3.837,6.072,9.049Z" transform="translate(-174.107 -250.688)"/>
        <path id="Trazado_625001" data-name="Trazado 625001" d="M295,260.99a.882.882,0,0,1,.934.331,1.2,1.2,0,0,1,.162.735,3.77,3.77,0,0,1-.368,1.573,1.653,1.653,0,0,1-.4.551.772.772,0,0,1-.625.213c-.809-.118-.662-1.147-.735-1.72A1.544,1.544,0,0,1,295,260.99Z" transform="translate(-178.211 -252.934)" fill="#ffb294"/>
        <path id="Trazado_625002" data-name="Trazado 625002" d="M288.7,262.573c-.169,3.293-1.9,6.454-5.27,6.572L280,264.5l1.25-3.109Z" transform="translate(-174.513 -253.047)" fill="#ffb294" opacity="0.5"/>
        <path id="Trazado_625003" data-name="Trazado 625003" d="M281.214,263.245a15.612,15.612,0,0,0,5.2-.272c-.037.051.36,0,.323.074-2.036,2.617-4.41,6.616-9.416,5.145-4.41-1.286-2.2-3.675-.154-6.263l.132-.169A7.711,7.711,0,0,0,281.214,263.245Z" transform="translate(-173.124 -253.145)" fill="#0051a3"/>
        <path id="Trazado_625004" data-name="Trazado 625004" d="M287.6,259.941a9.042,9.042,0,0,0,4.285-3.793s-.323-6.351-6.072-6.1c-9.387.4-7.652,8.637-7.652,8.637C279.686,260.868,283.317,260.765,287.6,259.941Z" transform="translate(-173.993 -250.04)" fill="#0071bc"/>
        <g id="Grupo_895854" data-name="Grupo 895854" transform="translate(45.212 73.779)">
          <path id="Trazado_625005" data-name="Trazado 625005" d="M233.7,400.377v4.506a3.38,3.38,0,0,1-1.47,3.161l49.985-29.057a3.449,3.449,0,0,0,1.47-3.161V371.32Z" transform="translate(-207.068 -355.95)" fill="#754c24"/>
          <path id="Trazado_625006" data-name="Trazado 625006" d="M166.29,344.637,216.3,315.58l26.617,15.37-50,29.057Z" transform="translate(-166.283 -315.58)" fill="#fbb03b"/>
          <path id="Trazado_625007" data-name="Trazado 625007" d="M172.07,345.518l45.758-26.588L240.2,331.845l-45.762,26.6Z" transform="translate(-167.814 -316.467)" fill="#754c24"/>
          <path id="Trazado_625008" data-name="Trazado 625008" d="M224.632,405.31v4.506c0,3.131-2.205,4.41-4.94,2.823l-16.767-9.681A10.82,10.82,0,0,1,198,394.446V389.94Z" transform="translate(-198 -360.883)" fill="#c4720e"/>
        </g>
        <g id="Grupo_895855" data-name="Grupo 895855" transform="translate(91.543 41.273)" clip-path="url(#clip-path)">
          <path id="Trazado_625009" data-name="Trazado 625009" d="M278.065,314s-6.432,3.9-8.372,9.269-2.94,25.889-2.94,25.889l-1.353,8.924,3.087-.867,5.557-5.881,1.6-24.375,5.881-4.124Z" transform="translate(-262.188 -308.259)" fill="#54371a"/>
        </g>
        <path id="Trazado_625011" data-name="Trazado 625011" d="M228.384,327.487l-6.072-2.587-4.16,2-3.881.588-2.4,3.271-5.079,2.2-4.771,1.514-7.586,7.667L192.953,348h-5.292l-5.131,3.543,14.679,8.475,42.8-24.875L233,332.221l-.441-3.484Z" transform="translate(-125.373 -244.27)" fill="#54371a"/>
        <path id="Trazado_625012" data-name="Trazado 625012" d="M211.942,357.2l1.272,3.587-1.882-1.25v2.734s-.889.1-2.94-1.882a8.3,8.3,0,0,1-1.073-1.257,14.244,14.244,0,0,1-1.9-4s.1-8.431-2.779-13.687c-4.557-8.314-3.367-20.582-3.367-20.582s12.386,4.462,13.966,14.275-1.985,11.394-1.985,11.394l-.191,8.123Z" transform="translate(-153.088 -268.802)" fill="#b85e5e"/>
        <path id="Trazado_625013" data-name="Trazado 625013" d="M216.165,373.843l-1.882-1.25v2.734s-.889.1-2.94-1.882a8.3,8.3,0,0,1-1.073-1.257,7.536,7.536,0,0,1,1.874-1.536,3.992,3.992,0,0,1,2.779-.4Z" transform="translate(-156.039 -281.864)"/>
        <path id="Trazado_625014" data-name="Trazado 625014" d="M168.625,334.757l1.264,3.587-1.874-1.25v2.734s-.9.1-2.94-1.882a8.251,8.251,0,0,1-1.066-1.257,14.253,14.253,0,0,1-1.9-3.991s.1-8.431-2.779-13.687c-4.557-8.314-3.367-20.582-3.367-20.582s12.386,4.454,13.966,14.268-1.977,11.4-1.977,11.4l-.235,8.1Z" transform="translate(-141.613 -262.86)" fill="#b85e5e"/>
        <path id="Trazado_625015" data-name="Trazado 625015" d="M172.881,351.4l-1.874-1.25v2.734s-.9.1-2.94-1.882A8.249,8.249,0,0,1,167,349.749a7.636,7.636,0,0,1,1.867-1.529,3.977,3.977,0,0,1,2.786-.4Z" transform="translate(-144.576 -275.919)"/>
        <path id="Trazado_625016" data-name="Trazado 625016" d="M205.844,326.029s-.125,8.35-13.231,11.026a46.308,46.308,0,0,1-12.5.845,37.539,37.539,0,0,1-20.582-7.483,46.494,46.494,0,0,1-4.263-3.837A72.425,72.425,0,0,1,144.6,312.136c-1.228-2.11-1.647-5.748-1.308-9.019a13.767,13.767,0,0,1,1.308-4.9c1.86-3.492,9.556-6.167,9.556-6.167,1.919-.794,5.667-.6,8.2-.331a12.783,12.783,0,0,1,4.6,1.375c5.8,3.021,22.317,11.695,26.22,14.554C197.993,311.122,205.844,326.029,205.844,326.029Z" transform="translate(-138.264 -261.02)" fill="#ff9797"/>
        <path id="Trazado_625017" data-name="Trazado 625017" d="M185.1,344.408l-.61,3.2a37.539,37.539,0,0,1-20.582-7.483,46.5,46.5,0,0,1-4.263-3.837l2.15-8.088C166.361,337.028,175.344,341.152,185.1,344.408Z" transform="translate(-142.628 -270.747)" fill="#d98080" opacity="0.25"/>
        <path id="Trazado_625018" data-name="Trazado 625018" d="M155.674,342.645l1.625,4.579-1.889-1.088v2.58s-.889.1-2.94-1.889A8.819,8.819,0,0,1,151,344.99a14.7,14.7,0,0,1-1.522-3.411s.11-8.431-2.771-13.687c-4.557-8.314-3.367-20.582-3.367-20.582s12.386,4.462,13.966,14.268-1.992,11.4-1.992,11.4l-.191,8.122Z" transform="translate(-138.27 -265.213)" fill="#ff9797"/>
        <path id="Trazado_625019" data-name="Trazado 625019" d="M160.11,359.945l-1.889-1.088v2.58s-.889.1-2.94-1.889a8.821,8.821,0,0,1-1.47-1.838c1.161-1.683,3.866-2.587,4.69-2.345Z" transform="translate(-141.081 -277.933)"/>
        <path id="Trazado_625020" data-name="Trazado 625020" d="M199,365.085l1.625,4.579-1.882-1.1v2.58s-.9.1-2.94-1.882a9.1,9.1,0,0,1-1.47-1.838,14.827,14.827,0,0,1-1.514-3.411s.1-8.431-2.779-13.687c-4.557-8.314-3.367-20.582-3.367-20.582s4.807,10.431,13.966,14.268a1.845,1.845,0,0,1,1.059,1.661c.4,3.256-3.043,9.74-3.043,9.74l-.2,8.123Z" transform="translate(-149.75 -271.158)" fill="#ff9797"/>
        <path id="Trazado_625021" data-name="Trazado 625021" d="M203.432,382.385l-1.882-1.1v2.58s-.9.1-2.94-1.882a9.307,9.307,0,0,1-1.47-1.838c1.161-1.683,3.866-2.587,4.69-2.345Z" transform="translate(-152.561 -283.879)"/>
        <path id="Trazado_625022" data-name="Trazado 625022" d="M199.272,359.3l-.2,8.123.36-11.915c-6.042-.485-8.689-6.689-10.5-11.026l13.386,5.057C202.713,352.816,199.272,359.3,199.272,359.3Z" transform="translate(-150.386 -275.061)" fill="#d98080" opacity="0.25"/>
        <path id="Trazado_625023" data-name="Trazado 625023" d="M188.93,343.178l15.657-1.147s7.351-3.587,13.378-2.2S220,347.4,220,347.4l-26.61-.919Z" transform="translate(-150.386 -273.742)" fill="#d98080" opacity="0.25"/>
        <path id="Trazado_625024" data-name="Trazado 625024" d="M228.422,369.4a1.472,1.472,0,0,1-.338-.235c-1.345-.875-2.507-1.6-3.543-2.2a30.276,30.276,0,0,0-5.645-2.668c-1.426-.478-6.616-2.2-8.821-4.91-2.573-3.087-1.97-7.211-1.566-8.909.125-.5.221-.794.221-.794l1.286-5.4c2.69-3.565,9.431-6.16,13.731-5.792l4.822,3.131c4.594,5.417,2.705,8.431,2.808,10.622l.507,2.573c.515,2.426,1.852,7.292,3.675,9.894a1.969,1.969,0,0,1,.3.426C236.61,367.082,231.038,370.9,228.422,369.4Z" transform="translate(-155.476 -273.464)" fill="#ff9797"/>
        <path id="Trazado_625025" data-name="Trazado 625025" d="M226.1,336.052l1.713-2.587a54.177,54.177,0,0,1,1.889-6.858,56.591,56.591,0,0,1,4.161-7.057s4.146,7.439,3.492,10.923-6.035,7.351-6.035,7.351Z" transform="translate(-160.233 -268.455)" fill="#ff9797"/>
        <path id="Trazado_625026" data-name="Trazado 625026" d="M235.72,378.615a1.47,1.47,0,0,1,.14-.61,4.021,4.021,0,0,1,.772-1.022l1.654-1.786a8.089,8.089,0,0,1,1.558-1.411,2.764,2.764,0,0,1,2.007-.448,2.044,2.044,0,0,1,1.213.831C243.857,376.2,238.374,380.173,235.72,378.615Z" transform="translate(-162.782 -282.695)" fill="#d98080"/>
        <path id="Trazado_625027" data-name="Trazado 625027" d="M239.865,376.437c.074-.11.184-.22.309-.2s.2.272.2.441v.845a2.851,2.851,0,0,1-.169,1.029c-.118.257-.412.625-.735.6s-.176-.331-.1-.573a7.04,7.04,0,0,1,.495-2.142Z" transform="translate(-163.721 -283.474)" fill="#1a1a1a"/>
        <path id="Trazado_625028" data-name="Trazado 625028" d="M242.609,375.434a.838.838,0,0,1,.066-.353.338.338,0,0,1,.309-.191.323.323,0,0,1,.243.169.736.736,0,0,1,.088.272,4.056,4.056,0,0,1,.1,1.183c0,.228-.507,1.4-.809.911-.132-.206,0-.632,0-.86C242.587,376.191,242.6,375.809,242.609,375.434Z" transform="translate(-164.591 -283.117)" fill="#1a1a1a"/>
        <path id="Trazado_625029" data-name="Trazado 625029" d="M223.975,358.459a1.787,1.787,0,0,0,.6.735,1.281,1.281,0,0,0,.412.235.566.566,0,0,0,.463,0,.588.588,0,0,0,.265-.559,1.279,1.279,0,0,0-.221-.6,1.616,1.616,0,0,0-.581-.617C224.255,357.247,223.711,357.783,223.975,358.459Z" transform="translate(-159.652 -278.514)" fill="#1a1a1a"/>
        <path id="Trazado_625030" data-name="Trazado 625030" d="M238.176,353.631c.066.176.176.36.36.382a.36.36,0,0,0,.331-.2.735.735,0,0,0,.074-.4,1.544,1.544,0,0,0-.353-.911.735.735,0,0,0-.243-.206C237.75,352.073,238.08,353.388,238.176,353.631Z" transform="translate(-163.385 -277.124)" fill="#1a1a1a"/>
        <path id="Trazado_625031" data-name="Trazado 625031" d="M224.54,371.278a30.27,30.27,0,0,0-5.645-2.668c-1.426-.478-6.616-2.2-8.821-4.91-2.573-3.087-1.97-7.211-1.566-8.909h.235s2.44,10.644,9.946,11.327Z" transform="translate(-155.476 -277.791)" fill="#d98080" opacity="0.25"/>
        <path id="Trazado_625032" data-name="Trazado 625032" d="M206.843,346.514c-.206,0-2.9-1.625-4.94-1.97s-13.165.14-12.974-.066,5.19,12.812,14.937,8.946S206.843,346.514,206.843,346.514Z" transform="translate(-150.385 -275.043)" fill="#ff9797"/>
        <path id="Trazado_625033" data-name="Trazado 625033" d="M191.36,346.4s3.271,10.438,12.945,7.167c2.088-.735,1.786-3.139,1.786-3.139A115.5,115.5,0,0,1,191.36,346.4Z" transform="translate(-151.029 -275.569)" fill="#a65050"/>
        <path id="Trazado_625034" data-name="Trazado 625034" d="M217.383,342.1a2.639,2.639,0,0,0,.5,2.94,6.561,6.561,0,0,0,3.2,1.228,8.755,8.755,0,0,1,3.256,2.051,2.345,2.345,0,0,0,3.874-1.985,4.75,4.75,0,0,1,0-.529,6.843,6.843,0,0,0-1.25-4.2,5.226,5.226,0,0,0-3.521-1.992C221.719,339.42,218.22,340.383,217.383,342.1Z" transform="translate(-157.859 -273.763)" fill="#fff" opacity="0.15"/>
        <path id="Trazado_625035" data-name="Trazado 625035" d="M154.575,298.863a7.264,7.264,0,0,0,1.536-.191,18.924,18.924,0,0,1,8.968.845c11.636,3.345,22.42,9.409,29.984,18.686a1.206,1.206,0,0,0,2.08-1.161A19.59,19.59,0,0,0,194.6,312.4c-1.727-2.345-4.036-3.675-6.4-5.359-4.7-3.367-8.7-4.94-13.408-8.306-2.94-2.073-5.881-4.183-9.255-5.285a19.318,19.318,0,0,0-10.886-.228C151.892,294.033,149.466,298.8,154.575,298.863Z" transform="translate(-140.493 -261.3)" fill="#fff" opacity="0.15"/>
        <path id="Trazado_625036" data-name="Trazado 625036" d="M140.813,296.125a4.293,4.293,0,0,1-4.234-5.146.6.6,0,0,1,.735-.463.588.588,0,0,1,.456.735,3.124,3.124,0,0,0,3.727,3.675,3.609,3.609,0,0,1-1.536-2.043,3.036,3.036,0,0,1,.316-2.293,2.529,2.529,0,0,1,1.551-1.213,2.587,2.587,0,0,1,2.051.4,2.94,2.94,0,0,1,1.2,1.691,3.616,3.616,0,0,1-.735,3.058,8.4,8.4,0,0,0,1.948-.265.6.6,0,1,1,.272,1.161,7.924,7.924,0,0,1-3.47.169A4.7,4.7,0,0,1,140.813,296.125Zm1.551-5.675a1.1,1.1,0,0,0-.272,0,1.323,1.323,0,0,0-.816.662,1.786,1.786,0,0,0-.2,1.375,2.712,2.712,0,0,0,1.794,1.735l.14-.11a2.565,2.565,0,0,0,.9-2.426,1.705,1.705,0,0,0-1.544-1.235Z" transform="translate(-136.494 -260.445)" fill="#ff9797"/>
      </g>
      <g id="Grupo_1070655" data-name="Grupo 1070655" transform="translate(5.344 61.698)">
        <path id="Trazado_630398" data-name="Trazado 630398" d="M14.36,273.89v7.394l3.066,1.826v-7.394Z" transform="translate(-14.36 -273.89)" fill="#a97c50"/>
        <path id="Trazado_630401" data-name="Trazado 630401" d="M14.36,280.31v7.372l3.066,1.826v-7.372Z" transform="translate(-14.36 -265.837)" fill="#a97c50"/>
        <path id="Trazado_630404" data-name="Trazado 630404" d="M14.79,277.93v6.876l97.163,56.246v-6.876Z" transform="translate(-13.821 -268.822)" fill="#a97c50"/>
        <path id="Trazado_630405" data-name="Trazado 630405" d="M57.89,303.909l3.472-1.849v6.9l-3.472,1.826Z" transform="translate(40.242 -238.554)" fill="#8b5e3c"/>
        <path id="Trazado_630406" data-name="Trazado 630406" d="M111.953,335.192l3.472-1.849L18.262,277.12l-3.472,1.826Z" transform="translate(-13.821 -269.838)" fill="#c69466"/>
        <path id="Trazado_630407" data-name="Trazado 630407" d="M14.79,284.55v6.9l97.163,56.224V340.8Z" transform="translate(-13.821 -260.518)" fill="#a97c50"/>
        <path id="Trazado_630408" data-name="Trazado 630408" d="M57.89,310.529l3.472-1.849v6.9L57.89,317.4Z" transform="translate(40.242 -230.251)" fill="#8b5e3c"/>
        <path id="Trazado_630409" data-name="Trazado 630409" d="M111.953,341.812l3.472-1.849L18.262,283.74l-3.472,1.826Z" transform="translate(-13.821 -261.534)" fill="#c69466"/>
        <path id="Trazado_630416" data-name="Trazado 630416" d="M17.21,275.34V312l6.109,3.652V279.015Z" transform="translate(-10.785 -272.071)" fill="#a97c50"/>
        <path id="Trazado_630417" data-name="Trazado 630417" d="M19.92,277.986l3.472-1.826v36.633l-3.472,1.826Z" transform="translate(-7.386 -271.043)" fill="#8b5e3c"/>
        <path id="Trazado_630418" data-name="Trazado 630418" d="M23.319,280.031l3.472-1.826-6.109-3.675-3.472,1.826Z" transform="translate(-10.785 -273.087)" fill="#c69466"/>
        <path id="Trazado_630419" data-name="Trazado 630419" d="M24.24,279.3v36.633l6.132,3.675V282.975Z" transform="translate(-1.967 -267.103)" fill="#a97c50"/>
        <path id="Trazado_630420" data-name="Trazado 630420" d="M26.96,281.946l3.472-1.826v36.633l-3.472,1.826Z" transform="translate(1.445 -266.075)" fill="#8b5e3c"/>
        <path id="Trazado_630421" data-name="Trazado 630421" d="M30.372,283.991l3.472-1.826-6.132-3.675-3.472,1.826Z" transform="translate(-1.967 -268.12)" fill="#c69466"/>
        <path id="Trazado_630422" data-name="Trazado 630422" d="M31.28,283.26v36.633l6.109,3.675V286.935Z" transform="translate(6.864 -262.136)" fill="#a97c50"/>
        <path id="Trazado_630423" data-name="Trazado 630423" d="M33.99,285.919l3.472-1.849V320.7l-3.472,1.849Z" transform="translate(10.263 -261.12)" fill="#8b5e3c"/>
        <path id="Trazado_630424" data-name="Trazado 630424" d="M37.389,287.951l3.472-1.849-6.109-3.652-3.472,1.826Z" transform="translate(6.864 -263.152)" fill="#c69466"/>
        <path id="Trazado_630425" data-name="Trazado 630425" d="M38.32,287.22v36.633l6.109,3.675V290.895Z" transform="translate(15.694 -257.169)" fill="#a97c50"/>
        <path id="Trazado_630426" data-name="Trazado 630426" d="M41.03,289.879l3.47-1.849v36.633l-3.472,1.849Z" transform="translate(19.094 -256.153)" fill="#8b5e3c"/>
        <path id="Trazado_630427" data-name="Trazado 630427" d="M44.429,291.911l3.472-1.849-6.109-3.652-3.472,1.826Z" transform="translate(15.694 -258.185)" fill="#c69466"/>
        <path id="Trazado_630428" data-name="Trazado 630428" d="M45.35,291.18v36.633l6.132,3.652V294.832Z" transform="translate(24.513 -252.202)" fill="#a97c50"/>
        <path id="Trazado_630429" data-name="Trazado 630429" d="M48.07,293.816l3.472-1.826v36.633l-3.472,1.826Z" transform="translate(27.924 -251.186)" fill="#8b5e3c"/>
        <path id="Trazado_630430" data-name="Trazado 630430" d="M51.482,295.848l3.472-1.826-6.132-3.652L45.35,292.2Z" transform="translate(24.513 -253.218)" fill="#c69466"/>
        <path id="Trazado_630431" data-name="Trazado 630431" d="M52.39,295.14v36.633l6.109,3.652V298.792Z" transform="translate(33.343 -247.235)" fill="#a97c50"/>
        <path id="Trazado_630432" data-name="Trazado 630432" d="M55.1,297.776l3.472-1.826v36.633L55.1,334.409Z" transform="translate(36.743 -246.218)" fill="#8b5e3c"/>
        <path id="Trazado_630433" data-name="Trazado 630433" d="M58.5,299.821,61.972,298l-6.109-3.675-3.472,1.849Z" transform="translate(33.343 -248.264)" fill="#c69466"/>
        <path id="Trazado_630463" data-name="Trazado 630463" d="M76.836,285.105l3.246.721a5.975,5.975,0,0,0-.271-2.818,12.634,12.634,0,0,0-2.683-.248C76.566,283.1,76.836,284.5,76.836,285.105Z" transform="translate(7.973 -278.545)" fill="#663620"/>
        <path id="Trazado_630480" data-name="Trazado 630480" d="M96.472,297.6l-1.465.338a2.84,2.84,0,0,1,.113-1.307,10.126,10.126,0,0,1,1.24-.113C96.608,296.745,96.472,297.377,96.472,297.6Z" transform="translate(30.809 -261.284)" fill="#663620"/>
        <path id="Trazado_630481" data-name="Trazado 630481" d="M92.858,299.59l-1.465.338a2.75,2.75,0,0,1,0-1.285,5.52,5.52,0,0,1,1.24-.113C92.858,298.643,92.858,299.275,92.858,299.59Z" transform="translate(26.218 -258.763)" fill="#663620"/>
        <path id="Trazado_630482" data-name="Trazado 630482" d="M90.112,298.423l-1.465.316a2.75,2.75,0,0,1,.113-1.285,5.523,5.523,0,0,1,1.24-.113C90.248,297.5,90.112,298.13,90.112,298.423Z" transform="translate(22.831 -260.256)" fill="#663620"/>
        <path id="Trazado_630487" data-name="Trazado 630487" d="M85.745,295.721a.315.315,0,0,0,0-.316.72.72,0,0,0-.225-.225v.18a.316.316,0,0,0,.158.18.2.2,0,0,1,0,.2Z" transform="translate(18.947 -262.965)" fill="#231f20"/>
        <path id="Trazado_630489" data-name="Trazado 630489" d="M69.485,291.316H69.1a1.262,1.262,0,0,1-.9-.518,1.623,1.623,0,0,1-.248-.7,1.714,1.714,0,0,1,0-.812.924.924,0,0,1,.789-.654.766.766,0,0,1,.541.2.811.811,0,0,1,.225.5,1.826,1.826,0,0,1-.113.9.744.744,0,0,1-.879.293,2.254,2.254,0,0,1-.654-.383.992.992,0,0,1-.316-.631,3.969,3.969,0,0,1,0-.969.564.564,0,0,1,.225-.293h0a.474.474,0,0,0-.135.271,2.479,2.479,0,0,0,0,.9.766.766,0,0,0,.293.451,1.465,1.465,0,0,0,.564.271.383.383,0,0,0,.428-.135,1.94,1.94,0,0,0,0-.631c0-.226-.158-.271-.271-.226a.361.361,0,0,0-.271.293,1.443,1.443,0,0,0,0,.564.857.857,0,0,0,0,.5,1.218,1.218,0,0,0,.564.564,1.168,1.168,0,0,0,.338.135Z" transform="translate(-3.635 -271.658)" fill="#d3716e"/>
        <path id="Trazado_630497" data-name="Trazado 630497" d="M67.774,295.731l1.488.338a2.5,2.5,0,0,0-.135-1.285,5.21,5.21,0,0,0-1.217-.113C67.661,294.806,67.774,295.415,67.774,295.731Z" transform="translate(-3.344 -263.606)" fill="#663620"/>
        <path id="Trazado_630498" data-name="Trazado 630498" d="M71.9,296.382l1.488.316a2.8,2.8,0,0,0-.135-1.285,6.758,6.758,0,0,0-1.217-.113C71.791,295.458,71.9,296.089,71.9,296.382Z" transform="translate(1.836 -262.814)" fill="#663620"/>
        <path id="Trazado_630499" data-name="Trazado 630499" d="M75.481,295.24l1.488-.316a2.525,2.525,0,0,0-.654-1.1,5.026,5.026,0,0,0-1.15.406C74.9,294.451,75.369,294.992,75.481,295.24Z" transform="translate(5.856 -264.671)" fill="#663620"/>
        <path id="Trazado_630501" data-name="Trazado 630501" d="M75.919,290.16a2.436,2.436,0,0,0-.7.158.328.328,0,0,0,.316.519.474.474,0,0,0,.383-.541Z" transform="translate(5.937 -269.262)" fill="#231f20"/>
        <path id="Trazado_630503" data-name="Trazado 630503" d="M78.426,291.517a.271.271,0,0,0-.18-.248.766.766,0,0,0-.316,0v.2a.384.384,0,0,0,.225,0,.2.2,0,0,1,.225,0Z" transform="translate(9.427 -267.891)" fill="#231f20"/>
        <path id="Trazado_630504" data-name="Trazado 630504" d="M78.524,291.464a.27.27,0,0,1,0-.293.564.564,0,0,1,.18-.271v.361a.18.18,0,0,0,0,.2Z" transform="translate(10.118 -268.333)" fill="#231f20"/>
        <path id="Trazado_630505" data-name="Trazado 630505" d="M77.761,292.428h-.135l-.135.158H76.95l-.473-.158a.88.88,0,0,0-.316,0h1.172a3.483,3.483,0,0,1,.428,0Z" transform="translate(7.207 -266.435)" fill="#d3716e"/>
      </g>
    </g>
    <path id="Bebedero" d="M1.016,0V-11.375H5a5.232,5.232,0,0,1,3.141.793,2.712,2.712,0,0,1,1.07,2.324,2.57,2.57,0,0,1-.43,1.473,2.482,2.482,0,0,1-1.2.934,2.4,2.4,0,0,1,1.379.883,2.61,2.61,0,0,1,.5,1.625A3,3,0,0,1,8.422-.859,4.713,4.713,0,0,1,5.438,0ZM3.359-4.953v3.07H5.367A1.938,1.938,0,0,0,6.66-2.277a1.353,1.353,0,0,0,.465-1.09A1.428,1.428,0,0,0,5.508-4.953Zm0-1.656H5.094q1.773-.031,1.773-1.414a1.307,1.307,0,0,0-.449-1.113A2.363,2.363,0,0,0,5-9.477H3.359ZM14.969.156A4.15,4.15,0,0,1,11.941-.984a4.054,4.054,0,0,1-1.168-3.039v-.219a5.106,5.106,0,0,1,.492-2.277A3.612,3.612,0,0,1,12.66-8.066a3.914,3.914,0,0,1,2.059-.543,3.508,3.508,0,0,1,2.73,1.094,4.444,4.444,0,0,1,1,3.1v.922H13.063a2.1,2.1,0,0,0,.66,1.328,2,2,0,0,0,1.395.5,2.437,2.437,0,0,0,2.039-.945l1.109,1.242A3.389,3.389,0,0,1,16.891-.246,4.511,4.511,0,0,1,14.969.156Zm-.258-6.945a1.411,1.411,0,0,0-1.09.455,2.357,2.357,0,0,0-.535,1.3h3.141v-.181a1.681,1.681,0,0,0-.406-1.165A1.456,1.456,0,0,0,14.711-6.789ZM27.344-4.148A5.119,5.119,0,0,1,26.477-.98,2.872,2.872,0,0,1,24.055.156,2.639,2.639,0,0,1,21.859-.9l-.1.9H19.727V-12h2.258v4.3a2.571,2.571,0,0,1,2.055-.914,2.9,2.9,0,0,1,2.426,1.137,5.126,5.126,0,0,1,.879,3.2Zm-2.258-.164a3.363,3.363,0,0,0-.406-1.871,1.374,1.374,0,0,0-1.211-.59,1.489,1.489,0,0,0-1.484.883v3.336a1.509,1.509,0,0,0,1.5.891,1.394,1.394,0,0,0,1.438-1.078A5.562,5.562,0,0,0,25.086-4.312ZM32.625.156A4.15,4.15,0,0,1,29.6-.984,4.054,4.054,0,0,1,28.43-4.023v-.219a5.106,5.106,0,0,1,.492-2.277,3.612,3.612,0,0,1,1.395-1.547,3.914,3.914,0,0,1,2.059-.543,3.508,3.508,0,0,1,2.73,1.094,4.444,4.444,0,0,1,1,3.1v.922H30.719a2.1,2.1,0,0,0,.66,1.328,2,2,0,0,0,1.395.5,2.437,2.437,0,0,0,2.039-.945l1.109,1.242A3.389,3.389,0,0,1,34.547-.246,4.511,4.511,0,0,1,32.625.156Zm-.258-6.945a1.411,1.411,0,0,0-1.09.455,2.357,2.357,0,0,0-.535,1.3h3.141v-.181a1.681,1.681,0,0,0-.406-1.165A1.456,1.456,0,0,0,32.367-6.789Zm4.664,2.5a5.094,5.094,0,0,1,.887-3.148,2.877,2.877,0,0,1,2.426-1.172,2.589,2.589,0,0,1,2.039.922V-12h2.266V0H42.609L42.5-.9A2.657,2.657,0,0,1,40.328.156,2.869,2.869,0,0,1,37.934-1.02,5.258,5.258,0,0,1,37.031-4.289Zm2.258.168A3.337,3.337,0,0,0,39.7-2.3a1.349,1.349,0,0,0,1.2.634,1.511,1.511,0,0,0,1.477-.884V-5.889a1.489,1.489,0,0,0-1.461-.884Q39.289-6.773,39.289-4.121Zm11,4.277A4.15,4.15,0,0,1,47.262-.984a4.054,4.054,0,0,1-1.168-3.039v-.219a5.106,5.106,0,0,1,.492-2.277A3.612,3.612,0,0,1,47.98-8.066a3.914,3.914,0,0,1,2.059-.543,3.508,3.508,0,0,1,2.73,1.094,4.444,4.444,0,0,1,1,3.1v.922H48.383a2.1,2.1,0,0,0,.66,1.328,2,2,0,0,0,1.395.5,2.437,2.437,0,0,0,2.039-.945l1.109,1.242A3.389,3.389,0,0,1,52.211-.246,4.511,4.511,0,0,1,50.289.156Zm-.258-6.945a1.411,1.411,0,0,0-1.09.455,2.357,2.357,0,0,0-.535,1.3h3.141v-.181a1.681,1.681,0,0,0-.406-1.165A1.456,1.456,0,0,0,50.031-6.789Zm9.766.453a6.134,6.134,0,0,0-.812-.062,1.654,1.654,0,0,0-1.68.867V0H55.047V-8.453H57.18l.063,1.008a2.092,2.092,0,0,1,1.883-1.164,2.366,2.366,0,0,1,.7.1ZM60.25-4.3a5.013,5.013,0,0,1,.484-2.242A3.546,3.546,0,0,1,62.129-8.07a4.069,4.069,0,0,1,2.113-.539,3.849,3.849,0,0,1,2.793,1.047,4.2,4.2,0,0,1,1.207,2.844l.016.578A4.418,4.418,0,0,1,67.172-1.02,3.775,3.775,0,0,1,64.258.156,3.793,3.793,0,0,1,61.34-1.016,4.5,4.5,0,0,1,60.25-4.2Zm2.258.16A3.16,3.16,0,0,0,62.961-2.3a1.5,1.5,0,0,0,1.3.638,1.5,1.5,0,0,0,1.281-.63A3.457,3.457,0,0,0,66-4.309a3.128,3.128,0,0,0-.461-1.831,1.5,1.5,0,0,0-1.3-.649,1.474,1.474,0,0,0-1.281.646A3.516,3.516,0,0,0,62.508-4.144Z" transform="translate(-2979.284 8445.559)" fill="#12263f"/>
    <path id="Acceso" d="M7.438-2.344H3.328L2.547,0H.055L4.289-11.375H6.461L10.719,0H8.227Zm-3.477-1.9H6.8L5.375-8.5ZM15.148-1.664a1.481,1.481,0,0,0,1.016-.344,1.2,1.2,0,0,0,.406-.914h2.117a2.9,2.9,0,0,1-.469,1.574A3.093,3.093,0,0,1,16.957-.238a3.949,3.949,0,0,1-1.77.395A3.67,3.67,0,0,1,12.328-1,4.56,4.56,0,0,1,11.281-4.18v-.148A4.508,4.508,0,0,1,12.32-7.445a3.627,3.627,0,0,1,2.852-1.164,3.555,3.555,0,0,1,2.543.9,3.2,3.2,0,0,1,.973,2.4H16.57a1.551,1.551,0,0,0-.406-1.072,1.354,1.354,0,0,0-1.031-.412,1.36,1.36,0,0,0-1.191.575,3.333,3.333,0,0,0-.4,1.866v.235a3.375,3.375,0,0,0,.4,1.878A1.377,1.377,0,0,0,15.148-1.664Zm8.344,0a1.481,1.481,0,0,0,1.016-.344,1.2,1.2,0,0,0,.406-.914h2.117a2.9,2.9,0,0,1-.469,1.574A3.093,3.093,0,0,1,25.3-.238a3.949,3.949,0,0,1-1.77.395A3.67,3.67,0,0,1,20.672-1,4.56,4.56,0,0,1,19.625-4.18v-.148a4.508,4.508,0,0,1,1.039-3.117,3.627,3.627,0,0,1,2.852-1.164,3.555,3.555,0,0,1,2.543.9,3.2,3.2,0,0,1,.973,2.4H24.914a1.551,1.551,0,0,0-.406-1.072,1.354,1.354,0,0,0-1.031-.412,1.36,1.36,0,0,0-1.191.575,3.333,3.333,0,0,0-.4,1.866v.235a3.375,3.375,0,0,0,.4,1.878A1.377,1.377,0,0,0,23.492-1.664ZM32.211.156A4.15,4.15,0,0,1,29.184-.984a4.054,4.054,0,0,1-1.168-3.039v-.219a5.106,5.106,0,0,1,.492-2.277A3.612,3.612,0,0,1,29.9-8.066a3.914,3.914,0,0,1,2.059-.543,3.508,3.508,0,0,1,2.73,1.094,4.444,4.444,0,0,1,1,3.1v.922H30.3a2.1,2.1,0,0,0,.66,1.328,2,2,0,0,0,1.395.5A2.437,2.437,0,0,0,34.4-2.609l1.109,1.242A3.389,3.389,0,0,1,34.133-.246,4.511,4.511,0,0,1,32.211.156Zm-.258-6.945a1.411,1.411,0,0,0-1.09.455,2.357,2.357,0,0,0-.535,1.3h3.141v-.181a1.681,1.681,0,0,0-.406-1.165A1.456,1.456,0,0,0,31.953-6.789Zm9.594,4.453a.727.727,0,0,0-.41-.652,4.659,4.659,0,0,0-1.316-.426Q36.8-4.047,36.8-5.977a2.323,2.323,0,0,1,.934-1.879,3.766,3.766,0,0,1,2.441-.754,4.053,4.053,0,0,1,2.574.758,2.388,2.388,0,0,1,.965,1.969H41.461a1.092,1.092,0,0,0-.312-.8A1.322,1.322,0,0,0,40.172-7a1.351,1.351,0,0,0-.883.258.814.814,0,0,0-.312.656.7.7,0,0,0,.355.605,3.657,3.657,0,0,0,1.2.4,9.8,9.8,0,0,1,1.422.379A2.336,2.336,0,0,1,43.742-2.43,2.2,2.2,0,0,1,42.75-.559a4.28,4.28,0,0,1-2.562.715A4.47,4.47,0,0,1,38.3-.223a3.166,3.166,0,0,1-1.293-1.039,2.414,2.414,0,0,1-.469-1.426H38.68a1.179,1.179,0,0,0,.445.922,1.766,1.766,0,0,0,1.109.32,1.635,1.635,0,0,0,.98-.246A.766.766,0,0,0,41.547-2.336Zm3.3-1.969a5.013,5.013,0,0,1,.484-2.242A3.546,3.546,0,0,1,46.723-8.07a4.069,4.069,0,0,1,2.113-.539,3.849,3.849,0,0,1,2.793,1.047,4.2,4.2,0,0,1,1.207,2.844l.016.578A4.418,4.418,0,0,1,51.766-1.02,3.775,3.775,0,0,1,48.852.156a3.793,3.793,0,0,1-2.918-1.172A4.5,4.5,0,0,1,44.844-4.2Zm2.258.16A3.16,3.16,0,0,0,47.555-2.3a1.5,1.5,0,0,0,1.3.638,1.5,1.5,0,0,0,1.281-.63,3.457,3.457,0,0,0,.461-2.015,3.128,3.128,0,0,0-.461-1.831,1.5,1.5,0,0,0-1.3-.649,1.474,1.474,0,0,0-1.281.646A3.516,3.516,0,0,0,47.1-4.144Z" transform="translate(-3349.563 8380.5)" fill="#12263f"/>
    <path id="Comedero" d="M9.945-3.789A4.025,4.025,0,0,1,8.59-.9,4.76,4.76,0,0,1,5.367.156,4.28,4.28,0,0,1,1.926-1.316,6.038,6.038,0,0,1,.672-5.359v-.7A6.819,6.819,0,0,1,1.25-8.945,4.332,4.332,0,0,1,2.9-10.863a4.629,4.629,0,0,1,2.5-.668A4.637,4.637,0,0,1,8.57-10.477,4.326,4.326,0,0,1,9.961-7.516H7.617A2.376,2.376,0,0,0,7-9.113a2.271,2.271,0,0,0-1.605-.5,1.991,1.991,0,0,0-1.754.84,4.707,4.707,0,0,0-.6,2.605V-5.3a5.038,5.038,0,0,0,.559,2.7,1.954,1.954,0,0,0,1.762.852,2.314,2.314,0,0,0,1.621-.5A2.241,2.241,0,0,0,7.6-3.789ZM10.984-4.3a5.013,5.013,0,0,1,.484-2.242A3.546,3.546,0,0,1,12.863-8.07a4.069,4.069,0,0,1,2.113-.539A3.849,3.849,0,0,1,17.77-7.562a4.2,4.2,0,0,1,1.207,2.844l.016.578A4.418,4.418,0,0,1,17.906-1.02,3.775,3.775,0,0,1,14.992.156a3.793,3.793,0,0,1-2.918-1.172A4.5,4.5,0,0,1,10.984-4.2Zm2.258.16A3.16,3.16,0,0,0,13.7-2.3a1.5,1.5,0,0,0,1.3.638,1.5,1.5,0,0,0,1.281-.63,3.457,3.457,0,0,0,.461-2.015,3.128,3.128,0,0,0-.461-1.831,1.5,1.5,0,0,0-1.3-.649,1.474,1.474,0,0,0-1.281.646A3.516,3.516,0,0,0,13.242-4.144ZM22.5-8.453l.07.945A2.971,2.971,0,0,1,25-8.609,2.255,2.255,0,0,1,27.242-7.32a2.9,2.9,0,0,1,2.539-1.289,2.521,2.521,0,0,1,2.047.8A3.681,3.681,0,0,1,32.5-5.4V0H30.234V-5.391a1.61,1.61,0,0,0-.281-1.051,1.246,1.246,0,0,0-.992-.332,1.409,1.409,0,0,0-1.406.969L27.563,0H25.3V-5.383a1.59,1.59,0,0,0-.289-1.062,1.259,1.259,0,0,0-.984-.328,1.463,1.463,0,0,0-1.391.8V0H20.383V-8.453ZM38.125.156A4.15,4.15,0,0,1,35.1-.984,4.054,4.054,0,0,1,33.93-4.023v-.219a5.106,5.106,0,0,1,.492-2.277,3.612,3.612,0,0,1,1.395-1.547,3.914,3.914,0,0,1,2.059-.543,3.508,3.508,0,0,1,2.73,1.094,4.444,4.444,0,0,1,1,3.1v.922H36.219a2.1,2.1,0,0,0,.66,1.328,2,2,0,0,0,1.395.5,2.437,2.437,0,0,0,2.039-.945l1.109,1.242A3.389,3.389,0,0,1,40.047-.246,4.511,4.511,0,0,1,38.125.156Zm-.258-6.945a1.411,1.411,0,0,0-1.09.455,2.357,2.357,0,0,0-.535,1.3h3.141v-.181a1.681,1.681,0,0,0-.406-1.165A1.456,1.456,0,0,0,37.867-6.789Zm4.664,2.5a5.094,5.094,0,0,1,.887-3.148,2.877,2.877,0,0,1,2.426-1.172,2.589,2.589,0,0,1,2.039.922V-12h2.266V0H48.109L48-.9A2.657,2.657,0,0,1,45.828.156,2.869,2.869,0,0,1,43.434-1.02,5.258,5.258,0,0,1,42.531-4.289Zm2.258.168A3.337,3.337,0,0,0,45.2-2.3a1.349,1.349,0,0,0,1.2.634,1.511,1.511,0,0,0,1.477-.884V-5.889a1.489,1.489,0,0,0-1.461-.884Q44.789-6.773,44.789-4.121Zm11,4.277A4.15,4.15,0,0,1,52.762-.984a4.054,4.054,0,0,1-1.168-3.039v-.219a5.106,5.106,0,0,1,.492-2.277A3.612,3.612,0,0,1,53.48-8.066a3.914,3.914,0,0,1,2.059-.543,3.508,3.508,0,0,1,2.73,1.094,4.444,4.444,0,0,1,1,3.1v.922H53.883a2.1,2.1,0,0,0,.66,1.328,2,2,0,0,0,1.395.5,2.437,2.437,0,0,0,2.039-.945l1.109,1.242A3.389,3.389,0,0,1,57.711-.246,4.511,4.511,0,0,1,55.789.156Zm-.258-6.945a1.411,1.411,0,0,0-1.09.455,2.357,2.357,0,0,0-.535,1.3h3.141v-.181a1.681,1.681,0,0,0-.406-1.165A1.456,1.456,0,0,0,55.531-6.789Zm9.766.453a6.134,6.134,0,0,0-.812-.062,1.654,1.654,0,0,0-1.68.867V0H60.547V-8.453H62.68l.063,1.008a2.092,2.092,0,0,1,1.883-1.164,2.366,2.366,0,0,1,.7.1ZM65.75-4.3a5.013,5.013,0,0,1,.484-2.242A3.546,3.546,0,0,1,67.629-8.07a4.069,4.069,0,0,1,2.113-.539,3.849,3.849,0,0,1,2.793,1.047,4.2,4.2,0,0,1,1.207,2.844l.016.578A4.418,4.418,0,0,1,72.672-1.02,3.775,3.775,0,0,1,69.758.156,3.793,3.793,0,0,1,66.84-1.016,4.5,4.5,0,0,1,65.75-4.2Zm2.258.16A3.16,3.16,0,0,0,68.461-2.3a1.5,1.5,0,0,0,1.3.638,1.5,1.5,0,0,0,1.281-.63A3.457,3.457,0,0,0,71.5-4.309a3.128,3.128,0,0,0-.461-1.831,1.5,1.5,0,0,0-1.3-.649,1.474,1.474,0,0,0-1.281.646A3.516,3.516,0,0,0,68.008-4.144Z" transform="translate(-2987.309 8172.188)" fill="#12263f"/>
    <path id="Profundidad" d="M3.359-4.008V0H1.016V-11.375H5.453a5.134,5.134,0,0,1,2.254.469A3.454,3.454,0,0,1,9.2-9.574a3.714,3.714,0,0,1,.523,1.965A3.266,3.266,0,0,1,8.582-4.973a4.767,4.767,0,0,1-3.168.965Zm0-1.9H5.453a2.059,2.059,0,0,0,1.418-.437,1.591,1.591,0,0,0,.488-1.25,1.876,1.876,0,0,0-.492-1.352,1.839,1.839,0,0,0-1.359-.531H3.359Zm12.578-.43a6.134,6.134,0,0,0-.812-.062,1.654,1.654,0,0,0-1.68.867V0H11.188V-8.453H13.32l.063,1.008a2.092,2.092,0,0,1,1.883-1.164,2.366,2.366,0,0,1,.7.1ZM16.391-4.3a5.013,5.013,0,0,1,.484-2.242A3.546,3.546,0,0,1,18.27-8.07a4.069,4.069,0,0,1,2.113-.539,3.849,3.849,0,0,1,2.793,1.047,4.2,4.2,0,0,1,1.207,2.844l.016.578A4.418,4.418,0,0,1,23.313-1.02,3.775,3.775,0,0,1,20.4.156,3.793,3.793,0,0,1,17.48-1.016,4.5,4.5,0,0,1,16.391-4.2Zm2.258.16A3.16,3.16,0,0,0,19.1-2.3a1.5,1.5,0,0,0,1.3.638,1.5,1.5,0,0,0,1.281-.63,3.457,3.457,0,0,0,.461-2.015A3.128,3.128,0,0,0,21.68-6.14a1.5,1.5,0,0,0-1.3-.649,1.474,1.474,0,0,0-1.281.646A3.516,3.516,0,0,0,18.648-4.144ZM26.406,0V-6.8H25.148V-8.453h1.258v-.719a2.918,2.918,0,0,1,.816-2.207,3.162,3.162,0,0,1,2.285-.785,5.278,5.278,0,0,1,1.148.156l-.023,1.75a2.878,2.878,0,0,0-.687-.07q-1.273,0-1.273,1.2v.68h1.68V-6.8h-1.68V0Zm10.18-.859A2.831,2.831,0,0,1,34.273.156,2.67,2.67,0,0,1,32.2-.625a3.335,3.335,0,0,1-.73-2.289V-8.453h2.258v5.467q0,1.322,1.2,1.322a1.63,1.63,0,0,0,1.578-.8V-8.453h2.266V0H36.648Zm5.969-7.594.07.977a2.951,2.951,0,0,1,2.43-1.133,2.453,2.453,0,0,1,2,.789,3.682,3.682,0,0,1,.672,2.359V0H45.469V-5.406a1.465,1.465,0,0,0-.312-1.043,1.4,1.4,0,0,0-1.039-.324,1.553,1.553,0,0,0-1.43.813V0H40.43V-8.453Zm6.531,4.164a5.094,5.094,0,0,1,.887-3.148A2.877,2.877,0,0,1,52.4-8.609a2.589,2.589,0,0,1,2.039.922V-12H56.7V0H54.664l-.109-.9A2.657,2.657,0,0,1,52.383.156,2.869,2.869,0,0,1,49.988-1.02,5.258,5.258,0,0,1,49.086-4.289Zm2.258.168A3.337,3.337,0,0,0,51.758-2.3a1.349,1.349,0,0,0,1.2.634,1.511,1.511,0,0,0,1.477-.884V-5.889a1.489,1.489,0,0,0-1.461-.884Q51.344-6.773,51.344-4.121ZM60.836,0H58.57V-8.453h2.266Zm-2.4-10.641a1.112,1.112,0,0,1,.34-.836A1.277,1.277,0,0,1,59.7-11.8a1.28,1.28,0,0,1,.922.328,1.105,1.105,0,0,1,.344.836,1.108,1.108,0,0,1-.348.844,1.283,1.283,0,0,1-.918.328,1.283,1.283,0,0,1-.918-.328A1.108,1.108,0,0,1,58.438-10.641Zm3.906,6.352a5.094,5.094,0,0,1,.887-3.148,2.877,2.877,0,0,1,2.426-1.172,2.589,2.589,0,0,1,2.039.922V-12h2.266V0H67.922l-.109-.9A2.657,2.657,0,0,1,65.641.156,2.869,2.869,0,0,1,63.246-1.02,5.258,5.258,0,0,1,62.344-4.289Zm2.258.168A3.337,3.337,0,0,0,65.016-2.3a1.349,1.349,0,0,0,1.2.634A1.511,1.511,0,0,0,67.7-2.548V-5.889a1.489,1.489,0,0,0-1.461-.884Q64.6-6.773,64.6-4.121ZM76.609,0a2.507,2.507,0,0,1-.227-.758A2.732,2.732,0,0,1,74.25.156a3,3,0,0,1-2.059-.719,2.312,2.312,0,0,1-.816-1.812,2.389,2.389,0,0,1,1-2.062,4.915,4.915,0,0,1,2.879-.727h1.039v-.484a1.393,1.393,0,0,0-.3-.937,1.183,1.183,0,0,0-.949-.352,1.345,1.345,0,0,0-.895.273.929.929,0,0,0-.324.75H71.563a2.268,2.268,0,0,1,.453-1.359,3,3,0,0,1,1.281-.98,4.669,4.669,0,0,1,1.859-.355,3.689,3.689,0,0,1,2.48.785,2.747,2.747,0,0,1,.918,2.207v3.664a4.041,4.041,0,0,0,.336,1.82V0ZM74.742-1.57a1.945,1.945,0,0,0,.922-.223,1.462,1.462,0,0,0,.625-.6V-3.844h-.844q-1.7,0-1.8,1.172l-.008.133a.9.9,0,0,0,.3.7A1.153,1.153,0,0,0,74.742-1.57Zm5.2-2.719a5.094,5.094,0,0,1,.887-3.148A2.877,2.877,0,0,1,83.25-8.609a2.589,2.589,0,0,1,2.039.922V-12h2.266V0H85.516l-.109-.9A2.657,2.657,0,0,1,83.234.156,2.869,2.869,0,0,1,80.84-1.02,5.258,5.258,0,0,1,79.938-4.289Zm2.258.168A3.337,3.337,0,0,0,82.609-2.3a1.349,1.349,0,0,0,1.2.634,1.511,1.511,0,0,0,1.477-.884V-5.889a1.489,1.489,0,0,0-1.461-.884Q82.2-6.773,82.2-4.121Z" transform="translate(-3174.446 8049.699)" fill="#12263f"/>
    <path id="Trazado_825322" data-name="Trazado 825322" d="M-3695.74,9087.44l49.333,69.064,59.023-40.963L-3642,9052.99" transform="translate(630.697 -706.944)" fill="none" stroke="#c7b207" stroke-width="3" stroke-dasharray="4"/>
    <path id="Trazado_825323" data-name="Trazado 825323" d="M-3577.29,8885.77l29.312-29.311-162.334-96.224-38.321,26.428" transform="translate(644.834 -628.703)" fill="none" stroke="#3b5620" stroke-width="2"/>
    <path id="Trazado_825326" data-name="Trazado 825326" d="M-3790.65,8759v-98.6h-37.609v122.655" transform="translate(673.231 -602.022)" fill="none" stroke="#c7b207" stroke-width="2" stroke-dasharray="4"/>
    <path id="Trazado_825327" data-name="Trazado 825327" d="M-4114.46,8836.6v166.938h97.589V8900.03" transform="translate(742.606 -649.113)" fill="none" stroke="#3b5620" stroke-width="2"/>
  </g>
</svg>
