<svg xmlns="http://www.w3.org/2000/svg" xmlns:xlink="http://www.w3.org/1999/xlink" width="146.255" height="146.255" viewBox="0 0 146.255 146.255">
  <defs>
    <clipPath id="clip-path">
      <rect id="Rectángulo_321503" data-name="Rectángulo 321503" width="133.404" height="133.405" fill="none"/>
    </clipPath>
    <clipPath id="clip-path-2">
      <rect id="Rectángulo_321504" data-name="Rectángulo 321504" width="39.688" height="85.371" fill="none"/>
    </clipPath>
    <clipPath id="clip-path-3">
      <rect id="Rectángulo_321505" data-name="Rectángulo 321505" width="20.364" height="85.371" fill="none"/>
    </clipPath>
    <clipPath id="clip-path-4">
      <rect id="Rectángulo_321506" data-name="Rectángulo 321506" width="31.608" height="7.986" fill="none"/>
    </clipPath>
    <clipPath id="clip-path-5">
      <rect id="Rectángulo_321507" data-name="Rectángulo 321507" width="8.437" height="3.083" fill="none"/>
    </clipPath>
  </defs>
  <g id="Grupo_1072407" data-name="Grupo 1072407" transform="translate(-4843.132 8403.969)">
    <path id="Trazado_821786" data-name="Trazado 821786" d="M889.069,713.256a73.127,73.127,0,1,1-73.127-73.127,73.128,73.128,0,0,1,73.127,73.127" transform="translate(4100.318 -9044.098)" fill="#1b3f5e"/>
    <g id="Grupo_1072370" data-name="Grupo 1072370" transform="translate(4850.081 -8397.544)" style="isolation: isolate">
      <g id="Grupo_253373" data-name="Grupo 253373" transform="translate(0 0)">
        <g id="Grupo_253372" data-name="Grupo 253372" clip-path="url(#clip-path)">
          <path id="Trazado_271353" data-name="Trazado 271353" d="M883.646,713.7a66.7,66.7,0,1,1-66.7-66.7,66.7,66.7,0,0,1,66.7,66.7" transform="translate(-750.242 -646.997)" fill="#e5dbd7"/>
        </g>
      </g>
    </g>
    <path id="Trazado_821787" data-name="Trazado 821787" d="M862.951,688.175a7.534,7.534,0,1,1-7.534-7.534,7.534,7.534,0,0,1,7.534,7.534" transform="translate(4093.538 -9046.712)" fill="#bddef5"/>
    <path id="Trazado_821788" data-name="Trazado 821788" d="M858.242,694.817a.7.7,0,0,1-.274-1.347,5.013,5.013,0,0,0,1.865-1.378.7.7,0,0,1,1.073.9,6.421,6.421,0,0,1-2.39,1.764.7.7,0,0,1-.274.056" transform="translate(4092.914 -9047.436)" fill="#fff"/>
    <path id="Trazado_821789" data-name="Trazado 821789" d="M849.834,688.957a.7.7,0,0,1-.7-.7,6.372,6.372,0,0,1,6.365-6.365.7.7,0,0,1,0,1.4,4.967,4.967,0,0,0-4.962,4.962.7.7,0,0,1-.7.7" transform="translate(4093.457 -9046.792)" fill="#fff"/>
    <path id="Trazado_821790" data-name="Trazado 821790" d="M853.683,703.707a2.9,2.9,0,1,1-2.9-2.9,2.9,2.9,0,0,1,2.9,2.9" transform="translate(4093.538 -9048.013)" fill="#bddef5"/>
    <path id="Trazado_821791" data-name="Trazado 821791" d="M852.043,705.976a.351.351,0,0,1-.181-.651,1.627,1.627,0,0,0,.613-.662.351.351,0,1,1,.627.314,2.322,2.322,0,0,1-.877.949.354.354,0,0,1-.181.051" transform="translate(4093.292 -9048.249)" fill="#fff"/>
    <path id="Trazado_821792" data-name="Trazado 821792" d="M848.858,704.1a.351.351,0,0,1-.351-.351,2.318,2.318,0,0,1,2.316-2.315.351.351,0,1,1,0,.7,1.615,1.615,0,0,0-1.615,1.614.351.351,0,0,1-.351.351" transform="translate(4093.497 -9048.054)" fill="#fff"/>
    <path id="Trazado_821793" data-name="Trazado 821793" d="M866.24,719.8a7.291,7.291,0,1,1-7.291-7.29,7.29,7.29,0,0,1,7.291,7.29" transform="translate(4093.294 -9048.769)" fill="#bddef5"/>
    <path id="Trazado_821794" data-name="Trazado 821794" d="M861.182,726.386a.7.7,0,0,1-.215-1.37,4.762,4.762,0,0,0,1.817-1.087.7.7,0,0,1,.972,1.012,6.17,6.17,0,0,1-2.358,1.411.717.717,0,0,1-.215.034" transform="translate(4092.725 -9049.492)" fill="#fff"/>
    <path id="Trazado_821795" data-name="Trazado 821795" d="M853.611,720.584a.7.7,0,0,1-.7-.7,6.128,6.128,0,0,1,6.121-6.121.7.7,0,0,1,0,1.4,4.723,4.723,0,0,0-4.718,4.718.7.7,0,0,1-.7.7" transform="translate(4093.213 -9048.85)" fill="#fff"/>
    <path id="Trazado_821796" data-name="Trazado 821796" d="M839.977,767.759a3,3,0,0,1-3.048,3.4H800.388a3.206,3.206,0,0,1-3.235-3.409l7.085-46.851a41.979,41.979,0,0,1,.546-4.5l10.238-30.609h8.354l-.313,22a7.162,7.162,0,0,0,2.268,3.619l6.656,5.13a9.159,9.159,0,0,1,3.06,5.48Z" transform="translate(4096.812 -9047.044)" fill="#76b8de"/>
    <g id="Grupo_1072371" data-name="Grupo 1072371" transform="translate(4897.121 -8361.26)" style="mix-blend-mode: multiply;isolation: isolate">
      <g id="Grupo_253376" data-name="Grupo 253376" transform="translate(0 0)">
        <g id="Grupo_253375" data-name="Grupo 253375" clip-path="url(#clip-path-2)">
          <path id="Trazado_271364" data-name="Trazado 271364" d="M840.2,767.759l-4.932-45.745a9.16,9.16,0,0,0-3.06-5.48l-6.656-5.13a7.162,7.162,0,0,1-2.268-3.619l.313-22h-3.431l-.769,23.855a7.166,7.166,0,0,0,2.268,3.619l6.655,5.13a9.155,9.155,0,0,1,3.06,5.48l3.275,40.1a3,3,0,0,1-3.049,3.4s-32.884,3.792-31,3.792h36.542a3,3,0,0,0,3.048-3.4" transform="translate(-800.527 -685.784)" fill="#cae0ed"/>
        </g>
      </g>
    </g>
    <g id="Grupo_1072372" data-name="Grupo 1072372" transform="translate(4893.959 -8361.26)" style="mix-blend-mode: screen;isolation: isolate">
      <g id="Grupo_253379" data-name="Grupo 253379" transform="translate(0 0)">
        <g id="Grupo_253378" data-name="Grupo 253378" clip-path="url(#clip-path-3)">
          <path id="Trazado_271365" data-name="Trazado 271365" d="M802.4,769.25l7.313-48.355a43.287,43.287,0,0,1,.564-4.648l7.235-30.463h-2.489l-10.239,30.609a41.966,41.966,0,0,0-.546,4.5l-7.085,46.851a3.205,3.205,0,0,0,3.235,3.408h2.483a3.373,3.373,0,0,1-.471-1.9" transform="translate(-797.148 -685.784)" fill="#3a5b6e"/>
        </g>
      </g>
    </g>
    <path id="Trazado_821797" data-name="Trazado 821797" d="M847.738,661.469v2.583l-2.094.721V661.1Z" transform="translate(4093.682 -9045.45)" fill="#e96352"/>
    <path id="Trazado_821798" data-name="Trazado 821798" d="M841.846,677.051c1.2,1.594,1.094,1.989-.64,1.012a14.707,14.707,0,0,1-6.295-6.91h-6.468c3.246-3.2,8.807-4.573,12.459-5.143l.012.059s-2.967,5.828.931,10.982" transform="translate(4094.792 -9045.768)" fill="#e96352"/>
    <path id="Trazado_821799" data-name="Trazado 821799" d="M824.327,676.518a.22.22,0,0,0-.094-.012h-8.575l.939-3.024a1.616,1.616,0,0,0-1.638-2.223h-7.818a2.4,2.4,0,0,1-2.472-2.316c.167-2.906,1.708-7.655,9.732-8.9,7.063-1.094,28.6,0,28.6,0V665.2a34.515,34.515,0,0,0-3.631.395c-3.653.571-9.214,1.944-12.459,5.143a8.275,8.275,0,0,0-2.583,5.782" transform="translate(4096.326 -9045.352)" fill="#ffcc4d"/>
    <g id="Grupo_1072373" data-name="Grupo 1072373" transform="translate(4903.169 -8383.752)" style="mix-blend-mode: screen;isolation: isolate">
      <g id="Grupo_253382" data-name="Grupo 253382" transform="translate(0 0)">
        <g id="Grupo_253381" data-name="Grupo 253381" clip-path="url(#clip-path-4)">
          <path id="Trazado_271369" data-name="Trazado 271369" d="M817.557,664.7c4.463-.572,21.044-2.626,21.044-2.626s-17.758-.746-23.581,0c-6.617.85-7.889,4.092-8.023,6.074-.061.877.977,1.581,2.037,1.581h.675c.514-1.923,2.3-4.316,7.849-5.029" transform="translate(-806.993 -661.741)" fill="#968554"/>
        </g>
      </g>
    </g>
    <path id="Trazado_821800" data-name="Trazado 821800" d="M824.928,677.687a1.42,1.42,0,0,1,1.326,1.408v4.746a1.425,1.425,0,0,1-1.419,1.42H815.4a1.425,1.425,0,0,1-1.419-1.42v-4.746a1.425,1.425,0,0,1,1.419-1.42h9.435a.22.22,0,0,1,.094.012" transform="translate(4095.725 -9046.521)" fill="#f57a62"/>
    <g id="Grupo_1072374" data-name="Grupo 1072374" transform="translate(4911.75 -8361.26)" style="mix-blend-mode: multiply;isolation: isolate">
      <g id="Grupo_253385" data-name="Grupo 253385" transform="translate(0 0)">
        <g id="Grupo_253384" data-name="Grupo 253384" clip-path="url(#clip-path-5)">
          <path id="Trazado_271371" data-name="Trazado 271371" d="M824.6,685.784h-8.354l-.083.25a31.205,31.205,0,0,1,8.393,2.833Z" transform="translate(-816.166 -685.784)" fill="#cae0ed"/>
        </g>
      </g>
    </g>
    <path id="Trazado_821801" data-name="Trazado 821801" d="M816.007,683.926a.581.581,0,0,1-.581-.582V679.79a.581.581,0,0,1,1.163,0v3.554a.582.582,0,0,1-.582.582" transform="translate(4095.632 -9046.619)" fill="#e96352"/>
    <path id="Trazado_821802" data-name="Trazado 821802" d="M818.256,683.926a.581.581,0,0,1-.582-.582V679.79a.581.581,0,0,1,1.163,0v3.554a.58.58,0,0,1-.581.582" transform="translate(4095.487 -9046.619)" fill="#e96352"/>
    <path id="Trazado_821803" data-name="Trazado 821803" d="M820.5,683.926a.582.582,0,0,1-.582-.582V679.79a.581.581,0,0,1,1.163,0v3.554a.581.581,0,0,1-.581.582" transform="translate(4095.342 -9046.619)" fill="#e96352"/>
    <path id="Trazado_821804" data-name="Trazado 821804" d="M822.75,683.926a.581.581,0,0,1-.582-.582V679.79a.582.582,0,0,1,1.164,0v3.554a.581.581,0,0,1-.582.582" transform="translate(4095.197 -9046.619)" fill="#e96352"/>
    <path id="Trazado_821805" data-name="Trazado 821805" d="M825,683.926a.581.581,0,0,1-.582-.582V679.79a.581.581,0,0,1,1.163,0v3.554a.581.581,0,0,1-.581.582" transform="translate(4095.052 -9046.619)" fill="#e96352"/>
    <path id="Trazado_821806" data-name="Trazado 821806" d="M831.2,766.039h-24.59a1.094,1.094,0,0,1-1.1-1.137l5.893-38.85a1.185,1.185,0,0,1,1.176-1.138h15.706a1.236,1.236,0,0,1,1.215,1.135l2.758,38.856a1.047,1.047,0,0,1-1.059,1.135" transform="translate(4096.272 -9049.568)" fill="#ffcc4d"/>
    <rect id="Rectángulo_375900" data-name="Rectángulo 375900" width="14.27" height="3.49" transform="translate(4908.966 -8316.104)" fill="#d6950d"/>
    <rect id="Rectángulo_375901" data-name="Rectángulo 375901" width="14.27" height="3.49" transform="translate(4908.966 -8308.58)" fill="#d6950d"/>
    <rect id="Rectángulo_375902" data-name="Rectángulo 375902" width="22.386" height="2.327" transform="translate(4904.119 -8288.803)" fill="#d6950d"/>
    <path id="Trazado_821807" data-name="Trazado 821807" d="M823.888,756.627c4.194.69,3.8,4.134,3.8,4.134h.3s-.39-3.443,3.8-4.134c-4.194-.687-3.8-4.131-3.8-4.131h-.3s.391,3.444-3.8,4.131" transform="translate(4095.086 -9051.35)" fill="#fff"/>
    <path id="Trazado_821808" data-name="Trazado 821808" d="M809.641,750.27a2.074,2.074,0,0,1,2.017,2.192h.16s-.208-1.826,2.017-2.192c-2.225-.365-2.017-2.191-2.017-2.191h-.16a2.073,2.073,0,0,1-2.017,2.191" transform="translate(4096.005 -9051.063)" fill="#fff"/>
  </g>
</svg>
