<svg xmlns="http://www.w3.org/2000/svg" xmlns:xlink="http://www.w3.org/1999/xlink" width="505" height="290" viewBox="0 0 505 290">
  <defs>
    <clipPath id="clip-path">
      <rect id="Rect치ngulo_376198" data-name="Rect치ngulo 376198" width="505" height="290" transform="translate(180 1139)" fill="#fff" stroke="#707070" stroke-width="1"/>
    </clipPath>
    <clipPath id="clip-path-2">
      <path id="Trazado_824988" data-name="Trazado 824988" d="M125.142,171.749a16.33,16.33,0,0,1,4.278,1.834c9.474,5.5,17.114,18.642,17.114,29.338a23.593,23.593,0,0,1-.611,4.584c-.611,1.834-3.056,5.5-6.723,9.779.917,9.474,1.834,56.231-3.973,62.037-3.362,3.362-28.727-6.723-28.727-6.723s7.64-52.869,17.419-63.871c-6.418-6.418-11.613-16.808-11.613-25.059C112.306,174.193,117.807,169.609,125.142,171.749Z" transform="translate(-106.5 -171.23)"/>
    </clipPath>
  </defs>
  <g id="Enmascarar_grupo_206" data-name="Enmascarar grupo 206" transform="translate(-180 -1139)" clip-path="url(#clip-path)">
    <g id="_15" data-name="15" transform="translate(146.715 864.91)">
      <g id="Grupo_1075284" data-name="Grupo 1075284" transform="translate(202.993 411.051)">
        <g id="Grupo_1075282" data-name="Grupo 1075282" transform="translate(477.043)">
          <path id="Trazado_824943" data-name="Trazado 824943" d="M232.4,145.775c-.306,0-.917-.306-.917-.611a1.344,1.344,0,0,1,.306-1.528l4.89-2.75a1.1,1.1,0,0,1,1.222,1.834l-4.89,2.75C232.708,145.469,232.708,145.775,232.4,145.775Z" transform="translate(-231.359 -140.759)" fill="#2d4057"/>
        </g>
        <g id="Grupo_1075283" data-name="Grupo 1075283" transform="translate(0 275.347)">
          <path id="Trazado_824944" data-name="Trazado 824944" d="M76.3,235.875c-.306,0-.917-.306-.917-.611a1.344,1.344,0,0,1,.306-1.528l4.89-2.75a1.1,1.1,0,1,1,1.222,1.834l-4.89,2.75A.947.947,0,0,1,76.3,235.875Z" transform="translate(-75.259 -230.859)" fill="#2d4057"/>
        </g>
      </g>
      <g id="Grupo_1075323" data-name="Grupo 1075323" transform="translate(13.131 298.716)">
        <path id="Trazado_824945" data-name="Trazado 824945" d="M23.314,245.524c3.362,3.973,8.251,6.418,13.141,8.862,21.086,10.39,43.7,18.336,62.343,33,4.89,3.667,9.168,7.946,14.669,10.39,10.39,4.89,22.614,2.75,33.616-.611a187.614,187.614,0,0,0,37.895-15.891,16.8,16.8,0,0,0,2.75-2.139c2.445-3.362-.306-7.946-3.056-10.7-10.7-10.7-23.837-18.642-36.978-26.282-14.363-8.557-28.421-16.808-42.784-25.365-4.89-2.75-9.779-5.806-14.974-7.946a79.874,79.874,0,0,0-35.755-7.334,27.364,27.364,0,0,0-12.224,2.445c-7.64,3.362-10.085,11.307-14.669,17.725C21.786,229.327,15.674,236.05,23.314,245.524Z" transform="translate(0.428 96.444)" fill="#255787" opacity="0.2"/>
        <path id="Trazado_824946" data-name="Trazado 824946" d="M54.553,227.824c3.362,3.973,8.251,6.418,13.141,8.862,21.086,10.39,43.7,18.336,62.343,33,4.89,3.667,9.168,7.946,14.669,10.39,10.39,4.89,22.615,2.75,33.616-.611a187.609,187.609,0,0,0,37.895-15.891,16.8,16.8,0,0,0,2.75-2.139c2.445-3.362-.306-7.946-3.056-10.7-10.7-10.7-23.837-18.642-36.978-26.282-14.363-8.557-28.421-16.808-42.784-25.365-4.89-2.75-9.779-5.806-14.974-7.946a79.874,79.874,0,0,0-35.755-7.334,27.364,27.364,0,0,0-12.224,2.445c-7.64,3.362-10.085,11.307-14.669,17.725C52.719,211.932,46.607,218.656,54.553,227.824Z" transform="translate(64.231 60.053)" fill="#255787" opacity="0.2"/>
        <path id="Trazado_824947" data-name="Trazado 824947" d="M42.3,325.735,252.859,203.8l66.01,37.895L108.31,363.935Z" transform="translate(46.841 101.19)" fill="#255787" opacity="0.2"/>
        <path id="Trazado_824948" data-name="Trazado 824948" d="M283.377,193.973c-28.115-16.2-73.955-16.2-102.071,0-23.531,13.446-27.5,33.922-11.918,49.813L99.1,282.6l.306.306,17.419,29.949,88.319-51.035c26.282,6.112,57.147,3.056,78.539-9.168C311.493,236.757,311.493,210.169,283.377,193.973Z" transform="translate(163.622 56.009)" fill="#255787" opacity="0.2"/>
        <g id="Grupo_1075322" data-name="Grupo 1075322">
          <g id="Grupo_1075314" data-name="Grupo 1075314" transform="translate(295.727)">
            <g id="Grupo_1075313" data-name="Grupo 1075313" transform="translate(27.81)">
              <g id="Grupo_1075312" data-name="Grupo 1075312">
                <path id="Trazado_824949" data-name="Trazado 824949" d="M141.152,176.843c18.336-10.39,47.674-10.39,66.01,0,9.168,5.2,13.752,12.224,13.752,18.947v47.368c0,7.029-4.584,13.752-13.752,18.947-18.336,10.39-47.674,10.39-66.01,0-9.168-5.2-13.752-12.224-13.752-18.947V195.79C127.4,189.067,131.984,182.038,141.152,176.843Z" transform="translate(-101.73 29.744)" fill="#255787"/>
                <rect id="Rect치ngulo_376197" data-name="Rect치ngulo 376197" width="2.139" height="14.669" transform="translate(71.205 7.029)" fill="#30404b"/>
                <g id="Grupo_1075285" data-name="Grupo 1075285" transform="translate(11.307 136.909)">
                  <path id="Trazado_824950" data-name="Trazado 824950" d="M244.429,160.3v62.037c0,8.862-5.806,18.03-17.725,24.754-23.837,13.752-62.343,13.752-86.18,0C128.606,240.368,122.8,231.2,122.8,222.337V160.3Z" transform="translate(-122.494 -125.156)" fill="#1a1a1a"/>
                  <ellipse id="Elipse_6099" data-name="Elipse 6099" cx="61.12" cy="35.144" rx="61.12" ry="35.144" fill="#4a6373"/>
                </g>
                <g id="Grupo_1075286" data-name="Grupo 1075286" transform="translate(0 19.558)">
                  <path id="Trazado_824951" data-name="Trazado 824951" d="M119,124.1V270.788c0,10.7,7.029,21.392,21.086,29.643a74.3,74.3,0,0,0,14.974,6.723,118.511,118.511,0,0,0,18.642,4.278,26.748,26.748,0,0,0,4.89.611,2.29,2.29,0,0,1,1.528.306,33.215,33.215,0,0,0,5.5.306,63.006,63.006,0,0,0,13.141-.306c1.528,0,3.362-.306,4.89-.306l7.334-.917a130.334,130.334,0,0,0,16.5-3.973,88.614,88.614,0,0,0,14.363-6.418c14.058-8.251,21.086-18.947,21.086-29.643V124.406H119Z" transform="translate(-119 -82.233)" fill="#86beed"/>
                  <path id="Trazado_824952" data-name="Trazado 824952" d="M169.063,300.432c14.058-8.251,21.086-18.947,21.086-29.643V124.1H154.7V306.849A88.615,88.615,0,0,0,169.063,300.432Z" transform="translate(-45.6 -82.233)" fill="#255787" opacity="0.3"/>
                  <path id="Trazado_824953" data-name="Trazado 824953" d="M139.2,127.4V305.26a33.215,33.215,0,0,0,5.5.306,63,63,0,0,0,13.141-.306V131.678Z" transform="translate(-77.469 -75.448)" fill="#fff"/>
                  <path id="Trazado_824954" data-name="Trazado 824954" d="M146.9,129.1V301.459l7.334-.917v-169Z" transform="translate(-61.637 -71.953)" fill="#fff"/>
                  <ellipse id="Elipse_6100" data-name="Elipse 6100" cx="72.122" cy="41.867" rx="72.122" ry="41.867" transform="translate(0.306)" fill="#d4ebff"/>
                </g>
                <g id="Grupo_1075287" data-name="Grupo 1075287" transform="translate(22.003 6.723)">
                  <path id="Trazado_824955" data-name="Trazado 824955" d="M226.743,116v15.28c0,7.64-4.89,15.28-14.669,21.086-19.558,11.613-51.341,11.613-71.205,0C131.09,146.56,126.2,138.92,126.2,131.28V116Z" transform="translate(-126.2 -86.051)" fill="#255787"/>
                  <ellipse id="Elipse_6101" data-name="Elipse 6101" cx="50.424" cy="29.949" rx="50.424" ry="29.949" fill="#dae9f7"/>
                </g>
                <g id="Grupo_1075293" data-name="Grupo 1075293" transform="translate(33.005)">
                  <g id="Grupo_1075288" data-name="Grupo 1075288" transform="translate(0 5.806)">
                    <path id="Trazado_824956" data-name="Trazado 824956" d="M129.8,113.3v11c0,5.806,3.973,11.613,11.613,15.891,15.28,8.862,40.339,8.862,55.619,0,7.64-4.278,11.613-10.085,11.613-15.891v-11Z" transform="translate(-129.8 -90.686)" fill="#255787"/>
                    <ellipse id="Elipse_6102" data-name="Elipse 6102" cx="39.423" cy="22.614" rx="39.423" ry="22.614" fill="#dae9f7"/>
                  </g>
                  <g id="Grupo_1075290" data-name="Grupo 1075290" transform="translate(5.501)">
                    <g id="Grupo_1075289" data-name="Grupo 1075289">
                      <path id="Trazado_824957" data-name="Trazado 824957" d="M131.6,110.4v4.584c0,4.89,3.362,10.085,10.085,13.752,13.141,7.64,34.839,7.64,47.979,0,6.723-3.973,10.085-8.862,10.085-13.752V110.4Z" transform="translate(-131.6 -90.842)" fill="#1a1a1a"/>
                      <ellipse id="Elipse_6103" data-name="Elipse 6103" cx="33.922" cy="19.558" rx="33.922" ry="19.558" fill="#fff"/>
                    </g>
                    <path id="Trazado_824958" data-name="Trazado 824958" d="M174.166,110.021c8.862,5.2,8.862,13.446,0,18.642s-23.226,5.2-32.394,0c-8.862-5.2-8.862-13.446,0-18.642C150.94,104.826,165.3,104.826,174.166,110.021Z" transform="translate(-124.353 -99.631)" fill="#d4ebff"/>
                  </g>
                  <g id="Grupo_1075292" data-name="Grupo 1075292" transform="translate(3.362 27.995)">
                    <g id="Grupo_1075291" data-name="Grupo 1075291">
                      <path id="Trazado_824959" data-name="Trazado 824959" d="M137.012,129.478l-4.584-2.75a3.943,3.943,0,0,1-1.528-3.362,12.368,12.368,0,0,1,5.5-9.474,3.79,3.79,0,0,1,3.973-.306l4.584,2.75Z" transform="translate(-130.9 -113.161)" fill="#1a1a1a"/>
                      <path id="Trazado_824960" data-name="Trazado 824960" d="M143.4,117.884c0-3.362-2.445-4.89-5.5-3.056a11.894,11.894,0,0,0-5.5,9.474c0,3.362,2.445,4.89,5.5,3.056A12.368,12.368,0,0,0,143.4,117.884Z" transform="translate(-127.816 -111.346)" fill="#b4c0cc"/>
                    </g>
                    <path id="Trazado_824961" data-name="Trazado 824961" d="M139.312,117.176c0-1.834-1.222-2.75-3.056-1.834a7.13,7.13,0,0,0-3.056,5.2c0,1.834,1.222,2.75,3.056,1.834A7.13,7.13,0,0,0,139.312,117.176Z" transform="translate(-126.171 -109.415)" fill="#fff"/>
                  </g>
                </g>
                <g id="Grupo_1075302" data-name="Grupo 1075302" transform="translate(114.295 149.745)">
                  <g id="Grupo_1075301" data-name="Grupo 1075301">
                    <g id="Grupo_1075296" data-name="Grupo 1075296" transform="translate(10.39 39.423)">
                      <g id="Grupo_1075294" data-name="Grupo 1075294">
                        <path id="Trazado_824962" data-name="Trazado 824962" d="M184.554,168.956,159.8,183.014a3.372,3.372,0,0,0,1.528-3.056L186.082,165.9C185.776,167.428,185.47,168.65,184.554,168.956Z" transform="translate(-159.8 -165.9)" fill="#b4c0cc"/>
                      </g>
                      <g id="Grupo_1075295" data-name="Grupo 1075295">
                        <path id="Trazado_824963" data-name="Trazado 824963" d="M184.554,168.956,159.8,183.014a3.372,3.372,0,0,0,1.528-3.056L186.082,165.9C185.776,167.428,185.47,168.65,184.554,168.956Z" transform="translate(-159.8 -165.9)" fill="#255787"/>
                      </g>
                    </g>
                    <g id="Grupo_1075297" data-name="Grupo 1075297">
                      <path id="Trazado_824964" data-name="Trazado 824964" d="M156.4,167.058,181.154,153l7.029,3.973L163.429,171.03Z" transform="translate(-156.4 -153)" fill="#f6f6f6"/>
                    </g>
                    <g id="Grupo_1075298" data-name="Grupo 1075298" transform="translate(11.918 12.224)">
                      <path id="Trazado_824965" data-name="Trazado 824965" d="M160.3,171.058,184.748,157v27.2L160.3,198.256Z" transform="translate(-160.3 -157)" fill="#d4ebff"/>
                      <path id="Trazado_824966" data-name="Trazado 824966" d="M161.9,168.257l14.974-8.557v9.474L161.9,177.73Z" transform="translate(-157.01 -151.449)" fill="#f6f6f6"/>
                    </g>
                    <g id="Grupo_1075299" data-name="Grupo 1075299" transform="translate(7.029 3.973)">
                      <path id="Trazado_824967" data-name="Trazado 824967" d="M158.7,168.358,183.454,154.3a10.339,10.339,0,0,1,4.89,8.251L163.59,176.609A10.339,10.339,0,0,0,158.7,168.358Z" transform="translate(-158.7 -154.3)" fill="#f6f6f6"/>
                    </g>
                    <g id="Grupo_1075300" data-name="Grupo 1075300" transform="translate(0 14.058)">
                      <path id="Trazado_824968" data-name="Trazado 824968" d="M168.318,197.023c0,3.056-2.139,4.278-4.89,2.75L156.4,195.8V157.6l7.029,3.973a10.339,10.339,0,0,1,4.89,8.251Z" transform="translate(-156.4 -157.6)" fill="#255787"/>
                    </g>
                  </g>
                </g>
                <g id="Grupo_1075311" data-name="Grupo 1075311" transform="translate(114.295 92.292)">
                  <g id="Grupo_1075310" data-name="Grupo 1075310">
                    <g id="Grupo_1075305" data-name="Grupo 1075305" transform="translate(10.39 39.423)">
                      <g id="Grupo_1075303" data-name="Grupo 1075303">
                        <path id="Trazado_824969" data-name="Trazado 824969" d="M184.554,150.156,159.8,164.214a3.372,3.372,0,0,0,1.528-3.056L186.082,147.1C185.776,148.628,185.47,149.85,184.554,150.156Z" transform="translate(-159.8 -147.1)" fill="#b4c0cc"/>
                      </g>
                      <g id="Grupo_1075304" data-name="Grupo 1075304">
                        <path id="Trazado_824970" data-name="Trazado 824970" d="M184.554,150.156,159.8,164.214a3.372,3.372,0,0,0,1.528-3.056L186.082,147.1C185.776,148.628,185.47,149.85,184.554,150.156Z" transform="translate(-159.8 -147.1)" fill="#255787"/>
                      </g>
                    </g>
                    <g id="Grupo_1075306" data-name="Grupo 1075306">
                      <path id="Trazado_824971" data-name="Trazado 824971" d="M156.4,148.258,181.154,134.2l7.029,3.973L163.429,152.23Z" transform="translate(-156.4 -134.2)" fill="#f6f6f6"/>
                    </g>
                    <g id="Grupo_1075307" data-name="Grupo 1075307" transform="translate(11.918 12.224)">
                      <path id="Trazado_824972" data-name="Trazado 824972" d="M160.3,152.258,184.748,138.2v27.2L160.3,179.456Z" transform="translate(-160.3 -138.2)" fill="#d4ebff"/>
                      <path id="Trazado_824973" data-name="Trazado 824973" d="M161.9,149.457l14.974-8.557v9.474L161.9,158.93Z" transform="translate(-157.01 -132.649)" fill="#f6f6f6"/>
                    </g>
                    <g id="Grupo_1075308" data-name="Grupo 1075308" transform="translate(7.029 3.973)">
                      <path id="Trazado_824974" data-name="Trazado 824974" d="M158.7,149.558,183.454,135.5a10.339,10.339,0,0,1,4.89,8.251L163.59,157.809A10.339,10.339,0,0,0,158.7,149.558Z" transform="translate(-158.7 -135.5)" fill="#f6f6f6"/>
                    </g>
                    <g id="Grupo_1075309" data-name="Grupo 1075309" transform="translate(0 14.058)">
                      <path id="Trazado_824975" data-name="Trazado 824975" d="M168.318,178.223c0,3.056-2.139,4.278-4.89,2.75L156.4,177V138.8l7.029,3.973a10.339,10.339,0,0,1,4.89,8.251Z" transform="translate(-156.4 -138.8)" fill="#255787"/>
                    </g>
                  </g>
                </g>
              </g>
            </g>
            <path id="Trazado_824976" data-name="Trazado 824976" d="M168.869,175.767c0,5.5-1.834,9.168-4.89,11l-42.173,24.448L116,201.132h0L168.869,172.1Q168.869,173.934,168.869,175.767Z" transform="translate(-97.358 36.014)" fill="#255787"/>
            <path id="Trazado_824977" data-name="Trazado 824977" d="M152.379,164.078c3.056-1.834,7.334-1.528,11.918,1.222l-51.035,28.727-3.362-5.5Z" transform="translate(-109.9 17.144)" fill="#dae9f7"/>
            <path id="Trazado_824978" data-name="Trazado 824978" d="M162.341,163.7a21.692,21.692,0,0,1,4.278,3.056h0L113.75,197.01,111,192.426Z" transform="translate(-107.638 18.744)" fill="#fff"/>
            <path id="Trazado_824979" data-name="Trazado 824979" d="M112.4,196.06l53.786-30.56c.611.917,1.528,1.528,2.139,2.445.306.306.611.917.917,1.222a4.925,4.925,0,0,1,1.222,2.139c.306.306.306.611.611.917l-54.4,31.171Z" transform="translate(-104.76 22.445)" fill="#fff"/>
            <path id="Trazado_824980" data-name="Trazado 824980" d="M167.991,167.6a37.987,37.987,0,0,1,4.89,12.224,2.31,2.31,0,0,0,.306,1.222l-52.869,29.032L113.9,198.771Z" transform="translate(-101.676 26.762)" fill="#dae9f7"/>
            <path id="Trazado_824981" data-name="Trazado 824981" d="M111.9,195.054,164.769,164.8a14.118,14.118,0,0,1,2.139,2.139L113.122,197.5Z" transform="translate(-105.788 21.006)" fill="#dae9f7"/>
          </g>
          <path id="Trazado_824982" data-name="Trazado 824982" d="M108.4,183.052c0-10.7,7.64-15.28,17.114-9.779s17.114,18.642,17.114,29.338-7.64,15.28-17.114,9.779C116.04,207.195,108.4,194.054,108.4,183.052Z" transform="translate(182.743 33.619)" fill="#1a1a1a"/>
          <g id="Grupo_1075318" data-name="Grupo 1075318" transform="translate(93.113 280.847)">
            <g id="Grupo_1075317" data-name="Grupo 1075317">
              <path id="Trazado_824983" data-name="Trazado 824983" d="M66.562,324.845v10.7c0,3.667-1.222,6.418-3.362,7.64L264.9,226.136c2.139-1.222,3.362-3.667,3.362-7.64V207.8Z" transform="translate(-3.302 -171.433)" fill="#754c24"/>
              <g id="Grupo_1075315" data-name="Grupo 1075315">
                <path id="Trazado_824984" data-name="Trazado 824984" d="M43.6,312.945,245.3,195.9l63.259,36.672-201.7,116.74Z" transform="translate(-43.6 -195.9)" fill="#fbb03b"/>
                <path id="Trazado_824985" data-name="Trazado 824985" d="M46.9,309.039,238.512,197.8l53.175,30.866L100.075,339.6Z" transform="translate(-36.815 -191.994)" fill="#754c24"/>
              </g>
              <g id="Grupo_1075316" data-name="Grupo 1075316" transform="translate(0.306 117.045)">
                <path id="Trazado_824986" data-name="Trazado 824986" d="M106.654,270.566v10.7c0,7.334-5.2,10.39-11.613,6.723l-39.728-22.92C48.9,261.4,43.7,252.23,43.7,244.9V234.2Z" transform="translate(-43.7 -234.2)" fill="#c4720e"/>
              </g>
            </g>
          </g>
          <g id="Grupo_1075320" data-name="Grupo 1075320" transform="translate(285.336 205.457)">
            <g id="Grupo_1075319" data-name="Grupo 1075319" clip-path="url(#clip-path-2)">
              <path id="Trazado_824987" data-name="Trazado 824987" d="M139.155,175.7s-15.28,9.168-19.864,22-7.029,61.426-7.029,61.426L108.9,280.216l7.334-2.139,13.141-14.058,3.667-58.064,14.058-9.779Z" transform="translate(-101.566 -162.041)" fill="#452b11"/>
            </g>
          </g>
          <path id="Trazado_824989" data-name="Trazado 824989" d="M245.023,207.312,230.354,201.2l-9.779,4.89-9.168,1.222-5.806,7.946-11.918,5.2-11.307,3.667-18.03,18.031-5.2,10.39-11.918-.306-16.2,8.557-10.7,11.918-12.224,5.5-15.28-.917-10.7,11.613-10.39,10.085-13.141,3.362L52.8,312.439l35.144,20.17,184.583-106.96-16.808-7.029-.917-8.251Z" transform="translate(68.429 95.844)" fill="#452b11"/>
          <g id="Grupo_1075321" data-name="Grupo 1075321" transform="translate(0 212.584)">
            <path id="Trazado_824990" data-name="Trazado 824990" d="M86.809,234.406l-1.528,7.64c-19.253-1.222-36.367-7.946-48.9-17.725A71.876,71.876,0,0,1,26.3,215.153L31.5,195.9C42.191,216.681,63.583,226.766,86.809,234.406Z" transform="translate(13.944 -127.636)" fill="#d98080" opacity="0.25"/>
            <path id="Trazado_824991" data-name="Trazado 824991" d="M67.548,240.55,67.242,259.8l.917-28.421C53.8,230.159,47.378,215.49,43.1,205.1l31.783,11.918C75.8,225.27,67.548,240.55,67.548,240.55Z" transform="translate(48.485 -108.721)" fill="#d98080" opacity="0.25"/>
            <path id="Trazado_824992" data-name="Trazado 824992" d="M43.1,211.072l37.283-2.75s17.419-8.557,31.782-5.2,4.89,18.03,4.89,18.03L53.8,219.018Z" transform="translate(48.485 -114.388)" fill="#d98080" opacity="0.25"/>
            <path id="Trazado_824993" data-name="Trazado 824993" d="M59.828,208.226a6.111,6.111,0,0,0,1.222,7.029c1.834,1.834,4.89,2.139,7.64,3.056a17.933,17.933,0,0,1,7.64,4.89c3.667,3.362,9.474.306,9.168-4.584v-1.222a17.057,17.057,0,0,0-3.056-10.085,13.713,13.713,0,0,0-8.251-4.89C69.913,202.114,61.661,204.253,59.828,208.226Z" transform="translate(81.57 -114.292)" fill="#fff" opacity="0.3"/>
          </g>
        </g>
      </g>
    </g>
    <g id="_19" data-name="19" transform="translate(237.166 1146.642)">
      <path id="Trazado_824994" data-name="Trazado 824994" d="M176.1,146.7c.2-.3,6.3-8.4,6.3-8.4l8-21.4V103.7l-14.3,2-3.8,12.9-.6,7.4-.7,4.2-7.5,9.6Z" fill="#ffb294"/>
      <path id="Trazado_824995" data-name="Trazado 824995" d="M142.3,116.6l21.8-47.2a2.106,2.106,0,0,1,2.5-1.1l33.2,11.4a1.918,1.918,0,0,1,1.1,2.5l-23,48.1a2.267,2.267,0,0,1-2.8,1.1l-31.7-12.3A1.751,1.751,0,0,1,142.3,116.6Z" fill="#4d4d4d"/>
      <path id="Trazado_824996" data-name="Trazado 824996" d="M141,115.1l21.8-47.2a2.106,2.106,0,0,1,2.5-1.1l33.2,11.4a1.918,1.918,0,0,1,1.1,2.5l-23,48.1a2.267,2.267,0,0,1-2.8,1.1l-31.7-12.3A1.883,1.883,0,0,1,141,115.1Z"/>
      <path id="Trazado_824997" data-name="Trazado 824997" d="M143.4,115.7l21.5-46.5,32.3,11.1-22.7,47.4Z" fill="#6da5db"/>
      <path id="Trazado_824998" data-name="Trazado 824998" d="M183.6,118.8c-.3-.2-2.1-6.6-2.1-6.6l1.4-8.5c.1-2.7-2.5-3.1-3.6-.6l-5.7,11-1.7,8.6,1,4.9-5.3,6.9,10.9,2Z" fill="#ffb294"/>
      <g id="Grupo_1075324" data-name="Grupo 1075324">
        <path id="Trazado_824999" data-name="Trazado 824999" d="M169.4,120.3l-18.8-6.5,2.5-5.6,18.9,6.5Z" fill="#fff"/>
        <path id="Trazado_825000" data-name="Trazado 825000" d="M175,109.3l-18.8-6.6,2.5-5.6,18.9,6.5Z" fill="#ff1f30"/>
        <path id="Trazado_825001" data-name="Trazado 825001" d="M180.6,98.2l-18.9-6.5,2.6-5.7,18.9,6.5Z" fill="#fff"/>
        <path id="Trazado_825002" data-name="Trazado 825002" d="M186.2,87.1l-18.9-6.5,2.6-5.6,18.8,6.5Z" fill="#fff"/>
      </g>
      <path id="Trazado_825003" data-name="Trazado 825003" d="M120.9,112.7l9.5-3.3L140.8,98l8.8-5,5.9-1.6a2.854,2.854,0,0,1,1.3,0l1.3.4,1.5-.2a2.561,2.561,0,0,1,2.6,1.2l1.8.6a1.288,1.288,0,0,1-.2,2.3l-2.1.3-3.5,1.6-5.3,4-2.2,6.5s.9,1.2,1.2,1.2a24.463,24.463,0,0,0,6.4-.6l2-.7c2,.2,3.2,1.5,1.6,2.6l-2.6,1.6-10.6,4.7-11.4,1.7-11.1,4.9Z" fill="#ffb294"/>
      <g id="Grupo_1075327" data-name="Grupo 1075327">
        <path id="Trazado_825004" data-name="Trazado 825004" d="M129.3,106.4c-14.9,1.3-41.9,3-41.9,3-6.6-8.2-10-10.5-13.9-15.4v43.5c16.4,4.3,58.7-11.1,58.7-11.1C140.2,121.9,136.5,106.6,129.3,106.4Z" fill="#00589d"/>
        <g id="Grupo_1075326" data-name="Grupo 1075326">
          <g id="Grupo_1075325" data-name="Grupo 1075325">
            <path id="Trazado_825005" data-name="Trazado 825005" d="M76.5,382.7c11.7,2.4,13.6,11.6,9.1,19.5L72.4,420.9c-5,8.6-11.6,12.6-20.3,11.2-7.8-3.2-8.9-8.4-6.7-14.4L47.2,402l6.5-21.2Z"/>
            <path id="Trazado_825006" data-name="Trazado 825006" d="M44.4,406.5c3.7,12.4,30.5,8.4,32.1-8.2l2-43.6,1.4-19.4,13.3-64.7,2.9-12-9.4-57.7-46-4.6s-2.6,6.4-1.3,24.9c2,28.7,5,95.7,5,98.1C37.6,341,42.9,378.1,44.4,406.5Z" fill="#00589d"/>
            <path id="Trazado_825007" data-name="Trazado 825007" d="M75.9,426.8c-4.5,7.5-2.4,20.1.2,25.8,7.8,2.9,14.3,3.5,18.8.4,14.7-.9,22.9,1.1,30.5-1.1,8.1-2.3,13.5-4.7,17.7-12.8,1.6-3.6-.6-10.3-7.2-11.3-12.2-.5-23.2-1.5-29.2-4.5L96.3,404.2l-19,14.9Z"/>
            <path id="Trazado_825008" data-name="Trazado 825008" d="M116.1,329.9c-5.7,35.8-6.5,54.5-6.6,78.4v13.8c-2.2,12.5-33.3,19-35.6,6.7-.7-31-5.2-67,5.5-100-2.4-22.9-3.3-61.7-4.5-71-21.2-2.6-37.3-19.5-36.7-46.5v-1.8c.3-6.8,30.4-9.2,31.4-15.9a.846.846,0,0,0,0-.7l18.8,2.2,29.7,3.5c.2,2.6.3,5.5.5,8.7C119.9,235.2,119.8,302.1,116.1,329.9Z" fill="#0082ca"/>
          </g>
          <path id="Trazado_825009" data-name="Trazado 825009" d="M90,99.9l4-28L66.5,53.4,60.6,83.3Z" fill="#ffb294"/>
          <path id="Trazado_825010" data-name="Trazado 825010" d="M118.6,207.2v.4c0,7.4-8.7,11.3-15,14-21.4,9.7-48.1,6.4-65.4-10.4v-.3c-.1-3.4-1.2-31.3-2.7-39.1-1.6-8.2-7.4-52.6-7.4-52.6-2-28.5,7.4-42.9,24.4-41.5A82.269,82.269,0,0,1,89.2,89.6s21.5,10.5,25.9,19.5c2.1,4.4,0,4.9,1.4,11.6,4.6,21.5,1.6,54.6,1.4,72.3C117.5,193.9,118.2,199.8,118.6,207.2Z" fill="#0082ca"/>
          <path id="Trazado_825011" data-name="Trazado 825011" d="M88.7,82.5l6.4-2.8a16.435,16.435,0,0,0,9.2-10.4c2.4-8.4,5.1-22,.6-31.9C98,22.1,88.5,18.7,73.5,24.2c-15,5.4-20.6,16.8-16,33.4s8.8,14.3,8.8,14.3Z" fill="#ffb294"/>
          <path id="Trazado_825012" data-name="Trazado 825012" d="M106.5,42.5l-7,9.7-1.1,7.1L92.8,64l-2.1,6.3c-.9,4.3-2.8,8-7.1,7.8a35.241,35.241,0,0,1-19.8-6.9s-6.7-4.1-7.9-20.4C54.8,35.5,61.7,28.2,65.7,26c4.1-2.3,25.7-12.7,37.2-2.7C115.7,34.2,106.5,42.5,106.5,42.5Z"/>
          <path id="Trazado_825013" data-name="Trazado 825013" d="M116.1,329.9c-5.7,35.8-6.5,54.5-6.6,78.4-5.1-12-4.6-65.1-2.8-93.8.2-4,2.7-48.5-3.2-92.8-6.1-44.8-11-29.3-14.2-89l27.1-12.1c4.6,21.5,1.6,54.6,1.4,72.3-.4,1,.4,6.9.7,14.3v.4C119.8,235.6,119.8,302.2,116.1,329.9Z" fill="#005c8f" opacity="0.5"/>
          <path id="Trazado_825014" data-name="Trazado 825014" d="M92.1,35.2a70.691,70.691,0,0,0-22.1-8,4.348,4.348,0,0,1,.7-.4c12.6-7.3,29-14.9,45.5-5.3,18.1,10.5,3.4,19-9.2,26.3a5.9,5.9,0,0,1-.8.4C103.8,43.7,99,39.1,92.1,35.2Z" fill="#00589d"/>
          <path id="Trazado_825015" data-name="Trazado 825015" d="M84,59.4a54.668,54.668,0,0,0,23.1-11.8S112,24.1,93.7,19c-20.1-5.6-30.8,2.5-35.4,11.1a31.959,31.959,0,0,0-3.3,18C57.3,58.1,70.4,62.5,84,59.4Z" fill="#0082ca"/>
          <path id="Trazado_825016" data-name="Trazado 825016" d="M91.9,54.7A2.689,2.689,0,0,0,90.1,56a4.793,4.793,0,0,0-.7,2,14.8,14.8,0,0,0,.9,7.8,6.7,6.7,0,0,0,1.1,1.8,2.491,2.491,0,0,0,3.9-.5,4.674,4.674,0,0,0,.6-1.9C96.4,62.8,97.4,53.7,91.9,54.7Z" fill="#ffb294"/>
        </g>
        <path id="Trazado_825017" data-name="Trazado 825017" d="M119.3,182.1c-13.3-5.9-29.7-46.7-29.7-46.7-12.3-35.5,16.7-43.7,26.6-24.2,6.4,10.7,12.7,26.2,17.3,38.6,0,0,19.5-9.2,33.2-17.5,8.1-2.4,13,15.9,8.1,20.2C174.8,152.6,133.9,188.6,119.3,182.1Z" fill="#0082ca"/>
      </g>
    </g>
  </g>
</svg>
