<svg xmlns="http://www.w3.org/2000/svg" xmlns:xlink="http://www.w3.org/1999/xlink" width="400" height="235" viewBox="0 0 400 235">
  <defs>
    <clipPath id="clip-path">
      <rect id="Rectángulo_376139" data-name="Rectángulo 376139" width="400" height="235" transform="translate(180 9130)" fill="#fff" stroke="#707070" stroke-width="1"/>
    </clipPath>
    <linearGradient id="linear-gradient" x1="0.9" y1="1.064" x2="0.274" y2="-0.18" gradientUnits="objectBoundingBox">
      <stop offset="0" stop-color="#c6c6c6"/>
      <stop offset="1" stop-color="#fff"/>
    </linearGradient>
  </defs>
  <g id="Enmascarar_grupo_204" data-name="Enmascarar grupo 204" transform="translate(-180 -9130)" clip-path="url(#clip-path)">
    <g id="Grupo_1075188" data-name="Grupo 1075188" transform="translate(0 16.401)">
      <g id="_22" data-name="22" transform="translate(176.496 9074.771)">
        <ellipse id="Elipse_6053" data-name="Elipse 6053" cx="127.963" cy="14.108" rx="127.963" ry="14.108" transform="translate(23.091 240.195)" fill="#e8c897"/>
        <g id="Grupo_1072419" data-name="Grupo 1072419" transform="translate(0 0)">
          <circle id="Elipse_6054" data-name="Elipse 6054" cx="106.811" cy="106.811" r="106.811" transform="translate(0 151.051) rotate(-45)" fill="#a7ebf9"/>
          <path id="Trazado_821914" data-name="Trazado 821914" d="M185.386,61.2a106.789,106.789,0,0,0-94.4,56.816c14.754-3.287,30.424-3.783,45.491-2.594,29.644,2.339,58.657,10.307,88.336,12.139,18.871,1.165,38.676-.571,56.185-7.2A106.8,106.8,0,0,0,185.386,61.2Z" transform="translate(-34.332 -16.956)" fill="#80d6e8"/>
        </g>
        <g id="Grupo_1072420" data-name="Grupo 1072420" transform="translate(40.867 51.421)">
          <path id="Trazado_821915" data-name="Trazado 821915" d="M64.4,137.843h74.48c-1.03-2.691-3.98-4.566-6.833-4.969s-5.772-.038-8.627-.424c-4.8-.651-9.025-3.346-13.352-5.521s-9.324-3.9-13.945-2.453c-3.948,1.233-6.86,4.54-10.45,6.593C79.447,134.625,70.386,133.907,64.4,137.843Z" transform="translate(-64.396 -93.873)" fill="#fff"/>
          <path id="Trazado_821916" data-name="Trazado 821916" d="M175.374,222.161H112.856c-1.2-1.182-.629-3.4.731-4.391a9.037,9.037,0,0,1,4.825-1.235A8.428,8.428,0,0,0,123.2,215.2c1.963-1.56,2.284-4.594,4.293-6.093,1.738-1.3,4.169-1.026,6.256-.443s4.211,1.43,6.352,1.092c3.136-.5,5.323-3.341,8.19-4.7a9.475,9.475,0,0,1,11.264,2.748c1.924,2.539,2.55,6.086,5.11,7.984,1.676,1.243,3.849,1.513,5.876,2.01A8.018,8.018,0,0,1,175.374,222.161Z" transform="translate(-83.821 -126.494)" fill="#fff"/>
          <path id="Trazado_821917" data-name="Trazado 821917" d="M342.274,88.878H261.391c1.107-3.083,5.62-4.065,8.9-4.07s6.771.545,9.657-1.006c1.579-.849,2.844-2.277,4.547-2.836,2.6-.854,5.423.547,8.151.286,4.014-.385,6.748-4.115,10.2-6.192a13.734,13.734,0,0,1,17.327,3.251c1.386,1.789,2.35,3.971,4.172,5.314,2.49,1.836,5.868,1.631,8.961,1.641S340.648,86.246,342.274,88.878Z" transform="translate(-144.442 -73.291)" fill="#fff"/>
          <path id="Trazado_821918" data-name="Trazado 821918" d="M379.414,203.651H309.2c.458-2.538,4.514-4.214,7.093-4.242s5.42.367,7.506-1.148c1.815-1.319,2.541-3.769,4.368-5.072,3.215-2.293,7.974.04,11.533-1.672,2.945-1.417,4.066-5.091,6.663-7.075a8.177,8.177,0,0,1,8.555-.528,10.864,10.864,0,0,1,5.274,7.02c.5,1.973.65,4.28,2.257,5.527,1.7,1.322,4.124.759,6.28.763C372.75,197.231,377.618,200.055,379.414,203.651Z" transform="translate(-163.869 -117.852)" fill="#fff"/>
        </g>
        <g id="Grupo_1072426" data-name="Grupo 1072426" transform="translate(22.288 106.956)">
          <g id="Grupo_1072421" data-name="Grupo 1072421" transform="translate(138.657)">
            <path id="Trazado_821919" data-name="Trazado 821919" d="M267.2,222.206a8.948,8.948,0,0,1-.492-3.742,3.875,3.875,0,0,1,2.005-3.046c1.508-.71,3.351-.058,4.929-.6,2.108-.718,2.989-3.3,2.832-5.519s-1.041-4.34-1.218-6.559.644-4.805,2.73-5.586c1.43-.536,3.051-.076,4.541-.41,2.778-.623,4.2-3.653,5.131-6.342a142.342,142.342,0,0,0,4.464-15.7,15.321,15.321,0,0,1,1.948-5.493c1.111-1.609,3.133-2.769,5.018-2.246,1.811.5,2.917,2.334,3.5,4.119,2.341,7.158-.836,14.783-2.238,22.183-.328,1.734-.477,3.76.749,5.028,1.87,1.936,5.275.6,7.707,1.757s3.066,4.524,2.177,7.079-2.85,4.561-4.51,6.7c-1.406,1.81-2.593,4.512-1.069,6.223.965,1.083,2.629,1.225,3.756,2.14a4.341,4.341,0,0,1,1.405,3.66,9.674,9.674,0,0,1-1.279,3.836,23.3,23.3,0,0,1-15.846,12.056C281.136,244.032,270.564,233.224,267.2,222.206Z" transform="translate(-266.661 -166.837)" fill="#2da185"/>
            <path id="Trazado_821920" data-name="Trazado 821920" d="M306.561,234.288a.336.336,0,0,0-.475.012c-3.01,3.175-10.961,7.46-13.461,8.766,1.13-4.994,2.266-10.665,3.346-16.437,1.311-1.18,9.537-8.574,11.9-10.479a.336.336,0,0,0-.421-.524c-2.121,1.708-8.9,7.779-11.279,9.917,3.485-18.794,6.329-38.264,6.372-38.557a.336.336,0,0,0-.666-.1c-.043.292-2.859,19.568-6.317,38.258a115.158,115.158,0,0,0-5.846-14.916.336.336,0,1,0-.607.289c.048.1,4.819,10.174,6.127,16.1a.312.312,0,0,0,.037.092c-1.056,5.639-2.166,11.174-3.27,16.065-2.029-4.5-10.618-13.6-11.009-14.01a.336.336,0,1,0-.489.462c.1.107,10.153,10.751,11.182,14.624a.321.321,0,0,0,.049.093c-.585,2.54-1.168,4.888-1.739,6.959a.336.336,0,0,0,.235.414l.017,0a.336.336,0,0,0,.4-.239c.585-2.124,1.183-4.537,1.784-7.151,1.693-.866,10.765-5.6,14.145-9.163A.338.338,0,0,0,306.561,234.288Z" transform="translate(-272.249 -174.868)" fill="#51d4b3"/>
          </g>
          <g id="Grupo_1072422" data-name="Grupo 1072422" transform="translate(28.487 11.06)">
            <path id="Trazado_821921" data-name="Trazado 821921" d="M84.825,254.574c-3-4.391-3.849-10.688-.625-14.919,1.038-1.362,2.458-2.488,3.058-4.091,1-2.671-.616-5.573-2.365-7.825s-3.806-4.619-3.807-7.471c0-3.759,3.508-6.484,5.014-9.928,2.549-5.826-.958-12.562-.14-18.868a8.071,8.071,0,0,1,1.8-4.407,4.451,4.451,0,0,1,4.349-1.468c1.93.541,3.039,2.585,3.488,4.538.7,3.027.33,6.2.751,9.274s1.969,6.358,4.914,7.343c1.561.522,3.291.318,4.861.815a7.165,7.165,0,0,1,4.467,5.123,13.92,13.92,0,0,1-.305,7.011,18.9,18.9,0,0,0-1.041,5.221c.046,1.781.986,3.7,2.69,4.215,1.547.47,3.247-.316,4.819.064,2.487.6,3.4,3.623,3.7,6.163a59.644,59.644,0,0,1,.031,13.778c-.434,3.8-1.322,7.744-3.832,10.633C107.626,270.166,91.441,264.247,84.825,254.574Z" transform="translate(-81.086 -185.468)" fill="#2da185"/>
            <path id="Trazado_821922" data-name="Trazado 821922" d="M115.209,253.252a99.212,99.212,0,0,0-6.853,15.23q-1.872-6.295-3.57-12.64-1.921-7.187-3.6-14.434a110.3,110.3,0,0,1,6.13-13.736c.249-.47-.464-.888-.714-.417a111.771,111.771,0,0,0-5.753,12.7c-.689-2.993-1.36-5.99-1.991-8.995q-1.478-7.043-2.741-14.129c-.093-.523-.891-.3-.8.22q2.118,11.872,4.844,23.624a66.7,66.7,0,0,1-9.623-8.307c-.369-.385-.953.2-.585.585a67.69,67.69,0,0,0,10.371,8.849.4.4,0,0,0,.058.025.376.376,0,0,0,.05.042c.018.079.036.159.054.237q2.924,12.455,6.521,24.739c.224.765.462,1.526.69,2.29a55.33,55.33,0,0,1-14.619-9.439c-.395-.355-.981.228-.585.585a56.006,56.006,0,0,0,15.379,9.837.425.425,0,0,0,.129.027c1.051,3.494,2.13,6.98,3.261,10.45.164.5.963.288.8-.22q-1.713-5.256-3.3-10.554a97.986,97.986,0,0,1,7.161-16.148C116.182,253.2,115.468,252.787,115.209,253.252Z" transform="translate(-84.641 -198.089)" fill="#51d4b3"/>
          </g>
          <g id="Grupo_1072423" data-name="Grupo 1072423" transform="translate(0 48.545)">
            <path id="Trazado_821923" data-name="Trazado 821923" d="M61.957,336.513c-3.707-2.2-6.266-6.983-4.506-10.918.567-1.268,1.528-2.353,1.926-3.684.844-2.812-1.106-5.772-3.525-7.437s-5.316-2.508-7.8-4.076-4.639-4.3-4.138-7.194c.549-3.164,4.043-5.327,4.2-8.534.284-5.692-9.543-7.673-9.49-13.372.021-2.257,1.7-4.15,2.233-6.343.831-3.416-1.205-6.825-3.308-9.641s-4.482-5.823-4.453-9.338a7.456,7.456,0,0,1,12.968-4.959c3.068,3.368,3.127,9.481,7.374,11.131,3.092,1.2,6.79-.838,9.821.509,2.249,1,3.37,3.574,3.731,6.009s.176,4.95.791,7.334,2.356,4.747,4.806,5c1.956.2,3.79-.975,5.747-1.171,4.024-.4,7.351,3.481,8.22,7.431s.071,8.054.111,12.1c.031,3.143,1.111,6.911,4.153,7.7,1.129.294,2.33.1,3.483.281,2.929.466,4.934,3.241,5.982,6.016a20.855,20.855,0,0,1-3.894,20.838,21.6,21.6,0,0,1-18.1,6.7C73.331,340.389,66.179,339.017,61.957,336.513Z" transform="translate(-33.101 -248.609)" fill="#51d4b3"/>
            <path id="Trazado_821924" data-name="Trazado 821924" d="M102.066,347.8q-3.831-4.626-7.531-9.359a.388.388,0,0,0,.077-.224,38.194,38.194,0,0,1,3.9-16.193c.234-.476-.479-.9-.714-.417a39.162,39.162,0,0,0-3.979,15.917q-7.465-9.579-14.4-19.554c-.608-.874-1.208-1.754-1.81-2.633a.391.391,0,0,0,.037-.087,92.2,92.2,0,0,1,6.979-21.193c.226-.479-.487-.9-.714-.417a93.086,93.086,0,0,0-6.93,20.782q-6.834-10.038-13.112-20.437a.429.429,0,0,0,.038-.157,69.915,69.915,0,0,1,2.68-16.719.414.414,0,0,0-.8-.22,70.842,70.842,0,0,0-2.654,15.871q-1.894-3.16-3.741-6.346-5.239-9.076-10.046-18.392c-.244-.473-.958-.055-.714.417q6.451,12.5,13.679,24.568a57.857,57.857,0,0,0-11.926-3.539c-.52-.094-.743.7-.22.8A57.093,57.093,0,0,1,62.9,294.151a.439.439,0,0,0,.112.025q2.088,3.463,4.235,6.891,4.364,6.949,8.988,13.73L57.24,312.112c-.521-.074-.746.723-.22.8l19.837,2.8q5.609,8.2,11.576,16.142,2.273,3.024,4.6,6l-23.121-1c-.532-.023-.531.8,0,.827l23.7,1.022a.386.386,0,0,0,.077-.012q3.831,4.9,7.79,9.689C101.82,348.8,102.4,348.211,102.066,347.8Z" transform="translate(-39.389 -256.414)" fill="#b8fdd1"/>
          </g>
          <g id="Grupo_1072424" data-name="Grupo 1072424" transform="translate(189.261 11.06)">
            <path id="Trazado_821925" data-name="Trazado 821925" d="M387.945,254.574c3-4.391,3.849-10.688.625-14.919-1.037-1.362-2.458-2.488-3.058-4.091-1-2.671.616-5.573,2.365-7.825s3.806-4.619,3.807-7.471c0-3.759-3.508-6.484-5.014-9.928-2.549-5.826.958-12.562.14-18.868a8.071,8.071,0,0,0-1.8-4.407,4.451,4.451,0,0,0-4.349-1.468c-1.93.541-3.04,2.585-3.488,4.538-.7,3.027-.33,6.2-.752,9.274s-1.969,6.358-4.914,7.343c-1.561.522-3.291.318-4.861.815a7.166,7.166,0,0,0-4.467,5.123,13.919,13.919,0,0,0,.305,7.011,18.9,18.9,0,0,1,1.041,5.221c-.046,1.781-.986,3.7-2.69,4.215-1.547.47-3.247-.316-4.819.064-2.487.6-3.4,3.623-3.7,6.163a59.611,59.611,0,0,0-.031,13.778c.434,3.8,1.322,7.744,3.832,10.633C365.144,270.166,381.329,264.247,387.945,254.574Z" transform="translate(-351.9 -185.468)" fill="#51d4b3"/>
            <path id="Trazado_821926" data-name="Trazado 821926" d="M366.9,253.252a99.144,99.144,0,0,1,6.853,15.23q1.872-6.295,3.57-12.64,1.92-7.187,3.6-14.434a110.3,110.3,0,0,0-6.13-13.736c-.249-.47.464-.888.714-.417a111.776,111.776,0,0,1,5.753,12.7c.689-2.993,1.36-5.99,1.991-8.995q1.478-7.043,2.741-14.129c.093-.523.89-.3.8.22q-2.118,11.872-4.844,23.624a66.7,66.7,0,0,0,9.623-8.307c.369-.385.953.2.585.585a67.691,67.691,0,0,1-10.371,8.849.408.408,0,0,1-.058.025.377.377,0,0,1-.05.042c-.018.079-.036.159-.054.237q-2.924,12.455-6.521,24.739c-.224.765-.462,1.526-.689,2.29a55.339,55.339,0,0,0,14.619-9.439c.395-.355.981.228.585.585a56,56,0,0,1-15.379,9.837.425.425,0,0,1-.129.027c-1.051,3.494-2.13,6.98-3.261,10.45-.164.5-.963.288-.8-.22q1.713-5.256,3.3-10.554a97.98,97.98,0,0,0-7.161-16.148C365.925,253.2,366.639,252.787,366.9,253.252Z" transform="translate(-357.682 -198.089)" fill="#b8fdd1"/>
          </g>
          <g id="Grupo_1072425" data-name="Grupo 1072425" transform="translate(189.083 48.545)">
            <path id="Trazado_821927" data-name="Trazado 821927" d="M391.193,336.513c3.707-2.2,6.266-6.983,4.506-10.918-.567-1.268-1.527-2.353-1.926-3.684-.844-2.812,1.106-5.772,3.525-7.437s5.316-2.508,7.8-4.076,4.639-4.3,4.138-7.194c-.549-3.164-4.044-5.327-4.2-8.534-.283-5.692,9.543-7.673,9.49-13.372-.021-2.257-1.7-4.15-2.232-6.343-.831-3.416,1.205-6.825,3.309-9.641s4.482-5.823,4.453-9.338a7.456,7.456,0,0,0-12.968-4.959c-3.068,3.368-3.127,9.481-7.374,11.131-3.092,1.2-6.79-.838-9.821.509-2.249,1-3.37,3.574-3.731,6.009s-.176,4.95-.791,7.334-2.356,4.747-4.806,5c-1.956.2-3.79-.975-5.747-1.171-4.025-.4-7.351,3.481-8.22,7.431s-.071,8.054-.111,12.1c-.031,3.143-1.111,6.911-4.153,7.7-1.129.294-2.33.1-3.483.281-2.929.466-4.934,3.241-5.982,6.016a20.855,20.855,0,0,0,3.894,20.838,21.6,21.6,0,0,0,18.1,6.7C379.82,340.389,386.971,339.017,391.193,336.513Z" transform="translate(-351.601 -248.609)" fill="#2da185"/>
            <path id="Trazado_821928" data-name="Trazado 821928" d="M361.254,347.8q3.831-4.626,7.531-9.359a.389.389,0,0,1-.077-.224,38.192,38.192,0,0,0-3.9-16.193c-.234-.476.479-.9.714-.417a39.162,39.162,0,0,1,3.979,15.917q7.465-9.579,14.4-19.554c.608-.874,1.208-1.754,1.809-2.633a.367.367,0,0,1-.037-.087,92.2,92.2,0,0,0-6.979-21.193c-.226-.479.487-.9.714-.417a93.087,93.087,0,0,1,6.93,20.782q6.833-10.038,13.112-20.437a.429.429,0,0,1-.038-.157,69.912,69.912,0,0,0-2.68-16.719.414.414,0,0,1,.8-.22,70.841,70.841,0,0,1,2.654,15.871q1.894-3.16,3.741-6.346,5.239-9.076,10.046-18.392c.244-.473.958-.055.714.417q-6.451,12.5-13.679,24.568a57.857,57.857,0,0,1,11.926-3.539c.52-.094.743.7.22.8a57.092,57.092,0,0,0-12.739,3.881.434.434,0,0,1-.112.025q-2.088,3.463-4.235,6.891-4.364,6.949-8.988,13.73l18.993-2.685c.521-.074.746.723.22.8l-19.837,2.8q-5.609,8.2-11.576,16.142-2.273,3.024-4.6,6l23.122-1c.532-.023.531.8,0,.827l-23.7,1.022a.386.386,0,0,1-.077-.012q-3.831,4.9-7.791,9.689C361.5,348.8,360.917,348.211,361.254,347.8Z" transform="translate(-355.483 -256.414)" fill="#51d4b3"/>
          </g>
        </g>
        <g id="Grupo_1072430" data-name="Grupo 1072430" transform="translate(54.368 109.9)">
          <g id="Grupo_1072427" data-name="Grupo 1072427" transform="translate(21.291)">
            <path id="Trazado_821929" data-name="Trazado 821929" d="M140.766,283.02q-1.509-55.542-4.148-111.046a63.072,63.072,0,0,0-9.468,0Q124.51,227.474,123,283.02C128.709,284.119,134.978,283.549,140.766,283.02Z" transform="translate(-123.002 -171.796)" fill="#e8d1a7"/>
            <path id="Trazado_821930" data-name="Trazado 821930" d="M139.677,213.567c-3.465-.051-6.931-.08-10.4-.121-.4,0-1.027-.085-1.691-.136-.1,2.462-.194,4.924-.294,7.386a102.1,102.1,0,0,0,12.666-.022C139.864,218.3,139.777,215.935,139.677,213.567Zm-.191-4.444c-.1-2.379-.216-4.758-.321-7.136-3.294-.046-6.59-.075-9.884-.115-.3,0-.715-.048-1.179-.092-.109,2.46-.226,4.918-.332,7.378A102.178,102.178,0,0,0,139.486,209.122Z" transform="translate(-124.746 -183.979)" fill="#992b36"/>
            <path id="Trazado_821931" data-name="Trazado 821931" d="M130.278,204.219q-.068,2.074-.136,4.148c-.021.637.968.636.989,0q.068-2.074.136-4.148C131.288,203.582,130.3,203.583,130.278,204.219Z" transform="translate(-125.903 -184.777)" fill="#cf3645"/>
            <path id="Trazado_821932" data-name="Trazado 821932" d="M129.975,223.387a.5.5,0,0,0-.495.495l-.224,4.083a.495.495,0,0,0,.989,0l.224-4.083A.5.5,0,0,0,129.975,223.387Z" transform="translate(-125.543 -192.759)" fill="#cf3645"/>
            <path id="Trazado_821933" data-name="Trazado 821933" d="M128.8,239.976q-.511,16.668-1.023,33.337-.144,4.692-.288,9.383c-.02.637.969.636.989,0q.511-16.668,1.023-33.337l.288-9.383C129.809,239.34,128.82,239.341,128.8,239.976Z" transform="translate(-124.825 -199.306)" fill="#fff0d4"/>
            <path id="Trazado_821934" data-name="Trazado 821934" d="M132.813,176.26c-.023-.635-1.012-.638-.989,0a60.942,60.942,0,0,1-.55,10.714c-.088.623.865.892.954.263A62.389,62.389,0,0,0,132.813,176.26Z" transform="translate(-126.361 -173.416)" fill="#fff0d4"/>
          </g>
          <g id="Grupo_1072429" data-name="Grupo 1072429" transform="translate(0 105.286)">
            <path id="Trazado_821935" data-name="Trazado 821935" d="M175.007,386.633c.227-9.961.854-26.889.564-32.468-.044-.848.146-1.746-.4-2.393a2.594,2.594,0,0,0-2.078-.9c-26.749-.623-53.783-.3-80.691-1.72-2.306-.121-5.174,1.881-5.154,4.191.082,9.817-.161,18.568-.093,29.687.008,1.394-.128,2.859.738,3.951a4.9,4.9,0,0,0,3.678,1.62c25.82,1.238,54.417,1.451,80.666,1.238C173.806,389.822,174.972,388.205,175.007,386.633Z" transform="translate(-87.138 -349.144)" fill="#c2a77e"/>
            <path id="Trazado_821936" data-name="Trazado 821936" d="M219.064,352.733a2.6,2.6,0,0,0-2.078-.9c-6.431-.15-12.879-.245-19.337-.322a4.522,4.522,0,0,0-2.374,3.66c.082,10.417-.161,19.7-.093,31.5.008,1.479-.128,3.033.738,4.193l0,0c6.83.01,13.593-.017,20.207-.07,1.573-.013,2.739-1.629,2.774-3.2.227-9.96.854-26.889.564-32.468C219.424,354.278,219.614,353.38,219.064,352.733Z" transform="translate(-131.035 -350.105)" fill="#423c39"/>
            <g id="Grupo_1072428" data-name="Grupo 1072428" transform="translate(7.787 6.837)">
              <path id="Trazado_821937" data-name="Trazado 821937" d="M107.524,379.195a1.57,1.57,0,0,0,.863-.1c.259-.138.485-.456.316-.7.109-5.678.227-11.243.148-16.922a1.1,1.1,0,0,0-.119-.588c-.11-.17-.369-.308-.528-.18-2.419.008-4.908-.022-7.363-.022-.3,0-.592.484-.586.783q.185,8.552,0,17.107a.812.812,0,0,0,.5.639,1.577,1.577,0,0,0,.8.053C103.509,379.22,105.579,379.213,107.524,379.195Z" transform="translate(-100.256 -360.661)" fill="#423c39"/>
              <path id="Trazado_821938" data-name="Trazado 821938" d="M130.71,379.195a1.571,1.571,0,0,0,.863-.1c.259-.138.485-.456.316-.7.109-5.678.227-11.243.148-16.922a1.1,1.1,0,0,0-.119-.588c-.11-.17-.369-.308-.528-.18-2.419.008-4.908-.022-7.363-.022-.3,0-.592.484-.586.783q.185,8.552,0,17.107a.812.812,0,0,0,.5.639,1.577,1.577,0,0,0,.8.053C126.7,379.22,128.765,379.213,130.71,379.195Z" transform="translate(-109.677 -360.661)" fill="#423c39"/>
              <path id="Trazado_821939" data-name="Trazado 821939" d="M153.9,379.195a1.57,1.57,0,0,0,.863-.1c.259-.138.485-.456.316-.7.109-5.678.227-11.243.148-16.922a1.1,1.1,0,0,0-.119-.588c-.11-.17-.369-.308-.527-.18-2.419.008-4.908-.022-7.363-.022-.3,0-.592.484-.586.783q.185,8.552,0,17.107a.812.812,0,0,0,.5.639,1.577,1.577,0,0,0,.8.053C149.883,379.22,151.952,379.213,153.9,379.195Z" transform="translate(-119.099 -360.661)" fill="#423c39"/>
              <path id="Trazado_821940" data-name="Trazado 821940" d="M177.082,379.195a1.571,1.571,0,0,0,.863-.1c.259-.138.485-.456.316-.7.109-5.678.227-11.243.148-16.922a1.1,1.1,0,0,0-.119-.588c-.11-.17-.369-.308-.528-.18-2.419.008-4.908-.022-7.363-.022-.3,0-.592.484-.586.783q.185,8.552,0,17.107a.812.812,0,0,0,.5.639,1.577,1.577,0,0,0,.8.053C173.068,379.22,175.138,379.213,177.082,379.195Z" transform="translate(-128.52 -360.661)" fill="#423c39"/>
            </g>
          </g>
        </g>
        <g id="Grupo_1072435" data-name="Grupo 1072435" transform="translate(97.546 80.828)">
          <g id="Grupo_1072431" data-name="Grupo 1072431" transform="translate(0 17.037)">
            <path id="Trazado_821941" data-name="Trazado 821941" d="M221.562,155.863a22.061,22.061,0,0,0,.068-3.559,1.2,1.2,0,0,1,.972-.509c3.916-.044,7.683-.2,11.452-.272.549-.011,1.236.609,1.083,1.136a4.5,4.5,0,0,0,.065,2.011,1.757,1.757,0,0,1-.436,1.8,1.924,1.924,0,0,1-.908.267A41.449,41.449,0,0,1,221.562,155.863Z" transform="translate(-184.937 -151.523)" fill="#992b36"/>
            <path id="Trazado_821942" data-name="Trazado 821942" d="M164.934,189.7c1.571-6.854,4.074-13.639,8.489-19.112,6.159-7.633,15.68-12.113,25.406-13.38,10.045-1.309,20.662.714,29,6.467s14.124,15.387,14.345,25.514c-7.791,1.338-15.962,1.615-23.865,1.827l-23.661.633A177.244,177.244,0,0,1,164.934,189.7Z" transform="translate(-161.927 -153.676)" fill="#dbb4af"/>
            <path id="Trazado_821943" data-name="Trazado 821943" d="M243.8,294.877q-.606-39.82-.343-79.649c-26.1-.53-52.656-.927-78.749.014q-.263,39.825.343,79.649C191.159,295.517,217.705,295.966,243.8,294.877Z" transform="translate(-161.803 -177.184)" fill="#eccfcb"/>
            <path id="Trazado_821944" data-name="Trazado 821944" d="M161.854,214.8c-1.075-.019-2.1-1.64-1.974-2.708a2.1,2.1,0,0,1,2.293-1.764,8.5,8.5,0,0,0,1.272.019c25.42-.663,50.979-1.871,76.4-1.34,1.561.033,3.341,1.009,3.386,2.57a2.722,2.722,0,0,1-3.121,2.622c-.331.055-.8.123-1.127.179C213.42,214.681,187.769,215.261,161.854,214.8Z" transform="translate(-159.87 -174.827)" fill="#992b36"/>
            <path id="Trazado_821945" data-name="Trazado 821945" d="M196.618,164.042A32,32,0,0,0,177.9,179.849a30.6,30.6,0,0,0-2.492,6.6.414.414,0,0,0,.8.2A31.167,31.167,0,0,1,190.6,167.593a29.554,29.554,0,0,1,6.257-2.759A.414.414,0,0,0,196.618,164.042Z" transform="translate(-166.176 -156.601)" fill="#fff"/>
            <path id="Trazado_821946" data-name="Trazado 821946" d="M194.835,179.153a23.769,23.769,0,0,0-4.988,4.962.427.427,0,0,0,.015.585.416.416,0,0,0,.585-.015,23.09,23.09,0,0,1,4.824-4.829C195.7,179.543,195.265,178.836,194.835,179.153Z" transform="translate(-172.006 -162.717)" fill="#fff"/>
            <path id="Trazado_821947" data-name="Trazado 821947" d="M259.738,169.389a25.6,25.6,0,0,0-5.268-2.784c-.5-.193-.688.612-.2.8a25.942,25.942,0,0,1,14.222,13.961,25.16,25.16,0,0,1,1.62,5.545c.089.522.88.278.791-.24A26.8,26.8,0,0,0,259.738,169.389Z" transform="translate(-198.113 -157.639)" fill="#ba8f8a"/>
            <path id="Trazado_821948" data-name="Trazado 821948" d="M288.2,225.741a.414.414,0,0,0-.827.021q.6,15.733.6,31.481,0,4.425-.054,8.85c-.006.533.82.51.827-.021q.181-15.744-.251-31.486Q288.366,230.163,288.2,225.741Z" transform="translate(-211.677 -181.522)" fill="#423c39"/>
            <path id="Trazado_821949" data-name="Trazado 821949" d="M281.009,225.928a.414.414,0,0,0-.827.021q.6,15.733.6,31.481,0,4.425-.054,8.85c-.006.532.82.51.826-.021q.181-15.744-.25-31.486Q281.179,230.35,281.009,225.928Z" transform="translate(-208.756 -181.598)" fill="#423c39"/>
            <path id="Trazado_821950" data-name="Trazado 821950" d="M273.822,226.116a.414.414,0,0,0-.827.021q.6,15.733.6,31.482,0,4.425-.054,8.85c-.006.533.82.51.826-.021q.181-15.744-.251-31.486Q273.992,230.538,273.822,226.116Z" transform="translate(-205.836 -181.675)" fill="#423c39"/>
            <path id="Trazado_821951" data-name="Trazado 821951" d="M185.767,212.108l-21.653.572a.414.414,0,0,0,.021.827l21.653-.572A.414.414,0,0,0,185.767,212.108Z" transform="translate(-161.436 -176.141)" fill="#cf3645"/>
            <path id="Trazado_821952" data-name="Trazado 821952" d="M285.081,212.07q-6,.385-12.018.3c-.533-.007-.51.819.021.826q6.013.083,12.018-.3C285.633,212.863,285.614,212.036,285.081,212.07Z" transform="translate(-205.706 -176.125)" fill="#701d25"/>
          </g>
          <g id="Grupo_1072432" data-name="Grupo 1072432" transform="translate(40.687)">
            <path id="Trazado_821953" data-name="Trazado 821953" d="M310.909,219.75c.248-23.46.675-47.576.321-70.607-.052-3.366.294-6.749-.178-10.083a18.377,18.377,0,0,0-3.756-9.236,12.93,12.93,0,0,0-8.925-4.468c-14.8-.905-29.825-1.216-44.605-2.373-6.045-.473-12.427-.014-17.625,3.11s-8.963,9.669-7.363,15.518c1.78-.125,3.578-.008,5.358-.132-1.652-4.652,1.8-9.868,6.293-11.923s9.651-1.777,14.577-1.458l35.019,2.268c3.9.253,8.217.317,10.642,3.381s3.26,7.071,3.77,10.945c.943,7.182-.491,56.925-.321,74.859C306.035,219.765,308.988,219.537,310.909,219.75Z" transform="translate(-228.405 -122.825)" fill="#ffb693"/>
            <path id="Trazado_821954" data-name="Trazado 821954" d="M310.792,215.4c-1.5-2.326-1.817-11.042-1.78-16.269.142-20.345,1-35.426.284-52.926-.164-4.052-.752-8.88-3.557-11.809-3.165-3.3-7.257-3.794-11.809-4.268-9.721-1.014-22.089-.977-31.809-1.991-6.247-.652-12.777-1.268-18.623,1.031-4.99,1.963-10.321,7.592-9.634,13.407a5.824,5.824,0,0,0,.175.884c.765,0,1.529-.01,2.29-.064-1.652-4.652,1.8-9.868,6.293-11.923s9.651-1.777,14.577-1.458l35.019,2.268c3.9.253,8.217.317,10.642,3.381s3.26,7.071,3.77,10.945c.943,7.182-.49,56.925-.321,74.859,1.92.214,4.873-.015,6.795.2.014-1.345.03-2.7.046-4.046A14.358,14.358,0,0,1,310.792,215.4Z" transform="translate(-230.6 -124.74)" fill="#d77b51"/>
            <path id="Trazado_821955" data-name="Trazado 821955" d="M259.574,124.882c-5.23-.626-10.618-1.006-15.789.245a19.74,19.74,0,0,0-10.7,6.437,14.041,14.041,0,0,0-2.967,6.155c-.1.52.695.743.8.22a14.829,14.829,0,0,1,6.853-9.4c3.943-2.516,8.622-3.364,13.239-3.4a67.005,67.005,0,0,1,8.565.58C260.1,125.772,260.1,124.945,259.574,124.882Z" transform="translate(-229.098 -123.424)" fill="#ffe9b4"/>
            <path id="Trazado_821956" data-name="Trazado 821956" d="M316.707,127.151l-25.748-1.083c-.532-.023-.531.8,0,.827l25.748,1.083C317.239,128,317.238,127.173,316.707,127.151Z" transform="translate(-253.661 -124.142)" fill="#ffe9b4"/>
            <path id="Trazado_821957" data-name="Trazado 821957" d="M364.392,170.451q-.1,18.171-.2,36.342-.028,5.162-.057,10.324a.414.414,0,0,0,.827,0q.1-18.171.2-36.342.029-5.162.057-10.324A.414.414,0,0,0,364.392,170.451Z" transform="translate(-283.557 -142.014)" fill="#ffe9b4"/>
          </g>
          <g id="Grupo_1072434" data-name="Grupo 1072434" transform="translate(72.673 93.818)">
            <path id="Trazado_821958" data-name="Trazado 821958" d="M367.021,350.6a479.334,479.334,0,0,1-78.27-.86,196.786,196.786,0,0,1,2.553-29.506,64.026,64.026,0,0,1,5.381-17.62,45.788,45.788,0,0,1,4.725-7.74c5.563-7.316,13.832-12.846,22.968-13.849,10.276-1.13,20.663,3.605,27.792,11.093a46.438,46.438,0,0,1,7.84,11.33A63.489,63.489,0,0,1,365.39,319.7C367.357,329.847,367.307,340.267,367.021,350.6Z" transform="translate(-284.912 -280.857)" fill="#628212"/>
            <path id="Trazado_821959" data-name="Trazado 821959" d="M369.634,405.422a19.088,19.088,0,0,0-1.111-4.249,7.159,7.159,0,0,0-2.727-3.365c-1.253-.763-2.508-.42-3.976-.4-24.239.3-46.528,1.76-72.7-.81a12.279,12.279,0,0,1-2.435-.579c-2.059,1.618-4.441,4.94-4.4,7.559C307.321,407.7,341.328,407.7,369.634,405.422Z" transform="translate(-282.284 -327.65)" fill="#82a827"/>
            <path id="Trazado_821960" data-name="Trazado 821960" d="M365.438,303.445q-8.039.141-16.076.143-16.655.008-33.3-.584-4.069-.149-8.143-.325c-1.671-.077-3.881.132-5.8-.067a45.793,45.793,0,0,1,4.725-7.74c5.563-7.316,13.832-12.846,22.968-13.849,10.276-1.13,20.663,3.605,27.792,11.093A46.435,46.435,0,0,1,365.438,303.445Z" transform="translate(-290.342 -280.857)" fill="#b2db60"/>
            <g id="Grupo_1072433" data-name="Grupo 1072433" transform="translate(32.368 34.512)">
              <path id="Trazado_821961" data-name="Trazado 821961" d="M365.609,356.431l-1.2-2.085-5.335,3.085.781,1.353a.008.008,0,0,0,.008,0,13.625,13.625,0,0,0,5.628-1.218.009.009,0,0,1,.01.014c-2.017,1.856-5.352,1.706-5.352,1.706h-4.057a.009.009,0,0,1-.009-.008v-.544a.009.009,0,0,0-.014-.007l-3.184,3.531a.008.008,0,0,0,0,.013l3.184,3.531a.009.009,0,0,0,.014-.007v-.479a.009.009,0,0,1,.009-.009h4.394a2.066,2.066,0,0,0,1.79-1.034l3.338-5.782A2.067,2.067,0,0,0,365.609,356.431Z" transform="translate(-343.336 -345.23)" fill="#b2db60"/>
              <path id="Trazado_821962" data-name="Trazado 821962" d="M351.161,343.983a.007.007,0,0,0,0-.008,13.636,13.636,0,0,0-3.761-4.384.009.009,0,0,1,.008-.015c2.584.886,4.04,3.873,4.051,3.893h0l2.57,4.454a.009.009,0,0,1,0,.012l-.376.217a.008.008,0,0,0,0,.015L358.4,349.2a.009.009,0,0,0,.011-.007l1.368-4.563a.009.009,0,0,0-.013-.009l-.387.224a.009.009,0,0,1-.012,0l-2.778-4.813a2.066,2.066,0,0,0-1.79-1.034h-6.676a2.067,2.067,0,0,0-1.79,1.034l-1.212,2.1,5.337,3.082Z" transform="translate(-340.184 -338.991)" fill="#b2db60"/>
              <path id="Trazado_821963" data-name="Trazado 821963" d="M343.131,356.55a13.625,13.625,0,0,0-1.853,5.464.009.009,0,0,1-.017,0c-.556-2.683,1.286-5.469,1.286-5.469h0l2.656-4.593a.009.009,0,0,1,.012,0l.347.2a.009.009,0,0,0,.013-.009l-1.421-4.555-4.705,1.017a.009.009,0,0,0,0,.015l.416.24a.009.009,0,0,1,0,.012l-2.783,4.813a2.067,2.067,0,0,0,0,2.068l3.338,5.781a2.067,2.067,0,0,0,1.79,1.034h3.661v-6.021h-2.732A.008.008,0,0,0,343.131,356.55Z" transform="translate(-336.806 -342.483)" fill="#b2db60"/>
            </g>
            <path id="Trazado_821964" data-name="Trazado 821964" d="M412.555,378.25a.417.417,0,0,0-.509-.288.424.424,0,0,0-.288.509,34.908,34.908,0,0,1,.278,6.666c-.028.532.8.53.827,0A36.062,36.062,0,0,0,412.555,378.25Z" transform="translate(-334.891 -320.309)" fill="#262221"/>
            <path id="Trazado_821965" data-name="Trazado 821965" d="M408.468,378.906c-.057-.524-.885-.529-.827,0a29.273,29.273,0,0,1,.014,6.24c-.055.529.772.525.827,0A29.305,29.305,0,0,0,408.468,378.906Z" transform="translate(-333.22 -320.537)" fill="#262221"/>
            <path id="Trazado_821966" data-name="Trazado 821966" d="M404.276,379.619a.426.426,0,0,0-.414-.413.415.415,0,0,0-.413.413,41.47,41.47,0,0,1,.208,5.709c-.017.532.81.532.827,0A41.465,41.465,0,0,0,404.276,379.619Z" transform="translate(-331.517 -320.819)" fill="#262221"/>
            <path id="Trazado_821967" data-name="Trazado 821967" d="M366.739,403.086q-18.424.682-36.867.195-5.148-.137-10.294-.366c-.532-.024-.541.8-.009.827q18.419.817,36.865.462,5.149-.1,10.3-.291C367.259,403.894,367.272,403.067,366.739,403.086Z" transform="translate(-297.274 -330.453)" fill="#b2db60"/>
            <path id="Trazado_821968" data-name="Trazado 821968" d="M413.5,402.729a67.958,67.958,0,0,1-7.473.275.414.414,0,0,0,0,.827,67.988,67.988,0,0,0,7.473-.275C414.03,403.507,414.035,402.68,413.5,402.729Z" transform="translate(-332.405 -330.377)" fill="#b2db60"/>
            <path id="Trazado_821969" data-name="Trazado 821969" d="M385.94,301.257a40.412,40.412,0,0,0-12.907-12.077,39.7,39.7,0,0,0-4.6-2.308c-.484-.205-.906.507-.417.714A39.672,39.672,0,0,1,382.128,297.7a38.91,38.91,0,0,1,3.1,3.975C385.524,302.112,386.24,301.7,385.94,301.257Z" transform="translate(-317.031 -283.286)" fill="#fff"/>
          </g>
        </g>
        <g id="Grupo_1072436" data-name="Grupo 1072436" transform="translate(46.663 162.002)">
          <path id="Trazado_821970" data-name="Trazado 821970" d="M139.694,418.1a6.4,6.4,0,0,0-4.749,5.163,1.362,1.362,0,0,0,.695.539c2.894,1.207,6.322.6,9.395-.023.488-.1.447-.834.413-1.331q-.068-1-.16-1.991a1.845,1.845,0,0,0-.265-.94,1.764,1.764,0,0,0-1.041-.552C142.635,418.621,141.046,417.779,139.694,418.1Z" transform="translate(-98.859 -323.95)" fill="#262221"/>
          <path id="Trazado_821971" data-name="Trazado 821971" d="M215.906,413.872a3.9,3.9,0,0,0-2.125,2.1A11.567,11.567,0,0,0,213,418.93a.446.446,0,0,0,.381.455,17.226,17.226,0,0,0,9.685-1.715.824.824,0,0,0,.476-.8,30.746,30.746,0,0,1,0-3.47,1.43,1.43,0,0,0-.227-.829c-.32-.4-.93-.346-1.43-.249A45.92,45.92,0,0,0,215.906,413.872Z" transform="translate(-130.572 -321.602)" fill="#262221"/>
          <path id="Trazado_821972" data-name="Trazado 821972" d="M216.077,391.731a19.577,19.577,0,0,1,5.288-6.38,78.975,78.975,0,0,0,2.992-26.13c-.048-1.008,0-2.233.874-2.73a2.578,2.578,0,0,1,1.476-.193,25.4,25.4,0,0,1,3.575.53,1.787,1.787,0,0,1,1.034.493,1.861,1.861,0,0,1,.259,1.3q-.137,2.828-.275,5.656a29.2,29.2,0,0,1-2.83,10.934c-1.612,3.446-3.443,6.875-4.011,10.637-.2,1.307.173,2.574-.17,3.851a53.863,53.863,0,0,1-7.124,2.567C216.776,392.374,216.328,392.046,216.077,391.731Z" transform="translate(-131.826 -298.859)" fill="#eccfcb"/>
          <path id="Trazado_821973" data-name="Trazado 821973" d="M215.352,360.136a6.571,6.571,0,0,0,3.54,4.4,1.353,1.353,0,0,0,.323,1.76,1.321,1.321,0,0,0,1.742-.28,6.121,6.121,0,0,0,1.558.4,1.979,1.979,0,0,0,.56,1.758,1.514,1.514,0,0,0,2.515-1.076,4.53,4.53,0,0,0,2.1.212,1.306,1.306,0,0,0,.668,1.353,1.462,1.462,0,0,0,2.134-1.662,7.934,7.934,0,0,0,2.335-.375,2.587,2.587,0,0,0,1.645-1.537,3.434,3.434,0,0,0-.1-1.915,12.678,12.678,0,0,0-2.448-4.891,8.99,8.99,0,0,0-4.54-2.972,9.889,9.889,0,0,0-6.577.787A20.684,20.684,0,0,0,215.352,360.136Z" transform="translate(-131.531 -298.365)" fill="#dbb4af"/>
          <path id="Trazado_821974" data-name="Trazado 821974" d="M121.614,412.067a6.658,6.658,0,0,0-3.536,4.9c.329.788,1.425.761,2.251.864a18.9,18.9,0,0,0,8.2-.993,2.11,2.11,0,0,0,.309-1.3q-.007-1.438-.014-2.875a.942.942,0,0,0-.158-.635.87.87,0,0,0-.661-.2C125.936,411.8,123.483,411.143,121.614,412.067Z" transform="translate(-92.005 -321.329)" fill="#262221"/>
          <path id="Trazado_821975" data-name="Trazado 821975" d="M122.363,364.182q3.21,6.543,6.065,13.253c1.473,3.463-1.075,7.414-2.046,11.049-.551,2.06-2.745,3.3-4.1,4.95.178.142.365.454.728.414a44.329,44.329,0,0,0,6.652-.16,1.154,1.154,0,0,0,1-.931c.841-4.27,1.871-8.567,2.686-12.833.693-3.624,1.354-7.533-.211-10.875C131.445,365.427,126.261,363.285,122.363,364.182Z" transform="translate(-93.716 -301.988)" fill="#eccfcb"/>
          <path id="Trazado_821976" data-name="Trazado 821976" d="M92.9,300.411c4.361,8.435,3.153,19.207,8.647,26.954a21.321,21.321,0,0,0,14.4,8.368,30.364,30.364,0,0,0,16.669-2.763c6.965,3.056,14.652,3.672,22.2,2.742a57.766,57.766,0,0,0,21.428-7.4,43.567,43.567,0,0,0,12.763-10.44,24.942,24.942,0,0,0,5.715-15.244c-.007-5.53-2.166-11.714-7.043-14.321-4.931-2.637-17.363,2.991-26.983,3.054-8.821.058-18.669-3.307-27.427-4.365-6.322-.764-12.793-.078-19.038-1.322-3.087-.614-6.263-1.7-9.3-.885-3.14.839-5.427,3.538-7.078,6.338S95.034,297.956,92.9,300.411Z" transform="translate(-81.777 -269.695)" fill="#fff"/>
          <path id="Trazado_821977" data-name="Trazado 821977" d="M106.658,284.794c-3.14.839-5.427,3.538-7.078,6.338-.874,1.484-1.616,3.311-2.436,5.066.014.078.025.158.04.236a5.891,5.891,0,0,0,1.548,3.338c.95.806,2.277,1.009,3.235,1.819,1.56,1.318,1.919,3.482,2.677,5.274.624,1.474,1.706,2.941,3.28,3.234,1.9.353,3.664-1.151,4.666-2.8s1.6-3.573,2.9-5c2.751-3.009,7.758-2.918,10.627-5.815a8.882,8.882,0,0,0,2.251-4.588,6.485,6.485,0,0,0-.461-4.44,4.731,4.731,0,0,0-.668-.893,65.066,65.066,0,0,1-11.277-.882C112.875,285.063,109.7,283.981,106.658,284.794Z" transform="translate(-83.499 -269.695)" fill="#423c39"/>
          <path id="Trazado_821978" data-name="Trazado 821978" d="M243.979,418.624a5.947,5.947,0,0,0-2.928,5.726,30.057,30.057,0,0,0,10.663-1.417c.663-.22.649-1.173.584-1.868a12.558,12.558,0,0,0-.5-2.5,2.3,2.3,0,0,0-.8-1.31,2.452,2.452,0,0,0-1.81-.135A17.877,17.877,0,0,0,243.979,418.624Z" transform="translate(-141.959 -323.54)" fill="#262221"/>
          <path id="Trazado_821979" data-name="Trazado 821979" d="M272.717,368.182c-1.738,1.292-2.1,3.826-1.537,5.917a24.788,24.788,0,0,0,2.953,5.762c1.089,1.872,2.011,4,1.7,6.141-.043.3.435.437.725.348l.125-.3a22.526,22.526,0,0,0,1.771-10.015A9.837,9.837,0,0,0,272.717,368.182Z" transform="translate(-154.116 -303.697)" fill="#615753"/>
          <path id="Trazado_821980" data-name="Trazado 821980" d="M261.6,299.24c3.469-.447,6.919,1.722,8.722,4.72a16.928,16.928,0,0,1,1.892,10.147c-.292,3.486-1.206,6.886-1.82,10.33a60.732,60.732,0,0,0-.661,16.488c-.462.107-.755.118-1.217.224-2.092-4.815-1.562-10.529-.718-15.711s2.088-10.4,1.535-15.62c-.23-2.176-1.032-4.63-3.073-5.419-.656-.253-1.381-.3-2.021-.594C262.763,303.131,262.081,300.8,261.6,299.24Z" transform="translate(-150.325 -275.66)" fill="#fff"/>
          <path id="Trazado_821981" data-name="Trazado 821981" d="M240.764,292.132a.761.761,0,0,1,1.1-.482,18.955,18.955,0,0,1,10.2,15.025c.914,7.749-2.187,15.844-6.583,22.29-1.493,2.189-.641,5.374-.494,8.019.137,2.466,2.256,4.578,2.533,7.033.838,7.413-3.019,14.577-3.172,22.027a.743.743,0,0,1-.329.611,13.672,13.672,0,0,1-6.715,2.248.75.75,0,0,1-.692-1.079,41.474,41.474,0,0,1,3.637-6.361.752.752,0,0,0,.142-.4,104.6,104.6,0,0,0-.379-14.136c-.4-4.7-4.22-8.244-7.574-11.562s-6.87-6.842-8.093-11.4a16.953,16.953,0,0,1,1.479-11.614c2.055-4.247,5.373-7.773,8.727-11.042a33.032,33.032,0,0,0,3.69-4.236A13.944,13.944,0,0,0,240.764,292.132Z" transform="translate(-134.999 -272.563)" fill="#fff"/>
          <path id="Trazado_821982" data-name="Trazado 821982" d="M142.465,383.137c1.395-2.056,3.558-4.356,3.138-6.8a83.383,83.383,0,0,1,1.433-34.813c.787-3.053,1.73-6.385.411-9.248a7.39,7.39,0,0,0-5.3-3.975,10.142,10.142,0,0,0-6.645,1.155c-4.117,2.209-6.717,6.694-7.361,11.322a25.019,25.019,0,0,0,2.41,13.619,48.473,48.473,0,0,0,7.327,11.923c.736.845.823,7.335.746,11.034-.01.481-1.691,2.984-2.578,4.479-.12.2.085.511.265.661a1.945,1.945,0,0,0,.629.311,17.255,17.255,0,0,0,3.456.8C141.189,383.7,142.017,383.8,142.465,383.137Z" transform="translate(-96.02 -287.427)" fill="#fff"/>
          <path id="Trazado_821983" data-name="Trazado 821983" d="M81.733,279.679a13.012,13.012,0,0,1-7.562-7.48c-.086-.226.313-.57.544-.638,2.415-.7,4.927,1.078,6.927,2.6a6.755,6.755,0,0,1,1.731,1.758,2.908,2.908,0,0,1,.384,2.373C83.5,279.079,82.51,279.965,81.733,279.679Z" transform="translate(-74.16 -264.373)" fill="#423c39"/>
          <path id="Trazado_821984" data-name="Trazado 821984" d="M82.3,279.441a8.994,8.994,0,0,1-4.894-4.349,1.256,1.256,0,0,1,1.14-.134,12.5,12.5,0,0,1,3.669,2.16,2.422,2.422,0,0,1,.861,1.142A1.1,1.1,0,0,1,82.3,279.441Z" transform="translate(-75.479 -265.785)" fill="#615753"/>
          <path id="Trazado_821985" data-name="Trazado 821985" d="M84.15,284.623a.635.635,0,0,0-.483,0,1.915,1.915,0,0,0-.48.824c-.008.027-.015.061-.022.092.034.447.312.923.822.841a.592.592,0,0,0,.1-.033,2.678,2.678,0,0,0,.429-.344.823.823,0,0,0,.08-.16,1.089,1.089,0,0,0-.071-.826A.808.808,0,0,0,84.15,284.623Z" transform="translate(-77.819 -269.724)" fill="#262221"/>
          <path id="Trazado_821986" data-name="Trazado 821986" d="M84.319,267.745a10.157,10.157,0,0,1-4.069-7.317c.065-.124.318-.328.432-.247a3.787,3.787,0,0,1,.89,1.186,12.186,12.186,0,0,0,1.557,2.182,6.112,6.112,0,0,0,1.908,1.339,1.936,1.936,0,0,1,1.035.721,1.067,1.067,0,0,1-.186,1.135A5.21,5.21,0,0,1,84.319,267.745Z" transform="translate(-76.635 -259.805)" fill="#615753"/>
          <path id="Trazado_821987" data-name="Trazado 821987" d="M79.851,282.865c2.25-4.8,1.077-10.595,2.988-15.538.921-2.383,3.867-3.458,6.374-3.948a10.95,10.95,0,0,1,7.41,1.2c2.5,1.414,3.319,4.821,3.954,7.626a48.7,48.7,0,0,1,.9,8.568c.144,3.157-2.219,5.68-4.207,8.137a12.258,12.258,0,0,1-7.931,4.738c-3.138.34-6.245.809-9.35.245-.507-.092-.717-.788-.722-1.3-.01-.969-.835-1.687-1.349-2.508a4.244,4.244,0,0,1-.833-2.723C77.315,285.629,79.111,284.443,79.851,282.865Z" transform="translate(-75.338 -261.031)" fill="#fff"/>
          <path id="Trazado_821988" data-name="Trazado 821988" d="M105.57,289.922c1.988-2.457,4.35-4.98,4.207-8.137a48.77,48.77,0,0,0-.9-8.568c-.623-2.753-1.424-6.083-3.822-7.542a5.124,5.124,0,0,0-2.678,1.364,10.934,10.934,0,0,0-2.268,3.468,31.782,31.782,0,0,0-2.245,6.873c-.536,2.623-.677,5.564.852,7.762,1.026,1.475,2.722,2.479,3.4,4.141a15.463,15.463,0,0,1,.592,3.062c.015.081.036.163.055.245A14.63,14.63,0,0,0,105.57,289.922Z" transform="translate(-83.641 -262.045)" fill="#423c39"/>
          <path id="Trazado_821989" data-name="Trazado 821989" d="M113.617,275.439a10.8,10.8,0,0,1,9.636-6.64.845.845,0,0,1,.367.835c-.686,2.046-.879,4.286-2.209,5.986a10.419,10.419,0,0,1-5.28,3.562,2.559,2.559,0,0,1-2.15-.106,1.946,1.946,0,0,1-.71-1.772A6.183,6.183,0,0,1,113.617,275.439Z" transform="translate(-90.049 -263.314)" fill="#423c39"/>
          <path id="Trazado_821990" data-name="Trazado 821990" d="M115.534,278.186a11.212,11.212,0,0,1,6.074-4.838,1.435,1.435,0,0,1,.211,1.333,6.2,6.2,0,0,1-4.175,4.377,2.411,2.411,0,0,1-1.181.106A1.53,1.53,0,0,1,115.534,278.186Z" transform="translate(-90.972 -265.162)" fill="#615753"/>
          <path id="Trazado_821991" data-name="Trazado 821991" d="M104.492,284.343a1.122,1.122,0,0,1,.671-.211.634.634,0,0,1,.56.379.867.867,0,0,1-.087.652,2.728,2.728,0,0,1-1.045,1.167.815.815,0,0,1-.58.151c-.451-.1-.366-.765-.277-1.082A1.878,1.878,0,0,1,104.492,284.343Z" transform="translate(-86.148 -269.544)" fill="#fff"/>
          <path id="Trazado_821992" data-name="Trazado 821992" d="M104.73,284.847a.635.635,0,0,0-.483,0,1.9,1.9,0,0,0-.48.824c-.008.027-.015.061-.022.092.034.447.312.923.822.841a.592.592,0,0,0,.1-.033,2.683,2.683,0,0,0,.429-.344.856.856,0,0,0,.08-.16,1.092,1.092,0,0,0-.071-.826A.817.817,0,0,0,104.73,284.847Z" transform="translate(-86.182 -269.815)" fill="#262221"/>
          <path id="Trazado_821993" data-name="Trazado 821993" d="M104.893,285.458a.173.173,0,1,1-.173-.173A.174.174,0,0,1,104.893,285.458Z" transform="translate(-86.507 -270.013)" fill="#fff"/>
          <path id="Trazado_821994" data-name="Trazado 821994" d="M105.241,286.249a.066.066,0,1,1-.066-.066A.066.066,0,0,1,105.241,286.249Z" transform="translate(-86.735 -270.378)" fill="#fff"/>
          <path id="Trazado_821995" data-name="Trazado 821995" d="M87.053,306.831a.2.2,0,0,1-.1-.251,2,2,0,0,1,1.189-1.114.846.846,0,0,1,.573-.028.665.665,0,0,1,.315.858,1.084,1.084,0,0,1-.779.593A2.261,2.261,0,0,1,87.053,306.831Z" transform="translate(-79.353 -278.186)" fill="#262221"/>
          <path id="Trazado_821996" data-name="Trazado 821996" d="M80.778,307.076l.068-.118a1.986,1.986,0,0,0-1.721-1.12.662.662,0,0,0-.582.242.5.5,0,0,0,.012.493,1.033,1.033,0,0,0,.368.355A2.487,2.487,0,0,0,80.778,307.076Z" transform="translate(-75.916 -278.364)" fill="#262221"/>
          <path id="Trazado_821997" data-name="Trazado 821997" d="M108.035,297.048c-2.219,4.746-6.182,9.118-11.669,9.7-.524.056-.53.883,0,.827,5.787-.619,10.026-5.072,12.383-10.114C108.973,296.986,108.26,296.566,108.035,297.048Z" transform="translate(-83.023 -274.706)" fill="#fff"/>
          <path id="Trazado_821998" data-name="Trazado 821998" d="M107.278,265.156a9.089,9.089,0,0,0,6.973-5.561.262.262,0,0,1,.392.187,8.221,8.221,0,0,1-3.977,6.868,2.777,2.777,0,0,1-1.984.518A2.018,2.018,0,0,1,107.278,265.156Z" transform="translate(-87.612 -259.56)" fill="#615753"/>
          <path id="Trazado_821999" data-name="Trazado 821999" d="M142.557,359.059c.43-.689,1.023-1.456,1.834-1.418a1.549,1.549,0,0,1,1.184.779,3.877,3.877,0,0,1,.453,1.394,17.08,17.08,0,0,1,.227,3.925c-.122,2.118-1.8,5.494-4.344,3.554C139.207,365.232,141.192,361.245,142.557,359.059Z" transform="translate(-101.143 -299.413)" fill="#423c39"/>
          <path id="Trazado_822000" data-name="Trazado 822000" d="M212.844,309.271c1.406-1.585,2.388-3.794,1.758-5.817-.49-1.576-1.839-2.714-2.688-4.129a7.2,7.2,0,0,1-.663-5.851c.255-.783.644-1.576.841-2.369-5.372,1.094-11.7,2.906-17.142,2.942a65.9,65.9,0,0,1-13.425-1.7,11.262,11.262,0,0,0-2.28,1.79,6.662,6.662,0,0,0-1.8,6.4c.791,2.371,3.2,3.75,5.455,4.833s4.712,2.251,5.814,4.493c.647,1.316.9,3.063,2.254,3.64,1.414.6,2.9-.544,4.363-1.017,2.413-.781,4.981.324,7.5.613A11.823,11.823,0,0,0,212.844,309.271Z" transform="translate(-116.025 -272.378)" fill="#423c39"/>
          <path id="Trazado_822001" data-name="Trazado 822001" d="M145.459,323.626a11.861,11.861,0,0,1,21.558,4.84c.312,2.037-.163,4.518-2.033,5.386a4.363,4.363,0,0,1-3.346-.075,31.637,31.637,0,0,1-3.054-1.572,14.692,14.692,0,0,0-6.045-1.573c-1.766-.075-3.482.4-5.237.369C143.241,330.94,143.779,326.116,145.459,323.626Z" transform="translate(-102.619 -283.476)" fill="#423c39"/>
          <path id="Trazado_822002" data-name="Trazado 822002" d="M178.467,353.455a18.5,18.5,0,0,1,6.657-2.341,7.669,7.669,0,0,1,2.4-.139,2.729,2.729,0,0,1,1.7,4.728,6.69,6.69,0,0,1-3.338,1.894c-2.15.629-5.479,1.313-7.714.626C175.544,357.418,176.733,354.542,178.467,353.455Z" transform="translate(-115.8 -296.686)" fill="#423c39"/>
          <path id="Trazado_822003" data-name="Trazado 822003" d="M203.688,336.968a4.633,4.633,0,0,1,4.24-.663A3.265,3.265,0,0,1,210,339.851c-.581,2.627-4.2,3.176-6.359,2.4C201.044,341.318,201.795,338.291,203.688,336.968Z" transform="translate(-126.092 -290.639)" fill="#423c39"/>
          <path id="Trazado_822004" data-name="Trazado 822004" d="M130,361.8a22.242,22.242,0,0,1-1.878-10.086c.025-.532-.8-.531-.827,0a23.142,23.142,0,0,0,1.991,10.5C129.5,362.706,130.216,362.286,130,361.8Z" transform="translate(-95.741 -296.845)" fill="#eccfcb"/>
          <path id="Trazado_822005" data-name="Trazado 822005" d="M158.819,346.678q-1.411,5.575-2.434,11.239c-.094.52.7.744.8.22q1.022-5.66,2.434-11.239A.414.414,0,0,0,158.819,346.678Z" transform="translate(-107.568 -294.839)" fill="#eccfcb"/>
          <path id="Trazado_822006" data-name="Trazado 822006" d="M228.51,349.646a16.1,16.1,0,0,1-4.135-11.05.414.414,0,0,0-.827,0,16.96,16.96,0,0,0,4.376,11.635C228.283,350.625,228.867,350.039,228.51,349.646Z" transform="translate(-134.861 -291.512)" fill="#eccfcb"/>
        </g>
        <g id="Grupo_1072437" data-name="Grupo 1072437" transform="translate(122.755 157.867)">
          <path id="Trazado_822007" data-name="Trazado 822007" d="M281.121,353.278c.02-30.162.04-62.031.061-92.194-24.184-7.264-50.621-7.626-74.694,0q-.03,45.244-.061,90.488c3.2,3.032,7.133,4.328,11.453,5.224C238.936,361.163,260.871,360.514,281.121,353.278Z" transform="translate(-203.996 -253.775)" fill="#51d4b3"/>
          <path id="Trazado_822008" data-name="Trazado 822008" d="M281.484,263.774a1.831,1.831,0,0,0,.577-2.128,3.413,3.413,0,0,0-1.8-1.717c-11.423-5.125-23.986-6.259-36.8-6.16s-26.89.628-38.272,4.265a6.144,6.144,0,0,0-1.392.787,1.568,1.568,0,0,0-.66,1.682,1.82,1.82,0,0,0,1.473,1.216,10.419,10.419,0,0,0,3.281-.553,142.216,142.216,0,0,1,68.535,1.626C277.015,262.956,280.81,264.271,281.484,263.774Z" transform="translate(-202.639 -253.069)" fill="#b8fdd1"/>
          <path id="Trazado_822009" data-name="Trazado 822009" d="M203.792,415.154a1.954,1.954,0,0,0-.577,2.215,3.478,3.478,0,0,0,1.8,1.787c11.423,5.333,23.986,6.514,36.8,6.41s26.889-.653,38.272-4.439a6.085,6.085,0,0,0,1.392-.819,1.664,1.664,0,0,0,.66-1.75,1.841,1.841,0,0,0-1.473-1.266,10.031,10.031,0,0,0-3.281.576,136.825,136.825,0,0,1-68.535-1.693C208.262,416,204.467,414.636,203.792,415.154Z" transform="translate(-202.639 -318.6)" fill="#b8fdd1"/>
          <path id="Trazado_822010" data-name="Trazado 822010" d="M280.612,311.239a163.285,163.285,0,0,0-52.553-2.575q-7.344.834-14.592,2.328c-.521.107-.3.9.22.8a162.635,162.635,0,0,1,52.154-2.182q7.327.877,14.551,2.429C280.911,312.147,281.133,311.35,280.612,311.239Z" transform="translate(-206.736 -274.955)" fill="#2da185"/>
          <path id="Trazado_822011" data-name="Trazado 822011" d="M280.612,312.317a163.287,163.287,0,0,0-52.553-2.575q-7.344.833-14.592,2.328c-.521.107-.3.9.22.8a162.634,162.634,0,0,1,52.154-2.182q7.327.877,14.551,2.429C280.911,313.225,281.133,312.428,280.612,312.317Z" transform="translate(-206.736 -275.393)" fill="#b8fdd1"/>
          <path id="Trazado_822012" data-name="Trazado 822012" d="M279.405,379.916q-12.818,1-25.683,1.137t-25.7-.619q-7.261-.423-14.5-1.127c-.53-.051-.526.776,0,.827q12.8,1.24,25.657,1.611t25.708-.144q7.267-.289,14.52-.859C279.932,380.7,279.936,379.874,279.405,379.916Z" transform="translate(-206.717 -304.081)" fill="#2da185"/>
          <path id="Trazado_822013" data-name="Trazado 822013" d="M279.405,381.234q-12.818,1-25.683,1.137t-25.7-.619q-7.261-.423-14.5-1.127c-.53-.051-.526.776,0,.827q12.8,1.24,25.657,1.611t25.708-.144q7.267-.289,14.52-.858C279.932,382.019,279.936,381.192,279.405,381.234Z" transform="translate(-206.717 -304.617)" fill="#b8fdd1"/>
          <path id="Trazado_822014" data-name="Trazado 822014" d="M265.286,347.217a9.746,9.746,0,0,1-8.453-.87,6.723,6.723,0,0,1-2.674-7.7c.449-1.13,1.251-2.084,1.777-3.181a3.417,3.417,0,0,0,0-3.466c-.361-.1-.724-.607-.156-.891.978-.248,1.913.664,2.187,1.635a16.469,16.469,0,0,1,.205,3.01,2.643,2.643,0,0,0,1.517,2.413,2.086,2.086,0,0,0,2.356-1.186,3.9,3.9,0,0,0,.057-2.807c-.279-.917-.741-1.766-1.082-2.662a9.7,9.7,0,0,1-.313-6.07,8.236,8.236,0,0,1,3.651-4.807c.419-.246,1.111.363,1.124.848a2.612,2.612,0,0,1-.569,1.316,4.272,4.272,0,0,0-.337,3.6c.489,1.338,1.609,2.331,2.391,3.521a7.85,7.85,0,0,1,.834,6.795,2.12,2.12,0,0,0,2.3-1.652,6.325,6.325,0,0,0-.318-3.113.868.868,0,0,1,1.319-.293,2.528,2.528,0,0,1,.837,1.384,13.458,13.458,0,0,1,.2,8.274C271.254,343.977,267.949,346.335,265.286,347.217Z" transform="translate(-223.236 -280.22)" fill="#ffd863"/>
          <path id="Trazado_822015" data-name="Trazado 822015" d="M206.151,321.894q-.1-16.2-.088-32.394.008-9.079.052-18.157a.414.414,0,0,0-.827,0q-.077,16.2-.041,32.395t.189,32.394q.085,9.079.207,18.156a.414.414,0,0,0,.827,0Q206.252,338.091,206.151,321.894Z" transform="translate(-203.512 -260.05)" fill="#fff"/>
          <path id="Trazado_822016" data-name="Trazado 822016" d="M246.146,252.9a121.549,121.549,0,0,0-35.634,2.729c-2.838.648-5.748,1.368-8.041,3.262-.411.339.177.921.585.585,2.013-1.662,4.6-2.332,7.092-2.914q4.28-1,8.625-1.684a120.306,120.306,0,0,1,17.492-1.454q4.945-.051,9.881.3C246.677,253.766,246.675,252.938,246.146,252.9Z" transform="translate(-202.332 -252.594)" fill="#fff"/>
          <path id="Trazado_822017" data-name="Trazado 822017" d="M300.023,255.2a127.294,127.294,0,0,0-18.174-2.045c-.533-.021-.531.806,0,.827A125.705,125.705,0,0,1,299.8,256C300.323,256.1,300.546,255.3,300.023,255.2Z" transform="translate(-234.48 -252.823)" fill="#fff"/>
          <path id="Trazado_822018" data-name="Trazado 822018" d="M263.177,359.932a5.561,5.561,0,0,1-4.643-4.2c-.12-.518-.917-.3-.8.22a6.4,6.4,0,0,0,5.44,4.81.416.416,0,0,0,.414-.413A.424.424,0,0,0,263.177,359.932Z" transform="translate(-224.84 -294.381)" fill="#ffb81e"/>
          <path id="Trazado_822019" data-name="Trazado 822019" d="M279.146,350.561a7.828,7.828,0,0,1-3.249,5.018c-.438.3-.024,1.015.417.714a8.647,8.647,0,0,0,3.629-5.512C280.04,350.26,279.244,350.038,279.146,350.561Z" transform="translate(-232.148 -292.28)" fill="#ffb81e"/>
          <path id="Trazado_822020" data-name="Trazado 822020" d="M271.4,337.07c-.811-2.169-2.822-3.978-2.747-6.424.016-.533-.811-.532-.827,0-.069,2.277,1.477,3.994,2.449,5.911a6.96,6.96,0,0,1,0,6.3c-.241.473.472.892.714.417A7.775,7.775,0,0,0,271.4,337.07Z" transform="translate(-228.943 -284.147)" fill="#ffecb5"/>
        </g>
      </g>
      <g id="_21" data-name="21" transform="translate(433.152 9138.558)">
        <g id="Grupo_1072418" data-name="Grupo 1072418" transform="translate(0 0)">
          <path id="Trazado_821853" data-name="Trazado 821853" d="M115.167,208.3c-.966,3.688-2.634,6.5-1.756,11.328,2.986,3.073,7.64,6.235,11.767,8.869h0c7.464,4.917,16.86,8.079,19.757,2.2.527-1.581-.79-3.864-1.932-5.005-3.512-3.512-9.308-4.917-10.274-10.274a20.631,20.631,0,0,1-.176-4.742Z" transform="translate(-98.206 -35.487)" fill="#4d4948" fill-rule="evenodd"/>
          <path id="Trazado_821854" data-name="Trazado 821854" d="M114.494,217.8c1.844,4.391,4.391,3.6,6.41,5.269,6.147,5.005,7.376,9.484,16.6,11.24,3.688.7,8.254-.615,8.957-2.9l-.351,2.459c-.79,1.932-5.269,3.512-8.957,2.722-10.01-2.283-22.919-13-23.8-15.016C112.474,219.82,114.143,219.117,114.494,217.8Z" transform="translate(-99.552 -36.645)" fill="#3c3c3b" fill-rule="evenodd"/>
          <path id="Trazado_821855" data-name="Trazado 821855" d="M105.664,110.264s.351.263.878.615a19.512,19.512,0,0,1,1.317-2.02l.351-.176s28.363,24.06,28.187,45.574v.263h0v.615h0v.615h0v.615h0v.615h0v.615h0v.615h0v.615h0v6.322l-.088.439-.088.439-.088.439-.088.439-.088.439-.088.439-.088.439-.088.439-.088.439-.088.439-.088.439h0l-.088.439h0l-.088.439h0l-.088.439h0l-.088.439h0l-.088.351h0l-.088.351h0l-.088.351h0l-.088.351h0l-.088.351h0l-.088.351h0l-.088.351h0l-.088.351h0l-.088.351h0l-.088.351h0l-.088.351h0l-.088.351h0l-.088.351h0l-.088.351h0l-.088.351h0l-.088.351h0l-.176.351-.176.351-.176.351-.176.351-.176.351-.176.351-.176.351-.176.351-.176.351-.176.351-.176.351-.176.351-.176.351-.176.351c-1.4,7.815-11.24,8.781-17.035,5.005h.263a6.17,6.17,0,0,1-2.986-4.215c2.107-20.723-4.917-38.637-16.947-45.662,2.371,13.962-11.152,51.808-15.191,57.428-.351,6.761-17.387,10.274-17.035-3.425-1.844-6.937,5.708-14.489,8.518-31.348,1.054-6.059-1.932-23.8-1.932-29.153-.088-17.913,1.581-25.553,7.64-31.7,4.654,5.62,19.406,14.664,26.255,11.591Z" transform="translate(-44.622 -22.189)" fill="#ffd835" fill-rule="evenodd"/>
          <path id="Trazado_821856" data-name="Trazado 821856" d="M66.351,141.725Zm0,.176h0v-.176C66.263,141.725,66.263,141.813,66.351,141.9Zm5.093-8.781c0,11.591,10.713-11.854,10.713,5.093,0,4.742,4.039,2.371,6.41,4.83,5.444,5.444,16.421,21.162,15.982,29.768-.263,4.391-.439,8.342-.615,11.942v.088l-.176.351-.176.351-.176.351-.176.351-.176.351c-1.4,7.815-11.24,8.781-17.035,5.005h.263a6.17,6.17,0,0,1-2.986-4.215c2.107-20.636-4.917-38.637-16.947-45.662h0c2.107-2.459,1.493-8.605,5.093-8.605ZM66.351,141.9h0v0Z" transform="translate(-16.549 -26.165)" fill="#e0af00" fill-rule="evenodd"/>
          <path id="Trazado_821857" data-name="Trazado 821857" d="M81.3,103.66l-7.2,6.41c-3.249-2.459-10.01-9.747-14.313-14.577C56.365,91.63,38.1,73.277,34.324,62.213c4.83-11.679-8.518-18.967-1.581-19.845s10.45.615,15.279,6.322c3.776,6.849,15.191,31.261,20.46,37.846C78.054,97.864,80.513,98.391,81.3,103.66Z" transform="translate(37.958 -15.233)" fill="#ffd835" fill-rule="evenodd"/>
          <path id="Trazado_821858" data-name="Trazado 821858" d="M58.067,84.979c11.591,4.215.088,2.547,1.229,5.708.615,1.581,2.371.088,5.005,2.02,4.83,3.6.7,7.991,9.571,13,2.02,1.142,3.864,2.2,7.464.263.088,3.6-1.844,5.883-6.761,5.971-7.9.966-17.211-13.084-21.514-17.913C48.847,89.281,33.129,62.5,31.2,57.406c10.362-1.581,16.157-.615,18.616,5.269C52.71,69.436,51.832,81.554,58.067,84.979Z" transform="translate(37.485 -17.012)" fill="#e0af00" fill-rule="evenodd"/>
          <path id="Trazado_821859" data-name="Trazado 821859" d="M51.661,197.72c-.088,3.776-.966,6.937,1.054,11.415a71.122,71.122,0,0,0,13.611,5.62h0c8.43,2.9,18.352,3.6,19.67-2.81.088-1.668-1.668-3.512-3.073-4.391-4.215-2.547-10.274-2.371-12.557-7.376a17.727,17.727,0,0,1-1.317-4.478Z" transform="translate(15.089 -33.951)" fill="#4d4948" fill-rule="evenodd"/>
          <path id="Trazado_821860" data-name="Trazado 821860" d="M51.736,207.8c2.9,3.864,5.093,2.459,7.464,3.512,7.2,3.337,9.484,7.376,18.879,6.761,3.776-.263,7.815-2.634,7.9-5.005l.263,2.459c-.263,2.02-4.3,4.742-7.991,4.83-5.8.176-10.625-1.844-17.035-4.654-4.83-2.107-8.342-2.371-9.659-3.951C50.244,210.259,51.648,209.117,51.736,207.8Z" transform="translate(15.189 -35.426)" fill="#3c3c3b" fill-rule="evenodd"/>
          <path id="Trazado_821861" data-name="Trazado 821861" d="M142.35,225.847c-5.356-5.269-8.254-2.81-9.835-8.43-4.127,1.844-12.206-.527-15.016-4.917h0c-2.283,6.41,1.932,5.181,6.059,8.342,4.039,2.986,10.625,10.45,16.245,10.713C144.37,231.731,144.721,228.13,142.35,225.847Z" transform="translate(-100.187 -35.999)" fill="#666" fill-rule="evenodd"/>
          <path id="Trazado_821862" data-name="Trazado 821862" d="M82.9,48.974s-.351,9.045-1.142,13.7c-.79,9.308-6.5,21.162-10.274,29.944,4.83,16.245,20.372,25.29,31.7,9.132,11.854-6.586,20.372-23.27,19.933-41.535-1.4-5.532-1.756-13.084-7.288-16.245C105.991,38.349,82.721,48.71,82.9,48.974Z" transform="translate(-39.68 -15.253)" fill="#ffd835" fill-rule="evenodd"/>
          <path id="Trazado_821863" data-name="Trazado 821863" d="M124.045,139.541c2.107,8.869,3.6,19.582,2.459,29.592-.7,6.5-12.206,27.748-17.65,27.748-.263,4.654-6.761,8.518-15.191.966,1.054-.351,6.235.351,7.727-.439,10.362-5.8,5.269-23.006,7.64-25.114,3.425-3.073,7.464-.439,8.43-4.83,2.722-12.733-3.512-33.807-6.5-46.1,2.02-.7,7.552,12.03,14.4,7.025,1.317-.966,7.991-8.605,12.381-14.489C141.344,118.291,126.5,137.346,124.045,139.541Z" transform="translate(-74.33 -23.981)" fill="#e0af00" fill-rule="evenodd"/>
          <path id="Trazado_821864" data-name="Trazado 821864" d="M145.381,211.473a21.6,21.6,0,0,0,0-3.512c-1.581,7.025-17.913,4.478-16.772-3.864a17.791,17.791,0,0,0-1.581,4.917C128.17,216.127,144.415,218.41,145.381,211.473Z" transform="translate(-110.77 -34.972)" fill="#3c3c3b"/>
          <path id="Trazado_821865" data-name="Trazado 821865" d="M20.368,117.909c0-1.493,3.249-4.742,4.391-3.073,1.317,1.229,6.235,6.147,6.586,6.586.439.7.7,1.142,1.142,1.932a3.647,3.647,0,0,1,.439,2.722c-.088.966-.088,3.864-.176,4.742a24.089,24.089,0,0,1-1.317,5.093.972.972,0,0,1-.878-.439c-.263.527-.439,1.493-1.142,1.317a1.786,1.786,0,0,1-1.142-1.668l-.176.615c-.966.439-1.844-1.229-1.932-1.932-.088-.615.176-2.634.088-3.249-.263-1.581-.79-5.181-.527-1.493.176,1.668,0,3.864-.79,3.425-1.668-.878-.878-2.283-1.142-3.864-.263-1.4-.966-4.3-1.932-5.532C19.841,120.455,20.368,120.016,20.368,117.909Z" transform="translate(95.38 -24.038)" fill="#3c3c3b" fill-rule="evenodd"/>
          <path id="Trazado_821866" data-name="Trazado 821866" d="M35.678,112.2a28.651,28.651,0,0,1-7.2,6.41c1.668,1.229,2.81,2.02,2.81,2.02,4.127-1.581,6.937-4.215,6.235-6.41C37,113.693,36.38,112.99,35.678,112.2Z" transform="translate(83.583 -23.773)" fill="#575756" fill-rule="evenodd"/>
          <path id="Trazado_821867" data-name="Trazado 821867" d="M88.433,196.623a19.214,19.214,0,0,0-.878-3.337c.176,7.2-16.245,8.781-17.211.439a16.829,16.829,0,0,0-.263,5.093C72.978,205.4,89.311,203.56,88.433,196.623Z" transform="translate(-3.682 -33.645)" fill="#3c3c3b"/>
          <path id="Trazado_821868" data-name="Trazado 821868" d="M82.772,209.461c-6.5-3.776-8.693-.7-11.591-5.708-3.512,2.81-11.942,2.547-15.806-1.054h0c-.615,6.761,3.161,4.566,7.991,6.586,4.654,1.932,12.908,7.464,18.44,6.322C86.109,214.642,85.582,211.042,82.772,209.461Z" transform="translate(12.692 -34.804)" fill="#666" fill-rule="evenodd"/>
          <g id="Grupo_1072416" data-name="Grupo 1072416" transform="translate(51.173 92.501)">
            <path id="Trazado_821869" data-name="Trazado 821869" d="M41.824,128.6,15.217,200.956a6.153,6.153,0,0,0-.263,1.229c-3.249,20.723,46.013,37.583,54,17.65h0L95.3,148.27Z" transform="translate(-13.251 -118.273)" fill="#cc4700" fill-rule="evenodd"/>
            <path id="Trazado_821870" data-name="Trazado 821870" d="M53.588,141.4,21.8,228.684c6.674,1.844,13.435,2.2,18.792.7l29.768-81.84Z" transform="translate(5.544 -119.834)" fill="#ba1c00" fill-rule="evenodd"/>
            <path id="Trazado_821871" data-name="Trazado 821871" d="M76.855,156,50.6,228.181c1.229.527,2.547,1.054,3.864,1.493l26.255-72.181C79.4,157.054,78.085,156.527,76.855,156Z" transform="translate(-30.105 -121.613)" fill="#ba1c00" fill-rule="evenodd"/>
            <g id="Grupo_1072412" data-name="Grupo 1072412" transform="translate(18.704 24.025)">
              <path id="Trazado_821872" data-name="Trazado 821872" d="M78.684,168.958a11.346,11.346,0,0,0-.088-4.215l-2.107,5.8h0c-7.64,20.2-57.253,3.337-54-17.474a7.593,7.593,0,0,1,.527-2.02l1.932-5.444a11.545,11.545,0,0,0-4.215,7.025C16.6,177.475,74.557,194.159,78.684,168.958Z" transform="translate(-20.519 -144.371)" fill="#ba1c00" fill-rule="evenodd"/>
              <path id="Trazado_821873" data-name="Trazado 821873" d="M78.284,167.558a11.346,11.346,0,0,0-.088-4.215l-2.107,5.8h0c-7.64,20.2-57.253,3.337-54-17.474a7.594,7.594,0,0,1,.527-2.02l1.932-5.444a11.545,11.545,0,0,0-4.215,7.025C16.2,176.075,74.157,192.759,78.284,167.558Z" transform="translate(-19.768 -144.2)" fill="#f60" fill-rule="evenodd"/>
            </g>
            <g id="Grupo_1072413" data-name="Grupo 1072413" transform="translate(7.806 54.056)">
              <path id="Trazado_821874" data-name="Trazado 821874" d="M91.093,203.158a11.346,11.346,0,0,0-.088-4.215l-2.107,5.8h0c-7.64,20.2-57.253,3.337-54-17.474a7.594,7.594,0,0,1,.527-2.02l1.932-5.444a11.545,11.545,0,0,0-4.215,7.025C28.923,211.675,86.878,228.359,91.093,203.158Z" transform="translate(-32.919 -178.571)" fill="#ba1c00" fill-rule="evenodd"/>
              <path id="Trazado_821875" data-name="Trazado 821875" d="M90.684,201.758a11.346,11.346,0,0,0-.088-4.215l-2.107,5.8h0c-7.64,20.2-57.253,3.337-54-17.474a7.594,7.594,0,0,1,.527-2.02l1.932-5.444a11.545,11.545,0,0,0-4.215,7.025C28.6,210.275,86.557,226.872,90.684,201.758Z" transform="translate(-32.159 -178.4)" fill="#f60" fill-rule="evenodd"/>
            </g>
            <path id="Trazado_821876" data-name="Trazado 821876" d="M70.425,146.329c1.493-9.835-10.186-21.514-26.255-26.08s-30.295-.176-31.788,9.659,10.186,21.6,26.255,26.08C54.619,160.466,68.845,156.164,70.425,146.329Z" transform="translate(13.732 -117.035)" fill="#ba1c00" fill-rule="evenodd"/>
            <path id="Trazado_821877" data-name="Trazado 821877" d="M70.025,144.729c1.493-9.835-10.186-21.6-26.255-26.08-16.069-4.566-30.295-.176-31.788,9.659s10.186,21.6,26.255,26.08C54.219,158.954,68.532,154.651,70.025,144.729Z" transform="translate(14.484 -116.84)" fill="#f60" fill-rule="evenodd"/>
            <path id="Trazado_821878" data-name="Trazado 821878" d="M68.6,144.462c1.4-9.308-9.571-20.284-24.675-24.5-15.1-4.3-28.451-.176-29.944,9.132-1.4,9.308,9.571,20.284,24.675,24.5S67.2,153.77,68.6,144.462Z" transform="translate(14.151 -117.013)" fill="#f60" fill-rule="evenodd"/>
            <path id="Trazado_821879" data-name="Trazado 821879" d="M66.485,143.991c1.317-8.43-8.781-18.44-22.48-22.3s-25.9-.176-27.221,8.254,8.781,18.44,22.48,22.3C53.05,156.2,65.168,152.421,66.485,143.991Z" transform="translate(13.809 -117.244)" fill="#cc4700" fill-rule="evenodd"/>
            <path id="Trazado_821880" data-name="Trazado 821880" d="M66.141,146.455c1.317-8.254-8.605-18.089-22.041-21.865-11.854-3.337-22.48-.966-25.729,5.356,0,.176-.088.351-.088.615-1.317,8.254,8.605,18.089,22.041,21.865,11.854,3.337,22.48.966,25.729-5.356A1.714,1.714,0,0,0,66.141,146.455Z" transform="translate(12.836 -117.601)" fill="#f60" fill-rule="evenodd"/>
            <g id="Grupo_1072414" data-name="Grupo 1072414" transform="translate(62.995 12.215)">
              <path id="Trazado_821881" data-name="Trazado 821881" d="M34.346,135.711c.263-1.756-1.844-3.864-4.742-4.654s-5.444,0-5.708,1.756,1.844,3.864,4.742,4.654S34.083,137.555,34.346,135.711Z" transform="translate(-23.282 -130.751)" fill="#f60" fill-rule="evenodd"/>
              <path id="Trazado_821882" data-name="Trazado 821882" d="M24.79,132.5ZM24,134.871v.263c.088,1.668,2.107,3.512,4.742,4.215s5.005.176,5.62-1.317h0l.615-1.581c-.615,1.4-2.986,1.932-5.532,1.229-2.9-.79-5.005-2.9-4.742-4.654a.528.528,0,0,1,.088-.351l-.527,1.4c-.088.088-.088.176-.088.351h0a.323.323,0,0,1-.088.263C24,134.7,24,134.783,24,134.871Z" transform="translate(-24 -130.964)" fill="#cc4700" fill-rule="evenodd"/>
              <path id="Trazado_821883" data-name="Trazado 821883" d="M33.9,135.677c.263-1.581-1.668-3.425-4.215-4.215-2.547-.7-4.83,0-5.093,1.581s1.668,3.425,4.215,4.215C31.446,137.872,33.729,137.258,33.9,135.677Z" transform="translate(-23.455 -130.804)" fill="#cc4700" fill-rule="evenodd"/>
              <path id="Trazado_821884" data-name="Trazado 821884" d="M33.7,135.277c.263-1.581-1.668-3.425-4.215-4.215-2.547-.7-4.83,0-5.093,1.581s1.668,3.425,4.215,4.215C31.158,137.472,33.441,136.858,33.7,135.277Z" transform="translate(-23.079 -130.755)" fill="#f60" fill-rule="evenodd"/>
            </g>
            <g id="Grupo_1072415" data-name="Grupo 1072415" transform="translate(0 75.394)">
              <path id="Trazado_821885" data-name="Trazado 821885" d="M99.984,227.458a11.346,11.346,0,0,0-.088-4.215l-2.107,5.8h0c-7.64,20.2-57.253,3.337-54-17.474a7.594,7.594,0,0,1,.527-2.02l1.932-5.444a11.545,11.545,0,0,0-4.215,7.025C37.9,235.975,95.857,252.659,99.984,227.458Z" transform="translate(-41.819 -202.871)" fill="#ba1c00" fill-rule="evenodd"/>
              <path id="Trazado_821886" data-name="Trazado 821886" d="M99.584,226.058a11.345,11.345,0,0,0-.088-4.215l-2.107,5.8h0c-7.64,20.2-57.253,3.337-54-17.474a7.6,7.6,0,0,1,.527-2.02l1.932-5.444a11.545,11.545,0,0,0-4.215,7.025C37.5,234.575,95.457,251.172,99.584,226.058Z" transform="translate(-41.068 -202.7)" fill="#f60" fill-rule="evenodd"/>
            </g>
            <path id="Trazado_821887" data-name="Trazado 821887" d="M34.586,164.452v-1.844a11.9,11.9,0,0,0-.527,1.4l.527.439Zm0-5.444-1.493,4.127a12.717,12.717,0,0,1-1.493-1.581,3.266,3.266,0,0,1-.878-1.932,5.758,5.758,0,0,1,.439-2.547c.263-.7.527-1.493.79-2.2s.527-1.493.79-2.2a2.273,2.273,0,0,1,1.054-1.493.866.866,0,0,1,.878.176v1.581c-.088-.088-.263,0-.351,0-.176.088-.351.439-.527.966-.263.79-.615,1.581-.878,2.371s-.615,1.581-.878,2.371a3.438,3.438,0,0,0-.263,1.142.8.8,0,0,0,.351.7l.351.351,1.317-3.688.79-2.2v4.039Zm0-7.64v1.581c.088,0,.176.088.263.176l.351.351-.527,1.493v3.951l.263-.7c.615-1.581,1.142-3.249,1.756-4.83l-1.581-1.581c-.176-.176-.351-.263-.527-.439Zm0,11.24.176-.615a7.955,7.955,0,0,1,1.054-2.283.627.627,0,0,1,.79-.263,1.584,1.584,0,0,1-.263-1.054,6.959,6.959,0,0,1,.351-1.493,4.643,4.643,0,0,1,.615-1.317.824.824,0,0,1,.7-.527,1.181,1.181,0,0,1,.7.176v1.493c-.176-.088-.263-.088-.351,0a3.361,3.361,0,0,0-.439.966v.088a3.189,3.189,0,0,0-.263.966q-.132.4,0,.527c0,.176.088.263.263.351s.263.263.439.351l.439-1.229V162.7l-1.4,3.776a9.942,9.942,0,0,1-1.142-.878,24.349,24.349,0,0,1,.878-2.283,24.35,24.35,0,0,1,.878-2.283c-.088-.088-.263-.176-.351-.263-.263-.176-.439-.263-.527-.176a2.68,2.68,0,0,0-.439.79c-.439,1.142-.7,2.02-.966,2.547a3.429,3.429,0,0,1-.351.878l-.527-.439v-1.756Zm4.127,4.917v-1.493l-.615,1.142A3.818,3.818,0,0,0,38.713,167.526Zm0-12.294v1.493a.189.189,0,0,1,.176.176c.088.088.263.176.351.263-.176.439-.351.966-.527,1.4l-.088.176V162.7l.351-1.054,1.668-4.478v-.527c-.615-.439-1.142-.878-1.756-1.317a.272.272,0,0,1-.176-.088Zm0,10.8,1.756-3.337.263-.439v2.634l-.176.263.176.088v1.4c-.263-.176-.439-.263-.7-.439l-.79,1.581a1.837,1.837,0,0,1-.527-.351Zm2.02-9.308v.527l.176-.439-.176-.088Zm0,5.444V164.8a21.1,21.1,0,0,0,.966-2.02,14.284,14.284,0,0,0,.966-2.02v-2.459l-1.932,3.864Zm0,3.073c.263.176.615.351.878.527.176-.878.439-1.756.615-2.546a14.037,14.037,0,0,0,.439-1.844v5.005l-.7,3.161c-.351-.176-.79-.439-1.142-.615a14.036,14.036,0,0,0,.439-1.844l-.527-.351v-1.493Zm1.932,4.566v-.527l-.176.439Zm0-11.415v2.459l.176-.351h0l-.176.7v5.005l.439-2.02c.439-1.756.79-3.425,1.229-5.181-.527-.351-1.054-.615-1.581-.966l-.088.351Zm0,10.889.263-.79c.527.263,1.054.527,1.668.79.176-1.317.351-2.722.439-4.039.176-1.317.351-2.722.527-4.039.176-.439.263-.79.439-1.229.878.439,1.844.878,2.81,1.317v.176l-.439,1.142c-.527-.263-1.054-.439-1.581-.7-.176,1.317-.263,2.634-.439,3.952s-.263,2.634-.439,3.951a7.728,7.728,0,0,0-.439,1.317c-.966-.439-1.844-.878-2.81-1.317v-.527Zm6.147,1.142v-1.317h-.088l.088-.088v-2.634l-.263.439c-.79,1.493-1.581,3.073-2.371,4.566a6.1,6.1,0,0,0,1.142.439c.263-.527.527-1.142.79-1.668A1.4,1.4,0,0,0,48.811,170.423Zm0-9.132v0Zm0,5.093v2.634c.351-.7.79-1.493,1.142-2.2h0v-2.634l-1.142,2.2Zm0,2.722v1.317l.7.263c-.176.615-.263,1.229-.439,1.756.263.088.527.176.878.263v-3.6l-.088.351A4.952,4.952,0,0,1,48.811,169.106Zm1.142-4.917v2.546c.351-.79.79-1.581,1.142-2.283h0c-.176.878-.439,1.668-.615,2.546-.176.7-.351,1.493-.527,2.2v3.6l.439.088c.351-1.668.79-3.337,1.142-5.093l.439-1.932V162.52c-.351-.088-.615-.263-.966-.351l-1.054,2.02Zm2.02,9.22a2.067,2.067,0,0,0-.7-.176l.7-1.932Zm0-10.889v3.337l.7-3.161-.7-.176Zm0,8.693,1.054-2.9c.615-1.581,1.142-3.249,1.756-4.83.439.088.878.263,1.317.351-.263.615-.439,1.317-.7,1.932s-.439,1.317-.7,1.932c.351.088.79.176,1.229.263.263-.615.439-1.317.7-1.932s.439-1.317.7-1.932c.439.088.79.176,1.229.263v.351l-1.668,4.478c-.615,1.581-1.142,3.249-1.756,4.83l-1.317-.263c.263-.79.527-1.493.79-2.283s.527-1.493.79-2.283c-.351-.088-.79-.176-1.229-.263-.263.79-.527,1.493-.79,2.283s-.527,1.493-.79,2.283l-.615-.176v-2.107Zm6.5,3.512v-1.4c-.088-.088-.176-.176-.088-.351,0-.176.088-.351.088-.615v-4.039l-.351,1.054c-.263.7-.527,1.493-.79,2.2a3.456,3.456,0,0,0-.263,2.2,1.264,1.264,0,0,0,1.229.878C58.383,174.726,58.383,174.726,58.471,174.726Zm0-10.362v.351l.088-.351Zm0,4.039.439-1.142a5.6,5.6,0,0,1,1.142-1.932,2.532,2.532,0,0,1,1.668-.527V166.3a.456.456,0,0,0-.351-.176.8.8,0,0,0-.615.263,3.144,3.144,0,0,0-.527.966c-.263.79-.527,1.493-.79,2.283s-.527,1.493-.79,2.283a1.821,1.821,0,0,0-.176.527V168.4Zm0,5.005v1.4a2.116,2.116,0,0,0,1.581-.615,4.079,4.079,0,0,0,1.229-2.107l.439-1.142v-4.127a1.248,1.248,0,0,1-.176.527c-.263.79-.527,1.493-.79,2.283s-.527,1.493-.79,2.283a2.74,2.74,0,0,1-.527,1.142c-.176.176-.351.351-.615.263a.664.664,0,0,1-.351.088ZM61.72,174.9h0v0Zm4.127-3.952c-.176.263-.263.615-.439.878,0,.088-.088.176-.088.263a3.238,3.238,0,0,0-.263,2.107q.132.4.79.527V170.95ZM61.72,164.8V166.3c0,.088,0,.088.088.176a.955.955,0,0,1-.088.439v4.127l.439-1.142c.263-.7.527-1.493.79-2.2a2.821,2.821,0,0,0,.176-2.02,1.461,1.461,0,0,0-1.317-.79l-.088-.088Zm0,9.923,1.756-4.742c.615-1.581,1.142-3.249,1.756-4.83h.615v2.283l-.966,2.547c-.615,1.581-1.142,3.249-1.756,4.83h-1.4Zm4.83-4.83a9.333,9.333,0,0,0-.79.966v3.776h.7v-1.229a.307.307,0,0,1-.088-.176,1.978,1.978,0,0,1,.088-.615V169.9Zm-.7-4.742v2.283l.79-2.107v-.263A2.431,2.431,0,0,1,65.847,165.155Zm1.317,2.459c-.351,1.054-.351,1.668.176,1.844a3.081,3.081,0,0,0-.7.439v2.722c0-.176.088-.263.176-.439l.263-.79a2.859,2.859,0,0,1,.527-1.054c0-.088.088-.088.176-.176V166.3a10.3,10.3,0,0,0-.439.966c-.088.176-.176.263-.176.351Zm-.615,7.113c.351,0,.7-.088,1.054-.088v-1.4l-.088.263c-.176,0-.351.088-.527.088a.658.658,0,0,1-.439-.088v1.229Zm0-9.571v0Zm1.142,9.4a3.157,3.157,0,0,0,.966-.176l.615-1.668v-3.951h0c-.176,0-.351.088-.527.088a.516.516,0,0,1-.439-.176,3.189,3.189,0,0,1,.263-.966,1.269,1.269,0,0,0,.176-.615,3.159,3.159,0,0,1,.439-.79l.088-.088v-1.142a3.245,3.245,0,0,0-.966.439,1.912,1.912,0,0,0-.615.79v3.864a1.248,1.248,0,0,1,.527-.176c.176,0,.439-.088.615-.088-.176.615-.439,1.142-.615,1.756l-.527,1.493Zm1.581-1.756,1.142-3.249c.615-1.581,1.142-3.249,1.756-4.83-.7.088-1.4.176-2.2.263a2.564,2.564,0,0,0-.79.176V166.3a.742.742,0,0,1,.527-.176,1.114,1.114,0,0,0,.527-.088c-.176.439-.351.966-.527,1.4l-.527,1.317v4.039Z" transform="translate(-4.081 -121.021)"/>
            <path id="Trazado_821888" data-name="Trazado 821888" d="M62.607,206.631v-1.668a4.536,4.536,0,0,1-1.844.615,5.272,5.272,0,0,1-4.742-3.161,6.954,6.954,0,0,0,2.459,3.337,5.292,5.292,0,0,0,3.776.878h.351a.664.664,0,0,0-.351.088,5.885,5.885,0,0,1-3.776-.878,6.82,6.82,0,0,1-2.459-3.337,5.428,5.428,0,0,0,4.742,3.161,3.526,3.526,0,0,0,1.844-.615v-.088a3.311,3.311,0,0,1-1.844.615,4.858,4.858,0,0,1-4.742-3.161,6.954,6.954,0,0,0,2.459,3.337,5.1,5.1,0,0,0,3.776.878Zm0-3.425a7.016,7.016,0,0,1-1.229-2.722,8,8,0,0,1,.263-3.688c.263-.615.088-.263.176-.351.176.088.351.263.527.351l.263.263v6.147Zm0-6.849v-2.283a6.115,6.115,0,0,0-2.2-.439,4.988,4.988,0,0,0-3.249,1.229,5.947,5.947,0,0,0-1.581,3.425,3.955,3.955,0,0,1,3.776-3.249,4.571,4.571,0,0,1,3.249,1.317,4.975,4.975,0,0,0-3.249-1.317,3.955,3.955,0,0,0-3.776,3.249,5.947,5.947,0,0,1,1.581-3.425,4.82,4.82,0,0,1,3.249-1.229,6.114,6.114,0,0,1,2.2.439h0a6.114,6.114,0,0,0-2.2-.439,4.988,4.988,0,0,0-3.249,1.229,5.947,5.947,0,0,0-1.581,3.425,3.955,3.955,0,0,1,3.776-3.249A4.571,4.571,0,0,1,62.607,196.357Zm5.093-3.249a7.625,7.625,0,0,0-2.02.088,2.79,2.79,0,0,0,.263.79,2.628,2.628,0,0,0,.351.7,8.035,8.035,0,0,1,1.493-.088v-1.493Zm-5.093.966h0c.263.088.527.263.79.351a6.338,6.338,0,0,1,.351-3.337,5.563,5.563,0,0,1,2.371-2.9,5.882,5.882,0,0,1,1.581-.615h0a8.45,8.45,0,0,0-1.581.615,5.925,5.925,0,0,0-2.371,2.9,7.379,7.379,0,0,0-.351,3.337c-.263-.088-.527-.263-.79-.351Zm0,0c.263.088.527.263.79.351a6.338,6.338,0,0,1,.351-3.337,5.563,5.563,0,0,1,2.371-2.9,5.882,5.882,0,0,1,1.581-.615v.263a4.444,4.444,0,0,0-2.371,2.634,5.553,5.553,0,0,0,2.371,6.41v.527l-.176.439a1.848,1.848,0,0,0-1.668.966.861.861,0,0,0-.088.615c-.351.088-.79.088-1.142.176a5.52,5.52,0,0,0-2.02-3.161h-.088v-2.371Zm0,2.986v6.059c.176.176.263.351.439.527a1.213,1.213,0,0,0,.263-.351,2.093,2.093,0,0,0,.527-.966,5.2,5.2,0,0,1-.878-4.917c-.088,0-.176-.176-.351-.351Zm0,7.815a5.011,5.011,0,0,0,1.229-1.142,5.33,5.33,0,0,0,.966-3.512c.439-.088.79-.088,1.229-.176a1.246,1.246,0,0,0,.79.7,2.987,2.987,0,0,0,.878.088h0a1.039,1.039,0,0,1-.878-.088,1.549,1.549,0,0,1-.79-.7c-.439.088-.79.088-1.229.176a5.33,5.33,0,0,1-.966,3.512,4.865,4.865,0,0,1-1.229,1.142Zm0,.088a4.092,4.092,0,0,0,1.229-1.229,5.33,5.33,0,0,0,.966-3.512c.439-.088.79-.088,1.229-.176a1.246,1.246,0,0,0,.79.7,2.987,2.987,0,0,0,.878.088v2.283a4.719,4.719,0,0,0-.439,1.844,5.051,5.051,0,0,0,.439,2.283v.088a3.729,3.729,0,0,1-.439-2.371,4.719,4.719,0,0,1,.439-1.844,4.719,4.719,0,0,0-.439,1.844,3.729,3.729,0,0,0,.439,2.371v1.756a4.158,4.158,0,0,1-1.142-.966,5.6,5.6,0,0,1-1.4-2.9,4.961,4.961,0,0,1-2.547,1.229,4.961,4.961,0,0,0,2.547-1.229,5.268,5.268,0,0,0,1.4,2.9,6.047,6.047,0,0,0,1.142.966h0a6.046,6.046,0,0,1-1.142-.966,6.379,6.379,0,0,1-1.4-2.9,5.322,5.322,0,0,1-2.547,1.229v-1.493Zm0-8.605h0a6.044,6.044,0,0,1,2.02,3.249c.351-.088.79-.088,1.142-.176a.861.861,0,0,1,.088-.615,1.848,1.848,0,0,1,1.668-.966l.176-.439-.176.439a1.848,1.848,0,0,0-1.668.966.861.861,0,0,0-.088.615c-.351.088-.79.088-1.142.176a5.74,5.74,0,0,0-2.02-3.249Zm5.093.527a5.553,5.553,0,0,1-2.371-6.41,4.207,4.207,0,0,1,2.371-2.634,4.444,4.444,0,0,0-2.371,2.634A5.6,5.6,0,0,0,67.7,196.884Zm1.229-3.512c-.439-.088-.878-.176-1.229-.263V194.6a5.064,5.064,0,0,1,1.229.263h0v-1.493Zm-1.229-5.8h0a5.929,5.929,0,0,1,1.229-.176v.088a5.034,5.034,0,0,0-1.229.351v-.263a5.929,5.929,0,0,1,1.229-.176,6.887,6.887,0,0,0-1.229.176Zm0,9.308v.527l.176-.439-.176-.088Zm0,3.951h0c.088,0,.176,0,.176-.088.263.351.527.615.79.966a5.769,5.769,0,0,0-1.054,1.493,5.769,5.769,0,0,1,1.054-1.493,9.327,9.327,0,0,1-.79-.966c0,.088-.088.088-.176.088v2.283a5.768,5.768,0,0,1,1.054-1.493,9.331,9.331,0,0,1-.79-.966c-.088.176-.176.176-.263.176Zm0,6.41v.088c.176.263.439.615.7.966.176.176.351.263.527.439a2.328,2.328,0,0,1-.527-.439,3.36,3.36,0,0,1-.7-.966v1.756a3.079,3.079,0,0,0,1.229.527v-.966a2.329,2.329,0,0,1-.527-.439,2.126,2.126,0,0,1-.7-.966Zm0,1.932a3.078,3.078,0,0,0,1.229.527h0a3.718,3.718,0,0,1-1.229-.527Zm1.229-3.951v-1.581c-.263.088-.615.176-.966.263a4.408,4.408,0,0,0-.176,1.054v.439a4.449,4.449,0,0,0,1.142-.176Zm0-4.3-.439-.527c.176-.176.176-.088.351-.527a1.807,1.807,0,0,0-.615-1.844,3.669,3.669,0,0,1,.351-.878c.176,0,.263.088.439.088v3.688ZM67.7,197.41l.176-.439-.176-.088.176.088-.176.439Zm0-9.571a5.034,5.034,0,0,1,1.229-.351,6.468,6.468,0,0,0-1.229.351Zm1.229,9.4c-.176,0-.263-.088-.439-.088a3.67,3.67,0,0,1-.351.878,1.76,1.76,0,0,1,.615,1.844c-.176.439-.176.351-.351.527l.439.527L68.4,200.4c.176-.176.176-.088.351-.527a1.807,1.807,0,0,0-.615-1.844,3.668,3.668,0,0,1,.351-.878A.955.955,0,0,0,68.929,197.235Zm.527-3.688c-.176-.088-.351-.088-.527-.176v1.581a5.4,5.4,0,0,1,1.668,1.054v-1.932a4.542,4.542,0,0,0-1.142-.527Zm-.527-6.147Zm0,9.835v3.688l.351.351a7.265,7.265,0,0,1,1.4-.79h0a4.454,4.454,0,0,0-1.4.79l-.351-.351.351.351a7.265,7.265,0,0,1,1.4-.79v-3.337a3.967,3.967,0,0,1-1.756.088Zm0,6.41v1.581a5.824,5.824,0,0,0,1.668-.79v-1.844a4.532,4.532,0,0,1-1.668,1.054Zm0,5.093v.966a4.406,4.406,0,0,0,1.054.176H70.6v-.527a3.251,3.251,0,0,1-1.668-.615Zm0,.966a4.406,4.406,0,0,0,1.054.176h0a4.408,4.408,0,0,1-1.054-.176Zm.79-22.216h-.79a1.218,1.218,0,0,1,.79,0h0Zm.966,21.865a4.706,4.706,0,0,1-1.668-.615,4.141,4.141,0,0,0,1.668.615Zm0-12.206a5.338,5.338,0,0,1-1.668.088A3.641,3.641,0,0,0,70.685,197.147Zm0-1.229.527.527a1.765,1.765,0,0,0,.7-.351,3.081,3.081,0,0,0,.7-.439,5.915,5.915,0,0,0-1.932-1.668v1.932Zm0,1.229a5.662,5.662,0,0,0,3.951-3.337,4.205,4.205,0,0,0-1.4-5.093,6.153,6.153,0,0,1,2.283,2.9,5.591,5.591,0,0,1-.088,3.776,5.718,5.718,0,0,1-1.932,2.722,5.562,5.562,0,0,1,2.81,1.317,4.33,4.33,0,0,1,1.668,2.986,5.992,5.992,0,0,1-.966,3.688,3.728,3.728,0,0,0-.79-4.917,4.84,4.84,0,0,0-3.425-1.054,6.514,6.514,0,0,0-2.2.439h0a6.514,6.514,0,0,1,2.2-.439,5.242,5.242,0,0,1,3.425,1.054,4,4,0,0,1,.79,4.917,5.852,5.852,0,0,0,.966-3.688,4.482,4.482,0,0,0-1.668-2.986,5.922,5.922,0,0,0-2.81-1.317,6.721,6.721,0,0,0,1.932-2.722,5.515,5.515,0,0,0-2.2-6.674,4.131,4.131,0,0,1,1.4,5.093,5.634,5.634,0,0,1-3.951,3.337,5.662,5.662,0,0,0,3.951-3.337,4.205,4.205,0,0,0-1.4-5.093,6.153,6.153,0,0,1,2.283,2.9,5.591,5.591,0,0,1-.088,3.776,5.718,5.718,0,0,1-1.932,2.722,5.922,5.922,0,0,1,2.81,1.317,4.482,4.482,0,0,1,1.668,2.986,5.992,5.992,0,0,1-.966,3.688,4,4,0,0,0-.79-4.917,4.422,4.422,0,0,0-3.425-1.054,4.913,4.913,0,0,0-2.2.439v-3.425Zm0,5.444v1.844c.176-.088.351-.263.527-.351a9.872,9.872,0,0,0,2.2-2.986c.263-.615.088-.263.088-.351H72.88a3.6,3.6,0,0,0-.966.088,7.923,7.923,0,0,1-1.229,1.756Zm0,6.849v.527A6.971,6.971,0,0,0,74.11,209a5.279,5.279,0,0,1-3.425.439Zm0,.527A6.971,6.971,0,0,0,74.11,209a5.832,5.832,0,0,1-3.425.439A5.832,5.832,0,0,0,74.11,209,7.236,7.236,0,0,1,70.685,209.967Z" transform="translate(-31.75 -125.441)" fill-rule="evenodd"/>
          </g>
          <path id="Trazado_821889" data-name="Trazado 821889" d="M22.375,121.7c.263,1.493,2.459,2.283,3.688,2.986,1.4.79.966,3.425,3.073,4.215,2.02.79-1.317-6.322-1.844-7.288-.439-.79-2.371-3.073-3.512-2.722C21.936,119.51,22.462,120.476,22.375,121.7Z" transform="translate(96.798 -24.585)" fill="#575756" fill-rule="evenodd"/>
          <path id="Trazado_821890" data-name="Trazado 821890" d="M120.605,66.7c-3.073,7.464-8.518,13.523-16.772,13.523-7.2,0-7.64,8.166-10.889,0-1.054-2.722-15.279,9.835-17.123,12.03-3.776,4.654.878,5.8,3.776,9.571,4.83,6.322-10.8-3.864-7.815.527,1.229,1.756,2.2,6.322,5.444,9.308,5.8,5.181,12.733,11.942,23.446-6.937C111.736,98.575,119.9,83.56,120.605,66.7Z" transform="translate(-37.083 -18.227)" fill="#e0af00" fill-rule="evenodd"/>
          <path id="Trazado_821891" data-name="Trazado 821891" d="M112.763,45.658c-5.181,1.581-10.625,10.889-18.879,13-4.742,1.142-11.24.263-16.684-1.844.263-3.951.439-7.64.439-7.64-.176-.263,20.723-9.571,31.348-5.8.439.878,1.493,2.9,3.864,2.459Z" transform="translate(-34.422 -15.275)" fill="#ffea82" fill-rule="evenodd"/>
          <path id="Trazado_821892" data-name="Trazado 821892" d="M84.406,21.8c-.79,2.2-4.917,15.718-9.132,19.757C82.562,44.1,81.6,63.247,90.9,59.734,93.889,58.593,96.875,54.29,96.963,47c-2.371-3.425-4.391-2.722,1.668-10.186C100.212,34.269,84.406,21.8,84.406,21.8Z" transform="translate(-18.622 -12.754)" fill="#e0af00" fill-rule="evenodd"/>
          <path id="Trazado_821893" data-name="Trazado 821893" d="M85.032,31.521c-.527,1.142-2.02.7-2.283,6.147-.176,3.337-.7,3.161-4.039,7.64-1.932,2.547-8.43,6.5-10.889,3.249-.79-.966-2.371-8.166-6.674-3.425-1.317,1.4-1.932-2.283-1.4-6.937.176-1.142,2.547-13.172-.263-6.41-4.215,10.45-.439-13.611,3.776-17.035,4.215-3.688,12.908-5.8,22.392,2.459,3.776,3.337,6.41,10.1,2.547,13.786C87.139,32.048,85.647,29.589,85.032,31.521Z" transform="translate(5.515 -11.499)" fill="#ffd835" fill-rule="evenodd"/>
          <path id="Trazado_821894" data-name="Trazado 821894" d="M87.4,24.591c-2.371-1.229-8.693-4.215-13.084.176-.878.878-10.01,9.484-6.5,2.371,1.4-2.9-1.844-3.512-2.547-2.107-9.132,17.826-1.4-4.127-4.566-1.581a6.336,6.336,0,0,0-1.493,2.722c-.176-5.093,1.581-8.957,3.688-10.713C71.067,8.258,85.819,14.142,87.4,24.591Z" transform="translate(6.835 -11.594)" fill="#ffea82" fill-rule="evenodd"/>
          <path id="Trazado_821895" data-name="Trazado 821895" d="M76.407,26.266C71.577,27.32,63.235,33.379,60.6,39.613s-1.844,6.937-.966,8.518c.878.966,1.668,1.756,2.02,2.2,2.459,3.161,9.045-.7,10.889-3.249,3.337-4.478,3.864-4.3,4.039-7.64.263-5.444,1.668-5.005,2.283-6.147.527-1.932,2.02.527,3.161-.527A9.3,9.3,0,0,0,82.9,31.71C82.817,27.671,81.237,25.212,76.407,26.266Z" transform="translate(11.681 -13.269)" fill="#e0af00" fill-rule="evenodd"/>
          <path id="Trazado_821896" data-name="Trazado 821896" d="M75.15,27.676c-5.181,1.142-11.415,7.2-14.313,14.489-2.81,7.288.527,11.328,5.708,10.186s11.24-7.64,13.611-14.4C82.526,31.1,80.331,26.534,75.15,27.676Z" transform="translate(12.587 -13.449)" fill="#333" fill-rule="evenodd"/>
          <path id="Trazado_821897" data-name="Trazado 821897" d="M77.816,37.453,76.06,49.483l-8.869,6.5c-1.932-1.493-3.073-2.2-4.917-3.864h-.088c-6.322-5.62,4.742-20.723,10.625-22.041C77.026,29.111,79.046,32.36,77.816,37.453Z" transform="translate(15.101 -13.743)" fill="#7f7f7f" fill-rule="evenodd"/>
          <path id="Trazado_821898" data-name="Trazado 821898" d="M64.171,55.094c-5.532-3.073-4.478-13.786-1.4-20.987A13.914,13.914,0,0,1,68.65,29.98c4.127-.878,6.147,2.283,5.005,7.376L71.9,49.386Z" transform="translate(19.35 -13.734)" fill="#b2b2b2" fill-rule="evenodd"/>
          <path id="Trazado_821899" data-name="Trazado 821899" d="M67.208,31.13,64.837,50.361l-1.844-.176L61.5,30.516a8.631,8.631,0,0,1,1.4-.439C64.837,29.637,66.33,30.077,67.208,31.13Z" transform="translate(25.007 -13.743)" fill-rule="evenodd" fill="url(#linear-gradient)"/>
          <path id="Trazado_821900" data-name="Trazado 821900" d="M73.18,56.592,69.931,51.06a.189.189,0,0,0-.176-.176c-2.9-3.073-12.908,3.073-10.889,6.761h0L62.028,63Z" transform="translate(21.581 -16.198)" fill="#4c4c4c" fill-rule="evenodd"/>
          <path id="Trazado_821901" data-name="Trazado 821901" d="M73.432,57.705l-2.9-5.005A8.56,8.56,0,0,0,67.9,55.422l2.986,5.005A8.041,8.041,0,0,1,73.432,57.705Z" transform="translate(13.163 -16.521)" fill="#333" fill-rule="evenodd"/>
          <path id="Trazado_821902" data-name="Trazado 821902" d="M58.731,64.291c1.317,1.4,4.742.878,7.64-1.142s4.3-4.654,2.986-6.059-4.742-.878-7.64,1.142C58.819,60.164,57.414,62.886,58.731,64.291Z" transform="translate(25.23 -16.96)" fill="#333" fill-rule="evenodd"/>
          <path id="Trazado_821903" data-name="Trazado 821903" d="M70.1,56.817,67.2,51.9a1.912,1.912,0,0,0-.7.439l2.9,4.917A4.9,4.9,0,0,0,70.1,56.817Z" transform="translate(17.724 -16.423)" fill="#333" fill-rule="evenodd"/>
          <path id="Trazado_821904" data-name="Trazado 821904" d="M69.428,58.924l-.615-1.054c0-.088-.088-.088-.176-.176C66,54.884,56.7,60.5,58.54,64.017h0l.615.878Z" transform="translate(25.597 -17.037)" fill="#4c4c4c" fill-rule="evenodd"/>
          <path id="Trazado_821905" data-name="Trazado 821905" d="M58.391,65.377c1.229,1.229,4.391.79,7.113-1.054s3.951-4.3,2.81-5.62c-1.229-1.229-4.391-.79-7.113,1.054C58.391,61.6,57.162,64.148,58.391,65.377Z" transform="translate(26.623 -17.168)" fill="#333" fill-rule="evenodd"/>
          <path id="Trazado_821906" data-name="Trazado 821906" d="M62.407,50.382l3.073,5.181a3.933,3.933,0,0,0-2.02,0L60.3,50.382A4.277,4.277,0,0,1,62.407,50.382Z" transform="translate(27.788 -16.222)" fill="#999" fill-rule="evenodd"/>
          <g id="Grupo_1072417" data-name="Grupo 1072417" transform="translate(0 88.196)">
            <path id="Trazado_821907" data-name="Trazado 821907" d="M147.644,122.868c-.7,1.493.263,2.634.966,4.215.79,1.756-.79,4.83.79,7.113.79,1.142,1.668-.7,1.756-2.722.088-2.107,1.229-3.425,1.317-5.093,0-.966-.263-4.478-1.581-4.917C148.61,120.673,148.522,121.815,147.644,122.868Z" transform="translate(-135.688 -113.066)" fill="#575756" fill-rule="evenodd"/>
            <path id="Trazado_821908" data-name="Trazado 821908" d="M156.941,112.519c1.229-1.142,6.586-.615,6.059,1.668,0,2.107,1.317,9.4,1.229,9.923-.176.966-1.756,2.2-2.107,3.073a3.87,3.87,0,0,1-1.844,2.371c-.878.7-3.337,2.722-4.127,3.337-1.581.79-4.742,3.249-5.269,2.547a1.62,1.62,0,0,1-.439-1.4c-.615.263-1.317,1.054-1.844.351a1.92,1.92,0,0,1,.439-2.2l-.615.351c-1.229-.176-.351-2.2.088-2.81.439-.527,2.2-2.107,2.722-2.634,1.142-1.4,3.776-4.478.79-1.493-1.229,1.317-3.337,2.9-3.512,1.844-.351-1.756,1.317-2.459,2.459-3.951.966-1.317,2.634-3.951,2.9-5.708C154.482,113.924,155.273,114.012,156.941,112.519Z" transform="translate(-147.795 -111.937)" fill="#3c3c3b" fill-rule="evenodd"/>
          </g>
          <path id="Trazado_821909" data-name="Trazado 821909" d="M159.085,122.988a18,18,0,0,1-.966,5.62,2.071,2.071,0,0,1-3.249-.263c-1.229.088-2.283-.527-2.371-1.4a1.855,1.855,0,0,1-1.844-1.844,3.532,3.532,0,0,1-.966-1.756c.263-1.493,1.142-2.459,1.756-4.039C154.167,120.968,157.241,123.339,159.085,122.988Z" transform="translate(-144.319 -24.639)" fill="#575756" fill-rule="evenodd"/>
          <path id="Trazado_821910" data-name="Trazado 821910" d="M112.969,77.474c-6.147,9.22-7.025,30.909-7.025,30.909l10.713,1.054c6.761-2.547,1.581-12.294,4.742-14.84,1.581-1.317,1.581-2.634,1.844-4.478.176-1.054,2.634.176,3.073-1.756,1.493-6.674,8.518-10.362,14.225-10.889,18.177-6.937,12.03-28.8,8.605-28.275a20.693,20.693,0,0,0-7.288,1.229C134.483,53.414,123.594,61.58,112.969,77.474Z" transform="translate(-99.784 -16.093)" fill="#e0af00" fill-rule="evenodd"/>
          <path id="Trazado_821911" data-name="Trazado 821911" d="M114.631,77.5c-6.147,9.22-10.625,25.377-7.113,28.539l2.722,1.142c2.459-.351,6.586-1.317,6.937-3.249.615-3.952-4.391-6.937.527-15.1.878-1.4,2.459.7,5.708-3.512.615-.79-3.073-1.493-2.459-2.107.878-.878,6.5-1.4,7.815-2.459,8.693-6.586,21.426-7.991,23.972-12.469a1.919,1.919,0,0,1,.263-.439.086.086,0,0,1,.088-.088h0c3.864-8.693-2.283-18.792-4.654-18.352a10.646,10.646,0,0,0-4.83,1.142C136.144,53.437,125.256,61.6,114.631,77.5Z" transform="translate(-101.445 -16.117)" fill="#ffd835" fill-rule="evenodd"/>
          <path id="Trazado_821912" data-name="Trazado 821912" d="M158.276,117.237a41.153,41.153,0,0,1-10.8-3.337c-.176,2.107-.176,3.425-.176,3.425,3.6,2.634,8.869,4.391,10.362,2.547A26.457,26.457,0,0,1,158.276,117.237Z" transform="translate(-141.403 -23.981)" fill="#575756" fill-rule="evenodd"/>
          <path id="Trazado_821913" data-name="Trazado 821913" d="M152.354,50.62c3.776,9.22,3.512,15.894-8.693,15.894-3.952,0-2.986,4.917-6.761,6.761-2.722,1.317-23.972,9.923-17.035,9.308,4.127-.351-4.3,2.371-5.356,3.161-1.844,1.317,4.391.351,2.9,3.161-1.317,2.371-4.742,13.259-8.869,15.806-1.668-5.093,2.459-18.879,7.991-27.134,10.625-15.806,21.514-24.06,28.89-27.046a10.646,10.646,0,0,1,4.83-1.142C150.685,49.127,151.475,49.654,152.354,50.62Z" transform="translate(-103.254 -16.109)" fill="#ffea82" fill-rule="evenodd"/>
        </g>
      </g>
    </g>
  </g>
</svg>
