<svg xmlns="http://www.w3.org/2000/svg" xmlns:xlink="http://www.w3.org/1999/xlink" width="138.229" height="138.229" viewBox="0 0 138.229 138.229">
  <defs>
    <clipPath id="clip-path">
      <rect id="Rectángulo_321571" data-name="Rectángulo 321571" width="126.084" height="126.077" fill="none"/>
    </clipPath>
    <clipPath id="clip-path-2">
      <rect id="Rectángulo_321572" data-name="Rectángulo 321572" width="39.77" height="61.916" fill="none"/>
    </clipPath>
    <clipPath id="clip-path-3">
      <rect id="Rectángulo_321573" data-name="Rectángulo 321573" width="21.459" height="68.441" fill="none"/>
    </clipPath>
    <clipPath id="clip-path-5">
      <rect id="Rectángulo_321575" data-name="Rectángulo 321575" width="33.281" height="39.874" fill="none"/>
    </clipPath>
    <clipPath id="clip-path-7">
      <rect id="Rectángulo_321577" data-name="Rectángulo 321577" width="55.088" height="32.854" fill="none"/>
    </clipPath>
    <clipPath id="clip-path-8">
      <rect id="Rectángulo_321578" data-name="Rectángulo 321578" width="68.746" height="35.065" fill="none"/>
    </clipPath>
    <clipPath id="clip-path-9">
      <rect id="Rectángulo_321579" data-name="Rectángulo 321579" width="61.432" height="39.759" fill="none"/>
    </clipPath>
    <clipPath id="clip-path-10">
      <rect id="Rectángulo_321580" data-name="Rectángulo 321580" width="5.663" height="5.667" fill="none"/>
    </clipPath>
    <clipPath id="clip-path-11">
      <rect id="Rectángulo_321581" data-name="Rectángulo 321581" width="7.641" height="7.639" fill="none"/>
    </clipPath>
    <clipPath id="clip-path-12">
      <rect id="Rectángulo_321582" data-name="Rectángulo 321582" width="3.82" height="3.82" fill="none"/>
    </clipPath>
    <clipPath id="clip-path-13">
      <rect id="Rectángulo_321583" data-name="Rectángulo 321583" width="25.751" height="25.755" fill="none"/>
    </clipPath>
    <clipPath id="clip-path-14">
      <rect id="Rectángulo_321584" data-name="Rectángulo 321584" width="12.793" height="12.793" fill="none"/>
    </clipPath>
    <clipPath id="clip-path-15">
      <rect id="Rectángulo_321585" data-name="Rectángulo 321585" width="21.016" height="21.016" fill="none"/>
    </clipPath>
  </defs>
  <g id="Grupo_1072403" data-name="Grupo 1072403" transform="translate(-4845.102 8978)">
    <path id="Trazado_821714" data-name="Trazado 821714" d="M671.34,69.116A69.115,69.115,0,1,1,602.226,0,69.115,69.115,0,0,1,671.34,69.116" transform="translate(4311.991 -8978.001)" fill="#1b3f5e"/>
    <g id="Grupo_1072334" data-name="Grupo 1072334" transform="translate(4851.211 -8971.804)" style="isolation: isolate">
      <g id="Grupo_253529" data-name="Grupo 253529" transform="translate(0 0)">
        <g id="Grupo_253528" data-name="Grupo 253528" clip-path="url(#clip-path)">
          <path id="Trazado_271559" data-name="Trazado 271559" d="M666.1,70.047A63.042,63.042,0,1,1,603.062,7.005,63.042,63.042,0,0,1,666.1,70.047" transform="translate(-540.021 -7.009)" fill="#e5dbd7"/>
        </g>
      </g>
    </g>
    <path id="Trazado_821715" data-name="Trazado 821715" d="M568.947,67.695a74.72,74.72,0,0,1-1.7,16.167c-1.98,10.029,4.246,21.615,19.53,21.615S608.286,93.891,606.3,83.862a77.79,77.79,0,0,1,0-32.334c1.982-10.028-4.245-21.615-19.527-21.615S565.268,41.5,567.247,51.528a74.714,74.714,0,0,1,1.7,16.166" transform="translate(4308.077 -8981.467)" fill="#bae177"/>
    <path id="Trazado_821716" data-name="Trazado 821716" d="M608.321,72.205v.055s-.046,1.075.037,3.077a4.764,4.764,0,1,1-.194-3.132Z" transform="translate(4304.358 -8986.029)" fill="#8bc25d"/>
    <path id="Trazado_821717" data-name="Trazado 821717" d="M601.232,36.954a4.814,4.814,0,1,1-4.809,4.809,4.812,4.812,0,0,1,4.809-4.809" transform="translate(4304.655 -8982.283)" fill="#8bc25d"/>
    <path id="Trazado_821718" data-name="Trazado 821718" d="M601.677,97.134a2.687,2.687,0,1,1-2.7,2.687,2.688,2.688,0,0,1,2.7-2.687" transform="translate(4304.359 -8989.256)" fill="#8bc25d"/>
    <path id="Trazado_821719" data-name="Trazado 821719" d="M603.373,52.643a1.343,1.343,0,1,1-1.343,1.344,1.344,1.344,0,0,1,1.343-1.344" transform="translate(4304.005 -8984.101)" fill="#8bc25d"/>
    <path id="Trazado_821720" data-name="Trazado 821720" d="M590.658,35.351a1.274,1.274,0,1,1-1.279,1.278,1.274,1.274,0,0,1,1.279-1.278" transform="translate(4305.471 -8982.097)" fill="#8bc25d"/>
    <path id="Trazado_821721" data-name="Trazado 821721" d="M588.232,54.876a2.053,2.053,0,1,1-2.048,2.057,2.059,2.059,0,0,1,2.048-2.057" transform="translate(4305.841 -8984.359)" fill="#8bc25d"/>
    <path id="Trazado_821722" data-name="Trazado 821722" d="M587.341,84.651a2.761,2.761,0,1,1-2.761,2.761,2.763,2.763,0,0,1,2.761-2.761" transform="translate(4306.027 -8987.81)" fill="#8bc25d"/>
    <path id="Trazado_821723" data-name="Trazado 821723" d="M580.066,92.648a6.69,6.69,0,1,1-6.69,6.69,6.691,6.691,0,0,1,6.69-6.69" transform="translate(4307.325 -8988.735)" fill="#8bc25d"/>
    <path id="Trazado_821724" data-name="Trazado 821724" d="M579.224,54.876a4.249,4.249,0,1,1-4.244,4.254,4.252,4.252,0,0,1,4.244-4.254" transform="translate(4307.14 -8984.359)" fill="#8bc25d"/>
    <path id="Trazado_821725" data-name="Trazado 821725" d="M575.951,37.351a4.427,4.427,0,0,1-7.218,3.438h-.01a16.73,16.73,0,0,1,5.662-6.8,4.392,4.392,0,0,1,1.566,3.362" transform="translate(4307.865 -8981.938)" fill="#8bc25d"/>
    <path id="Trazado_821726" data-name="Trazado 821726" d="M574.933,72.651a1.557,1.557,0,1,1-1.557,1.557,1.554,1.554,0,0,1,1.557-1.557" transform="translate(4307.325 -8986.418)" fill="#8bc25d"/>
    <g id="Grupo_1072335" data-name="Grupo 1072335" transform="translate(4874.968 -8943.387)" style="mix-blend-mode: screen;isolation: isolate">
      <g id="Grupo_253532" data-name="Grupo 253532" transform="translate(0 0)">
        <g id="Grupo_253531" data-name="Grupo 253531" clip-path="url(#clip-path-2)">
          <path id="Trazado_271572" data-name="Trazado 271572" d="M605.126,77.532q-17.416-19.4-35.375-38.378c-.039.06-.081.118-.119.179s-.081.123-.119.185q-.241.391-.458.792c-.023.042-.048.082-.07.124q-.247.463-.466.938l-.008.017h0A18.494,18.494,0,0,0,567.248,52.6a90.073,90.073,0,0,1,1.628,12.474C579.8,77.056,590.8,88.986,601.633,101.065A17.9,17.9,0,0,0,606.3,84.934c-.551-2.789-.922-5.263-1.178-7.4" transform="translate(-566.891 -39.15)" fill="#243318"/>
        </g>
      </g>
    </g>
    <g id="Grupo_1072336" data-name="Grupo 1072336" transform="translate(4877.93 -8948.285)" style="mix-blend-mode: screen;isolation: isolate">
      <g id="Grupo_253535" data-name="Grupo 253535" transform="translate(0 0)">
        <g id="Grupo_253534" data-name="Grupo 253534" clip-path="url(#clip-path-3)">
          <path id="Trazado_271573" data-name="Trazado 271573" d="M577.318,85.338a94.436,94.436,0,0,0,0-29.311,22.14,22.14,0,0,1,.851-10.162h0l.005-.015q.146-.43.314-.851c.015-.037.031-.073.047-.111.1-.242.2-.483.308-.719.026-.056.054-.111.081-.167.1-.217.208-.431.318-.641.03-.057.062-.112.091-.168.115-.211.232-.419.355-.622.028-.049.057-.095.086-.141q.2-.326.419-.639l.057-.084a11.994,11.994,0,0,1,10.216-5.271c.423,0,.832.024,1.234.058a12.615,12.615,0,0,0-18.287,2.388c-.019.027-.038.055-.057.082q-.216.313-.417.64c-.029.047-.058.093-.088.141q-.183.305-.355.622c-.03.057-.062.112-.092.169-.11.21-.216.424-.317.641-.027.057-.055.111-.081.168-.108.236-.21.475-.308.718-.015.037-.032.074-.047.111-.11.279-.216.563-.313.851l-.006.016h0a22.146,22.146,0,0,0-.851,10.162,94.436,94.436,0,0,1,0,29.31c-1.279,8.717,2.528,18.727,11.915,19.535-4.345-3.751-5.979-10.553-5.077-16.709" transform="translate(-570.241 -33.61)" fill="#4b6932"/>
        </g>
      </g>
    </g>
    <path id="Trazado_821727" data-name="Trazado 821727" d="M568.947,67.695a74.72,74.72,0,0,1-1.7,16.167c-1.98,10.029,4.246,21.615,19.53,21.615S608.286,93.891,606.3,83.862a77.79,77.79,0,0,1,0-32.334c1.982-10.028-4.245-21.615-19.527-21.615S565.268,41.5,567.247,51.528a74.714,74.714,0,0,1,1.7,16.166" transform="translate(4308.077 -8981.467)" fill="#bae177"/>
    <path id="Trazado_821728" data-name="Trazado 821728" d="M608.321,72.205v.055s-.046,1.075.037,3.077a4.764,4.764,0,1,1-.194-3.132Z" transform="translate(4304.358 -8986.029)" fill="#8bc25d"/>
    <path id="Trazado_821729" data-name="Trazado 821729" d="M601.232,36.954a4.814,4.814,0,1,1-4.809,4.809,4.812,4.812,0,0,1,4.809-4.809" transform="translate(4304.655 -8982.283)" fill="#8bc25d"/>
    <path id="Trazado_821730" data-name="Trazado 821730" d="M601.677,97.134a2.687,2.687,0,1,1-2.7,2.687,2.688,2.688,0,0,1,2.7-2.687" transform="translate(4304.359 -8989.256)" fill="#8bc25d"/>
    <path id="Trazado_821731" data-name="Trazado 821731" d="M603.373,52.643a1.343,1.343,0,1,1-1.343,1.344,1.344,1.344,0,0,1,1.343-1.344" transform="translate(4304.005 -8984.101)" fill="#8bc25d"/>
    <path id="Trazado_821732" data-name="Trazado 821732" d="M590.658,35.351a1.274,1.274,0,1,1-1.279,1.278,1.274,1.274,0,0,1,1.279-1.278" transform="translate(4305.471 -8982.097)" fill="#8bc25d"/>
    <path id="Trazado_821733" data-name="Trazado 821733" d="M588.232,54.876a2.053,2.053,0,1,1-2.048,2.057,2.059,2.059,0,0,1,2.048-2.057" transform="translate(4305.841 -8984.359)" fill="#8bc25d"/>
    <path id="Trazado_821734" data-name="Trazado 821734" d="M587.341,84.651a2.761,2.761,0,1,1-2.761,2.761,2.763,2.763,0,0,1,2.761-2.761" transform="translate(4306.027 -8987.81)" fill="#8bc25d"/>
    <path id="Trazado_821735" data-name="Trazado 821735" d="M580.066,92.648a6.69,6.69,0,1,1-6.69,6.69,6.691,6.691,0,0,1,6.69-6.69" transform="translate(4307.325 -8988.735)" fill="#8bc25d"/>
    <path id="Trazado_821736" data-name="Trazado 821736" d="M579.224,54.876a4.249,4.249,0,1,1-4.244,4.254,4.252,4.252,0,0,1,4.244-4.254" transform="translate(4307.14 -8984.359)" fill="#8bc25d"/>
    <path id="Trazado_821737" data-name="Trazado 821737" d="M575.951,37.351a4.427,4.427,0,0,1-7.218,3.438h-.01a16.73,16.73,0,0,1,5.662-6.8,4.392,4.392,0,0,1,1.566,3.362" transform="translate(4307.865 -8981.938)" fill="#8bc25d"/>
    <path id="Trazado_821738" data-name="Trazado 821738" d="M574.933,72.651a1.557,1.557,0,1,1-1.557,1.557,1.554,1.554,0,0,1,1.557-1.557" transform="translate(4307.325 -8986.418)" fill="#8bc25d"/>
    <g id="Grupo_1072337" data-name="Grupo 1072337" transform="translate(4874.968 -8943.387)" style="mix-blend-mode: screen;isolation: isolate">
      <g id="Grupo_253538" data-name="Grupo 253538" transform="translate(0 0)">
        <g id="Grupo_253537" data-name="Grupo 253537" clip-path="url(#clip-path-2)">
          <path id="Trazado_271586" data-name="Trazado 271586" d="M605.126,77.532q-17.416-19.4-35.375-38.378c-.039.06-.081.118-.119.179s-.081.123-.119.185q-.241.391-.458.792c-.023.042-.048.082-.07.124q-.247.463-.466.938l-.008.017h0A18.494,18.494,0,0,0,567.248,52.6a90.073,90.073,0,0,1,1.628,12.474C579.8,77.056,590.8,88.986,601.633,101.065A17.9,17.9,0,0,0,606.3,84.934c-.551-2.789-.922-5.263-1.178-7.4" transform="translate(-566.891 -39.15)" fill="#243318"/>
        </g>
      </g>
    </g>
    <g id="Grupo_1072338" data-name="Grupo 1072338" transform="translate(4881.457 -8915.863)" style="mix-blend-mode: multiply;isolation: isolate">
      <g id="Grupo_253541" data-name="Grupo 253541" transform="translate(0 0)">
        <g id="Grupo_253540" data-name="Grupo 253540" clip-path="url(#clip-path-5)">
          <path id="Trazado_271587" data-name="Trazado 271587" d="M598.234,70.513C582.139,73.055,570.7,90.308,575.226,106.7a21.618,21.618,0,0,0,12.4,3.453c15.283,0,21.509-11.587,19.528-21.615a74.742,74.742,0,0,1-1.7-16.167s-.03-.718,0-2.036a49.952,49.952,0,0,0-7.225.178" transform="translate(-574.23 -70.28)" fill="#daedb9"/>
        </g>
      </g>
    </g>
    <g id="Grupo_1072339" data-name="Grupo 1072339" transform="translate(4877.93 -8948.285)" style="mix-blend-mode: screen;isolation: isolate">
      <g id="Grupo_253544" data-name="Grupo 253544" transform="translate(0 0)">
        <g id="Grupo_253543" data-name="Grupo 253543" clip-path="url(#clip-path-3)">
          <path id="Trazado_271588" data-name="Trazado 271588" d="M577.318,85.338a94.436,94.436,0,0,0,0-29.311,22.14,22.14,0,0,1,.851-10.162h0l.005-.015q.146-.43.314-.851c.015-.037.031-.073.047-.111.1-.242.2-.483.308-.719.026-.056.054-.111.081-.167.1-.217.208-.431.318-.641.03-.057.062-.112.091-.168.115-.211.232-.419.355-.622.028-.049.057-.095.086-.141q.2-.326.419-.639l.057-.084a11.994,11.994,0,0,1,10.216-5.271c.423,0,.832.024,1.234.058a12.615,12.615,0,0,0-18.287,2.388c-.019.027-.038.055-.057.082q-.216.313-.417.64c-.029.047-.058.093-.088.141q-.183.305-.355.622c-.03.057-.062.112-.092.169-.11.21-.216.424-.317.641-.027.057-.055.111-.081.168-.108.236-.21.475-.308.718-.015.037-.032.074-.047.111-.11.279-.216.563-.313.851l-.006.016h0a22.146,22.146,0,0,0-.851,10.162,94.436,94.436,0,0,1,0,29.31c-1.279,8.717,2.528,18.727,11.915,19.535-4.345-3.751-5.979-10.553-5.077-16.709" transform="translate(-570.241 -33.61)" fill="#4b6932"/>
        </g>
      </g>
    </g>
    <g id="Grupo_1072340" data-name="Grupo 1072340" transform="translate(4888.432 -8903.133)" style="mix-blend-mode: screen;isolation: isolate">
      <g id="Grupo_253547" data-name="Grupo 253547" transform="translate(0 0)">
        <g id="Grupo_253546" data-name="Grupo 253546" clip-path="url(#clip-path-7)">
          <path id="Trazado_271589" data-name="Trazado 271589" d="M587.331,108.66c0-13.4,8.693-18.859,16.217-17.122a48.442,48.442,0,0,0,12.111,1.49l.017,0s.766.037,2.172-.027a56.967,56.967,0,0,0,9.958-1.461,12.056,12.056,0,0,1,9.4,1.7c-2.856-6.879-9.053-9.532-14.613-8.248a56.789,56.789,0,0,1-9.959,1.461c-1.406.064-2.171.027-2.171.027l-.017,0a48.4,48.4,0,0,1-12.111-1.49c-7.524-1.736-16.217,3.722-16.217,17.122,0,5.554,1.5,9.739,3.78,12.618.01.011.019.022.027.034.169.21.342.416.519.612.052.059.105.115.158.172.136.147.274.288.414.427l.236.228q.182.167.364.326c.095.082.188.164.284.242.118.1.237.188.357.278.1.074.2.151.3.222.125.09.252.173.379.256a23.016,23.016,0,0,1-1.6-8.872" transform="translate(-582.119 -84.68)" fill="#695332"/>
        </g>
      </g>
    </g>
    <path id="Trazado_821739" data-name="Trazado 821739" d="M615.925,118.482a74.675,74.675,0,0,1,16.167,1.7c10.028,1.98,21.615-4.246,21.615-19.529S642.12,79.143,632.092,81.125a77.8,77.8,0,0,1-32.335,0c-10.028-1.982-21.615,4.245-21.615,19.527s11.587,21.509,21.615,19.529a74.675,74.675,0,0,1,16.167-1.7" transform="translate(4306.773 -8987.359)" fill="#ffcc4d"/>
    <path id="Trazado_821740" data-name="Trazado 821740" d="M607.214,103.866a2.053,2.053,0,1,1-2.057-2.048,2.053,2.053,0,0,1,2.057,2.048" transform="translate(4303.88 -8989.798)" fill="#f0ab1a"/>
    <path id="Trazado_821741" data-name="Trazado 821741" d="M590,120.167a4.436,4.436,0,0,1-.992,2.8,16.608,16.608,0,0,1-6.8-5.661A4.424,4.424,0,0,1,590,120.167" transform="translate(4306.302 -8991.412)" fill="#f0ab1a"/>
    <path id="Trazado_821742" data-name="Trazado 821742" d="M584.854,100.383a1.269,1.269,0,1,1-1.27,1.269,1.273,1.273,0,0,1,1.27-1.269" transform="translate(4306.143 -8989.632)" fill="#f0ab1a"/>
    <path id="Trazado_821743" data-name="Trazado 821743" d="M590,85.332a4.814,4.814,0,1,1-4.81,4.809A4.811,4.811,0,0,1,590,85.332" transform="translate(4305.957 -8987.888)" fill="#f0ab1a"/>
    <path id="Trazado_821744" data-name="Trazado 821744" d="M602.21,87.575a1.343,1.343,0,1,1-1.344,1.344,1.339,1.339,0,0,1,1.344-1.344" transform="translate(4304.14 -8988.148)" fill="#f0ab1a"/>
    <path id="Trazado_821745" data-name="Trazado 821745" d="M620.484,83.085s1.084.046,3.086-.037a4.781,4.781,0,1,1-3.141.2l-.01-.157a.414.414,0,0,1,.065-.009" transform="translate(4302.212 -8987.623)" fill="#f0ab1a"/>
    <path id="Trazado_821746" data-name="Trazado 821746" d="M648.055,87.575a2.687,2.687,0,1,1-2.687,2.687,2.688,2.688,0,0,1,2.687-2.687" transform="translate(4298.984 -8988.148)" fill="#f0ab1a"/>
    <path id="Trazado_821747" data-name="Trazado 821747" d="M635.635,101.818a2.761,2.761,0,1,1-2.761,2.761,2.756,2.756,0,0,1,2.761-2.761" transform="translate(4300.432 -8989.798)" fill="#f0ab1a"/>
    <path id="Trazado_821748" data-name="Trazado 821748" d="M622.431,115.747a1.557,1.557,0,1,1-1.556,1.557,1.554,1.554,0,0,1,1.556-1.557" transform="translate(4301.822 -8991.412)" fill="#f0ab1a"/>
    <path id="Trazado_821749" data-name="Trazado 821749" d="M607.353,108.064a4.244,4.244,0,1,1-4.244,4.245,4.244,4.244,0,0,1,4.244-4.245" transform="translate(4303.88 -8990.521)" fill="#f0ab1a"/>
    <path id="Trazado_821750" data-name="Trazado 821750" d="M647.571,104.134a6.69,6.69,0,1,1-6.69,6.69,6.692,6.692,0,0,1,6.69-6.69" transform="translate(4299.504 -8990.066)" fill="#f0ab1a"/>
    <g id="Grupo_1072341" data-name="Grupo 1072341" transform="translate(4888.432 -8904.193)" style="mix-blend-mode: screen;isolation: isolate">
      <g id="Grupo_253550" data-name="Grupo 253550" transform="translate(0 0)">
        <g id="Grupo_253549" data-name="Grupo 253549" clip-path="url(#clip-path-8)">
          <path id="Trazado_271602" data-name="Trazado 271602" d="M588.728,107.338c0-14.076,11.022-19.811,20.563-17.986a76.406,76.406,0,0,0,30.761,0,18.1,18.1,0,0,1,10.812,1.231c-3.959-5.816-11.022-8-17.421-6.775a76.406,76.406,0,0,1-30.761,0c-9.541-1.825-20.564,3.91-20.564,17.987,0,8.737,4.248,14.258,9.752,16.754a19.557,19.557,0,0,1-3.142-11.211" transform="translate(-582.119 -83.48)" fill="#523f27"/>
        </g>
      </g>
    </g>
    <g id="Grupo_1072342" data-name="Grupo 1072342" transform="translate(4895.47 -8906.589)" style="mix-blend-mode: screen;isolation: isolate">
      <g id="Grupo_253553" data-name="Grupo 253553" transform="translate(0 0)">
        <g id="Grupo_253552" data-name="Grupo 253552" clip-path="url(#clip-path-9)">
          <path id="Trazado_271603" data-name="Trazado 271603" d="M615.868,82.833a83.546,83.546,0,0,1-14.728-1.707,18.5,18.5,0,0,0-11.06,1.2c14.6,12.724,29.207,25.3,43.811,37.928a17.632,17.632,0,0,0,17.621-7.017l-35.644-30.4" transform="translate(-590.08 -80.77)" fill="#362a1a"/>
        </g>
      </g>
    </g>
    <g id="Grupo_1072343" data-name="Grupo 1072343" transform="translate(4926.813 -8937.384)" style="mix-blend-mode: multiply;isolation: isolate">
      <g id="Grupo_253556" data-name="Grupo 253556" transform="translate(0 0)">
        <g id="Grupo_253555" data-name="Grupo 253555" clip-path="url(#clip-path-10)">
          <path id="Trazado_271604" data-name="Trazado 271604" d="M631.193,48.774a2.831,2.831,0,1,1-2.831-2.831,2.83,2.83,0,0,1,2.831,2.831" transform="translate(-625.531 -45.94)" fill="#bddef5"/>
        </g>
      </g>
    </g>
    <path id="Trazado_821751" data-name="Trazado 821751" d="M629.525,51.341a.348.348,0,0,1-.136-.668,1.551,1.551,0,0,0,.686-.565.347.347,0,0,1,.576.389,2.255,2.255,0,0,1-.989.816.357.357,0,0,1-.136.027" transform="translate(4300.86 -8983.789)" fill="#fff"/>
    <path id="Trazado_821752" data-name="Trazado 821752" d="M626.534,49.2a.347.347,0,0,1-.347-.347,2.248,2.248,0,0,1,1.857-2.217.347.347,0,0,1,.121.684,1.556,1.556,0,0,0-1.284,1.533.347.347,0,0,1-.347.347" transform="translate(4301.207 -8983.404)" fill="#fff"/>
    <g id="Grupo_1072344" data-name="Grupo 1072344" transform="translate(4938.697 -8934.546)" style="mix-blend-mode: multiply;isolation: isolate">
      <g id="Grupo_253559" data-name="Grupo 253559" transform="translate(0 0)">
        <g id="Grupo_253558" data-name="Grupo 253558" clip-path="url(#clip-path-11)">
          <path id="Trazado_271607" data-name="Trazado 271607" d="M646.613,52.965a3.82,3.82,0,1,1-3.82-3.82,3.82,3.82,0,0,1,3.82,3.82" transform="translate(-638.972 -49.149)" fill="#bddef5"/>
        </g>
      </g>
    </g>
    <path id="Trazado_821753" data-name="Trazado 821753" d="M643.962,56.678a.394.394,0,0,1-.092-.777,2.31,2.31,0,0,0,1.173-.7.393.393,0,0,1,.584.527,3.087,3.087,0,0,1-1.573.939.371.371,0,0,1-.093.011" transform="translate(4299.192 -8984.382)" fill="#fff"/>
    <path id="Trazado_821754" data-name="Trazado 821754" d="M640.178,53.453a.392.392,0,0,1-.393-.393,3.105,3.105,0,0,1,3.1-3.1.394.394,0,1,1,0,.788,2.317,2.317,0,0,0-2.315,2.315.392.392,0,0,1-.393.393" transform="translate(4299.631 -8983.789)" fill="#fff"/>
    <g id="Grupo_1072345" data-name="Grupo 1072345" transform="translate(4936.786 -8945.059)" style="mix-blend-mode: multiply;isolation: isolate">
      <g id="Grupo_253562" data-name="Grupo 253562" transform="translate(0 0)">
        <g id="Grupo_253561" data-name="Grupo 253561" clip-path="url(#clip-path-12)">
          <path id="Trazado_271610" data-name="Trazado 271610" d="M640.631,39.169a1.91,1.91,0,1,1-1.91-1.911,1.91,1.91,0,0,1,1.91,1.911" transform="translate(-636.811 -37.26)" fill="#bddef5"/>
        </g>
      </g>
    </g>
    <path id="Trazado_821755" data-name="Trazado 821755" d="M638.942,41.21a.232.232,0,1,1,0-.463,1.216,1.216,0,0,0,.8-.3.232.232,0,0,1,.3.349,1.678,1.678,0,0,1-1.1.413" transform="translate(4299.755 -8982.681)" fill="#fff"/>
    <path id="Trazado_821756" data-name="Trazado 821756" d="M637.3,39.431a.231.231,0,0,1-.232-.232,1.681,1.681,0,0,1,1.679-1.679.232.232,0,1,1,0,.463,1.217,1.217,0,0,0-1.216,1.216.231.231,0,0,1-.232.232" transform="translate(4299.945 -8982.348)" fill="#fff"/>
    <g id="Grupo_1072346" data-name="Grupo 1072346" transform="translate(4932.477 -8922.663)" style="mix-blend-mode: multiply;isolation: isolate">
      <g id="Grupo_253565" data-name="Grupo 253565" transform="translate(0 0)">
        <g id="Grupo_253564" data-name="Grupo 253564" clip-path="url(#clip-path-13)">
          <path id="Trazado_271613" data-name="Trazado 271613" d="M657.687,75.465a12.876,12.876,0,1,1-12.876-12.876,12.876,12.876,0,0,1,12.876,12.876" transform="translate(-631.936 -62.59)" fill="#bddef5"/>
        </g>
      </g>
    </g>
    <path id="Trazado_821757" data-name="Trazado 821757" d="M644.733,88.863a13.478,13.478,0,1,1,13.478-13.478,13.493,13.493,0,0,1-13.478,13.478m0-25.751a12.274,12.274,0,1,0,12.273,12.274,12.287,12.287,0,0,0-12.273-12.274" transform="translate(4300.619 -8985.174)" fill="#fff"/>
    <path id="Trazado_821758" data-name="Trazado 821758" d="M636.007,76.755a.926.926,0,0,1-.927-.927,10.107,10.107,0,0,1,10.1-10.1.927.927,0,1,1,0,1.853,8.252,8.252,0,0,0-8.243,8.243.926.926,0,0,1-.927.927" transform="translate(4300.176 -8985.617)" fill="#fff"/>
    <path id="Trazado_821759" data-name="Trazado 821759" d="M650.411,87.16a.927.927,0,0,1-.362-1.781,8.316,8.316,0,0,0,3.2-2.415.927.927,0,1,1,1.44,1.166,10.175,10.175,0,0,1-3.92,2.956.929.929,0,0,1-.361.073" transform="translate(4298.507 -8987.574)" fill="#fff"/>
    <g id="Grupo_1072347" data-name="Grupo 1072347" transform="translate(4923.419 -8923.954)" style="mix-blend-mode: multiply;isolation: isolate">
      <g id="Grupo_253568" data-name="Grupo 253568" transform="translate(0 0)">
        <g id="Grupo_253567" data-name="Grupo 253567" clip-path="url(#clip-path-14)">
          <path id="Trazado_271617" data-name="Trazado 271617" d="M634.485,67.528a6.4,6.4,0,1,1-6.4-6.4,6.4,6.4,0,0,1,6.4,6.4" transform="translate(-621.692 -61.13)" fill="#bddef5"/>
        </g>
      </g>
    </g>
    <path id="Trazado_821760" data-name="Trazado 821760" d="M628.01,74.448a7,7,0,1,1,7-7,7.006,7.006,0,0,1-7,7m0-12.793a5.794,5.794,0,1,0,5.795,5.794,5.8,5.8,0,0,0-5.795-5.794" transform="translate(4301.806 -8985.006)" fill="#fff"/>
    <path id="Trazado_821761" data-name="Trazado 821761" d="M630.542,73.563a.556.556,0,0,1-.183-1.081,4.007,4.007,0,0,0,1.508-.949.556.556,0,0,1,.787.787,5.152,5.152,0,0,1-1.929,1.212.549.549,0,0,1-.183.031" transform="translate(4300.766 -8986.271)" fill="#fff"/>
    <path id="Trazado_821762" data-name="Trazado 821762" d="M624.522,65.813a.556.556,0,0,1-.468-.856,5.082,5.082,0,0,1,4.3-2.358.556.556,0,0,1,0,1.112,3.975,3.975,0,0,0-3.362,1.845.555.555,0,0,1-.469.256" transform="translate(4301.464 -8985.254)" fill="#fff"/>
    <g id="Grupo_1072348" data-name="Grupo 1072348" transform="translate(4908.383 -8921.099)" style="mix-blend-mode: multiply;isolation: isolate">
      <g id="Grupo_253571" data-name="Grupo 253571" transform="translate(0 0)">
        <g id="Grupo_253570" data-name="Grupo 253570" clip-path="url(#clip-path-15)">
          <path id="Trazado_271621" data-name="Trazado 271621" d="M625.7,74.864a10.508,10.508,0,1,1-10.508-10.508A10.508,10.508,0,0,1,625.7,74.864" transform="translate(-604.686 -64.36)" fill="#bddef5"/>
        </g>
      </g>
    </g>
    <path id="Trazado_821763" data-name="Trazado 821763" d="M615.115,85.9a11.11,11.11,0,1,1,11.11-11.111A11.122,11.122,0,0,1,615.115,85.9m0-21.016a9.906,9.906,0,1,0,9.906,9.9,9.917,9.917,0,0,0-9.906-9.9" transform="translate(4303.776 -8985.378)" fill="#fff"/>
    <path id="Trazado_821764" data-name="Trazado 821764" d="M620.091,84.477a.927.927,0,0,1-.388-1.768,6.819,6.819,0,0,0,3.4-3.455.927.927,0,0,1,1.7.745,8.676,8.676,0,0,1-4.319,4.393.928.928,0,0,1-.387.085" transform="translate(4302.02 -8987.119)" fill="#fff"/>
    <path id="Trazado_821765" data-name="Trazado 821765" d="M607.709,76.033a.926.926,0,0,1-.927-.927,8.665,8.665,0,0,1,8.655-8.655.927.927,0,1,1,0,1.853,6.809,6.809,0,0,0-6.8,6.8.926.926,0,0,1-.927.927" transform="translate(4303.455 -8985.7)" fill="#fff"/>
  </g>
</svg>
