<svg xmlns="http://www.w3.org/2000/svg" xmlns:xlink="http://www.w3.org/1999/xlink" width="138.229" height="138.229" viewBox="0 0 138.229 138.229">
  <defs>
    <clipPath id="clip-path">
      <rect id="Rectángulo_321555" data-name="Rectángulo 321555" width="126.083" height="126.077" fill="none"/>
    </clipPath>
    <clipPath id="clip-path-2">
      <rect id="Rectángulo_321560" data-name="Rectángulo 321560" width="47.699" height="84.947" fill="none"/>
    </clipPath>
    <clipPath id="clip-path-3">
      <rect id="Rectángulo_321561" data-name="Rectángulo 321561" width="60.563" height="84.947" fill="none"/>
    </clipPath>
  </defs>
  <g id="Grupo_1072404" data-name="Grupo 1072404" transform="translate(-5267.268 8978)">
    <path id="Trazado_821688" data-name="Trazado 821688" d="M1089.591,69.115A69.114,69.114,0,1,1,1020.476,0a69.115,69.115,0,0,1,69.114,69.114" transform="translate(4315.906 -8978.001)" fill="#1b3f5e"/>
    <g id="Grupo_1072331" data-name="Grupo 1072331" transform="translate(5274.104 -8971.804)" style="isolation: isolate">
      <g id="Grupo_253507" data-name="Grupo 253507" transform="translate(0 0)">
        <g id="Grupo_253506" data-name="Grupo 253506" clip-path="url(#clip-path)">
          <path id="Trazado_271504" data-name="Trazado 271504" d="M1085.176,70.047a63.042,63.042,0,1,1-63.042-63.042,63.042,63.042,0,0,1,63.042,63.042" transform="translate(-959.093 -7.009)" fill="#e5dbd7"/>
        </g>
      </g>
    </g>
    <path id="Trazado_821689" data-name="Trazado 821689" d="M1060.64,56.752v56.775a5.028,5.028,0,0,1-5.032,5.023H1005.1a5.019,5.019,0,0,1-5.023-5.023V64.542a7.988,7.988,0,0,1,2.189-5.09l2.863-2.7Z" transform="translate(4310.262 -8984.577)" fill="#4299bc"/>
    <path id="Trazado_821690" data-name="Trazado 821690" d="M1061.3,35.6V53.717H1005.79l2.758-2.6,9.727-9.159,9.872-9.312a8.734,8.734,0,0,1,5.206-2.074h22.917A5.037,5.037,0,0,1,1061.3,35.6m-5.948,4.454V35.748a1.008,1.008,0,0,0-1-1H1036.92A8.832,8.832,0,0,0,1031.7,36.8l-2.372,2.208c-1.214,1.137-.858,2.053.81,2.053h24.218a1,1,0,0,0,1-1" transform="translate(4309.6 -8981.543)" fill="#c8d3df"/>
    <path id="Trazado_821691" data-name="Trazado 821691" d="M1012.659,46.927l4.9-4.493.935.9-9.727,9.159-1.11-.974Z" transform="translate(4309.384 -8982.917)" fill="#a4aeb8"/>
    <path id="Trazado_821692" data-name="Trazado 821692" d="M1006.251,29.588l4.531,4.936L1000.5,43.963l-4.531-4.937a2.3,2.3,0,0,1-.173-3.23l3.625-3.335,3.634-3.327a2.3,2.3,0,0,1,3.2.454" transform="translate(4310.826 -8981.322)" fill="#e4a915"/>
    <path id="Trazado_821693" data-name="Trazado 821693" d="M1017.423,39.141a1.146,1.146,0,0,1,.087,1.61l-.819.752-4.9,4.492-5,4.589-.7.646a1.146,1.146,0,0,1-1.6-.222l-3.9-4.251a1.107,1.107,0,0,1-.184-1.523c.367-.338.666-.607.666-.607l10.287-9.438s.3-.271.665-.608a1.109,1.109,0,0,1,1.5.309Z" transform="translate(4310.25 -8981.986)" fill="#f5c826"/>
    <path id="Trazado_821694" data-name="Trazado 821694" d="M1005.855,50.6a.48.48,0,0,1-.355-.156l-2.952-3.216a.482.482,0,0,1,.71-.652l2.951,3.216a.48.48,0,0,1-.029.681.474.474,0,0,1-.325.127" transform="translate(4309.99 -8983.379)" fill="#d6950d"/>
    <path id="Trazado_821695" data-name="Trazado 821695" d="M1007.994,48.633a.48.48,0,0,1-.355-.156l-2.951-3.215a.482.482,0,1,1,.71-.652l2.95,3.215a.48.48,0,0,1-.029.681.474.474,0,0,1-.325.127" transform="translate(4309.742 -8983.151)" fill="#d6950d"/>
    <path id="Trazado_821696" data-name="Trazado 821696" d="M1010.133,46.673a.48.48,0,0,1-.354-.156l-2.951-3.216a.482.482,0,1,1,.71-.652l2.951,3.216a.483.483,0,0,1-.03.682.477.477,0,0,1-.325.126" transform="translate(4309.494 -8982.925)" fill="#d6950d"/>
    <path id="Trazado_821697" data-name="Trazado 821697" d="M1012.271,44.711a.479.479,0,0,1-.355-.156l-2.951-3.216a.482.482,0,0,1,.71-.652l2.949,3.216a.481.481,0,0,1-.354.808" transform="translate(4309.247 -8982.697)" fill="#d6950d"/>
    <path id="Trazado_821698" data-name="Trazado 821698" d="M1014.409,42.75a.48.48,0,0,1-.355-.156l-2.95-3.216a.482.482,0,0,1,.71-.652l2.95,3.216a.482.482,0,0,1-.029.682.477.477,0,0,1-.325.126" transform="translate(4308.999 -8982.47)" fill="#d6950d"/>
    <path id="Trazado_821699" data-name="Trazado 821699" d="M1016.547,40.788a.48.48,0,0,1-.354-.156l-2.949-3.215a.482.482,0,1,1,.71-.652l2.949,3.215a.482.482,0,0,1-.029.682.477.477,0,0,1-.325.126" transform="translate(4308.751 -8982.242)" fill="#d6950d"/>
    <path id="Trazado_821700" data-name="Trazado 821700" d="M1052.559,95.189V110.48a3.014,3.014,0,0,1-3.008,3.018H1013.88a3.014,3.014,0,0,1-3.009-3.018V95.189Z" transform="translate(4309.011 -8989.03)" fill="#e4a915"/>
    <path id="Trazado_821701" data-name="Trazado 821701" d="M1052.559,71.634V92.11h-41.688V71.634a3.014,3.014,0,0,1,3.009-3.018h35.671a3.014,3.014,0,0,1,3.008,3.018" transform="translate(4309.011 -8985.951)" fill="#f5e05e"/>
    <path id="Trazado_821702" data-name="Trazado 821702" d="M1049.488,110.837h-35.671a3.5,3.5,0,0,1-3.49-3.5V71.57a3.5,3.5,0,0,1,3.49-3.5h35.671a3.5,3.5,0,0,1,3.491,3.5v35.768a3.5,3.5,0,0,1-3.491,3.5m-35.671-41.8a2.534,2.534,0,0,0-2.526,2.536v35.768a2.534,2.534,0,0,0,2.526,2.536h35.671a2.534,2.534,0,0,0,2.526-2.536V71.57a2.534,2.534,0,0,0-2.526-2.536Z" transform="translate(4309.074 -8985.888)" fill="#c9930a"/>
    <rect id="Rectángulo_375896" data-name="Rectángulo 375896" width="41.688" height="0.964" transform="translate(5319.882 -8894.323)" fill="#c9930a"/>
    <path id="Trazado_821703" data-name="Trazado 821703" d="M1021.942,86.229a2.82,2.82,0,1,1-2.819-2.827,2.822,2.822,0,0,1,2.819,2.827" transform="translate(4308.382 -8987.665)" fill="#69a1df"/>
    <path id="Trazado_821704" data-name="Trazado 821704" d="M1051.927,111.622l.868-.42-2.343-4.837h2.245V105.4h-2.713l-2.941-6.071h5.644v-.964h-6.111l-1.654-3.415-.868.42,1.451,2.995h-7.932l-.315-3.251-.96.093.305,3.158h-7.758l.7-3.1-.942-.211c-.233,1.04-.485,2.159-.745,3.31h-8.571l1.752-2.959-.831-.49-2.042,3.449h-7v.964h6.43L1014,105.4h-2.666v.964h2.094l-2.843,4.8.83.491,3.134-5.293h11.5c-.854,3.765-1.529,6.706-1.6,6.941l.453.16v.483c.39,0,.42-.006,2.136-7.584h10.341l.691,7.147.96-.093-.682-7.054h11.035Zm-36.809-6.221,3.6-6.071h8.924c-.459,2.034-.934,4.135-1.373,6.071Zm12.136,0,.222-.981c.405-1.789.809-3.575,1.151-5.09h8.069l.586,6.071Zm11,0-.586-6.071h8.306l2.942,6.071Z" transform="translate(4309.045 -8988.999)" fill="#c9930a"/>
    <path id="Trazado_821705" data-name="Trazado 821705" d="M1044.875,103.377c5.911.973,5.36,5.826,5.36,5.826h.428s-.551-4.852,5.361-5.826c-5.911-.969-5.361-5.822-5.361-5.822h-.428s.551,4.853-5.36,5.822" transform="translate(4305.071 -8989.305)" fill="#fff"/>
    <path id="Trazado_821706" data-name="Trazado 821706" d="M1012.787,103.629c3.964.653,3.595,3.907,3.595,3.907h.286s-.37-3.254,3.6-3.907c-3.965-.65-3.6-3.905-3.6-3.905h-.286s.37,3.255-3.595,3.905" transform="translate(4308.789 -8989.556)" fill="#fff"/>
    <path id="Trazado_821707" data-name="Trazado 821707" d="M1019.279,98.844c1.843.3,1.672,1.816,1.672,1.816h.132s-.171-1.513,1.673-1.816c-1.844-.3-1.673-1.815-1.673-1.815h-.132s.172,1.513-1.672,1.815" transform="translate(4308.037 -8989.243)" fill="#fff"/>
    <rect id="Rectángulo_375897" data-name="Rectángulo 375897" width="26.443" height="3.857" transform="translate(5327.505 -8913.104)" fill="#fff"/>
    <rect id="Rectángulo_375898" data-name="Rectángulo 375898" width="26.443" height="3.857" transform="translate(5327.505 -8906.55)" fill="#fff"/>
    <rect id="Rectángulo_375899" data-name="Rectángulo 375899" width="26.443" height="1.928" transform="translate(5327.505 -8879.679)" fill="#fff"/>
    <path id="Trazado_821708" data-name="Trazado 821708" d="M1055.013,87.617a5.807,5.807,0,1,1-5.806-5.823,5.815,5.815,0,0,1,5.806,5.823" transform="translate(4305.242 -8987.479)" fill="#527dab"/>
    <path id="Trazado_821709" data-name="Trazado 821709" d="M1048.352,92.321a4,4,0,1,1-4-4.014,4.007,4.007,0,0,1,4,4.014" transform="translate(4305.595 -8988.232)" fill="#69a1df"/>
    <g id="Grupo_1072332" data-name="Grupo 1072332" transform="translate(5310.341 -8950.973)" style="mix-blend-mode: screen;isolation: isolate">
      <g id="Grupo_253510" data-name="Grupo 253510" transform="translate(0 0)">
        <g id="Grupo_253509" data-name="Grupo 253509" clip-path="url(#clip-path-2)">
          <path id="Trazado_271526" data-name="Trazado 271526" d="M1010.219,64.022c0-1.8,3.351-4.263,4.664-5.5l3.1-2.919,2.981-2.815,10.518-9.9,1.931-1.821h-3.937c-1.667,0-2.025-.916-.81-2.054l2.371-2.208a8.833,8.833,0,0,1,5.225-2.053h3.844l2.049-1.934a9.454,9.454,0,0,1,5.629-2.241h-15.09a8.741,8.741,0,0,0-5.2,2.072l-9.872,9.313-9.728,9.159-2.758,2.6-2.863,2.7a7.988,7.988,0,0,0-2.189,5.09v48.985a5.02,5.02,0,0,0,5.023,5.023h5.12Z" transform="translate(-1000.08 -30.57)" fill="#515659"/>
        </g>
      </g>
    </g>
    <g id="Grupo_1072333" data-name="Grupo 1072333" transform="translate(5310.341 -8950.973)" style="mix-blend-mode: multiply;isolation: isolate">
      <g id="Grupo_253513" data-name="Grupo 253513" transform="translate(0 0)">
        <g id="Grupo_253512" data-name="Grupo 253512" clip-path="url(#clip-path-3)">
          <path id="Trazado_271527" data-name="Trazado 271527" d="M1055.608,30.571h-2.583v4.175h.665a1.007,1.007,0,0,1,1,1v4.309a1,1,0,0,1-1,1h-.665v61.591a5.028,5.028,0,0,1-5.032,5.023h-47.916v2.819a5.02,5.02,0,0,0,5.024,5.023h50.509a5.028,5.028,0,0,0,5.032-5.023V35.6a5.036,5.036,0,0,0-5.032-5.032" transform="translate(-1000.08 -30.57)" fill="#c8d3df"/>
        </g>
      </g>
    </g>
    <path id="Trazado_821710" data-name="Trazado 821710" d="M1057.278,42.026H1033.06c-1.371,0-1.8-.566-1.934-.9s-.207-1.045.795-1.983l2.372-2.209a9.277,9.277,0,0,1,5.554-2.182h17.431a1.485,1.485,0,0,1,1.484,1.484v4.309a1.485,1.485,0,0,1-1.484,1.484m-17.431-6.314a8.3,8.3,0,0,0-4.9,1.925l-2.372,2.208c-.531.5-.6.821-.555.924s.309.294,1.036.294h24.218a.521.521,0,0,0,.521-.521V36.232a.527.527,0,0,0-.521-.521Z" transform="translate(4306.673 -8982.027)" fill="#c8d3df"/>
    <path id="Trazado_821711" data-name="Trazado 821711" d="M1003.157,79.072a1.446,1.446,0,0,1-1.446-1.446V63.087a6.574,6.574,0,0,1,1.736-4.039l15.347-14.46a1.446,1.446,0,0,1,1.983,2.106l-15.344,14.457a3.949,3.949,0,0,0-.828,1.935V77.626a1.446,1.446,0,0,1-1.446,1.446" transform="translate(4310.073 -8983.121)" fill="#fff"/>
    <path id="Trazado_821712" data-name="Trazado 821712" d="M1003.157,93.2a1.446,1.446,0,0,1-1.446-1.446V89.941a1.446,1.446,0,0,1,2.893,0v1.816a1.446,1.446,0,0,1-1.446,1.446" transform="translate(4310.073 -8988.255)" fill="#fff"/>
  </g>
</svg>
