<svg xmlns="http://www.w3.org/2000/svg" width="191.533" height="170.669" viewBox="0 0 191.533 170.669">
  <g id="Grupo_1075436" data-name="Grupo 1075436" transform="translate(-344.234 -1383)">
    <g id="Grupo_875265" data-name="Grupo 875265" transform="translate(370 1383)">
      <path id="Trazado_612485" data-name="Trazado 612485" d="M1198.781,240.878c18.908-41.017,65.016-61.553,107.908-46.755.868.267,3.265,1.217,4.163,1.574.777.272,1.963.811,2.728,1.17l2.7,1.244c1.285.6,2.666,1.44,3.942,2.081,1.515.807,3.633,2.173,5.1,3.056.738.5,2.9,2.012,3.674,2.54a85.557,85.557,0,0,1,30.908,96.447c-.369.92-1.193,3.374-1.579,4.276-.3.684-.886,2.113-1.182,2.8-.4,1.071-1.47,3.086-1.94,4.128-.618,1.282-1.492,2.76-2.155,4.021-.555,1.019-1.787,2.9-2.367,3.9-.575.772-1.99,3.008-2.586,3.763-.459.583-1.389,1.83-1.849,2.418-1.445,1.845-3.34,4.074-4.964,5.762-19.254,20.9-49.46,30.851-77.3,25.065a2.392,2.392,0,0,1,.728-4.724,89.959,89.959,0,0,0,22.553-.173c.986-.14,3.219-.539,4.157-.674.787-.19,3.268-.7,4.11-.9,2.941-.744,5.837-1.651,8.705-2.632,1.484-.61,3.077-1.178,4.543-1.814.908-.4,2.938-1.378,3.8-1.761a82.336,82.336,0,0,0,17.349-11.6c1.2-.995,2.982-2.656,4.113-3.772.563-.5,1.407-1.453,1.941-2,28.093-29.37,29.578-76.8,3.169-107.845-32.661-39.11-93.9-38.226-124.988,2.375a75.991,75.991,0,0,0-10.967,19.869,2.393,2.393,0,1,1-4.415-1.838Z" transform="translate(-1198.555 -189.329)" fill="#1b3f5e"/>
    </g>
    <g id="Grupo_875266" data-name="Grupo 875266" transform="translate(379.989 1398.599)">
      <ellipse id="Elipse_4839" data-name="Elipse 4839" cx="69.067" cy="69.067" rx="69.067" ry="69.067" fill="#148d80"/>
    </g>
    <g id="Grupo_898122" data-name="Grupo 898122" transform="translate(1125.234 5673.879)">
      <path id="Trazado_624642" data-name="Trazado 624642" d="M206.2,175.15a.338.338,0,0,1-.188-.053l-1.3-.752a.376.376,0,0,1,.376-.646l1.3.752a.376.376,0,0,1-.188.7Z" transform="translate(-855.64 -4345.897)"/>
      <path id="Trazado_624643" data-name="Trazado 624643" d="M202.886,173.243a.354.354,0,0,1-.188-.053l-1.3-.752a.368.368,0,0,1-.135-.511.383.383,0,0,1,.511-.143l1.3.752a.391.391,0,0,1,.143.519A.383.383,0,0,1,202.886,173.243Z" transform="translate(-854.81 -4345.418)"/>
      <path id="Trazado_624648" data-name="Trazado 624648" d="M236.224,158.06a.376.376,0,0,1-.331-.188.368.368,0,0,1,.143-.511l1.3-.752a.376.376,0,0,1,.376.646l-1.3.752a.353.353,0,0,1-.188.053Z" transform="translate(-863.41 -4341.653)"/>
      <path id="Trazado_631915" data-name="Trazado 631915" d="M21.73,25.93l4.818,44.093,21.866,8.652,11.177,25.083,77.677,43.6,48.062-26.293-49.1-48.31L90.763,49.578l-19.393-7.5L31.224,17.88Z" transform="translate(-786.396 -4281.029)" fill="#35241a" opacity="0.1"/>
      <path id="Trazado_624771" data-name="Trazado 624771" d="M88.407,64.4c-2.165-1.248-4.127-1.361-5.547-.541l-3.24,1.887c1.413-.827,3.375-.707,5.54.541,4.307,2.488,7.787,8.516,7.772,13.47,0,2.458-.872,4.187-2.255,5l3.247-1.879c1.4-.812,2.255-2.548,2.255-5.006C96.187,72.922,92.684,66.886,88.407,64.4Z" transform="translate(-824.615 -4318.498)" fill="#333"/>
      <path id="Trazado_624772" data-name="Trazado 624772" d="M84.415,66.912c4.307,2.488,7.787,8.516,7.772,13.47s-3.51,6.945-7.825,4.457A17.1,17.1,0,0,1,76.59,71.377C76.605,66.423,80.1,64.462,84.415,66.912Z" transform="translate(-823.863 -4319.125)"/>
      <path id="Trazado_631916" data-name="Trazado 631916" d="M46.347,59.958,36.824,58.68l-5.1,2.548a14.71,14.71,0,0,1,6.7,4.39l13.8,1.924Z" transform="translate(-812.72 -4317.342)"/>
      <path id="Trazado_631917" data-name="Trazado 631917" d="M40.64,67.91a12.2,12.2,0,0,1,3.007,6.517L56.9,75.442l-2.458-5.607Z" transform="translate(-814.935 -4319.634)" fill="#666"/>
      <path id="Trazado_631918" data-name="Trazado 631918" d="M51.625,75.713l-11.11-1.5L34.57,77.217a17.108,17.108,0,0,1,7.84,5.1l16.116,2.255Z" transform="translate(-813.428 -4321.198)"/>
      <path id="Trazado_631919" data-name="Trazado 631919" d="M45,85a14.282,14.282,0,0,1,3.473,7.592l15.454,1.188-2.834-6.524Z" transform="translate(-816.018 -4323.878)" fill="#666"/>
      <path id="Trazado_631920" data-name="Trazado 631920" d="M56.721,93.6,43.943,91.89,37.08,95.318a19.746,19.746,0,0,1,9.02,5.893L64.674,103.8Z" transform="translate(-814.051 -4325.589)"/>
      <path id="Trazado_631921" data-name="Trazado 631921" d="M49,104.29a16.462,16.462,0,0,1,4.029,8.757l17.815,1.368-3.27-7.517Z" transform="translate(-817.011 -4328.668)" fill="#666"/>
      <path id="Trazado_631922" data-name="Trazado 631922" d="M54.279,35.34,45.89,40.211V45.39L62.96,89.152l6.562,3.758,37.651-21.881V65.858ZM67.305,82.59,52.738,45.307l1.5-.894L95.936,68.466l-26.421,15.4Z" transform="translate(-816.239 -4311.545)" fill="#ad411a"/>
      <path id="Trazado_631923" data-name="Trazado 631923" d="M54.279,35.34,107.188,65.9,69.537,87.769,62.975,84.01,45.89,40.211ZM69.515,83.868,100.454,65.9,54.3,39.241,51.114,41.1,67.305,82.59l2.21,1.278Z" transform="translate(-816.239 -4311.545)" fill="#f15a24"/>
      <path id="Trazado_631924" data-name="Trazado 631924" d="M47.89,22.26l3.044,16.612L54.8,41.5l4.66-12.658Z" transform="translate(-792.893 -4282.117)" fill="#ad411a"/>
      <path id="Trazado_631925" data-name="Trazado 631925" d="M54.963,55.923a2.03,2.03,0,0,1-1.849,0c-.511-.293-.5-.752,0-1.067a2.007,2.007,0,0,1,1.849,0C55.482,55.149,55.475,55.66,54.963,55.923Z" transform="translate(-817.938 -4316.336)"/>
      <path id="Trazado_631926" data-name="Trazado 631926" d="M62,73.942a2.052,2.052,0,0,1-1.849,0c-.511-.3-.511-.752,0-1.075a2.037,2.037,0,0,1,1.842,0A.571.571,0,0,1,62,73.942Z" transform="translate(-819.686 -4320.811)"/>
      <path id="Trazado_631927" data-name="Trazado 631927" d="M69.04,91.955a2.022,2.022,0,0,1-1.857,0,.564.564,0,0,1,0-1.067,2.052,2.052,0,0,1,1.849,0,.564.564,0,0,1,.008,1.067Z" transform="translate(-821.432 -4325.285)"/>
      <path id="Trazado_631928" data-name="Trazado 631928" d="M221.874,93.983l-2.932-1.691a2.045,2.045,0,0,0-2.045-.2l-4.781,2.781a2.007,2.007,0,0,0-.842,1.842l-.045,16.2a6.284,6.284,0,0,0,2.864,4.953l2.931,1.7a2.015,2.015,0,0,0,2.045.188l4.773-2.774a2.015,2.015,0,0,0,.842-1.842l.045-16.2A6.322,6.322,0,0,0,221.874,93.983Z" transform="translate(-857.298 -4325.593)" fill="#4d4d4d"/>
      <path id="Trazado_631929" data-name="Trazado 631929" d="M217.065,97.68a6.269,6.269,0,0,1,2.856,4.946l-.045,16.206c0,1.827-1.293,2.556-2.871,1.646l-2.932-1.7a6.284,6.284,0,0,1-2.864-4.953l.045-16.2c0-1.827,1.3-2.556,2.879-1.639Z" transform="translate(-857.293 -4326.508)" fill="#1a1a1a"/>
      <path id="Trazado_624787" data-name="Trazado 624787" d="M222.089,40.758l-.113,41.387a1,1,0,0,1-.594.827,3.172,3.172,0,0,1-2.871,0,1.007,1.007,0,0,1-.6-.834l.113-41.387a1.022,1.022,0,0,0,.6.834,3.187,3.187,0,0,0,2.879,0,1,1,0,0,0,.586-.827Z" transform="translate(-858.957 -4312.889)" fill="#333"/>
      <path id="Trazado_624788" data-name="Trazado 624788" d="M221.53,39.534a.879.879,0,0,1,0,1.661,3.187,3.187,0,0,1-2.879,0,.879.879,0,0,1,0-1.669A3.165,3.165,0,0,1,221.53,39.534Z" transform="translate(-858.992 -4312.5)" fill="#333"/>
      <path id="Trazado_631930" data-name="Trazado 631930" d="M218.059,39.459c-.113-4.285,2.165-5.2,6.532-1.969L222.524,41C221.9,40.835,218.059,39.459,218.059,39.459Z" transform="translate(-858.993 -4311.598)" fill="#333"/>
      <path id="Trazado_631931" data-name="Trazado 631931" d="M226.349,39.029c0-.917-.646-1.293-1.436-.842a3.172,3.172,0,0,0-1.443,2.488c0,.925.646,1.3,1.443.842A3.172,3.172,0,0,0,226.349,39.029Z" transform="translate(-860.338 -4312.206)"/>
      <path id="Trazado_624791" data-name="Trazado 624791" d="M254.568,155.969c6.231,3.593,11.275,12.327,11.275,19.491s-5.1,10.05-11.328,6.449-11.275-12.32-11.275-19.483S248.321,152.368,254.568,155.969Z" transform="translate(-865.247 -4341.117)" fill="#333"/>
      <path id="Trazado_624792" data-name="Trazado 624792" d="M254.568,155.969c6.231,3.593,11.275,12.327,11.275,19.491s-5.1,10.05-11.328,6.449-11.275-12.32-11.275-19.483S248.321,152.368,254.568,155.969Z" transform="translate(-865.247 -4341.117)"/>
      <path id="Trazado_624793" data-name="Trazado 624793" d="M263.728,146.7c-3.668-2.12-7-2.323-9.4-.925l-6.562,3.811c2.405-1.391,5.728-1.2,9.4.925,7.3,4.209,13.192,14.424,13.169,22.813,0,4.172-1.5,7.1-3.856,8.479l6.562-3.811c2.375-1.376,3.841-4.307,3.856-8.479C276.957,161.125,271.064,150.91,263.728,146.7Z" transform="translate(-866.372 -4338.75)" fill="#333"/>
      <path id="Trazado_624794" data-name="Trazado 624794" d="M255.939,151.77c-7.3-4.217-13.237-.834-13.259,7.517a22.055,22.055,0,0,0,.752,5.653c.1.391.2.752.308,1.165a18.883,18.883,0,0,1-.669-4.826c0-7.163,5.089-10.057,11.328-6.457s11.275,12.327,11.275,19.491-5.1,10.05-11.328,6.449a18.928,18.928,0,0,1-3.758-2.894l.857.842a22.55,22.55,0,0,0,4.39,3.4c7.3,4.209,13.237.827,13.259-7.562S263.216,156,255.939,151.77Z" transform="translate(-865.108 -4340.008)" fill="#1a1a1a"/>
      <path id="Trazado_631932" data-name="Trazado 631932" d="M253.488,160.844a7.726,7.726,0,0,1,2.075.947,18.148,18.148,0,0,1,7.675,13.289,8.1,8.1,0,0,1-.218,2.255c-.789,3.089-3.578,3.984-6.975,1.879-4.1-2.533-7.517-8.494-7.675-13.289C248.264,161.934,250.421,159.987,253.488,160.844Z" transform="translate(-866.52 -4342.663)" fill="#b3b3b3"/>
      <path id="Trazado_624796" data-name="Trazado 624796" d="M248.33,139.282l4.51,2.6a2.819,2.819,0,0,1-1.27-2.067,6.457,6.457,0,0,0,5.262-9.185,2.819,2.819,0,0,1,2.405.06l-4.51-2.6-.113-.053c-.128-.083-.248-.165-.383-.241a6.465,6.465,0,0,0-6.434,11.215l.376.2a1.146,1.146,0,0,0,.158.075Z" transform="translate(-865.572 -4334.292)" fill="#fbb03b"/>
      <path id="Trazado_624797" data-name="Trazado 624797" d="M252.6,144.245l.5.293a2.7,2.7,0,0,0-.068-.338,2.087,2.087,0,0,0-.436.045Z" transform="translate(-867.572 -4338.579)" fill="#999"/>
      <path id="Trazado_624798" data-name="Trazado 624798" d="M253.624,129.19l2.563,1.5.218.128a3.488,3.488,0,0,1,1.5-.6l-.443-.256c.526.3.256.135-2.563-1.5a5.908,5.908,0,0,0-6.472.383A5.878,5.878,0,0,1,253.624,129.19Z" transform="translate(-866.536 -4334.476)" fill="#fff"/>
      <path id="Trazado_624799" data-name="Trazado 624799" d="M255.37,140.342a8.606,8.606,0,0,1,3.9-6.765c2.15-1.233,3.894-.21,3.894,2.255a8.584,8.584,0,0,1-3.894,6.765C257.121,143.86,255.37,142.838,255.37,140.342Z" transform="translate(-868.26 -4335.811)" fill="#ccc"/>
      <path id="Trazado_624800" data-name="Trazado 624800" d="M253.79,140.043c0,2.916,2.044,4.112,4.563,2.668a7.8,7.8,0,0,0,1.563-1.21l.293-.293a6.27,6.27,0,0,1-1.33,1.03c-2.15,1.24-3.9.218-3.9-2.255a8.606,8.606,0,0,1,3.9-6.765c2.15-1.233,3.894-.21,3.894,2.255a6.538,6.538,0,0,1-.218,1.631l.105-.406a7.707,7.707,0,0,0,.256-1.9c0-2.917-2.045-4.112-4.563-2.668A10.057,10.057,0,0,0,253.79,140.043Z" transform="translate(-867.867 -4335.429)" fill="#c4720e"/>
      <path id="Trazado_631933" data-name="Trazado 631933" d="M259.416,142.11a7.569,7.569,0,0,0,3.255-5.638c.06-2.052-1.315-2.856-3.059-1.8a7.569,7.569,0,0,0-3.262,5.645C256.3,142.373,257.672,143.177,259.416,142.11Z" transform="translate(-868.502 -4336.098)" fill="#fff"/>
      <path id="Trazado_631934" data-name="Trazado 631934" d="M256.385,140.907a3.016,3.016,0,0,1,0-.586,7.607,7.607,0,0,1,3.255-5.645,3.533,3.533,0,0,1,.5-.256c1.5-.639,2.616.2,2.563,2.052a7.569,7.569,0,0,1-3.255,5.638C257.851,143.071,256.581,142.515,256.385,140.907Z" transform="translate(-868.508 -4336.098)" fill="#fff"/>
      <path id="Trazado_631935" data-name="Trazado 631935" d="M256.385,140.977a3.016,3.016,0,0,1,0-.586,7.607,7.607,0,0,1,3.255-5.645,3.533,3.533,0,0,1,.5-.256,2.345,2.345,0,0,1,.661,1.624,5.262,5.262,0,0,1-2.668,4.63,2.3,2.3,0,0,1-1.751.233Z" transform="translate(-868.508 -4336.167)" fill="#fff8b3"/>
      <path id="Trazado_631936" data-name="Trazado 631936" d="M163.632,66.507l.008-2.947L162.866,63l-.271-2.571.669-.391-.654-3.24-.774-.323-.9-3.059.571-.338-1.27-3.292-.722-.075-1.518-3.165.474-.428-1.8-3.134-.624.188-1.977-2.894.3-.654-2.217-2.766-.579.338-2.21-2.33.113-.827-2.48-2.195-.669.383-2.112-1.533-.1-.947-2.571-1.488-.864.5-1.721-.729-.286-1-2.488-.669-1.376.8-.834-.09-.474-.985-2.225.2-2,1.158-.316-.459-1.819,1.037-12.3,7.148.218.466-2,1.165-1.293,1.812.624.9-.331.714-1.413.819-.669,2.473.722.752-.226,1.819-.887.511-.008,2.954.774.564.271,2.571-.669.391.654,3.232.774.331.9,3.052-.579.338,1.278,3.3.722.075,1.518,3.157-.474.436,1.8,3.134.624-.2,1.977,2.9-.3.654,2.217,2.759.571-.338,2.217,2.338-.113.827,2.481,2.195.669-.391,2.112,1.541.1.947,2.563,1.481.872-.5,1.714.729.293,1,2.488.677,1.376-.8.834.083.474.985,2.225-.188,2-1.158.316.459,1.819-1.037,12.3-7.148-.218-.474,2-1.158,1.285-1.812-.616-.91.323-.707,1.413-.827.676-2.465-.722-.759.226-1.812Z" transform="translate(-808.212 -4283.068)" fill="#333"/>
      <path id="Trazado_631937" data-name="Trazado 631937" d="M132.031,96.268l12.3-7.148-.293.661-12.3,7.148Z" transform="translate(-813.713 -4298.72)"/>
      <path id="Trazado_631938" data-name="Trazado 631938" d="M110.08,59.638l12.3-7.148.722.068-12.3,7.148Z" transform="translate(-808.336 -4289.624)"/>
      <path id="Trazado_631939" data-name="Trazado 631939" d="M139.075,100.808l12.3-7.148-.105.827-12.3,7.148Z" transform="translate(-815.511 -4299.848)"/>
      <path id="Trazado_631940" data-name="Trazado 631940" d="M109.59,51.018l12.3-7.148.774.331-12.3,7.148Z" transform="translate(-808.215 -4287.483)"/>
      <path id="Trazado_631941" data-name="Trazado 631941" d="M145.97,103.168l12.3-7.148.1.947-12.3,7.156Z" transform="translate(-817.249 -4300.434)"/>
      <path id="Trazado_631942" data-name="Trazado 631942" d="M111,43.628l12.3-7.148.774.571-12.3,7.148Z" transform="translate(-808.565 -4285.648)"/>
      <path id="Trazado_631943" data-name="Trazado 631943" d="M152.25,103.208l12.3-7.148.293,1-12.3,7.148Z" transform="translate(-818.809 -4300.443)"/>
      <path id="Trazado_631944" data-name="Trazado 631944" d="M114.21,37.976l12.3-7.156.722.767-12.3,7.148Z" transform="translate(-809.362 -4284.243)"/>
      <path id="Trazado_631945" data-name="Trazado 631945" d="M157.51,100.908l12.3-7.148.474.992-12.3,7.148Z" transform="translate(-820.115 -4299.873)"/>
      <path id="Trazado_631946" data-name="Trazado 631946" d="M119,34.428l12.3-7.148.616.9-12.3,7.148Z" transform="translate(-810.552 -4283.363)"/>
      <path id="Trazado_631947" data-name="Trazado 631947" d="M159.036,99.048l12.3-7.148-1.533,1.4-12.3,7.148Z" transform="translate(-820.115 -4299.411)" fill="#1a1a1a"/>
      <path id="Trazado_631948" data-name="Trazado 631948" d="M119.82,35.43l12.3-7.148,1.992-.6-12.3,7.148Z" transform="translate(-810.755 -4283.463)" fill="#1a1a1a"/>
      <path id="Trazado_631949" data-name="Trazado 631949" d="M161.39,96.438l12.3-7.148.616.91-12.3,7.148Z" transform="translate(-821.078 -4298.763)"/>
      <path id="Trazado_631950" data-name="Trazado 631950" d="M125.03,33.238l12.3-7.148.474.985-12.3,7.148Z" transform="translate(-812.049 -4283.068)"/>
      <path id="Trazado_631951" data-name="Trazado 631951" d="M162.36,93.648l12.3-7.148-.962,2.1-12.3,7.148Z" transform="translate(-821.078 -4298.07)" fill="#1a1a1a"/>
      <path id="Trazado_631952" data-name="Trazado 631952" d="M125.66,34.548l12.3-7.148,2.315.241-12.3,7.148Z" transform="translate(-812.205 -4283.394)" fill="#1a1a1a"/>
      <path id="Trazado_631953" data-name="Trazado 631953" d="M163.64,90.108l12.3-7.148.722.759-12.3,7.148Z" transform="translate(-821.637 -4297.19)"/>
      <path id="Trazado_631954" data-name="Trazado 631954" d="M131.91,34.488l12.3-7.148.286,1-12.3,7.148Z" transform="translate(-813.758 -4283.378)"/>
      <path id="Trazado_631955" data-name="Trazado 631955" d="M163.978,86.568l12.3-7.148-.331,2.661-12.3,7.148Z" transform="translate(-821.637 -4296.312)" fill="#1a1a1a"/>
      <path id="Trazado_631956" data-name="Trazado 631956" d="M132.3,35.818l12.3-7.148,2.488,1.06-12.3,7.148Z" transform="translate(-813.854 -4283.709)" fill="#1a1a1a"/>
      <path id="Trazado_631957" data-name="Trazado 631957" d="M164.1,82.338l12.3-7.148.774.564-12.3,7.148Z" transform="translate(-821.751 -4295.261)"/>
      <path id="Trazado_631958" data-name="Trazado 631958" d="M139.16,38.1l12.3-7.148.1.947-12.3,7.148Z" transform="translate(-815.558 -4284.275)"/>
      <path id="Trazado_631959" data-name="Trazado 631959" d="M163.67,78.288l12.3-7.148.323,3.044-12.3,7.148Z" transform="translate(-821.645 -4294.255)" fill="#1a1a1a"/>
      <path id="Trazado_631960" data-name="Trazado 631960" d="M139.29,39.358l12.3-7.148,2.48,1.8-12.3,7.148Z" transform="translate(-815.59 -4284.588)" fill="#1a1a1a"/>
      <path id="Trazado_631961" data-name="Trazado 631961" d="M162.73,73.658l12.3-7.148.774.323-12.3,7.148Z" transform="translate(-821.411 -4293.106)"/>
      <path id="Trazado_631962" data-name="Trazado 631962" d="M146.245,43.808l12.3-7.148-.113.827-12.3,7.148Z" transform="translate(-817.291 -4285.693)"/>
      <path id="Trazado_631963" data-name="Trazado 631963" d="M161.47,69.386l12.3-7.156.947,3.217-12.3,7.148Z" transform="translate(-821.098 -4292.043)" fill="#1a1a1a"/>
      <path id="Trazado_631964" data-name="Trazado 631964" d="M146.14,44.908l12.3-7.148,2.308,2.435-12.3,7.148Z" transform="translate(-817.291 -4285.966)" fill="#1a1a1a"/>
      <path id="Trazado_631965" data-name="Trazado 631965" d="M157.62,60.448l12.3-7.148,1.518,3.165-12.3,7.148Z" transform="translate(-820.142 -4289.825)" fill="#1a1a1a"/>
      <path id="Trazado_631966" data-name="Trazado 631966" d="M152.39,52.108l12.3-7.148,1.977,2.894L154.367,55Z" transform="translate(-818.843 -4287.754)" fill="#1a1a1a"/>
      <path id="Trazado_631967" data-name="Trazado 631967" d="M159.64,64.658l12.3-7.148.722.075-12.3,7.148Z" transform="translate(-820.644 -4290.871)"/>
      <path id="Trazado_631968" data-name="Trazado 631968" d="M152.691,51.238,165,44.09l-.3.654-12.3,7.148Z" transform="translate(-818.843 -4287.538)"/>
      <path id="Trazado_631969" data-name="Trazado 631969" d="M155.02,55.9l12.3-7.148.624-.188-12.3,7.148Z" transform="translate(-819.497 -4288.648)"/>
      <path id="Trazado_631970" data-name="Trazado 631970" d="M131.814,39.253l.1.947,2.473,1.8.3-.654,2.481,2.195-.105.827,2.308,2.435.474-.443,2.217,2.766-.3.654,1.977,2.894.624-.188,1.812,3.134-.481.428,1.518,3.165.722.075,1.27,3.292-.616.188.947,3.21.782.323.654,3.24-.729-.083.323,3.044.774.564-.008,2.947-.774-.331-.338,2.661.722.759-.669,2.473-.774-.571-.97,2.1.616.91-1.285,1.812-.722-.759-1.526,1.4.474.992-1.819,1.037-.624-.91-1.984.609.293,1-2.225.188-.474-.985-2.315-.233.105.955-2.488-.677-.293-1-2.48-1.052-.105.827-2.563-1.481-.1-.947-2.48-1.812-.3.661-2.481-2.195.113-.827-2.315-2.443-.474.443-2.217-2.759.3-.654-1.977-2.9-.624.2-1.8-3.134.474-.436-1.518-3.157-.722-.075-1.278-3.3.624-.188-.947-3.2-.774-.331-.654-3.232.714.068-.316-3.029-.774-.564.008-2.954.782.331.331-2.661-.722-.752.669-2.473.774.571.97-2.1-.624-.9,1.293-1.812.722.759,1.533-1.406-.474-.985,1.819-1.037.616.9,1.992-.6-.3-1,2.225-.2.474.985,2.315.241-.105-.955,2.488.669.293,1,2.48,1.06.105-.834Z" transform="translate(-808.212 -4285.43)"/>
      <path id="Trazado_631971" data-name="Trazado 631971" d="M160.781,82.853a15.462,15.462,0,0,1,3.33,1.443c7.727,4.39,13.951,15.221,13.951,24.113a16,16,0,0,1-.413,3.7c-1.5,6.156-7.006,8.216-13.53,4.457-7.7-4.42-13.958-15.236-13.958-24.174C150.152,84.83,154.685,81.049,160.781,82.853Z" transform="translate(-842.132 -4323.234)" fill="#666"/>
      <path id="Trazado_624840" data-name="Trazado 624840" d="M155.24,43.436l13.981-8.126,9.133,26.218-13.981,8.118Z" transform="translate(-819.551 -4285.357)" fill="#c4720e"/>
      <path id="Trazado_624841" data-name="Trazado 624841" d="M109.69,17.136,123.671,9.01l34.238,19.769L143.928,36.9Z" transform="translate(-808.24 -4278.827)" fill="#ffbe59"/>
      <path id="Trazado_624842" data-name="Trazado 624842" d="M153.061,65.8l-4.5,7.434L147.3,72.5,122.979,58.441,111.93,27.93l-2.24-6.171V19.82l34.238,19.769Z" transform="translate(-808.24 -4281.511)" fill="#c4720e"/>
      <path id="Trazado_624843" data-name="Trazado 624843" d="M159.651,30.15,126.72,11.14,123.33,13.1l33.156,19.145,8.434,24.211,3.24-1.887Z" transform="translate(-811.627 -4279.355)" fill="#fff" opacity="0.3"/>
      <path id="Trazado_631972" data-name="Trazado 631972" d="M149.472,72.816l-1.436,2.368L123.72,61.12,112.67,30.61l27.669,15.98Z" transform="translate(-808.98 -4284.19)" fill="#c4720e" opacity="0.3"/>
      <path id="Trazado_631973" data-name="Trazado 631973" d="M133.8,111.4l19.573-11.373,17.672,10.208L151.7,121.746Z" transform="translate(-814.227 -4301.43)" fill="#666"/>
      <path id="Trazado_631974" data-name="Trazado 631974" d="M133.038,108.984l19.573-11.373L150.3,90.29,130.73,101.663Z" transform="translate(-813.464 -4299.011)" fill="#4d4d4d"/>
      <path id="Trazado_624847" data-name="Trazado 624847" d="M101.33,84.69,120.9,73.31,143,86.073,123.429,97.446Z" transform="translate(-806.164 -4294.794)" fill="#333"/>
      <path id="Trazado_624848" data-name="Trazado 624848" d="M162.51,110.963,182.083,99.59,190.3,118.8l-19.573,11.38Z" transform="translate(-821.357 -4301.321)" fill="#7c7c7c"/>
      <path id="Trazado_624849" data-name="Trazado 624849" d="M173.44,136.52l19.573-11.38,20.821,12.027-19.566,11.373Z" transform="translate(-824.071 -4307.665)" fill="#6e6e6e"/>
      <path id="Trazado_624850" data-name="Trazado 624850" d="M209.033,155.423l19.573-11.373-.03,9.4L209.01,164.819Z" transform="translate(-832.904 -4312.361)" fill="#333"/>
      <path id="Trazado_624851" data-name="Trazado 624851" d="M201.15,150.863l19.573-11.373,5.931,3.428L207.081,154.29Z" transform="translate(-830.952 -4311.229)" fill="#6e6e6e"/>
      <path id="Trazado_624852" data-name="Trazado 624852" d="M206.827,158.048,200.9,154.62v1.24l-.767-.436v8.163l6.675,3.856Z" transform="translate(-830.699 -4314.986)" fill="#454545"/>
      <path id="Trazado_624853" data-name="Trazado 624853" d="M155.52,127.409,147.3,100.266l-9.373-5.42,1.954,21.851-14.161-8.171-2.308-7.321-22.1-12.756-.038,15.808,63.313,36.554,10.989,6.344v-8.163Z" transform="translate(-806.151 -4298.554)"/>
      <path id="Trazado_631975" data-name="Trazado 631975" d="M201.15,150.863l19.573-11.373,5.931,3.428L207.081,154.29Z" transform="translate(-830.952 -4311.229)" fill="#4d4d4d"/>
      <path id="Trazado_631976" data-name="Trazado 631976" d="M206.594,158.048l-5.931-3.428v1.24l-1.473.812.707,6.915,6.675,3.856Z" transform="translate(-830.465 -4314.986)"/>
      <path id="Trazado_624856" data-name="Trazado 624856" d="M120.48,74.859l16.777-9.749,5.916,17.326L126.4,92.185Z" transform="translate(-810.919 -4292.758)" fill="#333"/>
      <path id="Trazado_624857" data-name="Trazado 624857" d="M93,58.989l16.777-9.749,20.656,11.929-16.777,9.749Z" transform="translate(-804.095 -4288.817)" fill="#fbb03b"/>
      <path id="Trazado_624858" data-name="Trazado 624858" d="M113.643,74.139l5.923,17.326L92.95,76.1l.038-13.891Z" transform="translate(-804.082 -4292.038)" fill="#fbb03b"/>
      <path id="Trazado_624859" data-name="Trazado 624859" d="M149.534,54.7a6.592,6.592,0,0,0-2.894-4.51,4.593,4.593,0,0,0-.474-.233,1.857,1.857,0,0,0-1.631,0L126.24,60.6a1.872,1.872,0,0,1,1.639,0,3.845,3.845,0,0,1,.466.233,6.54,6.54,0,0,1,2.894,4.51l3.089,24.2,18.266-10.629Z" transform="translate(-836.192 -4315.129)" fill="#4d4d4d"/>
      <path id="Trazado_624860" data-name="Trazado 624860" d="M171.907,98.164,155.266,88.55,137,99.179l16.642,9.614a6.449,6.449,0,0,1,2.931,5.081,2.045,2.045,0,0,1-.857,1.887L174,105.132a2.06,2.06,0,0,0,.864-1.887A6.472,6.472,0,0,0,171.907,98.164Z" transform="translate(-838.864 -4324.759)" fill="#4d4d4d"/>
      <path id="Trazado_624861" data-name="Trazado 624861" d="M128.039,64.324a6.54,6.54,0,0,1,2.894,4.51l3.119,24.226,16.642,9.614a6.449,6.449,0,0,1,2.932,5.081c0,1.872-1.323,2.623-2.947,1.684l-21.663-12.5-3.849-30.382c-.256-1.992.842-3.1,2.458-2.465A3.85,3.85,0,0,1,128.039,64.324Z" transform="translate(-835.917 -4318.641)"/>
      <path id="Trazado_631977" data-name="Trazado 631977" d="M163.861,61.242l7.99,7.652L184.5,75.253c1.639-.459,2.435-1.022,1.376-2.653l-10.644-8.712-6.5-8.6c-1.338-3.593-4.044-6.013-6.562-6.089Z" transform="translate(-845.115 -4314.987)" fill="#0071bc"/>
      <path id="Trazado_631978" data-name="Trazado 631978" d="M189.639,139.723c.233,1.676-.5,2.826-.2,4.367.624,1.5,2.714,1.827,4.006,1.864,2.5.068,4.157,1.27,7.442,1.233,2.157,0,2.954-.752,3.2-2.022,0-.579-.413-1.1-1.18-1.6,0,0-4.788-1.774-4.916-1.834s-2.811-2.007-2.864-2.157-1.3-3.5-1.3-3.5l-4.946.752Z" transform="translate(-851.748 -4336.56)"/>
      <path id="Trazado_631979" data-name="Trazado 631979" d="M187.406,126.761c-.586,2.06-3.473,1.676-6.622,1.015q-1.188-3.007-2.255-5.833a107.157,107.157,0,0,1-5.074-17.288l-10.132-6.013-5.5-3.292,1.2-3.758.346-1.075.586-1.857.7-2.255.256-.8.353-1.12c1.879,1.022,3.758,2.045,5.517,3.1,6.63,3.9,12.425,8.141,15.514,13.432C184.053,106.932,185.767,116.681,187.406,126.761Z" transform="translate(-844.035 -4323.749)" fill="#0071bc"/>
      <path id="Trazado_631980" data-name="Trazado 631980" d="M180.656,123.479l-2.1.459a107.157,107.157,0,0,1-5.074-17.288l-10.133-6.013-5.5-3.292,1.2-3.758.346-1.075c3.939,4.645,10.125,8.84,17.063,12.523C176.6,112.008,177.281,120.427,180.656,123.479Z" transform="translate(-844.042 -4325.743)" fill="#0da5bf" opacity="0.5"/>
      <path id="Trazado_631981" data-name="Trazado 631981" d="M176.033,149.165a6.088,6.088,0,0,1,.534,2.8,2.982,2.982,0,0,0,2.39,2.736c2.5.624,2.526,1.849,5.908,2.135,2.014.173,4.751-.752,5.262-2.007a2.784,2.784,0,0,0-1.045-2.052s-4.224-1.969-4.337-2.06-3.39-1.969-3.555-2.007c-.4-.083-2.345-4.1-2.052-4.157l-4.367,1.443Z" transform="translate(-848.244 -4338.666)"/>
      <path id="Trazado_631982" data-name="Trazado 631982" d="M172.036,133.777c-.752,1.368-2.435,1.744-4.51,1.691-.474,0-.977-.045-1.5-.09-4.4-8.7-7.772-17.093-9.4-24.97C149.11,105.2,140.481,99.6,138.865,96.592a18.687,18.687,0,0,1-1.03-6.893,1.341,1.341,0,0,1,.045-.428c.045-.135,0-.083,0-.12a1.021,1.021,0,0,0,0-.135,6.682,6.682,0,0,1,.752-2.255l5.412-.752,7.93-1.037,4.315-.571c.053.752.083,1.443.083,2.172a15.739,15.739,0,0,1-.053,1.586,12.026,12.026,0,0,1-.752,3.48l-.075.2a4.3,4.3,0,0,0,.676,4.014l2.15,2.691,6.073,7.592a7.915,7.915,0,0,1,1.586,3.2C168.33,119.307,170.45,130.154,172.036,133.777Z" transform="translate(-839.068 -4323.729)" fill="#0071bc"/>
      <path id="Trazado_631983" data-name="Trazado 631983" d="M159.272,60.943a22.552,22.552,0,0,1-1.218,6.1,28.766,28.766,0,0,0-1.857,5.84,15.785,15.785,0,0,0-.293,2.8,2.1,2.1,0,0,1-.353,1.12,1.5,1.5,0,0,1-.218.271c-.12.135-.256.271-.391.406a24.241,24.241,0,0,1-5.668,4.172c-3.428,1.8-7.3,2.616-10.14.4-.594-.459-1.706-.406-1.706-1.09a1.145,1.145,0,0,1,.045-.428c.045-.113,0-.083,0-.12a1.011,1.011,0,0,0,0-.135,54.119,54.119,0,0,0-1.082-15.98,19.612,19.612,0,0,1-.2-2.06v-.887a13.531,13.531,0,0,1,.436-3.758,4.674,4.674,0,0,1,.2-.624c1.315-3.458,7.517-6.359,10.869-7.306s8.832,0,8.832,0a28.143,28.143,0,0,1,2.751,11.283Z" transform="translate(-838.662 -4314.998)" fill="#0071bc"/>
      <path id="Trazado_631984" data-name="Trazado 631984" d="M167.159,130.847c-.474,0-.977-.045-1.5-.09-4.435-8.7-7.81-17.093-9.433-24.97-7.517-5.209-16.146-10.809-17.762-13.816a18.686,18.686,0,0,1-1.03-6.893,1.341,1.341,0,0,1,.045-.428c.045-.135,0-.083,0-.12a1.021,1.021,0,0,0,0-.135,54.121,54.121,0,0,0-1.082-15.98,19.616,19.616,0,0,1-.2-2.06l.068-.271.083-.293h7.517l9.133,11.087,3.157.12a15.785,15.785,0,0,0-.293,2.8c1.879,1.022,3.758,2.045,5.517,3.1a23.061,23.061,0,0,0-2.5.135,21.513,21.513,0,0,0-3.007.519c-.451.113-.9.241-1.338.383a16.063,16.063,0,0,0-4.345,2.075c-3.044,2.1-4.442,5.066-2.518,8.268l10.922,9.5Z" transform="translate(-838.663 -4319.107)" fill="#0071bc" opacity="0.5"/>
      <path id="Trazado_631985" data-name="Trazado 631985" d="M137.826,69.179c1.045,2.135,3.909,7.178,5.871,10.6a9.125,9.125,0,0,0,5.8,4.315L161.647,87.1c1.827.406,3.525-3.112,1.691-4.194l-13-4.736-5.615-12.523s-3.608-7.75-6.765-6.765S136.263,66,137.826,69.179Z" transform="translate(-838.639 -4317.37)" fill="#0071bc"/>
      <path id="Trazado_631986" data-name="Trazado 631986" d="M179.84,90.37l2.045.894c.586.631.466,1.022-.18,1.24l-1.2-.135Z" transform="translate(-849.503 -4325.211)" fill="#fff"/>
      <path id="Trazado_631987" data-name="Trazado 631987" d="M179.286,99.583a4.465,4.465,0,0,1-1.112-.135,3.661,3.661,0,0,1-2.533-2.255c-.9-2.255-.225-5.562,1.812-8.937,3.007-5.036,8-8.306,11.275-7.442a3.653,3.653,0,0,1,2.526,2.255c.9,2.255.226,5.555-1.8,8.93C186.75,96.494,182.511,99.583,179.286,99.583ZM187.555,82.7c-2.255,0-5.878,2.435-8.4,6.607-1.654,2.744-2.308,5.532-1.669,7.118a1.669,1.669,0,0,0,1.165,1.052c2.12.556,6.261-1.932,9.02-6.532,1.654-2.736,2.308-5.532,1.669-7.111a1.646,1.646,0,0,0-1.165-1.06,2.443,2.443,0,0,0-.594-.075Z" transform="translate(-848.363 -4322.804)"/>
      <path id="Trazado_631988" data-name="Trazado 631988" d="M191,83.393l1.1,1.5,1.278,1.2.526.481c.752.639,1.218-.286.707-.849l-1.052-1.037-.646-.827A2.255,2.255,0,0,0,191,83.393Z" transform="translate(-852.274 -4323.466)" fill="#fff"/>
      <path id="Trazado_631989" data-name="Trazado 631989" d="M192.31,80.608l.752-.188,1.5.421,1.744,1.376a1.458,1.458,0,0,1,.526,1.112,1.361,1.361,0,0,1,.286,1.037,1.564,1.564,0,0,1-.068,1.218c.21.383-.075.684-.256,1.015l-.752.586-1.158-.2c-.474-.113-.451-.474-.083-.609l.406-.18-1.15-1.661v-.391a.639.639,0,0,1,.534-.707l.368-1.12A3.638,3.638,0,0,0,192.31,80.608Z" transform="translate(-852.6 -4322.74)" fill="#fff"/>
      <path id="Trazado_631990" data-name="Trazado 631990" d="M170.352,94.34c-.8-1.007-.459-2.12.436-3.285l.879-.135,2.172-.947,2.811-.323-.4.654,1.037,1.052-2.4,4.63-2.308-.534Z" transform="translate(-847.035 -4325.033)" fill="#fff"/>
      <path id="Trazado_631991" data-name="Trazado 631991" d="M175.86,96.05l1.443.338.849.241a.887.887,0,0,0,1.052-.5l.188-.466a.669.669,0,0,0,.752-.519l.038-.834h.165a.707.707,0,0,0,.18-1.323l-.248-.12.113-.413c.105-.376-.459-.94-.812-1.1-1,0-1.466-.128-1.969-.872Z" transform="translate(-848.515 -4325.239)" fill="#fff"/>
      <path id="Trazado_631992" data-name="Trazado 631992" d="M151.623,50.515l1.7,5.713-5.2,8.516,2.075.06,4.36-7.509,4.954-1.067.413-1.391-4.7.293-2.353-5.54Z" transform="translate(-817.783 -4288.904)"/>
      <path id="Trazado_624878" data-name="Trazado 624878" d="M177,98.324l22.37-13,7.517,12.9c-6.231,4.8-13.868,9.02-22.362,13Z" transform="translate(-848.798 -4323.958)" fill="#ffbe59"/>
      <path id="Trazado_624879" data-name="Trazado 624879" d="M199.19,151.414l22.37-13-.008,1.24-22.362,13Z" transform="translate(-830.465 -4310.961)" fill="#fff"/>
      <path id="Trazado_624880" data-name="Trazado 624880" d="M199.228,132.794l22.37-13-.038,14-22.37,13Z" transform="translate(-830.465 -4306.337)" fill="#fff"/>
      <path id="Trazado_624881" data-name="Trazado 624881" d="M199.228,132.794l22.37-13-.038,14-22.37,13Z" transform="translate(-830.465 -4306.337)" fill="#fbb03b"/>
      <path id="Trazado_624882" data-name="Trazado 624882" d="M191.3,107.8l22.37-13,5.968,18.784-22.37,13Z" transform="translate(-828.506 -4300.131)" fill="#fbb03b"/>
      <path id="Trazado_624883" data-name="Trazado 624883" d="M195.09,110.073,213.243,99.52l5.517,16.634L200.615,126.7Z" transform="translate(-829.447 -4301.303)" fill="#c4720e"/>
      <path id="Trazado_624884" data-name="Trazado 624884" d="M155.23,80.644l22.37-13,27.113,20.415-22.37,13Z" transform="translate(-819.549 -4293.386)" fill="#ffbe59"/>
      <path id="Trazado_624885" data-name="Trazado 624885" d="M192.67,116.673l17.9-10.4,17.762,17.341a2.045,2.045,0,0,1-.4,3.232l-6.269,3.638a3.18,3.18,0,0,1-3.119.053Z" transform="translate(-852.689 -4329.16)" fill="#c4720e" opacity="0.5"/>
      <path id="Trazado_624886" data-name="Trazado 624886" d="M183.878,119.873l-.038,13.109v2.127l-27.4-15.815L154.8,99.916l-11.125-6.87L137.38,73.961l3.074-3.195,2.856-2.977L150.8,80.681,177.91,101.1Z" transform="translate(-815.116 -4293.423)" fill="#c4720e"/>
      <path id="Trazado_624887" data-name="Trazado 624887" d="M183.878,119.873l-.038,13.109v2.127l-27.4-15.815L154.8,99.916l-11.125-6.87L137.38,73.961l3.074-3.195,2.856-2.977L150.8,80.681,177.91,101.1Z" transform="translate(-815.116 -4293.423)" fill="#c4720e"/>
      <path id="Trazado_624888" data-name="Trazado 624888" d="M183.841,126.1v10l-27.4-15.815L154.8,100.9l-11.125-6.87L137.38,74.945l3.074-3.195,7.592,16.958,14.9,9.651Z" transform="translate(-815.116 -4294.407)" fill="#c4720e" opacity="0.3"/>
      <path id="Trazado_631993" data-name="Trazado 631993" d="M104.975,100.375l.008-2.954-.774-.564-.271-2.571.676-.391-.654-3.232-.782-.331-.9-3.059.579-.331-1.278-3.3-.722-.068L99.337,80.41l.481-.436L98.007,76.84l-.624.188-1.977-2.894.3-.654-2.217-2.759-.579.331-2.2-2.323.105-.834L88.333,65.7l-.661.391L85.559,64.55l-.1-.947-2.571-1.481-.872.5-1.714-.737-.293-.992-2.488-.669-1.376.8-.834-.083-.466-.992-2.232.2-2,1.165-.308-.459-1.819,1.03-12.3,7.148.225.474-2,1.158-1.293,1.812.616.9-.323.722L52,74.916l-.669,2.465.714.752-.226,1.827-.879.511-.008,2.947.774.564.263,2.571-.669.391.654,3.24.774.323.91,3.059-.579.338L54.335,97.2l.722.075,1.518,3.157-.481.443L57.9,104l.624-.188L60.5,106.7l-.3.661,2.225,2.751.571-.331,2.21,2.33-.105.827,2.481,2.2.669-.391,2.1,1.533.1.947,2.571,1.488.872-.5,1.706.722.3,1.007,2.48.669,1.383-.8.827.083.474.985,2.232-.188,1.992-1.158.316.459,1.819-1.037,12.3-7.148-.226-.466,2-1.158,1.285-1.819-.609-.9.323-.714,1.413-.819.669-2.473-.722-.759.233-1.812Z" transform="translate(-793.648 -4291.477)" fill="#333"/>
      <path id="Trazado_631994" data-name="Trazado 631994" d="M73.373,130.128l12.3-7.148-.3.661L73.08,130.8Z" transform="translate(-799.148 -4307.129)"/>
      <path id="Trazado_631995" data-name="Trazado 631995" d="M51.42,93.5l12.3-7.148.714.075-12.3,7.148Z" transform="translate(-793.769 -4298.033)"/>
      <path id="Trazado_631996" data-name="Trazado 631996" d="M80.425,134.668l12.3-7.148-.1.834L80.32,135.5Z" transform="translate(-800.946 -4308.257)"/>
      <path id="Trazado_631997" data-name="Trazado 631997" d="M50.94,84.888l12.3-7.148.782.331-12.3,7.148Z" transform="translate(-793.65 -4295.894)"/>
      <path id="Trazado_631998" data-name="Trazado 631998" d="M87.31,137.028l12.3-7.148.105.955-12.3,7.148Z" transform="translate(-802.682 -4308.843)"/>
      <path id="Trazado_631999" data-name="Trazado 631999" d="M52.35,77.5l12.3-7.148.774.564-12.3,7.148Z" transform="translate(-794 -4294.06)"/>
      <path id="Trazado_632000" data-name="Trazado 632000" d="M93.59,137.068l12.3-7.148.293,1-12.3,7.148Z" transform="translate(-804.241 -4308.853)"/>
      <path id="Trazado_632001" data-name="Trazado 632001" d="M55.56,71.838l12.3-7.148.722.759L56.274,72.6Z" transform="translate(-794.797 -4292.654)"/>
      <path id="Trazado_632002" data-name="Trazado 632002" d="M98.85,134.768l12.3-7.148.474.992-12.3,7.148Z" transform="translate(-805.548 -4308.281)"/>
      <path id="Trazado_632003" data-name="Trazado 632003" d="M60.34,68.3l12.3-7.148.616.9L60.956,69.2Z" transform="translate(-795.984 -4291.775)"/>
      <path id="Trazado_632004" data-name="Trazado 632004" d="M100.383,132.918l12.3-7.148-1.526,1.391-12.3,7.148Z" transform="translate(-805.548 -4307.822)" fill="#1a1a1a"/>
      <path id="Trazado_632005" data-name="Trazado 632005" d="M61.16,69.3l12.3-7.148,1.992-.609-12.3,7.148Z" transform="translate(-796.188 -4291.872)" fill="#1a1a1a"/>
      <path id="Trazado_632006" data-name="Trazado 632006" d="M102.74,130.308l12.3-7.148.609.9-12.3,7.148Z" transform="translate(-806.514 -4307.174)"/>
      <path id="Trazado_632007" data-name="Trazado 632007" d="M66.38,67.106l12.3-7.156.466.992-12.3,7.148Z" transform="translate(-797.484 -4291.477)"/>
      <path id="Trazado_632008" data-name="Trazado 632008" d="M103.7,127.508l12.3-7.148-.962,2.1-12.3,7.148Z" transform="translate(-806.514 -4306.479)" fill="#1a1a1a"/>
      <path id="Trazado_632009" data-name="Trazado 632009" d="M67,68.418,79.3,61.27l2.315.233-12.3,7.148Z" transform="translate(-797.638 -4291.804)" fill="#1a1a1a"/>
      <path id="Trazado_632010" data-name="Trazado 632010" d="M104.98,123.968l12.3-7.148.722.759-12.3,7.156Z" transform="translate(-807.07 -4305.599)"/>
      <path id="Trazado_632011" data-name="Trazado 632011" d="M73.25,68.358l12.3-7.148.293.992-12.3,7.156Z" transform="translate(-799.19 -4291.79)"/>
      <path id="Trazado_632012" data-name="Trazado 632012" d="M105.318,120.438l12.3-7.148-.338,2.653-12.3,7.148Z" transform="translate(-807.07 -4304.723)" fill="#1a1a1a"/>
      <path id="Trazado_632013" data-name="Trazado 632013" d="M73.64,69.686l12.3-7.156,2.48,1.067-12.3,7.148Z" transform="translate(-799.287 -4292.117)" fill="#1a1a1a"/>
      <path id="Trazado_632014" data-name="Trazado 632014" d="M105.44,116.2l12.3-7.148.774.564-12.3,7.148Z" transform="translate(-807.184 -4303.67)"/>
      <path id="Trazado_632015" data-name="Trazado 632015" d="M80.5,71.958,92.8,64.81l.1.947L80.6,72.905Z" transform="translate(-800.991 -4292.684)"/>
      <path id="Trazado_632016" data-name="Trazado 632016" d="M105.02,112.156l12.3-7.156.323,3.044-12.3,7.148Z" transform="translate(-807.08 -4302.664)" fill="#1a1a1a"/>
      <path id="Trazado_632017" data-name="Trazado 632017" d="M80.63,73.218l12.3-7.148,2.473,1.8L83.1,75.022Z" transform="translate(-801.023 -4292.997)" fill="#1a1a1a"/>
      <path id="Trazado_632018" data-name="Trazado 632018" d="M104.08,107.526l12.3-7.156.782.331-12.3,7.148Z" transform="translate(-806.846 -4301.514)"/>
      <path id="Trazado_632019" data-name="Trazado 632019" d="M87.593,77.668l12.3-7.148-.105.834L87.48,78.5Z" transform="translate(-802.724 -4294.102)"/>
      <path id="Trazado_632020" data-name="Trazado 632020" d="M102.81,103.248l12.3-7.148.947,3.21-12.3,7.156Z" transform="translate(-806.531 -4300.454)" fill="#1a1a1a"/>
      <path id="Trazado_632021" data-name="Trazado 632021" d="M87.48,78.778l12.3-7.148,2.308,2.428-12.3,7.148Z" transform="translate(-802.724 -4294.377)" fill="#1a1a1a"/>
      <path id="Trazado_632022" data-name="Trazado 632022" d="M98.97,94.318l12.3-7.148,1.518,3.165-12.3,7.148Z" transform="translate(-805.577 -4298.236)" fill="#1a1a1a"/>
      <path id="Trazado_632023" data-name="Trazado 632023" d="M93.74,85.968l12.3-7.148,1.977,2.894-12.3,7.156Z" transform="translate(-804.279 -4296.163)" fill="#1a1a1a"/>
      <path id="Trazado_632024" data-name="Trazado 632024" d="M100.99,98.528l12.3-7.148.722.068L101.7,98.6Z" transform="translate(-806.079 -4299.282)"/>
      <path id="Trazado_632025" data-name="Trazado 632025" d="M94.041,85.1l12.3-7.148-.3.654-12.3,7.148Z" transform="translate(-804.279 -4295.946)"/>
      <path id="Trazado_632026" data-name="Trazado 632026" d="M96.37,89.764l12.3-7.156.624-.188-12.3,7.156Z" transform="translate(-804.932 -4297.057)"/>
      <path id="Trazado_632027" data-name="Trazado 632027" d="M73.157,73.116l.1.947,2.473,1.8.308-.654,2.481,2.195-.113.834,2.308,2.428.481-.436,2.217,2.759-.3.654,1.977,2.9.624-.188,1.8,3.127-.474.436,1.518,3.165.714.068,1.278,3.3-.624.18.955,3.217.774.323.654,3.232-.722-.075.316,3.037.774.564-.008,2.954-.774-.331-.338,2.653.729.767-.676,2.465-.774-.571-.962,2.1.616.9L89.2,119.7l-.714-.759-1.533,1.391.474.992L85.6,122.357l-.624-.91L83,122.057l.3,1-2.232.188-.474-.985-2.315-.233.105.955-2.48-.669-.3-1.007-2.473-1.052-.105.834L70.451,119.6l-.1-.947-2.48-1.812-.293.669-2.481-2.2.105-.827L62.9,112.044l-.474.436L60.2,109.729l.3-.661-1.977-2.894-.624.188-1.8-3.127.481-.443-1.518-3.157-.722-.075-1.278-3.292.624-.188-.955-3.21-.774-.323-.654-3.24.722.075L51.7,86.345l-.774-.564.008-2.947.774.331.331-2.668-.714-.752L52,77.28l.774.564.962-2.1-.616-.9,1.293-1.812.714.759,1.533-1.4-.474-.992L58,70.364l.616.9,1.992-.609-.3-1,2.232-.188.466.985,2.323.233-.105-.947,2.481.669.293,1,2.481,1.06.105-.834Z" transform="translate(-793.648 -4293.841)"/>
      <path id="Trazado_632028" data-name="Trazado 632028" d="M102.129,116.677a15.785,15.785,0,0,1,3.322,1.443c7.712,4.42,13.951,15.251,13.958,24.174a16,16,0,0,1-.421,3.706c-1.5,6.149-7.006,8.208-13.53,4.457-7.7-4.42-13.958-15.244-13.958-24.174C91.492,118.684,96.025,114.9,102.129,116.677Z" transform="translate(-827.565 -4331.637)" fill="#b3b3b3"/>
      <path id="Trazado_632029" data-name="Trazado 632029" d="M103.907,116.82a15.785,15.785,0,0,1,3.322,1.443c7.712,4.42,13.951,15.251,13.958,24.174a16,16,0,0,1-.421,3.706c-2.195,2.375-5.833,2.653-9.952.293-6.712-3.849-12.147-13.267-12.154-21.047C98.668,120.6,100.742,117.549,103.907,116.82Z" transform="translate(-829.343 -4331.78)" fill="#d4eeff"/>
      <path id="Trazado_632030" data-name="Trazado 632030" d="M103.907,116.82a15.785,15.785,0,0,1,3.322,1.443c7.712,4.42,13.951,15.251,13.958,24.174a16,16,0,0,1-.421,3.706c-2.195,2.375-5.833,2.653-9.952.293-6.712-3.849-12.147-13.267-12.154-21.047C98.668,120.6,100.742,117.549,103.907,116.82Z" transform="translate(-829.343 -4331.78)" fill="#e6e6e6"/>
      <path id="Trazado_632031" data-name="Trazado 632031" d="M112.2,131.35a5.044,5.044,0,0,1,.9.391,6.15,6.15,0,0,1,1.045.752,8.907,8.907,0,0,1,2.623,4.555,7.366,7.366,0,0,1,.135,1.263,5.156,5.156,0,0,1-.113,1.007c-.413,1.676-1.917,2.255-3.7,1.218a8.426,8.426,0,0,1-3.8-6.592C109.3,131.9,110.53,130.862,112.2,131.35Z" transform="translate(-831.983 -4335.359)" fill="gray"/>
      <path id="Trazado_632032" data-name="Trazado 632032" d="M115.258,132.927a8.907,8.907,0,0,1,2.623,4.555c-.271.834-1.067,1.1-2.014.556a4.623,4.623,0,0,1-2.1-3.638C113.77,133.3,114.386,132.732,115.258,132.927Z" transform="translate(-833.096 -4335.771)" fill="#333"/>
      <path id="Trazado_632033" data-name="Trazado 632033" d="M108.073,139.7a1.2,1.2,0,0,1,.2.09,1.857,1.857,0,0,1,.842,1.458,1.046,1.046,0,0,1,0,.226c-.09.376-.428.5-.819.271a1.879,1.879,0,0,1-.849-1.5C107.427,139.822,107.705,139.6,108.073,139.7Z" transform="translate(-831.526 -4337.456)"/>
      <path id="Trazado_632034" data-name="Trazado 632034" d="M108.073,139.7a1.2,1.2,0,0,1,.2.09,1.857,1.857,0,0,1,.842,1.458,1.046,1.046,0,0,1,0,.226c-.09.376-.428.5-.819.271a1.879,1.879,0,0,1-.849-1.5C107.427,139.822,107.705,139.6,108.073,139.7Z" transform="translate(-831.526 -4337.456)"/>
      <path id="Trazado_632035" data-name="Trazado 632035" d="M120.186,132.712a.6.6,0,0,1,.2.09,1.842,1.842,0,0,1,.842,1.458,1.044,1.044,0,0,1,0,.225c-.09.368-.421.5-.819.271a1.872,1.872,0,0,1-.842-1.466C119.547,132.832,119.818,132.606,120.186,132.712Z" transform="translate(-834.536 -4335.72)"/>
      <path id="Trazado_632036" data-name="Trazado 632036" d="M120.186,132.712a.6.6,0,0,1,.2.09,1.842,1.842,0,0,1,.842,1.458,1.044,1.044,0,0,1,0,.225c-.09.368-.421.5-.819.271a1.872,1.872,0,0,1-.842-1.466C119.547,132.832,119.818,132.606,120.186,132.712Z" transform="translate(-834.536 -4335.72)"/>
      <path id="Trazado_632037" data-name="Trazado 632037" d="M119.954,146.352a.8.8,0,0,1,.2.09A1.842,1.842,0,0,1,121,147.9a1.044,1.044,0,0,1,0,.226c-.09.376-.428.5-.819.271a1.879,1.879,0,0,1-.849-1.5C119.315,146.472,119.585,146.246,119.954,146.352Z" transform="translate(-834.476 -4339.107)"/>
      <path id="Trazado_632038" data-name="Trazado 632038" d="M119.954,146.352a.8.8,0,0,1,.2.09A1.842,1.842,0,0,1,121,147.9a1.044,1.044,0,0,1,0,.226c-.09.376-.428.5-.819.271a1.879,1.879,0,0,1-.849-1.5C119.315,146.472,119.585,146.246,119.954,146.352Z" transform="translate(-834.476 -4339.107)"/>
      <path id="Trazado_632039" data-name="Trazado 632039" d="M108.436,126.392l.2.09a1.857,1.857,0,0,1,.842,1.458.752.752,0,0,1,0,.226c-.09.376-.421.5-.819.271a1.872,1.872,0,0,1-.842-1.458C107.789,126.512,108.067,126.286,108.436,126.392Z" transform="translate(-831.617 -4334.15)"/>
      <path id="Trazado_632040" data-name="Trazado 632040" d="M108.436,126.392l.2.09a1.857,1.857,0,0,1,.842,1.458.752.752,0,0,1,0,.226c-.09.376-.421.5-.819.271a1.872,1.872,0,0,1-.842-1.458C107.789,126.512,108.067,126.286,108.436,126.392Z" transform="translate(-831.617 -4334.15)"/>
      <path id="Trazado_632041" data-name="Trazado 632041" d="M115.6,145.993a8.471,8.471,0,0,1-4.307-1.383c-5.066-3.067-9.3-10.4-9.441-16.349-.06-2.706.752-4.818,2.255-5.953a5.194,5.194,0,0,1,4.878-.541,10.455,10.455,0,0,1,2.255,1.03c5.059,3.067,9.3,10.4,9.441,16.349a11.418,11.418,0,0,1-.218,2.5,5.262,5.262,0,0,1-2.924,3.969A4.728,4.728,0,0,1,115.6,145.993Zm-8.689-23.783a3.811,3.811,0,0,0-2.33.752c-1.3.97-1.992,2.856-1.932,5.262.135,5.705,4.2,12.778,9.02,15.687,2.067,1.255,4.014,1.594,5.495.955a4.51,4.51,0,0,0,2.458-3.405,10.711,10.711,0,0,0,.2-2.323c-.135-5.705-4.2-12.778-9.02-15.687a9.773,9.773,0,0,0-2.052-.955,6.163,6.163,0,0,0-1.834-.286Z" transform="translate(-830.135 -4332.916)" fill="#b3b3b3"/>
      <path id="Trazado_624938" data-name="Trazado 624938" d="M99.49,75.616l13.981-8.126,9.14,26.218-13.981,8.126Z" transform="translate(-805.707 -4293.349)" fill="#fbb03b"/>
      <path id="Trazado_624939" data-name="Trazado 624939" d="M53.94,49.318,67.921,41.2l34.238,19.761L88.178,69.087Z" transform="translate(-794.395 -4286.82)" fill="#ffbe59"/>
      <path id="Trazado_624940" data-name="Trazado 624940" d="M88.178,71.769l9.14,26.218H95.808L87.141,73.114,53.94,53.947V52Z" transform="translate(-794.395 -4289.502)" fill="#c4720e"/>
      <path id="Trazado_624941" data-name="Trazado 624941" d="M88.178,71.769l9.14,26.218H95.808L87.141,73.114,53.94,53.947V52Z" transform="translate(-794.395 -4289.502)" fill="#c4720e"/>
      <path id="Trazado_624942" data-name="Trazado 624942" d="M200.258,187.305c6.239,3.6,11.275,12.335,11.275,19.491s-5.089,10.057-11.328,6.457-11.275-12.327-11.275-19.491S194.034,183.682,200.258,187.305Z" transform="translate(-851.76 -4348.896)" fill="#333"/>
      <path id="Trazado_624943" data-name="Trazado 624943" d="M200.258,187.305c6.239,3.6,11.275,12.335,11.275,19.491s-5.089,10.057-11.328,6.457-11.275-12.327-11.275-19.491S194.034,183.682,200.258,187.305Z" transform="translate(-851.76 -4348.896)"/>
      <path id="Trazado_624944" data-name="Trazado 624944" d="M209.478,178.042c-3.668-2.12-7-2.315-9.4-.917l-6.555,3.811c2.4-1.4,5.728-1.2,9.4.917,7.3,4.217,13.2,14.432,13.177,22.821,0,4.164-1.5,7.1-3.856,8.479l6.562-3.811c2.368-1.383,3.841-4.315,3.856-8.479C222.677,192.474,216.777,182.259,209.478,178.042Z" transform="translate(-852.9 -4346.534)" fill="#333"/>
      <path id="Trazado_624945" data-name="Trazado 624945" d="M201.622,183.112c-7.3-4.209-13.229-.827-13.252,7.562a22.038,22.038,0,0,0,.752,5.653c.105.383.21.752.308,1.158a18.452,18.452,0,0,1-.661-4.826c0-7.163,5.089-10.057,11.32-6.457s11.275,12.335,11.275,19.491-5.089,10.057-11.328,6.457a18.648,18.648,0,0,1-3.758-2.9l.857.842a21.733,21.733,0,0,0,4.39,3.4c7.3,4.217,13.237.834,13.259-7.554S208.936,187.329,201.622,183.112Z" transform="translate(-851.621 -4347.793)" fill="#1a1a1a"/>
      <path id="Trazado_632042" data-name="Trazado 632042" d="M199.2,192.194a8.036,8.036,0,0,1,2.075.94,18.162,18.162,0,0,1,7.675,13.3,7.749,7.749,0,0,1-.225,2.21c-.752,3.1-3.578,3.991-6.968,1.887a18.125,18.125,0,0,1-7.675-13.3C193.966,193.284,196.131,191.337,199.2,192.194Z" transform="translate(-853.038 -4350.448)" fill="#b3b3b3"/>
      <path id="Trazado_632043" data-name="Trazado 632043" d="M200.3,192.26a8.036,8.036,0,0,1,2.075.94,16.154,16.154,0,0,1,4.811,4.976,17.568,17.568,0,0,1,.947,1.624,16.018,16.018,0,0,1,1.917,6.7,7.751,7.751,0,0,1-.226,2.21c-1.135.676-2.759.526-4.578-.594a15.879,15.879,0,0,1-6.72-11.643C198.469,194.357,199.16,192.9,200.3,192.26Z" transform="translate(-854.143 -4350.514)" fill="#d4eeff"/>
      <path id="Trazado_632044" data-name="Trazado 632044" d="M205.343,198.135a3.075,3.075,0,0,1,.752.413,8.11,8.11,0,0,1,3.007,5.262,3.368,3.368,0,0,1,0,.842c-.21,1.165-1.2,1.451-2.45.564a8.111,8.111,0,0,1-3.044-5.262C203.5,198.435,204.231,197.744,205.343,198.135Z" transform="translate(-855.403 -4351.946)" fill="#333"/>
      <path id="Trazado_632045" data-name="Trazado 632045" d="M203.11,203.99a.751.751,0,0,1,.2.105,2.15,2.15,0,0,1,.789,1.368,1.021,1.021,0,0,1,0,.218c-.06.3-.308.376-.639.143a2.135,2.135,0,0,1-.752-1.361C202.629,204.065,202.817,203.885,203.11,203.99Z" transform="translate(-855.177 -4353.42)" fill="#333"/>
      <path id="Trazado_632046" data-name="Trazado 632046" d="M210.934,209.04a.751.751,0,0,1,.2.105,2.15,2.15,0,0,1,.752,1.368,1.021,1.021,0,0,1,0,.218c-.06.3-.308.376-.639.143a2.067,2.067,0,0,1-.789-1.361C210.46,209.115,210.648,208.935,210.934,209.04Z" transform="translate(-857.107 -4354.674)" fill="#333"/>
      <path id="Trazado_632047" data-name="Trazado 632047" d="M202.694,194.761a1.009,1.009,0,0,1,.2.105,2.1,2.1,0,0,1,.752,1.368.685.685,0,0,1,0,.218c-.053.308-.308.376-.631.15a2.09,2.09,0,0,1-.789-1.368C202.22,194.844,202.408,194.664,202.694,194.761Z" transform="translate(-855.061 -4351.129)" fill="#333"/>
      <path id="Trazado_632048" data-name="Trazado 632048" d="M210.05,200.13a17.573,17.573,0,0,1,.947,1.624.563.563,0,0,1-.158-.09,2.067,2.067,0,0,1-.752-1.361A.662.662,0,0,1,210.05,200.13Z" transform="translate(-857.005 -4352.469)" fill="#333"/>
      <path id="Trazado_632049" data-name="Trazado 632049" d="M201.88,148.329l1.376-.789v-7.69l-1.376.789Z" transform="translate(-831.133 -4311.318)"/>
      <path id="Trazado_632050" data-name="Trazado 632050" d="M205.14,146.449l1.368-.789v-7.69l-1.368.789Z" transform="translate(-831.943 -4310.852)"/>
      <path id="Trazado_632051" data-name="Trazado 632051" d="M208.4,144.569l1.368-.789v-7.69l-1.368.789Z" transform="translate(-832.752 -4310.385)"/>
      <path id="Trazado_632052" data-name="Trazado 632052" d="M211.66,142.689l1.368-.789v-7.69L211.66,135Z" transform="translate(-833.562 -4309.918)"/>
      <path id="Trazado_632053" data-name="Trazado 632053" d="M214.91,140.8l1.376-.789v-7.69l-1.376.8Z" transform="translate(-834.369 -4309.448)"/>
      <path id="Trazado_632054" data-name="Trazado 632054" d="M218.17,138.919l1.376-.789v-7.69l-1.376.8Z" transform="translate(-835.179 -4308.981)"/>
      <path id="Trazado_632055" data-name="Trazado 632055" d="M221.43,137.039l1.368-.789v-7.69l-1.368.789Z" transform="translate(-835.988 -4308.514)"/>
      <path id="Trazado_632056" data-name="Trazado 632056" d="M224.69,135.159l1.368-.789v-7.69l-1.368.789Z" transform="translate(-836.798 -4308.048)"/>
      <path id="Trazado_624961" data-name="Trazado 624961" d="M206.343,163.579l4.51,2.6a2.8,2.8,0,0,1-1.278-2.067,6.457,6.457,0,0,0,5.262-9.185,2.8,2.8,0,0,1,2.405.06l-4.51-2.6-.105-.053-.383-.241a6.457,6.457,0,0,0-6.457,11.177c.12.075.248.135.368.2Z" transform="translate(-855.185 -4340.347)" fill="#fbb03b"/>
      <path id="Trazado_624962" data-name="Trazado 624962" d="M210.56,168.515l.511.286a1.889,1.889,0,0,0-.075-.331A2.2,2.2,0,0,0,210.56,168.515Z" transform="translate(-857.132 -4344.606)" fill="#999"/>
      <path id="Trazado_624963" data-name="Trazado 624963" d="M211.6,153.5l2.563,1.5.218.128a3.457,3.457,0,0,1,1.541-.6l-.443-.256c.519.3.248.135-2.563-1.5a5.923,5.923,0,0,0-6.479.383A5.863,5.863,0,0,1,211.6,153.5Z" transform="translate(-856.109 -4340.513)" fill="#fff"/>
      <path id="Trazado_624964" data-name="Trazado 624964" d="M213.34,164.592a8.584,8.584,0,0,1,3.894-6.765c2.157-1.233,3.9-.21,3.9,2.255a8.577,8.577,0,0,1-3.9,6.765C215.084,168.117,213.34,167.1,213.34,164.592Z" transform="translate(-857.822 -4341.833)" fill="#ccc"/>
      <path id="Trazado_624965" data-name="Trazado 624965" d="M211.76,164.311c0,2.916,2.045,4.112,4.563,2.668a7.346,7.346,0,0,0,1.556-1.218l.3-.293a6.607,6.607,0,0,1-1.338,1.037c-2.15,1.233-3.894.218-3.894-2.255a8.584,8.584,0,0,1,3.894-6.765c2.157-1.233,3.9-.21,3.9,2.255a6.586,6.586,0,0,1-.218,1.631,1.618,1.618,0,0,1,.105-.406,7.706,7.706,0,0,0,.256-1.9c0-2.924-2.045-4.119-4.563-2.668a10.057,10.057,0,0,0-4.563,7.915Z" transform="translate(-857.43 -4341.455)" fill="#c4720e"/>
      <path id="Trazado_632057" data-name="Trazado 632057" d="M217.386,166.388a7.569,7.569,0,0,0,3.255-5.638c.053-2.06-1.315-2.864-3.067-1.8a7.584,7.584,0,0,0-3.255,5.645C214.267,166.644,215.635,167.448,217.386,166.388Z" transform="translate(-858.065 -4342.126)" fill="#fff"/>
      <path id="Trazado_632058" data-name="Trazado 632058" d="M214.346,165.168a3.589,3.589,0,0,1,0-.579,7.584,7.584,0,0,1,3.255-5.645,5.392,5.392,0,0,1,.5-.263c1.5-.631,2.616.2,2.571,2.06a7.569,7.569,0,0,1-3.255,5.638C215.819,167.333,214.549,166.784,214.346,165.168Z" transform="translate(-858.069 -4342.124)" fill="#fff"/>
      <path id="Trazado_632059" data-name="Trazado 632059" d="M214.346,165.237a3.59,3.59,0,0,1,0-.579,7.584,7.584,0,0,1,3.255-5.645,5.385,5.385,0,0,1,.5-.263,2.353,2.353,0,0,1,.669,1.631,5.262,5.262,0,0,1-2.676,4.63A2.293,2.293,0,0,1,214.346,165.237Z" transform="translate(-858.069 -4342.192)" fill="#fff8b3"/>
      <path id="Trazado_632060" data-name="Trazado 632060" d="M201.809,86.273l3.172-1.842L179.522,65.264,172.667,53.47l-3.277,1.9,6.968,11.989Z" transform="translate(-823.065 -4289.867)" fill="#fff" opacity="0.3"/>
      <path id="Trazado_632061" data-name="Trazado 632061" d="M103.843,62.737,70.913,43.72,67.53,45.689l33.149,19.137,8.441,24.211,3.24-1.879Z" transform="translate(-797.77 -4287.446)" fill="#fff" opacity="0.3"/>
      <path id="Trazado_632062" data-name="Trazado 632062" d="M155.58,56.3a1.5,1.5,0,0,1-.872.834c-3.57,1.052-6.494-3.007-6.081-5.42s.526-3.811.526-3.811l6.9,1.7s.075.646.113,1.563C156.234,52.718,156.211,55.041,155.58,56.3Z" transform="translate(-841.742 -4314.665)" fill="#ffb294"/>
      <path id="Trazado_632063" data-name="Trazado 632063" d="M156.095,57.163a2.007,2.007,0,0,1-1.135.376c-3.262,0-4.3-6.149-4.3-6.149l6.013.639C156.749,53.585,156.726,55.908,156.095,57.163Z" transform="translate(-842.257 -4315.532)" fill="#ffb294" opacity="0.5"/>
      <path id="Trazado_632064" data-name="Trazado 632064" d="M149.218,46.208s.752,3.007,2.09,4.285a8.148,8.148,0,0,0,4.277,1.977,2.165,2.165,0,0,0,1.977-.646c.526-.624.849-6.306.849-6.306a16.845,16.845,0,0,0-.316-4.082c-.383-1.8-1.684-5.8-6.93-5.074a5.066,5.066,0,0,0-4.435,4.42c-.256,1.774,1.158,4.923,1.158,4.923Z" transform="translate(-841.273 -4311.778)" fill="#ffb294"/>
      <path id="Trazado_632065" data-name="Trazado 632065" d="M157.32,52.45c-3.262,0-6.66-6.322-6.66-6.322l8.561-.639C159.432,50.128,159.575,52.45,157.32,52.45Z" transform="translate(-842.257 -4314.066)" fill="#ffb294" opacity="0.5"/>
      <path id="Trazado_632066" data-name="Trazado 632066" d="M147.741,46.068l2.5,1.33.188-1.5a1.218,1.218,0,0,1,1.3-1.233,9.366,9.366,0,0,0,4.788-.834,3.45,3.45,0,0,0,1.962-1.947c.842-3.232-3.42-5.728-6.63-5.622-3.909.128-5.487,2.751-5.495,5.066A12.542,12.542,0,0,0,147.741,46.068Z" transform="translate(-841.186 -4311.773)"/>
      <path id="Trazado_632067" data-name="Trazado 632067" d="M157.41,44.723a14.935,14.935,0,0,1-4.57,1.669l.135.083c2.616,1.5,6.013,3.089,9.433,1.1,3.758-2.172.707-3.939-1.917-5.45l-.173-.09a7.517,7.517,0,0,1-2.909,2.683Z" transform="translate(-842.798 -4313.209)" fill="#0071bc"/>
      <path id="Trazado_632068" data-name="Trazado 632068" d="M151.328,44.681a7.577,7.577,0,0,1-4.743-1.744s-1.759-5.6,3.007-7.426c7.84-3.007,9.02,4.736,9.02,4.736C158.138,42.674,155.124,43.869,151.328,44.681Z" transform="translate(-841.166 -4311.416)" fill="#0071bc"/>
      <path id="Trazado_632069" data-name="Trazado 632069" d="M148.6,46.593a.872.872,0,0,0-1.06.158.857.857,0,0,0-.128.624,2.563,2.563,0,0,0,.218.609c.165.331.353.661.549.977a1.2,1.2,0,0,0,.661.6c.308.075.669.286.834,0a2.548,2.548,0,0,0-1.075-3.007Z" transform="translate(-841.448 -4314.313)" fill="#ffb294"/>
      <path id="Trazado_632070" data-name="Trazado 632070" d="M157.41,44.723a14.935,14.935,0,0,1-4.57,1.669l.135.083c2.616,1.5,6.013,3.089,9.433,1.1,3.758-2.172.707-3.939-1.917-5.45l-.173-.09a7.517,7.517,0,0,1-2.909,2.683Z" transform="translate(-842.798 -4313.209)" fill="#0071bc" opacity="0.5"/>
    </g>
  </g>
</svg>
