<svg xmlns="http://www.w3.org/2000/svg" xmlns:xlink="http://www.w3.org/1999/xlink" width="165.766" height="181.516" viewBox="0 0 165.766 181.516">
  <defs>
    <linearGradient id="linear-gradient" x1="-0.019" y1="0.302" x2="1.161" y2="1.49" gradientUnits="objectBoundingBox">
      <stop offset="0.23" stop-color="#290023"/>
      <stop offset="1" stop-color="#aa286c"/>
    </linearGradient>
    <clipPath id="clip-path">
      <path id="Trazado_625010" data-name="Trazado 625010" d="M264.753,306.294a3.343,3.343,0,0,1,.822.347,7.459,7.459,0,0,1,3.376,5.843,3.711,3.711,0,0,1-.1.892,7.048,7.048,0,0,1-1.315,1.957c.173,1.891.371,11.155-.791,12.317-.694.694-5.715-1.35-5.715-1.35s1.523-10.475,3.47-12.709a7.9,7.9,0,0,1-2.28-5C262.2,306.772,263.289,305.867,264.753,306.294Z" transform="translate(-261.03 -306.189)" fill="none"/>
    </clipPath>
  </defs>
  <g id="Grupo_1075437" data-name="Grupo 1075437" transform="translate(-826 -1384)">
    <g id="Grupo_875265" data-name="Grupo 875265" transform="translate(826 1384)">
      <path id="Trazado_612485" data-name="Trazado 612485" d="M1198.781,240.878c18.908-41.017,65.016-61.553,107.908-46.755.868.267,3.265,1.217,4.163,1.574.777.272,1.963.811,2.728,1.17l2.7,1.244c1.285.6,2.666,1.44,3.942,2.081,1.515.807,3.633,2.173,5.1,3.056.738.5,2.9,2.012,3.674,2.54a85.557,85.557,0,0,1,30.908,96.447c-.369.92-1.193,3.374-1.579,4.276-.3.684-.886,2.113-1.182,2.8-.4,1.071-1.47,3.086-1.94,4.128-.618,1.282-1.492,2.76-2.155,4.021-.555,1.019-1.787,2.9-2.367,3.9-.575.772-1.99,3.008-2.586,3.763-.459.583-1.389,1.83-1.849,2.418-1.445,1.845-3.34,4.074-4.964,5.762-19.254,20.9-49.46,30.851-77.3,25.065a2.392,2.392,0,0,1,.728-4.724,89.959,89.959,0,0,0,22.553-.173c.986-.14,3.219-.539,4.157-.674.787-.19,3.268-.7,4.11-.9,2.941-.744,5.837-1.651,8.705-2.632,1.484-.61,3.077-1.178,4.543-1.814.908-.4,2.938-1.378,3.8-1.761a82.336,82.336,0,0,0,17.349-11.6c1.2-.995,2.982-2.656,4.113-3.772.563-.5,1.407-1.453,1.941-2,28.093-29.37,29.578-76.8,3.169-107.845-32.661-39.11-93.9-38.226-124.988,2.375a75.991,75.991,0,0,0-10.967,19.869,2.393,2.393,0,1,1-4.415-1.838Z" transform="translate(-1198.555 -189.329)" fill="#1b3f5e"/>
    </g>
    <ellipse id="Elipse_4839" data-name="Elipse 4839" cx="69.067" cy="69.067" rx="69.067" ry="69.067" transform="translate(835.989 1399.599)" fill="#148d80"/>
    <g id="_13" data-name="13" transform="translate(757.139 1286.516)">
      <g id="Grupo_1072012" data-name="Grupo 1072012" transform="translate(76.783 130.984)">
        <g id="XMLID_1_">
          <path id="XMLID_117_" d="M230.231,201.289l-101.442,5.922a1.336,1.336,0,0,1-1.406-1.278l-3.792-65.015a4.106,4.106,0,0,1,3.877-4.346l95.9-5.581a4.106,4.106,0,0,1,4.346,3.877l3.792,65.015a1.365,1.365,0,0,1-1.278,1.406" transform="translate(-103.645 -130.984)" fill="url(#linear-gradient)"/>
          <path id="XMLID_118_" d="M232.694,202.64l-96.287,5.624-3.707-63.14,96.287-5.624,3.707,63.14" transform="translate(-108.877 -135.872)" fill="#fffbe5"/>
          <path id="XMLID_248_" d="M227.877,341.836,80.208,350.442a3.236,3.236,0,0,1-3.408-3.025v-.128l154.145-8.99v.128A3.268,3.268,0,0,1,227.877,341.836Z" transform="translate(-76.793 -249.973)" fill="#939598"/>
          <path id="XMLID_249_" d="M227.4,314.842l-147.03,8.606c-2.684.17-4.175-.3-3.366-.98l22.325-19.683a9.359,9.359,0,0,1,4.687-1.491l97.778-5.709a8.887,8.887,0,0,1,4.772.937l24.114,16.957C231.532,314.075,230.083,314.671,227.4,314.842Z" transform="translate(-76.783 -225.45)" fill="#d1d3d4"/>
          <path id="XMLID_250_" d="M247.794,334.215,191.3,337.538l3.408-7.584,49-2.855Z" transform="translate(-142.51 -243.545)" fill="#bcbec0"/>
          <path id="XMLID_251_" d="M149.279,311.645l-4.516.256c-.256,0-.383-.043-.3-.17l1.619-1.662a1.579,1.579,0,0,1,.639-.213l4.3-.256c.256,0,.383.043.3.17l-1.449,1.662A1.351,1.351,0,0,1,149.279,311.645Z" transform="translate(-115.614 -233.501)" fill="#939598"/>
          <path id="XMLID_252_" d="M164.227,310.8l-4.516.256c-.256,0-.426-.043-.341-.128l1.406-1.662a1.351,1.351,0,0,1,.6-.213l4.3-.256c.256,0,.383.043.341.128l-1.193,1.662A1.351,1.351,0,0,1,164.227,310.8Z" transform="translate(-124.171 -233.042)" fill="#939598"/>
          <path id="XMLID_253_" d="M179.227,309.9l-4.516.256c-.256,0-.426-.043-.341-.128l1.15-1.662a1.351,1.351,0,0,1,.6-.213l4.3-.256c.256,0,.426.043.341.128l-.98,1.619C179.738,309.817,179.483,309.9,179.227,309.9Z" transform="translate(-132.781 -232.525)" fill="#939598"/>
          <path id="XMLID_254_" d="M194.191,309.06l-4.516.256c-.256,0-.426-.043-.383-.128l.937-1.619c.043-.085.3-.17.554-.213l4.3-.256c.256,0,.426.043.383.128l-.767,1.619C194.7,308.975,194.446,309.06,194.191,309.06Z" transform="translate(-141.354 -232.066)" fill="#939598"/>
          <path id="XMLID_255_" d="M209.091,308.26l-4.516.256c-.256,0-.426-.043-.383-.128l.724-1.619c.043-.085.3-.17.554-.213l4.3-.256c.256,0,.426.043.383.128l-.511,1.619C209.6,308.132,209.389,308.217,209.091,308.26Z" transform="translate(-149.906 -231.607)" fill="#939598"/>
          <path id="XMLID_256_" d="M224.135,307.36l-4.516.256c-.256,0-.469-.043-.426-.128l.469-1.619a.819.819,0,0,1,.511-.213l4.3-.256c.256,0,.426.043.426.128l-.3,1.576C224.646,307.232,224.39,307.317,224.135,307.36Z" transform="translate(-158.516 -231.09)" fill="#939598"/>
          <path id="XMLID_257_" d="M239.085,306.517l-4.516.256c-.256,0-.469-.043-.469-.128l.256-1.576c0-.085.213-.17.469-.213l4.3-.256c.256,0,.469.043.469.128l-.043,1.576C239.553,306.432,239.34,306.517,239.085,306.517Z" transform="translate(-167.075 -230.631)" fill="#939598"/>
          <path id="XMLID_258_" d="M254.085,305.617l-4.516.256c-.256,0-.469-.043-.469-.128l.043-1.576c0-.085.213-.17.469-.213l4.3-.256c.256,0,.469.043.469.128l.17,1.576C254.553,305.532,254.34,305.617,254.085,305.617Z" transform="translate(-175.685 -230.115)" fill="#939598"/>
          <path id="XMLID_259_" d="M268.74,304.817l-4.516.256c-.256,0-.469-.043-.511-.128l-.213-1.576c0-.085.17-.17.426-.213l4.3-.256c.256,0,.469.043.511.128l.383,1.534C269.209,304.689,269,304.775,268.74,304.817Z" transform="translate(-183.95 -229.655)" fill="#939598"/>
          <path id="XMLID_260_" d="M283.446,303.975l-4.516.256c-.256,0-.511-.043-.511-.128l-.426-1.534c-.043-.085.17-.17.426-.213l4.3-.256c.256,0,.469.043.511.128l.639,1.534C283.915,303.847,283.7,303.932,283.446,303.975Z" transform="translate(-192.264 -229.196)" fill="#939598"/>
          <path id="XMLID_261_" d="M298.743,303.132l-4.516.256c-.256,0-.511-.043-.554-.128l-.682-1.534c-.043-.085.128-.17.383-.17l4.3-.256c.256,0,.511.043.554.128l.852,1.534C299.212,303,299,303.089,298.743,303.132Z" transform="translate(-200.872 -228.737)" fill="#939598"/>
          <path id="XMLID_262_" d="M313.4,302.232l-4.516.256a1.031,1.031,0,0,1-.6-.128l-.895-1.534c-.043-.085.128-.17.383-.17l4.3-.256a1.031,1.031,0,0,1,.6.128l1.108,1.534C313.825,302.1,313.654,302.189,313.4,302.232Z" transform="translate(-209.137 -228.221)" fill="#939598"/>
          <path id="XMLID_263_" d="M328.033,301.389l-4.516.256c-.256,0-.554-.043-.6-.128l-1.15-1.491c-.085-.085.085-.17.341-.17l4.3-.256a1.031,1.031,0,0,1,.6.128l1.321,1.491C328.459,301.3,328.289,301.389,328.033,301.389Z" transform="translate(-217.381 -227.761)" fill="#939598"/>
          <path id="XMLID_264_" d="M342.683,300.489l-4.516.256a1.2,1.2,0,0,1-.639-.128l-1.363-1.491c-.085-.085.043-.17.3-.17l4.3-.256a1.2,1.2,0,0,1,.639.128l1.576,1.491C343.109,300.4,342.939,300.489,342.683,300.489Z" transform="translate(-225.64 -227.245)" fill="#939598"/>
          <path id="XMLID_265_" d="M357.4,299.689l-4.516.256a1.2,1.2,0,0,1-.639-.128l-1.576-1.491c-.085-.085.043-.17.3-.17l4.3-.256a1.2,1.2,0,0,1,.639.128l1.789,1.491C357.78,299.562,357.652,299.647,357.4,299.689Z" transform="translate(-233.963 -226.786)" fill="#939598"/>
          <path id="XMLID_266_" d="M146.947,316.7l-7.541.426c-.3,0-.426-.043-.341-.128l1.619-1.662a1.579,1.579,0,0,1,.639-.213l7.2-.426c.256,0,.426.043.341.128l-1.321,1.662C147.5,316.575,147.2,316.66,146.947,316.7Z" transform="translate(-112.515 -236.428)" fill="#939598"/>
          <path id="XMLID_267_" d="M166.3,315.8l-4.729.256q-.447,0-.383-.128l1.321-1.662a1.364,1.364,0,0,1,.639-.213l4.559-.256c.256,0,.426.043.383.128l-1.108,1.662A2.144,2.144,0,0,1,166.3,315.8Z" transform="translate(-125.224 -235.911)" fill="#939598"/>
          <path id="XMLID_268_" d="M181.983,314.9l-4.729.256c-.3,0-.469-.043-.383-.128l1.065-1.662c.043-.085.341-.17.6-.213l4.559-.256c.256,0,.426.043.383.128l-.895,1.619C182.537,314.775,182.281,314.86,181.983,314.9Z" transform="translate(-134.216 -235.395)" fill="#939598"/>
          <path id="XMLID_269_" d="M197.746,313.96l-4.729.256c-.3,0-.469-.043-.426-.128l.852-1.619c.043-.085.3-.17.554-.213l4.559-.256c.256,0,.469.043.426.128l-.639,1.619A.773.773,0,0,1,197.746,313.96Z" transform="translate(-143.248 -234.878)" fill="#939598"/>
          <path id="XMLID_270_" d="M213.546,313.06l-4.729.256c-.3,0-.469-.043-.426-.128l.639-1.619c.043-.085.3-.17.554-.213l4.559-.256c.256,0,.469.043.426.128l-.426,1.619A.772.772,0,0,1,213.546,313.06Z" transform="translate(-152.316 -234.362)" fill="#939598"/>
          <path id="XMLID_271_" d="M229.2,312.16l-4.729.256c-.3,0-.469-.043-.469-.128l.383-1.619a.819.819,0,0,1,.511-.213l4.559-.256c.256,0,.469.043.469.128l-.213,1.576C229.709,312.075,229.5,312.16,229.2,312.16Z" transform="translate(-161.279 -233.845)" fill="#939598"/>
          <path id="XMLID_272_" d="M244.99,311.317l-4.729.256c-.3,0-.511-.043-.469-.128l.17-1.576c0-.085.213-.17.511-.213l4.559-.256c.256,0,.469.043.469.128l.043,1.576C245.5,311.189,245.246,311.275,244.99,311.317Z" transform="translate(-170.34 -233.386)" fill="#939598"/>
          <path id="XMLID_273_" d="M260.526,310.417l-4.729.256c-.3,0-.511-.043-.511-.128l-.085-1.576c0-.085.213-.17.469-.213l4.559-.256c.256,0,.511.043.511.128l.256,1.576C261.037,310.289,260.824,310.375,260.526,310.417Z" transform="translate(-179.186 -232.87)" fill="#939598"/>
          <path id="XMLID_274_" d="M275.981,309.417l-4.729.256c-.3,0-.511-.043-.554-.128l-.3-1.576c0-.085.17-.17.469-.213l4.559-.256c.256,0,.511.043.554.128l.511,1.534C276.45,309.332,276.237,309.417,275.981,309.417Z" transform="translate(-187.91 -232.296)" fill="#939598"/>
          <path id="XMLID_275_" d="M292.13,308.575l-4.729.256c-.3,0-.511-.043-.554-.128l-.554-1.534c-.043-.085.17-.17.426-.213l4.559-.256c.256,0,.511.043.554.128l.724,1.534C292.6,308.447,292.385,308.532,292.13,308.575Z" transform="translate(-197.028 -231.836)" fill="#939598"/>
          <path id="XMLID_276_" d="M307.484,307.732l-4.729.256c-.3,0-.554-.043-.6-.128l-.767-1.534c-.043-.085.128-.17.383-.17l4.559-.256a1.031,1.031,0,0,1,.6.128l.98,1.534C307.952,307.6,307.782,307.689,307.484,307.732Z" transform="translate(-205.694 -231.377)" fill="#939598"/>
          <path id="XMLID_277_" d="M323,306.732l-4.729.256c-.3,0-.554-.043-.6-.128l-.98-1.534c-.043-.085.128-.17.383-.17l4.559-.256c.256,0,.554.043.6.128l1.193,1.491C323.423,306.647,323.252,306.732,323,306.732Z" transform="translate(-214.475 -230.803)" fill="#939598"/>
          <path id="XMLID_278_" d="M338.274,305.889l-4.729.256a1.1,1.1,0,0,1-.639-.128l-1.236-1.491c-.085-.085.085-.17.341-.17l4.559-.256a1.2,1.2,0,0,1,.639.128l1.406,1.491C338.7,305.8,338.572,305.889,338.274,305.889Z" transform="translate(-223.063 -230.344)" fill="#939598"/>
          <path id="XMLID_279_" d="M357.744,304.547l-8.691.511a1.1,1.1,0,0,1-.639-.128l-1.449-1.491c-.085-.085.043-.17.341-.17l8.351-.469a1.5,1.5,0,0,1,.682.128l1.789,1.491C358.17,304.419,358,304.5,357.744,304.547Z" transform="translate(-231.84 -229.598)" fill="#939598"/>
          <path id="XMLID_280_" d="M132.039,333.16l-8.606.511c-.3,0-.511-.043-.383-.128l1.619-1.662a1.324,1.324,0,0,1,.724-.213l8.308-.469c.3,0,.511.043.426.128l-1.321,1.662A5.427,5.427,0,0,1,132.039,333.16Z" transform="translate(-103.316 -245.898)" fill="#939598"/>
          <path id="XMLID_281_" d="M154.111,332l-5.411.3c-.3,0-.511-.043-.426-.128l1.321-1.662a1.588,1.588,0,0,1,.682-.213l5.24-.3c.3,0,.511.043.426.128l-1.108,1.662A.973.973,0,0,1,154.111,332Z" transform="translate(-117.805 -245.21)" fill="#939598"/>
          <path id="XMLID_282_" d="M172.172,331l-5.411.3c-.3,0-.511-.043-.469-.128l1.065-1.662c.043-.085.383-.17.682-.213l5.24-.3c.3,0,.511.043.469.128l-.895,1.619A1.139,1.139,0,0,1,172.172,331Z" transform="translate(-128.154 -244.636)" fill="#939598"/>
          <path id="XMLID_283_" d="M190.157,329.96l-5.411.3c-.3,0-.554-.043-.469-.128l.852-1.619c.043-.085.341-.17.639-.213l5.2-.3c.3,0,.511.043.469.128l-.639,1.619C190.754,329.875,190.455,329.96,190.157,329.96Z" transform="translate(-138.47 -244.062)" fill="#939598"/>
          <path id="XMLID_284_" d="M243.537,324.175l-40.432,2.343c-.3,0-.554-.043-.511-.128l.6-1.619c.043-.085.3-.17.639-.213l38.983-2.258c.3,0,.6.043.639.128l.639,1.534C244.048,324.089,243.835,324.175,243.537,324.175Z" transform="translate(-148.99 -240.79)" fill="#939598"/>
          <path id="XMLID_285_" d="M307.624,323.175l-5.411.3c-.3,0-.6-.043-.639-.128l-.682-1.534c-.043-.085.17-.17.469-.213l5.24-.3c.3,0,.6.043.639.128l.852,1.534C308.178,323.047,307.922,323.132,307.624,323.175Z" transform="translate(-205.408 -240.216)" fill="#939598"/>
          <path id="XMLID_286_" d="M325.28,322.075l-5.411.3c-.3,0-.639-.043-.682-.128l-.895-1.534c-.043-.085.17-.17.469-.213l5.24-.3a1.271,1.271,0,0,1,.682.128l1.108,1.534C325.791,321.989,325.621,322.075,325.28,322.075Z" transform="translate(-215.395 -239.585)" fill="#939598"/>
          <path id="XMLID_287_" d="M342.975,321.132l-5.411.3c-.3,0-.639-.043-.682-.128l-1.108-1.491c-.085-.085.128-.17.426-.213l5.24-.3c.3,0,.639.043.682.128l1.321,1.491C343.486,321,343.316,321.089,342.975,321.132Z" transform="translate(-225.421 -239.068)" fill="#939598"/>
          <path id="XMLID_288_" d="M360.569,320.032l-5.411.3a1.457,1.457,0,0,1-.724-.128l-1.363-1.491c-.085-.085.085-.17.426-.213l5.24-.3a1.457,1.457,0,0,1,.724.128L361,319.819C361.08,319.947,360.91,320.032,360.569,320.032Z" transform="translate(-235.346 -238.437)" fill="#939598"/>
          <path id="XMLID_289_" d="M378.382,319.089l-5.411.3a1.457,1.457,0,0,1-.724-.128l-1.576-1.491c-.085-.085.085-.17.383-.17l5.24-.3a1.457,1.457,0,0,1,.724.128l1.789,1.491C378.893,318.962,378.68,319.047,378.382,319.089Z" transform="translate(-245.448 -237.92)" fill="#939598"/>
          <path id="XMLID_290_" d="M146.027,321.5l-11.844.682c-.3,0-.469-.043-.341-.128l1.619-1.662a1.587,1.587,0,0,1,.682-.213l11.376-.682c.3,0,.469.043.383.128l-1.193,1.662A1.084,1.084,0,0,1,146.027,321.5Z" transform="translate(-109.508 -239.183)" fill="#939598"/>
          <path id="XMLID_291_" d="M171.9,320.6l-4.942.3c-.3,0-.469-.043-.383-.128l1.193-1.662a1.364,1.364,0,0,1,.639-.213l4.772-.3c.3,0,.469.043.383.128l-.98,1.619A1.27,1.27,0,0,1,171.9,320.6Z" transform="translate(-128.304 -238.666)" fill="#939598"/>
          <path id="XMLID_292_" d="M188.359,319.66l-4.942.3c-.3,0-.469-.043-.426-.128l.937-1.619c.043-.085.341-.17.6-.213l4.772-.3c.3,0,.469.043.426.128l-.767,1.619C188.913,319.575,188.658,319.66,188.359,319.66Z" transform="translate(-137.738 -238.15)" fill="#939598"/>
          <path id="XMLID_293_" d="M204.8,318.66l-4.942.3c-.3,0-.511-.043-.469-.128l.724-1.619c.043-.085.3-.17.6-.213l4.772-.3c.3,0,.469.043.469.128l-.511,1.619A.814.814,0,0,1,204.8,318.66Z" transform="translate(-147.152 -237.576)" fill="#939598"/>
          <path id="XMLID_294_" d="M221.3,317.76l-4.942.3c-.3,0-.511-.043-.469-.128l.469-1.619c.043-.085.3-.17.554-.213l4.772-.3c.3,0,.511.043.469.128l-.3,1.576C221.857,317.632,221.6,317.717,221.3,317.76Z" transform="translate(-156.622 -237.059)" fill="#939598"/>
          <path id="XMLID_295_" d="M237.753,316.817l-4.942.3c-.3,0-.511-.043-.511-.128l.256-1.576c0-.085.256-.17.554-.213l4.772-.3c.3,0,.511.043.511.128l-.043,1.576C238.307,316.732,238.052,316.817,237.753,316.817Z" transform="translate(-166.042 -236.543)" fill="#939598"/>
          <path id="XMLID_296_" d="M254.253,315.917l-4.942.3c-.3,0-.511-.043-.511-.128l.043-1.576c0-.085.213-.17.511-.213l4.772-.3c.3,0,.511.043.511.128l.17,1.576C254.765,315.789,254.552,315.875,254.253,315.917Z" transform="translate(-175.513 -236.026)" fill="#939598"/>
          <path id="XMLID_297_" d="M270.409,314.917l-4.942.3c-.3,0-.554-.043-.554-.128l-.213-1.576c0-.085.213-.17.469-.213l4.772-.3c.3,0,.511.043.554.128l.383,1.534C270.92,314.789,270.707,314.917,270.409,314.917Z" transform="translate(-184.638 -235.452)" fill="#939598"/>
          <path id="XMLID_298_" d="M286.615,313.975l-4.942.3c-.3,0-.554-.043-.554-.128l-.426-1.534c-.043-.085.17-.17.469-.213l4.772-.3c.3,0,.554.043.554.128l.639,1.534C287.126,313.889,286.913,313.975,286.615,313.975Z" transform="translate(-193.814 -234.936)" fill="#939598"/>
          <path id="XMLID_299_" d="M302.713,313.075l-4.942.3c-.3,0-.554-.043-.6-.128l-.682-1.534c-.043-.085.17-.17.426-.213l4.772-.3c.3,0,.554.043.6.128l.852,1.534C303.182,312.947,303.011,313.032,302.713,313.075Z" transform="translate(-202.883 -234.419)" fill="#939598"/>
          <path id="XMLID_300_" d="M318.867,312.075l-4.942.3a1.1,1.1,0,0,1-.639-.128l-.895-1.534c-.043-.085.128-.17.426-.213l4.772-.3a1.1,1.1,0,0,1,.639.128l1.108,1.534C319.336,311.989,319.165,312.075,318.867,312.075Z" transform="translate(-212.007 -233.845)" fill="#939598"/>
          <path id="XMLID_301_" d="M335.063,311.189l-4.942.3c-.3,0-.6-.043-.639-.128l-1.108-1.491c-.085-.085.128-.17.383-.17l4.772-.3a1.1,1.1,0,0,1,.639.128l1.321,1.491C335.532,311.1,335.362,311.189,335.063,311.189Z" transform="translate(-221.173 -233.386)" fill="#939598"/>
          <path id="XMLID_302_" d="M351.158,310.289l-4.942.3a1.271,1.271,0,0,1-.682-.128l-1.363-1.491c-.085-.085.085-.17.383-.17l4.772-.3a1.272,1.272,0,0,1,.682.128l1.534,1.491C351.584,310.162,351.456,310.247,351.158,310.289Z" transform="translate(-230.238 -232.87)" fill="#939598"/>
          <path id="XMLID_303_" d="M367.365,309.289l-4.942.3a1.272,1.272,0,0,1-.682-.128l-1.576-1.491c-.085-.085.043-.17.341-.17l4.772-.3a1.271,1.271,0,0,1,.682.128l1.789,1.491C367.834,309.2,367.664,309.289,367.365,309.289Z" transform="translate(-239.416 -232.296)" fill="#939598"/>
          <path id="XMLID_304_" d="M145.412,326.46l-16.659.98c-.3,0-.469-.043-.383-.128l1.619-1.662a1.325,1.325,0,0,1,.724-.213l16.019-.937c.3,0,.469.043.426.128l-1.065,1.662A1.2,1.2,0,0,1,145.412,326.46Z" transform="translate(-106.379 -242.053)" fill="#939598"/>
          <path id="XMLID_305_" d="M178,325.46l-5.2.3c-.3,0-.511-.043-.426-.128l1.023-1.619c.043-.085.341-.17.639-.213l4.985-.3c.3,0,.511.043.426.128l-.852,1.619C178.595,325.375,178.3,325.46,178,325.46Z" transform="translate(-131.637 -241.479)" fill="#939598"/>
          <path id="XMLID_306_" d="M195.359,324.46l-5.2.3c-.3,0-.511-.043-.469-.128l.809-1.619c.043-.085.341-.17.6-.213l4.985-.3c.3,0,.511.043.469.128l-.6,1.619C195.913,324.375,195.657,324.46,195.359,324.46Z" transform="translate(-141.585 -240.905)" fill="#939598"/>
          <path id="XMLID_307_" d="M212.559,323.46l-5.2.3c-.3,0-.511-.043-.469-.128l.6-1.619c.043-.085.3-.17.6-.213l4.985-.3c.3,0,.511.043.469.128l-.383,1.619C213.113,323.375,212.857,323.46,212.559,323.46Z" transform="translate(-151.457 -240.331)" fill="#939598"/>
          <path id="XMLID_308_" d="M229.8,322.46l-5.2.3c-.3,0-.554-.043-.511-.128l.341-1.619c0-.085.256-.17.554-.213l4.985-.3c.3,0,.511.043.511.128l-.17,1.576C230.357,322.375,230.1,322.46,229.8,322.46Z" transform="translate(-161.33 -239.757)" fill="#939598"/>
          <path id="XMLID_309_" d="M246.952,321.517l-5.2.3c-.3,0-.554-.043-.554-.128l.128-1.576c0-.085.256-.17.554-.213l4.985-.3c.3,0,.554.043.554.128l.085,1.576C247.506,321.389,247.25,321.517,246.952,321.517Z" transform="translate(-171.15 -239.24)" fill="#939598"/>
          <path id="XMLID_310_" d="M264.137,320.517l-5.2.3c-.3,0-.554-.043-.554-.128l-.085-1.576c0-.085.213-.17.511-.213l4.985-.3c.3,0,.554.043.554.128l.3,1.576C264.648,320.389,264.435,320.475,264.137,320.517Z" transform="translate(-180.965 -238.666)" fill="#939598"/>
          <path id="XMLID_311_" d="M280.935,319.517l-5.2.3c-.3,0-.554-.043-.6-.128l-.341-1.576c0-.085.213-.17.511-.213l4.985-.3c.3,0,.554.043.6.128l.511,1.534C281.489,319.389,281.233,319.475,280.935,319.517Z" transform="translate(-190.435 -238.092)" fill="#939598"/>
          <path id="XMLID_312_" d="M297.941,318.575l-5.2.3c-.3,0-.6-.043-.6-.128l-.554-1.534c-.043-.085.17-.17.469-.213l4.985-.3c.3,0,.554.043.6.128l.767,1.534C298.452,318.447,298.239,318.532,297.941,318.575Z" transform="translate(-200.07 -237.576)" fill="#939598"/>
          <path id="XMLID_313_" d="M314.739,317.575l-5.2.3c-.3,0-.6-.043-.639-.128l-.81-1.534c-.043-.085.17-.17.426-.213l4.985-.3c.3,0,.6.043.639.128l.98,1.534C315.25,317.447,315.08,317.532,314.739,317.575Z" transform="translate(-209.54 -237.002)" fill="#939598"/>
          <path id="XMLID_314_" d="M331.693,316.575l-5.2.3a1.271,1.271,0,0,1-.682-.128l-1.023-1.534c-.043-.085.128-.17.426-.213l4.985-.3a1.272,1.272,0,0,1,.682.128l1.236,1.491C332.2,316.447,331.992,316.532,331.693,316.575Z" transform="translate(-219.124 -236.428)" fill="#939598"/>
          <path id="XMLID_315_" d="M348.685,315.689l-5.2.3a1.271,1.271,0,0,1-.682-.128l-1.236-1.491c-.085-.085.085-.17.383-.17l4.985-.3a1.272,1.272,0,0,1,.682.128l1.449,1.491C349.154,315.562,348.984,315.647,348.685,315.689Z" transform="translate(-228.746 -235.969)" fill="#939598"/>
          <path id="XMLID_316_" d="M368.736,314.189l-8.351.469a1.457,1.457,0,0,1-.724-.128l-1.491-1.491c-.085-.085.085-.17.383-.17l8.01-.469a1.572,1.572,0,0,1,.724.128l1.789,1.491C369.205,314.1,369.035,314.189,368.736,314.189Z" transform="translate(-238.273 -235.108)" fill="#939598"/>
          <path id="XMLID_317_" d="M230.791,337.8c-.383.383-1.619.682-3.408.81L80.4,347.13c-1.789.085-3.025-.043-3.451-.383-.554.639.937,1.065,3.494.895l147.03-8.564C229.982,338.95,231.43,338.354,230.791,337.8Z" transform="translate(-76.81 -249.686)" fill="#f1f2f2"/>
        </g>
      </g>
      <g id="DESIGNED_BY_FREEPIK" transform="translate(120.29 271.749)">
        <g id="Grupo_1072014" data-name="Grupo 1072014" transform="translate(0 0)">
          <g id="XMLID_319_" transform="translate(33.394)">
            <g id="XMLID_338_">
              <path id="XMLID_346_" d="M258.482,465.5a2.482,2.482,0,0,0-.469.639l-.213-.085a.284.284,0,0,0-.3-.213.232.232,0,0,0-.213.3c.043.17.128.256.3.213.043,0,.043,0,.085-.043l.213.085a2.338,2.338,0,0,0-.213.724l.3.043a2.956,2.956,0,0,1,.767-1.491Z" transform="translate(-257.28 -463.745)" fill="#fff"/>
              <path id="XMLID_345_" d="M263.706,462.156h-.213l-.043-.256a.3.3,0,0,0,.128-.256.273.273,0,0,0-.341-.256c-.17.043-.3.17-.256.341a.288.288,0,0,0,.17.256l.043.256a3.537,3.537,0,0,0-.895.256l.128.3a3.131,3.131,0,0,1,1.278-.3,3.289,3.289,0,0,1,.639.085l.085-.3A1.538,1.538,0,0,0,263.706,462.156Z" transform="translate(-260.161 -461.381)" fill="#fff"/>
              <path id="XMLID_344_" d="M270.536,464.954a.259.259,0,1,0-.085-.511.239.239,0,0,0-.213.256l-.17.17a3.218,3.218,0,0,0-.6-.469l-.17.256a3.107,3.107,0,0,1,1.108,1.236l.3-.128a4.208,4.208,0,0,0-.383-.639l.17-.17Z" transform="translate(-264.179 -463.114)" fill="#fff"/>
              <path id="XMLID_343_" d="M262.13,472.31h-.511a8.3,8.3,0,0,1-1.065-.085c-.17-.043-.341-.085-.554-.128a2.581,2.581,0,0,0,2.3,1.321,2.62,2.62,0,0,0,2.556-1.917,4.987,4.987,0,0,1-1.065.469A6.021,6.021,0,0,1,262.13,472.31Z" transform="translate(-258.841 -467.189)" fill="#fff"/>
              <path id="XMLID_339_" d="M262.1,464.7a2.565,2.565,0,0,0-2.6,2.514,2.621,2.621,0,0,0,.043.554,4.119,4.119,0,0,0,2.258.3,5.027,5.027,0,0,0,2.855-.937v-.256A2.573,2.573,0,0,0,262.1,464.7Zm-.937,2.769a.81.81,0,1,1,.809-.81A.783.783,0,0,1,261.162,467.469Zm2.045-.383a.6.6,0,1,1,.6-.6A.609.609,0,0,1,263.207,467.086Z" transform="translate(-258.554 -463.286)" fill="#fff"/>
            </g>
            <path id="XMLID_336_" d="M278.5,465.352a1.177,1.177,0,0,0-.6-.085c-.256.043-.341.128-.341.426v.383h.937v.724h-.937v2.343h-.81V466.8H276.2v-.724h.554v-.383a1.055,1.055,0,0,1,1.108-1.193,1.623,1.623,0,0,1,.682.128v.724Z" transform="translate(-268.139 -463.171)" fill="#fff"/>
            <path id="XMLID_334_" d="M284.062,468.809h-.213a.6.6,0,0,0-.639.682v1.662H282.4v-3.068h.809v.341a.946.946,0,0,1,.852-.426.859.859,0,0,1,.469.128Z" transform="translate(-271.698 -465.18)" fill="#fff"/>
            <path id="XMLID_331_" d="M289.868,469.619v.3h-2.173a.738.738,0,0,0,.767.639,1.327,1.327,0,0,0,.767-.3l.469.511a2,2,0,0,1-1.321.469,1.623,1.623,0,1,1,1.491-1.619Zm-2.173-.3h1.363a.655.655,0,0,0-.682-.6A.629.629,0,0,0,287.695,469.321Z" transform="translate(-274.223 -465.18)" fill="#fff"/>
            <path id="XMLID_328_" d="M297.468,469.619v.3h-2.173a.738.738,0,0,0,.767.639,1.327,1.327,0,0,0,.767-.3l.469.511a2,2,0,0,1-1.321.469,1.62,1.62,0,0,1-.043-3.238A1.478,1.478,0,0,1,297.468,469.619Zm-2.173-.3h1.363a.688.688,0,0,0-1.363,0Z" transform="translate(-278.585 -465.18)" fill="#fff"/>
            <path id="XMLID_325_" d="M305.7,469.674a1.515,1.515,0,0,1-1.491,1.619,1.174,1.174,0,0,1-.895-.383v1.576h-.81v-4.3h.81v.341a1.132,1.132,0,0,1,.895-.426A1.455,1.455,0,0,1,305.7,469.674Zm-2.428,0a.786.786,0,0,0,.767.852.819.819,0,0,0,.81-.852.794.794,0,0,0-.81-.852A.763.763,0,0,0,303.267,469.674Z" transform="translate(-283.234 -465.235)" fill="#fff"/>
            <path id="XMLID_322_" d="M311.723,465.111a.511.511,0,1,1-.511-.511A.518.518,0,0,1,311.723,465.111Zm-.128,4.09h-.809v-3.068h.809Z" transform="translate(-287.941 -463.228)" fill="#fff"/>
            <path id="XMLID_320_" d="M314.909,467.2l1.15-1.108h1.022l-1.491,1.449,1.491,1.619H316.06l-1.15-1.236v1.236H314.1V464.6h.809Z" transform="translate(-289.892 -463.228)" fill="#fff"/>
          </g>
          <g id="Grupo_1072013" data-name="Grupo 1072013" transform="translate(0 1.712)">
            <path id="Trazado_820703" data-name="Trazado 820703" d="M181.243,469.618v-.469a1.27,1.27,0,0,1-1.023.511c-.767,0-1.321-.6-1.321-1.576s.554-1.576,1.321-1.576a1.334,1.334,0,0,1,1.023.511V465.4h.469v4.175l-.469.043Zm0-.809v-1.363a1.1,1.1,0,0,0-.895-.469,1.038,1.038,0,0,0-.98,1.15,1.015,1.015,0,0,0,.98,1.15A1.1,1.1,0,0,0,181.243,468.808Z" transform="translate(-178.9 -465.4)" fill="#fff"/>
            <path id="Trazado_820704" data-name="Trazado 820704" d="M186.9,469.576A1.5,1.5,0,0,1,188.391,468a1.482,1.482,0,0,1,1.449,1.619v.128h-2.428a1.046,1.046,0,0,0,1.065,1.023,1.322,1.322,0,0,0,.937-.383l.213.3a1.674,1.674,0,0,1-1.193.469A1.444,1.444,0,0,1,186.9,469.576Zm1.491-1.193a1,1,0,0,0-.98,1.023h1.96A.969.969,0,0,0,188.391,468.383Z" transform="translate(-183.492 -466.892)" fill="#fff"/>
            <path id="Trazado_820705" data-name="Trazado 820705" d="M194.6,470.784l.256-.341a1.491,1.491,0,0,0,.98.426c.469,0,.724-.213.724-.511,0-.724-1.875-.3-1.875-1.406,0-.469.426-.852,1.108-.852a1.569,1.569,0,0,1,1.108.426l-.213.341a1.174,1.174,0,0,0-.895-.383c-.426,0-.682.213-.682.469,0,.682,1.875.213,1.875,1.406,0,.511-.426.895-1.193.895A1.674,1.674,0,0,1,194.6,470.784Z" transform="translate(-187.911 -466.95)" fill="#fff"/>
            <path id="Trazado_820706" data-name="Trazado 820706" d="M201.5,466.1a.3.3,0,1,1,.3.3A.291.291,0,0,1,201.5,466.1Zm.085,3.749v-3.025h.469v3.025Z" transform="translate(-191.871 -465.63)" fill="#fff"/>
            <path id="Trazado_820707" data-name="Trazado 820707" d="M204.428,471.934l.256-.341a1.178,1.178,0,0,0,.98.426.871.871,0,0,0,.98-.895V470.7a1.307,1.307,0,0,1-1.023.554c-.767,0-1.321-.6-1.321-1.576s.554-1.576,1.321-1.576a1.334,1.334,0,0,1,1.023.511v-.469h.469v2.94c0,.98-.682,1.321-1.449,1.321A1.548,1.548,0,0,1,204.428,471.934Zm2.173-1.619v-1.321a1.1,1.1,0,0,0-.895-.469,1.015,1.015,0,0,0-.98,1.15c0,.682.341,1.15.98,1.15A1.268,1.268,0,0,0,206.6,470.315Z" transform="translate(-193.478 -466.95)" fill="#fff"/>
            <path id="Trazado_820708" data-name="Trazado 820708" d="M214.645,471.168v-1.96c0-.511-.256-.682-.682-.682a1.1,1.1,0,0,0-.895.469v2.215H212.6v-3.025h.469v.426a1.5,1.5,0,0,1,1.065-.511.86.86,0,0,1,.98.98v2.13l-.469-.043Z" transform="translate(-198.242 -466.95)" fill="#fff"/>
            <path id="Trazado_820709" data-name="Trazado 820709" d="M219.9,469.576A1.5,1.5,0,0,1,221.391,468a1.482,1.482,0,0,1,1.449,1.619v.128h-2.428a1.046,1.046,0,0,0,1.065,1.023,1.322,1.322,0,0,0,.937-.383l.213.3a1.673,1.673,0,0,1-1.193.469A1.444,1.444,0,0,1,219.9,469.576Zm1.491-1.193a1,1,0,0,0-.98,1.023h1.96A.969.969,0,0,0,221.391,468.383Z" transform="translate(-202.432 -466.892)" fill="#fff"/>
            <path id="Trazado_820710" data-name="Trazado 820710" d="M230.243,469.618v-.469a1.27,1.27,0,0,1-1.023.511c-.767,0-1.321-.6-1.321-1.576s.554-1.576,1.321-1.576a1.334,1.334,0,0,1,1.023.511V465.4h.469v4.175l-.469.043Zm0-.809v-1.363a1.1,1.1,0,0,0-.895-.469,1.038,1.038,0,0,0-.98,1.15c0,.682.341,1.15.98,1.15A1.17,1.17,0,0,0,230.243,468.808Z" transform="translate(-207.024 -465.4)" fill="#fff"/>
            <path id="Trazado_820711" data-name="Trazado 820711" d="M239.7,469.675V465.5h.469v1.619a1.215,1.215,0,0,1,1.023-.511,1.4,1.4,0,0,1,1.321,1.576c0,.98-.554,1.576-1.321,1.576a1.27,1.27,0,0,1-1.023-.511v.469l-.469-.043Zm1.363-.341a1.038,1.038,0,0,0,.98-1.15,1.015,1.015,0,0,0-.98-1.15,1.1,1.1,0,0,0-.895.469v1.363A1.1,1.1,0,0,0,241.063,469.334Z" transform="translate(-213.796 -465.457)" fill="#fff"/>
            <path id="Trazado_820712" data-name="Trazado 820712" d="M247.041,472.049a.54.54,0,0,0,.256.043.5.5,0,0,0,.469-.3l.213-.469L246.7,468.3h.511l1.023,2.471.98-2.471h.511l-1.491,3.621a.869.869,0,0,1-.895.6.938.938,0,0,1-.341-.043Z" transform="translate(-217.814 -467.064)" fill="#fff"/>
          </g>
        </g>
      </g>
    </g>
    <g id="Grupo_1070650" data-name="Grupo 1070650" transform="translate(398.756 -19008.164)">
      <path id="Trazado_624980" data-name="Trazado 624980" d="M146.578,343.855a10.561,10.561,0,0,1,9.545,0l19.725,11.335a5.244,5.244,0,0,1,1.02.763l9.656-5.61,5.357,3.091c-1.013-1.228-.645-2.741,1.114-3.758a8.96,8.96,0,0,1,8.1,0l6.641,3.817c2.234,1.291,2.234,3.383,0,4.677a8.949,8.949,0,0,1-8.1,0l-.916-.531-23.1,13.455-12.432-7.179,4.49-2.609a7.318,7.318,0,0,1-1.36-.6l-19.739-11.332C143.941,347.848,143.941,345.381,146.578,343.855Z" transform="translate(334.527 20131.338)" fill="#35241a" opacity="0.1"/>
      <path id="Trazado_624981" data-name="Trazado 624981" d="M239.52,245.506l3.622-2.807-.607-7.1,3.22-1.2,1.43,5.867v2.973l-.3,1.881-6.145,2.1Z" transform="translate(283.547 20214.158)" fill="#d4eeff"/>
      <path id="Trazado_624982" data-name="Trazado 624982" d="M291.308,355.853a3.974,3.974,0,0,1,.177,2.2c-.281.971-1.2.878-2,.989-1.527.212-2.307,1.346-4.334,1.3-1.207-.021-2.009-.295-2.248-1.062a1.326,1.326,0,0,1,.614-1.062c2.8-1.194,2.793-1.2,2.859-1.239a14.108,14.108,0,0,0,1.353-1.024c.024-.094.517-2.207.517-2.207l2.977.052Z" transform="translate(244.211 20124.133)"/>
      <path id="Trazado_624983" data-name="Trazado 624983" d="M297.428,292.823l-2.144,11.752c.323,3.581,1.558,7.109,1.228,10.569-.264,1.433-3.227,1.218-3.792.163.194-2.689-1.388-6.672-1.978-11.082-.128-4.361-.076-8.851.812-12.314Z" transform="translate(239.126 20164.516)" fill="#0051a3"/>
      <path id="Trazado_624984" data-name="Trazado 624984" d="M314.086,369.272a3.014,3.014,0,0,1,.215,1.787c-.128.347-.26.5-.406.978-.167.59-.142,1.572-1.017,2.162-1.041.826-3.064.864-3.7-.017a4.631,4.631,0,0,1,.812-2.144l1.041-1.9-.066-1.787,2.942-.645Z" transform="translate(227.051 20115.023)"/>
      <path id="Trazado_624985" data-name="Trazado 624985" d="M302.613,319.365a.916.916,0,0,1-.392.76,1.42,1.42,0,0,1-.347.191,3.015,3.015,0,0,1-2.953-.5A65.682,65.682,0,0,0,296,308.845c-.316-2.082-.562-4.125-.694-6.065-.059-.774-.1-1.527-.125-2.266-2.509-.808-3.053-3.751-3.851-4.368.191-1.69,0-2.429.18-3.817l4.077-.094,6.273-.146a8.779,8.779,0,0,1-.576,5.937l-.274,11.034A39.7,39.7,0,0,1,302.613,319.365Z" transform="translate(238.707 20164.398)" fill="#0071bc"/>
      <path id="Trazado_624986" data-name="Trazado 624986" d="M294.4,270.885a8.024,8.024,0,0,1-6.318,1.832,10.19,10.19,0,0,1-4.032-1.593,1.574,1.574,0,0,0-.083-.4c-.545-1.53-3.518-3.47-4.032-6.551l.316-3.837a6.663,6.663,0,0,1,7.914,1.513,5.1,5.1,0,0,1,2.238.784,4.91,4.91,0,0,1,1.135,1.041,8.4,8.4,0,0,1,1.121,1.943C293.319,267.173,293.764,269.032,294.4,270.885Z" transform="translate(246.152 20185.59)" fill="#0071bc"/>
      <path id="Trazado_624987" data-name="Trazado 624987" d="M300.636,298.878c.833-2.283.826-5.6.631-9.129l-4.826,3.1-.125-2.266-3.216-6.148c1.388.715,2.637.847,3.577-.371v-.087l.045-1.686.111-4.341,3.4,1.041,1.041-2.11c.666,1.551,1.11,3.411,1.735,5.263a8.779,8.779,0,0,1-.576,5.937l-.264,11.047a39.7,39.7,0,0,1,1.6,10.308C302.707,305.3,301.628,300.227,300.636,298.878Z" transform="translate(237.551 20174.332)" fill="#0071bc" opacity="0.5"/>
      <path id="Trazado_624988" data-name="Trazado 624988" d="M267.74,300.7l4.76,8.251,6.11-4.549a2.042,2.042,0,0,0,.677-1.7,6.082,6.082,0,0,0-2.748-4.76,2.019,2.019,0,0,0-1.8-.257S267.74,300.7,267.74,300.7Z" transform="translate(254.112 20160.814)" fill="#f15a24"/>
      <path id="Trazado_624989" data-name="Trazado 624989" d="M266.96,306.294a3.343,3.343,0,0,1,.822.347,7.459,7.459,0,0,1,3.376,5.843,3.711,3.711,0,0,1-.1.892c-.368,1.485-1.693,1.974-3.275,1.058a7.452,7.452,0,0,1-3.373-5.846C264.41,306.772,265.5,305.867,266.96,306.294Z" transform="translate(256.287 20155.191)" fill="#ad411a"/>
      <path id="Trazado_624990" data-name="Trazado 624990" d="M269.973,308.7a7.074,7.074,0,0,1,1.017,3.414,3.716,3.716,0,0,1-.108.937,2.082,2.082,0,0,1-1.169,1.509,2.652,2.652,0,0,1-2.373-.347,7.67,7.67,0,0,1-3.47-6.006,2.681,2.681,0,0,1,.9-2.224,2.082,2.082,0,0,1,1.888-.257,3.77,3.77,0,0,1,.864.375A7.084,7.084,0,0,1,269.973,308.7Zm-4.771,2.755a6.728,6.728,0,0,0,2.321,2.45,2.338,2.338,0,0,0,2.047.316,1.735,1.735,0,0,0,.954-1.256,3.554,3.554,0,0,0,.1-.85,7.279,7.279,0,0,0-3.282-5.683,3.422,3.422,0,0,0-.781-.347,1.735,1.735,0,0,0-1.565.2,2.318,2.318,0,0,0-.753,1.929A6.738,6.738,0,0,0,265.2,311.454Z" transform="translate(256.64 20155.572)" fill="#ad411a"/>
      <path id="Trazado_624991" data-name="Trazado 624991" d="M283.312,322.9a2.852,2.852,0,0,1,0,1.325l-.5.288c-.274.156-.5,0-.5-.375a1.19,1.19,0,0,1,.5-.951Z" transform="translate(244.591 20144.279)" fill="#f15a24"/>
      <path id="Trazado_624992" data-name="Trazado 624992" d="M263.326,309.9a2.932,2.932,0,0,1,0,1.322l-.5.288c-.274.16-.5,0-.5-.375a1.19,1.19,0,0,1,.5-.951Z" transform="translate(257.645 20152.768)" fill="#ad411a"/>
      <path id="Trazado_624993" data-name="Trazado 624993" d="M264.41,303.3v.867l.437.371h.86l.517-.295.732-.611-.045-.4-.642.031.066-.5.694-.305a6.856,6.856,0,0,0,.42.569c.562.514.562-.08.562-.08l-.295-.784.076-.035-.187-.628-.815-.271-1.332.694Z" transform="translate(256.287 20158.422)" fill="#ffb294"/>
      <path id="Trazado_624994" data-name="Trazado 624994" d="M292.476,311.68l-.9.8-1.242.566-.458.229-.579.656c-.236.319.156.541.482.285l.819-.5v1.041l-.368.67-.888.659h.968l1.79-.5.694-.85.736-2.248Z" transform="translate(240.083 20151.605)" fill="#ffb294"/>
      <path id="Trazado_624995" data-name="Trazado 624995" d="M298.724,274.374l.468,6.509L296,286.17c.975,0,1.6.652,1.488,1.419a13.787,13.787,0,0,0,5.2-5.277,29.6,29.6,0,0,0,.43-8.05C302.7,269.384,298.332,271.6,298.724,274.374Z" transform="translate(235.657 20177.92)" fill="#d4eeff"/>
      <path id="Trazado_624996" data-name="Trazado 624996" d="M292.162,262.651c-.135,0-3.98-.194-3.369,5.447l-4.615-1.076s-2.366-2.512-1.246-4.9a7.91,7.91,0,0,1,2.082-2.46,7.377,7.377,0,0,1,4.91,2.207,5.1,5.1,0,0,1,2.238.784Z" transform="translate(244.388 20185.576)" fill="#d4eeff"/>
      <path id="Trazado_624997" data-name="Trazado 624997" d="M288.886,261l.826,1.45c.663,1.766-1.436,3.234-2.727,3.022l-1.3-2.352Z" transform="translate(242.397 20184.701)" fill="#ffb294"/>
      <path id="Trazado_624998" data-name="Trazado 624998" d="M289.655,266.17c.049.864.347,2.557,0,3.3-.965,1.756-2.193-.43-2.6-1Z" transform="translate(241.496 20181.324)" fill="#ffb294" opacity="0.5"/>
      <path id="Trazado_624999" data-name="Trazado 624999" d="M285.424,258.888a3.917,3.917,0,0,1-1.815,3.178.913.913,0,0,1-1.135-.028L281.4,260.57a3.935,3.935,0,0,1-.909-1.561l1.634-3.369h2.54l1.2,1.659Z" transform="translate(245.786 20188.201)" fill="#ffb294"/>
      <path id="Trazado_625000" data-name="Trazado 625000" d="M284.738,256.536l-1.006.215a.864.864,0,0,0-1.093-.083,3.886,3.886,0,0,1-2.429.767,1.756,1.756,0,0,1-1.735-1.922c.069-.965,1.7-3.147,3.581-3.022,2.224.153,3.286,1.811,2.866,4.271Z" transform="translate(247.107 20190.262)"/>
      <path id="Trazado_625001" data-name="Trazado 625001" d="M294.451,260.974a.416.416,0,0,1,.441.156.566.566,0,0,1,.076.347,1.779,1.779,0,0,1-.173.742.781.781,0,0,1-.187.26.364.364,0,0,1-.295.1c-.382-.056-.312-.541-.347-.812A.729.729,0,0,1,294.451,260.974Z" transform="translate(236.991 20184.727)" fill="#ffb294"/>
      <path id="Trazado_625002" data-name="Trazado 625002" d="M284.1,261.949c-.08,1.554-.9,3.046-2.488,3.1L280,262.858l.59-1.468Z" transform="translate(246.106 20184.445)" fill="#ffb294" opacity="0.5"/>
      <path id="Trazado_625003" data-name="Trazado 625003" d="M277.806,262.461a7.369,7.369,0,0,0,2.453-.128c-.017.024.17,0,.153.035-.961,1.235-2.082,3.123-4.445,2.429-2.082-.607-1.041-1.735-.073-2.956l.062-.08A3.64,3.64,0,0,0,277.806,262.461Z" transform="translate(249.528 20184.205)" fill="#0051a3"/>
      <path id="Trazado_625004" data-name="Trazado 625004" d="M282.553,254.714a4.268,4.268,0,0,0,2.023-1.79s-.153-3-2.866-2.88c-4.431.191-3.612,4.077-3.612,4.077C278.816,255.151,280.53,255.1,282.553,254.714Z" transform="translate(247.387 20191.857)" fill="#0071bc"/>
      <g id="Grupo_895854" data-name="Grupo 895854" transform="translate(497.655 20476.723)">
        <path id="Trazado_625005" data-name="Trazado 625005" d="M232.924,385.036v2.127a1.6,1.6,0,0,1-.694,1.492l23.594-13.716a1.628,1.628,0,0,0,.694-1.492V371.32Z" transform="translate(-220.353 -364.065)" fill="#754c24"/>
        <path id="Trazado_625006" data-name="Trazado 625006" d="M166.29,329.3l23.6-13.716,12.564,7.255-23.6,13.716Z" transform="translate(-166.287 -315.58)" fill="#fbb03b"/>
        <path id="Trazado_625007" data-name="Trazado 625007" d="M172.07,331.48l21.6-12.55,10.562,6.1-21.6,12.553Z" transform="translate(-170.061 -317.768)" fill="#754c24"/>
        <path id="Trazado_625008" data-name="Trazado 625008" d="M210.571,397.2v2.127c0,1.478-1.041,2.082-2.332,1.332l-7.914-4.57A5.107,5.107,0,0,1,198,392.067V389.94Z" transform="translate(-198 -376.224)" fill="#c4720e"/>
      </g>
      <g id="Grupo_895855" data-name="Grupo 895855" transform="translate(519.524 20461.381)" clip-path="url(#clip-path)">
        <path id="Trazado_625009" data-name="Trazado 625009" d="M271.378,314s-3.036,1.842-3.952,4.375-1.388,12.22-1.388,12.22l-.638,4.212,1.457-.409,2.623-2.776.753-11.505,2.776-1.946Z" transform="translate(-263.884 -311.29)" fill="#54371a"/>
      </g>
      <path id="Trazado_625011" data-name="Trazado 625011" d="M204.174,326.121l-2.866-1.221-1.964.944-1.832.278-1.135,1.544-2.4,1.041-2.252.715-3.581,3.619-.7,2.765h-2.5l-2.422,1.672,6.929,4,20.2-11.741-3.307-1.381-.208-1.645Z" transform="translate(320.763 20155.057)" fill="#54371a"/>
      <path id="Trazado_625012" data-name="Trazado 625012" d="M205.177,338.011l.6,1.693-.888-.59V340.4s-.42.045-1.388-.888a3.916,3.916,0,0,1-.507-.593,6.724,6.724,0,0,1-.9-1.887s.049-3.98-1.312-6.461c-2.151-3.924-1.589-9.715-1.589-9.715s5.846,2.106,6.592,6.738-.937,5.378-.937,5.378l-.09,3.834Z" transform="translate(298.918 20145.609)" fill="#b85e5e"/>
      <path id="Trazado_625013" data-name="Trazado 625013" d="M213.053,371.9l-.888-.59V372.6s-.42.045-1.388-.888a3.913,3.913,0,0,1-.507-.593,3.558,3.558,0,0,1,.885-.725,1.884,1.884,0,0,1,1.312-.187Z" transform="translate(291.642 20113.414)"/>
      <path id="Trazado_625014" data-name="Trazado 625014" d="M161.864,315.577l.6,1.693-.885-.59v1.291s-.423.045-1.388-.888a3.893,3.893,0,0,1-.5-.593,6.728,6.728,0,0,1-.9-1.884s.049-3.98-1.312-6.461c-2.151-3.924-1.589-9.715-1.589-9.715s5.846,2.1,6.592,6.735-.933,5.381-.933,5.381l-.111,3.824Z" transform="translate(327.201 20160.258)" fill="#b85e5e"/>
      <path id="Trazado_625015" data-name="Trazado 625015" d="M169.776,349.46l-.885-.59v1.291s-.423.045-1.388-.888a3.894,3.894,0,0,1-.5-.593,3.6,3.6,0,0,1,.881-.722,1.877,1.877,0,0,1,1.315-.191Z" transform="translate(319.899 20128.068)"/>
      <path id="Trazado_625016" data-name="Trazado 625016" d="M172.757,307.789s-.059,3.941-6.245,5.2a21.856,21.856,0,0,1-5.9.4,17.719,17.719,0,0,1-9.715-3.532,21.938,21.938,0,0,1-2.012-1.811,34.186,34.186,0,0,1-5.038-6.818,7.724,7.724,0,0,1-.618-4.257,6.5,6.5,0,0,1,.618-2.314c.878-1.648,4.511-2.911,4.511-2.911a9.852,9.852,0,0,1,3.869-.156,6.035,6.035,0,0,1,2.172.649c2.738,1.426,10.534,5.52,12.376,6.87C169.051,300.753,172.757,307.789,172.757,307.789Z" transform="translate(335.457 20164.795)" fill="#ff9797"/>
      <path id="Trazado_625017" data-name="Trazado 625017" d="M171.665,335.851l-.288,1.509a17.719,17.719,0,0,1-9.715-3.532,21.947,21.947,0,0,1-2.012-1.811l1.013-3.817C162.818,332.367,167.058,334.314,171.665,335.851Z" transform="translate(324.699 20140.816)" fill="#d98080" opacity="0.25"/>
      <path id="Trazado_625018" data-name="Trazado 625018" d="M149.087,323.989l.767,2.162-.892-.513v1.218s-.42.045-1.388-.892a4.164,4.164,0,0,1-.694-.867,6.94,6.94,0,0,1-.718-1.61s.052-3.98-1.308-6.461c-2.151-3.924-1.589-9.715-1.589-9.715s5.846,2.106,6.592,6.735-.94,5.381-.94,5.381l-.09,3.834Z" transform="translate(335.442 20154.459)" fill="#ff9797"/>
      <path id="Trazado_625019" data-name="Trazado 625019" d="M156.784,357.507l-.892-.514v1.218s-.42.045-1.388-.892a4.165,4.165,0,0,1-.694-.867,2.823,2.823,0,0,1,2.214-1.107Z" transform="translate(328.513 20123.102)"/>
      <path id="Trazado_625020" data-name="Trazado 625020" d="M192.414,346.429l.767,2.162-.888-.517v1.218s-.423.045-1.388-.888a4.294,4.294,0,0,1-.694-.867,7,7,0,0,1-.715-1.61s.049-3.98-1.312-6.46c-2.151-3.924-1.589-9.715-1.589-9.715s2.269,4.923,6.592,6.735a.871.871,0,0,1,.5.784c.187,1.537-1.436,4.6-1.436,4.6l-.094,3.834Z" transform="translate(307.146 20139.805)" fill="#ff9797"/>
      <path id="Trazado_625021" data-name="Trazado 625021" d="M200.11,379.947l-.888-.517v1.218s-.423.045-1.388-.888a4.392,4.392,0,0,1-.694-.867,2.823,2.823,0,0,1,2.214-1.107Z" transform="translate(300.217 20108.447)"/>
      <path id="Trazado_625022" data-name="Trazado 625022" d="M193.812,351.475l-.094,3.834.17-5.624c-2.852-.229-4.1-3.157-4.958-5.2l6.318,2.387C195.436,348.415,193.812,351.475,193.812,351.475Z" transform="translate(305.578 20130.186)" fill="#d98080" opacity="0.25"/>
      <path id="Trazado_625023" data-name="Trazado 625023" d="M188.93,341.241l7.39-.541s3.47-1.693,6.315-1.041.961,3.577.961,3.577l-12.56-.434Z" transform="translate(305.578 20133.434)" fill="#d98080" opacity="0.25"/>
      <path id="Trazado_625024" data-name="Trazado 625024" d="M217.715,353.059a.693.693,0,0,1-.16-.111c-.635-.413-1.183-.756-1.672-1.041a14.292,14.292,0,0,0-2.665-1.259c-.673-.226-3.123-1.041-4.164-2.318a4.916,4.916,0,0,1-.739-4.205c.059-.236.1-.375.1-.375l.607-2.547a8.6,8.6,0,0,1,6.481-2.734l2.276,1.478c2.169,2.557,1.277,3.98,1.325,5.014l.239,1.214a15.118,15.118,0,0,0,1.735,4.67.93.93,0,0,1,.142.2C221.58,351.966,218.95,353.767,217.715,353.059Z" transform="translate(293.031 20134.121)" fill="#ff9797"/>
      <path id="Trazado_625025" data-name="Trazado 625025" d="M226.1,327.339l.808-1.221a25.571,25.571,0,0,1,.892-3.237,26.707,26.707,0,0,1,1.964-3.331s1.957,3.511,1.648,5.156-2.849,3.47-2.849,3.47Z" transform="translate(281.305 20146.467)" fill="#ff9797"/>
      <path id="Trazado_625026" data-name="Trazado 625026" d="M235.72,375.809a.694.694,0,0,1,.066-.288,1.9,1.9,0,0,1,.364-.482l.781-.843a3.816,3.816,0,0,1,.736-.666,1.3,1.3,0,0,1,.947-.212.965.965,0,0,1,.572.392C239.561,374.671,236.973,376.545,235.72,375.809Z" transform="translate(275.023 20111.365)" fill="#d98080"/>
      <path id="Trazado_625027" data-name="Trazado 625027" d="M239.549,376.331c.035-.052.087-.1.146-.094s.094.128.094.208v.4a1.346,1.346,0,0,1-.08.486c-.056.121-.194.295-.347.281s-.083-.156-.049-.271A3.324,3.324,0,0,1,239.549,376.331Z" transform="translate(272.706 20109.447)" fill="#1a1a1a"/>
      <path id="Trazado_625028" data-name="Trazado 625028" d="M242.578,375.147a.4.4,0,0,1,.031-.167.16.16,0,0,1,.146-.09.153.153,0,0,1,.115.08.347.347,0,0,1,.042.128,1.916,1.916,0,0,1,.049.559c0,.108-.239.659-.382.43-.062-.1,0-.3,0-.406C242.567,375.5,242.574,375.324,242.578,375.147Z" transform="translate(270.562 20110.326)" fill="#1a1a1a"/>
      <path id="Trazado_625029" data-name="Trazado 625029" d="M223.939,357.96a.843.843,0,0,0,.285.347.6.6,0,0,0,.194.111.267.267,0,0,0,.219,0,.278.278,0,0,0,.125-.264.6.6,0,0,0-.1-.281.763.763,0,0,0-.274-.291C224.071,357.388,223.814,357.641,223.939,357.96Z" transform="translate(282.737 20121.674)" fill="#1a1a1a"/>
      <path id="Trazado_625030" data-name="Trazado 625030" d="M238.082,352.915c.031.083.083.17.17.18a.17.17,0,0,0,.156-.094.347.347,0,0,0,.035-.187.728.728,0,0,0-.167-.43.346.346,0,0,0-.115-.1C237.881,352.179,238.037,352.8,238.082,352.915Z" transform="translate(273.535 20125.096)" fill="#1a1a1a"/>
      <path id="Trazado_625031" data-name="Trazado 625031" d="M215.883,362.572a14.286,14.286,0,0,0-2.665-1.26c-.673-.226-3.123-1.041-4.164-2.318a4.916,4.916,0,0,1-.739-4.205h.111s1.152,5.024,4.694,5.347Z" transform="translate(293.031 20123.453)" fill="#d98080" opacity="0.25"/>
      <path id="Trazado_625032" data-name="Trazado 625032" d="M197.383,345.406a11.574,11.574,0,0,0-2.332-.93c-.965-.163-6.214.066-6.124-.031s2.45,6.048,7.05,4.223S197.383,345.406,197.383,345.406Z" transform="translate(305.58 20130.229)" fill="#ff9797"/>
      <path id="Trazado_625033" data-name="Trazado 625033" d="M191.36,346.4s1.544,4.927,6.11,3.383a1.4,1.4,0,0,0,.843-1.482A54.515,54.515,0,0,1,191.36,346.4Z" transform="translate(303.991 20128.932)" fill="#a65050"/>
      <path id="Trazado_625034" data-name="Trazado 625034" d="M217.254,340.771a1.246,1.246,0,0,0,.236,1.388,3.1,3.1,0,0,0,1.509.579,4.132,4.132,0,0,1,1.537.968,1.107,1.107,0,0,0,1.829-.937,2.251,2.251,0,0,1,0-.25,3.23,3.23,0,0,0-.59-1.981,2.467,2.467,0,0,0-1.662-.94C219.3,339.509,217.65,339.963,217.254,340.771Z" transform="translate(287.156 20133.381)" fill="#fff" opacity="0.15"/>
      <path id="Trazado_625035" data-name="Trazado 625035" d="M153,295.527a3.427,3.427,0,0,0,.725-.09,8.932,8.932,0,0,1,4.233.4,27.955,27.955,0,0,1,14.153,8.82.569.569,0,0,0,.982-.548,9.246,9.246,0,0,0-1.2-2.193,12.03,12.03,0,0,0-3.022-2.529c-2.221-1.589-4.108-2.332-6.329-3.921a16.989,16.989,0,0,0-4.368-2.495,9.119,9.119,0,0,0-5.139-.108C151.733,293.247,150.588,295.5,153,295.527Z" transform="translate(329.962 20164.102)" fill="#fff" opacity="0.15"/>
      <path id="Trazado_625036" data-name="Trazado 625036" d="M138.532,292.529a2.026,2.026,0,0,1-2-2.429.281.281,0,0,1,.347-.219.278.278,0,0,1,.215.347,1.475,1.475,0,0,0,1.759,1.735,1.7,1.7,0,0,1-.725-.965,1.433,1.433,0,0,1,.149-1.083,1.194,1.194,0,0,1,.732-.573,1.221,1.221,0,0,1,.968.191,1.388,1.388,0,0,1,.569.8,1.707,1.707,0,0,1-.347,1.443,3.969,3.969,0,0,0,.919-.125.281.281,0,1,1,.128.548,3.74,3.74,0,0,1-1.638.08A2.217,2.217,0,0,1,138.532,292.529Zm.732-2.679a.522.522,0,0,0-.128,0,.625.625,0,0,0-.385.312.843.843,0,0,0-.094.649,1.28,1.28,0,0,0,.847.819l.066-.052a1.211,1.211,0,0,0,.423-1.145A.8.8,0,0,0,139.265,289.85Z" transform="translate(339.821 20166.211)" fill="#ff9797"/>
    </g>
  </g>
</svg>
