<svg xmlns="http://www.w3.org/2000/svg" width="124" height="124" viewBox="0 0 124 124">
  <g id="Grupo_1075446" data-name="Grupo 1075446" transform="translate(-388.087 -6769.165)">
    <g id="Grupo_159182" data-name="Grupo 159182" transform="translate(3.087 4711.165)">
      <path id="Unión_12" data-name="Unión 12" d="M8438,11700a62,62,0,1,1-62,62A62,62,0,0,1,8438,11700Z" transform="translate(-7991 -9642)" fill="#1b3f5e"/>
      <circle id="Elipse_4842" data-name="Elipse 4842" cx="48" cy="48" r="48" transform="translate(399 2072)" fill="#1b3f5e"/>
    </g>
    <g id="Grupo_1072072" data-name="Grupo 1072072" transform="translate(-223.762 -1610.652)">
      <path id="Trazado_271233" data-name="Trazado 271233" d="M438.216,715.992c.066-.219.131-.436.193-.656a5.93,5.93,0,0,1,5.709-4.43c3.181-.024,6.362-.007,9.544-.007h.822c1.184-3.232,2.49-4.328,4.9-4.148,2.035.151,3.461,1.615,3.971,4.107h28.513c.658-2.666,2.061-4.04,4.189-4.117,2.392-.086,3.732,1.085,4.691,4.158h.8c3.105,0,6.209-.008,9.314,0a5.929,5.929,0,0,1,6.169,6.151q.015,11.508,0,23.018a2.568,2.568,0,0,1-.032.613,1.092,1.092,0,0,1-1.162.914,1.071,1.071,0,0,1-1.083-.913,3.825,3.825,0,0,1-.032-.844q0-11.279,0-22.557c0-2.631-1.457-4.074-4.1-4.075q-4.543,0-9.084,0h-.816v3.857h3q2,0,4,0c2.214,0,3.319,1.095,3.319,3.295q0,18.093,0,36.184c0,2.207-.011,4.414,0,6.621a4.681,4.681,0,0,1-1.4,3.466c-1.1,1.113-2.195,2.234-3.3,3.338-.646.643-1.3.693-1.816.171-.492-.5-.435-1.188.211-1.821.722-.709,1.482-1.38,2.225-2.069-.053-.085-.108-.17-.163-.254h-2.657c-1.668,0-3.335.006-5,0-.527,0-.926.117-.926.745,0,2.64,0,5.282,0,8.062.232-.188.386-.29.514-.417.694-.686,1.36-1.4,2.077-2.059a1.035,1.035,0,0,1,1.524.033.977.977,0,0,1,.149,1.452,48.831,48.831,0,0,1-4.488,4.3,4.732,4.732,0,0,1-2.758.69c-11.982.044-23.964.029-35.946.029q-5.927,0-11.854,0a2.9,2.9,0,0,1-3.233-3.223q-.007-2.578,0-5.158c0-.9.442-1.406,1.171-1.388.693.017,1.125.522,1.131,1.369.012,1.72.018,3.439,0,5.158-.01.635.188.941.875.94q24.055-.014,48.108-.01c.1,0,.2-.023.416-.049v-.815c0-2.9-.007-5.8,0-8.7a2.951,2.951,0,0,1,3.3-3.264q4.31-.007,8.622,0h.869V737.024H446.515v.924q0,13.127,0,26.253a3.511,3.511,0,0,1-.092.986,1.038,1.038,0,0,1-1.182.77,1.063,1.063,0,0,1-1.014-.988,5.05,5.05,0,0,1-.016-.692q0-21.941,0-43.883c0-2.256,1.084-3.328,3.36-3.329,2.305,0,4.608,0,6.967,0v-3.857h-1.861c-2.773,0-5.543-.006-8.314,0a3.627,3.627,0,0,0-3.831,3.8q-.005,30.949,0,61.9a3.607,3.607,0,0,0,3.789,3.768q33.293.007,66.583,0a3.623,3.623,0,0,0,3.828-3.884q.005-16.13,0-32.258a5.061,5.061,0,0,1,.015-.768,1.145,1.145,0,0,1,2.277-.008,3.847,3.847,0,0,1,.016.615q0,16.128,0,32.256a5.955,5.955,0,0,1-6.351,6.358q-33.021,0-66.041,0c-3.365,0-5.39-1.551-6.316-4.824a2.581,2.581,0,0,0-.114-.276Zm8.3,18.614H508.74V729.79q0-4.735,0-9.469c0-.464-.015-.934-.628-.937-2.46-.016-4.918-.006-7.359-.006-.974,3.08-2.347,4.325-4.614,4.225-2.245-.1-3.648-1.471-4.284-4.228h-1.514c-3.285,0-6.568,0-9.853,0-.918,0-1.443-.5-1.373-1.269.059-.662.534-1.034,1.367-1.036q5.312-.009,10.622,0h.79v-3.8H463.355v3.8c.317,0,.594,0,.867,0q5.157,0,10.314,0c.935,0,1.432.39,1.453,1.111.023.749-.5,1.193-1.454,1.2q-3.655.007-7.311,0H463.4c-.653,2.774-2.039,4.127-4.285,4.228-2.273.1-3.656-1.153-4.615-4.228-2.313,0-4.641,0-6.973,0-.923,0-1.01.089-1.01,1.021q0,6.39,0,12.778ZM461,715.186c0-1.309.01-2.617,0-3.926a2.049,2.049,0,1,0-4.09-.074c-.034,2.668-.038,5.338,0,8.006a2,2,0,0,0,2.083,2.1,2.033,2.033,0,0,0,2-2.177c.015-1.309,0-2.617,0-3.926m33.248-.031c0,1.309-.011,2.617,0,3.926a2.044,2.044,0,0,0,1.971,2.207,1.99,1.99,0,0,0,2.112-2.065q.066-4.041,0-8.083a2,2,0,0,0-2.087-2.088,2.023,2.023,0,0,0-2,2.177c-.015,1.309,0,2.617,0,3.926" transform="translate(195.718 7695.919)" fill="#fff"/>
      <path id="Trazado_271234" data-name="Trazado 271234" d="M476.913,764.438c0,.846.015,1.587,0,2.325a1.924,1.924,0,0,1-2.066,2.07q-1.539.029-3.077,0a1.927,1.927,0,0,1-2.071-2.137c-.009-.714,0-1.429,0-2.219-.319-.015-.589-.039-.859-.039-2.847,0-5.694-.01-8.539,0a2,2,0,0,1-2.069-1.022,1.957,1.957,0,0,1,.524-2.3c1.553-1.809,3.079-3.642,4.614-5.467.2-.232.385-.47.649-.793-.286-.027-.472-.062-.658-.058a1.719,1.719,0,0,1-1.731-1.042,1.759,1.759,0,0,1,.33-2q2.311-2.731,4.609-5.471c.26-.31.516-.622.847-1.022-.395-.036-.688-.045-.975-.094a1.762,1.762,0,0,1-1.182-2.864c2.308-2.815,4.668-5.589,7.034-8.357a1.4,1.4,0,0,1,2.27.028c2.279,2.741,4.545,5.492,6.772,8.274a1.778,1.778,0,0,1-1.235,2.934c-.2.029-.405.035-.726.061.445.556.838,1.051,1.236,1.539,1.266,1.549,2.523,3.1,3.807,4.637a2.068,2.068,0,0,1,.6,2.3c-.4.9-1.182,1.144-2.263,1.059.232.312.38.528.545.73,1.541,1.888,3.074,3.779,4.631,5.654a1.935,1.935,0,0,1,.47,2.247,2,2,0,0,1-2.069,1.022c-2.82-.013-5.641,0-8.463,0h-.952M461,762.051h24.63c-.234-.3-.384-.505-.544-.7q-2.557-3.125-5.121-6.246a1.557,1.557,0,0,1-.318-1.774,1.5,1.5,0,0,1,1.519-.841c.318,0,.635,0,1.083,0-.253-.33-.4-.533-.556-.726q-2.555-3.128-5.117-6.25a1.572,1.572,0,0,1-.367-1.766,1.476,1.476,0,0,1,1.581-.849c.311.017.624,0,1.108,0L473.4,736.2l-5.645,6.71c.5,0,.784.012,1.063,0a1.612,1.612,0,0,1,1.8.87c.359.794-.053,1.368-.537,1.938q-2.589,3.05-5.159,6.115c-.153.182-.287.382-.505.676.6,0,1.061-.038,1.514.007a1.467,1.467,0,0,1,1.079,2.387c-.284.394-.62.751-.934,1.124-1.666,1.978-3.332,3.955-5.082,6.033m11.037,4.425h2.507V764.49h-2.507Z" transform="translate(199.958 7701.623)" fill="#fff"/>
      <path id="Trazado_271235" data-name="Trazado 271235" d="M467.015,724.173a4.366,4.366,0,1,1,4.339,4.392,4.4,4.4,0,0,1-4.339-4.392m2.316-.091a2.051,2.051,0,1,0,2.183-1.93,2.092,2.092,0,0,0-2.183,1.93" transform="translate(201.88 7698.722)" fill="#fff"/>
      <path id="Trazado_271236" data-name="Trazado 271236" d="M487.224,726.586c-1.718,0-3.434,0-5.152,0-.919,0-1.431-.413-1.445-1.123s.523-1.179,1.4-1.18c3.46-.008,6.92,0,10.381-.006.618,0,1.21.171,1.311.808a1.932,1.932,0,0,1-.424,1.269c-.143.2-.6.221-.924.225-1.718.021-3.434.01-5.152.01" transform="translate(204.793 7699.673)" fill="#fff"/>
      <path id="Trazado_271237" data-name="Trazado 271237" d="M456.495,724.231c1.718,0,3.434,0,5.152,0,.906,0,1.423.436,1.413,1.151s-.547,1.151-1.44,1.153q-5.151.011-10.3,0c-.92,0-1.425-.42-1.44-1.14-.017-.755.487-1.162,1.466-1.165,1.718,0,3.434,0,5.152,0" transform="translate(198.213 7699.663)" fill="#fff"/>
    </g>
  </g>
</svg>
