<svg xmlns="http://www.w3.org/2000/svg" width="1240.131" height="117.662" viewBox="0 0 1240.131 117.662">
  <g id="Grupo_1075441" data-name="Grupo 1075441" transform="translate(-180 -5851.839)">
    <rect id="Rectángulo_375874" data-name="Rectángulo 375874" width="1239.455" height="114.646" transform="translate(180.545 5854.086)" fill="#fff"/>
    <rect id="Rectángulo_375866" data-name="Rectángulo 375866" width="1239.631" height="5.077" transform="translate(180 5851.839)" fill="#1b3f5e"/>
    <rect id="Rectángulo_375867" data-name="Rectángulo 375867" width="1239.631" height="74.429" transform="translate(180 5856.915)" fill="#e0e5ec"/>
    <path id="Trazado_825400" data-name="Trazado 825400" d="M8.4,0H.945V-1.039L4.883-5.414A9.354,9.354,0,0,0,6.09-7.027a2.693,2.693,0,0,0,.332-1.285,2.041,2.041,0,0,0-.539-1.461,1.885,1.885,0,0,0-1.437-.57A2.232,2.232,0,0,0,2.77-9.73a2.343,2.343,0,0,0-.6,1.707H.727a3.355,3.355,0,0,1,1.012-2.539,3.751,3.751,0,0,1,2.707-.969,3.6,3.6,0,0,1,2.508.832,2.838,2.838,0,0,1,.922,2.215q0,1.68-2.141,4L2.688-1.18H8.4Zm8.664-4.852A6.61,6.61,0,0,1,16.2-1.078,3.084,3.084,0,0,1,13.484.156a3.107,3.107,0,0,1-2.7-1.207,6.274,6.274,0,0,1-.906-3.605v-1.93a6.463,6.463,0,0,1,.867-3.727,3.108,3.108,0,0,1,2.719-1.219,3.136,3.136,0,0,1,2.7,1.176,6.237,6.237,0,0,1,.891,3.629ZM15.617-6.828A5.3,5.3,0,0,0,15.1-9.5a1.775,1.775,0,0,0-1.633-.84,1.751,1.751,0,0,0-1.617.836,5.171,5.171,0,0,0-.523,2.57v2.313A5.381,5.381,0,0,0,11.863-1.9a1.771,1.771,0,0,0,1.621.879,1.747,1.747,0,0,0,1.59-.828,5.186,5.186,0,0,0,.543-2.609Zm3.477,6.07a.905.905,0,0,1,.223-.625.848.848,0,0,1,.668-.25.874.874,0,0,1,.676.25.887.887,0,0,1,.23.625.839.839,0,0,1-.23.6.89.89,0,0,1-.676.242.863.863,0,0,1-.668-.242A.855.855,0,0,1,19.094-.758ZM30.258-4.852a6.61,6.61,0,0,1-.867,3.773A3.084,3.084,0,0,1,26.68.156a3.107,3.107,0,0,1-2.7-1.207,6.274,6.274,0,0,1-.906-3.605v-1.93a6.463,6.463,0,0,1,.867-3.727,3.108,3.108,0,0,1,2.719-1.219,3.136,3.136,0,0,1,2.7,1.176,6.237,6.237,0,0,1,.891,3.629ZM28.813-6.828A5.3,5.3,0,0,0,28.3-9.5a1.775,1.775,0,0,0-1.633-.84,1.751,1.751,0,0,0-1.617.836,5.171,5.171,0,0,0-.523,2.57v2.313A5.381,5.381,0,0,0,25.059-1.9a1.771,1.771,0,0,0,1.621.879,1.747,1.747,0,0,0,1.59-.828,5.186,5.186,0,0,0,.543-2.609Zm10.43,1.977a6.61,6.61,0,0,1-.867,3.773A3.084,3.084,0,0,1,35.664.156a3.107,3.107,0,0,1-2.7-1.207,6.274,6.274,0,0,1-.906-3.605v-1.93a6.463,6.463,0,0,1,.867-3.727,3.108,3.108,0,0,1,2.719-1.219,3.136,3.136,0,0,1,2.7,1.176,6.237,6.237,0,0,1,.891,3.629ZM37.8-6.828A5.3,5.3,0,0,0,37.281-9.5a1.775,1.775,0,0,0-1.633-.84,1.751,1.751,0,0,0-1.617.836,5.171,5.171,0,0,0-.523,2.57v2.313A5.381,5.381,0,0,0,34.043-1.9a1.771,1.771,0,0,0,1.621.879,1.747,1.747,0,0,0,1.59-.828A5.186,5.186,0,0,0,37.8-4.461Zm10.43,1.977a6.61,6.61,0,0,1-.867,3.773A3.084,3.084,0,0,1,44.648.156a3.107,3.107,0,0,1-2.7-1.207,6.274,6.274,0,0,1-.906-3.605v-1.93a6.463,6.463,0,0,1,.867-3.727,3.108,3.108,0,0,1,2.719-1.219,3.136,3.136,0,0,1,2.7,1.176,6.237,6.237,0,0,1,.891,3.629ZM46.781-6.828A5.3,5.3,0,0,0,46.266-9.5a1.775,1.775,0,0,0-1.633-.84,1.751,1.751,0,0,0-1.617.836,5.171,5.171,0,0,0-.523,2.57v2.313A5.381,5.381,0,0,0,43.027-1.9a1.771,1.771,0,0,0,1.621.879,1.747,1.747,0,0,0,1.59-.828,5.186,5.186,0,0,0,.543-2.609Z" transform="translate(960.483 5955.157)" fill="#12263f"/>
    <path id="Trazado_825406" data-name="Trazado 825406" d="M5.031-7.016l2.727-4.359H9.523L5.93-5.734,9.609,0H7.828l-2.8-4.437L2.219,0H.445L4.133-5.734l-3.6-5.641H2.289Z" transform="translate(694.033 5951.06)" fill="#12263f"/>
    <path id="Trazado_825399" data-name="Trazado 825399" d="M5.031-7.016l2.727-4.359H9.523L5.93-5.734,9.609,0H7.828l-2.8-4.437L2.219,0H.445L4.133-5.734l-3.6-5.641H2.289Z" transform="translate(1111.24 5951.06)" fill="#12263f"/>
    <path id="Trazado_825397" data-name="Trazado 825397" d="M5.031-7.016l2.727-4.359H9.523L5.93-5.734,9.609,0H7.828l-2.8-4.437L2.219,0H.445L4.133-5.734l-3.6-5.641H2.289Z" transform="translate(1274.51 5951.06)" fill="#12263f"/>
    <path id="Trazado_825409" data-name="Trazado 825409" d="M6.617-11.383v1.227H6.352a3.805,3.805,0,0,0-2.687,1A4.161,4.161,0,0,0,2.508-6.43,3.085,3.085,0,0,1,4.961-7.461,2.95,2.95,0,0,1,7.332-6.414a4.038,4.038,0,0,1,.887,2.7A4.025,4.025,0,0,1,7.262-.9,3.3,3.3,0,0,1,4.7.156,3.247,3.247,0,0,1,2.047-1.1a4.97,4.97,0,0,1-1.016-3.23v-.555a7.488,7.488,0,0,1,1.34-4.8,4.921,4.921,0,0,1,3.988-1.7Zm-1.9,5.125a2.306,2.306,0,0,0-1.367.445A2.32,2.32,0,0,0,2.484-4.7v.531A3.731,3.731,0,0,0,3.117-1.9,1.9,1.9,0,0,0,4.7-1.039,1.838,1.838,0,0,0,6.23-1.758a2.982,2.982,0,0,0,.559-1.883,2.983,2.983,0,0,0-.566-1.895A1.816,1.816,0,0,0,4.719-6.258ZM16.031-3.82h1.578v1.18H16.031V0H14.578V-2.641H9.4v-.852l5.094-7.883h1.539Zm-4.992,0h3.539V-9.4l-.172.313Z" transform="translate(447.873 5955.157)" fill="#12263f"/>
    <path id="Trazado_825412" data-name="Trazado 825412" d="M9.688-3.609A4.185,4.185,0,0,1,8.355-.824a4.365,4.365,0,0,1-2.98.98,4.008,4.008,0,0,1-3.23-1.445A5.815,5.815,0,0,1,.93-5.156V-6.25A6.481,6.481,0,0,1,1.5-9.039,4.231,4.231,0,0,1,3.1-10.887a4.47,4.47,0,0,1,2.406-.645A4.11,4.11,0,0,1,8.414-10.52a4.235,4.235,0,0,1,1.273,2.8H8.18a3.268,3.268,0,0,0-.848-1.975A2.565,2.565,0,0,0,5.508-10.3,2.684,2.684,0,0,0,3.254-9.241a4.882,4.882,0,0,0-.816,3.026v1.1a5.018,5.018,0,0,0,.773,2.948A2.5,2.5,0,0,0,5.375-1.07a2.887,2.887,0,0,0,1.918-.566A3.143,3.143,0,0,0,8.18-3.609Zm1.438-.7a4.993,4.993,0,0,1,.488-2.234A3.643,3.643,0,0,1,12.973-8.07a3.7,3.7,0,0,1,1.988-.539,3.565,3.565,0,0,1,2.793,1.2,4.6,4.6,0,0,1,1.066,3.18v.1a5.036,5.036,0,0,1-.473,2.215A3.589,3.589,0,0,1,17-.391a3.743,3.743,0,0,1-2.02.547,3.556,3.556,0,0,1-2.785-1.2A4.575,4.575,0,0,1,11.125-4.2Zm1.453.172a3.616,3.616,0,0,0,.652,2.258,2.088,2.088,0,0,0,1.746.852,2.075,2.075,0,0,0,1.75-.863A3.955,3.955,0,0,0,17.375-4.3a3.61,3.61,0,0,0-.66-2.254,2.1,2.1,0,0,0-1.754-.863,2.075,2.075,0,0,0-1.727.852A3.925,3.925,0,0,0,12.578-4.133ZM24.719-7.156a4.331,4.331,0,0,0-.711-.055A1.9,1.9,0,0,0,22.078-6V0H20.633V-8.453h1.406l.023.977a2.251,2.251,0,0,1,2.016-1.133,1.477,1.477,0,0,1,.641.109Zm5.414,0a4.331,4.331,0,0,0-.711-.055A1.9,1.9,0,0,0,27.492-6V0H26.047V-8.453h1.406l.023.977a2.251,2.251,0,0,1,2.016-1.133,1.477,1.477,0,0,1,.641.109ZM36.367,0a3.036,3.036,0,0,1-.2-.891A3.225,3.225,0,0,1,33.758.156a2.984,2.984,0,0,1-2.051-.707,2.287,2.287,0,0,1-.8-1.793,2.39,2.39,0,0,1,1-2.051,4.733,4.733,0,0,1,2.824-.73h1.406v-.664A1.623,1.623,0,0,0,35.688-7a1.821,1.821,0,0,0-1.336-.449,2.107,2.107,0,0,0-1.3.391,1.151,1.151,0,0,0-.523.945H31.078a2,2,0,0,1,.449-1.223,3.066,3.066,0,0,1,1.219-.934,4.1,4.1,0,0,1,1.691-.344,3.342,3.342,0,0,1,2.289.73,2.635,2.635,0,0,1,.859,2.012v3.891a4.757,4.757,0,0,0,.3,1.852V0Zm-2.4-1.1a2.54,2.54,0,0,0,1.289-.352,2.127,2.127,0,0,0,.883-.914V-4.1H35.008q-2.656,0-2.656,1.555A1.316,1.316,0,0,0,32.8-1.484,1.742,1.742,0,0,0,33.969-1.1ZM41.422,0H39.977V-12h1.445Z" transform="translate(191.096 5955.157)" fill="#12263f"/>
    <path id="Trazado_825407" data-name="Trazado 825407" d="M10.07-5.32A7.037,7.037,0,0,1,9.508-2.4,4.261,4.261,0,0,1,7.914-.5,4.385,4.385,0,0,1,5.508.156,4.347,4.347,0,0,1,3.125-.5,4.363,4.363,0,0,1,1.512-2.387a6.752,6.752,0,0,1-.59-2.832v-.82a6.953,6.953,0,0,1,.57-2.9,4.347,4.347,0,0,1,1.613-1.926,4.329,4.329,0,0,1,2.387-.668,4.41,4.41,0,0,1,2.41.66A4.253,4.253,0,0,1,9.508-8.957a7.071,7.071,0,0,1,.563,2.918ZM8.578-6.055A5.1,5.1,0,0,0,7.766-9.16a2.68,2.68,0,0,0-2.273-1.082A2.651,2.651,0,0,0,3.254-9.16a5,5,0,0,0-.84,3v.836a5.107,5.107,0,0,0,.824,3.082,2.662,2.662,0,0,0,2.27,1.121,2.652,2.652,0,0,0,2.25-1.059,5.079,5.079,0,0,0,.82-3.035Zm7.6-1.1a4.331,4.331,0,0,0-.711-.055A1.9,1.9,0,0,0,13.539-6V0H12.094V-8.453H13.5l.023.977a2.251,2.251,0,0,1,2.016-1.133,1.477,1.477,0,0,1,.641.109ZM17.008-4.3a4.952,4.952,0,0,1,.922-3.129,2.915,2.915,0,0,1,2.414-1.184A2.932,2.932,0,0,1,22.7-7.594V-12h1.445V0H22.813l-.07-.906A2.943,2.943,0,0,1,20.328.156a2.887,2.887,0,0,1-2.395-1.2,5.008,5.008,0,0,1-.926-3.141Zm1.445.164a3.749,3.749,0,0,0,.594,2.25,1.92,1.92,0,0,0,1.641.813A2.108,2.108,0,0,0,22.7-2.3V-6.187a2.125,2.125,0,0,0-1.992-1.2,1.929,1.929,0,0,0-1.656.82A4.128,4.128,0,0,0,18.453-4.133ZM29.891.156a3.693,3.693,0,0,1-2.8-1.129,4.19,4.19,0,0,1-1.078-3.02v-.266A5.073,5.073,0,0,1,26.5-6.5,3.748,3.748,0,0,1,27.84-8.051a3.378,3.378,0,0,1,1.871-.559,3.166,3.166,0,0,1,2.563,1.086,4.7,4.7,0,0,1,.914,3.109v.6H27.461a3,3,0,0,0,.73,2.02,2.3,2.3,0,0,0,1.777.77,2.517,2.517,0,0,0,1.3-.312,3.259,3.259,0,0,0,.93-.828l.883.688A3.55,3.55,0,0,1,29.891.156Zm-.18-7.578a1.928,1.928,0,0,0-1.469.637A3.1,3.1,0,0,0,27.508-5h4.234v-.109a2.753,2.753,0,0,0-.594-1.707A1.815,1.815,0,0,0,29.711-7.422Zm6.516-1.031.047,1.063A3.08,3.08,0,0,1,38.8-8.609q2.68,0,2.7,3.023V0H40.063V-5.594a1.946,1.946,0,0,0-.418-1.352,1.675,1.675,0,0,0-1.277-.437,2.086,2.086,0,0,0-1.234.375,2.546,2.546,0,0,0-.828.984V0H34.859V-8.453Zm4.781-3.3a1.942,1.942,0,0,1-.48,1.367,1.561,1.561,0,0,1-1.2.523,1.76,1.76,0,0,1-.555-.078,2.993,2.993,0,0,1-.613-.32,2.656,2.656,0,0,0-.547-.293,1.338,1.338,0,0,0-.387-.051.717.717,0,0,0-.547.246.892.892,0,0,0-.227.629l-.969-.055a2.039,2.039,0,0,1,.473-1.383,1.516,1.516,0,0,1,1.2-.547,1.457,1.457,0,0,1,.492.078,3.587,3.587,0,0,1,.594.3,3.494,3.494,0,0,0,.574.3,1.319,1.319,0,0,0,.441.07.7.7,0,0,0,.559-.266.932.932,0,0,0,.223-.617ZM43.3-4.3a4.993,4.993,0,0,1,.488-2.234A3.643,3.643,0,0,1,45.152-8.07a3.7,3.7,0,0,1,1.988-.539,3.565,3.565,0,0,1,2.793,1.2A4.6,4.6,0,0,1,51-4.234v.1a5.036,5.036,0,0,1-.473,2.215A3.589,3.589,0,0,1,49.176-.391a3.743,3.743,0,0,1-2.02.547,3.556,3.556,0,0,1-2.785-1.2A4.575,4.575,0,0,1,43.3-4.2Zm1.453.172a3.616,3.616,0,0,0,.652,2.258,2.088,2.088,0,0,0,1.746.852,2.075,2.075,0,0,0,1.75-.863A3.955,3.955,0,0,0,49.555-4.3a3.61,3.61,0,0,0-.66-2.254,2.1,2.1,0,0,0-1.754-.863,2.075,2.075,0,0,0-1.727.852A3.925,3.925,0,0,0,44.758-4.133Z" transform="translate(567.102 5954.334)" fill="#12263f"/>
    <path id="Trazado_825411" data-name="Trazado 825411" d="M-66.256-10.415H-70.1V0h-3.085V-10.415h-3.771V-12.8h10.7ZM-61.967,0h-2.971V-9.51h2.971Zm-3.146-11.962A1.322,1.322,0,0,1-64.657-13a1.724,1.724,0,0,1,1.187-.4,1.724,1.724,0,0,1,1.187.4,1.322,1.322,0,0,1,.457,1.037,1.322,1.322,0,0,1-.457,1.037,1.724,1.724,0,0,1-1.187.4,1.724,1.724,0,0,1-1.187-.4A1.322,1.322,0,0,1-65.114-11.962Zm13.8,7.277a5.735,5.735,0,0,1-1,3.538A3.2,3.2,0,0,1-55.006.176,2.742,2.742,0,0,1-57.16-.782V3.656h-2.962V-9.51h2.769l.088.879a2.742,2.742,0,0,1,2.241-1.055,3.224,3.224,0,0,1,2.733,1.3,5.805,5.805,0,0,1,.976,3.564Zm-2.962-.185q0-2.531-1.477-2.531a1.394,1.394,0,0,0-1.406.756V-2.9a1.439,1.439,0,0,0,1.424.791q1.415,0,1.459-2.443Zm3.894.026a5.613,5.613,0,0,1,.554-2.536,3.96,3.96,0,0,1,1.591-1.709,4.791,4.791,0,0,1,2.435-.6,4.373,4.373,0,0,1,3.366,1.323,5.076,5.076,0,0,1,1.23,3.6v.105a4.925,4.925,0,0,1-1.235,3.529A4.384,4.384,0,0,1-45.787.176a4.434,4.434,0,0,1-3.261-1.217,4.761,4.761,0,0,1-1.327-3.3Zm2.962.185a3.538,3.538,0,0,0,.413,1.934,1.376,1.376,0,0,0,1.222.615q1.582,0,1.617-2.435v-.3q0-2.558-1.635-2.558-1.485,0-1.608,2.206Zm11.628-.167a5.809,5.809,0,0,1,.976-3.56,3.211,3.211,0,0,1,2.725-1.3,2.731,2.731,0,0,1,2.145,1V-13.5h2.971V0h-2.663l-.149-1.02a2.8,2.8,0,0,1-2.32,1.2,3.205,3.205,0,0,1-2.689-1.3A5.993,5.993,0,0,1-35.793-4.825Zm2.962.185q0,2.531,1.477,2.531a1.458,1.458,0,0,0,1.406-.826V-6.557A1.419,1.419,0,0,0-31.337-7.4q-1.371,0-1.485,2.215ZM-20.694.176a4.889,4.889,0,0,1-3.542-1.305,4.507,4.507,0,0,1-1.354-3.4v-.246a5.84,5.84,0,0,1,.541-2.575,3.955,3.955,0,0,1,1.578-1.727,4.763,4.763,0,0,1,2.461-.611,4.117,4.117,0,0,1,3.164,1.244,4.887,4.887,0,0,1,1.16,3.467v1.151h-5.889a2.135,2.135,0,0,0,.694,1.257,2.066,2.066,0,0,0,1.389.457,2.662,2.662,0,0,0,2.2-.984l1.354,1.6A3.784,3.784,0,0,1-18.51-.277,5.3,5.3,0,0,1-20.694.176ZM-21.028-7.4q-1.3,0-1.547,1.723h2.988v-.229a1.467,1.467,0,0,0-.36-1.1A1.434,1.434,0,0,0-21.028-7.4ZM-7.888,0h-2.971V-9.51h2.971Zm-3.146-11.962A1.322,1.322,0,0,1-10.578-13a1.724,1.724,0,0,1,1.187-.4A1.724,1.724,0,0,1-8.2-13a1.322,1.322,0,0,1,.457,1.037A1.322,1.322,0,0,1-8.2-10.925a1.724,1.724,0,0,1-1.187.4,1.724,1.724,0,0,1-1.187-.4A1.322,1.322,0,0,1-11.035-11.962Zm7.69,2.452.1,1.116A3.225,3.225,0,0,1-.532-9.686,2.713,2.713,0,0,1,1.688-8.8a4.226,4.226,0,0,1,.76,2.672V0H-.523V-6a1.6,1.6,0,0,0-.29-1.059A1.342,1.342,0,0,0-1.868-7.4a1.413,1.413,0,0,0-1.292.686V0H-6.122V-9.51ZM9.066-2.672a.684.684,0,0,0-.4-.606,6.016,6.016,0,0,0-1.5-.475A6.853,6.853,0,0,1,5.339-4.4a3.062,3.062,0,0,1-1.1-.971,2.319,2.319,0,0,1-.378-1.31A2.628,2.628,0,0,1,4.944-8.837a4.453,4.453,0,0,1,2.83-.848,4.934,4.934,0,0,1,3.023.853A2.666,2.666,0,0,1,11.94-6.592H8.969q0-1.143-1.2-1.143a1.194,1.194,0,0,0-.782.259.8.8,0,0,0-.316.646.737.737,0,0,0,.387.642,3.654,3.654,0,0,0,1.235.4,10.671,10.671,0,0,1,1.49.378A2.706,2.706,0,0,1,11.922-2.76,2.491,2.491,0,0,1,10.767-.642,5.068,5.068,0,0,1,7.774.176a5.172,5.172,0,0,1-2.18-.439A3.645,3.645,0,0,1,4.1-1.459,2.707,2.707,0,0,1,3.564-3.05H6.333a1.145,1.145,0,0,0,.439.962,1.808,1.808,0,0,0,1.081.3,1.422,1.422,0,0,0,.91-.246A.787.787,0,0,0,9.066-2.672Zm7.69-9.2V-9.51h1.564v2.057H16.756V-3.1a1.111,1.111,0,0,0,.193.747,1.037,1.037,0,0,0,.765.211,4.345,4.345,0,0,0,.738-.053V-.079a5.466,5.466,0,0,1-1.67.255,3.1,3.1,0,0,1-2.259-.721,2.954,2.954,0,0,1-.729-2.188v-4.72H12.582V-9.51h1.213v-2.364ZM24.842,0a3.344,3.344,0,0,1-.281-.853A2.754,2.754,0,0,1,22.276.176a3.374,3.374,0,0,1-2.285-.813,2.588,2.588,0,0,1-.94-2.043,2.66,2.66,0,0,1,1.143-2.338,5.821,5.821,0,0,1,3.322-.791h.914v-.5q0-1.316-1.134-1.316a.927.927,0,0,0-1.055,1.042H19.279a2.655,2.655,0,0,1,1.173-2.239,4.931,4.931,0,0,1,2.993-.86,4.323,4.323,0,0,1,2.874.888A3.086,3.086,0,0,1,27.4-6.363v4.21a4.311,4.311,0,0,0,.4,2V0ZM22.988-1.934a1.652,1.652,0,0,0,.918-.237,1.487,1.487,0,0,0,.523-.536V-4.228h-.861q-1.547,0-1.547,1.389a.848.848,0,0,0,.272.655A.986.986,0,0,0,22.988-1.934ZM32.164,0H29.193V-13.5h2.971Zm7.181,0a3.344,3.344,0,0,1-.281-.853A2.754,2.754,0,0,1,36.778.176a3.374,3.374,0,0,1-2.285-.813,2.588,2.588,0,0,1-.94-2.043,2.66,2.66,0,0,1,1.143-2.338,5.821,5.821,0,0,1,3.322-.791h.914v-.5q0-1.316-1.134-1.316a.927.927,0,0,0-1.055,1.042H33.781a2.655,2.655,0,0,1,1.173-2.239,4.931,4.931,0,0,1,2.993-.86,4.323,4.323,0,0,1,2.874.888A3.086,3.086,0,0,1,41.9-6.363v4.21a4.311,4.311,0,0,0,.4,2V0ZM37.49-1.934a1.652,1.652,0,0,0,.918-.237,1.487,1.487,0,0,0,.523-.536V-4.228H38.07q-1.547,0-1.547,1.389a.848.848,0,0,0,.272.655A.986.986,0,0,0,37.49-1.934Zm10.072-.176a1.317,1.317,0,0,0,.967-.338,1.241,1.241,0,0,0,.334-.945H51.64A3.288,3.288,0,0,1,50.52-.826a4.168,4.168,0,0,1-2.887,1,4.22,4.22,0,0,1-3.27-1.3,5.125,5.125,0,0,1-1.2-3.6v-.123A5.792,5.792,0,0,1,43.7-7.4a3.872,3.872,0,0,1,1.534-1.7,4.573,4.573,0,0,1,2.373-.593A4.116,4.116,0,0,1,50.55-8.657a3.647,3.647,0,0,1,1.09,2.786H48.863A1.626,1.626,0,0,0,48.5-7a1.244,1.244,0,0,0-.967-.4q-1.151,0-1.345,1.468a10.357,10.357,0,0,0-.062,1.283,4.068,4.068,0,0,0,.343,1.986A1.187,1.187,0,0,0,47.562-2.109ZM56.017,0H53.046V-9.51h2.971ZM52.871-11.962A1.322,1.322,0,0,1,53.328-13a1.724,1.724,0,0,1,1.187-.4A1.724,1.724,0,0,1,55.7-13a1.322,1.322,0,0,1,.457,1.037,1.322,1.322,0,0,1-.457,1.037,1.724,1.724,0,0,1-1.187.4,1.724,1.724,0,0,1-1.187-.4A1.322,1.322,0,0,1,52.871-11.962Zm4.6,7.119a5.613,5.613,0,0,1,.554-2.536,3.96,3.96,0,0,1,1.591-1.709,4.791,4.791,0,0,1,2.435-.6,4.373,4.373,0,0,1,3.366,1.323,5.076,5.076,0,0,1,1.23,3.6v.105a4.925,4.925,0,0,1-1.235,3.529A4.384,4.384,0,0,1,62.064.176,4.434,4.434,0,0,1,58.8-1.042a4.761,4.761,0,0,1-1.327-3.3Zm2.962.185a3.538,3.538,0,0,0,.413,1.934,1.376,1.376,0,0,0,1.222.615q1.582,0,1.617-2.435v-.3q0-2.558-1.635-2.558-1.485,0-1.608,2.206ZM62.451-13.5H65.58l-2.443,2.76-2.417,0Zm8.218,3.99.1,1.116a3.225,3.225,0,0,1,2.716-1.292A2.713,2.713,0,0,1,75.7-8.8a4.226,4.226,0,0,1,.76,2.672V0H73.49V-6a1.6,1.6,0,0,0-.29-1.059A1.342,1.342,0,0,0,72.145-7.4a1.413,1.413,0,0,0-1.292.686V0H67.891V-9.51Z" transform="translate(266.99 5898.621)" fill="#12263f"/>
    <path id="Trazado_825392" data-name="Trazado 825392" d="M-12.924-2.391h-4.228L-17.89,0h-3.3l4.693-12.8h2.9L-8.864,0h-3.313Zm-3.489-2.382h2.751l-1.38-4.438Zm8-.053a6.421,6.421,0,0,1,.475-2.549A3.821,3.821,0,0,1-6.579-9.083a3.591,3.591,0,0,1,2.065-.6,2.855,2.855,0,0,1,2.32,1l.105-.826H.6V-.36A4.009,4.009,0,0,1,.018,1.824,3.75,3.75,0,0,1-1.674,3.248a6.219,6.219,0,0,1-2.566.5,5.365,5.365,0,0,1-2.026-.4,3.657,3.657,0,0,1-1.5-1.028L-6.526.58a2.716,2.716,0,0,0,2.18.976A1.764,1.764,0,0,0-2.377-.466v-.3a2.781,2.781,0,0,1-2.153.94A3.437,3.437,0,0,1-7.343-1.156,5.517,5.517,0,0,1-8.416-4.72Zm2.971.185a3.383,3.383,0,0,0,.439,1.85,1.386,1.386,0,0,0,1.23.681,1.573,1.573,0,0,0,1.4-.642v-4a1.534,1.534,0,0,0-1.38-.65A1.4,1.4,0,0,0-5-6.693,3.858,3.858,0,0,0-5.445-4.641ZM7.95-1.028A3.054,3.054,0,0,1,5.41.176a3,3,0,0,1-2.369-.91,3.826,3.826,0,0,1-.8-2.615V-9.51H5.2v6.179A1.065,1.065,0,0,0,6.385-2.109a1.548,1.548,0,0,0,1.45-.729V-9.51h2.979V0H8.038ZM17.793,0a3.344,3.344,0,0,1-.281-.853A2.754,2.754,0,0,1,15.227.176a3.374,3.374,0,0,1-2.285-.813A2.588,2.588,0,0,1,12-2.681a2.66,2.66,0,0,1,1.143-2.338,5.821,5.821,0,0,1,3.322-.791h.914v-.5q0-1.316-1.134-1.316a.927.927,0,0,0-1.055,1.042H12.23A2.655,2.655,0,0,1,13.4-8.825a4.931,4.931,0,0,1,2.993-.86A4.323,4.323,0,0,1,19.27-8.8a3.086,3.086,0,0,1,1.081,2.435v4.21a4.311,4.311,0,0,0,.4,2V0ZM15.939-1.934a1.652,1.652,0,0,0,.918-.237,1.487,1.487,0,0,0,.523-.536V-4.228h-.861q-1.547,0-1.547,1.389a.848.848,0,0,0,.272.655A.986.986,0,0,0,15.939-1.934Z" transform="translate(1146.597 5886.97)" fill="#12263f"/>
    <path id="Trazado_825398" data-name="Trazado 825398" d="M-.541-3.4A1.268,1.268,0,0,0-1.02-4.456,5.954,5.954,0,0,0-2.7-5.238a16.147,16.147,0,0,1-1.969-.782Q-7.159-7.242-7.159-9.378a3.011,3.011,0,0,1,.62-1.876A4.008,4.008,0,0,1-4.786-12.52a6.823,6.823,0,0,1,2.549-.453,5.969,5.969,0,0,1,2.474.492,3.917,3.917,0,0,1,1.7,1.4A3.661,3.661,0,0,1,2.544-9H-.532a1.547,1.547,0,0,0-.479-1.213,1.867,1.867,0,0,0-1.3-.431,2.106,2.106,0,0,0-1.305.365,1.119,1.119,0,0,0-.479.927,1.127,1.127,0,0,0,.527.892,6.65,6.65,0,0,0,1.854.826,11.36,11.36,0,0,1,2.18.918,3.663,3.663,0,0,1,2.074,3.3A3.125,3.125,0,0,1,1.279-.782,5.629,5.629,0,0,1-2.193.176,6.888,6.888,0,0,1-5.01-.382a4.247,4.247,0,0,1-1.9-1.529,3.985,3.985,0,0,1-.637-2.237h3.094A1.963,1.963,0,0,0-3.92-2.632a2.513,2.513,0,0,0,1.727.488,1.985,1.985,0,0,0,1.208-.33A1.088,1.088,0,0,0-.541-3.4ZM7.115,0H4.144V-9.51H7.115ZM3.968-11.962A1.322,1.322,0,0,1,4.425-13a1.724,1.724,0,0,1,1.187-.4A1.724,1.724,0,0,1,6.8-13a1.322,1.322,0,0,1,.457,1.037A1.322,1.322,0,0,1,6.8-10.925a1.724,1.724,0,0,1-1.187.4,1.724,1.724,0,0,1-1.187-.4A1.322,1.322,0,0,1,3.968-11.962Z" transform="translate(1109.064 5918.918)" fill="#12263f"/>
    <path id="Trazado_825393" data-name="Trazado 825393" d="M.281,0H-2.786L-7.321-7.963V0h-3.085V-12.8h3.085l4.526,7.963V-12.8H.281ZM1.723-4.843a5.613,5.613,0,0,1,.554-2.536A3.96,3.96,0,0,1,3.867-9.088a4.791,4.791,0,0,1,2.435-.6A4.373,4.373,0,0,1,9.668-8.363a5.076,5.076,0,0,1,1.23,3.6v.105A4.925,4.925,0,0,1,9.664-1.129,4.384,4.384,0,0,1,6.319.176,4.434,4.434,0,0,1,3.059-1.042a4.761,4.761,0,0,1-1.327-3.3Zm2.962.185A3.538,3.538,0,0,0,5.1-2.725a1.376,1.376,0,0,0,1.222.615q1.582,0,1.617-2.435v-.3Q7.937-7.4,6.3-7.4q-1.485,0-1.608,2.206Z" transform="translate(1186.21 5918.918)" fill="#12263f"/>
    <path id="Trazado_825394" data-name="Trazado 825394" d="M-39.208-5.432H-44.06v3.059h5.73V0h-8.815V-12.8h8.833v2.382H-44.06v2.7h4.852ZM-34.084,0h-2.971V-13.5h2.971Zm6.425.176A4.889,4.889,0,0,1-31.2-1.129a4.507,4.507,0,0,1-1.354-3.4v-.246a5.84,5.84,0,0,1,.541-2.575,3.955,3.955,0,0,1,1.578-1.727,4.763,4.763,0,0,1,2.461-.611,4.117,4.117,0,0,1,3.164,1.244,4.887,4.887,0,0,1,1.16,3.467v1.151H-29.54a2.135,2.135,0,0,0,.694,1.257,2.066,2.066,0,0,0,1.389.457,2.662,2.662,0,0,0,2.2-.984l1.354,1.6A3.784,3.784,0,0,1-25.475-.277,5.3,5.3,0,0,1-27.659.176ZM-27.993-7.4q-1.3,0-1.547,1.723h2.988v-.229a1.467,1.467,0,0,0-.36-1.1A1.434,1.434,0,0,0-27.993-7.4Zm9.554,5.291a1.317,1.317,0,0,0,.967-.338,1.241,1.241,0,0,0,.334-.945h2.777A3.288,3.288,0,0,1-15.482-.826a4.168,4.168,0,0,1-2.887,1,4.22,4.22,0,0,1-3.27-1.3,5.125,5.125,0,0,1-1.2-3.6v-.123A5.792,5.792,0,0,1-22.3-7.4a3.872,3.872,0,0,1,1.534-1.7A4.573,4.573,0,0,1-18.4-9.686a4.116,4.116,0,0,1,2.944,1.028,3.647,3.647,0,0,1,1.09,2.786h-2.777A1.626,1.626,0,0,0-17.5-7a1.244,1.244,0,0,0-.967-.4q-1.151,0-1.345,1.468a10.357,10.357,0,0,0-.062,1.283,4.068,4.068,0,0,0,.343,1.986A1.187,1.187,0,0,0-18.439-2.109Zm8.78-9.765V-9.51h1.564v2.057H-9.659V-3.1a1.111,1.111,0,0,0,.193.747,1.037,1.037,0,0,0,.765.211A4.345,4.345,0,0,0-7.963-2.2V-.079a5.466,5.466,0,0,1-1.67.255,3.1,3.1,0,0,1-2.259-.721,2.954,2.954,0,0,1-.729-2.188v-4.72h-1.213V-9.51h1.213v-2.364Zm8.481,5.045-.976-.07a1.752,1.752,0,0,0-1.793.879V0H-6.908V-9.51h2.777l.1,1.222a2.294,2.294,0,0,1,2.083-1.4,2.888,2.888,0,0,1,.826.105ZM3.015,0H.044V-9.51H3.015ZM-.132-11.962A1.322,1.322,0,0,1,.325-13a1.724,1.724,0,0,1,1.187-.4A1.724,1.724,0,0,1,2.7-13a1.322,1.322,0,0,1,.457,1.037A1.322,1.322,0,0,1,2.7-10.925a1.724,1.724,0,0,1-1.187.4,1.724,1.724,0,0,1-1.187-.4A1.322,1.322,0,0,1-.132-11.962ZM8.859-2.109a1.317,1.317,0,0,0,.967-.338,1.241,1.241,0,0,0,.334-.945h2.777A3.288,3.288,0,0,1,11.817-.826a4.168,4.168,0,0,1-2.887,1,4.22,4.22,0,0,1-3.27-1.3,5.125,5.125,0,0,1-1.2-3.6v-.123A5.792,5.792,0,0,1,5-7.4a3.872,3.872,0,0,1,1.534-1.7A4.573,4.573,0,0,1,8.9-9.686a4.116,4.116,0,0,1,2.944,1.028,3.647,3.647,0,0,1,1.09,2.786H10.16A1.626,1.626,0,0,0,9.8-7a1.244,1.244,0,0,0-.967-.4q-1.151,0-1.345,1.468a10.357,10.357,0,0,0-.062,1.283A4.068,4.068,0,0,0,7.77-2.663,1.187,1.187,0,0,0,8.859-2.109ZM17.314,0H14.344V-9.51h2.971ZM14.168-11.962A1.322,1.322,0,0,1,14.625-13a1.724,1.724,0,0,1,1.187-.4A1.724,1.724,0,0,1,17-13a1.322,1.322,0,0,1,.457,1.037A1.322,1.322,0,0,1,17-10.925a1.724,1.724,0,0,1-1.187.4,1.724,1.724,0,0,1-1.187-.4A1.322,1.322,0,0,1,14.168-11.962Zm4.6,7.137a5.809,5.809,0,0,1,.976-3.56,3.211,3.211,0,0,1,2.725-1.3,2.731,2.731,0,0,1,2.145,1V-13.5H27.58V0H24.917l-.149-1.02a2.8,2.8,0,0,1-2.32,1.2,3.205,3.205,0,0,1-2.689-1.3A5.993,5.993,0,0,1,18.765-4.825Zm2.962.185q0,2.531,1.477,2.531a1.458,1.458,0,0,0,1.406-.826V-6.557A1.419,1.419,0,0,0,23.221-7.4q-1.371,0-1.485,2.215ZM34.62,0a3.344,3.344,0,0,1-.281-.853A2.754,2.754,0,0,1,32.054.176a3.374,3.374,0,0,1-2.285-.813,2.588,2.588,0,0,1-.94-2.043,2.66,2.66,0,0,1,1.143-2.338,5.821,5.821,0,0,1,3.322-.791h.914v-.5q0-1.316-1.134-1.316a.927.927,0,0,0-1.055,1.042H29.057A2.655,2.655,0,0,1,30.23-8.825a4.931,4.931,0,0,1,2.993-.86A4.323,4.323,0,0,1,36.1-8.8a3.086,3.086,0,0,1,1.081,2.435v4.21a4.311,4.311,0,0,0,.4,2V0ZM32.766-1.934a1.652,1.652,0,0,0,.918-.237,1.487,1.487,0,0,0,.523-.536V-4.228h-.861q-1.547,0-1.547,1.389a.848.848,0,0,0,.272.655A.986.986,0,0,0,32.766-1.934Zm5.678-2.892a5.809,5.809,0,0,1,.976-3.56,3.211,3.211,0,0,1,2.725-1.3,2.731,2.731,0,0,1,2.145,1V-13.5h2.971V0H44.6l-.149-1.02a2.8,2.8,0,0,1-2.32,1.2,3.205,3.205,0,0,1-2.689-1.3A5.993,5.993,0,0,1,38.443-4.825Zm2.962.185q0,2.531,1.477,2.531a1.458,1.458,0,0,0,1.406-.826V-6.557A1.419,1.419,0,0,0,42.9-7.4q-1.371,0-1.485,2.215Z" transform="translate(1311.929 5886.97)" fill="#12263f"/>
    <path id="Trazado_825395" data-name="Trazado 825395" d="M-.541-3.4A1.268,1.268,0,0,0-1.02-4.456,5.954,5.954,0,0,0-2.7-5.238a16.147,16.147,0,0,1-1.969-.782Q-7.159-7.242-7.159-9.378a3.011,3.011,0,0,1,.62-1.876A4.008,4.008,0,0,1-4.786-12.52a6.823,6.823,0,0,1,2.549-.453,5.969,5.969,0,0,1,2.474.492,3.917,3.917,0,0,1,1.7,1.4A3.661,3.661,0,0,1,2.544-9H-.532a1.547,1.547,0,0,0-.479-1.213,1.867,1.867,0,0,0-1.3-.431,2.106,2.106,0,0,0-1.305.365,1.119,1.119,0,0,0-.479.927,1.127,1.127,0,0,0,.527.892,6.65,6.65,0,0,0,1.854.826,11.36,11.36,0,0,1,2.18.918,3.663,3.663,0,0,1,2.074,3.3A3.125,3.125,0,0,1,1.279-.782,5.629,5.629,0,0,1-2.193.176,6.888,6.888,0,0,1-5.01-.382a4.247,4.247,0,0,1-1.9-1.529,3.985,3.985,0,0,1-.637-2.237h3.094A1.963,1.963,0,0,0-3.92-2.632a2.513,2.513,0,0,0,1.727.488,1.985,1.985,0,0,0,1.208-.33A1.088,1.088,0,0,0-.541-3.4ZM7.115,0H4.144V-9.51H7.115ZM3.968-11.962A1.322,1.322,0,0,1,4.425-13a1.724,1.724,0,0,1,1.187-.4A1.724,1.724,0,0,1,6.8-13a1.322,1.322,0,0,1,.457,1.037A1.322,1.322,0,0,1,6.8-10.925a1.724,1.724,0,0,1-1.187.4,1.724,1.724,0,0,1-1.187-.4A1.322,1.322,0,0,1,3.968-11.962Z" transform="translate(1277.276 5918.918)" fill="#12263f"/>
    <path id="Trazado_825396" data-name="Trazado 825396" d="M.281,0H-2.786L-7.321-7.963V0h-3.085V-12.8h3.085l4.526,7.963V-12.8H.281ZM1.723-4.843a5.613,5.613,0,0,1,.554-2.536A3.96,3.96,0,0,1,3.867-9.088a4.791,4.791,0,0,1,2.435-.6A4.373,4.373,0,0,1,9.668-8.363a5.076,5.076,0,0,1,1.23,3.6v.105A4.925,4.925,0,0,1,9.664-1.129,4.384,4.384,0,0,1,6.319.176,4.434,4.434,0,0,1,3.059-1.042a4.761,4.761,0,0,1-1.327-3.3Zm2.962.185A3.538,3.538,0,0,0,5.1-2.725a1.376,1.376,0,0,0,1.222.615q1.582,0,1.617-2.435v-.3Q7.937-7.4,6.3-7.4q-1.485,0-1.608,2.206Z" transform="translate(1354.422 5918.918)" fill="#12263f"/>
    <path id="Trazado_825404" data-name="Trazado 825404" d="M-51.548-5.432H-56.4v3.059h5.73V0h-8.815V-12.8h8.833v2.382H-56.4v2.7h4.852Zm6.979,2.76a.684.684,0,0,0-.4-.606,6.016,6.016,0,0,0-1.5-.475A6.853,6.853,0,0,1-48.3-4.4a3.062,3.062,0,0,1-1.1-.971,2.319,2.319,0,0,1-.378-1.31,2.628,2.628,0,0,1,1.081-2.158,4.453,4.453,0,0,1,2.83-.848,4.934,4.934,0,0,1,3.023.853A2.666,2.666,0,0,1-41.7-6.592h-2.971q0-1.143-1.2-1.143a1.194,1.194,0,0,0-.782.259.8.8,0,0,0-.316.646.737.737,0,0,0,.387.642,3.654,3.654,0,0,0,1.235.4,10.671,10.671,0,0,1,1.49.378A2.706,2.706,0,0,1-41.713-2.76,2.491,2.491,0,0,1-42.869-.642a5.068,5.068,0,0,1-2.993.817,5.172,5.172,0,0,1-2.18-.439,3.645,3.645,0,0,1-1.494-1.2,2.707,2.707,0,0,1-.536-1.591H-47.3a1.145,1.145,0,0,0,.439.962,1.808,1.808,0,0,0,1.081.3,1.422,1.422,0,0,0,.91-.246A.787.787,0,0,0-44.569-2.672Zm7.69-9.2V-9.51h1.564v2.057h-1.564V-3.1a1.111,1.111,0,0,0,.193.747,1.037,1.037,0,0,0,.765.211,4.345,4.345,0,0,0,.738-.053V-.079a5.466,5.466,0,0,1-1.67.255,3.1,3.1,0,0,1-2.259-.721,2.954,2.954,0,0,1-.729-2.188v-4.72h-1.213V-9.51h1.213v-2.364ZM-28.793,0a3.344,3.344,0,0,1-.281-.853A2.754,2.754,0,0,1-31.359.176a3.374,3.374,0,0,1-2.285-.813,2.588,2.588,0,0,1-.94-2.043,2.66,2.66,0,0,1,1.143-2.338A5.821,5.821,0,0,1-30.12-5.81h.914v-.5q0-1.316-1.134-1.316a.927.927,0,0,0-1.055,1.042h-2.962a2.655,2.655,0,0,1,1.173-2.239,4.931,4.931,0,0,1,2.993-.86,4.323,4.323,0,0,1,2.874.888,3.086,3.086,0,0,1,1.081,2.435v4.21a4.311,4.311,0,0,0,.4,2V0Zm-1.854-1.934a1.652,1.652,0,0,0,.918-.237,1.487,1.487,0,0,0,.523-.536V-4.228h-.861q-1.547,0-1.547,1.389a.848.848,0,0,0,.272.655A.986.986,0,0,0-30.647-1.934Zm5.678-2.892a5.809,5.809,0,0,1,.976-3.56,3.211,3.211,0,0,1,2.725-1.3,2.731,2.731,0,0,1,2.145,1V-13.5h2.971V0h-2.663l-.149-1.02a2.8,2.8,0,0,1-2.32,1.2,3.205,3.205,0,0,1-2.689-1.3A5.993,5.993,0,0,1-24.97-4.825Zm2.962.185q0,2.531,1.477,2.531a1.458,1.458,0,0,0,1.406-.826V-6.557A1.419,1.419,0,0,0-20.514-7.4Q-21.885-7.4-22-5.186Zm7.163-.2a5.613,5.613,0,0,1,.554-2.536A3.96,3.96,0,0,1-12.7-9.088a4.791,4.791,0,0,1,2.435-.6A4.373,4.373,0,0,1-6.9-8.363a5.076,5.076,0,0,1,1.23,3.6v.105A4.925,4.925,0,0,1-6.9-1.129,4.384,4.384,0,0,1-10.248.176a4.434,4.434,0,0,1-3.261-1.217,4.761,4.761,0,0,1-1.327-3.3Zm2.962.185a3.538,3.538,0,0,0,.413,1.934,1.376,1.376,0,0,0,1.222.615q1.582,0,1.617-2.435v-.3q0-2.558-1.635-2.558-1.485,0-1.608,2.206ZM-.229-4.825A6.421,6.421,0,0,1,.246-7.374,3.821,3.821,0,0,1,1.608-9.083a3.591,3.591,0,0,1,2.065-.6,2.855,2.855,0,0,1,2.32,1L6.1-9.51H8.789V-.36A4.009,4.009,0,0,1,8.2,1.824,3.75,3.75,0,0,1,6.513,3.248a6.219,6.219,0,0,1-2.566.5,5.365,5.365,0,0,1-2.026-.4A3.657,3.657,0,0,1,.422,2.32L1.661.58a2.716,2.716,0,0,0,2.18.976A1.764,1.764,0,0,0,5.81-.466v-.3a2.781,2.781,0,0,1-2.153.94A3.437,3.437,0,0,1,.844-1.156,5.517,5.517,0,0,1-.229-4.72Zm2.971.185a3.383,3.383,0,0,0,.439,1.85,1.386,1.386,0,0,0,1.23.681,1.573,1.573,0,0,0,1.4-.642v-4A1.534,1.534,0,0,0,4.43-7.4a1.4,1.4,0,0,0-1.239.708A3.858,3.858,0,0,0,2.742-4.641ZM15.073.176a4.889,4.889,0,0,1-3.542-1.305,4.507,4.507,0,0,1-1.354-3.4v-.246a5.84,5.84,0,0,1,.541-2.575A3.955,3.955,0,0,1,12.3-9.075a4.763,4.763,0,0,1,2.461-.611,4.117,4.117,0,0,1,3.164,1.244,4.887,4.887,0,0,1,1.16,3.467v1.151H13.192a2.135,2.135,0,0,0,.694,1.257,2.066,2.066,0,0,0,1.389.457,2.662,2.662,0,0,0,2.2-.984l1.354,1.6A3.784,3.784,0,0,1,17.257-.277,5.3,5.3,0,0,1,15.073.176ZM14.739-7.4q-1.3,0-1.547,1.723h2.988v-.229a1.467,1.467,0,0,0-.36-1.1A1.434,1.434,0,0,0,14.739-7.4ZM22.992-9.51l.1,1.116A3.225,3.225,0,0,1,25.8-9.686a2.713,2.713,0,0,1,2.219.888,4.226,4.226,0,0,1,.76,2.672V0H25.813V-6a1.6,1.6,0,0,0-.29-1.059A1.342,1.342,0,0,0,24.469-7.4a1.413,1.413,0,0,0-1.292.686V0H20.215V-9.51ZM35.024.176a4.889,4.889,0,0,1-3.542-1.305,4.507,4.507,0,0,1-1.354-3.4v-.246a5.84,5.84,0,0,1,.541-2.575,3.955,3.955,0,0,1,1.578-1.727,4.763,4.763,0,0,1,2.461-.611,4.117,4.117,0,0,1,3.164,1.244,4.887,4.887,0,0,1,1.16,3.467v1.151H33.144a2.135,2.135,0,0,0,.694,1.257,2.066,2.066,0,0,0,1.389.457,2.662,2.662,0,0,0,2.2-.984l1.354,1.6A3.784,3.784,0,0,1,37.208-.277,5.3,5.3,0,0,1,35.024.176ZM34.69-7.4q-1.3,0-1.547,1.723h2.988v-.229a1.467,1.467,0,0,0-.36-1.1A1.434,1.434,0,0,0,34.69-7.4Zm11.285.571L45-6.9a1.752,1.752,0,0,0-1.793.879V0H40.245V-9.51h2.777l.1,1.222a2.294,2.294,0,0,1,2.083-1.4,2.888,2.888,0,0,1,.826.105ZM52.137,0a3.344,3.344,0,0,1-.281-.853A2.754,2.754,0,0,1,49.57.176a3.374,3.374,0,0,1-2.285-.813,2.588,2.588,0,0,1-.94-2.043,2.66,2.66,0,0,1,1.143-2.338A5.821,5.821,0,0,1,50.81-5.81h.914v-.5q0-1.316-1.134-1.316a.927.927,0,0,0-1.055,1.042H46.573a2.655,2.655,0,0,1,1.173-2.239,4.931,4.931,0,0,1,2.993-.86,4.323,4.323,0,0,1,2.874.888,3.086,3.086,0,0,1,1.081,2.435v4.21a4.311,4.311,0,0,0,.4,2V0ZM50.282-1.934a1.652,1.652,0,0,0,.918-.237,1.487,1.487,0,0,0,.523-.536V-4.228h-.861q-1.547,0-1.547,1.389a.848.848,0,0,0,.272.655A.986.986,0,0,0,50.282-1.934ZM59.458,0H56.487V-13.5h2.971Z" transform="translate(770.228 5883.97)" fill="#12263f"/>
    <path id="Trazado_825405" data-name="Trazado 825405" d="M-24.943,0V-12.8h4.6a6.509,6.509,0,0,1,3.757.905A3.012,3.012,0,0,1-15.3-9.264a3.045,3.045,0,0,1-.457,1.7A2.663,2.663,0,0,1-17.1-6.53a2.7,2.7,0,0,1,1.538.984,2.862,2.862,0,0,1,.536,1.758A3.388,3.388,0,0,1-16.22-.962,5.667,5.667,0,0,1-19.749,0Zm3.085-5.44v3.067h2.021a1.923,1.923,0,0,0,1.283-.382,1.338,1.338,0,0,0,.448-1.077A1.419,1.419,0,0,0-19.7-5.44Zm0-2.021h1.608a2.285,2.285,0,0,0,1.441-.37A1.314,1.314,0,0,0-18.378-8.9a1.379,1.379,0,0,0-.466-1.168,2.493,2.493,0,0,0-1.5-.357h-1.512ZM-7.8-1.028a3.054,3.054,0,0,1-2.54,1.2,3,3,0,0,1-2.369-.91,3.826,3.826,0,0,1-.8-2.615V-9.51h2.962v6.179A1.065,1.065,0,0,0-9.369-2.109a1.548,1.548,0,0,0,1.45-.729V-9.51h2.979V0H-7.717ZM1.283.176A4.889,4.889,0,0,1-2.259-1.129a4.507,4.507,0,0,1-1.354-3.4v-.246a5.84,5.84,0,0,1,.541-2.575A3.955,3.955,0,0,1-1.494-9.075,4.763,4.763,0,0,1,.967-9.686,4.117,4.117,0,0,1,4.131-8.442a4.887,4.887,0,0,1,1.16,3.467v1.151H-.6A2.135,2.135,0,0,0,.1-2.566a2.066,2.066,0,0,0,1.389.457,2.662,2.662,0,0,0,2.2-.984l1.354,1.6A3.784,3.784,0,0,1,3.467-.277,5.3,5.3,0,0,1,1.283.176ZM.949-7.4Q-.352-7.4-.6-5.678H2.391v-.229a1.467,1.467,0,0,0-.36-1.1A1.434,1.434,0,0,0,.949-7.4ZM9.2-9.51l.1,1.116a3.225,3.225,0,0,1,2.716-1.292,2.713,2.713,0,0,1,2.219.888,4.226,4.226,0,0,1,.76,2.672V0H12.023V-6a1.6,1.6,0,0,0-.29-1.059A1.342,1.342,0,0,0,10.679-7.4a1.413,1.413,0,0,0-1.292.686V0H6.425V-9.51ZM16.26-4.843a5.613,5.613,0,0,1,.554-2.536A3.96,3.96,0,0,1,18.4-9.088a4.791,4.791,0,0,1,2.435-.6,4.373,4.373,0,0,1,3.366,1.323,5.076,5.076,0,0,1,1.23,3.6v.105A4.925,4.925,0,0,1,24.2-1.129,4.384,4.384,0,0,1,20.856.176,4.434,4.434,0,0,1,17.6-1.042a4.761,4.761,0,0,1-1.327-3.3Zm2.962.185a3.538,3.538,0,0,0,.413,1.934,1.376,1.376,0,0,0,1.222.615q1.582,0,1.617-2.435v-.3q0-2.558-1.635-2.558-1.485,0-1.608,2.206Z" transform="translate(687.907 5915.918)" fill="#12263f"/>
    <path id="Trazado_825403" data-name="Trazado 825403" d="M-25.963-4.526h-1.67V0h-3.085V-12.8h5.036a5.621,5.621,0,0,1,3.56,1.01,3.421,3.421,0,0,1,1.283,2.853,4.155,4.155,0,0,1-.541,2.213A3.837,3.837,0,0,1-23.071-5.3L-20.4-.132V0h-3.3ZM-27.633-6.9h1.951a1.751,1.751,0,0,0,1.323-.463,1.788,1.788,0,0,0,.444-1.291,1.809,1.809,0,0,0-.448-1.3,1.735,1.735,0,0,0-1.318-.471h-1.951ZM-14.511.176a4.889,4.889,0,0,1-3.542-1.305,4.507,4.507,0,0,1-1.354-3.4v-.246a5.84,5.84,0,0,1,.541-2.575,3.955,3.955,0,0,1,1.578-1.727,4.763,4.763,0,0,1,2.461-.611,4.117,4.117,0,0,1,3.164,1.244A4.887,4.887,0,0,1-10.5-4.975v1.151h-5.889A2.135,2.135,0,0,0-15.7-2.566a2.066,2.066,0,0,0,1.389.457,2.662,2.662,0,0,0,2.2-.984l1.354,1.6A3.784,3.784,0,0,1-12.327-.277,5.3,5.3,0,0,1-14.511.176ZM-14.845-7.4q-1.3,0-1.547,1.723H-13.4v-.229a1.467,1.467,0,0,0-.36-1.1A1.434,1.434,0,0,0-14.845-7.4Zm5.186,2.575a6.421,6.421,0,0,1,.475-2.549A3.821,3.821,0,0,1-7.822-9.083a3.591,3.591,0,0,1,2.065-.6,2.855,2.855,0,0,1,2.32,1l.105-.826H-.642V-.36a4.009,4.009,0,0,1-.584,2.184A3.75,3.75,0,0,1-2.918,3.248a6.219,6.219,0,0,1-2.566.5,5.365,5.365,0,0,1-2.026-.4,3.657,3.657,0,0,1-1.5-1.028L-7.77.58a2.716,2.716,0,0,0,2.18.976A1.764,1.764,0,0,0-3.621-.466v-.3a2.781,2.781,0,0,1-2.153.94A3.437,3.437,0,0,1-8.587-1.156,5.517,5.517,0,0,1-9.659-4.72Zm2.971.185a3.383,3.383,0,0,0,.439,1.85,1.386,1.386,0,0,0,1.23.681,1.573,1.573,0,0,0,1.4-.642v-4A1.534,1.534,0,0,0-5-7.4a1.4,1.4,0,0,0-1.239.708A3.858,3.858,0,0,0-6.688-4.641ZM6.706-1.028a3.054,3.054,0,0,1-2.54,1.2A3,3,0,0,1,1.8-.734a3.826,3.826,0,0,1-.8-2.615V-9.51H3.955v6.179A1.065,1.065,0,0,0,5.142-2.109a1.548,1.548,0,0,0,1.45-.729V-9.51H9.571V0H6.794ZM14.317,0H11.347V-13.5h2.971ZM21.5,0a3.344,3.344,0,0,1-.281-.853A2.754,2.754,0,0,1,18.932.176a3.374,3.374,0,0,1-2.285-.813,2.588,2.588,0,0,1-.94-2.043,2.66,2.66,0,0,1,1.143-2.338,5.821,5.821,0,0,1,3.322-.791h.914v-.5q0-1.316-1.134-1.316A.927.927,0,0,0,18.9-6.587H15.935a2.655,2.655,0,0,1,1.173-2.239,4.931,4.931,0,0,1,2.993-.86,4.323,4.323,0,0,1,2.874.888,3.086,3.086,0,0,1,1.081,2.435v4.21a4.311,4.311,0,0,0,.4,2V0ZM19.644-1.934a1.652,1.652,0,0,0,.918-.237,1.487,1.487,0,0,0,.523-.536V-4.228h-.861q-1.547,0-1.547,1.389a.848.848,0,0,0,.272.655A.986.986,0,0,0,19.644-1.934Zm11.8-4.9-.976-.07a1.752,1.752,0,0,0-1.793.879V0H25.717V-9.51h2.777l.1,1.222a2.294,2.294,0,0,1,2.083-1.4,2.888,2.888,0,0,1,.826.105Z" transform="translate(777.827 5915.918)" fill="#12263f"/>
    <path id="Trazado_825402" data-name="Trazado 825402" d="M-15.174-12.8l2.856,8.9,2.848-8.9H-5.41V0H-8.5V-2.988l.3-6.117L-11.3,0h-2.039l-3.1-9.114.3,6.126V0h-3.085V-12.8ZM1.771,0A3.344,3.344,0,0,1,1.49-.853,2.754,2.754,0,0,1-.8.176,3.374,3.374,0,0,1-3.081-.637a2.588,2.588,0,0,1-.94-2.043A2.66,2.66,0,0,1-2.878-5.019,5.821,5.821,0,0,1,.444-5.81h.914v-.5q0-1.316-1.134-1.316A.927.927,0,0,0-.831-6.587H-3.792A2.655,2.655,0,0,1-2.619-8.825a4.931,4.931,0,0,1,2.993-.86A4.323,4.323,0,0,1,3.248-8.8,3.086,3.086,0,0,1,4.329-6.363v4.21a4.311,4.311,0,0,0,.4,2V0ZM-.083-1.934a1.652,1.652,0,0,0,.918-.237,1.487,1.487,0,0,0,.523-.536V-4.228H.5q-1.547,0-1.547,1.389a.848.848,0,0,0,.272.655A.986.986,0,0,0-.083-1.934ZM9.092,0H6.122V-13.5H9.092Zm1.45-4.843A5.613,5.613,0,0,1,11.1-7.378a3.96,3.96,0,0,1,1.591-1.709,4.791,4.791,0,0,1,2.435-.6,4.373,4.373,0,0,1,3.366,1.323,5.076,5.076,0,0,1,1.23,3.6v.105a4.925,4.925,0,0,1-1.235,3.529A4.384,4.384,0,0,1,15.139.176a4.434,4.434,0,0,1-3.261-1.217,4.761,4.761,0,0,1-1.327-3.3Zm2.962.185a3.538,3.538,0,0,0,.413,1.934,1.376,1.376,0,0,0,1.222.615q1.582,0,1.617-2.435v-.3q0-2.558-1.635-2.558-1.485,0-1.608,2.206Z" transform="translate(863.026 5915.918)" fill="#12263f"/>
    <path id="Trazado_825410" data-name="Trazado 825410" d="M-36.483-2.391h-4.228L-41.449,0h-3.3l4.693-12.8h2.9L-32.423,0h-3.313Zm-3.489-2.382h2.751L-38.6-9.211ZM-38.2-16.225h3.129l-2.443,2.76-2.417,0Zm12.322,9.4-.976-.07a1.752,1.752,0,0,0-1.793.879V0h-2.962V-9.51h2.777l.1,1.222a2.294,2.294,0,0,1,2.083-1.4,2.888,2.888,0,0,1,.826.105Zm5.5,7a4.889,4.889,0,0,1-3.542-1.305,4.507,4.507,0,0,1-1.354-3.4v-.246a5.84,5.84,0,0,1,.541-2.575A3.955,3.955,0,0,1-23.15-9.075a4.763,4.763,0,0,1,2.461-.611,4.117,4.117,0,0,1,3.164,1.244,4.887,4.887,0,0,1,1.16,3.467v1.151h-5.889a2.135,2.135,0,0,0,.694,1.257,2.066,2.066,0,0,0,1.389.457,2.662,2.662,0,0,0,2.2-.984l1.354,1.6A3.784,3.784,0,0,1-18.189-.277,5.3,5.3,0,0,1-20.373.176ZM-20.707-7.4q-1.3,0-1.547,1.723h2.988v-.229a1.467,1.467,0,0,0-.36-1.1A1.434,1.434,0,0,0-20.707-7.4ZM-9.817,0A3.344,3.344,0,0,1-10.1-.853,2.754,2.754,0,0,1-12.384.176a3.374,3.374,0,0,1-2.285-.813,2.588,2.588,0,0,1-.94-2.043,2.66,2.66,0,0,1,1.143-2.338,5.821,5.821,0,0,1,3.322-.791h.914v-.5q0-1.316-1.134-1.316a.927.927,0,0,0-1.055,1.042h-2.962a2.655,2.655,0,0,1,1.173-2.239,4.931,4.931,0,0,1,2.993-.86A4.323,4.323,0,0,1-8.341-8.8,3.086,3.086,0,0,1-7.26-6.363v4.21a4.311,4.311,0,0,0,.4,2V0Zm-1.854-1.934a1.652,1.652,0,0,0,.918-.237,1.487,1.487,0,0,0,.523-.536V-4.228h-.861q-1.547,0-1.547,1.389a.848.848,0,0,0,.272.655A.986.986,0,0,0-11.672-1.934ZM3.463.176A4.889,4.889,0,0,1-.079-1.129a4.507,4.507,0,0,1-1.354-3.4v-.246A5.84,5.84,0,0,1-.892-7.348,3.955,3.955,0,0,1,.686-9.075a4.763,4.763,0,0,1,2.461-.611A4.117,4.117,0,0,1,6.311-8.442a4.887,4.887,0,0,1,1.16,3.467v1.151H1.582a2.135,2.135,0,0,0,.694,1.257,2.066,2.066,0,0,0,1.389.457,2.662,2.662,0,0,0,2.2-.984l1.354,1.6A3.784,3.784,0,0,1,5.647-.277,5.3,5.3,0,0,1,3.463.176ZM3.129-7.4q-1.3,0-1.547,1.723H4.57v-.229a1.467,1.467,0,0,0-.36-1.1A1.434,1.434,0,0,0,3.129-7.4ZM11.382-9.51l.1,1.116a3.225,3.225,0,0,1,2.716-1.292,2.713,2.713,0,0,1,2.219.888,4.226,4.226,0,0,1,.76,2.672V0H14.2V-6a1.6,1.6,0,0,0-.29-1.059A1.342,1.342,0,0,0,12.858-7.4a1.413,1.413,0,0,0-1.292.686V0H8.6V-9.51Zm14.713,0,.1,1.116a3.27,3.27,0,0,1,2.716-1.292,2.407,2.407,0,0,1,2.435,1.433,3.165,3.165,0,0,1,2.795-1.433q2.892,0,2.971,3.5V0H34.137V-6a1.813,1.813,0,0,0-.246-1.063,1.048,1.048,0,0,0-.9-.334,1.4,1.4,0,0,0-1.31.782l.009.123V0H28.723V-5.985a1.906,1.906,0,0,0-.237-1.081A1.045,1.045,0,0,0,27.58-7.4a1.42,1.42,0,0,0-1.3.782V0H23.317V-9.51Zm18,3.647h-5.52v-1.3l2.514-2.216a3.124,3.124,0,0,0,.655-.76,1.307,1.307,0,0,0,.215-.549q0-.668-.747-.668a.737.737,0,0,0-.6.264.969.969,0,0,0-.22.642H38.417a2.3,2.3,0,0,1,.751-1.745,2.725,2.725,0,0,1,1.947-.708,3.314,3.314,0,0,1,2.083.571,1.964,1.964,0,0,1,.729,1.644,2.1,2.1,0,0,1-.374,1.208A7.354,7.354,0,0,1,41.906-8l-.712.594h2.9Z" transform="translate(455.005 5898.621)" fill="#12263f"/>
    <path id="Trazado_825408" data-name="Trazado 825408" d="M-31.75-12.8v8.376a4.814,4.814,0,0,1-.606,2.465A3.929,3.929,0,0,1-34.1-.369a6.131,6.131,0,0,1-2.681.545A5.3,5.3,0,0,1-40.46-1.037a4.326,4.326,0,0,1-1.371-3.322V-12.8h3.1v8.5q.053,2.1,1.951,2.1a1.889,1.889,0,0,0,1.45-.527,2.465,2.465,0,0,0,.492-1.714V-12.8Zm6.768,10.125a.684.684,0,0,0-.4-.606,6.016,6.016,0,0,0-1.5-.475A6.853,6.853,0,0,1-28.709-4.4a3.062,3.062,0,0,1-1.1-.971,2.319,2.319,0,0,1-.378-1.31A2.628,2.628,0,0,1-29.1-8.837a4.453,4.453,0,0,1,2.83-.848,4.934,4.934,0,0,1,3.023.853,2.666,2.666,0,0,1,1.143,2.241H-25.08q0-1.143-1.2-1.143a1.194,1.194,0,0,0-.782.259.8.8,0,0,0-.316.646A.737.737,0,0,0-27-6.187a3.654,3.654,0,0,0,1.235.4,10.671,10.671,0,0,1,1.49.378A2.706,2.706,0,0,1-22.126-2.76,2.491,2.491,0,0,1-23.282-.642a5.068,5.068,0,0,1-2.993.817,5.172,5.172,0,0,1-2.18-.439,3.645,3.645,0,0,1-1.494-1.2,2.707,2.707,0,0,1-.536-1.591h2.769a1.145,1.145,0,0,0,.439.962,1.808,1.808,0,0,0,1.081.3,1.422,1.422,0,0,0,.91-.246A.787.787,0,0,0-24.983-2.672Zm3.867-2.171a5.613,5.613,0,0,1,.554-2.536,3.96,3.96,0,0,1,1.591-1.709,4.791,4.791,0,0,1,2.435-.6A4.373,4.373,0,0,1-13.17-8.363a5.076,5.076,0,0,1,1.23,3.6v.105a4.925,4.925,0,0,1-1.235,3.529A4.384,4.384,0,0,1-16.519.176,4.434,4.434,0,0,1-19.78-1.042a4.761,4.761,0,0,1-1.327-3.3Zm2.962.185a3.538,3.538,0,0,0,.413,1.934,1.376,1.376,0,0,0,1.222.615q1.582,0,1.617-2.435v-.3q0-2.558-1.635-2.558-1.485,0-1.608,2.206ZM-.8,0a3.344,3.344,0,0,1-.281-.853A2.754,2.754,0,0,1-3.362.176,3.374,3.374,0,0,1-5.647-.637a2.588,2.588,0,0,1-.94-2.043A2.66,2.66,0,0,1-5.445-5.019,5.821,5.821,0,0,1-2.123-5.81h.914v-.5q0-1.316-1.134-1.316A.927.927,0,0,0-3.4-6.587H-6.359A2.655,2.655,0,0,1-5.186-8.825a4.931,4.931,0,0,1,2.993-.86A4.323,4.323,0,0,1,.681-8.8,3.086,3.086,0,0,1,1.762-6.363v4.21a4.311,4.311,0,0,0,.4,2V0ZM-2.65-1.934a1.652,1.652,0,0,0,.918-.237,1.487,1.487,0,0,0,.523-.536V-4.228H-2.07q-1.547,0-1.547,1.389a.848.848,0,0,0,.272.655A.986.986,0,0,0-2.65-1.934ZM7.422-2.109a1.317,1.317,0,0,0,.967-.338,1.241,1.241,0,0,0,.334-.945H11.5A3.288,3.288,0,0,1,10.38-.826a4.168,4.168,0,0,1-2.887,1,4.22,4.22,0,0,1-3.27-1.3,5.125,5.125,0,0,1-1.2-3.6v-.123A5.792,5.792,0,0,1,3.56-7.4a3.872,3.872,0,0,1,1.534-1.7,4.573,4.573,0,0,1,2.373-.593,4.116,4.116,0,0,1,2.944,1.028A3.647,3.647,0,0,1,11.5-5.871H8.723A1.626,1.626,0,0,0,8.363-7,1.244,1.244,0,0,0,7.4-7.4q-1.151,0-1.345,1.468A10.357,10.357,0,0,0,5.99-4.649a4.068,4.068,0,0,0,.343,1.986A1.187,1.187,0,0,0,7.422-2.109Zm8.78-9.765V-9.51h1.564v2.057H16.2V-3.1a1.111,1.111,0,0,0,.193.747,1.037,1.037,0,0,0,.765.211A4.345,4.345,0,0,0,17.9-2.2V-.079a5.466,5.466,0,0,1-1.67.255A3.1,3.1,0,0,1,13.97-.545a2.954,2.954,0,0,1-.729-2.188v-4.72H12.028V-9.51h1.213v-2.364ZM24.6-1.028a3.054,3.054,0,0,1-2.54,1.2,3,3,0,0,1-2.369-.91,3.826,3.826,0,0,1-.8-2.615V-9.51h2.962v6.179a1.065,1.065,0,0,0,1.187,1.222,1.548,1.548,0,0,0,1.45-.729V-9.51h2.979V0H24.684ZM34.44,0a3.344,3.344,0,0,1-.281-.853A2.754,2.754,0,0,1,31.874.176a3.374,3.374,0,0,1-2.285-.813,2.588,2.588,0,0,1-.94-2.043,2.66,2.66,0,0,1,1.143-2.338,5.821,5.821,0,0,1,3.322-.791h.914v-.5q0-1.316-1.134-1.316a.927.927,0,0,0-1.055,1.042H28.876A2.655,2.655,0,0,1,30.05-8.825a4.931,4.931,0,0,1,2.993-.86,4.323,4.323,0,0,1,2.874.888A3.086,3.086,0,0,1,37-6.363v4.21a4.311,4.311,0,0,0,.4,2V0ZM32.585-1.934a1.652,1.652,0,0,0,.918-.237,1.487,1.487,0,0,0,.523-.536V-4.228h-.861q-1.547,0-1.547,1.389a.848.848,0,0,0,.272.655A.986.986,0,0,0,32.585-1.934ZM41.761,0H38.791V-13.5h2.971Z" transform="translate(593.032 5898.621)" fill="#12263f"/>
    <path id="Trazado_825401" data-name="Trazado 825401" d="M-60.117-3.48l2.549-9.316h3.445L-58.43,0H-61.8l-4.271-12.8h3.419ZM-48.375,0a3.344,3.344,0,0,1-.281-.853A2.754,2.754,0,0,1-50.941.176a3.374,3.374,0,0,1-2.285-.813,2.588,2.588,0,0,1-.94-2.043,2.66,2.66,0,0,1,1.143-2.338A5.821,5.821,0,0,1-49.7-5.81h.914v-.5q0-1.316-1.134-1.316a.927.927,0,0,0-1.055,1.042h-2.962a2.655,2.655,0,0,1,1.173-2.239,4.931,4.931,0,0,1,2.993-.86A4.323,4.323,0,0,1-46.9-8.8a3.086,3.086,0,0,1,1.081,2.435v4.21a4.311,4.311,0,0,0,.4,2V0Zm-1.854-1.934a1.652,1.652,0,0,0,.918-.237,1.487,1.487,0,0,0,.523-.536V-4.228h-.861q-1.547,0-1.547,1.389a.848.848,0,0,0,.272.655A.986.986,0,0,0-50.229-1.934ZM-41.054,0h-2.971V-13.5h2.971Zm1.45-4.843a5.613,5.613,0,0,1,.554-2.536,3.96,3.96,0,0,1,1.591-1.709,4.791,4.791,0,0,1,2.435-.6,4.373,4.373,0,0,1,3.366,1.323,5.076,5.076,0,0,1,1.23,3.6v.105a4.925,4.925,0,0,1-1.235,3.529A4.384,4.384,0,0,1-35.007.176a4.434,4.434,0,0,1-3.261-1.217,4.761,4.761,0,0,1-1.327-3.3Zm2.962.185a3.538,3.538,0,0,0,.413,1.934,1.376,1.376,0,0,0,1.222.615q1.582,0,1.617-2.435v-.3q0-2.558-1.635-2.558-1.485,0-1.608,2.206ZM-23.37-6.829l-.976-.07a1.752,1.752,0,0,0-1.793.879V0H-29.1V-9.51h2.777l.1,1.222a2.294,2.294,0,0,1,2.083-1.4,2.888,2.888,0,0,1,.826.105Zm9.571,4.72a1.317,1.317,0,0,0,.967-.338,1.241,1.241,0,0,0,.334-.945h2.777A3.288,3.288,0,0,1-10.841-.826a4.168,4.168,0,0,1-2.887,1A4.22,4.22,0,0,1-17-1.125a5.125,5.125,0,0,1-1.2-3.6v-.123A5.792,5.792,0,0,1-17.662-7.4a3.872,3.872,0,0,1,1.534-1.7,4.573,4.573,0,0,1,2.373-.593,4.116,4.116,0,0,1,2.944,1.028,3.647,3.647,0,0,1,1.09,2.786H-12.5A1.626,1.626,0,0,0-12.858-7a1.244,1.244,0,0,0-.967-.4q-1.151,0-1.345,1.468a10.357,10.357,0,0,0-.062,1.283,4.068,4.068,0,0,0,.343,1.986A1.187,1.187,0,0,0-13.8-2.109Zm4.957-2.733a5.613,5.613,0,0,1,.554-2.536A3.96,3.96,0,0,1-6.7-9.088a4.791,4.791,0,0,1,2.435-.6A4.373,4.373,0,0,1-.9-8.363a5.076,5.076,0,0,1,1.23,3.6v.105A4.925,4.925,0,0,1-.9-1.129,4.384,4.384,0,0,1-4.245.176,4.434,4.434,0,0,1-7.506-1.042a4.761,4.761,0,0,1-1.327-3.3Zm2.962.185a3.538,3.538,0,0,0,.413,1.934,1.376,1.376,0,0,0,1.222.615q1.582,0,1.617-2.435v-.3q0-2.558-1.635-2.558-1.485,0-1.608,2.206ZM4.438-9.51l.1,1.116A3.27,3.27,0,0,1,7.251-9.686,2.407,2.407,0,0,1,9.686-8.253,3.165,3.165,0,0,1,12.48-9.686q2.892,0,2.971,3.5V0H12.48V-6a1.813,1.813,0,0,0-.246-1.063,1.048,1.048,0,0,0-.9-.334,1.4,1.4,0,0,0-1.31.782l.009.123V0H7.066V-5.985a1.906,1.906,0,0,0-.237-1.081A1.045,1.045,0,0,0,5.924-7.4a1.42,1.42,0,0,0-1.3.782V0H1.661V-9.51ZM21.744.176A4.889,4.889,0,0,1,18.2-1.129a4.507,4.507,0,0,1-1.354-3.4v-.246a5.84,5.84,0,0,1,.541-2.575,3.955,3.955,0,0,1,1.578-1.727,4.763,4.763,0,0,1,2.461-.611,4.117,4.117,0,0,1,3.164,1.244,4.887,4.887,0,0,1,1.16,3.467v1.151H19.863a2.135,2.135,0,0,0,.694,1.257,2.066,2.066,0,0,0,1.389.457,2.662,2.662,0,0,0,2.2-.984l1.354,1.6A3.784,3.784,0,0,1,23.928-.277,5.3,5.3,0,0,1,21.744.176ZM21.41-7.4q-1.3,0-1.547,1.723h2.988v-.229a1.467,1.467,0,0,0-.36-1.1A1.434,1.434,0,0,0,21.41-7.4ZM32.7-6.829,31.72-6.9a1.752,1.752,0,0,0-1.793.879V0H26.965V-9.51h2.777l.1,1.222a2.294,2.294,0,0,1,2.083-1.4,2.888,2.888,0,0,1,.826.105Zm4.922,4.72a1.317,1.317,0,0,0,.967-.338,1.241,1.241,0,0,0,.334-.945H41.7A3.288,3.288,0,0,1,40.575-.826a4.168,4.168,0,0,1-2.887,1,4.22,4.22,0,0,1-3.27-1.3,5.125,5.125,0,0,1-1.2-3.6v-.123A5.792,5.792,0,0,1,33.754-7.4a3.872,3.872,0,0,1,1.534-1.7,4.573,4.573,0,0,1,2.373-.593,4.116,4.116,0,0,1,2.944,1.028A3.647,3.647,0,0,1,41.7-5.871H38.918A1.626,1.626,0,0,0,38.558-7a1.244,1.244,0,0,0-.967-.4q-1.151,0-1.345,1.468a10.357,10.357,0,0,0-.062,1.283,4.068,4.068,0,0,0,.343,1.986A1.187,1.187,0,0,0,37.617-2.109ZM46.072,0H43.1V-9.51h2.971ZM42.926-11.962A1.322,1.322,0,0,1,43.383-13a1.724,1.724,0,0,1,1.187-.4,1.724,1.724,0,0,1,1.187.4,1.322,1.322,0,0,1,.457,1.037,1.322,1.322,0,0,1-.457,1.037,1.724,1.724,0,0,1-1.187.4,1.724,1.724,0,0,1-1.187-.4A1.322,1.322,0,0,1,42.926-11.962ZM53.253,0a3.344,3.344,0,0,1-.281-.853A2.754,2.754,0,0,1,50.687.176,3.374,3.374,0,0,1,48.4-.637a2.588,2.588,0,0,1-.94-2.043A2.66,2.66,0,0,1,48.6-5.019a5.821,5.821,0,0,1,3.322-.791h.914v-.5q0-1.316-1.134-1.316a.927.927,0,0,0-1.055,1.042H47.689a2.655,2.655,0,0,1,1.173-2.239,4.931,4.931,0,0,1,2.993-.86,4.323,4.323,0,0,1,2.874.888,3.086,3.086,0,0,1,1.081,2.435v4.21a4.311,4.311,0,0,0,.4,2V0ZM51.4-1.934a1.652,1.652,0,0,0,.918-.237,1.487,1.487,0,0,0,.523-.536V-4.228h-.861q-1.547,0-1.547,1.389a.848.848,0,0,0,.272.655A.986.986,0,0,0,51.4-1.934ZM60.574,0H57.6V-13.5h2.971ZM-24.935,23.972a3.054,3.054,0,0,1-2.54,1.2,3,3,0,0,1-2.369-.91,3.826,3.826,0,0,1-.8-2.615V15.49h2.962v6.179A1.065,1.065,0,0,0-26.5,22.891a1.548,1.548,0,0,0,1.45-.729V15.49h2.979V25h-2.777Zm7.207-8.481.1,1.116a3.225,3.225,0,0,1,2.716-1.292A2.713,2.713,0,0,1-12.7,16.2a4.226,4.226,0,0,1,.76,2.672V25h-2.971V19a1.6,1.6,0,0,0-.29-1.059,1.342,1.342,0,0,0-1.055-.338,1.413,1.413,0,0,0-1.292.686V25H-20.5V15.49ZM-7.172,25h-2.971V15.49h2.971Zm-3.146-11.962A1.322,1.322,0,0,1-9.861,12a1.724,1.724,0,0,1,1.187-.4,1.724,1.724,0,0,1,1.187.4,1.322,1.322,0,0,1,.457,1.037,1.322,1.322,0,0,1-.457,1.037,1.724,1.724,0,0,1-1.187.4,1.724,1.724,0,0,1-1.187-.4A1.322,1.322,0,0,1-10.318,13.038Zm8.42.088V15.49H-.334v2.057H-1.9V21.9a1.111,1.111,0,0,0,.193.747,1.037,1.037,0,0,0,.765.211A4.345,4.345,0,0,0-.2,22.8v2.118a5.466,5.466,0,0,1-1.67.255,3.1,3.1,0,0,1-2.259-.721,2.954,2.954,0,0,1-.729-2.188v-4.72H-6.073V15.49H-4.86V13.126ZM6.188,25a3.344,3.344,0,0,1-.281-.853,2.754,2.754,0,0,1-2.285,1.028,3.374,3.374,0,0,1-2.285-.813A2.588,2.588,0,0,1,.4,22.319a2.66,2.66,0,0,1,1.143-2.338A5.821,5.821,0,0,1,4.86,19.19h.914v-.5q0-1.316-1.134-1.316a.927.927,0,0,0-1.055,1.042H.624A2.655,2.655,0,0,1,1.8,16.175a4.931,4.931,0,0,1,2.993-.86,4.323,4.323,0,0,1,2.874.888,3.086,3.086,0,0,1,1.081,2.435v4.21a4.311,4.311,0,0,0,.4,2V25ZM4.333,23.066a1.652,1.652,0,0,0,.918-.237,1.487,1.487,0,0,0,.523-.536V20.772H4.913q-1.547,0-1.547,1.389a.848.848,0,0,0,.272.655A.986.986,0,0,0,4.333,23.066Zm11.8-4.9-.976-.07a1.752,1.752,0,0,0-1.793.879V25H10.406V15.49h2.777l.1,1.222a2.294,2.294,0,0,1,2.083-1.4,2.888,2.888,0,0,1,.826.105ZM20.329,25H17.358V15.49h2.971ZM17.183,13.038A1.322,1.322,0,0,1,17.64,12a1.943,1.943,0,0,1,2.373,0,1.405,1.405,0,0,1,0,2.074,1.943,1.943,0,0,1-2.373,0A1.322,1.322,0,0,1,17.183,13.038Zm4.6,7.119a5.613,5.613,0,0,1,.554-2.536,3.96,3.96,0,0,1,1.591-1.709,4.791,4.791,0,0,1,2.435-.6,4.373,4.373,0,0,1,3.366,1.323,5.076,5.076,0,0,1,1.23,3.6v.105a4.925,4.925,0,0,1-1.235,3.529,4.384,4.384,0,0,1-3.344,1.305,4.434,4.434,0,0,1-3.261-1.217,4.761,4.761,0,0,1-1.327-3.3Zm2.962.185a3.538,3.538,0,0,0,.413,1.934,1.376,1.376,0,0,0,1.222.615q1.582,0,1.617-2.435v-.3q0-2.558-1.635-2.558-1.485,0-1.608,2.206Z" transform="translate(980.557 5885.621)" fill="#12263f"/>
    <line id="Línea_1197" data-name="Línea 1197" x1="1238.902" transform="translate(181.098 5965.723)" fill="none" stroke="#e1e1e1" stroke-width="1"/>
    <line id="Línea_1204" data-name="Línea 1204" y2="110.818" transform="translate(1147.253 5856.695)" fill="none" stroke="#e1e1e1" stroke-width="1"/>
    <line id="Línea_1205" data-name="Línea 1205" y2="110.818" transform="translate(1236.262 5856.695)" fill="none" stroke="#e1e1e1" stroke-width="1"/>
    <line id="Línea_1206" data-name="Línea 1206" y2="110.818" transform="translate(1317.048 5856.695)" fill="none" stroke="#e1e1e1" stroke-width="1"/>
    <line id="Línea_1207" data-name="Línea 1207" x1="0.131" y2="112.805" transform="translate(1419.5 5856.695)" fill="none" stroke="#e1e1e1" stroke-width="1"/>
    <line id="Línea_1194" data-name="Línea 1194" y2="36.17" transform="translate(386.936 5927.475)" fill="none" stroke="#e1e1e1" stroke-width="1"/>
    <line id="Línea_1196" data-name="Línea 1196" y2="36.17" transform="translate(655.786 5927.475)" fill="none" stroke="#e1e1e1" stroke-width="1"/>
    <line id="Línea_1195" data-name="Línea 1195" y2="36.17" transform="translate(537.142 5927.475)" fill="none" stroke="#e1e1e1" stroke-width="1"/>
    <line id="Línea_1201" data-name="Línea 1201" y2="36.17" transform="translate(827.939 5927.475)" fill="none" stroke="#e1e1e1" stroke-width="1"/>
    <line id="Línea_1200" data-name="Línea 1200" y2="36.17" transform="translate(730.047 5927.475)" fill="none" stroke="#e1e1e1" stroke-width="1"/>
    <line id="Línea_1202" data-name="Línea 1202" y2="36.17" transform="translate(902.2 5927.475)" fill="none" stroke="#e1e1e1" stroke-width="1"/>
    <line id="Línea_1203" data-name="Línea 1203" y2="36.17" transform="translate(1072.992 5927.475)" fill="none" stroke="#e1e1e1" stroke-width="1"/>
    <line id="Línea_1192" data-name="Línea 1192" y2="112.818" transform="translate(180.545 5854.695)" fill="none" stroke="#e1e1e1" stroke-width="1"/>
    <line id="Línea_1198" data-name="Línea 1198" x1="1239.455" transform="translate(180.545 5967.514)" fill="none" stroke="#e1e1e1" stroke-width="1"/>
    <line id="Línea_1199" data-name="Línea 1199" x1="1239.455" transform="translate(180.545 5968.731)" fill="none" stroke="#e1e1e1" stroke-width="1"/>
  </g>
</svg>
