<svg xmlns="http://www.w3.org/2000/svg" width="1240.131" height="117.393" viewBox="0 0 1240.131 117.393">
  <g id="Grupo_1075439" data-name="Grupo 1075439" transform="translate(-180 -5498.769)">
    <rect id="Rectángulo_375872" data-name="Rectángulo 375872" width="1239.455" height="111.575" transform="translate(180.545 5504.086)" fill="#fff"/>
    <rect id="Rectángulo_375860" data-name="Rectángulo 375860" width="1239.631" height="5.077" transform="translate(180 5498.769)" fill="#1b3f5e"/>
    <rect id="Rectángulo_375861" data-name="Rectángulo 375861" width="1239.631" height="74.429" transform="translate(180 5503.845)" fill="#e0e5ec"/>
    <path id="Trazado_825374" data-name="Trazado 825374" d="M8.078-4.852a6.61,6.61,0,0,1-.867,3.773A3.084,3.084,0,0,1,4.5.156,3.107,3.107,0,0,1,1.8-1.051,6.274,6.274,0,0,1,.9-4.656v-1.93a6.463,6.463,0,0,1,.867-3.727,3.108,3.108,0,0,1,2.719-1.219,3.136,3.136,0,0,1,2.7,1.176,6.237,6.237,0,0,1,.891,3.629ZM6.633-6.828A5.3,5.3,0,0,0,6.117-9.5a1.775,1.775,0,0,0-1.633-.84,1.751,1.751,0,0,0-1.617.836,5.171,5.171,0,0,0-.523,2.57v2.313A5.381,5.381,0,0,0,2.879-1.9,1.771,1.771,0,0,0,4.5-1.023a1.747,1.747,0,0,0,1.59-.828,5.186,5.186,0,0,0,.543-2.609ZM14.68,0H13.227V-9.633l-2.914,1.07V-9.875l4.141-1.555h.227Z" transform="translate(229.238 5602.087)" fill="#12263f"/>
    <path id="Trazado_825362" data-name="Trazado 825362" d="M8.4,0H.945V-1.039L4.883-5.414A9.354,9.354,0,0,0,6.09-7.027a2.693,2.693,0,0,0,.332-1.285,2.041,2.041,0,0,0-.539-1.461,1.885,1.885,0,0,0-1.437-.57A2.232,2.232,0,0,0,2.77-9.73a2.343,2.343,0,0,0-.6,1.707H.727a3.355,3.355,0,0,1,1.012-2.539,3.751,3.751,0,0,1,2.707-.969,3.6,3.6,0,0,1,2.508.832,2.838,2.838,0,0,1,.922,2.215q0,1.68-2.141,4L2.688-1.18H8.4Zm1.633,2.266L9.211,1.7A3.77,3.77,0,0,0,9.977-.406v-1.3h1.414V-.578A3.559,3.559,0,0,1,11,1,3.7,3.7,0,0,1,10.031,2.266ZM19.969-8.406a2.641,2.641,0,0,1-.449,1.516A3.057,3.057,0,0,1,18.3-5.852a3.26,3.26,0,0,1,1.41,1.117,2.811,2.811,0,0,1,.52,1.664,2.972,2.972,0,0,1-1,2.352,3.827,3.827,0,0,1-2.621.875,3.81,3.81,0,0,1-2.629-.879A2.986,2.986,0,0,1,13-3.07a2.9,2.9,0,0,1,.5-1.664A3.136,3.136,0,0,1,14.9-5.859,2.981,2.981,0,0,1,13.7-6.9a2.679,2.679,0,0,1-.437-1.508,2.94,2.94,0,0,1,.922-2.281,3.458,3.458,0,0,1,2.43-.844,3.461,3.461,0,0,1,2.426.844A2.934,2.934,0,0,1,19.969-8.406Zm-1.18,5.3a2.1,2.1,0,0,0-.605-1.555,2.147,2.147,0,0,0-1.582-.6,2.11,2.11,0,0,0-1.566.594,2.12,2.12,0,0,0-.59,1.563,2.019,2.019,0,0,0,.574,1.523,2.2,2.2,0,0,0,1.6.555,2.2,2.2,0,0,0,1.594-.559A2.014,2.014,0,0,0,18.789-3.1Zm-2.172-7.242a1.865,1.865,0,0,0-1.379.527,1.937,1.937,0,0,0-.527,1.434,1.928,1.928,0,0,0,.52,1.4,1.844,1.844,0,0,0,1.387.535A1.844,1.844,0,0,0,18-6.98a1.928,1.928,0,0,0,.52-1.4A1.929,1.929,0,0,0,17.984-9.8,1.839,1.839,0,0,0,16.617-10.344Z" transform="translate(1084.612 5602.087)" fill="#12263f"/>
    <path id="Trazado_825361" data-name="Trazado 825361" d="M5.031-7.016l2.727-4.359H9.523L5.93-5.734,9.609,0H7.828l-2.8-4.437L2.219,0H.445L4.133-5.734l-3.6-5.641H2.289Z" transform="translate(1243.488 5602.087)" fill="#12263f"/>
    <path id="Trazado_825370" data-name="Trazado 825370" d="M2.82-4.453V0H1.32V-11.375h4.2a4.215,4.215,0,0,1,2.926.953A3.231,3.231,0,0,1,9.5-7.9,3.189,3.189,0,0,1,8.465-5.348,4.4,4.4,0,0,1,5.5-4.453Zm0-1.227h2.7a2.7,2.7,0,0,0,1.844-.567A2.075,2.075,0,0,0,8-7.887a2.143,2.143,0,0,0-.641-1.628A2.525,2.525,0,0,0,5.6-10.148H2.82ZM16.32,0a3.036,3.036,0,0,1-.2-.891A3.225,3.225,0,0,1,13.711.156,2.984,2.984,0,0,1,11.66-.551a2.287,2.287,0,0,1-.8-1.793,2.39,2.39,0,0,1,1-2.051,4.733,4.733,0,0,1,2.824-.73h1.406v-.664A1.623,1.623,0,0,0,15.641-7,1.821,1.821,0,0,0,14.3-7.445a2.107,2.107,0,0,0-1.3.391,1.151,1.151,0,0,0-.523.945H11.031a2,2,0,0,1,.449-1.223A3.066,3.066,0,0,1,12.7-8.266a4.1,4.1,0,0,1,1.691-.344,3.342,3.342,0,0,1,2.289.73,2.635,2.635,0,0,1,.859,2.012v3.891a4.757,4.757,0,0,0,.3,1.852V0Zm-2.4-1.1a2.54,2.54,0,0,0,1.289-.352,2.127,2.127,0,0,0,.883-.914V-4.1H14.961Q12.3-4.1,12.3-2.547a1.316,1.316,0,0,0,.453,1.063A1.742,1.742,0,0,0,13.922-1.1Zm10.8-1.141a1.064,1.064,0,0,0-.441-.91,4.249,4.249,0,0,0-1.539-.559A7.277,7.277,0,0,1,21-4.273a2.479,2.479,0,0,1-.953-.781,1.869,1.869,0,0,1-.309-1.078,2.193,2.193,0,0,1,.879-1.758,3.432,3.432,0,0,1,2.246-.719,3.532,3.532,0,0,1,2.332.742,2.357,2.357,0,0,1,.895,1.9H24.641a1.3,1.3,0,0,0-.5-1.023,1.888,1.888,0,0,0-1.27-.43,1.976,1.976,0,0,0-1.234.344,1.082,1.082,0,0,0-.445.9.877.877,0,0,0,.414.789,5.1,5.1,0,0,0,1.5.508,7.8,7.8,0,0,1,1.754.578,2.558,2.558,0,0,1,1,.809,1.988,1.988,0,0,1,.324,1.152,2.163,2.163,0,0,1-.906,1.816,3.8,3.8,0,0,1-2.352.684,4.257,4.257,0,0,1-1.8-.359,2.922,2.922,0,0,1-1.223-1A2.42,2.42,0,0,1,19.453-2.6H20.9a1.5,1.5,0,0,0,.582,1.152,2.258,2.258,0,0,0,1.434.426,2.331,2.331,0,0,0,1.316-.332A1.02,1.02,0,0,0,24.727-2.242ZM30.016-10.5v2.047h1.578v1.117H30.016v5.249a1.173,1.173,0,0,0,.211.763.888.888,0,0,0,.719.254,3.5,3.5,0,0,0,.688-.094V0a4.215,4.215,0,0,1-1.109.155A1.8,1.8,0,0,1,29.063-.43a2.517,2.517,0,0,1-.492-1.664V-7.336H27.031V-8.453H28.57V-10.5Zm2.727,6.2a4.993,4.993,0,0,1,.488-2.234A3.643,3.643,0,0,1,34.59-8.07a3.7,3.7,0,0,1,1.988-.539,3.565,3.565,0,0,1,2.793,1.2,4.6,4.6,0,0,1,1.066,3.18v.1a5.036,5.036,0,0,1-.473,2.215A3.589,3.589,0,0,1,38.613-.391a3.743,3.743,0,0,1-2.02.547,3.556,3.556,0,0,1-2.785-1.2A4.575,4.575,0,0,1,32.742-4.2Zm1.453.172a3.616,3.616,0,0,0,.652,2.258,2.088,2.088,0,0,0,1.746.852,2.075,2.075,0,0,0,1.75-.863A3.955,3.955,0,0,0,38.992-4.3a3.61,3.61,0,0,0-.66-2.254,2.1,2.1,0,0,0-1.754-.863,2.075,2.075,0,0,0-1.727.852A3.925,3.925,0,0,0,34.2-4.133Zm19.172,0a5.026,5.026,0,0,1-.891,3.113A2.846,2.846,0,0,1,50.086.156,2.947,2.947,0,0,1,47.609-.977L47.539,0H46.211V-12h1.445v4.477A2.93,2.93,0,0,1,50.07-8.609a2.863,2.863,0,0,1,2.418,1.164,5.177,5.177,0,0,1,.879,3.188ZM51.922-4.3a3.906,3.906,0,0,0-.57-2.281,1.888,1.888,0,0,0-1.641-.8,2.122,2.122,0,0,0-2.055,1.328V-2.4a2.181,2.181,0,0,0,2.07,1.328,1.878,1.878,0,0,0,1.617-.8A4.153,4.153,0,0,0,51.922-4.3Zm7.352-2.859a4.331,4.331,0,0,0-.711-.055A1.9,1.9,0,0,0,56.633-6V0H55.188V-8.453h1.406l.023.977a2.251,2.251,0,0,1,2.016-1.133,1.477,1.477,0,0,1,.641.109ZM65.508,0a3.036,3.036,0,0,1-.2-.891A3.225,3.225,0,0,1,62.9.156a2.984,2.984,0,0,1-2.051-.707,2.287,2.287,0,0,1-.8-1.793,2.39,2.39,0,0,1,1-2.051,4.733,4.733,0,0,1,2.824-.73h1.406v-.664A1.623,1.623,0,0,0,64.828-7a1.821,1.821,0,0,0-1.336-.449,2.107,2.107,0,0,0-1.3.391,1.151,1.151,0,0,0-.523.945H60.219a2,2,0,0,1,.449-1.223,3.066,3.066,0,0,1,1.219-.934,4.1,4.1,0,0,1,1.691-.344,3.342,3.342,0,0,1,2.289.73,2.635,2.635,0,0,1,.859,2.012v3.891a4.757,4.757,0,0,0,.3,1.852V0Zm-2.4-1.1A2.54,2.54,0,0,0,64.4-1.453a2.127,2.127,0,0,0,.883-.914V-4.1H64.148q-2.656,0-2.656,1.555a1.316,1.316,0,0,0,.453,1.063A1.742,1.742,0,0,0,63.109-1.1Zm9.273.078a2.082,2.082,0,0,0,1.352-.469,1.649,1.649,0,0,0,.641-1.172h1.367a2.621,2.621,0,0,1-.5,1.383,3.293,3.293,0,0,1-1.23,1.047,3.55,3.55,0,0,1-1.629.391A3.482,3.482,0,0,1,69.637-1a4.59,4.59,0,0,1-1.02-3.152v-.242a5.089,5.089,0,0,1,.453-2.2,3.451,3.451,0,0,1,1.3-1.492,3.7,3.7,0,0,1,2-.531,3.39,3.39,0,0,1,2.363.852,3.043,3.043,0,0,1,1,2.211H74.375a1.992,1.992,0,0,0-.621-1.348,1.932,1.932,0,0,0-1.379-.527,2.023,2.023,0,0,0-1.707.793,3.724,3.724,0,0,0-.605,2.293v.273a3.65,3.65,0,0,0,.6,2.25A2.033,2.033,0,0,0,72.383-1.023Zm6.43-6.406a3.073,3.073,0,0,1,2.5-1.18q2.68,0,2.7,3.023V0H82.57V-5.594a1.946,1.946,0,0,0-.418-1.352,1.675,1.675,0,0,0-1.277-.437,2.086,2.086,0,0,0-1.234.375,2.546,2.546,0,0,0-.828.984V0H77.367V-12h1.445ZM87.75,0H86.3V-8.453H87.75ZM86.188-10.7a.863.863,0,0,1,.215-.594.807.807,0,0,1,.637-.242.819.819,0,0,1,.641.242.854.854,0,0,1,.219.594.826.826,0,0,1-.219.586.834.834,0,0,1-.641.234.821.821,0,0,1-.637-.234A.834.834,0,0,1,86.188-10.7ZM95.281,0a3.036,3.036,0,0,1-.2-.891A3.225,3.225,0,0,1,92.672.156a2.984,2.984,0,0,1-2.051-.707,2.288,2.288,0,0,1-.8-1.793,2.39,2.39,0,0,1,1-2.051,4.733,4.733,0,0,1,2.824-.73h1.406v-.664A1.623,1.623,0,0,0,94.6-7a1.821,1.821,0,0,0-1.336-.449,2.108,2.108,0,0,0-1.3.391,1.151,1.151,0,0,0-.523.945H89.992a2,2,0,0,1,.449-1.223,3.066,3.066,0,0,1,1.219-.934,4.1,4.1,0,0,1,1.691-.344,3.342,3.342,0,0,1,2.289.73A2.635,2.635,0,0,1,96.5-5.867v3.891a4.757,4.757,0,0,0,.3,1.852V0Zm-2.4-1.1a2.54,2.54,0,0,0,1.289-.352,2.127,2.127,0,0,0,.883-.914V-4.1H93.922q-2.656,0-2.656,1.555a1.316,1.316,0,0,0,.453,1.063A1.742,1.742,0,0,0,92.883-1.1Zm9.969-6.055a4.331,4.331,0,0,0-.711-.055A1.9,1.9,0,0,0,100.211-6V0H98.766V-8.453h1.406l.023.977a2.251,2.251,0,0,1,2.016-1.133,1.477,1.477,0,0,1,.641.109ZM105.75,0H104.3V-8.453h1.445Zm-1.562-10.7a.863.863,0,0,1,.215-.594.807.807,0,0,1,.637-.242.819.819,0,0,1,.641.242.854.854,0,0,1,.219.594.826.826,0,0,1-.219.586.834.834,0,0,1-.641.234.821.821,0,0,1-.637-.234A.834.834,0,0,1,104.188-10.7ZM113.281,0a3.036,3.036,0,0,1-.2-.891A3.225,3.225,0,0,1,110.672.156a2.984,2.984,0,0,1-2.051-.707,2.288,2.288,0,0,1-.8-1.793,2.39,2.39,0,0,1,1-2.051,4.733,4.733,0,0,1,2.824-.73h1.406v-.664A1.623,1.623,0,0,0,112.6-7a1.821,1.821,0,0,0-1.336-.449,2.108,2.108,0,0,0-1.3.391,1.151,1.151,0,0,0-.523.945h-1.453a2,2,0,0,1,.449-1.223,3.066,3.066,0,0,1,1.219-.934,4.1,4.1,0,0,1,1.691-.344,3.342,3.342,0,0,1,2.289.73,2.635,2.635,0,0,1,.859,2.012v3.891a4.757,4.757,0,0,0,.3,1.852V0Zm-2.4-1.1a2.54,2.54,0,0,0,1.289-.352,2.127,2.127,0,0,0,.883-.914V-4.1h-1.133q-2.656,0-2.656,1.555a1.316,1.316,0,0,0,.453,1.063A1.742,1.742,0,0,0,110.883-1.1Z" transform="translate(441.716 5602.087)" fill="#12263f"/>
    <path id="Trazado_825369" data-name="Trazado 825369" d="M3.258-11.375,6.977-2.094,10.7-11.375h1.945V0h-1.5V-4.43l.141-4.781L7.547,0H6.4L2.672-9.187,2.82-4.43V0H1.32V-11.375ZM20.281,0a3.036,3.036,0,0,1-.2-.891A3.225,3.225,0,0,1,17.672.156a2.984,2.984,0,0,1-2.051-.707,2.287,2.287,0,0,1-.8-1.793,2.39,2.39,0,0,1,1-2.051,4.733,4.733,0,0,1,2.824-.73h1.406v-.664A1.623,1.623,0,0,0,19.6-7a1.821,1.821,0,0,0-1.336-.449,2.108,2.108,0,0,0-1.3.391,1.151,1.151,0,0,0-.523.945H14.992a2,2,0,0,1,.449-1.223,3.066,3.066,0,0,1,1.219-.934,4.1,4.1,0,0,1,1.691-.344,3.342,3.342,0,0,1,2.289.73A2.635,2.635,0,0,1,21.5-5.867v3.891a4.757,4.757,0,0,0,.3,1.852V0Zm-2.4-1.1a2.54,2.54,0,0,0,1.289-.352,2.127,2.127,0,0,0,.883-.914V-4.1H18.922q-2.656,0-2.656,1.555a1.316,1.316,0,0,0,.453,1.063A1.742,1.742,0,0,0,17.883-1.1ZM25.336,0H23.883V-8.453h1.453Zm.016-11.992H27.1L25.008-9.7l-1.164,0ZM29.078-1.18h4.945V0H27.313V-1.062l4.664-6.2H27.383v-1.2h6.406V-7.43Z" transform="translate(623.622 5600.838)" fill="#12263f"/>
    <path id="Trazado_825367" data-name="Trazado 825367" d="M3.93-5.367,5.8-8.453H7.492L4.727-4.273,7.578,0H5.906L3.953-3.164,2,0H.32L3.172-4.273.406-8.453H2.078Z" transform="translate(828.019 5600.838)" fill="#12263f"/>
    <path id="Trazado_825373" data-name="Trazado 825373" d="M5.7,0H4.242V-9.633L1.328-8.562V-9.875L5.469-11.43H5.7ZM17.383,0H9.93V-1.039l3.938-4.375a9.354,9.354,0,0,0,1.207-1.613,2.693,2.693,0,0,0,.332-1.285,2.041,2.041,0,0,0-.539-1.461,1.885,1.885,0,0,0-1.437-.57,2.232,2.232,0,0,0-1.676.613,2.343,2.343,0,0,0-.6,1.707H9.711a3.355,3.355,0,0,1,1.012-2.539,3.751,3.751,0,0,1,2.707-.969,3.6,3.6,0,0,1,2.508.832,2.838,2.838,0,0,1,.922,2.215q0,1.68-2.141,4l-3.047,3.3h5.711Z" transform="translate(349.522 5602.087)" fill="#12263f"/>
    <path id="Trazado_825375" data-name="Trazado 825375" d="M-22.939,0h-3.067l-4.535-7.963V0h-3.085V-12.8h3.085l4.526,7.963V-12.8h3.076Zm7.479-1.028A3.054,3.054,0,0,1-18,.176a3,3,0,0,1-2.369-.91,3.826,3.826,0,0,1-.8-2.615V-9.51h2.962v6.179a1.065,1.065,0,0,0,1.187,1.222,1.548,1.548,0,0,0,1.45-.729V-9.51h2.979V0h-2.777ZM-16.515-13.5h3.129l-2.443,2.76-2.417,0Zm8.341,3.99.1,1.116A3.27,3.27,0,0,1-5.361-9.686,2.407,2.407,0,0,1-2.927-8.253,3.165,3.165,0,0,1-.132-9.686q2.892,0,2.971,3.5V0H-.132V-6A1.813,1.813,0,0,0-.378-7.066a1.048,1.048,0,0,0-.9-.334,1.4,1.4,0,0,0-1.31.782l.009.123V0H-5.546V-5.985a1.906,1.906,0,0,0-.237-1.081A1.045,1.045,0,0,0-6.688-7.4a1.42,1.42,0,0,0-1.3.782V0h-2.962V-9.51ZM9.132.176A4.889,4.889,0,0,1,5.59-1.129a4.507,4.507,0,0,1-1.354-3.4v-.246a5.84,5.84,0,0,1,.541-2.575A3.955,3.955,0,0,1,6.354-9.075a4.763,4.763,0,0,1,2.461-.611,4.117,4.117,0,0,1,3.164,1.244,4.887,4.887,0,0,1,1.16,3.467v1.151H7.251a2.135,2.135,0,0,0,.694,1.257,2.066,2.066,0,0,0,1.389.457,2.662,2.662,0,0,0,2.2-.984l1.354,1.6A3.784,3.784,0,0,1,11.316-.277,5.3,5.3,0,0,1,9.132.176ZM8.8-7.4q-1.3,0-1.547,1.723h2.988v-.229a1.467,1.467,0,0,0-.36-1.1A1.434,1.434,0,0,0,8.8-7.4Zm11.285.571-.976-.07a1.752,1.752,0,0,0-1.793.879V0H14.353V-9.51H17.13l.1,1.222a2.294,2.294,0,0,1,2.083-1.4,2.888,2.888,0,0,1,.826.105Zm.378,1.986a5.613,5.613,0,0,1,.554-2.536,3.96,3.96,0,0,1,1.591-1.709,4.791,4.791,0,0,1,2.435-.6,4.373,4.373,0,0,1,3.366,1.323,5.076,5.076,0,0,1,1.23,3.6v.105A4.925,4.925,0,0,1,28.4-1.129,4.384,4.384,0,0,1,25.058.176,4.434,4.434,0,0,1,21.8-1.042a4.761,4.761,0,0,1-1.327-3.3Zm2.962.185a3.538,3.538,0,0,0,.413,1.934,1.376,1.376,0,0,0,1.222.615q1.582,0,1.617-2.435v-.3q0-2.558-1.635-2.558-1.485,0-1.608,2.206ZM-27.264,20.175a5.809,5.809,0,0,1,.976-3.56,3.211,3.211,0,0,1,2.725-1.3,2.731,2.731,0,0,1,2.145,1V11.5h2.971V25h-2.663l-.149-1.02a2.8,2.8,0,0,1-2.32,1.2,3.205,3.205,0,0,1-2.689-1.3A5.993,5.993,0,0,1-27.264,20.175Zm2.962.185q0,2.531,1.477,2.531a1.458,1.458,0,0,0,1.406-.826V18.443a1.419,1.419,0,0,0-1.389-.844q-1.371,0-1.485,2.215Zm12.138,4.816a4.889,4.889,0,0,1-3.542-1.305,4.507,4.507,0,0,1-1.354-3.4v-.246a5.84,5.84,0,0,1,.541-2.575,3.955,3.955,0,0,1,1.578-1.727,4.763,4.763,0,0,1,2.461-.611,4.117,4.117,0,0,1,3.164,1.244,4.887,4.887,0,0,1,1.16,3.467v1.151h-5.889a2.135,2.135,0,0,0,.694,1.257,2.066,2.066,0,0,0,1.389.457,2.662,2.662,0,0,0,2.2-.984l1.354,1.6A3.784,3.784,0,0,1-9.98,24.723,5.3,5.3,0,0,1-12.164,25.176ZM-12.5,17.6q-1.3,0-1.547,1.723h2.988v-.229a1.467,1.467,0,0,0-.36-1.1A1.434,1.434,0,0,0-12.5,17.6ZM.642,25H-2.329V11.5H.642Zm1.45-4.843a5.613,5.613,0,0,1,.554-2.536,3.96,3.96,0,0,1,1.591-1.709,4.791,4.791,0,0,1,2.435-.6,4.373,4.373,0,0,1,3.366,1.323,5.076,5.076,0,0,1,1.23,3.6v.105a4.925,4.925,0,0,1-1.235,3.529,4.384,4.384,0,0,1-3.344,1.305,4.434,4.434,0,0,1-3.261-1.217,4.761,4.761,0,0,1-1.327-3.3Zm2.962.185a3.538,3.538,0,0,0,.413,1.934,1.376,1.376,0,0,0,1.222.615q1.582,0,1.617-2.435v-.3q0-2.558-1.635-2.558-1.485,0-1.608,2.206Zm10.969-7.216V15.49h1.564v2.057H16.022V21.9a1.111,1.111,0,0,0,.193.747,1.037,1.037,0,0,0,.765.211,4.345,4.345,0,0,0,.738-.053v2.118a5.466,5.466,0,0,1-1.67.255,3.1,3.1,0,0,1-2.259-.721,2.954,2.954,0,0,1-.729-2.188v-4.72H11.848V15.49h1.213V13.126Zm7.33,12.05a4.889,4.889,0,0,1-3.542-1.305,4.507,4.507,0,0,1-1.354-3.4v-.246A5.84,5.84,0,0,1,19,17.652a3.955,3.955,0,0,1,1.578-1.727,4.763,4.763,0,0,1,2.461-.611A4.117,4.117,0,0,1,26.2,16.558a4.887,4.887,0,0,1,1.16,3.467v1.151H21.472a2.135,2.135,0,0,0,.694,1.257,2.066,2.066,0,0,0,1.389.457,2.662,2.662,0,0,0,2.2-.984l1.354,1.6a3.784,3.784,0,0,1-1.569,1.217A5.3,5.3,0,0,1,23.353,25.176ZM23.019,17.6q-1.3,0-1.547,1.723H24.46v-.229a1.467,1.467,0,0,0-.36-1.1A1.434,1.434,0,0,0,23.019,17.6Z" transform="translate(235.465 5532.125)" fill="#12263f"/>
    <path id="Trazado_825365" data-name="Trazado 825365" d="M-65.347-2.391h-4.228L-70.312,0h-3.3l4.693-12.8h2.9L-61.286,0H-64.6Zm-3.489-2.382h2.751l-1.38-4.438ZM-58.192-9.51l.1,1.116A3.225,3.225,0,0,1-55.38-9.686a2.713,2.713,0,0,1,2.219.888,4.226,4.226,0,0,1,.76,2.672V0h-2.971V-6a1.6,1.6,0,0,0-.29-1.059A1.342,1.342,0,0,0-56.716-7.4a1.413,1.413,0,0,0-1.292.686V0H-60.97V-9.51ZM-45.4,0a3.344,3.344,0,0,1-.281-.853A2.754,2.754,0,0,1-47.971.176a3.374,3.374,0,0,1-2.285-.813,2.588,2.588,0,0,1-.94-2.043,2.66,2.66,0,0,1,1.143-2.338,5.821,5.821,0,0,1,3.322-.791h.914v-.5q0-1.316-1.134-1.316a.927.927,0,0,0-1.055,1.042h-2.962a2.655,2.655,0,0,1,1.173-2.239,4.931,4.931,0,0,1,2.993-.86,4.323,4.323,0,0,1,2.874.888,3.086,3.086,0,0,1,1.081,2.435v4.21a4.311,4.311,0,0,0,.4,2V0Zm-1.854-1.934a1.652,1.652,0,0,0,.918-.237,1.487,1.487,0,0,0,.523-.536V-4.228h-.861q-1.547,0-1.547,1.389a.848.848,0,0,0,.272.655A.986.986,0,0,0-47.259-1.934Zm.738-11.566h3.129l-2.443,2.76-2.417,0ZM-38.083,0h-2.971V-13.5h2.971Zm4.948,0h-2.971V-9.51h2.971Zm-3.146-11.962A1.322,1.322,0,0,1-35.824-13a1.724,1.724,0,0,1,1.187-.4,1.724,1.724,0,0,1,1.187.4,1.322,1.322,0,0,1,.457,1.037,1.322,1.322,0,0,1-.457,1.037,1.724,1.724,0,0,1-1.187.4,1.724,1.724,0,0,1-1.187-.4A1.322,1.322,0,0,1-36.281-11.962Zm9.949,9.29a.684.684,0,0,0-.4-.606,6.016,6.016,0,0,0-1.5-.475A6.853,6.853,0,0,1-30.059-4.4a3.062,3.062,0,0,1-1.1-.971,2.319,2.319,0,0,1-.378-1.31,2.628,2.628,0,0,1,1.081-2.158,4.453,4.453,0,0,1,2.83-.848,4.934,4.934,0,0,1,3.023.853,2.666,2.666,0,0,1,1.143,2.241h-2.971q0-1.143-1.2-1.143a1.194,1.194,0,0,0-.782.259.8.8,0,0,0-.316.646.737.737,0,0,0,.387.642,3.654,3.654,0,0,0,1.235.4,10.671,10.671,0,0,1,1.49.378A2.706,2.706,0,0,1-23.476-2.76,2.491,2.491,0,0,1-24.631-.642a5.068,5.068,0,0,1-2.993.817A5.172,5.172,0,0,1-29.8-.264a3.645,3.645,0,0,1-1.494-1.2,2.707,2.707,0,0,1-.536-1.591h2.769a1.145,1.145,0,0,0,.439.962,1.808,1.808,0,0,0,1.081.3,1.422,1.422,0,0,0,.91-.246A.787.787,0,0,0-26.332-2.672ZM-18.967,0h-2.971V-9.51h2.971Zm-3.146-11.962A1.322,1.322,0,0,1-21.656-13a1.724,1.724,0,0,1,1.187-.4,1.724,1.724,0,0,1,1.187.4,1.322,1.322,0,0,1,.457,1.037,1.322,1.322,0,0,1-.457,1.037,1.724,1.724,0,0,1-1.187.4,1.724,1.724,0,0,1-1.187-.4A1.322,1.322,0,0,1-22.113-11.962Zm9.949,9.29a.684.684,0,0,0-.4-.606,6.016,6.016,0,0,0-1.5-.475A6.853,6.853,0,0,1-15.891-4.4a3.062,3.062,0,0,1-1.1-.971,2.319,2.319,0,0,1-.378-1.31,2.628,2.628,0,0,1,1.081-2.158,4.453,4.453,0,0,1,2.83-.848,4.934,4.934,0,0,1,3.023.853A2.666,2.666,0,0,1-9.29-6.592h-2.971q0-1.143-1.2-1.143a1.194,1.194,0,0,0-.782.259.8.8,0,0,0-.316.646.737.737,0,0,0,.387.642,3.654,3.654,0,0,0,1.235.4,10.671,10.671,0,0,1,1.49.378A2.706,2.706,0,0,1-9.308-2.76,2.491,2.491,0,0,1-10.463-.642a5.068,5.068,0,0,1-2.993.817,5.172,5.172,0,0,1-2.18-.439,3.645,3.645,0,0,1-1.494-1.2,2.707,2.707,0,0,1-.536-1.591H-14.9a1.145,1.145,0,0,0,.439.962,1.808,1.808,0,0,0,1.081.3,1.422,1.422,0,0,0,.91-.246A.787.787,0,0,0-12.164-2.672Zm8.35-2.153a5.809,5.809,0,0,1,.976-3.56,3.211,3.211,0,0,1,2.725-1.3,2.731,2.731,0,0,1,2.145,1V-13.5H5V0H2.338L2.188-1.02A2.8,2.8,0,0,1-.132.176a3.205,3.205,0,0,1-2.689-1.3A5.993,5.993,0,0,1-3.814-4.825Zm2.962.185q0,2.531,1.477,2.531A1.458,1.458,0,0,0,2.03-2.936V-6.557A1.419,1.419,0,0,0,.642-7.4Q-.729-7.4-.844-5.186ZM11.285.176A4.889,4.889,0,0,1,7.743-1.129a4.507,4.507,0,0,1-1.354-3.4v-.246A5.84,5.84,0,0,1,6.93-7.348,3.955,3.955,0,0,1,8.508-9.075a4.763,4.763,0,0,1,2.461-.611,4.117,4.117,0,0,1,3.164,1.244,4.887,4.887,0,0,1,1.16,3.467v1.151H9.4A2.135,2.135,0,0,0,10.1-2.566a2.066,2.066,0,0,0,1.389.457,2.662,2.662,0,0,0,2.2-.984l1.354,1.6A3.784,3.784,0,0,1,13.469-.277,5.3,5.3,0,0,1,11.285.176ZM10.951-7.4Q9.65-7.4,9.4-5.678h2.988v-.229a1.467,1.467,0,0,0-.36-1.1A1.434,1.434,0,0,0,10.951-7.4ZM25.945-2.672a.684.684,0,0,0-.4-.606,6.016,6.016,0,0,0-1.5-.475A6.853,6.853,0,0,1,22.219-4.4a3.062,3.062,0,0,1-1.1-.971,2.319,2.319,0,0,1-.378-1.31,2.628,2.628,0,0,1,1.081-2.158,4.453,4.453,0,0,1,2.83-.848,4.934,4.934,0,0,1,3.023.853,2.666,2.666,0,0,1,1.143,2.241H25.849q0-1.143-1.2-1.143a1.194,1.194,0,0,0-.782.259.8.8,0,0,0-.316.646.737.737,0,0,0,.387.642,3.654,3.654,0,0,0,1.235.4,10.671,10.671,0,0,1,1.49.378A2.706,2.706,0,0,1,28.8-2.76,2.491,2.491,0,0,1,27.646-.642a5.068,5.068,0,0,1-2.993.817,5.172,5.172,0,0,1-2.18-.439,3.645,3.645,0,0,1-1.494-1.2,2.707,2.707,0,0,1-.536-1.591h2.769a1.145,1.145,0,0,0,.439.962,1.808,1.808,0,0,0,1.081.3,1.422,1.422,0,0,0,.91-.246A.787.787,0,0,0,25.945-2.672Zm9.905,1.644a3.054,3.054,0,0,1-2.54,1.2,3,3,0,0,1-2.369-.91,3.826,3.826,0,0,1-.8-2.615V-9.51H33.1v6.179a1.065,1.065,0,0,0,1.187,1.222,1.548,1.548,0,0,0,1.45-.729V-9.51h2.979V0H35.938Zm9.088,1.2A4.889,4.889,0,0,1,41.4-1.129a4.507,4.507,0,0,1-1.354-3.4v-.246a5.84,5.84,0,0,1,.541-2.575,3.955,3.955,0,0,1,1.578-1.727,4.763,4.763,0,0,1,2.461-.611,4.117,4.117,0,0,1,3.164,1.244,4.887,4.887,0,0,1,1.16,3.467v1.151H43.058a2.135,2.135,0,0,0,.694,1.257,2.066,2.066,0,0,0,1.389.457,2.662,2.662,0,0,0,2.2-.984l1.354,1.6A3.784,3.784,0,0,1,47.123-.277,5.3,5.3,0,0,1,44.938.176ZM44.6-7.4q-1.3,0-1.547,1.723h2.988v-.229a1.467,1.467,0,0,0-.36-1.1A1.434,1.434,0,0,0,44.6-7.4ZM53.262,0H50.291V-13.5h2.971Zm1.45-4.843a5.613,5.613,0,0,1,.554-2.536,3.96,3.96,0,0,1,1.591-1.709,4.791,4.791,0,0,1,2.435-.6,4.373,4.373,0,0,1,3.366,1.323,5.076,5.076,0,0,1,1.23,3.6v.105a4.925,4.925,0,0,1-1.235,3.529A4.384,4.384,0,0,1,59.309.176a4.434,4.434,0,0,1-3.261-1.217,4.761,4.761,0,0,1-1.327-3.3Zm2.962.185a3.538,3.538,0,0,0,.413,1.934,1.376,1.376,0,0,0,1.222.615q1.582,0,1.617-2.435v-.3q0-2.558-1.635-2.558-1.485,0-1.608,2.206Zm12.5,1.986a.684.684,0,0,0-.4-.606,6.016,6.016,0,0,0-1.5-.475A6.853,6.853,0,0,1,66.445-4.4a3.062,3.062,0,0,1-1.1-.971,2.319,2.319,0,0,1-.378-1.31A2.628,2.628,0,0,1,66.05-8.837a4.453,4.453,0,0,1,2.83-.848,4.934,4.934,0,0,1,3.023.853,2.666,2.666,0,0,1,1.143,2.241H70.075q0-1.143-1.2-1.143a1.194,1.194,0,0,0-.782.259.8.8,0,0,0-.316.646.737.737,0,0,0,.387.642,3.654,3.654,0,0,0,1.235.4,10.671,10.671,0,0,1,1.49.378A2.706,2.706,0,0,1,73.028-2.76,2.491,2.491,0,0,1,71.873-.642,5.068,5.068,0,0,1,68.88.176,5.172,5.172,0,0,1,66.7-.264a3.645,3.645,0,0,1-1.494-1.2A2.707,2.707,0,0,1,64.67-3.05h2.769a1.145,1.145,0,0,0,.439.962,1.808,1.808,0,0,0,1.081.3,1.422,1.422,0,0,0,.91-.246A.787.787,0,0,0,70.172-2.672Z" transform="translate(878.699 5529.202)" fill="#12263f"/>
    <path id="Trazado_825366" data-name="Trazado 825366" d="M-.541-3.4A1.268,1.268,0,0,0-1.02-4.456,5.954,5.954,0,0,0-2.7-5.238a16.147,16.147,0,0,1-1.969-.782Q-7.159-7.242-7.159-9.378a3.011,3.011,0,0,1,.62-1.876A4.008,4.008,0,0,1-4.786-12.52a6.823,6.823,0,0,1,2.549-.453,5.969,5.969,0,0,1,2.474.492,3.917,3.917,0,0,1,1.7,1.4A3.661,3.661,0,0,1,2.544-9H-.532a1.547,1.547,0,0,0-.479-1.213,1.867,1.867,0,0,0-1.3-.431,2.106,2.106,0,0,0-1.305.365,1.119,1.119,0,0,0-.479.927,1.127,1.127,0,0,0,.527.892,6.65,6.65,0,0,0,1.854.826,11.36,11.36,0,0,1,2.18.918,3.663,3.663,0,0,1,2.074,3.3A3.125,3.125,0,0,1,1.279-.782,5.629,5.629,0,0,1-2.193.176,6.888,6.888,0,0,1-5.01-.382a4.247,4.247,0,0,1-1.9-1.529,3.985,3.985,0,0,1-.637-2.237h3.094A1.963,1.963,0,0,0-3.92-2.632a2.513,2.513,0,0,0,1.727.488,1.985,1.985,0,0,0,1.208-.33A1.088,1.088,0,0,0-.541-3.4ZM7.115,0H4.144V-9.51H7.115ZM3.968-11.962A1.322,1.322,0,0,1,4.425-13a1.724,1.724,0,0,1,1.187-.4A1.724,1.724,0,0,1,6.8-13a1.322,1.322,0,0,1,.457,1.037A1.322,1.322,0,0,1,6.8-10.925a1.724,1.724,0,0,1-1.187.4,1.724,1.724,0,0,1-1.187-.4A1.322,1.322,0,0,1,3.968-11.962Z" transform="translate(831.326 5561.149)" fill="#12263f"/>
    <path id="Trazado_825364" data-name="Trazado 825364" d="M.281,0H-2.786L-7.321-7.963V0h-3.085V-12.8h3.085l4.526,7.963V-12.8H.281ZM1.723-4.843a5.613,5.613,0,0,1,.554-2.536A3.96,3.96,0,0,1,3.867-9.088a4.791,4.791,0,0,1,2.435-.6A4.373,4.373,0,0,1,9.668-8.363a5.076,5.076,0,0,1,1.23,3.6v.105A4.925,4.925,0,0,1,9.664-1.129,4.384,4.384,0,0,1,6.319.176,4.434,4.434,0,0,1,3.059-1.042a4.761,4.761,0,0,1-1.327-3.3Zm2.962.185A3.538,3.538,0,0,0,5.1-2.725a1.376,1.376,0,0,0,1.222.615q1.582,0,1.617-2.435v-.3Q7.937-7.4,6.3-7.4q-1.485,0-1.608,2.206Z" transform="translate(940.565 5561.149)" fill="#12263f"/>
    <path id="Trazado_825358" data-name="Trazado 825358" d="M-17.754-4.526h-1.67V0h-3.085V-12.8h5.036a5.621,5.621,0,0,1,3.56,1.01A3.421,3.421,0,0,1-12.63-8.934a4.155,4.155,0,0,1-.541,2.213A3.837,3.837,0,0,1-14.862-5.3L-12.19-.132V0h-3.3ZM-19.424-6.9h1.951a1.751,1.751,0,0,0,1.323-.463,1.788,1.788,0,0,0,.444-1.291,1.809,1.809,0,0,0-.448-1.3,1.735,1.735,0,0,0-1.318-.471h-1.951ZM-7.778,0h-2.971V-9.51h2.971Zm-3.146-11.962A1.322,1.322,0,0,1-10.468-13a1.724,1.724,0,0,1,1.187-.4,1.724,1.724,0,0,1,1.187.4,1.322,1.322,0,0,1,.457,1.037,1.322,1.322,0,0,1-.457,1.037,1.724,1.724,0,0,1-1.187.4,1.724,1.724,0,0,1-1.187-.4A1.322,1.322,0,0,1-10.925-11.962ZM-1.354.176A4.889,4.889,0,0,1-4.9-1.129a4.507,4.507,0,0,1-1.354-3.4v-.246a5.84,5.84,0,0,1,.541-2.575A3.955,3.955,0,0,1-4.131-9.075,4.763,4.763,0,0,1-1.67-9.686,4.117,4.117,0,0,1,1.494-8.442a4.887,4.887,0,0,1,1.16,3.467v1.151H-3.234A2.135,2.135,0,0,0-2.54-2.566a2.066,2.066,0,0,0,1.389.457,2.662,2.662,0,0,0,2.2-.984L2.4-1.494A3.784,3.784,0,0,1,.831-.277,5.3,5.3,0,0,1-1.354.176ZM-1.687-7.4q-1.3,0-1.547,1.723H-.246v-.229a1.467,1.467,0,0,0-.36-1.1A1.434,1.434,0,0,0-1.687-7.4ZM3.5-4.825a6.421,6.421,0,0,1,.475-2.549A3.821,3.821,0,0,1,5.335-9.083a3.591,3.591,0,0,1,2.065-.6,2.855,2.855,0,0,1,2.32,1l.105-.826h2.689V-.36a4.009,4.009,0,0,1-.584,2.184,3.75,3.75,0,0,1-1.692,1.424,6.219,6.219,0,0,1-2.566.5,5.365,5.365,0,0,1-2.026-.4,3.657,3.657,0,0,1-1.5-1.028L5.388.58a2.716,2.716,0,0,0,2.18.976A1.764,1.764,0,0,0,9.536-.466v-.3a2.781,2.781,0,0,1-2.153.94A3.437,3.437,0,0,1,4.57-1.156,5.517,5.517,0,0,1,3.5-4.72Zm2.971.185a3.383,3.383,0,0,0,.439,1.85,1.386,1.386,0,0,0,1.23.681,1.573,1.573,0,0,0,1.4-.642v-4a1.534,1.534,0,0,0-1.38-.65,1.4,1.4,0,0,0-1.239.708A3.858,3.858,0,0,0,6.469-4.641Zm7.356-.2a5.613,5.613,0,0,1,.554-2.536A3.96,3.96,0,0,1,15.97-9.088a4.791,4.791,0,0,1,2.435-.6,4.373,4.373,0,0,1,3.366,1.323A5.076,5.076,0,0,1,23-4.764v.105a4.925,4.925,0,0,1-1.235,3.529A4.384,4.384,0,0,1,18.422.176a4.434,4.434,0,0,1-3.261-1.217,4.761,4.761,0,0,1-1.327-3.3Zm2.962.185A3.538,3.538,0,0,0,17.2-2.725a1.376,1.376,0,0,0,1.222.615q1.582,0,1.617-2.435v-.3Q20.039-7.4,18.4-7.4q-1.485,0-1.608,2.206Z" transform="translate(1293.788 5529.202)" fill="#12263f"/>
    <path id="Trazado_825359" data-name="Trazado 825359" d="M-.541-3.4A1.268,1.268,0,0,0-1.02-4.456,5.954,5.954,0,0,0-2.7-5.238a16.147,16.147,0,0,1-1.969-.782Q-7.159-7.242-7.159-9.378a3.011,3.011,0,0,1,.62-1.876A4.008,4.008,0,0,1-4.786-12.52a6.823,6.823,0,0,1,2.549-.453,5.969,5.969,0,0,1,2.474.492,3.917,3.917,0,0,1,1.7,1.4A3.661,3.661,0,0,1,2.544-9H-.532a1.547,1.547,0,0,0-.479-1.213,1.867,1.867,0,0,0-1.3-.431,2.106,2.106,0,0,0-1.305.365,1.119,1.119,0,0,0-.479.927,1.127,1.127,0,0,0,.527.892,6.65,6.65,0,0,0,1.854.826,11.36,11.36,0,0,1,2.18.918,3.663,3.663,0,0,1,2.074,3.3A3.125,3.125,0,0,1,1.279-.782,5.629,5.629,0,0,1-2.193.176,6.888,6.888,0,0,1-5.01-.382a4.247,4.247,0,0,1-1.9-1.529,3.985,3.985,0,0,1-.637-2.237h3.094A1.963,1.963,0,0,0-3.92-2.632a2.513,2.513,0,0,0,1.727.488,1.985,1.985,0,0,0,1.208-.33A1.088,1.088,0,0,0-.541-3.4ZM7.115,0H4.144V-9.51H7.115ZM3.968-11.962A1.322,1.322,0,0,1,4.425-13a1.724,1.724,0,0,1,1.187-.4A1.724,1.724,0,0,1,6.8-13a1.322,1.322,0,0,1,.457,1.037A1.322,1.322,0,0,1,6.8-10.925a1.724,1.724,0,0,1-1.187.4,1.724,1.724,0,0,1-1.187-.4A1.322,1.322,0,0,1,3.968-11.962Z" transform="translate(1250.015 5561.149)" fill="#12263f"/>
    <path id="Trazado_825360" data-name="Trazado 825360" d="M.281,0H-2.786L-7.321-7.963V0h-3.085V-12.8h3.085l4.526,7.963V-12.8H.281ZM1.723-4.843a5.613,5.613,0,0,1,.554-2.536A3.96,3.96,0,0,1,3.867-9.088a4.791,4.791,0,0,1,2.435-.6A4.373,4.373,0,0,1,9.668-8.363a5.076,5.076,0,0,1,1.23,3.6v.105A4.925,4.925,0,0,1,9.664-1.129,4.384,4.384,0,0,1,6.319.176,4.434,4.434,0,0,1,3.059-1.042a4.761,4.761,0,0,1-1.327-3.3Zm2.962.185A3.538,3.538,0,0,0,5.1-2.725a1.376,1.376,0,0,0,1.222.615q1.582,0,1.617-2.435v-.3Q7.937-7.4,6.3-7.4q-1.485,0-1.608,2.206Z" transform="translate(1346.894 5561.149)" fill="#12263f"/>
    <path id="Trazado_825372" data-name="Trazado 825372" d="M-25.356-2.391h-4.228L-30.322,0h-3.3l4.693-12.8h2.9L-21.3,0h-3.313Zm-3.489-2.382h2.751l-1.38-4.438Zm1.775-11.452h3.129l-2.443,2.76-2.417,0Zm12.322,9.4-.976-.07a1.752,1.752,0,0,0-1.793.879V0h-2.962V-9.51H-17.7l.1,1.222a2.294,2.294,0,0,1,2.083-1.4,2.888,2.888,0,0,1,.826.105Zm5.5,7a4.889,4.889,0,0,1-3.542-1.305,4.507,4.507,0,0,1-1.354-3.4v-.246A5.84,5.84,0,0,1-13.6-7.348a3.955,3.955,0,0,1,1.578-1.727,4.763,4.763,0,0,1,2.461-.611A4.117,4.117,0,0,1-6.4-8.442a4.887,4.887,0,0,1,1.16,3.467v1.151h-5.889a2.135,2.135,0,0,0,.694,1.257,2.066,2.066,0,0,0,1.389.457,2.662,2.662,0,0,0,2.2-.984l1.354,1.6A3.784,3.784,0,0,1-7.062-.277,5.3,5.3,0,0,1-9.246.176ZM-9.58-7.4q-1.3,0-1.547,1.723h2.988v-.229a1.467,1.467,0,0,0-.36-1.1A1.434,1.434,0,0,0-9.58-7.4ZM1.31,0a3.344,3.344,0,0,1-.281-.853A2.754,2.754,0,0,1-1.257.176,3.374,3.374,0,0,1-3.542-.637a2.588,2.588,0,0,1-.94-2.043A2.66,2.66,0,0,1-3.34-5.019,5.821,5.821,0,0,1-.018-5.81H.9v-.5Q.9-7.629-.237-7.629A.927.927,0,0,0-1.292-6.587H-4.254A2.655,2.655,0,0,1-3.081-8.825a4.931,4.931,0,0,1,2.993-.86A4.323,4.323,0,0,1,2.786-8.8,3.086,3.086,0,0,1,3.867-6.363v4.21a4.311,4.311,0,0,0,.4,2V0ZM-.545-1.934a1.652,1.652,0,0,0,.918-.237A1.487,1.487,0,0,0,.9-2.707V-4.228H.035q-1.547,0-1.547,1.389a.848.848,0,0,0,.272.655A.986.986,0,0,0-.545-1.934ZM14.59.176a4.889,4.889,0,0,1-3.542-1.305,4.507,4.507,0,0,1-1.354-3.4v-.246a5.84,5.84,0,0,1,.541-2.575,3.955,3.955,0,0,1,1.578-1.727,4.763,4.763,0,0,1,2.461-.611,4.117,4.117,0,0,1,3.164,1.244A4.887,4.887,0,0,1,18.6-4.975v1.151H12.709A2.135,2.135,0,0,0,13.4-2.566a2.066,2.066,0,0,0,1.389.457,2.662,2.662,0,0,0,2.2-.984l1.354,1.6A3.784,3.784,0,0,1,16.774-.277,5.3,5.3,0,0,1,14.59.176ZM14.256-7.4q-1.3,0-1.547,1.723H15.7v-.229a1.467,1.467,0,0,0-.36-1.1A1.434,1.434,0,0,0,14.256-7.4ZM22.509-9.51l.1,1.116a3.225,3.225,0,0,1,2.716-1.292,2.713,2.713,0,0,1,2.219.888,4.226,4.226,0,0,1,.76,2.672V0H25.33V-6a1.6,1.6,0,0,0-.29-1.059A1.342,1.342,0,0,0,23.985-7.4a1.413,1.413,0,0,0-1.292.686V0H19.731V-9.51ZM-36.409,16.51a2.964,2.964,0,0,1,2.426-1.2,2.956,2.956,0,0,1,2.373.932A4.186,4.186,0,0,1-30.792,19v6h-2.971V19.067a1.674,1.674,0,0,0-.308-1.112,1.322,1.322,0,0,0-1.046-.356,1.424,1.424,0,0,0-1.292.58V25h-2.962V11.5h2.962Zm11.865,8.666a4.889,4.889,0,0,1-3.542-1.305,4.507,4.507,0,0,1-1.354-3.4v-.246a5.84,5.84,0,0,1,.541-2.575,3.955,3.955,0,0,1,1.578-1.727,4.763,4.763,0,0,1,2.461-.611A4.117,4.117,0,0,1-21.7,16.558a4.887,4.887,0,0,1,1.16,3.467v1.151h-5.889a2.135,2.135,0,0,0,.694,1.257,2.066,2.066,0,0,0,1.389.457,2.662,2.662,0,0,0,2.2-.984l1.354,1.6a3.784,3.784,0,0,1-1.569,1.217A5.3,5.3,0,0,1-24.543,25.176Zm-.334-7.576q-1.3,0-1.547,1.723h2.988v-.229a1.467,1.467,0,0,0-.36-1.1A1.434,1.434,0,0,0-24.877,17.6Zm9.554,5.291a1.317,1.317,0,0,0,.967-.338,1.241,1.241,0,0,0,.334-.945h2.777a3.288,3.288,0,0,1-1.121,2.566,4.168,4.168,0,0,1-2.887,1,4.22,4.22,0,0,1-3.27-1.3,5.125,5.125,0,0,1-1.2-3.6v-.123a5.792,5.792,0,0,1,.532-2.544,3.872,3.872,0,0,1,1.534-1.7,4.573,4.573,0,0,1,2.373-.593,4.116,4.116,0,0,1,2.944,1.028,3.647,3.647,0,0,1,1.09,2.786h-2.777A1.626,1.626,0,0,0-14.383,18a1.244,1.244,0,0,0-.967-.4q-1.151,0-1.345,1.468a10.357,10.357,0,0,0-.062,1.283,4.068,4.068,0,0,0,.343,1.986A1.187,1.187,0,0,0-15.324,22.891Zm8.78-9.765V15.49h1.564v2.057H-6.543V21.9a1.111,1.111,0,0,0,.193.747,1.037,1.037,0,0,0,.765.211,4.345,4.345,0,0,0,.738-.053v2.118a5.466,5.466,0,0,1-1.67.255,3.1,3.1,0,0,1-2.259-.721,2.954,2.954,0,0,1-.729-2.188v-4.72h-1.213V15.49h1.213V13.126ZM1.542,25a3.344,3.344,0,0,1-.281-.853,2.754,2.754,0,0,1-2.285,1.028,3.374,3.374,0,0,1-2.285-.813,2.588,2.588,0,0,1-.94-2.043,2.66,2.66,0,0,1,1.143-2.338A5.821,5.821,0,0,1,.215,19.19h.914v-.5q0-1.316-1.134-1.316a.927.927,0,0,0-1.055,1.042H-4.021a2.655,2.655,0,0,1,1.173-2.239,4.931,4.931,0,0,1,2.993-.86,4.323,4.323,0,0,1,2.874.888A3.086,3.086,0,0,1,4.1,18.637v4.21a4.311,4.311,0,0,0,.4,2V25ZM-.312,23.066a1.652,1.652,0,0,0,.918-.237,1.487,1.487,0,0,0,.523-.536V20.772H.268q-1.547,0-1.547,1.389a.848.848,0,0,0,.272.655A.986.986,0,0,0-.312,23.066ZM.426,11.5H3.555L1.112,14.26l-2.417,0Zm11.065,6.671-.976-.07a1.752,1.752,0,0,0-1.793.879V25H5.761V15.49H8.539l.1,1.222a2.294,2.294,0,0,1,2.083-1.4,2.888,2.888,0,0,1,.826.105Zm5.5,7a4.889,4.889,0,0,1-3.542-1.305,4.507,4.507,0,0,1-1.354-3.4v-.246a5.84,5.84,0,0,1,.541-2.575,3.955,3.955,0,0,1,1.578-1.727,4.763,4.763,0,0,1,2.461-.611,4.117,4.117,0,0,1,3.164,1.244A4.887,4.887,0,0,1,21,20.025v1.151H15.113a2.135,2.135,0,0,0,.694,1.257,2.066,2.066,0,0,0,1.389.457,2.662,2.662,0,0,0,2.2-.984l1.354,1.6a3.784,3.784,0,0,1-1.569,1.217A5.3,5.3,0,0,1,16.994,25.176ZM16.66,17.6q-1.3,0-1.547,1.723H18.1v-.229a1.467,1.467,0,0,0-.36-1.1A1.434,1.434,0,0,0,16.66,17.6ZM27.549,25a3.344,3.344,0,0,1-.281-.853,2.754,2.754,0,0,1-2.285,1.028,3.374,3.374,0,0,1-2.285-.813,2.588,2.588,0,0,1-.94-2.043A2.66,2.66,0,0,1,22.9,19.981a5.821,5.821,0,0,1,3.322-.791h.914v-.5q0-1.316-1.134-1.316a.927.927,0,0,0-1.055,1.042H21.986a2.655,2.655,0,0,1,1.173-2.239,4.931,4.931,0,0,1,2.993-.86,4.323,4.323,0,0,1,2.874.888,3.086,3.086,0,0,1,1.081,2.435v4.21a4.311,4.311,0,0,0,.4,2V25Zm-1.854-1.934a1.652,1.652,0,0,0,.918-.237,1.487,1.487,0,0,0,.523-.536V20.772h-.861q-1.547,0-1.547,1.389a.848.848,0,0,0,.272.655A.986.986,0,0,0,25.695,23.066Zm11.03-.738a.684.684,0,0,0-.4-.606,6.016,6.016,0,0,0-1.5-.475A6.853,6.853,0,0,1,33,20.6a3.062,3.062,0,0,1-1.1-.971,2.319,2.319,0,0,1-.378-1.31A2.628,2.628,0,0,1,32.6,16.163a4.453,4.453,0,0,1,2.83-.848,4.934,4.934,0,0,1,3.023.853A2.666,2.666,0,0,1,39.6,18.408H36.628q0-1.143-1.2-1.143a1.194,1.194,0,0,0-.782.259.8.8,0,0,0-.316.646.737.737,0,0,0,.387.642,3.654,3.654,0,0,0,1.235.4,10.671,10.671,0,0,1,1.49.378,2.706,2.706,0,0,1,2.145,2.646,2.491,2.491,0,0,1-1.156,2.118,5.068,5.068,0,0,1-2.993.817,5.172,5.172,0,0,1-2.18-.439,3.645,3.645,0,0,1-1.494-1.2,2.707,2.707,0,0,1-.536-1.591h2.769a1.145,1.145,0,0,0,.439.962,1.808,1.808,0,0,0,1.081.3,1.422,1.422,0,0,0,.91-.246A.787.787,0,0,0,36.725,22.328Z" transform="translate(359.984 5529.125)" fill="#12263f"/>
    <path id="Trazado_825371" data-name="Trazado 825371" d="M-31.75-12.8v8.376a4.814,4.814,0,0,1-.606,2.465A3.929,3.929,0,0,1-34.1-.369a6.131,6.131,0,0,1-2.681.545A5.3,5.3,0,0,1-40.46-1.037a4.326,4.326,0,0,1-1.371-3.322V-12.8h3.1v8.5q.053,2.1,1.951,2.1a1.889,1.889,0,0,0,1.45-.527,2.465,2.465,0,0,0,.492-1.714V-12.8Zm6.768,10.125a.684.684,0,0,0-.4-.606,6.016,6.016,0,0,0-1.5-.475A6.853,6.853,0,0,1-28.709-4.4a3.062,3.062,0,0,1-1.1-.971,2.319,2.319,0,0,1-.378-1.31A2.628,2.628,0,0,1-29.1-8.837a4.453,4.453,0,0,1,2.83-.848,4.934,4.934,0,0,1,3.023.853,2.666,2.666,0,0,1,1.143,2.241H-25.08q0-1.143-1.2-1.143a1.194,1.194,0,0,0-.782.259.8.8,0,0,0-.316.646A.737.737,0,0,0-27-6.187a3.654,3.654,0,0,0,1.235.4,10.671,10.671,0,0,1,1.49.378A2.706,2.706,0,0,1-22.126-2.76,2.491,2.491,0,0,1-23.282-.642a5.068,5.068,0,0,1-2.993.817,5.172,5.172,0,0,1-2.18-.439,3.645,3.645,0,0,1-1.494-1.2,2.707,2.707,0,0,1-.536-1.591h2.769a1.145,1.145,0,0,0,.439.962,1.808,1.808,0,0,0,1.081.3,1.422,1.422,0,0,0,.91-.246A.787.787,0,0,0-24.983-2.672Zm3.867-2.171a5.613,5.613,0,0,1,.554-2.536,3.96,3.96,0,0,1,1.591-1.709,4.791,4.791,0,0,1,2.435-.6A4.373,4.373,0,0,1-13.17-8.363a5.076,5.076,0,0,1,1.23,3.6v.105a4.925,4.925,0,0,1-1.235,3.529A4.384,4.384,0,0,1-16.519.176,4.434,4.434,0,0,1-19.78-1.042a4.761,4.761,0,0,1-1.327-3.3Zm2.962.185a3.538,3.538,0,0,0,.413,1.934,1.376,1.376,0,0,0,1.222.615q1.582,0,1.617-2.435v-.3q0-2.558-1.635-2.558-1.485,0-1.608,2.206ZM-.8,0a3.344,3.344,0,0,1-.281-.853A2.754,2.754,0,0,1-3.362.176,3.374,3.374,0,0,1-5.647-.637a2.588,2.588,0,0,1-.94-2.043A2.66,2.66,0,0,1-5.445-5.019,5.821,5.821,0,0,1-2.123-5.81h.914v-.5q0-1.316-1.134-1.316A.927.927,0,0,0-3.4-6.587H-6.359A2.655,2.655,0,0,1-5.186-8.825a4.931,4.931,0,0,1,2.993-.86A4.323,4.323,0,0,1,.681-8.8,3.086,3.086,0,0,1,1.762-6.363v4.21a4.311,4.311,0,0,0,.4,2V0ZM-2.65-1.934a1.652,1.652,0,0,0,.918-.237,1.487,1.487,0,0,0,.523-.536V-4.228H-2.07q-1.547,0-1.547,1.389a.848.848,0,0,0,.272.655A.986.986,0,0,0-2.65-1.934ZM7.422-2.109a1.317,1.317,0,0,0,.967-.338,1.241,1.241,0,0,0,.334-.945H11.5A3.288,3.288,0,0,1,10.38-.826a4.168,4.168,0,0,1-2.887,1,4.22,4.22,0,0,1-3.27-1.3,5.125,5.125,0,0,1-1.2-3.6v-.123A5.792,5.792,0,0,1,3.56-7.4a3.872,3.872,0,0,1,1.534-1.7,4.573,4.573,0,0,1,2.373-.593,4.116,4.116,0,0,1,2.944,1.028A3.647,3.647,0,0,1,11.5-5.871H8.723A1.626,1.626,0,0,0,8.363-7,1.244,1.244,0,0,0,7.4-7.4q-1.151,0-1.345,1.468A10.357,10.357,0,0,0,5.99-4.649a4.068,4.068,0,0,0,.343,1.986A1.187,1.187,0,0,0,7.422-2.109Zm8.78-9.765V-9.51h1.564v2.057H16.2V-3.1a1.111,1.111,0,0,0,.193.747,1.037,1.037,0,0,0,.765.211A4.345,4.345,0,0,0,17.9-2.2V-.079a5.466,5.466,0,0,1-1.67.255A3.1,3.1,0,0,1,13.97-.545a2.954,2.954,0,0,1-.729-2.188v-4.72H12.028V-9.51h1.213v-2.364ZM24.6-1.028a3.054,3.054,0,0,1-2.54,1.2,3,3,0,0,1-2.369-.91,3.826,3.826,0,0,1-.8-2.615V-9.51h2.962v6.179a1.065,1.065,0,0,0,1.187,1.222,1.548,1.548,0,0,0,1.45-.729V-9.51h2.979V0H24.684ZM34.44,0a3.344,3.344,0,0,1-.281-.853A2.754,2.754,0,0,1,31.874.176a3.374,3.374,0,0,1-2.285-.813,2.588,2.588,0,0,1-.94-2.043,2.66,2.66,0,0,1,1.143-2.338,5.821,5.821,0,0,1,3.322-.791h.914v-.5q0-1.316-1.134-1.316a.927.927,0,0,0-1.055,1.042H28.876A2.655,2.655,0,0,1,30.05-8.825a4.931,4.931,0,0,1,2.993-.86,4.323,4.323,0,0,1,2.874.888A3.086,3.086,0,0,1,37-6.363v4.21a4.311,4.311,0,0,0,.4,2V0ZM32.585-1.934a1.652,1.652,0,0,0,.918-.237,1.487,1.487,0,0,0,.523-.536V-4.228h-.861q-1.547,0-1.547,1.389a.848.848,0,0,0,.272.655A.986.986,0,0,0,32.585-1.934ZM41.761,0H38.791V-13.5h2.971Z" transform="translate(502.422 5545.125)" fill="#12263f"/>
    <path id="Trazado_825368" data-name="Trazado 825368" d="M-39.072-12.8v8.376a4.814,4.814,0,0,1-.606,2.465,3.929,3.929,0,0,1-1.74,1.586A6.131,6.131,0,0,1-44.1.176a5.3,5.3,0,0,1-3.683-1.213,4.326,4.326,0,0,1-1.371-3.322V-12.8h3.1v8.5Q-46-2.2-44.1-2.2a1.889,1.889,0,0,0,1.45-.527,2.465,2.465,0,0,0,.492-1.714V-12.8ZM-32.3-2.672a.684.684,0,0,0-.4-.606,6.016,6.016,0,0,0-1.5-.475A6.853,6.853,0,0,1-36.031-4.4a3.062,3.062,0,0,1-1.1-.971,2.319,2.319,0,0,1-.378-1.31,2.628,2.628,0,0,1,1.081-2.158,4.453,4.453,0,0,1,2.83-.848,4.934,4.934,0,0,1,3.023.853A2.666,2.666,0,0,1-29.43-6.592H-32.4q0-1.143-1.2-1.143a1.194,1.194,0,0,0-.782.259.8.8,0,0,0-.316.646.737.737,0,0,0,.387.642,3.654,3.654,0,0,0,1.235.4,10.671,10.671,0,0,1,1.49.378A2.706,2.706,0,0,1-29.448-2.76,2.491,2.491,0,0,1-30.6-.642,5.068,5.068,0,0,1-33.6.176a5.172,5.172,0,0,1-2.18-.439,3.645,3.645,0,0,1-1.494-1.2,2.707,2.707,0,0,1-.536-1.591h2.769a1.145,1.145,0,0,0,.439.962,1.808,1.808,0,0,0,1.081.3,1.422,1.422,0,0,0,.91-.246A.787.787,0,0,0-32.3-2.672Zm3.867-2.171a5.613,5.613,0,0,1,.554-2.536,3.96,3.96,0,0,1,1.591-1.709,4.791,4.791,0,0,1,2.435-.6,4.373,4.373,0,0,1,3.366,1.323,5.076,5.076,0,0,1,1.23,3.6v.105A4.925,4.925,0,0,1-20.5-1.129,4.384,4.384,0,0,1-23.84.176,4.434,4.434,0,0,1-27.1-1.042a4.761,4.761,0,0,1-1.327-3.3Zm2.962.185a3.538,3.538,0,0,0,.413,1.934,1.376,1.376,0,0,0,1.222.615q1.582,0,1.617-2.435v-.3q0-2.558-1.635-2.558-1.485,0-1.608,2.206ZM-8.117,0A3.344,3.344,0,0,1-8.4-.853,2.754,2.754,0,0,1-10.683.176a3.374,3.374,0,0,1-2.285-.813,2.588,2.588,0,0,1-.94-2.043,2.66,2.66,0,0,1,1.143-2.338A5.821,5.821,0,0,1-9.444-5.81h.914v-.5q0-1.316-1.134-1.316a.927.927,0,0,0-1.055,1.042H-13.68a2.655,2.655,0,0,1,1.173-2.239,4.931,4.931,0,0,1,2.993-.86A4.323,4.323,0,0,1-6.64-8.8,3.086,3.086,0,0,1-5.559-6.363v4.21a4.311,4.311,0,0,0,.4,2V0ZM-9.971-1.934a1.652,1.652,0,0,0,.918-.237,1.487,1.487,0,0,0,.523-.536V-4.228h-.861q-1.547,0-1.547,1.389a.848.848,0,0,0,.272.655A.986.986,0,0,0-9.971-1.934ZM-1.2-9.51l.1,1.116A3.225,3.225,0,0,1,1.613-9.686,2.713,2.713,0,0,1,3.832-8.8a4.226,4.226,0,0,1,.76,2.672V0H1.622V-6a1.6,1.6,0,0,0-.29-1.059A1.342,1.342,0,0,0,.277-7.4a1.413,1.413,0,0,0-1.292.686V0H-3.977V-9.51ZM9.681-11.874V-9.51h1.564v2.057H9.681V-3.1a1.111,1.111,0,0,0,.193.747,1.037,1.037,0,0,0,.765.211,4.345,4.345,0,0,0,.738-.053V-.079a5.466,5.466,0,0,1-1.67.255A3.1,3.1,0,0,1,7.449-.545a2.954,2.954,0,0,1-.729-2.188v-4.72H5.506V-9.51H6.719v-2.364ZM17.011.176a4.889,4.889,0,0,1-3.542-1.305,4.507,4.507,0,0,1-1.354-3.4v-.246a5.84,5.84,0,0,1,.541-2.575,3.955,3.955,0,0,1,1.578-1.727,4.763,4.763,0,0,1,2.461-.611,4.117,4.117,0,0,1,3.164,1.244,4.887,4.887,0,0,1,1.16,3.467v1.151H15.13a2.135,2.135,0,0,0,.694,1.257,2.066,2.066,0,0,0,1.389.457,2.662,2.662,0,0,0,2.2-.984l1.354,1.6A3.784,3.784,0,0,1,19.2-.277,5.3,5.3,0,0,1,17.011.176ZM16.677-7.4q-1.3,0-1.547,1.723h2.988v-.229a1.467,1.467,0,0,0-.36-1.1A1.434,1.434,0,0,0,16.677-7.4Zm11.285.571-.976-.07a1.752,1.752,0,0,0-1.793.879V0H22.232V-9.51h2.777l.1,1.222a2.294,2.294,0,0,1,2.083-1.4,2.888,2.888,0,0,1,.826.105ZM32.155,0H29.184V-9.51h2.971ZM29.008-11.962A1.322,1.322,0,0,1,29.465-13a1.724,1.724,0,0,1,1.187-.4,1.724,1.724,0,0,1,1.187.4,1.322,1.322,0,0,1,.457,1.037,1.322,1.322,0,0,1-.457,1.037,1.724,1.724,0,0,1-1.187.4,1.724,1.724,0,0,1-1.187-.4A1.322,1.322,0,0,1,29.008-11.962Zm4.6,7.119a5.613,5.613,0,0,1,.554-2.536A3.96,3.96,0,0,1,35.75-9.088a4.791,4.791,0,0,1,2.435-.6A4.373,4.373,0,0,1,41.55-8.363a5.076,5.076,0,0,1,1.23,3.6v.105a4.925,4.925,0,0,1-1.235,3.529A4.384,4.384,0,0,1,38.2.176a4.434,4.434,0,0,1-3.261-1.217,4.761,4.761,0,0,1-1.327-3.3Zm2.962.185a3.538,3.538,0,0,0,.413,1.934,1.376,1.376,0,0,0,1.222.615q1.582,0,1.617-2.435v-.3q0-2.558-1.635-2.558-1.485,0-1.608,2.206ZM49.838-6.829l-.976-.07a1.752,1.752,0,0,0-1.793.879V0H44.108V-9.51h2.777l.1,1.222a2.294,2.294,0,0,1,2.083-1.4,2.888,2.888,0,0,1,.826.105Z" transform="translate(680.954 5545.125)" fill="#12263f"/>
    <path id="Trazado_825363" data-name="Trazado 825363" d="M-55.534-4.764-56.8-3.375V0h-3.085V-12.8H-56.8v5.643l1.072-1.626,2.76-4.017h3.814l-4.324,5.66L-49.153,0h-3.656ZM-45.382,0h-2.971V-9.51h2.971Zm-3.146-11.962A1.322,1.322,0,0,1-48.072-13a1.724,1.724,0,0,1,1.187-.4A1.724,1.724,0,0,1-45.7-13a1.322,1.322,0,0,1,.457,1.037,1.322,1.322,0,0,1-.457,1.037,1.724,1.724,0,0,1-1.187.4,1.724,1.724,0,0,1-1.187-.4A1.322,1.322,0,0,1-48.529-11.962ZM-40.434,0H-43.4V-13.5h2.971Zm1.45-4.843a5.613,5.613,0,0,1,.554-2.536,3.96,3.96,0,0,1,1.591-1.709,4.791,4.791,0,0,1,2.435-.6,4.373,4.373,0,0,1,3.366,1.323,5.076,5.076,0,0,1,1.23,3.6v.105a4.925,4.925,0,0,1-1.235,3.529A4.384,4.384,0,0,1-34.387.176a4.434,4.434,0,0,1-3.261-1.217,4.761,4.761,0,0,1-1.327-3.3Zm2.962.185a3.538,3.538,0,0,0,.413,1.934,1.376,1.376,0,0,0,1.222.615q1.582,0,1.617-2.435v-.3Q-32.77-7.4-34.4-7.4q-1.485,0-1.608,2.206Zm7.172-.167a6.421,6.421,0,0,1,.475-2.549,3.821,3.821,0,0,1,1.362-1.709,3.591,3.591,0,0,1,2.065-.6,2.855,2.855,0,0,1,2.32,1l.105-.826h2.689V-.36a4.009,4.009,0,0,1-.584,2.184,3.75,3.75,0,0,1-1.692,1.424,6.219,6.219,0,0,1-2.566.5,5.365,5.365,0,0,1-2.026-.4A3.657,3.657,0,0,1-28.2,2.32L-26.96.58a2.716,2.716,0,0,0,2.18.976A1.764,1.764,0,0,0-22.812-.466v-.3a2.781,2.781,0,0,1-2.153.94,3.437,3.437,0,0,1-2.812-1.332A5.517,5.517,0,0,1-28.85-4.72Zm2.971.185a3.383,3.383,0,0,0,.439,1.85,1.386,1.386,0,0,0,1.23.681,1.573,1.573,0,0,0,1.4-.642v-4a1.534,1.534,0,0,0-1.38-.65,1.4,1.4,0,0,0-1.239.708A3.858,3.858,0,0,0-25.879-4.641ZM-12.4-6.829l-.976-.07a1.752,1.752,0,0,0-1.793.879V0h-2.962V-9.51h2.777l.1,1.222a2.294,2.294,0,0,1,2.083-1.4,2.888,2.888,0,0,1,.826.105ZM-6.236,0a3.344,3.344,0,0,1-.281-.853A2.754,2.754,0,0,1-8.8.176a3.374,3.374,0,0,1-2.285-.813,2.588,2.588,0,0,1-.94-2.043,2.66,2.66,0,0,1,1.143-2.338A5.821,5.821,0,0,1-7.563-5.81h.914v-.5q0-1.316-1.134-1.316A.927.927,0,0,0-8.837-6.587H-11.8a2.655,2.655,0,0,1,1.173-2.239,4.931,4.931,0,0,1,2.993-.86A4.323,4.323,0,0,1-4.759-8.8,3.086,3.086,0,0,1-3.678-6.363v4.21a4.311,4.311,0,0,0,.4,2V0ZM-8.09-1.934a1.652,1.652,0,0,0,.918-.237,1.487,1.487,0,0,0,.523-.536V-4.228H-7.51q-1.547,0-1.547,1.389a.848.848,0,0,0,.272.655A.986.986,0,0,0-8.09-1.934ZM.76-9.51l.1,1.116A3.27,3.27,0,0,1,3.573-9.686,2.407,2.407,0,0,1,6.007-8.253,3.165,3.165,0,0,1,8.8-9.686q2.892,0,2.971,3.5V0H8.8V-6a1.813,1.813,0,0,0-.246-1.063,1.048,1.048,0,0,0-.9-.334,1.4,1.4,0,0,0-1.31.782l.009.123V0H3.388V-5.985a1.906,1.906,0,0,0-.237-1.081A1.045,1.045,0,0,0,2.246-7.4a1.42,1.42,0,0,0-1.3.782V0H-2.017V-9.51ZM13.091-4.843a5.613,5.613,0,0,1,.554-2.536,3.96,3.96,0,0,1,1.591-1.709,4.791,4.791,0,0,1,2.435-.6,4.373,4.373,0,0,1,3.366,1.323,5.076,5.076,0,0,1,1.23,3.6v.105a4.925,4.925,0,0,1-1.235,3.529A4.384,4.384,0,0,1,17.688.176a4.434,4.434,0,0,1-3.261-1.217,4.761,4.761,0,0,1-1.327-3.3Zm2.962.185a3.538,3.538,0,0,0,.413,1.934,1.376,1.376,0,0,0,1.222.615q1.582,0,1.617-2.435v-.3q0-2.558-1.635-2.558-1.485,0-1.608,2.206Zm12.5,1.986a.684.684,0,0,0-.4-.606,6.016,6.016,0,0,0-1.5-.475A6.853,6.853,0,0,1,24.825-4.4a3.062,3.062,0,0,1-1.1-.971,2.319,2.319,0,0,1-.378-1.31,2.628,2.628,0,0,1,1.081-2.158,4.453,4.453,0,0,1,2.83-.848,4.934,4.934,0,0,1,3.023.853,2.666,2.666,0,0,1,1.143,2.241H28.455q0-1.143-1.2-1.143a1.194,1.194,0,0,0-.782.259.8.8,0,0,0-.316.646.737.737,0,0,0,.387.642,3.654,3.654,0,0,0,1.235.4,10.671,10.671,0,0,1,1.49.378A2.706,2.706,0,0,1,31.408-2.76,2.491,2.491,0,0,1,30.252-.642a5.068,5.068,0,0,1-2.993.817,5.172,5.172,0,0,1-2.18-.439,3.645,3.645,0,0,1-1.494-1.2,2.707,2.707,0,0,1-.536-1.591h2.769a1.145,1.145,0,0,0,.439.962,1.808,1.808,0,0,0,1.081.3,1.422,1.422,0,0,0,.91-.246A.787.787,0,0,0,28.551-2.672ZM36.9-4.825a5.809,5.809,0,0,1,.976-3.56,3.211,3.211,0,0,1,2.725-1.3,2.731,2.731,0,0,1,2.145,1V-13.5h2.971V0H43.053L42.9-1.02a2.8,2.8,0,0,1-2.32,1.2,3.205,3.205,0,0,1-2.689-1.3A5.993,5.993,0,0,1,36.9-4.825Zm2.962.185q0,2.531,1.477,2.531a1.458,1.458,0,0,0,1.406-.826V-6.557A1.419,1.419,0,0,0,41.357-7.4q-1.371,0-1.485,2.215ZM52,.176a4.889,4.889,0,0,1-3.542-1.305,4.507,4.507,0,0,1-1.354-3.4v-.246a5.84,5.84,0,0,1,.541-2.575,3.955,3.955,0,0,1,1.578-1.727,4.763,4.763,0,0,1,2.461-.611,4.117,4.117,0,0,1,3.164,1.244,4.887,4.887,0,0,1,1.16,3.467v1.151H50.12a2.135,2.135,0,0,0,.694,1.257,2.066,2.066,0,0,0,1.389.457,2.662,2.662,0,0,0,2.2-.984l1.354,1.6A3.784,3.784,0,0,1,54.185-.277,5.3,5.3,0,0,1,52,.176ZM51.667-7.4q-1.3,0-1.547,1.723h2.988v-.229a1.467,1.467,0,0,0-.36-1.1A1.434,1.434,0,0,0,51.667-7.4ZM-54.765,25V17.547h-1.38V15.49h1.38v-.756a3.286,3.286,0,0,1,.958-2.522,3.785,3.785,0,0,1,2.689-.9,5.89,5.89,0,0,1,1.389.185l.009,2.18a2.706,2.706,0,0,0-.729-.079q-1.345,0-1.345,1.16v.729h1.854v2.057h-1.854V25Zm5.493-4.843a5.613,5.613,0,0,1,.554-2.536,3.96,3.96,0,0,1,1.591-1.709,4.791,4.791,0,0,1,2.435-.6,4.373,4.373,0,0,1,3.366,1.323,5.076,5.076,0,0,1,1.23,3.6v.105a4.925,4.925,0,0,1-1.235,3.529,4.384,4.384,0,0,1-3.344,1.305,4.434,4.434,0,0,1-3.261-1.217,4.761,4.761,0,0,1-1.327-3.3Zm2.962.185a3.538,3.538,0,0,0,.413,1.934,1.376,1.376,0,0,0,1.222.615q1.582,0,1.617-2.435v-.3q0-2.558-1.635-2.558-1.485,0-1.608,2.206Zm13.271-2.171-.976-.07a1.752,1.752,0,0,0-1.793.879V25h-2.962V15.49h2.777l.1,1.222a2.294,2.294,0,0,1,2.083-1.4,2.888,2.888,0,0,1,.826.105Zm6.82,0-.976-.07a1.752,1.752,0,0,0-1.793.879V25h-2.962V15.49h2.777l.1,1.222a2.294,2.294,0,0,1,2.083-1.4,2.888,2.888,0,0,1,.826.105ZM-20.057,25a3.344,3.344,0,0,1-.281-.853,2.754,2.754,0,0,1-2.285,1.028,3.374,3.374,0,0,1-2.285-.813,2.588,2.588,0,0,1-.94-2.043,2.66,2.66,0,0,1,1.143-2.338,5.821,5.821,0,0,1,3.322-.791h.914v-.5q0-1.316-1.134-1.316a.927.927,0,0,0-1.055,1.042H-25.62a2.655,2.655,0,0,1,1.173-2.239,4.931,4.931,0,0,1,2.993-.86,4.323,4.323,0,0,1,2.874.888A3.086,3.086,0,0,1-17.5,18.637v4.21a4.311,4.311,0,0,0,.4,2V25Zm-1.854-1.934a1.652,1.652,0,0,0,.918-.237,1.487,1.487,0,0,0,.523-.536V20.772h-.861q-1.547,0-1.547,1.389a.848.848,0,0,0,.272.655A.986.986,0,0,0-21.911,23.066Zm9.237-7.576v9.835a3.452,3.452,0,0,1-.967,2.6,3.714,3.714,0,0,1-2.672.914,6.308,6.308,0,0,1-1.4-.149V26.45a5.667,5.667,0,0,0,.835.079,1.084,1.084,0,0,0,1.23-1.222V15.49Zm-3.19-2.452A1.322,1.322,0,0,1-15.407,12a1.724,1.724,0,0,1,1.187-.4,1.724,1.724,0,0,1,1.187.4,1.322,1.322,0,0,1,.457,1.037,1.322,1.322,0,0,1-.457,1.037,1.724,1.724,0,0,1-1.187.4,1.724,1.724,0,0,1-1.187-.4A1.322,1.322,0,0,1-15.864,13.038ZM-6.4,25.176A4.889,4.889,0,0,1-9.94,23.871a4.507,4.507,0,0,1-1.354-3.4v-.246a5.84,5.84,0,0,1,.541-2.575,3.955,3.955,0,0,1,1.578-1.727,4.763,4.763,0,0,1,2.461-.611,4.117,4.117,0,0,1,3.164,1.244,4.887,4.887,0,0,1,1.16,3.467v1.151H-8.279a2.135,2.135,0,0,0,.694,1.257,2.066,2.066,0,0,0,1.389.457A2.662,2.662,0,0,0-4,21.906l1.354,1.6a3.784,3.784,0,0,1-1.569,1.217A5.3,5.3,0,0,1-6.4,25.176ZM-6.732,17.6q-1.3,0-1.547,1.723h2.988v-.229a1.467,1.467,0,0,0-.36-1.1A1.434,1.434,0,0,0-6.732,17.6Zm18.844,2.716a5.735,5.735,0,0,1-1,3.538A3.2,3.2,0,0,1,8.42,25.176a2.742,2.742,0,0,1-2.153-.958v4.438H3.3V15.49H6.073l.088.879A2.742,2.742,0,0,1,8.4,15.314a3.224,3.224,0,0,1,2.733,1.3,5.805,5.805,0,0,1,.976,3.564Zm-2.962-.185q0-2.531-1.477-2.531a1.394,1.394,0,0,0-1.406.756V22.1a1.439,1.439,0,0,0,1.424.791q1.415,0,1.459-2.443Zm3.894.026a5.613,5.613,0,0,1,.554-2.536,3.96,3.96,0,0,1,1.591-1.709,4.791,4.791,0,0,1,2.435-.6,4.373,4.373,0,0,1,3.366,1.323,5.076,5.076,0,0,1,1.23,3.6v.105a4.925,4.925,0,0,1-1.235,3.529,4.384,4.384,0,0,1-3.344,1.305,4.434,4.434,0,0,1-3.261-1.217,4.761,4.761,0,0,1-1.327-3.3ZM16,20.342a3.538,3.538,0,0,0,.413,1.934,1.376,1.376,0,0,0,1.222.615q1.582,0,1.617-2.435v-.3q0-2.558-1.635-2.558-1.485,0-1.608,2.206Zm13.271-2.171L28.3,18.1a1.752,1.752,0,0,0-1.793.879V25H23.546V15.49h2.777l.1,1.222a2.294,2.294,0,0,1,2.083-1.4,2.888,2.888,0,0,1,.826.105Zm8.35-2.681.1,1.116a3.27,3.27,0,0,1,2.716-1.292,2.407,2.407,0,0,1,2.435,1.433,3.165,3.165,0,0,1,2.795-1.433q2.892,0,2.971,3.5V25H45.668V19a1.813,1.813,0,0,0-.246-1.063,1.048,1.048,0,0,0-.9-.334,1.4,1.4,0,0,0-1.31.782l.009.123V25H40.254V19.015a1.906,1.906,0,0,0-.237-1.081,1.045,1.045,0,0,0-.905-.334,1.42,1.42,0,0,0-1.3.782V25H34.849V15.49Zm18,3.647h-5.52v-1.3l2.514-2.216a3.124,3.124,0,0,0,.655-.76,1.307,1.307,0,0,0,.215-.549q0-.668-.747-.668a.737.737,0,0,0-.6.264.969.969,0,0,0-.22.642H49.948a2.3,2.3,0,0,1,.751-1.745,2.725,2.725,0,0,1,1.947-.708,3.314,3.314,0,0,1,2.083.571,1.964,1.964,0,0,1,.729,1.644,2.1,2.1,0,0,1-.374,1.208A7.354,7.354,0,0,1,53.438,17l-.712.594h2.9Z" transform="translate(1091.457 5529.202)" fill="#12263f"/>
    <line id="Línea_1169" data-name="Línea 1169" x1="1238.858" y2="2.328" transform="translate(181.098 5610.5)" fill="none" stroke="#e1e1e1" stroke-width="1"/>
    <line id="Línea_1172" data-name="Línea 1172" y2="110.818" transform="translate(1419.631 5503.625)" fill="none" stroke="#e1e1e1" stroke-width="1"/>
    <line id="Línea_1164" data-name="Línea 1164" y2="38.095" transform="translate(425.962 5574.405)" fill="none" stroke="#e1e1e1" stroke-width="1"/>
    <line id="Línea_1166" data-name="Línea 1166" y2="38.095" transform="translate(597.619 5574.405)" fill="none" stroke="#e1e1e1" stroke-width="1"/>
    <line id="Línea_1168" data-name="Línea 1168" y2="37.095" transform="translate(887.293 5574.405)" fill="none" stroke="#e1e1e1" stroke-width="1"/>
    <line id="Línea_1176" data-name="Línea 1176" y2="37.095" transform="translate(771.499 5574.405)" fill="none" stroke="#e1e1e1" stroke-width="1"/>
    <line id="Línea_1173" data-name="Línea 1173" y2="36.17" transform="translate(998.364 5574.405)" fill="none" stroke="#e1e1e1" stroke-width="1"/>
    <line id="Línea_1175" data-name="Línea 1175" y2="36.17" transform="translate(1199.556 5574.405)" fill="none" stroke="#e1e1e1" stroke-width="1"/>
    <line id="Línea_1209" data-name="Línea 1209" y2="36.17" transform="translate(1294.394 5574.506)" fill="none" stroke="#e1e1e1" stroke-width="1"/>
    <line id="Línea_1165" data-name="Línea 1165" y2="36.17" transform="translate(285.931 5578.273)" fill="none" stroke="#e1e1e1" stroke-width="1"/>
    <line id="Línea_1162" data-name="Línea 1162" y2="112.818" transform="translate(180.545 5501.625)" fill="none" stroke="#e1e1e1" stroke-width="1"/>
    <line id="Línea_1167" data-name="Línea 1167" x1="1239.455" transform="translate(180.545 5614.443)" fill="none" stroke="#e1e1e1" stroke-width="1"/>
    <line id="Línea_1170" data-name="Línea 1170" x1="1032.053" y2="1.161" transform="translate(180.545 5614.5)" fill="none" stroke="#e1e1e1" stroke-width="1"/>
  </g>
</svg>
