<svg xmlns="http://www.w3.org/2000/svg" width="420" height="258" viewBox="0 0 420 258">
  <g id="Grupo_1075177" data-name="Grupo 1075177" transform="translate(-1000 -4715)">
    <rect id="Rectángulo_376126" data-name="Rectángulo 376126" width="420" height="258" rx="9" transform="translate(1000 4715)" fill="none"/>
    <g id="_8" data-name="8" transform="translate(1027.159 4722)">
      <path id="Trazado_628791" data-name="Trazado 628791" d="M735.276,106.614v7.139H684.539v-7.139c.833-8.568-9.634-11.9-11.246-18.981-2.816-14.162,18.477-12.912,26.52-21.243a2.222,2.222,0,0,0,.4-3.074,9.36,9.36,0,0,0-2.008-2.762c-4.669-4.482-11.275-8.285-13.183-14.67l5.831-5.831a10.946,10.946,0,0,1,15.474,0l33.322,33.322c-6.344,2.8-14.162,3.749-19.31,8.843-1.208,1.666-1.612,3.749,0,5.415C726.754,92.627,735.985,97.213,735.276,106.614Z" transform="translate(-412.27 -36.663)" fill="#d2e8ef"/>
      <path id="Trazado_628792" data-name="Trazado 628792" d="M791.436,77.714l-1.645-4.124-1.649,4.124-4.011,1.537,3.944,1.266,1.716,4.394,1.716-4.394,3.944-1.266Z" transform="translate(-463.777 -42.938)" fill="#d7e7f3"/>
      <path id="Trazado_628793" data-name="Trazado 628793" d="M755.195,63.384l-.787-1.974-.791,1.974-1.916.733,1.887.6.821,2.1.816-2.1,1.887-.6Z" transform="translate(-444.855 -35.831)" fill="#d7e7f3"/>
      <path id="Trazado_628794" data-name="Trazado 628794" d="M671.089,151.346l-.662-1.666-.666,1.666-1.62.621,1.591.508.7,1.774.692-1.774,1.591-.508Z" transform="translate(-396.1 -87.334)" fill="#d7e7f3"/>
      <path id="Trazado_628795" data-name="Trazado 628795" d="M760.884,158.735a4.781,4.781,0,0,1,3.524,1.47,5.254,5.254,0,0,1,.833,1.091,1.629,1.629,0,0,1-1.429,2.424H763.7a1.612,1.612,0,0,1-1.383-.833,1.755,1.755,0,0,0-.271-.346,1.666,1.666,0,0,0-2.824,1.166v3.332H755.89v-3.332a5,5,0,0,1,5-5Zm0,9.972a1.591,1.591,0,0,0,1.166-.487,1.523,1.523,0,0,0,.271-.346,1.616,1.616,0,0,1,1.383-.833h.121a1.633,1.633,0,0,1,1.429,2.428,5.108,5.108,0,0,1-.833,1.1,5,5,0,0,1-8.51-3.532h3.332a1.666,1.666,0,0,0,1.666,1.666Z" transform="translate(-460.612 -107.765)" fill="#5a739c"/>
      <path id="Trazado_628796" data-name="Trazado 628796" d="M788.656,158.79a5,5,0,0,1,5,5v3.332a5,5,0,1,1-9.972,0v-3.332a4.819,4.819,0,0,1,1.462-3.515A4.77,4.77,0,0,1,788.656,158.79Zm0,9.967a1.578,1.578,0,0,0,1.166-.483,1.6,1.6,0,0,0,.487-1.17v-3.332a1.666,1.666,0,0,0-3.332,0V167.1a1.579,1.579,0,0,0,.483,1.166,1.6,1.6,0,0,0,1.191.487Z" transform="translate(-476.821 -107.811)" fill="#5a739c"/>
      <path id="Trazado_628797" data-name="Trazado 628797" d="M813.058,176.87a2.162,2.162,0,0,1,2.162,2.166h0a1.45,1.45,0,0,1-1.445,1.445H813.1a.775.775,0,0,0-.587.246.7.7,0,0,0-.167.358.1.1,0,0,0,.023.077.1.1,0,0,0,.073.035h2.053a.725.725,0,0,1,.725.725h0a.725.725,0,0,1-.725.721h-2.87a.725.725,0,0,1-.725-.721V181.2a2.154,2.154,0,0,1,2.158-2.162h.3a.3.3,0,0,0,.225-.5h0a.7.7,0,0,0-.516-.212h-1.433a.721.721,0,0,1-.721-.721h0a.721.721,0,0,1,.721-.725Z" transform="translate(-492.709 -118.361)" fill="#5a739c"/>
      <path id="Trazado_628798" data-name="Trazado 628798" d="M713.763,112.479a2.541,2.541,0,0,1,1.875.779,2.8,2.8,0,0,1,.446.583.866.866,0,0,1-.762,1.287h-.058a.858.858,0,0,1-.737-.417.942.942,0,0,0-.142-.183.833.833,0,0,0-.621-.258.867.867,0,0,0-.625.258.833.833,0,0,0-.258.621v1.77h-1.77v-1.77a2.653,2.653,0,0,1,2.653-2.649Zm0,5.3a.866.866,0,0,0,.625-.258,1.135,1.135,0,0,0,.142-.183.833.833,0,0,1,.737-.437h.063a.866.866,0,0,1,.758,1.291,2.655,2.655,0,0,1-4.973-1.3h1.77a.857.857,0,0,0,.258.625.833.833,0,0,0,.616.258Z" transform="translate(-434.484 -80.79)" fill="#5a739c"/>
      <path id="Trazado_628799" data-name="Trazado 628799" d="M728.523,112.48a2.657,2.657,0,0,1,2.653,2.653v1.774a2.653,2.653,0,1,1-5.306,0v-1.77a2.657,2.657,0,0,1,2.649-2.653Zm0,5.307a.833.833,0,0,0,.621-.258.865.865,0,0,0,.258-.625v-1.77a.879.879,0,0,0-1.5-.621.832.832,0,0,0-.258.621v1.77A.887.887,0,0,0,728.523,117.787Z" transform="translate(-443.096 -80.791)" fill="#5a739c"/>
      <path id="Trazado_628800" data-name="Trazado 628800" d="M741.539,122.1a1.154,1.154,0,0,1,1.15,1.154h0a.767.767,0,0,1-.771.766h-.358a.416.416,0,0,0-.312.133.324.324,0,0,0-.087.192.054.054,0,0,0,.05.058h1.112a.387.387,0,0,1,.387.383h0a.387.387,0,0,1-.387.383h-1.529a.383.383,0,0,1-.383-.383V124.4a1.145,1.145,0,0,1,1.15-1.15h.154a.162.162,0,0,0,.121-.271h0a.367.367,0,0,0-.271-.112H740.8a.383.383,0,0,1-.383-.383h0a.387.387,0,0,1,.383-.387Z" transform="translate(-451.58 -86.404)" fill="#5a739c"/>
      <path id="Trazado_628801" data-name="Trazado 628801" d="M286.838,11.829,250.642,0l3.62,12.775L242.94,20.41l37.054,12.108Z" transform="translate(-148.007)" fill="#afc548"/>
      <path id="Trazado_628802" data-name="Trazado 628802" d="M362.705,148.422,348.577,136.88s-8.039,14.333,4.465,20.118Z" transform="translate(-221.471 -95.028)" fill="#f3ae91"/>
      <path id="Trazado_628803" data-name="Trazado 628803" d="M325.875,140.43a1.477,1.477,0,0,1-.183-.087,2.083,2.083,0,0,1-.875-2.807c1.666-3.195,3.936-4.1,5.536-4.307,4.74-.6,9.2,4.165,9.7,4.728a2.083,2.083,0,1,1-3.087,2.791h0c-.883-.966-3.89-3.67-6.1-3.386-.333.042-1.345.171-2.366,2.108A2.083,2.083,0,0,1,325.875,140.43Z" transform="translate(-208.954 -92.867)" fill="#f3ae91"/>
      <path id="Trazado_628804" data-name="Trazado 628804" d="M321.512,146.326l-.187-.083a2.083,2.083,0,0,1-.871-2.812c1.666-3.191,3.936-4.1,5.531-4.3,4.744-.6,9.205,4.165,9.7,4.728a2.083,2.083,0,0,1-3.091,2.787c-.879-.966-3.89-3.665-6.094-3.386-.333.046-1.349.175-2.366,2.112A2.083,2.083,0,0,1,321.512,146.326Z" transform="translate(-206.406 -96.309)" fill="#f3ae91"/>
      <path id="Trazado_628805" data-name="Trazado 628805" d="M324.183,155.155l-.183-.083a2.083,2.083,0,0,1-.875-2.812c1.666-3.195,3.936-4.1,5.536-4.3,4.74-.6,9.2,4.165,9.7,4.723a2.083,2.083,0,1,1-3.091,2.791c-.879-.966-3.89-3.665-6.094-3.386-.333.042-1.345.175-2.366,2.112A2.083,2.083,0,0,1,324.183,155.155Z" transform="translate(-207.965 -101.46)" fill="#f3ae91"/>
      <path id="Trazado_628806" data-name="Trazado 628806" d="M326.376,146.361a2.333,2.333,0,0,1-.862-.167l-.2-.1a2.282,2.282,0,0,1-.958-3.082.2.2,0,0,1,.271-.083.2.2,0,0,1,.083.271,1.879,1.879,0,0,0,.791,2.537,1.518,1.518,0,0,0,.167.079,1.874,1.874,0,0,0,2.374-.866c1.066-2.033,2.158-2.17,2.5-2.216a.2.2,0,0,1,.225.175.2.2,0,0,1-.175.225c-.308.037-1.25.158-2.212,2A2.27,2.27,0,0,1,326.376,146.361Z" transform="translate(-208.667 -98.444)" fill="#5f463c"/>
      <path id="Trazado_628807" data-name="Trazado 628807" d="M334.13,152.419a.2.2,0,0,1-.146-.067c-.862-.95-3.807-3.595-5.923-3.332-.308.042-1.25.162-2.212,2a2.27,2.27,0,0,1-2.878,1.054.2.2,0,0,1-.112-.262.2.2,0,0,1,.263-.108,1.87,1.87,0,0,0,2.37-.841c1.066-2.033,2.162-2.17,2.52-2.216,2.291-.3,5.369,2.462,6.269,3.449a.2.2,0,0,1,0,.283A.191.191,0,0,1,334.13,152.419Z" transform="translate(-207.941 -101.882)" fill="#5f463c"/>
      <path id="Trazado_628808" data-name="Trazado 628808" d="M330.715,166.348a2.057,2.057,0,0,1-.446-.25,2.083,2.083,0,0,1-.454-2.916,6.372,6.372,0,0,1,4.3-2.691,9.1,9.1,0,0,1,6.181,1.87,2.092,2.092,0,0,1-2.562,3.307,4.879,4.879,0,0,0-3.066-1.025,2.166,2.166,0,0,0-1.5,1.02A2.083,2.083,0,0,1,330.715,166.348Z" transform="translate(-211.773 -108.772)" fill="#f3ae91"/>
      <path id="Trazado_628809" data-name="Trazado 628809" d="M326.5,161.058a2.258,2.258,0,0,1-.862-.171.2.2,0,0,1-.108-.262.192.192,0,0,1,.258-.108,1.879,1.879,0,0,0,2.374-.871c1.066-2.028,2.158-2.17,2.5-2.216,1.412-.179,3.066.787,4.2,1.624a.2.2,0,1,1-.237.325c-1.079-.8-2.637-1.712-3.915-1.549-.308.042-1.25.158-2.212,2A2.274,2.274,0,0,1,326.5,161.058Z" transform="translate(-209.496 -107.005)" fill="#5f463c"/>
      <path id="Trazado_628810" data-name="Trazado 628810" d="M340.727,112.59a.63.63,0,0,1-.192-.029.6.6,0,0,1-.379-.762L356.38,63.228a.6.6,0,0,1,1.141.383L341.3,112.178A.6.6,0,0,1,340.727,112.59Z" transform="translate(-218.024 -51.84)" fill="#5f463c"/>
      <path id="Trazado_628811" data-name="Trazado 628811" d="M343.2,147.14a11.164,11.164,0,0,1-2.987-5.3l-3.632-3.957a2.083,2.083,0,1,1,3.062-2.824l4.019,4.374c.262.287,6.664,2.666,7,3.749s-.117,3.907-.979,4.661S347.048,150.151,343.2,147.14Z" transform="translate(-215.631 -93.575)" fill="#f3ae91"/>
      <path id="Trazado_628812" data-name="Trazado 628812" d="M346.2,149.372h-.054c-4.94-1.358-5.7-4.661-6.248-7.081-.05-.208-.1-.417-.146-.608l-3.595-3.928a2.282,2.282,0,1,1,3.361-3.086l4.015,4.373a.2.2,0,0,1-.3.271l-4.015-4.369a1.879,1.879,0,0,0-2.77,2.541l3.67,3.994v.05c.054.217.1.437.158.671.529,2.312,1.25,5.481,5.965,6.777a.2.2,0,0,1-.054.4Z" transform="translate(-215.356 -93.307)" fill="#5f463c"/>
      <path id="Trazado_628813" data-name="Trazado 628813" d="M349.206,170.89a.208.208,0,0,1-.146-.062c-2.537-2.682-2.174-4.923-2.158-5.019a.2.2,0,0,1,.4.071s-.333,2.145,2.053,4.669a.2.2,0,0,1,0,.287A.191.191,0,0,1,349.206,170.89Z" transform="translate(-221.962 -111.81)" fill="#5f463c"/>
      <path id="Trazado_628814" data-name="Trazado 628814" d="M326.147,70.417s-14.708-2.741-8.918-14.737C317.229,55.68,329.791,56.838,326.147,70.417Z" transform="translate(-203.877 -47.649)" fill="#7f9929"/>
      <path id="Trazado_628815" data-name="Trazado 628815" d="M336.85,84.769a.2.2,0,0,1-.192-.15,37.172,37.172,0,0,0-4.111-9.343.2.2,0,1,1,.325-.233,37.511,37.511,0,0,1,4.165,9.472.2.2,0,0,1-.142.246Z" transform="translate(-213.58 -58.899)" fill="#5f463c"/>
      <path id="Trazado_628816" data-name="Trazado 628816" d="M350.424,84.757s-1.358,4.736-5.894,2.5C344.53,87.257,345.255,82.866,350.424,84.757Z" transform="translate(-220.594 -64.339)" fill="#7f9929"/>
      <path id="Trazado_628817" data-name="Trazado 628817" d="M341.461,90.112a.2.2,0,0,1-.133-.05.2.2,0,0,1,0-.283A11.828,11.828,0,0,1,345.7,87.03a.2.2,0,0,1,.183.217.2.2,0,0,1-.179.183,12.032,12.032,0,0,0-4.078,2.616.2.2,0,0,1-.167.067Z" transform="translate(-218.691 -65.941)" fill="#5f463c"/>
      <path id="Trazado_628818" data-name="Trazado 628818" d="M414.54,159.1c-.833-3.311-4.165-6.394-7.527-5.79-4.465.8-13.816,3.911-18.973,5.686l-21.522-5.523-4.5,13.329s16.661,5.956,24.029,7.814a11.1,11.1,0,0,0,5.14.071c7.635-1.712,19.219-5.027,19.219-5.027C418.505,167.579,414.54,159.1,414.54,159.1Z" transform="translate(-230.799 -104.571)" fill="#d5cdc2"/>
      <path id="Trazado_628819" data-name="Trazado 628819" d="M386.435,157.414h-.05l-14.37-3.69-.416,1.287a.2.2,0,0,1-.383-.129l.554-1.641,14.733,3.782a.2.2,0,0,1,.142.246A.2.2,0,0,1,386.435,157.414Z" transform="translate(-236.162 -104.573)" fill="#5f463c"/>
      <path id="Trazado_628820" data-name="Trazado 628820" d="M455.661,159.383a10.122,10.122,0,0,1,11.775-8.393c8.61,1.529,21.305,4.665,27.357,10.5,7.656,7.381,7.135,27.412,6.281,37.816-.083,1.008-40.615-5.482-41.169-7.081C454.74,177.239,454.6,166.376,455.661,159.383Z" transform="translate(-285.128 -103.169)" fill="#d5cdc2"/>
      <path id="Trazado_628821" data-name="Trazado 628821" d="M459.341,195.377a.2.2,0,0,1-.187-.133c-9.88-28.628-2.045-39.1-1.958-39.237a.2.2,0,0,1,.279-.062.2.2,0,0,1,.058.279c-.087.133-7.81,10.463,2,38.887a.208.208,0,0,1-.125.258Z" transform="translate(-284.564 -106.132)" fill="#5f463c"/>
      <path id="Trazado_628822" data-name="Trazado 628822" d="M480.458,158.848s2.878.954-2.845,14.67c-2.053,4.927-4.015,12.567-5.952,12.55-3.395-.029-3.857-18.09-2.249-22.859S480.458,158.848,480.458,158.848Z" transform="translate(-292.939 -107.84)" fill="#5a739c"/>
      <path id="Trazado_628823" data-name="Trazado 628823" d="M478.236,146.33l3.528,4.4a5.319,5.319,0,0,1,.417,6.069h0a5.719,5.719,0,0,1-9.534.383l-.916-1.275Z" transform="translate(-294.812 -100.541)" fill="#f3ae91"/>
      <path id="Trazado_628824" data-name="Trazado 628824" d="M477.263,163.323a5.894,5.894,0,0,1-4.8-2.462l-.687-.954a.2.2,0,0,1,.325-.233l.687.954a5.515,5.515,0,0,0,9.2-.371,5,5,0,0,0-.375-5.831l-1.32-1.666a.2.2,0,0,1,.312-.254l1.308,1.633a5.4,5.4,0,0,1,.416,6.29,5.9,5.9,0,0,1-4.832,2.862Z" transform="translate(-294.818 -104.101)" fill="#5f463c"/>
      <path id="Trazado_628825" data-name="Trazado 628825" d="M453.109,144.856a3.132,3.132,0,1,1-3.274-2.991,3.132,3.132,0,0,1,3.274,2.991Z" transform="translate(-280.293 -97.935)" fill="#f3ae91"/>
      <path id="Trazado_628826" data-name="Trazado 628826" d="M444.355,123.781c-.5,3.12,2.1,6.123,5.806,6.71s7.106-1.47,7.6-4.582-2.108-6.123-5.81-6.71S444.846,120.661,444.355,123.781Z" transform="translate(-278.804 -84.653)" fill="#47332b"/>
      <path id="Trazado_628827" data-name="Trazado 628827" d="M459.091,140.788a7.918,7.918,0,0,1-1.141-.058c-3.557-.417-5.886-3.211-6.6-6.877-.025-.121-.046-.242-.067-.367a12.676,12.676,0,0,1-.171-1.929v-.846c0-.212.021-.417.042-.641.7-7.914,3.441-10.2,8.88-10.313s9.947,4.5,10.063,10.3S464.53,140.684,459.091,140.788Z" transform="translate(-282.781 -85.036)" fill="#f3ae91"/>
      <path id="Trazado_628828" data-name="Trazado 628828" d="M473.61,142.393a1.058,1.058,0,0,1-.6.687c-.038.021-.079.033-.117.05l-.117.042a2.77,2.77,0,0,1-.65.121,1.076,1.076,0,0,1-.2,0,2.65,2.65,0,0,1-.641-.054,1.531,1.531,0,0,1-.317-.075,1.6,1.6,0,0,1-.15-.058c-.375-.15-.621-.387-.625-.65s.229-.516.6-.679a2.258,2.258,0,0,1,.566-.179h0a2.207,2.207,0,0,1,.3-.042h.221a1.8,1.8,0,0,1,.212,0,2.907,2.907,0,0,1,.417.054,1.421,1.421,0,0,1,.221.054,1.282,1.282,0,0,1,.233.079C473.368,141.885,473.61,142.122,473.61,142.393Z" transform="translate(-293.913 -97.754)" fill="#fff"/>
      <path id="Trazado_628829" data-name="Trazado 628829" d="M451.943,148.7a3.177,3.177,0,0,1-.662-.021,12.675,12.675,0,0,1-.171-1.928V145.9a3.01,3.01,0,0,1,.629-.1c1.216-.079,2.241.5,2.3,1.3S453.147,148.616,451.943,148.7Z" transform="translate(-282.781 -100.228)" fill="#dd704a"/>
      <path id="Trazado_628830" data-name="Trazado 628830" d="M491.145,144.766l-.246,2.874a.616.616,0,0,0,1.175.3l2.5-5.648-4.2-.416Z" transform="translate(-305.688 -97.945)" fill="#5f463c"/>
      <path id="Trazado_628831" data-name="Trazado 628831" d="M458.953,137.549c0,.562-3.653.691-3.674.129s1.4-1.216,2.412-1.25S458.933,136.986,458.953,137.549Z" transform="translate(-285.213 -94.763)" fill="#47332b"/>
      <path id="Trazado_628832" data-name="Trazado 628832" d="M456.768,157.093a6.89,6.89,0,0,0,.833.15,7.44,7.44,0,0,0,1.166.062,11.7,11.7,0,0,0,6.215-2.083.221.221,0,0,0,.058-.3.217.217,0,0,0-.3-.058,11.246,11.246,0,0,1-5.981,2,8.523,8.523,0,0,1-1.108-.058c-3.9-.462-6.581-4.065-6.664-8.959a.217.217,0,0,0-.416,0C450.653,152.627,453.1,156.222,456.768,157.093Z" transform="translate(-282.466 -101.337)" fill="#5f463c"/>
      <path id="Trazado_628833" data-name="Trazado 628833" d="M470.288,137.232c0,.562,3.69.45,3.674-.112s-1.474-1.12-2.5-1.091S470.272,136.666,470.288,137.232Z" transform="translate(-293.97 -94.53)" fill="#47332b"/>
      <path id="Trazado_628834" data-name="Trazado 628834" d="M458.43,117.581s1.071,7.547,12.733,11.367c0,0,3.207.121,3.961-.537C478.419,125.52,477.707,110.579,458.43,117.581Z" transform="translate(-287.052 -82.688)" fill="#5f463c"/>
      <path id="Trazado_628835" data-name="Trazado 628835" d="M473.782,142.385a1.25,1.25,0,0,1-.179.7c-.037.021-.079.033-.117.05l-.117.042a2.77,2.77,0,0,1-.65.121,1.078,1.078,0,0,1-.2,0,2.65,2.65,0,0,1-.641-.054,1.532,1.532,0,0,1-.317-.075,1.6,1.6,0,0,1-.15-.058,1.249,1.249,0,0,1-.2-.646,1.22,1.22,0,0,1,.171-.683,2.256,2.256,0,0,1,.566-.179h0a2.2,2.2,0,0,1,.3-.042h.221a1.8,1.8,0,0,1,.212,0,2.907,2.907,0,0,1,.417.054,1.418,1.418,0,0,1,.221.054,1.282,1.282,0,0,1,.233.079A1.22,1.22,0,0,1,473.782,142.385Z" transform="translate(-294.506 -97.754)" fill="#5f463c"/>
      <path id="Trazado_628836" data-name="Trazado 628836" d="M470.815,131.53a.216.216,0,1,0,.117-.417c-11.392-3.749-12.55-11.13-12.575-11.2a.217.217,0,0,0-.417.058c0,.079,1.208,7.727,12.871,11.542Z" transform="translate(-286.766 -85.046)" fill="#47332b"/>
      <path id="Trazado_628837" data-name="Trazado 628837" d="M459.607,142.674a.716.716,0,0,1-.387.579h0l-.087.05a2.079,2.079,0,0,1-.308.133.165.165,0,0,0-.108.029,3.335,3.335,0,0,1-.537.1,1.816,1.816,0,0,1-.208,0,3.169,3.169,0,0,1-.675-.067,2.926,2.926,0,0,1-.287-.079l-.2-.087a.783.783,0,0,1-.5-.6c0-.279.229-.525.6-.7a2.385,2.385,0,0,1,.6-.179,2.021,2.021,0,0,1,.229-.029h.4a3.2,3.2,0,0,1,.416.046l.217.054a1.783,1.783,0,0,1,.225.079C459.366,142.157,459.607,142.4,459.607,142.674Z" transform="translate(-285.809 -97.91)" fill="#fff"/>
      <path id="Trazado_628838" data-name="Trazado 628838" d="M483.149,143.874a3.132,3.132,0,1,0,3.07-3.195A3.132,3.132,0,0,0,483.149,143.874Z" transform="translate(-301.474 -97.244)" fill="#f3ae91"/>
      <path id="Trazado_628839" data-name="Trazado 628839" d="M461.408,146.2a.254.254,0,0,0,.162-.467c-.142-.087-.167-.15-.162-.154.033-.212.908-.6,1.833-.812a.258.258,0,0,0,.2-.254l-.05-2.5a.25.25,0,0,0-.258-.246.254.254,0,0,0-.25.258l.046,2.3c-.7.175-1.916.571-2.02,1.17-.029.171,0,.416.387.671A.3.3,0,0,0,461.408,146.2Z" transform="translate(-288.493 -97.88)" fill="#5f463c"/>
      <path id="Trazado_628840" data-name="Trazado 628840" d="M473.893,148.267c-.083.8.833,1.545,2.041,1.666s2.258-.417,2.341-1.22-.833-1.545-2.045-1.666S473.972,147.476,473.893,148.267Z" transform="translate(-296.071 -100.95)" fill="#dd704a"/>
      <path id="Trazado_628841" data-name="Trazado 628841" d="M469.073,126.453a14.472,14.472,0,0,0,2.5.367c2.645.162,4.923-.417,6.09-1.566a.217.217,0,1,0-.3-.308c-1.066,1.041-3.274,1.6-5.765,1.445-2.62-.158-6.106-1.187-8.047-3.607a.217.217,0,1,0-.337.271A10.7,10.7,0,0,0,469.073,126.453Z" transform="translate(-289.81 -86.75)" fill="#47332b"/>
      <path id="Trazado_628842" data-name="Trazado 628842" d="M490.646,144.468a.254.254,0,0,0,.221-.417,2.629,2.629,0,0,0-1.812-1.025,2.574,2.574,0,0,0-1.749.587.246.246,0,0,0-.025.354.254.254,0,0,0,.358.025,1.916,1.916,0,0,1,2.841.387A.271.271,0,0,0,490.646,144.468Z" transform="translate(-303.848 -98.613)" fill="#5f463c"/>
      <path id="Trazado_628843" data-name="Trazado 628843" d="M467.343,154.684c.162.933-.721,1.866-1.979,2.083a2.079,2.079,0,0,1-2.566-1.291c-.162-.929.991-.337,2.245-.554S467.18,153.747,467.343,154.684Z" transform="translate(-289.592 -105.18)" fill="#fff"/>
      <path id="Trazado_628844" data-name="Trazado 628844" d="M459.763,142.716a1.251,1.251,0,0,1-.112.575,2.086,2.086,0,0,1-.308.133.164.164,0,0,0-.108.029,3.334,3.334,0,0,1-.537.1,1.8,1.8,0,0,1-.208,0,3.172,3.172,0,0,1-.675-.067,2.918,2.918,0,0,1-.287-.079l-.2-.087a1.215,1.215,0,0,1-.133-.533,1.25,1.25,0,0,1,.229-.775,2.383,2.383,0,0,1,.6-.179,2.014,2.014,0,0,1,.229-.029h.4a3.206,3.206,0,0,1,.417.046l.217.054a1.791,1.791,0,0,1,.225.079A1.3,1.3,0,0,1,459.763,142.716Z" transform="translate(-286.327 -97.898)" fill="#5f463c"/>
      <path id="Trazado_628845" data-name="Trazado 628845" d="M735.312,374.526v21.618H599.9V374.526c6.848,0,13.3-5.173,17.236-13.983,4.09-9.13,8.747-23.9,12.25-47.513q.6-4.061,1.162-8.476c1.029-8.2,1.92-17.34,2.616-27.52q.225-3.22.416-6.581c.379-6.5.675-13.387.887-20.705q.338-11.946.35-25.408h65.569q0,13.487.35,25.408c1.825,63.553,10.413,95.305,17.332,110.8C722.009,369.353,728.461,374.526,735.312,374.526Z" transform="translate(-369.596 -146.058)" fill="#676767"/>
      <rect id="Rectángulo_297630" data-name="Rectángulo 297630" width="24.25" height="26.595" transform="translate(308.823 77.091)" fill="#efbd52"/>
      <path id="Trazado_628846" data-name="Trazado 628846" d="M678.423,224.31V396.127H599.9V374.509c6.848,0,13.3-5.173,17.236-13.983,4.09-9.13,8.747-23.9,12.25-47.513q.6-4.061,1.162-8.476c1.029-8.2,1.92-17.34,2.616-27.52q.225-3.22.416-6.581c.379-6.5.675-13.387.887-20.705q.338-11.946.35-25.408Z" transform="translate(-369.596 -146.041)" fill="#b4b4b4"/>
      <rect id="Rectángulo_297631" data-name="Rectángulo 297631" width="45.635" height="26.595" transform="translate(263.189 77.091)" fill="#f5cc72"/>
      <path id="Trazado_628847" data-name="Trazado 628847" d="M731.715,285.237H678.558a.208.208,0,0,1,0-.417h53.157a.208.208,0,0,1,0,.417Z" transform="translate(-415.369 -181.347)" fill="#5f463c"/>
      <path id="Trazado_628848" data-name="Trazado 628848" d="M844.546,319.309a.2.2,0,0,1-.2-.158c-1.666-8.435-2.828-44.964-2.841-45.33v-.208h1.937V265.8a.208.208,0,1,1,.416,0v8.218h-1.928c.1,2.991,1.225,36.983,2.828,45.055a.2.2,0,0,1-.158.233Z" transform="translate(-510.569 -170.127)" fill="#5f463c"/>
      <path id="Trazado_628849" data-name="Trazado 628849" d="M776.654,221.417H726.908a.208.208,0,1,1,0-.417h49.745a.208.208,0,0,1,0,.417Z" transform="translate(-443.58 -144.109)" fill="#5f463c"/>
      <path id="Trazado_628850" data-name="Trazado 628850" d="M533.421,590.912A17.607,17.607,0,0,1,562.382,573.8a13.462,13.462,0,0,1,24.483-2.083,10.03,10.03,0,0,1,17.615-1.82,17.315,17.315,0,0,1,33.239.233,17.778,17.778,0,0,1,.6,3.274,9.768,9.768,0,0,1,14.949,5.386,10.084,10.084,0,0,1,.358,2.357,11.893,11.893,0,0,1,2.082-.833,12.079,12.079,0,0,1,15.411,10.592Z" transform="translate(-330.528 -340.484)" fill="#7f9929"/>
      <path id="Trazado_628851" data-name="Trazado 628851" d="M799.922,598.775v-.312a9.573,9.573,0,0,0-15-7.572l-.283.2-.029-.346a17.5,17.5,0,0,0-.591-3.232.2.2,0,1,1,.383-.112,17.828,17.828,0,0,1,.575,2.978,9.947,9.947,0,0,1,15.324,7.781,12.282,12.282,0,0,1,1.854-.7.2.2,0,0,1,.108.387,11.91,11.91,0,0,0-2.058.8Z" transform="translate(-477.015 -357.802)" fill="#5f463c"/>
      <path id="Trazado_628852" data-name="Trazado 628852" d="M390.794,285.063v29.1a6.91,6.91,0,0,1-6.91,6.906h-9.343a82.89,82.89,0,0,1-8.389,20.556l6.827,6.827c2.653,2.653-10.413,31.368-10.83,32.322v.025H347.255a6.889,6.889,0,0,1-4.615-2.008l-2.341-2.345-4.282-4.282a83.146,83.146,0,0,1-34.68,11.225V360.146H260.151v16.619l-1.179-.537c-1.579-.721-4.653,5.315-4.653,5.315H240.362a6.873,6.873,0,0,1-4.853-2.02l-20.564-20.564a6.9,6.9,0,0,1,0-9.767l6.623-6.623a83.132,83.132,0,0,1-8.643-20.468h-9.663a6.91,6.91,0,0,1-6.9-6.906V286.125a6.9,6.9,0,0,1,6.9-6.906H212.6a83.2,83.2,0,0,1,8.4-20.576l-6.827-6.827a6.885,6.885,0,0,1-2.024-4.89,6.956,6.956,0,0,1,.954-3.495l.021-.033a6.554,6.554,0,0,1,1.05-1.345l.221-.217.033-.042,2.978-2.978.046-.042,17.294-17.294a6.881,6.881,0,0,1,4.753-2.012h14.058s-.258.962-.65,2.408,1.974,2.916,4.211,2.728a4.031,4.031,0,0,0,1.354-.346c.646-.3,1.3-.591,1.954-.875a83.314,83.314,0,0,1,11.18-3.915v-9.647a6.9,6.9,0,0,1,6.906-6.9h29.082a6.9,6.9,0,0,1,6.91,6.9v9.347a1.616,1.616,0,0,1,.2.054l.292.075c.1.025.2.05.292.083a.033.033,0,0,1,.029,0c.179.042.358.1.533.142.833.229,1.666.471,2.474.729s1.558.5,2.324.758a81.573,81.573,0,0,1,8.43,3.436c.237.108.475.221.712.342q2.687,1.3,5.273,2.774l4.628-4.615,2.2-2.2a6.906,6.906,0,0,1,8.66-.9,7.04,7.04,0,0,1,1.108.9l5.744,5.731L372.213,241.3a6.9,6.9,0,0,1,0,9.768l-6.619,6.623a83.121,83.121,0,0,1,8.639,20.468h9.643A6.91,6.91,0,0,1,390.794,285.063Z" transform="translate(-134.14 -133.56)" fill="#aeadad"/>
      <path id="Trazado_628853" data-name="Trazado 628853" d="M390.7,580.39v23.238q-3.836.358-7.764.358a83.105,83.105,0,0,1-33.426-6.977V580.39Z" transform="translate(-223.5 -353.804)" fill="#9a9999"/>
      <path id="Trazado_628854" data-name="Trazado 628854" d="M548.886,611.1h0a6.89,6.89,0,0,1-4.615-2.008l-2.341-2.345c4.911-3.774,12.171-9.322,12.171-9.139s5.211,8.122,8.747,13.5Z" transform="translate(-335.772 -363.846)" fill="#9a9999"/>
      <path id="Trazado_628855" data-name="Trazado 628855" d="M260.469,320.02l-17.348.267-6.827-6.827a6.885,6.885,0,0,1-2.024-4.89l14.578.117Z" transform="translate(-156.26 -195.204)" fill="#9a9999"/>
      <path id="Trazado_628856" data-name="Trazado 628856" d="M248.6,297.187h0l-14.791-.117v-.192a6.806,6.806,0,0,1,.987-3.615,36.119,36.119,0,0,1,4.369-4.686.2.2,0,0,1,.283,0,.2.2,0,0,1,0,.283,37.879,37.879,0,0,0-4.307,4.607,6.39,6.39,0,0,0-.92,3.191l14.4.117a.208.208,0,1,1,0,.416Z" transform="translate(-155.991 -183.505)" fill="#5f463c"/>
      <path id="Trazado_628857" data-name="Trazado 628857" d="M372.183,242.65,346.2,256.716l-4.89-7.035.375-1.9a4.034,4.034,0,0,0,1.354-.346,83.268,83.268,0,0,1,13.137-4.79Z" transform="translate(-218.715 -156.742)" fill="#9a9999"/>
      <path id="Trazado_628858" data-name="Trazado 628858" d="M345.178,233.84a.2.2,0,0,1-.183-.117.2.2,0,0,1,.1-.267,83.7,83.7,0,0,1,13.021-4.761v-9.488a.2.2,0,0,1,.2-.208.2.2,0,0,1,.2.2V229l-.15.038a83.254,83.254,0,0,0-13.1,4.782A.213.213,0,0,1,345.178,233.84Z" transform="translate(-220.855 -142.942)" fill="#5f463c"/>
      <path id="Trazado_628859" data-name="Trazado 628859" d="M231.883,479.08,220.361,482l-2.162-.262H202.63a6.848,6.848,0,0,0,4.29,1.5h9.647A83.128,83.128,0,0,0,225.21,503.7h17.3Z" transform="translate(-137.799 -294.693)" fill="#9a9999"/>
      <path id="Trazado_628860" data-name="Trazado 628860" d="M236.906,279.219h9.339a83.036,83.036,0,0,1,8.393-20.576l-6.827-6.827a6.91,6.91,0,0,1,0-9.767l20.564-20.56a6.9,6.9,0,0,1,9.768,0l6.623,6.623a83.132,83.132,0,0,1,20.468-8.643v-9.643a6.906,6.906,0,0,1,6.906-6.906h29.074a6.906,6.906,0,0,1,6.906,6.906v9.338a83.139,83.139,0,0,1,20.585,8.4l6.827-6.827a6.91,6.91,0,0,1,9.768,0L405.861,241.3a6.91,6.91,0,0,1,0,9.768l-6.627,6.623a82.969,82.969,0,0,1,8.643,20.468h9.643a6.906,6.906,0,0,1,6.91,6.906v29.1a6.91,6.91,0,0,1-6.91,6.906h-9.334a83.108,83.108,0,0,1-8.4,20.576l6.819,6.806a6.9,6.9,0,0,1,0,9.768l-20.564,20.56a6.9,6.9,0,0,1-9.768,0l-6.623-6.623a83.538,83.538,0,0,1-83.934.55l-6.819,6.827a6.91,6.91,0,0,1-9.768,0l-20.564-20.564a6.9,6.9,0,0,1,0-9.767l6.623-6.623a83.13,83.13,0,0,1-8.643-20.468h-9.643A6.906,6.906,0,0,1,230,315.207V286.125A6.906,6.906,0,0,1,236.906,279.219Z" transform="translate(-153.769 -133.56)" fill="#f6e7d1"/>
      <path id="Trazado_628861" data-name="Trazado 628861" d="M576.551,617.8a7.081,7.081,0,0,1-5.027-2.083l-6.606-6.623a.2.2,0,0,1,.283-.283l6.627,6.623a6.7,6.7,0,0,0,9.48,0,.2.2,0,0,1,.283,0,.2.2,0,0,1,0,.287A7.052,7.052,0,0,1,576.551,617.8Z" transform="translate(-349.15 -370.351)" fill="#5f463c"/>
      <path id="Trazado_628862" data-name="Trazado 628862" d="M319.415,490.21h0A82.861,82.861,0,0,1,285.5,479.563l-6.719,6.719a7.114,7.114,0,0,1-10.051,0l-20.564-20.564a7.106,7.106,0,0,1,0-10.051l6.514-6.515a83.193,83.193,0,0,1-8.547-20.235h-9.505a7.114,7.114,0,0,1-7.106-7.106V392.726a7.114,7.114,0,0,1,7.106-7.106.2.2,0,0,1,.2.2.2.2,0,0,1-.2.2,6.714,6.714,0,0,0-6.706,6.706v29.082a6.714,6.714,0,0,0,6.706,6.706h9.8l.042.15a82.842,82.842,0,0,0,8.622,20.41l.079.138-6.735,6.731a6.7,6.7,0,0,0,0,9.484l20.564,20.564a6.718,6.718,0,0,0,9.484,0l6.935-6.91.133.075a82.472,82.472,0,0,0,33.889,10.671.209.209,0,0,1-.021.417Z" transform="translate(-153.488 -240.161)" fill="#5f463c"/>
      <path id="Trazado_628863" data-name="Trazado 628863" d="M637.349,446.94a.183.183,0,0,1-.1-.029.2.2,0,0,1-.075-.271,82.826,82.826,0,0,0,8.376-20.526l.037-.15h9.5a6.714,6.714,0,0,0,6.706-6.706V390.176a6.714,6.714,0,0,0-6.706-6.706.2.2,0,0,1-.2-.2.2.2,0,0,1,.2-.2,7.114,7.114,0,0,1,7.11,7.106v29.1a7.114,7.114,0,0,1-7.11,7.081H645.9a83.355,83.355,0,0,1-8.376,20.476A.2.2,0,0,1,637.349,446.94Z" transform="translate(-391.33 -238.673)" fill="#5f463c"/>
      <path id="Trazado_628864" data-name="Trazado 628864" d="M473.04,250.984a.2.2,0,0,1-.142-.341,6.718,6.718,0,0,0,0-9.484l-20.564-20.58a6.71,6.71,0,0,0-9.484,0l-6.935,6.935-.133-.075a82.983,82.983,0,0,0-20.526-8.376l-.15-.037V209.54a6.714,6.714,0,0,0-6.719-6.706H379.318a6.714,6.714,0,0,0-6.706,6.706v9.788l-.146.037a83.12,83.12,0,0,0-20.41,8.622l-.133.079-6.735-6.731a.2.2,0,0,1,.283-.283l6.515,6.51a83.345,83.345,0,0,1,20.235-8.543v-9.48a7.114,7.114,0,0,1,7.106-7.11h29.061a7.114,7.114,0,0,1,7.106,7.11v9.184a83.307,83.307,0,0,1,20.343,8.3l6.719-6.719a7.106,7.106,0,0,1,10.051,0l20.564,20.564a7.119,7.119,0,0,1,0,10.051A.212.212,0,0,1,473.04,250.984Z" transform="translate(-220.943 -133.274)" fill="#5f463c"/>
      <path id="Trazado_628865" data-name="Trazado 628865" d="M276.482,294.485a.2.2,0,0,1-.142-.062l-6.827-6.827a7.106,7.106,0,0,1,0-10.051L283,264.058a.2.2,0,0,1,.283.283L269.8,277.832a6.714,6.714,0,0,0,0,9.48l6.827,6.827a.2.2,0,0,1,0,.283A.187.187,0,0,1,276.482,294.485Z" transform="translate(-175.609 -169.198)" fill="#5f463c"/>
      <path id="Trazado_628866" data-name="Trazado 628866" d="M384.5,242.547h-7.789a.208.208,0,1,1,0-.417H384.5a.208.208,0,0,1,0,.417Z" transform="translate(-239.247 -156.438)" fill="#5f463c"/>
      <path id="Trazado_628867" data-name="Trazado 628867" d="M222.157,357.194h-9.5a.2.2,0,0,1-.2-.2.2.2,0,0,1,.2-.2h9.189a83.354,83.354,0,0,1,8.376-20.476.2.2,0,1,1,.35.2,82.987,82.987,0,0,0-8.376,20.526Z" transform="translate(-143.534 -211.335)" fill="#5f463c"/>
      <path id="Trazado_628868" data-name="Trazado 628868" d="M352.271,382.119h0a49.491,49.491,0,0,0,44.656,29.128c.966.021,1.945,0,2.916-.05a49.529,49.529,0,0,0,26.291-89.865,48.627,48.627,0,0,0-7.943-4.582,49.908,49.908,0,0,0-36.079-2.083,49.118,49.118,0,0,0-21.3,13.67q-.733.792-1.416,1.62a50.342,50.342,0,0,0-4.436,6.248,45.9,45.9,0,0,0-2.212,4.1h0A49.566,49.566,0,0,0,352.271,382.119Z" transform="translate(-222.55 -197.349)" fill="#5a739c"/>
      <path id="Trazado_628869" data-name="Trazado 628869" d="M352.271,421.425a9.763,9.763,0,0,1,7.056-5.973c5.261-1.2,10.288-3.59,11.958-16.494s-4.549-18.19-11-16.269c-4.769,1.42-6.8-1.479-7.535-3.078A49.566,49.566,0,0,0,352.271,421.425Z" transform="translate(-222.55 -236.654)" fill="#afc548"/>
      <path id="Trazado_628870" data-name="Trazado 628870" d="M434.477,398.18c-.283,3.261,6.085,12.425,12.971,19.327.966.021,1.945,0,2.916-.05a49.32,49.32,0,0,0,15.586-3.332,9.5,9.5,0,0,1,3.2-4.961c5.057-3.99,10.359-15.366,7.31-23.28a26.015,26.015,0,0,0,7.281-5.044c4.344-4.294,11.3-10.98,13.233-19.993a49.313,49.313,0,0,0-20.318-33.285,48.629,48.629,0,0,0-7.943-4.582,2.812,2.812,0,0,1-2.191,2.245c-4.057.958-12.912-5.985-17.931,4.782s8.847,2.862,12.192,1.666,6.29,5.985-4.861,12.2,6.46,20.085,21.447,17.207,15.22,11.5-1.025,19.764c-.858.417-19.127-.358-28.457,6.573S434.956,392.681,434.477,398.18Z" transform="translate(-273.07 -203.612)" fill="#afc548"/>
      <path id="Trazado_628871" data-name="Trazado 628871" d="M364.88,339.562a3.786,3.786,0,0,0,2.916.5c5.261-1.2,5.506,4.782,13.67,6.664s6.435-10.98,10.955-19.581c2.816-5.344,1.408-7.914-.417-9.105a49.117,49.117,0,0,0-21.3,13.67q-.733.791-1.416,1.62A50.351,50.351,0,0,0,364.88,339.562Z" transform="translate(-232.468 -200.73)" fill="#afc548"/>
      <path id="Trazado_628872" data-name="Trazado 628872" d="M366.828,404.252a.2.2,0,0,1-.125-.042,49.829,49.829,0,0,1-14.957-18.873l-.071-.067v-.054a49.567,49.567,0,0,1,.5-41.869l.021-.05a45.955,45.955,0,0,1,2.22-4.115,50.456,50.456,0,0,1,4.453-6.248c.5-.6.962-1.133,1.425-1.633a49.441,49.441,0,0,1,21.384-13.725.2.2,0,0,1,.25.129.2.2,0,0,1-.129.254,49.025,49.025,0,0,0-21.209,13.616c-.458.5-.916,1.02-1.412,1.612a50.418,50.418,0,0,0-4.386,6.219,43.841,43.841,0,0,0-2.183,4.04l-.021.05a49.15,49.15,0,0,0-.479,41.653l.129.283h0a49.479,49.479,0,0,0,14.72,18.481.2.2,0,0,1-.121.358Z" transform="translate(-222.199 -200.454)" fill="#5f463c"/>
      <path id="Trazado_628873" data-name="Trazado 628873" d="M466.09,417.476h-.75a.2.2,0,0,1-.2-.2.191.191,0,0,1,.208-.2c.916,0,1.891,0,2.916-.05a49.321,49.321,0,0,0,18.277-94.072.2.2,0,0,1-.1-.267.208.208,0,0,1,.267-.1,49.125,49.125,0,0,1,7.947,4.6,49.74,49.74,0,0,1-26.4,90.244C467.522,417.455,466.793,417.476,466.09,417.476Z" transform="translate(-290.967 -203.374)" fill="#5f463c"/>
      <path id="Trazado_628874" data-name="Trazado 628874" d="M454.225,245.717a2.125,2.125,0,0,1-1.125-.3,2.166,2.166,0,0,1-.762-2.966,15.48,15.48,0,0,1,6.7-5.556,35.373,35.373,0,0,1,7.081-2.5l.187-.046a2.166,2.166,0,0,1,1.7,3.974,3.576,3.576,0,0,1-.887.287,30.869,30.869,0,0,0-6.248,2.2,11.6,11.6,0,0,0-4.8,3.836,2.162,2.162,0,0,1-1.841,1.07Zm-1.887-3.253a15.48,15.48,0,0,1,6.7-5.556,35.369,35.369,0,0,1,7.081-2.5Zm13.683-7.968ZM466.021,234.5Z" transform="translate(-283.321 -151.828)" fill="#f3ae91"/>
      <path id="Trazado_628875" data-name="Trazado 628875" d="M449.607,234.806a15.5,15.5,0,0,1,7.818-3.82,37.017,37.017,0,0,1,4.49-.641h0c4.265-.417,16.89-.625,16.89-.625l-2.033,13.291c-9.164,2.433-12.8-3.832-14.216-8.368a33.4,33.4,0,0,0-4.274.608,11.57,11.57,0,0,0-5.573,2.595,2.166,2.166,0,1,1-3.1-3.02Z" transform="translate(-281.519 -149.197)" fill="#f3ae91"/>
      <path id="Trazado_628876" data-name="Trazado 628876" d="M467.266,259.874a2.162,2.162,0,0,1-2.149-3.415c.217-.292,2.153-2.916,3.253-4.065,1.866-1.979,9.717-2.707,9.788-2.7a2.166,2.166,0,0,1,.042,4.328c-1.1.075-5.711.862-6.773,1.449-.808.887-2.3,2.857-2.832,3.57A2.145,2.145,0,0,1,467.266,259.874Zm10.88-5.856Z" transform="translate(-290.702 -160.849)" fill="#f3ae91"/>
      <path id="Trazado_628877" data-name="Trazado 628877" d="M452.49,243.353a.187.187,0,0,0,.158-.1,15.311,15.311,0,0,1,6.614-5.477,37.56,37.56,0,0,1,5.082-1.958.2.2,0,0,0,.133-.246.2.2,0,0,0-.246-.129,37.563,37.563,0,0,0-5.136,1.974,15.679,15.679,0,0,0-6.785,5.636.2.2,0,0,0,.071.271A.166.166,0,0,0,452.49,243.353Z" transform="translate(-283.465 -152.534)" fill="#5f463c"/>
      <path id="Trazado_628878" data-name="Trazado 628878" d="M459.182,251.987A2.17,2.17,0,0,1,456.874,249a15.507,15.507,0,0,1,5.894-6.4,35.636,35.636,0,0,1,6.664-3.42l.183-.071a2.166,2.166,0,0,1,2.212,3.711,3.414,3.414,0,0,1-.833.417,31.7,31.7,0,0,0-5.9,3.02,11.591,11.591,0,0,0-4.244,4.444A2.166,2.166,0,0,1,459.182,251.987ZM456.874,249a15.507,15.507,0,0,1,5.894-6.4,35.636,35.636,0,0,1,6.664-3.42ZM469.37,239.271Zm0,0Z" transform="translate(-286.046 -154.541)" fill="#f3ae91"/>
      <path id="Trazado_628879" data-name="Trazado 628879" d="M456.839,250.45a.2.2,0,0,0,.171-.121,15.3,15.3,0,0,1,5.831-6.319,37.119,37.119,0,0,1,4.773-2.616.2.2,0,0,0-.167-.362,38.2,38.2,0,0,0-4.832,2.649,15.718,15.718,0,0,0-5.969,6.494.2.2,0,0,0,.1.258.216.216,0,0,0,.087.017Z" transform="translate(-286.002 -155.79)" fill="#5f463c"/>
      <path id="Trazado_628880" data-name="Trazado 628880" d="M465.332,259.553a.2.2,0,0,0,.15-.079.2.2,0,0,0-.042-.275,1.974,1.974,0,0,1-.775-1.3,1.944,1.944,0,0,1,.367-1.458c.217-.3,2.153-2.916,3.236-4.049.933-.991,3.586-2.108,6.048-2.545a.2.2,0,0,0,.158-.229.2.2,0,0,0-.229-.158c-2.187.387-5.127,1.454-6.248,2.662s-3.049,3.786-3.266,4.082a2.37,2.37,0,0,0,.491,3.307.228.228,0,0,0,.108.038Z" transform="translate(-290.459 -160.716)" fill="#5f463c"/>
      <path id="Trazado_628881" data-name="Trazado 628881" d="M511.047,208.76s28.5-1.291,32.905-6.377c2.149-2.5,2.741-9.272-.3-13.133a129.884,129.884,0,0,0-20.68-20.572c-4.319-3.3-10.267-3.332-12.967-.417-5.76,6.248-1.666,12.558,2.974,16.865a41.8,41.8,0,0,0,7.356,5.39l-11.021,1.8Z" transform="translate(-315.493 -112.097)" fill="#d5cdc2"/>
      <path id="Trazado_628882" data-name="Trazado 628882" d="M522.09,205.813a.188.188,0,0,1-.1-.029c-.416-.242-9.88-6.01-10.83-12.991a.2.2,0,0,1,.171-.225.2.2,0,0,1,.225.171c.912,6.789,10.526,12.646,10.626,12.7a.2.2,0,0,1-.1.371Z" transform="translate(-317.815 -127.519)" fill="#5f463c"/>
      <path id="Trazado_628883" data-name="Trazado 628883" d="M513.728,240.18a.2.2,0,0,1-.2-.179l-1.758-16.607.179-.038c.142-.029,14.041-2.916,20.935-3.749a.2.2,0,0,1,.221.175.2.2,0,0,1-.175.225c-6.452.8-19.073,3.37-20.722,3.711l1.72,16.244a.2.2,0,0,1-.179.221Z" transform="translate(-318.174 -143.297)" fill="#5f463c"/>
      <path id="Trazado_628884" data-name="Trazado 628884" d="M531.857,170.766a.2.2,0,0,1-.154-.071c-9.434-11.317-23.742-13.949-23.875-13.974a.2.2,0,1,1,.071-.4c.142.025,14.578,2.682,24.113,14.112a.2.2,0,0,1-.025.283.2.2,0,0,1-.129.046Z" transform="translate(-315.777 -106.371)" fill="#5f463c"/>
      <path id="Trazado_628885" data-name="Trazado 628885" d="M568.08,451.422c0,23.171,6.864,26.658,15.328,26.658s15.328-3.47,15.328-26.658a170.6,170.6,0,0,0-3.749-34.022,91.2,91.2,0,0,0-4.136-14.258c-2.207-5.5-4.753-8.993-7.46-8.993C574.944,394.15,568.08,428.243,568.08,451.422Z" transform="translate(-351.03 -245.138)" fill="#697d28"/>
      <path id="Trazado_628886" data-name="Trazado 628886" d="M616.184,417.3a.191.191,0,0,1-.2-.158,90,90,0,0,0-4.128-14.224c-2.328-5.8-4.84-8.864-7.273-8.864a.208.208,0,0,1,0-.417c2.645,0,5.219,3.07,7.647,9.118a90.974,90.974,0,0,1,4.165,14.291.2.2,0,0,1-.154.237Z" transform="translate(-372.21 -244.84)" fill="#5f463c"/>
      <path id="Trazado_628887" data-name="Trazado 628887" d="M594.3,490.684a6.266,6.266,0,0,1-5.244-2.308c-3.453-4.436-.87-13.641-.758-14.033a.417.417,0,0,1,.771.221c-.025.092-2.578,9.205.625,13.329a5.544,5.544,0,0,0,4.9,1.991.417.417,0,1,1,.025.8Z" transform="translate(-362.221 -291.814)" fill="#47332b"/>
      <path id="Trazado_628888" data-name="Trazado 628888" d="M619.862,430.161s2.816-.417,1.8-2.741A2.016,2.016,0,0,0,619.862,430.161Z" transform="translate(-381.185 -264.55)" fill="#7f9929"/>
      <path id="Trazado_628889" data-name="Trazado 628889" d="M624.17,433.868s3.907,2.278,4.953-1.612C629.123,432.273,626.019,430.061,624.17,433.868Z" transform="translate(-383.757 -267.008)" fill="#7f9929"/>
      <path id="Trazado_628890" data-name="Trazado 628890" d="M583.742,444.45s-.516,4.757,3.695,4.09C587.436,448.54,588.24,444.583,583.742,444.45Z" transform="translate(-360.156 -274.487)" fill="#7f9929"/>
      <path id="Trazado_628891" data-name="Trazado 628891" d="M617.142,502.275s3.645-.7,2.2-3.665C619.337,498.61,616.221,498.91,617.142,502.275Z" transform="translate(-379.557 -306.088)" fill="#7f9929"/>
      <path id="Trazado_628892" data-name="Trazado 628892" d="M617.75,561.037s.417,6.323,5.765,4.478C623.515,565.515,623.644,560.17,617.75,561.037Z" transform="translate(-380.011 -342.457)" fill="#7f9929"/>
      <path id="Trazado_628893" data-name="Trazado 628893" d="M596.478,418.54s-.417,2.524,1.845,2.3A1.8,1.8,0,0,0,596.478,418.54Z" transform="translate(-367.581 -259.369)" fill="#7f9929"/>
      <path id="Trazado_628894" data-name="Trazado 628894" d="M604.276,531.1a.417.417,0,0,1-.417-.417V454.944a.417.417,0,1,1,.8,0V530.7A.417.417,0,0,1,604.276,531.1Z" transform="translate(-371.897 -280.303)" fill="#47332b"/>
      <path id="Trazado_628895" data-name="Trazado 628895" d="M605,533.378h-.7a.4.4,0,0,1,.037-.8c2.549.142,4.428-.5,5.586-1.9,2.229-2.682,1.141-7.323,1.129-7.368a.417.417,0,0,1,.783-.192c.05.208,1.191,5.082-1.291,8.072A6.878,6.878,0,0,1,605,533.378Z" transform="translate(-371.941 -320.263)" fill="#47332b"/>
      <path id="Trazado_628896" data-name="Trazado 628896" d="M604.474,469.645h-.187a.417.417,0,1,1,0-.833h0c2.137.025,3.665-.529,4.519-1.666,1.458-1.953.521-5.023.512-5.052a.417.417,0,0,1,.766-.242c.042.142,1.07,3.486-.633,5.769C608.477,468.975,606.8,469.645,604.474,469.645Z" transform="translate(-371.912 -284.529)" fill="#47332b"/>
      <ellipse id="Elipse_5886" data-name="Elipse 5886" cx="20.905" cy="27.128" rx="20.905" ry="27.128" transform="translate(185.544 181.559)" fill="#697d28"/>
      <path id="Trazado_628897" data-name="Trazado 628897" d="M560.6,536.083a.2.2,0,0,1-.092-.379c8.014-4.061,13.191-13.912,13.191-25.1a31.359,31.359,0,0,0-5.9-18.823.2.2,0,0,1,.038-.279.2.2,0,0,1,.283.038A31.808,31.808,0,0,1,574.1,510.6c0,11.338-5.265,21.33-13.412,25.458A.184.184,0,0,1,560.6,536.083Z" transform="translate(-346.545 -301.917)" fill="#5f463c"/>
      <path id="Trazado_628898" data-name="Trazado 628898" d="M542.047,575.309a.417.417,0,0,1-.417-.417V530.569a.417.417,0,0,1,.8,0V574.9A.416.416,0,0,1,542.047,575.309Z" transform="translate(-335.597 -324.556)" fill="#47332b"/>
      <path id="Trazado_628899" data-name="Trazado 628899" d="M532.765,557.55a5.668,5.668,0,0,1-4.315-1.72c-2.537-2.695-2.049-7.543-2.024-7.747a.417.417,0,1,1,.8.083c0,.05-.466,4.694,1.816,7.114a5.009,5.009,0,0,0,4.09,1.454.4.4,0,1,1,.033.8Z" transform="translate(-326.694 -334.668)" fill="#47332b"/>
      <path id="Trazado_628900" data-name="Trazado 628900" d="M543.267,543.338a8.468,8.468,0,0,1-1.441-.129.417.417,0,1,1,.133-.791c1.908.317,3.37-.025,4.344-1.025,2.283-2.328,1.35-7.464,1.341-7.5a.417.417,0,1,1,.787-.146c.042.225,1.016,5.6-1.554,8.23A4.84,4.84,0,0,1,543.267,543.338Z" transform="translate(-335.442 -326.325)" fill="#47332b"/>
      <path id="Trazado_628901" data-name="Trazado 628901" d="M565.82,518.338s2.4.729,2.466-1.5A1.759,1.759,0,0,0,565.82,518.338Z" transform="translate(-349.711 -316.64)" fill="#7f9929"/>
      <path id="Trazado_628902" data-name="Trazado 628902" d="M508.86,526.444s.529,3.945,3.794,2.57C512.667,529.014,512.517,525.661,508.86,526.444Z" transform="translate(-316.476 -322.259)" fill="#7f9929"/>
      <path id="Trazado_628903" data-name="Trazado 628903" d="M566.66,524.174s2.258,3.274,4.549.571C571.209,524.745,569.567,521.817,566.66,524.174Z" transform="translate(-350.201 -320.468)" fill="#7f9929"/>
      <path id="Trazado_628904" data-name="Trazado 628904" d="M508.948,482s-.7,5.307,4.019,4.673C512.947,486.682,513.946,482.279,508.948,482Z" transform="translate(-316.506 -296.396)" fill="#7f9929"/>
      <path id="Trazado_628905" data-name="Trazado 628905" d="M160.864,576.879c.317,0,.629,0,.937.029v-.367a22.107,22.107,0,0,1,1.25-7.347,5.229,5.229,0,0,1,5.7-8.755,22.118,22.118,0,0,1,33.293,3.407,14.937,14.937,0,0,1,25.408,3.261,9.7,9.7,0,0,1,14.1,8.639v.229a8.585,8.585,0,0,1,9.205,1.487,17.353,17.353,0,0,1,28.486,11.488H146.29A14.837,14.837,0,0,1,160.864,576.879Z" transform="translate(-104.926 -338.647)" fill="#7f9929"/>
      <path id="Trazado_628906" data-name="Trazado 628906" d="M417.223,615.353a.2.2,0,0,1-.2-.179,17.161,17.161,0,0,0-28.157-11.358l-.133.117-.129-.117a8.389,8.389,0,0,0-5.615-2.162.208.208,0,1,1,0-.416,8.793,8.793,0,0,1,5.752,2.149,17.557,17.557,0,0,1,28.7,11.746.2.2,0,0,1-.179.221Z" transform="translate(-242.912 -364.851)" fill="#5f463c"/>
      <ellipse id="Elipse_5887" data-name="Elipse 5887" cx="30.752" cy="39.907" rx="30.752" ry="39.907" transform="translate(26.919 149.087)" fill="#697d28"/>
      <path id="Trazado_628907" data-name="Trazado 628907" d="M127.874,469.558a.2.2,0,0,1-.112-.033c-10.259-6.948-16.632-20.576-16.632-35.567,0-22.113,13.887-40.107,30.952-40.107a.208.208,0,0,1,0,.417c-16.844,0-30.548,17.811-30.548,39.7,0,14.857,6.306,28.361,16.453,35.234a.2.2,0,0,1,.054.279A.192.192,0,0,1,127.874,469.558Z" transform="translate(-84.411 -244.963)" fill="#5f463c"/>
      <path id="Trazado_628908" data-name="Trazado 628908" d="M184.857,545.842a.416.416,0,0,1-.417-.417V480.19a.417.417,0,0,1,.8,0v65.253A.417.417,0,0,1,184.857,545.842Z" transform="translate(-127.185 -295.161)" fill="#47332b"/>
      <path id="Trazado_628909" data-name="Trazado 628909" d="M185.271,519.941h-.579a.417.417,0,1,1,.038-.8,7.586,7.586,0,0,0,6.165-2.2c3.42-3.632,2.724-10.542,2.716-10.609a.417.417,0,1,1,.8-.087c.029.3.741,7.348-2.916,11.246A8.221,8.221,0,0,1,185.271,519.941Z" transform="translate(-127.038 -310.258)" fill="#47332b"/>
      <path id="Trazado_628910" data-name="Trazado 628910" d="M169.765,498.967a6.932,6.932,0,0,1-5.182-1.97c-3.715-3.79-2.3-11.609-2.237-11.942a.417.417,0,1,1,.791.15c0,.075-1.4,7.739,2.02,11.246,1.483,1.512,3.686,2.037,6.556,1.558a.417.417,0,0,1,.133.791A12.411,12.411,0,0,1,169.765,498.967Z" transform="translate(-114.11 -297.919)" fill="#47332b"/>
      <path id="Trazado_628911" data-name="Trazado 628911" d="M145.711,460.34s-3.907,1.183-4.011-2.453C141.7,457.887,144.891,456.592,145.711,460.34Z" transform="translate(-102.248 -282.201)" fill="#7f9929"/>
      <path id="Trazado_628912" data-name="Trazado 628912" d="M227.3,473.993s-.779,5.8-5.581,3.778C221.72,477.771,221.924,472.836,227.3,473.993Z" transform="translate(-148.937 -291.622)" fill="#7f9929"/>
      <path id="Trazado_628913" data-name="Trazado 628913" d="M149.977,548.75s-.945,7.043-6.777,4.582C143.2,553.332,143.446,547.342,149.977,548.75Z" transform="translate(-103.123 -335.218)" fill="#7f9929"/>
      <path id="Trazado_628914" data-name="Trazado 628914" d="M139.632,469.829s-3.674,5.336-7.4.933C132.213,470.762,134.883,465.993,139.632,469.829Z" transform="translate(-96.722 -288.424)" fill="#7f9929"/>
      <path id="Trazado_628915" data-name="Trazado 628915" d="M226.543,408.64s1.037,7.806-5.915,6.873C220.624,415.513,219.15,409.04,226.543,408.64Z" transform="translate(-148.229 -253.593)" fill="#7f9929"/>
      <rect id="Rectángulo_297632" data-name="Rectángulo 297632" width="5.627" height="29.911" transform="translate(85.832 220.271)" fill="#5a739c"/>
      <path id="Trazado_628916" data-name="Trazado 628916" d="M193.623,519.349H142.27l18.76-36.679h51.353Z" transform="translate(-89.268 -281.626)" fill="#d7e7f3"/>
      <path id="Trazado_628917" data-name="Trazado 628917" d="M173.778,519.474H167.73l18.619-36.8h6.044Z" transform="translate(-104.123 -281.626)" fill="#f4faff"/>
      <path id="Trazado_628918" data-name="Trazado 628918" d="M225.129,519.474H222.78l18.615-36.8h2.353Z" transform="translate(-136.244 -281.626)" fill="#f4faff"/>
      <path id="Trazado_628919" data-name="Trazado 628919" d="M202.938,519.474H193.2l18.619-36.8h9.734Z" transform="translate(-118.984 -281.626)" fill="#f4faff"/>
      <path id="Trazado_628920" data-name="Trazado 628920" d="M225.391,555.593h-51.7a.387.387,0,0,1-.346-.583l18.627-36.679a.416.416,0,0,1,.358-.221H243.8a.416.416,0,0,1,.358.583l-18.4,36.679A.416.416,0,0,1,225.391,555.593Zm-51.049-.8h50.816l17.99-35.892H192.56Z" transform="translate(-120.681 -317.466)" fill="#5a739c"/>
      <rect id="Rectángulo_297633" data-name="Rectángulo 297633" width="41.14" height="0.804" transform="matrix(0.453, -0.891, 0.891, 0.453, 62.905, 237.537)" fill="#5a739c"/>
      <rect id="Rectángulo_297634" data-name="Rectángulo 297634" width="41.14" height="0.804" transform="matrix(0.453, -0.891, 0.891, 0.453, 73.179, 237.536)" fill="#5a739c"/>
      <rect id="Rectángulo_297635" data-name="Rectángulo 297635" width="39.153" height="0.404" transform="translate(83.626 237.607) rotate(-63.04)" fill="#5a739c"/>
      <rect id="Rectángulo_297636" data-name="Rectángulo 297636" width="41.14" height="0.804" transform="matrix(0.453, -0.891, 0.891, 0.453, 83.449, 237.536)" fill="#5a739c"/>
      <rect id="Rectángulo_297637" data-name="Rectángulo 297637" width="41.14" height="0.804" transform="matrix(0.453, -0.891, 0.891, 0.453, 93.717, 237.538)" fill="#5a739c"/>
      <rect id="Rectángulo_297638" data-name="Rectángulo 297638" width="51.528" height="0.804" transform="translate(67.905 207.979)" fill="#5a739c"/>
      <rect id="Rectángulo_297639" data-name="Rectángulo 297639" width="51.732" height="0.804" transform="translate(64.023 215.315)" fill="#5a739c"/>
      <rect id="Rectángulo_297640" data-name="Rectángulo 297640" width="51.566" height="0.804" transform="translate(60.508 222.65)" fill="#5a739c"/>
      <rect id="Rectángulo_297641" data-name="Rectángulo 297641" width="51.637" height="0.804" transform="translate(56.755 229.989)" fill="#5a739c"/>
      <path id="Trazado_628921" data-name="Trazado 628921" d="M272.048,474.851l-2.1-5.261-2.1,5.261-5.115,1.958,5.032,1.616,2.187,5.6,2.187-5.6,5.027-1.616Z" transform="translate(-159.554 -273.994)" fill="#f5cc72"/>
      <path id="Trazado_628922" data-name="Trazado 628922" d="M311.716,530.473h-.075a.2.2,0,0,1-.112-.262l2.22-5.69,5.119-1.645a.2.2,0,0,1,.125.383l-4.94,1.587-2.149,5.511A.208.208,0,0,1,311.716,530.473Z" transform="translate(-201.33 -320.241)" fill="#47332b"/>
      <path id="Trazado_628923" data-name="Trazado 628923" d="M166.9,512.77l-.987-2.47-.987,2.47-2.4.92,2.362.758,1.029,2.633,1.029-2.633,2.362-.758Z" transform="translate(-101.084 -297.747)" fill="#f5cc72"/>
      <path id="Trazado_628924" data-name="Trazado 628924" d="M202.338,558.166a.245.245,0,0,1-.075,0,.2.2,0,0,1-.112-.258l1.062-2.724,2.453-.787a.2.2,0,0,1,.125.383l-2.274.729-.991,2.545A.2.2,0,0,1,202.338,558.166Z" transform="translate(-137.511 -338.632)" fill="#47332b"/>
      <path id="Trazado_628925" data-name="Trazado 628925" d="M194.029,542.415l-1.5-3.745-1.5,3.745-3.645,1.4,3.582,1.15,1.558,3.99,1.558-3.99,3.582-1.15Z" transform="translate(-115.594 -314.3)" fill="#f5cc72"/>
      <path id="Trazado_628926" data-name="Trazado 628926" d="M231.409,592.5a.158.158,0,0,1-.071,0,.2.2,0,0,1-.117-.258l1.6-4.078,3.674-1.183a.2.2,0,0,1,.25.129.2.2,0,0,1-.129.254l-3.49,1.12-1.524,3.9A.2.2,0,0,1,231.409,592.5Z" transform="translate(-154.474 -357.642)" fill="#47332b"/>
      <path id="Trazado_628927" data-name="Trazado 628927" d="M261.976,607.787h-19.8a.208.208,0,0,1,0-.417h19.8a.208.208,0,0,1,0,.417Z" transform="translate(-160.753 -369.546)" fill="#5f463c"/>
      <path id="Trazado_628928" data-name="Trazado 628928" d="M234.432,518.136H219.058a.208.208,0,1,1,0-.417h15.374a.208.208,0,1,1,0,.417Z" transform="translate(-147.263 -317.238)" fill="#5f463c"/>
      <rect id="Rectángulo_297642" data-name="Rectángulo 297642" width="57.035" height="13.012" rx="5.62" transform="translate(265.959 171.429)" fill="#efbd52"/>
      <path id="Trazado_628932" data-name="Trazado 628932" d="M707.549,424.79H701.93l2.9-13h5.619Z" transform="translate(-415.816 -240.269)" fill="#f5cc72"/>
      <path id="Trazado_628933" data-name="Trazado 628933" d="M720.509,424.79H719.38l2.9-13h1.124Z" transform="translate(-425.997 -240.269)" fill="#f5cc72"/>
      <path id="Trazado_628934" data-name="Trazado 628934" d="M745.463,450.152a.112.112,0,0,1-.108-.112,2.116,2.116,0,0,0-2.112-2.112h-52.59a.112.112,0,1,1,0-.221h52.59a2.333,2.333,0,0,1,2.333,2.333.113.113,0,0,1-.113.112Z" transform="translate(-422.469 -276.386)" fill="#5f463c"/>
      <rect id="Rectángulo_297643" data-name="Rectángulo 297643" width="57.035" height="13.012" rx="5.62" transform="translate(269.216 184.446)" fill="#efbd52"/>
      <path id="Trazado_628935" data-name="Trazado 628935" d="M762,455.947h6.944l2.911-13.037h-6.944Z" transform="translate(-450.865 -258.427)" fill="#f5cc72"/>
      <path id="Trazado_628936" data-name="Trazado 628936" d="M748.05,455.947h1.679l2.907-13.037h-1.679Z" transform="translate(-442.725 -258.427)" fill="#f5cc72"/>
      <path id="Trazado_628937" data-name="Trazado 628937" d="M693.172,489.963a.112.112,0,0,1-.112-.108v-8.568a2.337,2.337,0,0,1,2.332-2.337h46.588a.112.112,0,1,1,0,.225H695.393a2.116,2.116,0,0,0-2.112,2.112v8.568a.108.108,0,0,1-.108.108Z" transform="translate(-423.952 -294.617)" fill="#5f463c"/>
      <rect id="Rectángulo_297644" data-name="Rectángulo 297644" width="57.035" height="13.012" rx="5.62" transform="translate(260.994 197.458)" fill="#efbd52"/>
      <path id="Trazado_628938" data-name="Trazado 628938" d="M700.065,487.206H697.37l2.9-13h2.695Z" transform="translate(-413.155 -276.689)" fill="#f5cc72"/>
      <path id="Trazado_628939" data-name="Trazado 628939" d="M710.925,487.206H706.81l2.9-13h4.119Z" transform="translate(-418.663 -276.689)" fill="#f5cc72"/>
      <path id="Trazado_628940" data-name="Trazado 628940" d="M683.419,487.206H682.07l2.9-13h1.345Z" transform="translate(-404.228 -276.689)" fill="#f5cc72"/>
      <path id="Trazado_628941" data-name="Trazado 628941" d="M749.542,512.642a.113.113,0,0,1-.112-.113,2.112,2.112,0,0,0-2.108-2.112H706.152a.112.112,0,1,1,0-.221h41.169a2.333,2.333,0,0,1,2.333,2.332.113.113,0,0,1-.112.113Z" transform="translate(-431.513 -312.847)" fill="#5f463c"/>
      <rect id="Rectángulo_297645" data-name="Rectángulo 297645" width="57.035" height="13.012" rx="5.62" transform="translate(269.987 210.47)" fill="#efbd52"/>
      <path id="Trazado_628942" data-name="Trazado 628942" d="M738.9,518.41h-8.58l2.9-13H741.8Z" transform="translate(-432.38 -294.894)" fill="#f5cc72"/>
      <path id="Trazado_628943" data-name="Trazado 628943" d="M755.364,518.41H753.71l2.9-13h1.654Z" transform="translate(-446.028 -294.894)" fill="#f5cc72"/>
      <path id="Trazado_628944" data-name="Trazado 628944" d="M752.054,552.43a.112.112,0,0,1-.112-.112v-8.585a2.112,2.112,0,0,0-2.112-2.108H697.24a2.112,2.112,0,0,0-2.112,2.108.112.112,0,1,1-.221,0,2.333,2.333,0,0,1,2.333-2.333H749.83a2.333,2.333,0,0,1,2.333,2.333V552.3a.112.112,0,0,1-.108.129Z" transform="translate(-425.029 -331.055)" fill="#5f463c"/>
      <rect id="Rectángulo_297646" data-name="Rectángulo 297646" width="57.035" height="13.012" rx="5.62" transform="translate(262.481 223.487)" fill="#efbd52"/>
      <path id="Trazado_628945" data-name="Trazado 628945" d="M682.17,549.62h5.207l2.9-13h-5.211Z" transform="translate(-404.286 -313.104)" fill="#f5cc72"/>
      <path id="Trazado_628946" data-name="Trazado 628946" d="M673.32,549.62h2.6l2.9-13h-2.6Z" transform="translate(-399.122 -313.104)" fill="#f5cc72"/>
      <path id="Trazado_628947" data-name="Trazado 628947" d="M676.992,583.7a.113.113,0,0,1-.112-.113v-8.568a2.337,2.337,0,0,1,2.337-2.337h43.735a.112.112,0,0,1,0,.225H679.217a2.112,2.112,0,0,0-2.112,2.112v8.568A.113.113,0,0,1,676.992,583.7Z" transform="translate(-414.512 -349.306)" fill="#5f463c"/>
      <rect id="Rectángulo_297647" data-name="Rectángulo 297647" width="57.035" height="13.012" rx="5.62" transform="translate(265.959 236.499)" fill="#efbd52"/>
      <path id="Trazado_628948" data-name="Trazado 628948" d="M709.845,580.867H702.86l2.895-12.966h6.985Z" transform="translate(-416.358 -331.355)" fill="#f5cc72"/>
      <path id="Trazado_628949" data-name="Trazado 628949" d="M723.977,580.867H722.04l2.895-12.966h1.937Z" transform="translate(-427.549 -331.355)" fill="#f5cc72"/>
      <path id="Trazado_628950" data-name="Trazado 628950" d="M734.386,580.867h-.966l2.895-12.966h.966Z" transform="translate(-434.189 -331.355)" fill="#f5cc72"/>
      <path id="Trazado_628951" data-name="Trazado 628951" d="M745.463,606.372a.112.112,0,0,1-.108-.112,2.116,2.116,0,0,0-2.112-2.112h-52.59a.112.112,0,1,1,0-.221h52.59a2.333,2.333,0,0,1,2.333,2.332A.112.112,0,0,1,745.463,606.372Z" transform="translate(-422.469 -367.536)" fill="#5f463c"/>
      <path id="Trazado_628952" data-name="Trazado 628952" d="M722.648,370.211S693.653,364.8,705.07,341.15C705.062,341.15,729.828,343.437,722.648,370.211Z" transform="translate(-429.406 -214.214)" fill="#7f9929"/>
      <path id="Trazado_628953" data-name="Trazado 628953" d="M743.946,398.548a.225.225,0,0,1-.216-.167c-1.312-4.844-5.04-14.22-8.131-18.477a.225.225,0,1,1,.362-.262c3.353,4.619,7.081,14.428,8.2,18.623a.225.225,0,0,1-.158.275Z" transform="translate(-448.739 -236.607)" fill="#5f463c"/>
      <path id="Trazado_628954" data-name="Trazado 628954" d="M770.491,398.491s-2.678,9.334-11.621,4.923C758.87,403.415,760.3,394.759,770.491,398.491Z" transform="translate(-462.351 -247.126)" fill="#afc548"/>
      <path id="Trazado_628955" data-name="Trazado 628955" d="M753.057,409.11a.219.219,0,0,1-.146-.375,23.134,23.134,0,0,1,8.48-5.365.225.225,0,0,1,.2.237.221.221,0,0,1-.208.2c-.333.083-5.477,2.2-8.139,5.219A.23.23,0,0,1,753.057,409.11Z" transform="translate(-458.837 -250.517)" fill="#5f463c"/>
      <path id="Trazado_628956" data-name="Trazado 628956" d="M751.272,432.207c-6.944-.416-9.372-8.564-14.674-10.634-9.713-3.811-11.538,10.634-16.669,10.634C718.358,432.207,753.375,432.315,751.272,432.207Z" transform="translate(-439.599 -260.765)" fill="#5f463c"/>
      <path id="Trazado_628957" data-name="Trazado 628957" d="M190.7,328.666l-11.334-6.844L175.9,319.74l-6.394-3.857c4.4-7.735-8.33-13.745-8.33-13.745,10.276-.708,17.04,3.361,21.468,8.51a29.321,29.321,0,0,1,2.607,3.536A40.124,40.124,0,0,1,190.7,328.666Z" transform="translate(-113.614 -191.404)" fill="#f5e6d5"/>
      <path id="Trazado_628958" data-name="Trazado 628958" d="M162.72,209l-.246,12.637-.079,4.028-.15,8.085c-8.905.054-7.764,14.074-7.764,14.074-5.9-8.747-5.606-16.828-3.191-23.325a30.278,30.278,0,0,1,1.854-4.036A40.116,40.116,0,0,1,162.72,209Z" transform="translate(-106.898 -137.108)" fill="#d7e7f3"/>
      <path id="Trazado_628959" data-name="Trazado 628959" d="M162.72,209l-.246,12.637-.079,4.028-.15,8.085c-8.905.054-7.764,14.074-7.764,14.074-5.9-8.747-5.606-16.828-3.191-23.325a30.278,30.278,0,0,1,1.854-4.036A40.116,40.116,0,0,1,162.72,209Z" transform="translate(-106.898 -137.108)" fill="#f5e6d5"/>
      <path id="Trazado_628960" data-name="Trazado 628960" d="M108.356,302.19c-4.5,9.2-11.346,13.037-17.99,14.312a28.644,28.644,0,0,1-4.419.508,39.948,39.948,0,0,1-15.336-2.545l11.409-6.3,3.528-1.945,6.735-3.69C96.776,310.183,108.356,302.19,108.356,302.19Z" transform="translate(-60.769 -191.482)" fill="#f5e6d5"/>
      <path id="Trazado_628961" data-name="Trazado 628961" d="M175.651,319.759a.2.2,0,0,1-.1-.029l-6.564-3.957.1-.171a6.16,6.16,0,0,0,.6-5.061c-1.55-4.919-8.747-8.385-8.826-8.418a.2.2,0,0,1-.1-.267.2.2,0,0,1,.267-.1c.3.142,7.439,3.574,9.039,8.66a6.493,6.493,0,0,1-.546,5.207l6.248,3.749a.2.2,0,0,1-.1.371Z" transform="translate(-113.361 -191.219)" fill="#5f463c"/>
      <path id="Trazado_628962" data-name="Trazado 628962" d="M160.875,271.022a.2.2,0,0,1-.2-.183c-.029-.333-.625-8.222,2.982-12.154a6.481,6.481,0,0,1,4.782-2.133l.15-7.914a.208.208,0,0,1,.417,0l-.158,8.281h-.2a6.148,6.148,0,0,0-4.686,2.008c-3.486,3.8-2.887,11.771-2.878,11.85a.2.2,0,0,1-.183.217Z" transform="translate(-113.288 -160.114)" fill="#5f463c"/>
      <path id="Trazado_628963" data-name="Trazado 628963" d="M106.229,306.154a.2.2,0,0,1-.175-.1.2.2,0,0,1,.075-.275l6.894-3.807.1.171A6.16,6.16,0,0,0,117.2,305.2c5.04,1.116,11.642-3.391,11.709-3.436a.2.2,0,0,1,.229.333c-.275.192-6.814,4.648-12.021,3.495a6.514,6.514,0,0,1-4.24-3.074l-6.548,3.615A.158.158,0,0,1,106.229,306.154Z" transform="translate(-81.434 -191.218)" fill="#5f463c"/>
      <path id="Trazado_628964" data-name="Trazado 628964" d="M157.094,437.041,147.93,300.2a3.078,3.078,0,1,0-2.362-.029l-.771,11.509-2.12,31.589-6.3,93.777Z" transform="translate(-99.144 -186.855)" fill="#f5e6d5"/>
      <path id="Trazado_628965" data-name="Trazado 628965" d="M136.116,461.338h0a.2.2,0,0,1-.187-.217l8.406-125.374a.208.208,0,0,1,.212-.187.2.2,0,0,1,.187.217l-8.406,125.374A.2.2,0,0,1,136.116,461.338Z" transform="translate(-98.88 -210.952)" fill="#5f463c"/>
      <path id="Trazado_628966" data-name="Trazado 628966" d="M172.988,441.255a.2.2,0,0,1-.2-.187L163.62,304.081l.133-.054a2.87,2.87,0,0,0,1.82-2.678.208.208,0,1,1,.417,0,3.265,3.265,0,0,1-1.937,2.991l9.164,136.7a.2.2,0,0,1-.187.217Z" transform="translate(-115.037 -190.869)" fill="#5f463c"/>
      <path id="Trazado_628967" data-name="Trazado 628967" d="M124.341,236.42c-.45,0-.9,0-1.341.038a30.271,30.271,0,0,0-1.854,4.036,21.891,21.891,0,0,1,3.195-.229,23.039,23.039,0,0,1,7.914,1.391l.079-4.028a26.824,26.824,0,0,0-7.993-1.208Zm21.464,35.9a23.072,23.072,0,0,1-6.764,9.109l3.465,2.083a27.237,27.237,0,0,0,5.894-7.656A29.324,29.324,0,0,0,145.8,272.324ZM98,269.788a26.791,26.791,0,0,0,3.911,8.847,28.636,28.636,0,0,0,4.419-.508,22.859,22.859,0,0,1-4.8-10.284Z" transform="translate(-76.75 -153.107)" fill="#7f9929"/>
      <path id="Trazado_628968" data-name="Trazado 628968" d="M160.215,299.013a1.833,1.833,0,1,1-1.833-1.833,1.833,1.833,0,0,1,1.833,1.833Z" transform="translate(-110.912 -188.559)" fill="#5a739c"/>
    </g>
  </g>
</svg>
