<svg xmlns="http://www.w3.org/2000/svg" xmlns:xlink="http://www.w3.org/1999/xlink" width="459" height="385" viewBox="0 0 459 385">
  <defs>
    <linearGradient id="linear-gradient" x1="0.5" x2="0.5" y2="1" gradientUnits="objectBoundingBox">
      <stop offset="0" stop-color="#f9fef5"/>
      <stop offset="1" stop-color="#e7f7f8"/>
    </linearGradient>
  </defs>
  <g id="Grupo_1075175" data-name="Grupo 1075175" transform="translate(-226 -3555)">
    <rect id="Rectángulo_376124" data-name="Rectángulo 376124" width="459" height="385" transform="translate(226 3555)" fill="url(#linear-gradient)"/>
    <g id="Grupo_1070508" data-name="Grupo 1070508" transform="translate(19.877 -18.28)">
      <g id="Grupo_1070505" data-name="Grupo 1070505" transform="translate(412.125 3612.281)">
        <path id="Trazado_265303" data-name="Trazado 265303" d="M274.666,63.22c0,18.986,9.67,38.778,34.376,38.778,26.3,0,34.373-19.792,34.373-38.778,0-8.878-5.566-15.18-11.092-26.406-6.29-12.779-13.176-25.583-23.281-25.583s-16.97,12.776-23.258,25.533C280.244,48,274.666,54.328,274.666,63.22" transform="translate(-258.007 -2.323)" fill="#cdaecf"/>
        <path id="Trazado_265304" data-name="Trazado 265304" d="M312.28,36.8c-6.217-12.632-13.022-25.264-22.936-25.555v90.732c26.021-.177,34.028-19.87,34.028-38.771,0-8.878-5.566-15.18-11.092-26.406" transform="translate(-237.965 -2.307)" fill="#c19db6"/>
        <path id="Trazado_265305" data-name="Trazado 265305" d="M305.4,28.718a1.42,1.42,0,0,1-1.308-.871c-3.2-7.607-6.247-8.584-8.551-8.584-2.8,0-6.042,3.373-8.263,8.592a1.418,1.418,0,1,1-2.609-1.112c2.749-6.46,6.813-10.316,10.872-10.316,4.66,0,8.211,3.279,11.168,10.323a1.418,1.418,0,0,1-1.308,1.968" transform="translate(-244.505 4.772)" fill="#843968"/>
        <path id="Trazado_265306" data-name="Trazado 265306" d="M301.9,38.043c-8.419,0-16.261-2.316-22-4.012a1.418,1.418,0,0,1,.8-2.72c5.63,1.663,13.358,3.946,21.443,3.894a73.767,73.767,0,0,0,23.49-3.726,1.419,1.419,0,0,1,.946,2.675,76.638,76.638,0,0,1-24.419,3.889H301.9" transform="translate(-252.247 25.016)" fill="#843968"/>
        <path id="Trazado_265307" data-name="Trazado 265307" d="M301.677,42.6a77.982,77.982,0,0,1-21.746-2.912,1.418,1.418,0,0,1,.8-2.72,76.032,76.032,0,0,0,21.436,2.794,72.745,72.745,0,0,0,23.49-3.728,1.419,1.419,0,0,1,.946,2.675A75.542,75.542,0,0,1,302.188,42.6c-.17,0-.341,0-.511,0" transform="translate(-252.206 31.439)" fill="#843968"/>
        <path id="Trazado_265308" data-name="Trazado 265308" d="M301.7,47.245a77.969,77.969,0,0,1-21.746-2.912,1.418,1.418,0,1,1,.8-2.72,75.1,75.1,0,0,0,20.942,2.8l.5,0a72.7,72.7,0,0,0,23.487-3.728,1.419,1.419,0,0,1,.949,2.675,75.542,75.542,0,0,1-24.419,3.889c-.17,0-.341,0-.511,0" transform="translate(-252.171 37.778)" fill="#843968"/>
        <path id="Trazado_265309" data-name="Trazado 265309" d="M287.62,56.547c-12.708-5.306-20-13.195-20-21.649,0-15.125,22.96-27.433,51.178-27.433S369.98,19.773,369.98,34.9c0,8.085-7.582,16.178-20.28,21.642l-1.124-2.6c11.451-4.93,18.567-12.225,18.567-19.038,0-13.562-21.685-24.594-48.342-24.594S270.463,21.336,270.463,34.9c0,7.146,6.822,14.259,18.252,19.031Z" transform="translate(-267.624 -7.465)" fill="#843968"/>
      </g>
      <g id="Grupo_1070507" data-name="Grupo 1070507" transform="translate(526.401 3653.409)">
        <path id="Trazado_265310" data-name="Trazado 265310" d="M497.484,97.431c-3.472-7.473-22.553-6.612-30.674-13.76a30.493,30.493,0,0,1-10.24-23.882c.3-16.083,2.585-56.006,2.585-56.006H407.183c0,25.018,4.627,51,4.873,58.93.326,10.4-5.848,15.92-3.248,37.039,0,0,30.7.975,47.883,6.945,9.313,3.236,40.41,5.3,41.572.222.322-1.407.615-6.489-.778-9.488" transform="translate(-378.808 -3.783)" fill="#a7af5d"/>
        <path id="Trazado_265311" data-name="Trazado 265311" d="M407.95,54.876s5.157,2.03,28.523,2.193l.149-6.33c10.886.975,15.191,5.072,25.344,6.534,6.981,1.005,34.425,3.078,35.355-2.046l0-3.115a.27.27,0,0,0-.421-.222c-6.427,3.8-33.985,2.323-44.306-1.682-13.365-5.185-44.727-5.971-44.727-5.971Z" transform="translate(-377.87 51.456)" fill="#814331"/>
        <path id="Trazado_265312" data-name="Trazado 265312" d="M485.489,100.43c-3.472-7.473-22.553-6.612-30.674-13.76a30.493,30.493,0,0,1-10.24-23.882c.3-16.083,2.586-56.006,2.586-56.006H395.188c0,25.018,4.627,51,4.873,58.93.327,10.4-5.847,15.92-3.248,37.039,0,0,30.7.975,47.883,6.945,9.313,3.236,40.41,5.3,41.572.222.322-1.407.615-6.489-.778-9.488" transform="translate(-395.188 0.312)" fill="#b6c567"/>
        <path id="Trazado_265313" data-name="Trazado 265313" d="M395.955,57.874s5.157,2.03,28.523,2.193l.149-6.33c10.886.975,15.191,5.072,25.344,6.534,6.981,1.005,34.426,3.078,35.355-2.046l0-3.115a.27.27,0,0,0-.421-.222c-6.427,3.8-33.985,2.323-44.306-1.682-13.365-5.185-44.727-5.971-44.727-5.971Z" transform="translate(-394.25 55.551)" fill="#955c4a"/>
      </g>
      <g id="Grupo_1070501" data-name="Grupo 1070501" transform="translate(226.123 3675.732)">
        <path id="Trazado_265314" data-name="Trazado 265314" d="M47.983,81.246l-1.5-1.107-.788-.584-1.15-.927c-.811-.688-1.836-1.478-2.661-2.335a37.752,37.752,0,0,1-2.744-2.858,39.149,39.149,0,0,1-2.763-3.458c-.475-.6-.878-1.277-1.308-1.942-.414-.677-.878-1.325-1.24-2.053-.378-.712-.762-1.434-1.143-2.155-.352-.74-.669-1.5-1-2.254a23.066,23.066,0,0,1-.866-2.306c-.258-.778-.551-1.535-.731-2.332q-.295-1.182-.584-2.337c-.132-.785-.263-1.561-.39-2.323a21.461,21.461,0,0,1-.251-2.261c-.045-.745-.144-1.462-.128-2.174a34.535,34.535,0,0,1,.144-3.986c.062-.613.121-1.2.177-1.76.1-.554.194-1.079.281-1.571A21.714,21.714,0,0,1,29.908,38c.4-1.374,1.642-5.022,1.642-5.022l11.4,3.229S41.847,39.6,41.7,40.531a12.122,12.122,0,0,0-.168,1.68q-.032.483-.071,1.029c.012.364.021.745.031,1.145a21.467,21.467,0,0,0,.208,2.557c.031.452.173.908.251,1.379a11,11,0,0,0,.331,1.422q.206.713.416,1.452.277.717.561,1.448a13.205,13.205,0,0,0,.648,1.438,11.922,11.922,0,0,0,.731,1.412l.8,1.372.908,1.3a14.312,14.312,0,0,0,.963,1.23A13.291,13.291,0,0,0,48.3,60.55a24.338,24.338,0,0,0,2.063,2.025,22.782,22.782,0,0,0,2,1.646,18.676,18.676,0,0,0,1.646,1.135c.253.163.414.291.693.459.31.18.594.343.849.492l1.613.93Z" transform="translate(39.244 36.316)" fill="#aec4bc"/>
        <path id="Trazado_265315" data-name="Trazado 265315" d="M80.488,5.171h0C52.762-2.16,23.9,18.326,18.41,51.2A95.69,95.69,0,0,1,2.445,57.818a2.238,2.238,0,0,0-.785,4.39c.426.114,10.524,2.8,17.727,3.383L54.51,68.347a20.417,20.417,0,0,1,4.137.759L80.7,75.585a22.743,22.743,0,0,1,8.741,4.88L96.373,86.7a18.565,18.565,0,0,0,7.395,4.062l18.016,5.017a2.2,2.2,0,0,0,.6.083,2.241,2.241,0,0,0,.6-4.4l-.949-.263,2.656-10.046a62.341,62.341,0,0,0-44.2-75.983" transform="translate(-0.001 -3.684)" fill="#f87043"/>
        <path id="Trazado_265316" data-name="Trazado 265316" d="M33.363,57.274a61.6,61.6,0,0,1,5.952-13.183c6.4-10.432,15.357-14.248,25.093-12.071Q68.751,19.086,73.6,6.3c-1.232-.409-2.479-.8-3.752-1.133C42.16-2.15,13.348,18.264,7.794,51.055c8.447,2,17.032,4.007,25.569,6.219" transform="translate(10.641 -3.684)" fill="#ff8b4a"/>
        <path id="Trazado_265317" data-name="Trazado 265317" d="M101.632,81.641a1.462,1.462,0,0,1-.362-.047,1.418,1.418,0,0,1-1.01-1.734l1.18-4.473A53.449,53.449,0,0,0,63.559,10.27a35.715,35.715,0,0,0-9.126-1.19C35.791,9.081,18.969,23.6,13.524,44.4a1.418,1.418,0,1,1-2.744-.719C16.549,21.639,34.5,6.242,54.433,6.242a38.511,38.511,0,0,1,9.852,1.287,56.286,56.286,0,0,1,39.9,68.583L103,80.583a1.422,1.422,0,0,1-1.372,1.057" transform="translate(14.655 -0.192)" fill="#d65b28"/>
      </g>
      <g id="Grupo_1070504" data-name="Grupo 1070504" transform="translate(246.947 3811.539)">
        <path id="Trazado_265318" data-name="Trazado 265318" d="M245.791,36.031c-.745-1.847.677-4.8,3.106-9.457.483-.92.944-1.8,1.32-2.583l.523-1.074c2.027-4.154,3.629-7.435,2.425-10.8-1.313-3.662-4.859-3.075-9.725-1.843a184.352,184.352,0,0,0-18.867,5.9l-1.017-2.649a190.762,190.762,0,0,1,19.1-5.978c4.13-1.046,10.9-2.753,13.178,3.615,1.609,4.49-.409,8.622-2.545,13l-.518,1.06c-.388.807-.863,1.717-1.36,2.666C250.3,30.025,248.22,34,248.433,35Z" transform="translate(-158.913 -6.368)" fill="#52193a"/>
        <path id="Trazado_265319" data-name="Trazado 265319" d="M219.957,43.254l-2.813.371c-.3-.946-4.066-3.383-6.089-4.691-.9-.582-1.76-1.14-2.5-1.649l-.972-.672c-4.014-2.758-7.8-5.363-8.615-10.063-1.15-6.666,5.583-8.509,9.6-9.609a186.678,186.678,0,0,1,19.658-4.222l.421,2.806a186.741,186.741,0,0,0-19.239,4.13c-4.93,1.348-8.305,2.583-7.645,6.415.608,3.52,3.617,5.587,7.428,8.206l.982.677c.712.492,1.547,1.034,2.42,1.6,4.4,2.853,7.1,4.726,7.359,6.7" transform="translate(-192.659 2.09)" fill="#52193a"/>
        <path id="Trazado_265320" data-name="Trazado 265320" d="M236.16,79.17l17.493-4.6,7.979-35.932L242.289,11.864A13.043,13.043,0,0,0,228.4,6.889l-5.483,1.443A13.045,13.045,0,0,0,213.274,19.5l-3.655,32.8Z" transform="translate(-177.943 -6.459)" fill="#814f4f"/>
        <path id="Trazado_265321" data-name="Trazado 265321" d="M232.773,11.864a13.043,13.043,0,0,0-13.89-4.975l-2.295.606L234.881,77l9.256-2.434,7.979-35.932Z" transform="translate(-168.427 -6.459)" fill="#703c40"/>
        <path id="Trazado_265322" data-name="Trazado 265322" d="M231.45,43.477a11.939,11.939,0,1,1,8.506-14.586,11.955,11.955,0,0,1-8.506,14.586m-5.355-20.348a9.1,9.1,0,1,0,11.118,6.484,9.111,9.111,0,0,0-11.118-6.484" transform="translate(-168.587 12.018)" fill="#e0b399"/>
        <path id="Trazado_265323" data-name="Trazado 265323" d="M231.945,83.508c-9.143,5.417-22.834-.774-30.579-13.843s-6.6-28.05,2.543-33.47c4.634-2.746,10.879-6.408,15.513-9.155,9.143-5.419,22.834.774,30.579,13.843s6.6,28.05-2.543,33.467c-4.634,2.749-10.879,6.408-15.513,9.157" transform="translate(-196.228 18.966)" fill="#61866d"/>
        <path id="Trazado_265324" data-name="Trazado 265324" d="M203.906,30.91c-9.145,5.419-10.283,20.4-2.541,33.47S222.8,83.642,231.942,78.223s10.283-20.4,2.541-33.47S213.051,25.491,203.906,30.91" transform="translate(-196.228 24.251)" fill="#456959"/>
        <path id="Trazado_265325" data-name="Trazado 265325" d="M225.151,73.7c-7.227,1.9-16.975-3.922-22.678-13.545a31.09,31.09,0,0,1-4.594-16.291c.142-5.519,2.193-9.722,5.77-11.844a10.04,10.04,0,0,1,2.564-1.067c7.224-1.9,16.975,3.922,22.678,13.545a31.09,31.09,0,0,1,4.594,16.291c-.142,5.516-2.193,9.722-5.77,11.844a10.078,10.078,0,0,1-2.564,1.067m-18.217-40a7.3,7.3,0,0,0-1.84.764c-2.706,1.6-4.263,4.97-4.379,9.476a28.6,28.6,0,0,0,4.2,14.768c5,8.435,13.569,13.817,19.516,12.251a7.286,7.286,0,0,0,1.838-.764c2.709-1.6,4.265-4.97,4.381-9.476a28.635,28.635,0,0,0-4.2-14.77c-5-8.433-13.569-13.815-19.516-12.249" transform="translate(-193.985 26.494)" fill="#22312d"/>
        <path id="Trazado_265326" data-name="Trazado 265326" d="M263.874,73.459c10.626.215,19.494-11.913,19.8-27.1s-8.064-27.667-18.69-27.882c-5.389-.109-12.622-.222-18.011-.331-10.626-.215-19.494,11.913-19.8,27.1s8.062,27.667,18.688,27.882c5.389.109,12.625.222,18.013.331" transform="translate(-153.984 9.492)" fill="#61866d"/>
        <path id="Trazado_265327" data-name="Trazado 265327" d="M254.588,18.284c10.628.215,19,12.7,18.688,27.882s-9.171,27.317-19.8,27.1-19-12.7-18.69-27.882,9.173-27.317,19.8-27.1" transform="translate(-143.587 9.684)" fill="#456959"/>
        <path id="Trazado_265328" data-name="Trazado 265328" d="M254.065,66.795h0a10.033,10.033,0,0,1-2.758.334c-8.319-.168-15.132-11.118-14.874-23.911.227-11.184,5.848-21.053,13.074-22.955a10.027,10.027,0,0,1,2.756-.334c4.159.085,8.012,2.737,10.853,7.468a31.094,31.094,0,0,1,4.021,16.443c-.227,11.184-5.848,21.053-13.072,22.955m-3.837-43.788c-5.947,1.566-10.758,10.467-10.957,20.268-.225,11.061,5.427,20.88,12.095,21.015a7.163,7.163,0,0,0,1.978-.239c5.945-1.566,10.758-10.467,10.955-20.27a28.627,28.627,0,0,0-3.615-14.922c-2.321-3.865-5.332-6.03-8.478-6.091a7.153,7.153,0,0,0-1.978.239" transform="translate(-141.339 11.931)" fill="#22312d"/>
      </g>
      <g id="Grupo_1070503" data-name="Grupo 1070503" transform="translate(376.646 3711.957)">
        <path id="Trazado_265329" data-name="Trazado 265329" d="M140.008,41.849c4.816,9.129,15.154,12.722,24.864,16.218l1.185.426a12.246,12.246,0,0,0,14.612-5.166l2.7-4.069a3.936,3.936,0,0,1,4.494-1.59,3.981,3.981,0,0,1,2.479,4.038l-.433,5.237a12.214,12.214,0,0,0,7.986,13.006c9.244,3.326,18.96,7.333,28.154,3.875A27.656,27.656,0,0,0,241.73,57.5a10.037,10.037,0,0,0-6.044-12.84l-83.207-29.94a10.032,10.032,0,0,0-12.84,6.044l-.137.383c-4.625,12.849.506,20.705.506,20.705" transform="translate(-122.313 -12.26)" fill="#ffb944"/>
        <path id="Trazado_265330" data-name="Trazado 265330" d="M206.421,35.538,165.46,20.8,159,38.74a3.993,3.993,0,0,1,2.075,3.846l-.433,5.237A12.218,12.218,0,0,0,168.63,60.83c9.244,3.326,18.96,7.333,28.157,3.875a27.664,27.664,0,0,0,15.679-16.327,10.035,10.035,0,0,0-6.044-12.84" transform="translate(-93.048 -3.143)" fill="#fc9818"/>
        <path id="Trazado_265331" data-name="Trazado 265331" d="M201.733,72.349l-3.66-1.325a12.852,12.852,0,0,1-8.45-13.76l.431-5.209a3.284,3.284,0,0,0-2.013-3.312,3.23,3.23,0,0,0-3.648,1.292l-2.716,4.09a12.985,12.985,0,0,1-15.442,5.443l-2.153-.776c-9.1-3.276-19.421-6.988-24.284-16.2-.182-.277-5.237-8.244-.546-21.278l.137-.383a10.756,10.756,0,0,1,13.748-6.472L236.346,44.4a10.757,10.757,0,0,1,6.47,13.748A28.115,28.115,0,0,1,226.7,74.9c-8.066,3.035-16.412.523-24.963-2.555M188.522,47.41a4.713,4.713,0,0,1,2.943,4.793l-.431,5.209a11.455,11.455,0,0,0,7.52,12.279l3.659,1.325c8.294,2.985,16.369,5.426,24.005,2.552a27.178,27.178,0,0,0,15.262-15.9,9.338,9.338,0,0,0-5.616-11.934L152.658,15.79a9.337,9.337,0,0,0-11.932,5.618l-.14.383c-4.435,12.329.386,20,.435,20.079,4.636,8.786,14.68,12.4,23.542,15.589l2.153.776a11.571,11.571,0,0,0,13.765-4.868l2.713-4.092a4.66,4.66,0,0,1,5.327-1.864" transform="translate(-122.732 -12.669)" fill="#fff7ca"/>
        <path id="Trazado_265332" data-name="Trazado 265332" d="M201.894,73.426,198.232,72.1a13.562,13.562,0,0,1-8.911-14.517l.426-5.178A2.586,2.586,0,0,0,188.2,49.82a2.515,2.515,0,0,0-2.8.991l-2.73,4.116A13.683,13.683,0,0,1,166.4,60.645l-2.15-.776c-9.226-3.319-19.683-7.082-24.672-16.542-.017-.019-5.441-8.362-.587-21.848l.137-.383a11.466,11.466,0,0,1,14.654-6.9l83.207,29.943a11.466,11.466,0,0,1,6.9,14.654,28.867,28.867,0,0,1-16.561,17.19c-8.27,3.111-16.748.565-25.429-2.559m23.5,1.708c-7.383,2.153-15.085-.187-22.972-3.026,7.887,2.839,15.586,5.178,22.972,3.026M184.387,49.78a3.044,3.044,0,0,0-.185.272l-2.73,4.114A12.268,12.268,0,0,1,166.9,59.318a12.259,12.259,0,0,0,14.569-5.152l2.73-4.114a3.044,3.044,0,0,1,.185-.272m6.271,8.762a12.146,12.146,0,0,0,7.186,11.875,12.154,12.154,0,0,1-7.186-11.875m-1.5-11.39a5.453,5.453,0,0,1,3.406,5.547l-.426,5.178A10.765,10.765,0,0,0,199.2,69.43l3.659,1.327c8.163,2.938,16.1,5.344,23.518,2.555a26.614,26.614,0,0,0,14.844-15.478,8.629,8.629,0,0,0-5.19-11.026L152.819,16.866a8.629,8.629,0,0,0-11.026,5.19l-.137.383c-4.277,11.889.319,19.385.367,19.459,4.537,8.592,14.444,12.156,23.184,15.3l2.15.774a10.857,10.857,0,0,0,12.918-4.568l2.73-4.116a5.379,5.379,0,0,1,6.157-2.138M140.791,42.6q.4.749.842,1.452-.44-.7-.835-1.445l-.007-.007M242.55,58.315a27.965,27.965,0,0,1-15.7,16.332,27.36,27.36,0,0,0,15.7-16.332M140.322,21.959c-4.606,12.8.4,20.542.468,20.644-.185-.3-4.927-8.253-.468-20.644M153.3,15.532a10.046,10.046,0,0,0-12.84,6.044l-.137.383.137-.383a10.046,10.046,0,0,1,12.84-6.044l83.207,29.943a10.046,10.046,0,0,1,6.044,12.84,10.046,10.046,0,0,0-6.044-12.84Z" transform="translate(-123.134 -13.079)" fill="#9f664d"/>
        <path id="Trazado_265333" data-name="Trazado 265333" d="M233.444,51.191,142.189,18.353a2.128,2.128,0,0,1,1.443-4l91.252,32.838a2.128,2.128,0,0,1-1.441,4" transform="translate(-117.927 -12.122)" fill="#f0311b"/>
        <path id="Trazado_265334" data-name="Trazado 265334" d="M180.26,63.834a3.828,3.828,0,0,1-.492-.641,2.451,2.451,0,0,1-.447-1.507,6.442,6.442,0,0,1,.646-1.84c.293-.669.625-1.422.984-2.245.7-1.6,1.507-3.465,2.377-5.464.849-1.963,1.639-4.071,2.3-6.146a25.772,25.772,0,0,0,1.221-6.008,12.272,12.272,0,0,0-.092-2.6,9.224,9.224,0,0,0-.549-2.174,10.488,10.488,0,0,0-.885-1.694,11.176,11.176,0,0,0-.958-1.211,8.2,8.2,0,0,0-.731-.736c-.175-.17-.27-.26-.27-.26l-.161-.154a1.781,1.781,0,0,1,2.108-2.836l.419.239a11.26,11.26,0,0,1,1.183.721c.246.177.518.374.816.587q.412.376.892.809a12.764,12.764,0,0,1,1.84,2.3,14.4,14.4,0,0,1,1.429,3.193,16.543,16.543,0,0,1,.655,3.738,26.9,26.9,0,0,1-.71,7.719,55.6,55.6,0,0,1-2.129,7.03c-.769,2.169-1.63,4.088-2.3,5.729-.338.811-.646,1.554-.92,2.212a6.053,6.053,0,0,1-.776,1.616,3.1,3.1,0,0,1-1.318.733,3.779,3.779,0,0,1-.792.154,4.37,4.37,0,0,1-3.338-1.258" transform="translate(-65.311 6.809)" fill="#9f664d"/>
        <path id="Trazado_265335" data-name="Trazado 265335" d="M132.2,43.059a3.939,3.939,0,0,1-.516-.617,3.094,3.094,0,0,1-.554-1.384,5.814,5.814,0,0,1,.421-1.708c.2-.672.433-1.426.684-2.252.518-1.665,1.064-3.659,1.836-5.784a57.094,57.094,0,0,1,2.753-6.659,28.05,28.05,0,0,1,4.18-6.33,15.338,15.338,0,0,1,5.741-4.144c.494-.2.993-.341,1.457-.478.478-.1.927-.194,1.348-.26a11.632,11.632,0,0,1,2.186-.088,10.728,10.728,0,0,1,1.365.137l.475.066a1.779,1.779,0,0,1-.035,3.529l-.232.026s-.125.017-.362.043a7.278,7.278,0,0,0-1,.149,11.52,11.52,0,0,0-1.452.386l-.826.348c-.272.163-.568.3-.856.478a11.837,11.837,0,0,0-3.378,3.385,27.484,27.484,0,0,0-2.77,5.4c-.783,2-1.5,4.1-2.077,6.124-.589,2.06-1.14,3.986-1.611,5.635l-.66,2.321a6.256,6.256,0,0,1-.662,1.8,2.432,2.432,0,0,1-1.3.861,3.822,3.822,0,0,1-.785.173,4.433,4.433,0,0,1-3.376-1.157" transform="translate(-131.121 -13.334)" fill="#9f664d"/>
      </g>
      <g id="Grupo_1070502" data-name="Grupo 1070502" transform="translate(555.81 3789.236)">
        <rect id="Rectángulo_317930" data-name="Rectángulo 317930" width="4.314" height="37.503" transform="translate(16.675 106.154) rotate(-61.136)" fill="#c54a00"/>
        <g id="Grupo_1070500" data-name="Grupo 1070500" transform="translate(0 0)">
          <path id="Trazado_265336" data-name="Trazado 265336" d="M150.789,38.186a3.938,3.938,0,0,0-5.332,1.542L134.736,59.177c-.336-.544-.693-1.083-1.062-1.616.024-.038.054-.071.078-.111l14.316-25.971a3.925,3.925,0,1,0-6.874-3.79l-12.98,23.546q-.66-.617-1.3-1.154l14.023-25.441a3.923,3.923,0,0,0-6.872-3.787l-13.98,25.358c-.6-.241-1.206-.468-1.807-.674L130.755,22.9a3.925,3.925,0,1,0-6.874-3.79L109.565,45.086c-.028.052-.043.106-.069.158-.017.028-.045.05-.061.078-.485.878-1.845,3.063-3.331,5.933-1.1,1.613-3.087,2.555-5.386,3.29l9.126-16.556a3.924,3.924,0,1,0-6.872-3.79L88.656,60.171c-.028.05-.04.1-.066.154s-.066.088-.095.135c-2.039,3.7-1.462,9.429.118,14.016L81.24,87.852l32.843,18.1,8.057-14.614c5.817-3.615,11.087-13.169,14.971-20.213a5.741,5.741,0,0,0,.4-.937,4,4,0,0,0,.506-.7l14.316-25.971a3.938,3.938,0,0,0-1.542-5.332" transform="translate(-62.503 14.621)" fill="#ff6a00"/>
          <path id="Trazado_265337" data-name="Trazado 265337" d="M121.043,34.306a3.924,3.924,0,1,0-7.849,0V53.211c-1.658-1.755-2.95-3.539-3.13-5.481.085-3.229-.052-5.8-.052-6.8,0-.033-.014-.064-.017-.1,0-.057.017-.111.017-.17V11a3.923,3.923,0,1,0-7.846,0V36.846c-.624-.109-1.263-.2-1.909-.281V7.606a3.924,3.924,0,0,0-7.849,0V36.657c-.546.106-1.114.234-1.7.383V10.154a3.924,3.924,0,1,0-7.849,0V39.808c0,.047.012.09.014.137-.582.286-1.154.587-1.713.9V18.636a3.923,3.923,0,1,0-7.846,0V48.293a3.989,3.989,0,0,0,.1.861,5.78,5.78,0,0,0-.1,1.01c0,8.045,0,18.957,3.352,24.93V91.783h37.5V76.509c3.6-3.255,6.869-7.993,6.869-12.218,0-.054-.014-.109-.017-.163s.017-.109.017-.166Z" transform="translate(-73.319 -3.684)" fill="#ffa511"/>
        </g>
        <rect id="Rectángulo_317931" data-name="Rectángulo 317931" width="37.503" height="4.315" transform="translate(3.265 88.101)" fill="#d45200"/>
      </g>
      <g id="Grupo_1070506" data-name="Grupo 1070506" transform="translate(395.031 3783.867)">
        <path id="Trazado_265338" data-name="Trazado 265338" d="M437.915,52.453c-10.683-13.4-17.772-29.924-21.671-50.511L415.906,0l-2.886.636L393.746,4.875l-2.538.558.092,1.618c1.325,11.179-1.088,21.739-7.371,32.282a23.182,23.182,0,0,0-3.023,8.495,23.209,23.209,0,0,0-6.309-6.441c-10.127-6.933-16.745-15.508-20.235-26.21l-.6-1.509-2.538.558-19.274,4.239-2.888.634.509,1.9c5.1,20.325,5.6,38.3,1.523,54.942l-.158.648.144.653,12.083,54.944.617,2.805,2.8-.617L396.027,123.5l.1-.021,2.7-.6.1-.021,49.439-10.874,2.805-.615-.617-2.806L438.473,53.626l-.142-.653Z" transform="translate(-329.066)" fill="#ffaa31"/>
        <path id="Trazado_265339" data-name="Trazado 265339" d="M407.933,52.453c-10.683-13.4-17.772-29.924-21.67-50.511L385.924,0l-24.7,5.434.092,1.618c1.325,11.179-1.088,21.739-7.371,32.282a23.146,23.146,0,0,0-2.924,7.986l16.677,75.82,53.494-11.764-12.845-58.4Z" transform="translate(-299.084)" fill="#fd8520"/>
        <path id="Trazado_265340" data-name="Trazado 265340" d="M430.222,51.131l5.452-1.2-2.408-3.34-3.319-4.934-1.055-1.779L426,40.514l-13.174,2.9L404.118,3.83l-.615-2.8-2.8.617L395.3,2.831l-2.8.617.615,2.8,8.707,39.582-42.733,9.4L350.374,15.65l-.615-2.8-2.8.617-5.405,1.187-2.8.617.615,2.8,8.707,39.582-13.173,2.9-2.884.634-.189,2.051-.844,5.852-.915,4.069,5.452-1.2Z" transform="translate(-327.704 1.401)" fill="#dbede0"/>
        <rect id="Rectángulo_317932" data-name="Rectángulo 317932" width="109.959" height="11.275" transform="translate(4.769 89.756) rotate(-12.406)" fill="#dbede0"/>
        <path id="Trazado_265341" data-name="Trazado 265341" d="M359.14,12.04c-8.066,1.774-15.378,1.592-19.109-.163,3.631,9.85,10.056,17.836,19.594,24.365a23.207,23.207,0,0,1,6.309,6.441,23.155,23.155,0,0,1,3.023-8.492c5.933-9.956,8.409-19.927,7.553-30.423-2.59,3.191-9.211,6.479-17.37,8.272" transform="translate(-314.093 5.146)" fill="#af3232"/>
      </g>
    </g>
  </g>
</svg>
