<svg xmlns="http://www.w3.org/2000/svg" xmlns:xlink="http://www.w3.org/1999/xlink" width="459" height="385" viewBox="0 0 459 385">
  <defs>
    <linearGradient id="linear-gradient" x1="0.5" x2="0.5" y2="1" gradientUnits="objectBoundingBox">
      <stop offset="0" stop-color="#f9fef5"/>
      <stop offset="1" stop-color="#e7f7f8"/>
    </linearGradient>
  </defs>
  <g id="Grupo_1075174" data-name="Grupo 1075174" transform="translate(-226 -4164)">
    <rect id="Rectángulo_376125" data-name="Rectángulo 376125" width="459" height="385" transform="translate(226 4164)" fill="url(#linear-gradient)"/>
    <g id="Grupo_1070499" data-name="Grupo 1070499" transform="translate(2583.858 13863.957)">
      <path id="Trazado_272190" data-name="Trazado 272190" d="M208.886,740.133c-25.265,14.588-66.359,14.514-91.783-.166s-25.554-38.4-.289-52.992,66.359-14.514,91.785.166,25.552,38.4.287,52.992" transform="translate(-2238.846 -10073.975)" fill="#d3dfdf"/>
      <path id="Trazado_272191" data-name="Trazado 272191" d="M152.3,635.212a6.011,6.011,0,0,0-3.179-2.132c-5.041-1.968-17.765-8.752-19.367-9.581a86.462,86.462,0,0,1,3.129-8.608c1.445-3.646,5.458-12.8,5.937-13.755.178-.354.359-.711.554-1.055.751-1.329,2.194-1.609,3.391-2.372a12.462,12.462,0,0,0,3.179-3,24.127,24.127,0,0,0,3.068-5.824,6.351,6.351,0,0,0,.571-2.315,2.346,2.346,0,0,0-1.036-2.045c-.272-.157-.612-.262-.747-.549a2.3,2.3,0,0,1-.1-.552,1.006,1.006,0,0,0-1.8-.407c-.3-.289-.708-.6-1.1-.445a.886.886,0,0,0-.376.342c-.8,1.151-.547,2.748-1.154,4.013a4.554,4.554,0,0,1-1.852,1.857.408.408,0,0,1-.164.067A.286.286,0,0,1,141,588.6a.828.828,0,0,1,.07-.4q.582-1.669,1.166-3.341a2.79,2.79,0,0,0,.224-1.13.942.942,0,0,0-.653-.865.984.984,0,0,0-.995.542,4.421,4.421,0,0,0-.359,1.156,11.212,11.212,0,0,1-1.814,3.5q-1.225,1.806-2.452,3.61a19.994,19.994,0,0,0-1.443,2.36,19.429,19.429,0,0,1-1.534,3.377c-.658.867-1.25,1.78-1.842,2.7-4.022,6.224-7.97,12.507-11.38,19.088a9.209,9.209,0,0,0-1.431,5.236,10.038,10.038,0,0,0,2.221,5.089c1.414,1.883,12.259,11.688,15.634,15.3a15.708,15.708,0,0,0,2.254,2.129c.995.71,1.785.424,2.813-.149a10.46,10.46,0,0,1,1.84-.927c.913-.289,1.758-1.409,2.512-1.992a7.3,7.3,0,0,1,2.946-1.5,13.679,13.679,0,0,0,1.693-.316,4.929,4.929,0,0,0,2.555-2.842c.482-1.2-.079-2.946-.718-4.008" transform="translate(-2209.855 -10205.738)" fill="#ffc7a6"/>
      <path id="Trazado_272192" data-name="Trazado 272192" d="M122.425,658.511c-.342-.759-.73-1.5-1.115-2.235a1.741,1.741,0,0,1-.137.544c-.144-.169-.236-.12-.419-.041-.219.094-.238.137-.508,0a10.368,10.368,0,0,1-.99-.768,11.023,11.023,0,0,0-2.329-1.1,6.464,6.464,0,0,0-2.242-.527c-.084,0-.169,0-.253.01-1.493.118-2.117,1.245-3.066,2.247q-1.557,1.647-3.186,3.218-3.23,3.114-6.734,5.918c-2.519,2.016-7.418,5.715-4.858,9.5a3.97,3.97,0,0,0,1.737,1.132,8.658,8.658,0,0,0,5.279.209,14.264,14.264,0,0,0,5.761-2.859c2.148-1.77,3.948-4.263,6.669-4.853a14.429,14.429,0,0,0,4.559-1.366,6,6,0,0,0,2.62-2.958,5.9,5.9,0,0,0,.26-2.372,11.207,11.207,0,0,0-1.048-3.7" transform="translate(-2241.779 -10104.54)" fill="#632059"/>
      <path id="Trazado_272193" data-name="Trazado 272193" d="M156.02,636.633a26.772,26.772,0,0,1-4.538-6.284,16.672,16.672,0,0,0-2.5-4.1,3.941,3.941,0,0,0-4.716-.922,40.378,40.378,0,0,0-5.643,2.423c-2.779,1.532-19.475,8.567-24.668,11.334-2.047,1.091-4.388,2.351-5.838,4.215a15.653,15.653,0,0,0-2.642,6.144c-1.317,5.727-1.221,11.794-1.763,17.633-.727,7.832-1.842,27.423-1.85,29.367,0,.672-.323,2.471.014,3.03.32.525,1.158.552,1.794.653a15.241,15.241,0,0,0,5.123-.048c.657-.118,4.5-.877,4.619-1.64,1.674-10.742,4.668-21.238,6.566-31.942a31.754,31.754,0,0,0,.626-9.4c-.019-.164-.041-.325-.067-.489a1.668,1.668,0,0,1,1.611-1.932,89.22,89.22,0,0,0,16.912-2.115c9.779-2,19.769-4.509,27.821-10.407a12.514,12.514,0,0,0-5.364-2.288,10.206,10.206,0,0,1-5.5-3.237" transform="translate(-2233.524 -10146.015)" fill="#262626"/>
      <path id="Trazado_272194" data-name="Trazado 272194" d="M142.742,607.447a1.329,1.329,0,0,1-.21-.771.684.684,0,0,0-.039-.383.565.565,0,0,0-.277-.21q-5.455-2.561-11.021-4.885a1.925,1.925,0,0,0-1.014-.243,3.177,3.177,0,0,0-1.1.607,13.318,13.318,0,0,0-3.993,5.229,15.446,15.446,0,0,0-1.5,6.691,15.235,15.235,0,0,0,.383,3.384c.1.436.149.718.523.961.407.27.85.484,1.257.761a14.282,14.282,0,0,1,2.038,1.582,30.031,30.031,0,0,1,3.044,4.095,1.389,1.389,0,0,0,.532.5c.52.239,1.108-.106,1.582-.431a58.272,58.272,0,0,1,9.157-5.133,4.646,4.646,0,0,0,2.281-1.621,8.46,8.46,0,0,0,.607-2.04c.424-1.462,1.349-2.712.54-4.2a20.911,20.911,0,0,0-1.676-2.649c-.332-.438-.838-.785-1.12-1.243" transform="translate(-2202.726 -10179.813)" fill="#632059"/>
      <path id="Trazado_272195" data-name="Trazado 272195" d="M123.6,674.377a31.988,31.988,0,0,1,.279,4.224,15.235,15.235,0,0,1-.959,3.567,11.478,11.478,0,0,0-.677,3.541,22.358,22.358,0,0,0,1.214,7.524,6.308,6.308,0,0,0,3.471,4.282,4.745,4.745,0,0,0,3.206.214,5.39,5.39,0,0,0,3.422-4.061,31.8,31.8,0,0,0,.515-6.934c.007-2.49-.421-5.012-.4-7.529a39.01,39.01,0,0,0-.036-5.385,6.774,6.774,0,0,0-2.423-4.656,4.741,4.741,0,0,0-4.53-.354,5,5,0,0,0-2.3,2.315,5.682,5.682,0,0,0-.778,3.252" transform="translate(-2204.638 -10084.789)" fill="#632059"/>
      <path id="Trazado_272196" data-name="Trazado 272196" d="M153.4,640.141c.014-.381.031-.763.046-1.144.048-1.286.1-2.572.029-3.854a9.619,9.619,0,0,0-.349-2.269,1.006,1.006,0,0,0-.308-.54c-.682-.518-1.568.768-2.014,1.185a18.89,18.89,0,0,1-2.548,1.756,11.994,11.994,0,0,1-8.321,2.144,14.38,14.38,0,0,1-4.757-1.749c-1.395-.763-2.842-2.139-4.371-2.572-1.479-.417-2.262-.2-3.418-1.522-.441-.506-2.319-3.107-1.792-3.829a11.434,11.434,0,0,0-1.775,8.384c.658,4.46,3.131,7.726,5.4,11.438a4.6,4.6,0,0,1,.626,1.421,5.418,5.418,0,0,1-.055,1.888c-1.363,9.174-4.538,34.846-4.636,36.681q-.376,7.063-.792,14.123-.343,5.871-.713,11.744-.4,6.467-.841,12.929a8.872,8.872,0,0,0-.092,1.821,2.23,2.23,0,0,0,.961,1.25,7.9,7.9,0,0,0,3.355,1.515,11.833,11.833,0,0,0,3.842.19,5.641,5.641,0,0,0,2.16-.633,2.486,2.486,0,0,0,.867-.727,3.6,3.6,0,0,0,.25-1.236c.229-1.089.474-2.175.71-3.263q.679-3.14,1.342-6.284,1.348-6.409,2.63-12.837c1.33-6.662,2.589-13.4,2.671-20.173a13.06,13.06,0,0,1,.518-3.663c2.433-7.938,6.019-15.6,8.208-23.567.8-2.912,1.573-5.865,2.182-8.82a57.754,57.754,0,0,0,.954-9.176c.01-.2.019-.407.027-.609" transform="translate(-2203.986 -10142.057)" fill="#404040"/>
      <path id="Trazado_272197" data-name="Trazado 272197" d="M157.607,596.988a13.2,13.2,0,0,1,3.952.708,9.884,9.884,0,0,1,6.151,5.964,16.491,16.491,0,0,1,.9,7.223,29.122,29.122,0,0,1-.857,4.388c-.349,1.305-.8,2.589-1.269,3.863-1.1,2.948-3.745,8.285.33,10.263a2.052,2.052,0,0,0,2.307-.149,3.984,3.984,0,0,1-2.486,2.512,6.14,6.14,0,0,1-3.608.094,6.6,6.6,0,0,1-4.978-4.887,12.839,12.839,0,0,1,.595-5.007c.7-3.128.78-6.657-1.065-9.282a11.108,11.108,0,0,0-5.332-3.7c-2.29-.857-4.687-1.556-7.018-2.293-.552-.176-1.8-.4-2.165-.891s-.053-1.835.149-2.36a5.05,5.05,0,0,1,1.346-1.78,18.242,18.242,0,0,1,11.363-4.641c.559-.031,1.12-.041,1.681-.022" transform="translate(-2175.537 -10185.395)" fill="#733118"/>
      <path id="Trazado_272198" data-name="Trazado 272198" d="M170.352,612.579l-14.061-6.462-4.682-2.151c-1.354-.624-3.589-1.782-5.113-1.127a9.012,9.012,0,0,0-3.3,3.29,46.407,46.407,0,0,0-3.2,5.462c-3.769,7.334-6.05,15.21-9.273,22.77-.98,2.307-4.316,10.819-5.33,12.618Q123,651.2,120.21,655.187c-.65.927-2.5,2.6-2.693,3.673-.224,1.221,1.445,2.746,2.218,3.473a40.931,40.931,0,0,0,5.942,4.653,63.078,63.078,0,0,0,16.245,6.963,45.082,45.082,0,0,0,11.78,2.211,13.737,13.737,0,0,0,7.107-1.448,89.653,89.653,0,0,1,2.859-14.275c1.5-5.819,3.849-11.522,8.049-15.867,4.246-4.4,9.222-8,13.579-12.274a15.8,15.8,0,0,0,3.721-4.935c.836-1.973.98-4.461-.66-6.053a10.865,10.865,0,0,0-3.121-1.891q-7.442-3.418-14.884-6.84" transform="translate(-2211.314 -10177.413)" fill="#632059"/>
      <path id="Trazado_272199" data-name="Trazado 272199" d="M159.723,607.136a3.857,3.857,0,0,0-3.035,1c-.836.824-1.811,1.522-2.647,2.348-1.337,1.3-2.56,2.71-3.76,4.133a67.554,67.554,0,0,0-8.143,12.464c-1.322,2.522-2.546,5.106-3.709,7.717q-.694,1.535-1.373,3.109c-1.024,2.336-2.047,4.682-3.1,7.018-.686,1.537-1.385,3.061-2.136,4.559-.91,1.9-1.859,3.757-2.9,5.583q-.9,1.59-1.871,3.145c-.238.376-.474.737-.713,1.113-.788,1.2-1.623,2.372-2.5,3.509-.749.973-1.635,2.871-3.1,2.435-2-.6-4.831-4.222-4-6.344.486-1.224,1.922-2.5,2.7-3.6.212-.3.412-.6.612-.9q.975-1.405,1.874-2.847c.3-.474.585-.949.874-1.423,1.012-1.638,1.973-3.309,2.9-5,.836-1.486,1.635-3,2.4-4.521q2.623-5.17,4.759-10.528c2.235-5.658,4.208-11.416,6.744-16.948a38.323,38.323,0,0,1,4.545-7.517,7.634,7.634,0,0,1,3.459-2.811,6,6,0,0,1,3.285.039,18,18,0,0,1,3.447,1.4c1.823.9,3.622,1.847,5.383,2.859" transform="translate(-2212.576 -10177.438)" fill="#fa0"/>
      <path id="Trazado_272200" data-name="Trazado 272200" d="M128.636,622.693c-.689,1.537-1.39,3.061-2.136,4.559-1.45-.9-2.861-1.85-4.22-2.849-.626-.46-1.262-.949-1.9-1.472.836-1.486,1.635-3,2.394-4.521.824.723,1.635,1.373,2.435,1.96,1.113.812,2.25,1.585,3.425,2.322" transform="translate(-2207.25 -10155.206)" fill="#f2f2f2"/>
      <path id="Trazado_272201" data-name="Trazado 272201" d="M126.9,627.269q-.9,1.593-1.874,3.148c-.236.373-.474.737-.711,1.11-.8-.51-1.575-1.048-2.336-1.611a40.985,40.985,0,0,1-3.945-3.283q.972-1.405,1.871-2.849c.3-.475.588-.949.874-1.423a39.579,39.579,0,0,0,4.147,3.521c.648.474,1.31.937,1.973,1.387" transform="translate(-2210.552 -10149.643)" fill="#f2f2f2"/>
      <path id="Trazado_272202" data-name="Trazado 272202" d="M135.757,605.929c-.043.178-.1.354-.152.527q-.592,1.9-1.373,3.726-.383.9-.809,1.78a1.6,1.6,0,0,0,.465,1.705,7.484,7.484,0,0,0,3.343,2.018,12.915,12.915,0,0,0,9.386-.089,2.542,2.542,0,0,0,.978-.684c.275-.352.2-.713.243-1.129.12-1.016.255-2.031.424-3.04a34.619,34.619,0,0,1,1.462-5.93c.082-.231.166-.46.253-.689a5.014,5.014,0,0,1-4.843.978,37.223,37.223,0,0,1-4.769-2.006,32.677,32.677,0,0,0-3.36-1.113c-.612-.181-1.765-.149-1.645.73a15.108,15.108,0,0,1,.489,2.616,3.163,3.163,0,0,1-.092.6" transform="translate(-2189.034 -10178.469)" fill="#ffc7a6"/>
      <path id="Trazado_272203" data-name="Trazado 272203" d="M174.935,620.671a7.073,7.073,0,0,1-1.474,3.784c-3.471,5.544-8.1,10.253-12.288,15.3a53.255,53.255,0,0,0-7.394,11.089,28.256,28.256,0,0,0-1.8,4.9c-.1.337-.188.686-.263,1.038a26.721,26.721,0,0,0-.624,5.193,35.569,35.569,0,0,0,.173,5.007c.149,1.474.364,2.948.638,4.4a2.077,2.077,0,0,1-1.611,2.387c-6.407,1.37-13.1,2.433-19.246.323-1.072-.373-2.271-1.05-2.384-2.173a3.245,3.245,0,0,1,.262-1.325q1.181-3.392,2.4-6.768c.561-1.575,1.134-3.148,1.7-4.709.761-2.1,1.51-4.184,2.247-6.281.561-1.573,1.11-3.148,1.635-4.721,1.25-3.622,2.435-7.269,3.509-10.951,1.674-5.759,3.085-11.616,5.207-17.247.388-1.011.788-2.009,1.226-3,.385-.9.9-1.736,1.274-2.635a11.779,11.779,0,0,1,.549-1.137,11.965,11.965,0,0,1,2.883-3.471c.65-.537,1.349-1,1.963-1.575a3.126,3.126,0,0,0,.7-.824,5.3,5.3,0,0,1,.275-.662,11.579,11.579,0,0,1,1.137.564c5.058,2.471,10.59,4.02,15.272,7.242,2.16,1.5,3.935,3.509,4.034,6.257" transform="translate(-2195.591 -10171.831)" fill="#fa0"/>
      <path id="Trazado_272204" data-name="Trazado 272204" d="M143.8,617.759c-.583.951-1.127,1.927-1.64,2.914-1.664,3.218-3.032,6.828-2.406,10.4a6.921,6.921,0,0,0,.795,2.329,2.434,2.434,0,0,0,1.7.985c1.867.3,3.627-.884,5.072-2.1,3.362-2.832,6.339-6.313,7.717-10.489a10.555,10.555,0,0,0,.573-4.624,6.405,6.405,0,0,0-1.233-3.032c-.385-.51-1.048-.79-1.33-1.363-.393-.793-.467-1.871-1.279-2.421a1.657,1.657,0,0,0-1.544-.072,4.376,4.376,0,0,0-1.291.951,32.826,32.826,0,0,0-5.137,6.529" transform="translate(-2180.185 -10166.879)" fill="#9b5194"/>
      <path id="Trazado_272205" data-name="Trazado 272205" d="M149.912,626.573a28.466,28.466,0,0,0-1.8,4.9,82.757,82.757,0,0,1-16.708-2.912c.561-1.573,1.11-3.146,1.635-4.718a77.552,77.552,0,0,0,16.871,2.734" transform="translate(-2191.724 -10147.56)" fill="#f2f2f2"/>
      <path id="Trazado_272206" data-name="Trazado 272206" d="M149.711,636.276a82.764,82.764,0,0,1-19.945-3.16c.564-1.573,1.137-3.148,1.7-4.709a78.033,78.033,0,0,0,18.071,2.861,35.237,35.237,0,0,0,.176,5.007" transform="translate(-2194.033 -10141.127)" fill="#f2f2f2"/>
      <path id="Trazado_272207" data-name="Trazado 272207" d="M138.83,600.258a22.124,22.124,0,0,0-2.452,3.191,22.809,22.809,0,0,0-2.37,7.777,3.351,3.351,0,0,0,2.329,4.422,21.94,21.94,0,0,0,2.163,1.036,17.515,17.515,0,0,0,8.572.646,7.179,7.179,0,0,0,3.731-1.267.819.819,0,0,1,1.139-.128,4.581,4.581,0,0,0,4.027-.52,10.172,10.172,0,0,0,2.9-3.008,13.625,13.625,0,0,0,2.536-5.932,10.332,10.332,0,0,0-2.592-7.922,13.862,13.862,0,0,0-7.324-4.212,11.308,11.308,0,0,0-5.706.029,9.148,9.148,0,0,0-4.355,2.963q-1.311,1.452-2.6,2.926" transform="translate(-2188.277 -10189.604)" fill="#ffe5cc"/>
      <path id="Trazado_272208" data-name="Trazado 272208" d="M142.819,595.857a6.855,6.855,0,0,1,1.414.768,8.634,8.634,0,0,0,2.021.841c.484.135,1.575.043,1.717.667a6.945,6.945,0,0,1-.092,1.048,7.476,7.476,0,0,0,.159,1.349,23.019,23.019,0,0,1,.886,3.61c.125,2.572-1.924,4.812-2.069,7.384a1.389,1.389,0,0,0,.446,1.277,4.766,4.766,0,0,1,3.285-1.818,1.473,1.473,0,0,1,1.529.544,2.287,2.287,0,0,1,.224,1.361,4.049,4.049,0,0,1-2.245,2.666,6.1,6.1,0,0,1-1.209.424,8.579,8.579,0,0,1-1.956.315,2.357,2.357,0,0,0-.874.1c-.036.161.108.3.253.388a2.829,2.829,0,0,0,1.414.282,10.327,10.327,0,0,0,2.459-.3,7.636,7.636,0,0,0,3.141-2.119,12.887,12.887,0,0,0,2.365-3.143,17.214,17.214,0,0,0,1.443-3.256,10.243,10.243,0,0,0-.248-6.231,12.35,12.35,0,0,0-6.361-6.9,14.106,14.106,0,0,0-2.685-1.132,10.855,10.855,0,0,0-7.623.366,5.948,5.948,0,0,0-2.849,2.852c.2-.414,1.163-.78,1.563-.944a6.042,6.042,0,0,1,1.939-.431c.515-.027,1.086-.055,1.6-.031a1.465,1.465,0,0,1,.356.06" transform="translate(-2183.331 -10190.328)" fill="#8c3c1d"/>
      <path id="Trazado_272209" data-name="Trazado 272209" d="M131.627,587.187c-.051.308-.034.629-.113.93a3.042,3.042,0,0,1-1.592,1.645,3.337,3.337,0,0,0-1.659,1.594,1.839,1.839,0,0,0,.048,1.238,1.255,1.255,0,0,0,.484.631,1.358,1.358,0,0,0,1,.089,4.322,4.322,0,0,0,2.635-2.247c.58-1.038.915-2.194,1.411-3.273a4.967,4.967,0,0,0,.67-2.074c-.012-.722-1.2-.525-1.59-.25a2.689,2.689,0,0,0-1.3,1.717" transform="translate(-2196.271 -10201.955)" fill="#ffe5cc"/>
      <path id="Trazado_272210" data-name="Trazado 272210" d="M163.469,620.921c.029-.219.053-.441.072-.667a2.978,2.978,0,0,0-.258-1.811,3.33,3.33,0,0,0-.944-.9q-4.176-3.031-8.357-6.062a7.019,7.019,0,0,0-4.333-1.761,5.987,5.987,0,0,0-4.268,1.551,10.8,10.8,0,0,0-2.461,5.152,21.125,21.125,0,0,0-.453,6.8,7.613,7.613,0,0,0,.98,3.341,10.547,10.547,0,0,0,2.669,2.664,21.082,21.082,0,0,0,4.27,2.221,24.308,24.308,0,0,0,3.663,1.216,4.357,4.357,0,0,0,2.343.048,4.508,4.508,0,0,0,1.78-1.32,19.636,19.636,0,0,0,5.3-10.477" transform="translate(-2176.288 -10167.446)" fill="#632059"/>
      <path id="Trazado_272211" data-name="Trazado 272211" d="M157.94,614.173c-1.332-.38-2.712-1.021-4.1-.732a6.5,6.5,0,0,0-3.475,1.915,8.985,8.985,0,0,0-2.652,6.953c.1,1.041.477,2.515,1.464,3.037a19.752,19.752,0,0,0,4.234,1.257,54.893,54.893,0,0,0,11.891,1.669,16.029,16.029,0,0,0,4.8-.412,3.653,3.653,0,0,0,2.387-3.87,7.628,7.628,0,0,0-.9-3.328,4.8,4.8,0,0,0-2.093-2.25,36.481,36.481,0,0,0-7.158-2.876c-1.46-.472-2.921-.942-4.4-1.363" transform="translate(-2168.801 -10162.31)" fill="#ffe5cc"/>
      <path id="Trazado_272212" data-name="Trazado 272212" d="M164.921,615.44a70.924,70.924,0,0,1,1.5-7.339,16.355,16.355,0,0,0,.08-8.4,1.205,1.205,0,0,0-.609-.836.836.836,0,0,0-.923.376,2.017,2.017,0,0,0-.27,1.026,30.467,30.467,0,0,0,.181,3.309,6.279,6.279,0,0,1-.513,3.237,7.854,7.854,0,0,1-.39-2.1,26.939,26.939,0,0,0-.612-3.528,7.86,7.86,0,0,1-.316-1.479,3.147,3.147,0,0,0-.47-1.366,2.232,2.232,0,0,0-.706-.838,1.045,1.045,0,0,0-1.05-.092c-.539.3-.559,1.067-.414,1.667.229.947.686,1.823.968,2.755a3.646,3.646,0,0,1-.106,2.84,10.539,10.539,0,0,1-1.423-3.194q-.672-2.117-1.349-4.239a2.134,2.134,0,0,0-.624-1.113,1.273,1.273,0,0,0-1.879.8c-.106.5.06,1.031-.072,1.522a3.627,3.627,0,0,1-.236.556c-.951,2.1.1,4.567-.188,6.857-.515-.217-.78-.776-1.106-1.231s-.908-.87-1.409-.619a.976.976,0,0,0-.472.845,3.389,3.389,0,0,0,.173,1,11.774,11.774,0,0,1,.364,3.692,4.793,4.793,0,0,0,.082,1.864,4.117,4.117,0,0,0,.756,1.192,23.041,23.041,0,0,1,3.085,4.53,7.24,7.24,0,0,1,.477,3.049,79.853,79.853,0,0,1-1.12,13.743c-.364,2.146-1.132,4.338-1.317,6.493-.12,1.419-1.108,3.283-.682,4.685.229.749,1.286,1.332,1.886,1.811a38.713,38.713,0,0,0,5.843,3.875c.91.494,2.124.92,2.9.229a2.554,2.554,0,0,0,.636-1.248c1.734-6.12,1.493-12.6,1.142-18.952a89.36,89.36,0,0,0-1.818-15.378" transform="translate(-2161.99 -10186.869)" fill="#ffe5cc"/>
      <path id="Trazado_272213" data-name="Trazado 272213" d="M133.841,737.235,48.607,688.061c-.689-.4-.6-1.093.193-1.554l10.352-5.975a2.992,2.992,0,0,1,2.69-.113L147.073,729.6c.691.4.6,1.091-.193,1.551l-10.352,5.978a2.986,2.986,0,0,1-2.688.111" transform="translate(-2309 -10068.246)" fill="#d4e0e0"/>
      <path id="Trazado_272214" data-name="Trazado 272214" d="M57.144,674.487l5.978-2.654-2.787,27.979-5.978,2.652Z" transform="translate(-2300.245 -10079.961)" fill="#8f5d31"/>
      <path id="Trazado_272215" data-name="Trazado 272215" d="M59.749,655.291l5.978-2.654-3.974,39.89-5.975,2.654Z" transform="translate(-2298.246 -10106.999)" fill="#8f5d31"/>
      <path id="Trazado_272216" data-name="Trazado 272216" d="M61.661,636.089l5.978-2.654-3.974,39.889-5.975,2.654Z" transform="translate(-2295.553 -10134.045)" fill="#8f5d31"/>
      <path id="Trazado_272217" data-name="Trazado 272217" d="M55.777,671.853l5.978-2.654L126.4,706.523l-5.975,2.654Z" transform="translate(-2298.246 -10083.672)" fill="#f5bc89"/>
      <path id="Trazado_272218" data-name="Trazado 272218" d="M63.572,616.893l5.978-2.654-3.974,39.89L59.6,656.783Z" transform="translate(-2292.86 -10161.082)" fill="#8f5d31"/>
      <path id="Trazado_272219" data-name="Trazado 272219" d="M57.689,652.651,63.667,650l64.646,37.324-5.975,2.654Z" transform="translate(-2295.553 -10110.717)" fill="#f5bc89"/>
      <path id="Trazado_272220" data-name="Trazado 272220" d="M65.484,597.692l5.978-2.654-3.974,39.889-5.975,2.654Z" transform="translate(-2290.167 -10188.128)" fill="#8f5d31"/>
      <path id="Trazado_272221" data-name="Trazado 272221" d="M59.6,633.455l5.978-2.654,64.646,37.324-5.975,2.654Z" transform="translate(-2292.861 -10137.755)" fill="#f5bc89"/>
      <path id="Trazado_272222" data-name="Trazado 272222" d="M67.4,578.5l5.978-2.654L69.4,615.731l-5.975,2.654Z" transform="translate(-2287.475 -10215.165)" fill="#8f5d31"/>
      <path id="Trazado_272223" data-name="Trazado 272223" d="M61.512,614.253,67.49,611.6l64.646,37.324-5.975,2.654Z" transform="translate(-2290.167 -10164.8)" fill="#f5bc89"/>
      <path id="Trazado_272224" data-name="Trazado 272224" d="M63.424,595.057,69.4,592.4l64.646,37.324-5.975,2.654Z" transform="translate(-2287.475 -10191.839)" fill="#f5bc89"/>
      <path id="Trazado_272225" data-name="Trazado 272225" d="M64.941,556.642l5.978-2.654,5.258,3.037L70.2,559.677Z" transform="translate(-2285.339 -10245.945)" fill="#f5bc89"/>
      <path id="Trazado_272226" data-name="Trazado 272226" d="M69.642,557.9l5.978-2.654-4.306,43.24-5.978,2.654Z" transform="translate(-2284.782 -10244.17)" fill="#8f5d31"/>
      <path id="Trazado_272227" data-name="Trazado 272227" d="M65.336,575.856l5.978-2.654,64.646,37.324-5.975,2.654Z" transform="translate(-2284.782 -10218.883)" fill="#f5bc89"/>
      <path id="Trazado_272228" data-name="Trazado 272228" d="M93.965,573.4l5.978-2.654,5.246,3.03-5.975,2.654Z" transform="translate(-2244.458 -10222.343)" fill="#f5bc89"/>
      <path id="Trazado_272229" data-name="Trazado 272229" d="M152.827,595.45l5.248,3.03L127.329,907.251l-5.248-3.03,2.787-27.979L60.218,838.92,57.434,866.9l-5.26-3.035L82.923,555.091l5.258,3.035-4.306,43.24,64.649,37.324ZM130.1,823.652l3.974-39.889L69.428,746.439l-3.972,39.887Zm4.605-46.233,3.972-39.89L74.033,700.205l-3.974,39.89ZM125.5,869.9l3.972-39.885L64.823,792.687l-3.972,39.887Zm18.42-184.958,3.972-39.89L83.241,607.724,79.27,647.611Zm-4.605,46.231,3.972-39.887L78.639,653.957l-3.974,39.89Z" transform="translate(-2303.321 -10244.392)" fill="#c28652"/>
      <path id="Trazado_272230" data-name="Trazado 272230" d="M114.125,574.657,120.1,572,89.354,880.775l-5.975,2.654Z" transform="translate(-2259.37 -10220.571)" fill="#8f5d31"/>
      <path id="Trazado_272231" data-name="Trazado 272231" d="M150.609,587.364l-4.316,9.212a1.587,1.587,0,0,1-2.107.761l-.039-.017a1.585,1.585,0,0,1-.761-2.107L147.7,586a1.584,1.584,0,0,1,2.107-.761l.039.017a1.587,1.587,0,0,1,.761,2.108" transform="translate(-2175.061 -10202.139)" fill="#404040"/>
      <path id="Trazado_272232" data-name="Trazado 272232" d="M157.685,592.867l-8.343,5.819a1.584,1.584,0,0,1-2.206-.393l-.024-.036a1.581,1.581,0,0,1,.393-2.2l8.345-5.819a1.582,1.582,0,0,1,2.2.393l.024.034a1.584,1.584,0,0,1-.393,2.206" transform="translate(-2170.003 -10195.294)" fill="#404040"/>
      <path id="Trazado_272233" data-name="Trazado 272233" d="M155.772,589.049l-6.968,7.413a1.583,1.583,0,0,1-2.238.067l-.031-.029a1.581,1.581,0,0,1-.07-2.237l6.968-7.413a1.585,1.585,0,0,1,2.237-.07l.031.029a1.584,1.584,0,0,1,.07,2.24" transform="translate(-2171.117 -10200.36)" fill="#404040"/>
      <path id="Trazado_272234" data-name="Trazado 272234" d="M99.723,629.295l9.169,4.408a1.584,1.584,0,0,1,.739,2.115l-.017.038a1.584,1.584,0,0,1-2.115.739l-9.169-4.408a1.581,1.581,0,0,1-.739-2.112l.017-.038a1.585,1.585,0,0,1,2.115-.742" transform="translate(-2239.573 -10140.098)" fill="#404040"/>
      <path id="Trazado_272235" data-name="Trazado 272235" d="M105.273,624.62l5.737,8.4a1.586,1.586,0,0,1-.417,2.2l-.034.024a1.583,1.583,0,0,1-2.2-.414l-5.737-8.4a1.585,1.585,0,0,1,.414-2.2l.036-.024a1.583,1.583,0,0,1,2.2.414" transform="translate(-2232.655 -10147.434)" fill="#404040"/>
      <path id="Trazado_272236" data-name="Trazado 272236" d="M101.445,625.693l7.343,7.04a1.583,1.583,0,0,1,.046,2.24L108.8,635a1.583,1.583,0,0,1-2.24.046l-7.344-7.04a1.585,1.585,0,0,1-.046-2.24l.029-.029a1.583,1.583,0,0,1,2.24-.048" transform="translate(-2237.74 -10145.569)" fill="#404040"/>
    </g>
  </g>
</svg>
