<svg xmlns="http://www.w3.org/2000/svg" width="124" height="124" viewBox="0 0 124 124">
  <g id="Grupo_1075444" data-name="Grupo 1075444" transform="translate(-740.087 -6325.165)">
    <g id="Grupo_159183" data-name="Grupo 159183" transform="translate(355.087 4267.165)">
      <path id="Unión_12" data-name="Unión 12" d="M8438,11700a62,62,0,1,1-62,62A62,62,0,0,1,8438,11700Z" transform="translate(-7991 -9642)" fill="#1b3f5e"/>
      <circle id="Elipse_4842" data-name="Elipse 4842" cx="48" cy="48" r="48" transform="translate(399 2072)" fill="#1b3f5e"/>
    </g>
    <g id="Grupo_1072074" data-name="Grupo 1072074" transform="translate(-250.92 -1845.802)">
      <path id="Trazado_271221" data-name="Trazado 271221" d="M852.011,573.157q-6.261-5.048-12.523-10.1c-1.216-.982-2.435-1.957-3.63-2.962a1.942,1.942,0,0,1,0-3.308q7.671-6.267,15.371-12.5a1.983,1.983,0,0,1,3.334,1.607c-.018,1.718-.005,3.435-.005,5.348,1.577-.437,3.035-.755,4.436-1.244a28.027,28.027,0,0,0,13.766-10.281c1.35-1.865,2.383-1.95,4.014-.32q3.763,3.759,7.523,7.524c1.177,1.181,1.222,2.005.178,3.313a43.78,43.78,0,0,1-29.419,16.688c-.125.017-.247.06-.5.121,0,1.152-.062,2.315.018,3.469a2.5,2.5,0,0,1-1.4,2.641Zm-1.366-6.089c0-.645,0-1.032,0-1.419.011-1.629.647-2.31,2.261-2.446A39.59,39.59,0,0,0,876.2,553.32c1.575-1.376,2.985-2.941,4.37-4.319l-5.678-5.695a1.027,1.027,0,0,1-.14.273A32.066,32.066,0,0,1,853.4,555.288c-1.821.229-2.739-.51-2.75-2.322-.006-.984,0-1.967,0-3.142l-10.612,8.623c3.525,2.863,6.974,5.664,10.612,8.62" transform="translate(203.251 7709.821)" fill="#fff"/>
      <path id="Trazado_271222" data-name="Trazado 271222" d="M807.184,531.861q5.02-6.223,10.039-12.446c.98-1.216,1.959-2.432,2.959-3.633,1.1-1.321,2.342-1.336,3.439.006q6.235,7.636,12.435,15.3a1.982,1.982,0,0,1-1.619,3.329c-1.715-.022-3.432-.006-5.227-.006A26.852,26.852,0,0,0,832,542.692a28.237,28.237,0,0,0,8.631,9.92c1.866,1.345,1.947,2.384.318,4.014q-3.759,3.763-7.525,7.522c-1.179,1.175-2.005,1.217-3.315.173a43.756,43.756,0,0,1-16.69-29.415c-.016-.126-.058-.248-.12-.5-1.152,0-2.315-.065-3.47.018a2.48,2.48,0,0,1-2.641-1.392Zm14.715-11.98-8.62,10.613c.652,0,1.064,0,1.477,0a2.083,2.083,0,0,1,2.38,2.228,39.273,39.273,0,0,0,8.683,21.872c1.7,2.111,3.693,3.98,5.415,5.813,2.011-2.028,3.83-3.86,5.644-5.687a32.231,32.231,0,0,1-11.835-21.546c-.215-1.74.551-2.665,2.31-2.679.989-.008,1.98,0,3.167,0L821.9,519.882" transform="translate(195.718 7703.453)" fill="#fff"/>
      <path id="Trazado_271223" data-name="Trazado 271223" d="M849.222,493.163c0-1.383.011-2.683,0-3.982a1.946,1.946,0,0,1,1.087-1.916,1.877,1.877,0,0,1,2.181.285q7.768,6.3,15.523,12.62a1.9,1.9,0,0,1-.025,3.182q-7.739,6.336-15.524,12.619a1.968,1.968,0,0,1-3.24-1.592c.01-1.72,0-3.442,0-5.293-.6.1-1.134.159-1.649.286a28.309,28.309,0,0,0-16.511,11.032,6.352,6.352,0,0,1-.934,1.116,1.774,1.774,0,0,1-2.416-.07q-4.358-4.268-8.634-8.619a1.852,1.852,0,0,1,.053-2.652,44.126,44.126,0,0,1,29.508-16.9c.156-.02.31-.062.582-.118m14.535,8.589-10.619-8.618c0,.679.005,1.1,0,1.522a2.054,2.054,0,0,1-2.173,2.331,40.151,40.151,0,0,0-27.7,14.308c1.882,1.851,3.725,3.667,5.63,5.54a1.557,1.557,0,0,1,.151-.23,32.037,32.037,0,0,1,21.266-11.678c1.945-.248,2.819.47,2.825,2.43,0,.947,0,1.9,0,3.022l10.619-8.626" transform="translate(198.802 7695.919)" fill="#fff"/>
      <path id="Trazado_271224" data-name="Trazado 271224" d="M887.185,529.073c1.346,0,2.641.018,3.935-.006a1.968,1.968,0,0,1,1.989,1.129,1.907,1.907,0,0,1-.332,2.177q-6.276,7.726-12.564,15.446a1.921,1.921,0,0,1-3.245-.029q-6.3-7.7-12.563-15.446a1.9,1.9,0,0,1-.3-2.181,1.927,1.927,0,0,1,1.91-1.095c1.72.018,3.441.005,5.441.005-.605-1.964-1.058-3.818-1.743-5.583a27.711,27.711,0,0,0-9.889-12.656c-.159-.114-.319-.226-.473-.346a1.949,1.949,0,0,1-.237-3.181q4.051-4.095,8.145-8.146a1.943,1.943,0,0,1,2.946-.15,43.827,43.827,0,0,1,16.451,26.828c.2,1.018.336,2.05.526,3.235m-17.207,3.914c2.956,3.638,5.76,7.086,8.624,10.612l8.621-10.612c-.638,0-1.022,0-1.408,0-1.631-.011-2.322-.648-2.458-2.25a39.643,39.643,0,0,0-9.94-23.366c-1.359-1.55-2.9-2.936-4.28-4.313-1.961,1.962-3.769,3.774-5.606,5.613a1.725,1.725,0,0,0,.2.2,32.091,32.091,0,0,1,11.711,21.35c.235,1.854-.516,2.751-2.412,2.759-.937.005-1.874,0-3.049,0" transform="translate(209.622 7699.006)" fill="#fff"/>
      <path id="Trazado_271225" data-name="Trazado 271225" d="M870.209,520.865c-.066.309-.118.622-.2.926a6.352,6.352,0,0,1-4.272,4.5c-.407.144-.74.013-.847-.32s.063-.613.461-.75a5.446,5.446,0,0,0,2.844-2.13,5.057,5.057,0,0,0,.868-2.948,1.608,1.608,0,0,0-1.728-1.711,13.485,13.485,0,0,0-4.4.963,10.421,10.421,0,0,0-2.435,1.142,13.783,13.783,0,0,1-1.84.893c.141.479.3.987.44,1.5.2.7.379,1.4.594,2.085a.474.474,0,0,0,.317.278c.971.1,1.947.168,2.921.243.126.01.254,0,.38.011a.586.586,0,0,1,.566.6.56.56,0,0,1-.622.532c-.837-.028-1.673-.079-2.511-.125-.212-.013-.423-.042-.677-.067.173.83.383,1.613.491,2.411a31.854,31.854,0,0,1,.436,4.2,9.316,9.316,0,0,1-2.97,6.562.891.891,0,0,0-.275.828,4.723,4.723,0,0,1-.055,1.472,1.87,1.87,0,0,1-1.461,1.494.583.583,0,0,0-.427.37,3.064,3.064,0,0,1-2.1,1.936,3.969,3.969,0,0,1-.87.076c-1.385.008-2.772-.033-4.155.014a3.1,3.1,0,0,1-3.111-2,.767.767,0,0,0-.406-.372,2.085,2.085,0,0,1-1.554-1.867,6.159,6.159,0,0,1,.042-1.252.633.633,0,0,0-.2-.6,10.039,10.039,0,0,1-3.012-5.729,12.29,12.29,0,0,1,.15-3.756c.206-1.25.46-2.492.7-3.769-.474.041-.95.092-1.428.12-.557.033-1.116.052-1.675.064-.415.008-.674-.215-.68-.552s.25-.561.66-.589c1.064-.076,2.127-.151,3.189-.243.113-.009.289-.1.315-.188.36-1.228.7-2.461,1.048-3.711-.455-.193-.919-.361-1.355-.582-.654-.331-1.264-.758-1.935-1.039a16.985,16.985,0,0,0-4.638-1.3c-.114-.014-.228-.029-.342-.036-1.574-.074-2.314.727-2.108,2.295a5.2,5.2,0,0,0,3.565,4.441c.058.023.12.041.178.065a.573.573,0,1,1-.383,1.074,6.555,6.555,0,0,1-2.624-1.568,6.175,6.175,0,0,1-1.9-4.547,2.764,2.764,0,0,1,2.929-2.909,14.211,14.211,0,0,1,4.381.9c.142.048.285.094.469.155-.058-.277-.117-.519-.159-.764a6.619,6.619,0,0,1,.193-2.716,1.414,1.414,0,0,1,2.634-.345,4.846,4.846,0,0,0,2.657,2.439.455.455,0,0,0,.536-.093,3.768,3.768,0,0,1,2.474-.942c1.1-.019,2.211-.01,3.316-.006.417,0,.675.219.685.556s-.257.584-.692.585c-1.03,0-2.059,0-3.088,0a2.843,2.843,0,0,0-2.876,2.1c-.151.47-.292.943-.448,1.443l.384.178a6.424,6.424,0,0,1,3.582,4.435.555.555,0,0,1-.406.711.587.587,0,0,1-.7-.425,14.748,14.748,0,0,0-.792-1.8,4.717,4.717,0,0,0-2.417-1.975c-.19.64-.383,1.275-.565,1.915a62.408,62.408,0,0,0-1.63,7.236,8.776,8.776,0,0,0,2.2,7.62c.05.056.088.123.165.233.153-.4.25-.74.408-1.049.329-.641.715-1.254,1.032-1.9a15.972,15.972,0,0,0,.735-1.751,19.174,19.174,0,0,0,1.1-5.967,4.205,4.205,0,0,1,.024-.456.575.575,0,0,1,.58-.54.558.558,0,0,1,.543.576c0,.572-.024,1.144-.071,1.714a21.111,21.111,0,0,1-1.2,5.371c-.015.044-.026.09-.036.128.765-.089,1.517-.183,2.271-.262a.83.83,0,0,1,.406.053.511.511,0,0,1,.3.6.57.57,0,0,1-.562.479c-.615.08-1.232.16-1.849.236a2.313,2.313,0,0,0-1.973,1.56,11.182,11.182,0,0,0-.98,3.382,2.748,2.748,0,0,0,.023.646.921.921,0,0,0,.9.829c.177.017.356.018.533.018q4.5,0,9,0c.164,0,.331,0,.495-.014a.913.913,0,0,0,.948-.941,4.716,4.716,0,0,0-.147-1.5c-.317-1-.713-1.973-1.107-2.946a1.42,1.42,0,0,0-1.087-.871c-.721-.142-1.447-.257-2.172-.379-.1-.017-.2-.006-.3-.022a.574.574,0,0,1-.54-.62.533.533,0,0,1,.632-.509c.707.069,1.409.177,2.113.268.072.009.145.024.207.034-.276-1.016-.586-2.005-.811-3.012a16.146,16.146,0,0,1-.376-5.6A6.64,6.64,0,0,1,857.2,520.6a8.184,8.184,0,0,0-.98-2.474,2.785,2.785,0,0,0-2.145-1.069c-.331-.014-.661,0-.992-.006a.574.574,0,1,1-.025-1.142,4.66,4.66,0,0,1,3.63,1.036.4.4,0,0,0,.336.023,4.493,4.493,0,0,0,2.541-2.122q.091-.168.187-.332a1.4,1.4,0,0,1,1.5-.745,1.382,1.382,0,0,1,1.154,1.12,6.1,6.1,0,0,1-.011,3.461l.428-.142a14.558,14.558,0,0,1,4.378-.926,2.73,2.73,0,0,1,2.955,2.3.87.87,0,0,0,.059.14Zm-12.655.829c-.23.109-.417.184-.591.282a5.614,5.614,0,0,0-2.835,4.8,17.05,17.05,0,0,0,.811,6.426,11.87,11.87,0,0,0,1,2.54,15.1,15.1,0,0,1,1.316,2.69c.027.075.066.146.112.244a8.6,8.6,0,0,0,2.44-7.175,46.217,46.217,0,0,0-1.232-6.154c-.32-1.213-.673-2.417-1.02-3.657m.773-1.339c.688-.367,1.362-.662,1.966-1.063a2.682,2.682,0,0,0,1.2-2.343,10.446,10.446,0,0,0-.178-1.621c-.023-.15-.164-.281-.252-.421-.135.109-.32.19-.4.331a5.8,5.8,0,0,1-2.877,2.664,2.066,2.066,0,0,0-.228.126c.248.754.483,1.474.763,2.328M843.821,518a5.852,5.852,0,0,1-3.2-2.929.358.358,0,0,0-.3-.149.387.387,0,0,0-.223.256,10.18,10.18,0,0,0-.2,1.085,3.536,3.536,0,0,0,3.2,3.959c.239-.729.478-1.46.729-2.221m10.834,25.572h-7.933a1.834,1.834,0,0,0,1.719,1.114q2.245-.021,4.489,0a1.842,1.842,0,0,0,1.724-1.114" transform="translate(202.229 7703.171)" fill="#fff"/>
      <path id="Trazado_271226" data-name="Trazado 271226" d="M846.11,520.491a5.356,5.356,0,0,1-3.317-1.9.552.552,0,0,1,.089-.811.567.567,0,0,1,.81.121,4.568,4.568,0,0,0,2.2,1.369,2.7,2.7,0,0,0,.486.079c.408.042.659.277.64.61s-.281.54-.9.53" transform="translate(205.347 7704.233)" fill="#fff"/>
      <path id="Trazado_271227" data-name="Trazado 271227" d="M849.646,520.491a5.352,5.352,0,0,1-3.316-1.9.552.552,0,0,1,.09-.811.568.568,0,0,1,.81.123,4.559,4.559,0,0,0,2.2,1.368,2.7,2.7,0,0,0,.486.079c.407.043.657.28.638.612s-.282.539-.905.529" transform="translate(206.307 7704.233)" fill="#fff"/>
      <path id="Trazado_271228" data-name="Trazado 271228" d="M849.975,532.938a3.948,3.948,0,0,1-1.288,2.28.5.5,0,0,1-.725-.031.531.531,0,0,1-.087-.725,3.3,3.3,0,0,1,.244-.292,2.862,2.862,0,0,0,.727-1.438.549.549,0,0,1,.625-.519c.313.039.518.3.5.725" transform="translate(206.736 7708.182)" fill="#fff"/>
      <path id="Trazado_271229" data-name="Trazado 271229" d="M843.535,532.843a.574.574,0,0,1,.491-.624.5.5,0,0,1,.623.421,3.343,3.343,0,0,0,.877,1.694.845.845,0,0,1,.186.545.55.55,0,0,1-.877.352,4.156,4.156,0,0,1-1.3-2.388" transform="translate(205.586 7708.183)" fill="#fff"/>
      <path id="Trazado_271230" data-name="Trazado 271230" d="M842.277,526.026c0,.367.01.735,0,1.1a.563.563,0,0,1-1.124.048c-.022-.785-.023-1.57,0-2.355a.563.563,0,0,1,1.123.064c.013.38,0,.76,0,1.14" transform="translate(204.934 7706.037)" fill="#fff"/>
      <path id="Trazado_271231" data-name="Trazado 271231" d="M851.01,525.981c0-.367-.01-.735,0-1.1a.562.562,0,0,1,1.123-.05c.023.784.024,1.571,0,2.356a.527.527,0,0,1-.593.512.538.538,0,0,1-.529-.576c-.011-.38,0-.76,0-1.141" transform="translate(207.614 7706.037)" fill="#fff"/>
    </g>
  </g>
</svg>
