<svg id="Grupo_246824" data-name="Grupo 246824" xmlns="http://www.w3.org/2000/svg" xmlns:xlink="http://www.w3.org/1999/xlink" width="75.887" height="75.895" viewBox="0 0 75.887 75.895">
  <defs>
    <clipPath id="clip-path">
      <rect id="Rectángulo_318655" data-name="Rectángulo 318655" width="75.887" height="75.895" fill="#fffad0"/>
    </clipPath>
  </defs>
  <g id="Grupo_246815" data-name="Grupo 246815" clip-path="url(#clip-path)">
    <path id="Trazado_266573" data-name="Trazado 266573" d="M118,87.38q0,14.178,0,28.356a8.107,8.107,0,0,1-.02.894,1.545,1.545,0,0,1-1.324,1.36,8.663,8.663,0,0,1-1.372.034l-49,0q-3.851,0-7.7,0a1.682,1.682,0,0,1-1.923-1.916q0-28.771,0-57.542a1.7,1.7,0,0,1,1.913-1.9h55.973c.565,0,1.13,0,1.694,0a1.648,1.648,0,0,1,1.774,1.777V87.38ZM59.925,59.936V114.8h53.46c.384,0,.767-.008,1.151,0,.189,0,.265-.05.252-.258a7.945,7.945,0,0,1,0-1.022c.017-.245-.036-.341-.306-.336-.745.013-1.491-.007-2.237-.007q-6.776,0-13.552.009a1.614,1.614,0,0,1-1.665-1.485,6.139,6.139,0,0,1,.05-1.339,12.971,12.971,0,0,1,11.587-11.626c1.3-.137,2.6-.049,3.9-.071.639-.011,1.279-.009,1.918,0,.217,0,.322-.038.307-.3-.029-.563-.012-1.129-.013-1.694q0-18.078-.005-36.156a1.186,1.186,0,0,0-.023-.568Zm47.637,50.011v.008q3.452,0,6.9,0c.2,0,.324,0,.323-.285q-.024-3.708-.005-7.416c0-.324-.095-.394-.393-.391-1.417.012-2.834-.01-4.251.008a9.876,9.876,0,0,0-4.953,1.266,9.711,9.711,0,0,0-4.752,6.5c-.056.244-.007.31.256.309,2.291-.011,4.581-.006,6.872-.006" transform="translate(-42.124 -42.139)" fill="#fffad0"/>
    <path id="Trazado_266574" data-name="Trazado 266574" d="M63.186,4.827h48.293l.024-.078c-.626-.38-1.155-.884-1.759-1.294a8.4,8.4,0,0,1-.846-.627A1.55,1.55,0,0,1,108.646.7,1.527,1.527,0,0,1,110.79.27c.848.568,1.651,1.2,2.47,1.815q1.972,1.47,3.942,2.945a1.629,1.629,0,0,1,.085,2.79c-2.1,1.606-4.216,3.184-6.337,4.758a1.616,1.616,0,0,1-2.6-1.049,1.517,1.517,0,0,1,.6-1.465c.755-.59,1.531-1.154,2.3-1.73.082-.062.188-.1.24-.237H63.172c.294.225.54.415.788.6.587.442,1.187.868,1.76,1.327a1.548,1.548,0,0,1,.576,1.736,1.58,1.58,0,0,1-2.412.889c-.786-.527-1.528-1.121-2.287-1.688q-2.06-1.54-4.117-3.085a1.641,1.641,0,0,1-.746-1.8,1.786,1.786,0,0,1,.743-1.007C58.517,4.3,59.56,3.521,60.6,2.742S62.675,1.178,63.716.4a1.6,1.6,0,0,1,2.307.224,1.6,1.6,0,0,1-.344,2.318c-.822.617-1.63,1.255-2.506,1.8,0,.029.008.058.013.086" transform="translate(-42.148 0)" fill="#fffad0"/>
    <path id="Trazado_266575" data-name="Trazado 266575" d="M4.777,63.347c-.605.813-1.187,1.6-1.772,2.378a1.565,1.565,0,0,1-1.592.724,1.58,1.58,0,0,1-1.037-2.6c.791-1.071,1.6-2.132,2.394-3.2l2.242-2.991a1.691,1.691,0,0,1,2.121-.684,1.77,1.77,0,0,1,.709.58q2.3,3.067,4.6,6.133a1.68,1.68,0,0,1,.288,1.925,1.6,1.6,0,0,1-2.678.25c-.529-.639-1-1.326-1.5-1.991-.136-.182-.281-.357-.473-.6v48.416c.172-.219.3-.378.426-.543.516-.691,1.015-1.4,1.548-2.073a1.551,1.551,0,0,1,1.806-.511,1.625,1.625,0,0,1,1.058,1.592,1.689,1.689,0,0,1-.365.937c-1.576,2.106-3.143,4.219-4.733,6.314a1.615,1.615,0,0,1-2.746-.057c-.541-.712-1.045-1.454-1.6-2.153-1.062-1.333-2-2.755-3.077-4.082A1.566,1.566,0,0,1,.65,108.8a1.579,1.579,0,0,1,2.306.369c.573.767,1.18,1.511,1.705,2.313a.807.807,0,0,0,.084.092c.128-.209.166-47.825.031-48.229" transform="translate(0 -42.261)" fill="#fffad0"/>
    <path id="Trazado_266576" data-name="Trazado 266576" d="M129.324,139.611l-1.764,2.824c-1.048,1.68-2.091,3.363-3.146,5.038a1.674,1.674,0,0,1-2.927.019c-1.428-2.258-2.833-4.531-4.252-6.795a10.823,10.823,0,0,1-.645-1.1.535.535,0,0,0-.1.423q0,6.473,0,12.946a1.843,1.843,0,0,1-.353,1.261,1.541,1.541,0,0,1-1.619.585,1.58,1.58,0,0,1-1.229-1.247,2.375,2.375,0,0,1-.065-.57q-.005-9.462,0-18.924a1.677,1.677,0,0,1,1.4-1.793,1.6,1.6,0,0,1,1.65.794q1.665,2.65,3.318,5.308,1.547,2.478,3.094,4.957c.072.115.152.226.255.379.1-.139.177-.245.247-.358q3.136-5.026,6.269-10.054a1.963,1.963,0,0,1,1.148-1,1.629,1.629,0,0,1,1.99,1.237,3.277,3.277,0,0,1,.062.7q0,9.254,0,18.509a2.691,2.691,0,0,1-.17,1.128,1.608,1.608,0,0,1-3.084-.579c-.017-.81-.006-1.62-.006-2.429q0-5.466-.006-10.932c0-.1.033-.214-.069-.325" transform="translate(-84.191 -98.336)" fill="#fffad0"/>
    <path id="Trazado_266577" data-name="Trazado 266577" d="M199.856,94.777c-1.044,0-2.088,0-3.132,0a1.584,1.584,0,0,1-1.691-1.58c-.078-1.629-.083-3.26,0-4.888a1.6,1.6,0,0,1,1.723-1.588c1.428,0,2.855,0,4.283,0,.459,0,.457,0,.451-.447a7.6,7.6,0,0,1,.006-.831c.028-.283-.089-.337-.344-.335q-2.205.013-4.41,0a1.613,1.613,0,0,1-.429-3.188,3.179,3.179,0,0,1,.572-.044q3.021,0,6.041,0a1.63,1.63,0,0,1,1.775,1.762q0,2.3,0,4.6a1.567,1.567,0,0,1-1.631,1.7c-1.491.021-2.983.012-4.474,0-.256,0-.343.067-.333.319.014.33.011.661-.005.991-.013.247.068.333.327.332q2.269-.015,4.538,0a1.5,1.5,0,0,1,1.407.884,1.587,1.587,0,0,1-1.412,2.318c-1.087.01-2.173,0-3.26,0" transform="translate(-144.976 -60.876)" fill="#fffad0"/>
  </g>
</svg>
