<svg xmlns="http://www.w3.org/2000/svg" width="362" height="348" viewBox="0 0 362 348">
  <g id="Grupo_1075181" data-name="Grupo 1075181" transform="translate(-915 -33150)">
    <rect id="Rectángulo_376132" data-name="Rectángulo 376132" width="362" height="348" transform="translate(915 33150)" fill="none"/>
    <g id="_07" data-name="07" transform="translate(906.687 33111.785)">
      <g id="Grupo_1071466" data-name="Grupo 1071466" transform="translate(138.168 199.117)">
        <path id="Trazado_816083" data-name="Trazado 816083" d="M159.215,245.631l32.541-18.911,111.867,64.586-32.541,18.911Z" transform="translate(-159.215 -226.72)" fill="#f2f2f2"/>
      </g>
      <g id="Grupo_1071475" data-name="Grupo 1071475" transform="translate(126.559 55.279)">
        <g id="Grupo_1071474" data-name="Grupo 1071474">
          <g id="Grupo_1071467" data-name="Grupo 1071467" transform="translate(98.562 146.938)">
            <path id="Trazado_816084" data-name="Trazado 816084" d="M262.987,244.326l23.938-13.911-.133,46.705-23.938,13.911Z" transform="translate(-262.854 -230.415)" fill="#205abf"/>
          </g>
          <g id="Grupo_1071468" data-name="Grupo 1071468" transform="translate(0.189 23.239)">
            <path id="Trazado_816085" data-name="Trazado 816085" d="M145.6,96.889l23.938-13.911,40.646,23.467-23.938,13.911Z" transform="translate(-145.603 -82.978)" fill="#3064bf"/>
          </g>
          <g id="Grupo_1071469" data-name="Grupo 1071469" transform="translate(139.354 103.696)">
            <path id="Trazado_816086" data-name="Trazado 816086" d="M311.664,192.785,335.6,178.874l-.19,66.718L311.474,259.5Z" transform="translate(-311.474 -178.874)" fill="#205abf"/>
          </g>
          <g id="Grupo_1071470" data-name="Grupo 1071470" transform="translate(98.883 80.221)">
            <path id="Trazado_816087" data-name="Trazado 816087" d="M263.237,164.805l23.938-13.911,40.66,23.475L303.9,188.28Z" transform="translate(-263.237 -150.894)" fill="#3064bf"/>
          </g>
          <g id="Grupo_1071471" data-name="Grupo 1071471" transform="translate(98.883 33.515)">
            <path id="Trazado_816088" data-name="Trazado 816088" d="M263.37,109.136l23.938-13.911-.133,46.706-23.938,13.911Z" transform="translate(-263.237 -95.225)" fill="#205abf"/>
          </g>
          <g id="Grupo_1071472" data-name="Grupo 1071472" transform="translate(40.967)">
            <path id="Trazado_816089" data-name="Trazado 816089" d="M194.207,69.19l23.938-13.911,58.048,33.515L252.255,102.7Z" transform="translate(-194.207 -55.279)" fill="#3064bf"/>
          </g>
          <g id="Grupo_1071473" data-name="Grupo 1071473" transform="translate(0 13.911)">
            <path id="Trazado_816090" data-name="Trazado 816090" d="M244.394,105.375l-.133,46.706,40.66,23.474-.19,66.719L244.072,218.8,243.94,265.5l-58.048-33.515.133-46.705-40.646-23.467.189-66.719,40.646,23.468.133-46.706Z" transform="translate(-145.378 -71.86)" fill="#3772db"/>
          </g>
        </g>
      </g>
      <g id="Grupo_1071484" data-name="Grupo 1071484" transform="translate(147.166 285.621)">
        <path id="Trazado_816091" data-name="Trazado 816091" d="M291.764,353l-9.672-6.185-33.8,16.924s-46.894,25.818-47.537,27.093c-.528,1.046.277,2.775,1.974,4.01l-1.149.8h0a1.3,1.3,0,0,0-.529.9,1.6,1.6,0,0,0,.018.414l-28.783,17.034-2.342,2.1,31.832-17.923a1.575,1.575,0,0,0,.352.222,1.312,1.312,0,0,0,1.07-.013h0l3.364-1.587a10.359,10.359,0,0,0,5.631.909,50.4,50.4,0,0,0,7.661-1.748l44.1-25.161s6.947.129,8.677-.337,4.93-1.446,5.142-2.479-5.455-3.046-5.455-3.046l11.336-8.375s5.809,1.259,8.119.132a15.562,15.562,0,0,0,3.129-1.852Z" transform="translate(-169.94 -332.559)" fill="#c1c8e0"/>
        <g id="Grupo_1071483" data-name="Grupo 1071483" transform="translate(0.541)">
          <path id="Trazado_816092" data-name="Trazado 816092" d="M300.46,335.63c0,5.2,3.674,11.538,8.206,14.155s8.206.522,8.206-4.678-3.674-11.538-8.206-14.155S300.46,330.429,300.46,335.63Z" transform="translate(-191.495 -329.824)" fill="#f4f6fa"/>
          <path id="Trazado_816093" data-name="Trazado 816093" d="M299.309,336.295c0,5.2,3.674,11.538,8.206,14.155s8.206.522,8.206-4.679-3.674-11.538-8.206-14.155S299.309,331.094,299.309,336.295Z" transform="translate(-191.31 -329.931)" fill="#d3dbec"/>
          <g id="Grupo_1071477" data-name="Grupo 1071477" transform="translate(70.74 5.04)">
            <path id="Trazado_816094" data-name="Trazado 816094" d="M309.839,336.886a7.923,7.923,0,0,0-.914-.623,5.91,5.91,0,0,0-.914-.431Z" transform="translate(-263.451 -335.831)" fill="#c5cfe5"/>
            <path id="Trazado_816095" data-name="Trazado 816095" d="M303.153,338.631l.029-.017-.024-.014A.181.181,0,0,0,303.153,338.631Z" transform="translate(-262.669 -336.277)" fill="#c5cfe5"/>
            <path id="Trazado_816096" data-name="Trazado 816096" d="M315.042,347.556a5.672,5.672,0,0,0,.083-1,7.555,7.555,0,0,0-.083-1.1Z" transform="translate(-264.583 -337.381)" fill="#c5cfe5"/>
            <g id="Grupo_1071476" data-name="Grupo 1071476">
              <path id="Trazado_816097" data-name="Trazado 816097" d="M301.463,337.088v4.673L258.77,366.41l-2.782-3.067Z" transform="translate(-255.075 -336.033)" fill="#d3dbec"/>
              <path id="Trazado_816098" data-name="Trazado 816098" d="M306.407,345.46v2.1l-44.1,25.458-.907-1.571Z" transform="translate(-255.947 -337.381)" fill="#d3dbec"/>
              <path id="Trazado_816099" data-name="Trazado 816099" d="M299.461,335.831l1.827,1.055L255.813,363.14l-.913-1.581Z" transform="translate(-254.9 -335.831)" fill="#f4f6fa"/>
              <path id="Trazado_816100" data-name="Trazado 816100" d="M302.2,342.658l4.073,2.351-45,25.983-.719-4.287Z" transform="translate(-255.809 -336.93)" fill="#f4f6fa"/>
            </g>
          </g>
          <g id="Grupo_1071478" data-name="Grupo 1071478" transform="translate(36.864 10.173)">
            <path id="Trazado_816101" data-name="Trazado 816101" d="M295.965,361.773a15.267,15.267,0,0,0-6.119-11.358l-6.116-4.294a9.218,9.218,0,0,0-1.483-.856l-6.116-2.768a4.382,4.382,0,0,0-4.166-.049l-.018-.019-1.578.91.376.405a6.037,6.037,0,0,0-.732,3.046,15.27,15.27,0,0,0,6.119,11.358l6.116,4.294a9.221,9.221,0,0,0,1.483.856l6.116,2.768a5.779,5.779,0,0,0,2.1.524l.451.485,1.8-1.055.009-.005h0A4.954,4.954,0,0,0,295.965,361.773Z" transform="translate(-223.457 -341.949)" fill="#5475d5"/>
            <path id="Trazado_816102" data-name="Trazado 816102" d="M280.291,363.569l-6.116-4.294a15.269,15.269,0,0,1-6.119-11.358h0c0-4.018,2.638-5.869,6.119-4.293l6.116,2.769a9.22,9.22,0,0,1,1.483.856l6.116,4.294a15.27,15.27,0,0,1,6.119,11.358h0c0,4.018-2.637,5.869-6.119,4.293l-6.116-2.768A9.289,9.289,0,0,1,280.291,363.569Z" transform="translate(-223.142 -342.128)" fill="#728edc"/>
            <path id="Trazado_816103" data-name="Trazado 816103" d="M268.251,347.384,217.02,376.962,226.854,394,278.2,364.353Z" transform="translate(-214.925 -342.824)" fill="#8f9afc"/>
            <path id="Trazado_816104" data-name="Trazado 816104" d="M289.65,359.8a15.369,15.369,0,0,0-6.975-12.031c-3.853-2.224-6.975-.444-6.975,3.977a15.369,15.369,0,0,0,6.975,12.031C286.526,366,289.65,364.222,289.65,359.8Z" transform="translate(-224.373 -342.732)" fill="#6f8bdb"/>
            <path id="Trazado_816105" data-name="Trazado 816105" d="M274.382,352.507a10.51,10.51,0,0,0,.1,1.445,12.839,12.839,0,0,0,.41,1.872,16.3,16.3,0,0,0,1.646,3.724,16.088,16.088,0,0,0,2.535,3.239,12.471,12.471,0,0,0,1.482,1.24q.393.278.8.513c3.853,2.224,6.975.444,6.975-3.978q0-.491-.049-1a12.206,12.206,0,0,0-.346-1.9,15.992,15.992,0,0,0-1.562-3.8,16.4,16.4,0,0,0-2.426-3.274,13.057,13.057,0,0,0-1.428-1.284,10.635,10.635,0,0,0-1.163-.782C277.5,346.306,274.382,348.086,274.382,352.507Z" transform="translate(-224.16 -342.854)" fill="#aabbea"/>
            <path id="Trazado_816106" data-name="Trazado 816106" d="M229.791,394.359a15.369,15.369,0,0,0-6.975-12.031c-3.852-2.224-6.975-.444-6.975,3.977a15.369,15.369,0,0,0,6.975,12.031C226.668,400.56,229.791,398.78,229.791,394.359Z" transform="translate(-214.735 -348.296)" fill="#6f8bdb"/>
            <path id="Trazado_816107" data-name="Trazado 816107" d="M228.474,395.119a15.369,15.369,0,0,0-6.975-12.031c-3.852-2.224-6.975-.444-6.975,3.977A15.369,15.369,0,0,0,221.5,399.1C225.351,401.321,228.474,399.54,228.474,395.119Z" transform="translate(-214.523 -348.418)" fill="#aabbea"/>
          </g>
          <g id="Grupo_1071479" data-name="Grupo 1071479" transform="translate(70.739 16.631)">
            <path id="Trazado_816108" data-name="Trazado 816108" d="M255.988,365.61l2.782,3.067,1.042-.6,13.768-7.949,9.832-5.677a16.4,16.4,0,0,0-2.426-3.274l-9.053,5.227Z" transform="translate(-255.074 -349.893)" fill="#afbddb"/>
            <path id="Trazado_816109" data-name="Trazado 816109" d="M261.4,373.721l.907,1.571,16.158-9.329,7.724-4.459a12.207,12.207,0,0,0-.346-1.9l-8.86,5.115Z" transform="translate(-255.946 -351.251)" fill="#c5cfe5"/>
            <path id="Trazado_816110" data-name="Trazado 816110" d="M254.9,363.783l.913,1.582,15.947-9.207,9.053-5.227a13.049,13.049,0,0,0-1.428-1.284l-8.034,4.64Z" transform="translate(-254.899 -349.647)" fill="#c5cfe5"/>
            <path id="Trazado_816111" data-name="Trazado 816111" d="M260.546,368.705l.719,4.286,15.584-9,8.86-5.115a15.99,15.99,0,0,0-1.562-3.8l-9.832,5.677Z" transform="translate(-255.808 -350.522)" fill="#8da1cc"/>
          </g>
          <g id="Grupo_1071481" data-name="Grupo 1071481" transform="translate(65.584 28.089)">
            <g id="Grupo_1071480" data-name="Grupo 1071480" transform="translate(0.746)">
              <path id="Trazado_816112" data-name="Trazado 816112" d="M249.644,367.789a13.972,13.972,0,0,0,6.341,10.937c3.5,2.022,6.341.4,6.341-3.615a13.972,13.972,0,0,0-6.341-10.937C252.483,362.152,249.644,363.77,249.644,367.789Z" transform="translate(-249.644 -363.303)" fill="#fff"/>
            </g>
            <path id="Trazado_816113" data-name="Trazado 816113" d="M248.755,368.3a13.972,13.972,0,0,0,6.341,10.937c3.5,2.022,6.341.4,6.341-3.615a13.972,13.972,0,0,0-6.341-10.937C251.594,362.665,248.755,364.284,248.755,368.3Z" transform="translate(-248.755 -363.386)" fill="#c5cfe5"/>
          </g>
          <g id="Grupo_1071482" data-name="Grupo 1071482" transform="translate(51.277 23.82)">
            <path id="Trazado_816114" data-name="Trazado 816114" d="M234.976,391.2a16.162,16.162,0,0,0-3.274-6.9l.459-.267a16.331,16.331,0,0,1,3.274,6.9l-.459.267Z" transform="translate(-231.702 -362.371)" fill="#4a5188"/>
            <path id="Trazado_816115" data-name="Trazado 816115" d="M236.239,386.844A16.874,16.874,0,0,0,233.923,383l.458-.267a16.91,16.91,0,0,1,2.316,3.842l-.459.267Z" transform="translate(-232.06 -362.163)" fill="#4a5188"/>
            <path id="Trazado_816116" data-name="Trazado 816116" d="M238.459,385.553a16.869,16.869,0,0,0-2.316-3.842l.459-.267a16.875,16.875,0,0,1,2.316,3.842l-.459.267Z" transform="translate(-232.417 -361.955)" fill="#4a5188"/>
            <path id="Trazado_816117" data-name="Trazado 816117" d="M240.68,384.263a16.873,16.873,0,0,0-2.316-3.842l.459-.267A16.877,16.877,0,0,1,241.139,384l-.459.267Z" transform="translate(-232.775 -361.747)" fill="#4a5188"/>
            <path id="Trazado_816118" data-name="Trazado 816118" d="M242.9,382.972a16.871,16.871,0,0,0-2.316-3.842l.458-.267a16.848,16.848,0,0,1,2.316,3.842l-.458.267Z" transform="translate(-233.132 -361.539)" fill="#4a5188"/>
            <path id="Trazado_816119" data-name="Trazado 816119" d="M246.078,384.744a16.162,16.162,0,0,0-3.274-6.9l.459-.267a16.332,16.332,0,0,1,3.274,6.9l-.459.267Z" transform="translate(-233.489 -361.332)" fill="#4a5188"/>
            <path id="Trazado_816120" data-name="Trazado 816120" d="M247.342,380.391a16.87,16.87,0,0,0-2.316-3.842l.458-.267a16.877,16.877,0,0,1,2.316,3.842l-.458.267Z" transform="translate(-233.847 -361.124)" fill="#4a5188"/>
            <path id="Trazado_816121" data-name="Trazado 816121" d="M249.562,379.1a16.872,16.872,0,0,0-2.316-3.842l.459-.267a16.829,16.829,0,0,1,2.316,3.842l-.459.267Z" transform="translate(-234.205 -360.916)" fill="#4a5188"/>
            <path id="Trazado_816122" data-name="Trazado 816122" d="M251.783,377.81a16.873,16.873,0,0,0-2.316-3.842l.458-.267a16.876,16.876,0,0,1,2.316,3.842l-.458.267Z" transform="translate(-234.562 -360.708)" fill="#4a5188"/>
            <path id="Trazado_816123" data-name="Trazado 816123" d="M254,376.52a16.871,16.871,0,0,0-2.316-3.842l.459-.267a16.861,16.861,0,0,1,2.316,3.842l-.459.267Z" transform="translate(-234.92 -360.501)" fill="#4a5188"/>
            <path id="Trazado_816124" data-name="Trazado 816124" d="M257.183,378.291a16.163,16.163,0,0,0-3.274-6.9l.458-.267a16.331,16.331,0,0,1,3.274,6.9l-.458.266Z" transform="translate(-235.277 -360.293)" fill="#4a5188"/>
            <path id="Trazado_816125" data-name="Trazado 816125" d="M271.77,366.195a16.89,16.89,0,0,0-2.316-3.842l.458-.266a16.88,16.88,0,0,1,2.316,3.842l-.458.266Z" transform="translate(-237.78 -358.838)" fill="#4a5188"/>
            <path id="Trazado_816126" data-name="Trazado 816126" d="M273.99,364.9a16.872,16.872,0,0,0-2.316-3.842l.459-.267a16.845,16.845,0,0,1,2.316,3.842l-.459.267Z" transform="translate(-238.138 -358.631)" fill="#4a5188"/>
            <path id="Trazado_816127" data-name="Trazado 816127" d="M276.211,363.614a16.871,16.871,0,0,0-2.316-3.842l.458-.267a16.875,16.875,0,0,1,2.316,3.842l-.458.267Z" transform="translate(-238.495 -358.423)" fill="#4a5188"/>
            <path id="Trazado_816128" data-name="Trazado 816128" d="M279.389,365.386a16.163,16.163,0,0,0-3.274-6.9l.459-.267a16.333,16.333,0,0,1,3.274,6.9l-.459.267Z" transform="translate(-238.853 -358.215)" fill="#4a5188"/>
            <path id="Trazado_816129" data-name="Trazado 816129" d="M258.445,373.939a16.872,16.872,0,0,0-2.316-3.842l.459-.267a16.859,16.859,0,0,1,2.316,3.842l-.459.267Z" transform="translate(-235.635 -360.085)" fill="#4a5188"/>
            <path id="Trazado_816130" data-name="Trazado 816130" d="M260.666,372.648a16.871,16.871,0,0,0-2.316-3.842l.459-.267a16.861,16.861,0,0,1,2.316,3.842l-.459.267Z" transform="translate(-235.992 -359.877)" fill="#4a5188"/>
            <path id="Trazado_816131" data-name="Trazado 816131" d="M262.887,371.358a16.872,16.872,0,0,0-2.316-3.842l.458-.267a16.849,16.849,0,0,1,2.316,3.842l-.458.267Z" transform="translate(-236.35 -359.669)" fill="#4a5188"/>
            <path id="Trazado_816132" data-name="Trazado 816132" d="M265.107,370.067a16.871,16.871,0,0,0-2.316-3.842l.459-.267a16.876,16.876,0,0,1,2.316,3.842l-.459.267Z" transform="translate(-236.707 -359.462)" fill="#4a5188"/>
            <path id="Trazado_816133" data-name="Trazado 816133" d="M268.286,371.839a16.163,16.163,0,0,0-3.274-6.9l.458-.266a16.322,16.322,0,0,1,3.274,6.9l-.458.266Z" transform="translate(-237.065 -359.254)" fill="#4a5188"/>
            <path id="Trazado_816134" data-name="Trazado 816134" d="M269.548,367.486a16.871,16.871,0,0,0-2.316-3.842l.459-.267a16.877,16.877,0,0,1,2.316,3.842l-.459.267Z" transform="translate(-237.422 -359.046)" fill="#4a5188"/>
          </g>
          <path id="Trazado_816135" data-name="Trazado 816135" d="M222.837,375.741a11.205,11.205,0,0,1,5.35,4.522c5.526-2.928,47.462-27.334,47.462-27.334s-2.261-3.98-5.344-4.343C268.605,349.384,222.837,375.741,222.837,375.741Z" transform="translate(-178.998 -332.845)" fill="#4851a1"/>
          <path id="Trazado_816136" data-name="Trazado 816136" d="M219.556,391.532a5.281,5.281,0,0,0,2.4,4.135c1.324.764,2.4.153,2.4-1.367a5.283,5.283,0,0,0-2.4-4.135C220.629,389.4,219.556,390.013,219.556,391.532Z" transform="translate(-178.469 -339.486)" fill="#3281c2"/>
          <path id="Trazado_816137" data-name="Trazado 816137" d="M219.114,390.055l3.375,5.845-6.767,2.931h0a1.47,1.47,0,0,1-1.342-.187,3.78,3.78,0,0,1-1.707-2.944,1.458,1.458,0,0,1,.49-1.228h0Z" transform="translate(-177.362 -339.521)" fill="#3281c2"/>
          <path id="Trazado_816138" data-name="Trazado 816138" d="M208.378,397.27l.039.068a1.083,1.083,0,0,1-.41,1.488l-37.423,20.866,2.536-2.66,33.736-20.156A1.1,1.1,0,0,1,208.378,397.27Z" transform="translate(-170.585 -340.594)" fill="#b6b6b6"/>
        </g>
        <path id="Trazado_816139" data-name="Trazado 816139" d="M208.477,397.695c-.32-.56-.683-.516-.683-.516l-34.4,20.5-.66.66,35.626-20.6Z" transform="translate(-170.389 -340.668)" fill="#e0e0e0"/>
      </g>
      <g id="Grupo_1071520" data-name="Grupo 1071520" transform="translate(56.702 168.946)">
        <g id="Grupo_1071491" data-name="Grupo 1071491">
          <path id="Trazado_816140" data-name="Trazado 816140" d="M199.85,355.211l2.631-1.519c9.284-5.36,8.109-14.81-2.612-21l-92.488-53.4c-10.721-6.189-27.088-6.868-36.372-1.508l-2.631,1.519c-9.284,5.36-8.109,14.81,2.612,21l92.488,53.4C174.2,359.893,190.566,360.571,199.85,355.211Z" transform="translate(-62.115 -204.188)" fill="#f2f2f2"/>
          <g id="Grupo_1071490" data-name="Grupo 1071490" transform="translate(10.85)">
            <g id="Grupo_1071485" data-name="Grupo 1071485">
              <path id="Trazado_816141" data-name="Trazado 816141" d="M102.813,191.156a7.128,7.128,0,0,0-3.051-.374,16.677,16.677,0,0,0-8.272,2.587,18.932,18.932,0,0,0-3.717,3.24,20.625,20.625,0,0,0-1.665,2.14c-.326.482-.732,1.675-1.182,1.988l3.6-2.514a23.479,23.479,0,0,0-5.073,11.056c-.367,1.957-.095,4.02-.97,5.8-.847,1.724-1.888,3.319-2.8,5-.781,1.441-1.875,2.678-2.711,4.1a14.989,14.989,0,0,0,2.981-3.257c-.123,1.882-1.281,3.507-2.194,5.158a21.859,21.859,0,0,0-2.708,10.936,52.8,52.8,0,0,0,1.7-5.458c0,2.945-.654,6.022-.133,8.913a14.075,14.075,0,0,1-.522,8.2c.379-.857,1.183-1.367,1.666-2.141a18.685,18.685,0,0,0,1.3-2.52,8.347,8.347,0,0,1,.493,2.372,5.436,5.436,0,0,1-.1,2.132,9.883,9.883,0,0,0,1.209-4.627,25.653,25.653,0,0,1,.347,12.447,12.291,12.291,0,0,1,1.129-1.923c.332-.685.559-1.409.86-2.1a16.354,16.354,0,0,0,1.36-4.434,19.383,19.383,0,0,1,.618-2.181c.3-1.243,1.178-9.809,1.355-11.074a38.73,38.73,0,0,1,2.141-8.761c.536-1.371,1.185-9.306,1.983-10.544.71-1.1,1.906-2.107,2.014-3.5a30.373,30.373,0,0,0-.023,4.4,32.784,32.784,0,0,0,2.1-6.985c.409-2.247.606-4.6,1.736-6.589a9.8,9.8,0,0,1,5.627-4.584,5.457,5.457,0,0,1,3.586.145c1.3.582,1.915,1.981,3.173,2.62,2.585,1.314,3.989-2.341,2.258-4.067a10.3,10.3,0,0,0-3.249-1.793,2.725,2.725,0,0,1-.955-.612A10.57,10.57,0,0,0,102.813,191.156Z" transform="translate(-75.048 -190.759)" fill="#28304a"/>
              <path id="Trazado_816142" data-name="Trazado 816142" d="M111.069,197.122c-.044-.053-.091-.1-.14-.153a10.274,10.274,0,0,0-3.249-1.793,2.737,2.737,0,0,1-.955-.612,15.688,15.688,0,0,0-2.683-2.554,3.551,3.551,0,0,1-2.463,2.333,10.105,10.105,0,0,1-1.535.227c-1.622.133-3.273.045-4.823.815a8.446,8.446,0,0,0-2.694,2.421,34.071,34.071,0,0,0-5.6,10.121l1.953.061a21.1,21.1,0,0,1-5.627,11.2c.8,2.13-.9,4.447-2.9,5.543a16.176,16.176,0,0,1-2.27.985c-.111.191-.22.382-.326.573a21.859,21.859,0,0,0-2.708,10.936,52.8,52.8,0,0,0,1.7-5.459c0,2.945-.654,6.021-.133,8.913a14.075,14.075,0,0,1-.522,8.2c.38-.857,1.183-1.367,1.666-2.141a18.721,18.721,0,0,0,1.3-2.519,8.347,8.347,0,0,1,.493,2.372,5.436,5.436,0,0,1-.1,2.132,9.883,9.883,0,0,0,1.209-4.627,25.637,25.637,0,0,1,.347,12.446,12.2,12.2,0,0,1,1.13-1.923c.332-.685.559-1.409.86-2.1a16.325,16.325,0,0,0,1.36-4.434,19.215,19.215,0,0,1,.619-2.181c.3-1.242,1.178-9.809,1.355-11.074a38.73,38.73,0,0,1,2.141-8.761c.536-1.371,1.185-9.306,1.983-10.544.71-1.1,1.906-2.107,2.014-3.5a30.375,30.375,0,0,0-.023,4.4,32.738,32.738,0,0,0,2.1-6.985c.409-2.247.606-4.6,1.736-6.589a9.8,9.8,0,0,1,5.627-4.584,5.462,5.462,0,0,1,3.586.144c1.3.582,1.916,1.981,3.173,2.62a2.453,2.453,0,0,0,.9.273A9.324,9.324,0,0,0,111.069,197.122Z" transform="translate(-75.047 -190.961)" fill="#1c2134"/>
              <path id="Trazado_816143" data-name="Trazado 816143" d="M93.625,217.551a5.648,5.648,0,0,0,.967-1.939c.04-.2.08-.737-.144-.851a.412.412,0,0,0-.154-.032,1.543,1.543,0,0,0-.873.1,5.57,5.57,0,0,1-.609.365,4.189,4.189,0,0,0-1.451,1.282c-.887,1.034-1.665,8.767-2.322,9.961a20.029,20.029,0,0,0-2.406,7.846c-.164,1.847-.069,3.709-.186,5.561a113.907,113.907,0,0,1-4.168,20.558c3.465-5.026,4.614-11.249,5.578-17.278a16.171,16.171,0,0,0,.171,2.248,20.035,20.035,0,0,1-.153,2.4c-.2,1.651-.581,3.264-.916,4.889a28.612,28.612,0,0,0,3.253-7.414,21.026,21.026,0,0,0,.166-8.421,12,12,0,0,1,1.415,4.416,22.019,22.019,0,0,0-.385-6.4,27.287,27.287,0,0,1-.635-7.035,19.233,19.233,0,0,1,.921-4.573c.325-1.06.54-2.181.964-3.207A13.916,13.916,0,0,1,93.625,217.551Z" transform="translate(-76.211 -194.616)" fill="#1c2134"/>
            </g>
            <g id="Grupo_1071487" data-name="Grupo 1071487" transform="translate(16.818 1.903)">
              <path id="Trazado_816144" data-name="Trazado 816144" d="M145.234,284.067c-.5,2.489-7.733.784-8.187-1.332-.42-1.946.274-3.2-.354-4.99h-.005a3.739,3.739,0,0,0-.195-.484c-.958-2.061-2.489-12.5-3.1-16.15s-5.877-14.205-4.316-17.473-1.646-13.52-1.3-15.985-7.748-9.435-7.748-27.475c0-2.839,5.808-10.288,12.473-.534s7.165,11.341,7.718,19.483a88.217,88.217,0,0,1-2.186,27.55s.3,8.457,1.312,11.82-.778,10.831,1.9,15.681c.659,1.193,1.267,2.25,1.8,3.2l.005.005C144.675,280.28,145.613,282.191,145.234,284.067Z" transform="translate(-99.109 -193.309)" fill="#82260a"/>
              <g id="Grupo_1071486" data-name="Grupo 1071486" transform="translate(20.926 0.1)">
                <path id="Trazado_816145" data-name="Trazado 816145" d="M217.3,249.957c.1.386.207.786.314,1.187a71.585,71.585,0,0,1,1.787,8.931c1.147,9.284,1.09,24.357-1.2,28.942s-2.212,26.61-2.3,28.273c-.048.952,1.232,4.354,2.358,7.378.164.45-.531,1.791-.32,2.223a28.194,28.194,0,0,1,2.483,5.426c.267,4.062-9.877,2.427-10.006.336-.013-.2-.02-.425-.023-.649-.05-2.068.206-4.791.206-4.791s-.043-.216-.116-.578l-.005-.005c-.248-1.232-.025-4.009-.762-6.047-.956-2.64.539-4.553.675-9.9,0-.2-.38-10.614-.38-10.864,0-2.44-2.592-8.175-2.456-13.384.081-3.141-.685-13.968-1.713-17.587a98.631,98.631,0,0,0-4.527-12.407s-.051-4.1.365-8.87c.51-5.938,1.744-12.907,4.687-14.29,5.583-2.618.174,1.466,3.333,2.56a38.793,38.793,0,0,0,5.09,1.241S216.014,245.234,217.3,249.957Z" transform="translate(-133.121 -199.47)" fill="#942f11"/>
                <path id="Trazado_816146" data-name="Trazado 816146" d="M210.086,333.388c-1.157.1-2.288.187-3.394.27-.05-2.068.206-4.791.206-4.791s-.043-.216-.116-.578l-.005-.005c-.248-1.232-.025-4.009-.762-6.047-.956-2.64.539-4.553.675-9.9,0-.2-.38-10.614-.38-10.864,0-2.44-2.592-8.175-2.456-13.384.081-3.141-.685-13.968-1.713-17.587-2.277-.7-4.939-1.642-8.059-2.836a58.356,58.356,0,0,1-15.762-8.534c5.286,2.972,17.366,4.525,17.123-1.165-.237-5.464,2.327-13.034,3.136-15.268a21.611,21.611,0,0,0-.6,6.526c.025,1.118.1,2.385.239,3.826.582,5.955,14.607-.464,15.182,5.395,1.4,14.224-1.854,25.245-2.51,26.92-1.829,4.669-4.773,5.031-2.65,12.489s.128,18.439.422,20.035-.669,2.145-.321,4.62S209.3,327.186,210.086,333.388Z" transform="translate(-129.419 -201.125)" fill="#82260a"/>
                <path id="Trazado_816147" data-name="Trazado 816147" d="M222.163,350.395c.267,4.062-9.877,2.427-10.006.336a45.6,45.6,0,0,1,.184-5.44s-.043-.216-.115-.578c1.129,2.051,6.485,1.487,7.454.257A28.236,28.236,0,0,1,222.163,350.395Z" transform="translate(-134.862 -217.549)" fill="#222021"/>
                <path id="Trazado_816148" data-name="Trazado 816148" d="M234.307,243.482c-.539.125-2.27-1.118-2.27-1.118s0,.967-1.691.029c-.175-.095-.364-.21-.574-.349-2.27-1.5-1.432-3.163-1.811-3.757s-2.754-6.171-4.8-8.038-5.194-9.08-5.953-9.455-2.265.858-2.864,2.809c-.294.973-1.951,3.327-3.827,5.938-.425.6-.863,1.212-1.3,1.821-1.487,2.091-2.944,4.181-3.807,5.733-1.861,3.353-2.076,4.505-2.1,5.777-.01.245-.005.489-.005.758,0,.424-.04,1.357-.129,2.544-.269,3.483,1.322,11.251-.21,13.1-1.956,2.36-5.542,2.874-19.358-4.226-.654-.334-1.332-.689-2.03-1.058-.085-.044-.17-.09-.249-.129-3.682-1.946-7.06-3.572-10.154-5.024-9.814-4.62-16.744-7.489-21.239-13.037-5.943-7.335-7.944-12.269-10.692-14.854a64.808,64.808,0,0,0-5.383-3.762,56.3,56.3,0,0,1-5.528-4.2c-3.133-2.744-5.907-6.062-6.75-9.914-2-9.15-2.43-6.136.967-8.327s8.212-3.752,22.956,6.746c0,0,14.368,8.814,18.906,10.336s15.5-.886,18.679-1.889c3.188-1.018,20.451-9.3,23.749-10.867s10.1-2.225,12.907-.918,4.809,2.53,7.509,9.424.564,9.389,3.1,14.183,4.375,13.291,4.924,16.644C235.814,241.749,234.846,243.362,234.307,243.482Z" transform="translate(-120.035 -193.146)" fill="#ad4929"/>
                <path id="Trazado_816149" data-name="Trazado 816149" d="M244.468,219.924c-1.353,3.865-1.69,7.074.411,8.023s3.778,11.013,6.4,11.086c-.656-5.907-4.011-10.722-3.647-11.889S247.645,223.279,244.468,219.924Z" transform="translate(-139.893 -197.458)" fill="#ffe5b8"/>
                <path id="Trazado_816150" data-name="Trazado 816150" d="M135.587,217.683s.3,1.332.778,3.448a65.052,65.052,0,0,1,5.38,3.765c2.753,2.581,4.753,7.519,10.694,14.851s16.144,9.987,31.643,18.191,19.336,7.752,21.388,5.283c1.529-1.844-.06-9.614.208-13.1,0,0-2.355,8.314-7.168,9.541s-11.459-3.854-11.459-3.854l-5.691-14.342s.54,8.235,1.067,9.541-2.514.863-2.514.863-12.134-.849-21.1-9.125-13.286-17.587-15.339-18.772S135.587,217.683,135.587,217.683Z" transform="translate(-122.539 -197.097)" fill="#942f11"/>
                <path id="Trazado_816151" data-name="Trazado 816151" d="M240.944,200.509s2.577-6.472,2.514-6.714c-.456-1.789-3.932,1.126-4.76,1.787-.562.449-2.466,2.105-3.633,3.124a1.484,1.484,0,0,0-.271,1.917c.255.4.446.941.778,1.138,1.425.847,2.452.953,3.271.348A14.156,14.156,0,0,0,240.944,200.509Z" transform="translate(-138.474 -193.159)" fill="#82260a"/>
                <path id="Trazado_816152" data-name="Trazado 816152" d="M212.843,265.288c-1.607,3.847-14.01,12.7-24.981,16.3a34.931,34.931,0,0,1-4.421,1.163.052.052,0,0,1-.02.005c-.284.055-.564.1-.838.144L180.7,255.365,179.22,233.7s15.5,5.937,25.4,10.1q.434.18.853.359c4.241,1.8,7.259,3.2,7.225,3.547a12.1,12.1,0,0,0,.134,1.691C213.247,253.115,214.365,261.656,212.843,265.288Z" transform="translate(-129.564 -199.676)" fill="#ad4929"/>
              </g>
              <path id="Trazado_816153" data-name="Trazado 816153" d="M148.431,299.918c-.5,2.489-7.733.784-8.187-1.332-.419-1.946.274-3.2-.354-4.99,3.921,2.255,6.506,2.655,6.356-.369l.005.005C147.872,296.131,148.81,298.042,148.431,299.918Z" transform="translate(-102.305 -209.16)" fill="#222021"/>
              <path id="Trazado_816154" data-name="Trazado 816154" d="M124.412,193.13c-22.036-1.521-23.242,14.278-23.242,14.278s-6.749,23.242,8.891,20.372,21.551-16.589,20.4-20.206S124.412,193.13,124.412,193.13Z" transform="translate(-95.838 -193.027)" fill="#ad4929"/>
              <path id="Trazado_816155" data-name="Trazado 816155" d="M116.647,196.811c-19.5-2.03-21.624,13.192-21.552,21.519.044,5.1,11.975,16.881,14.671,16.571,15.8-1.821,9.127-16.216,7.98-19.834S116.647,196.811,116.647,196.811Z" transform="translate(-95.093 -193.607)" fill="#ad4929"/>
            </g>
            <g id="Grupo_1071489" data-name="Grupo 1071489" transform="translate(16.795 3.676)">
              <g id="Grupo_1071488" data-name="Grupo 1071488" transform="translate(1.34)">
                <path id="Trazado_816156" data-name="Trazado 816156" d="M226.584,244.568c-.125,2.535-1.431,4.361-1.876,4.46-.539.125-2.27-1.123-2.27-1.123s0,.769-1.192.279a6.905,6.905,0,0,1-1.073-.6,10.14,10.14,0,0,1-3.3-2.894,70.11,70.11,0,0,0-6.292-7.179c-.982-.9-3.1-2.505-5.134-3.977-2.2-1.607-4.3-3.048-4.69-3.243-.753-.374-2.265.858-2.863,2.809-.21.694-2.6,3.363-5.708,6.705-.469.509-.958,1.033-1.462,1.566-3.852,4.131-8.382,8.906-11.2,12.213-.029.03-.055.06-.08.09-.055.06-.11.125-.16.185-.708.838-1.3,1.576-1.726,2.17a8.864,8.864,0,0,0-.549.838c-2.22,3.991-2.105,4.865-2.105,6.536,0,.429-.04,1.357-.13,2.545-.269,3.483-.988,9.205-2.52,11.051a4.026,4.026,0,0,1-2.11,1.392.052.052,0,0,1-.02.005c-1.746.464-3.378,2.332-8.538,1.508-.761-.118-2.254-4.032-3.062-4.4-2.176-.973-4.705-2.225-7.658-3.787a58.358,58.358,0,0,1-14.619-10.373.018.018,0,0,0-.01-.005c-4.051-4.076-6.4-7.993-9.685-12.049-5.937-7.329-7.938-12.269-10.691-14.848a65.183,65.183,0,0,0-5.379-3.767c-4.79-3.263-10.951-.11-12.279-6.2-2-9.15-2.435-14.05.968-16.235s8.208-3.752,22.956,6.746c0,0,.973.04,2.435.169,3.243.3,8.886,1.067,11.605,2.938,3.947,2.714,13.027,10.572,16.21,9.565s34.71-17.527,38.008-19.094,10.1-2.23,12.907-.918,4.81,2.53,7.509,9.419,6.581,10.457,9.115,15.252,6.027,7.259,6.571,10.612A8.024,8.024,0,0,1,226.584,244.568Z" transform="translate(-96.663 -196.992)" fill="#ad4929"/>
                <path id="Trazado_816157" data-name="Trazado 816157" d="M237.465,221.208a7.916,7.916,0,0,1,2.142,2.863,25.325,25.325,0,0,1,1.148,3.615,43.609,43.609,0,0,0,3.129,8.035q.978,1.924,2.144,3.747a5.814,5.814,0,0,0,1.139,1.507c.538.424,1.231.635,1.771,1.066,1.1.878,2.415,3.653,1.607,5.025-.759,1.291-2.922,1.4-4.226,1.623a16.19,16.19,0,0,1-6.342-.615c-1.41-.4-3.147-3.22-4.135-4.279l-4.643-4.979a8.408,8.408,0,0,1-2.431-3.811c-.07-.341,2.355.361,2.512.426a3.957,3.957,0,0,1,1.04.6,40.776,40.776,0,0,0,4.218,2.694.653.653,0,0,0,.21.1.531.531,0,0,0,.513-.3,2.491,2.491,0,0,0,.159-1.65c-.368-2.768-1.026-5.363-2.921-7.483-1.632-1.826-3.431-3.568-4.494-5.775a5.034,5.034,0,0,1-.594-2.711,2.53,2.53,0,0,1,1.576-2.146,3.667,3.667,0,0,1,2.328.241A12.99,12.99,0,0,1,237.465,221.208Z" transform="translate(-117.932 -198.927)" fill="#a63513"/>
                <path id="Trazado_816158" data-name="Trazado 816158" d="M175.806,274.054c-8.323.555-17.364.513-24.089-4.422-1.826-1.34-8.606-2.152-11.512-6.3-3.665-5.23-8-13.551-11.07-19.153-1.393-2.543-1.938-5.724-2.413-8.6-.531-3.216-2.537-6.552-3.388-9.708-.736-2.73-1.809-7.11-4.969-10.062.478,2.349,1.142,7.532.208,9.688-.3.69-3.076-.253-3.316.458a4.853,4.853,0,0,0-.178,1.8c.134,2.623,1.536,4.478,2.152,6.941a14.809,14.809,0,0,1,1.6,1.224c2.754,2.579,4.755,7.519,10.691,14.848s8.816,14.219,24.313,22.426c21.408,11.322,9.2,9.359,19.258,6.68a.022.022,0,0,0,.015-.005,3.837,3.837,0,0,0,1.405-.709A6.007,6.007,0,0,0,175.806,274.054Z" transform="translate(-99.626 -198.468)" fill="#942f11"/>
                <path id="Trazado_816159" data-name="Trazado 816159" d="M237.532,250.74a2.369,2.369,0,0,1-1.337,1.322,6.816,6.816,0,0,1-1.073-.6,10.132,10.132,0,0,1-3.3-2.894,70.107,70.107,0,0,0-6.292-7.179c-.982-.9-3.1-2.505-5.134-3.977-1.487,2.091-2.944,4.181-3.807,5.733-1.861,3.353-2.076,4.505-2.1,5.777.409,3.713,1.526,12.254.005,15.886-1.607,3.847-14.01,12.7-24.981,16.3.669-3.437,1.607-6.825,2.535-10.208.229-.818-2.224-2.01-1.85-2.774a17.455,17.455,0,0,0,1.959-8.692c.706.863,4.307,1.913,5.334,2.345a4.475,4.475,0,0,0,3.631.091,4.1,4.1,0,0,0,1.3-1.038,5.523,5.523,0,0,0,1.2-4.611c-.464-2.3-2.321-4.022-4.071-5.584-.225-.2-.471-.456-.424-.754s.373-.47.656-.59a17.382,17.382,0,0,0,3.862-2.1,7.784,7.784,0,0,0,2.261-2.637c.526-1.054,1.256-1.968,1.822-3.015,1.232-2.276,2.01-4.765,3.254-7.036,1-1.826,3.061-4.4,5.4-3.636,2.21.722,3.87,3.024,5.3,4.724a19.269,19.269,0,0,0,1.671,1.836,20.385,20.385,0,0,1,2.016,1.731,19.326,19.326,0,0,1,1.736,3.019,16.558,16.558,0,0,0,1.477,2,12.952,12.952,0,0,0,3.432,3.268,10.285,10.285,0,0,0,4.819,1.078c-.249.559.584,1.008.729,1.6A1.06,1.06,0,0,1,237.532,250.74Z" transform="translate(-111.613 -200.87)" fill="#942f11"/>
                <path id="Trazado_816160" data-name="Trazado 816160" d="M189.2,262.04c-.01.4-.02.813-.029,1.227-.085,2.929.254,15.549-.22,18.488-1.487,9.236-2.993,17.936-4.76,22.745s-1.462,24.331-1.5,26a16.857,16.857,0,0,0,2.393,6.705c.242.414-.175,1.331.017,1.771a28.185,28.185,0,0,1,2.258,5.523c.1,4.07-9.968,2.019-10.011-.076,0-.206,0-.425,0-.65.035-2.069.4-4.778.4-4.778s-.034-.218-.091-.582l0-.005a17.077,17.077,0,0,0-1.055-4.443c-1.031-2.612.41-4.567.4-9.914,0-.2-.679-8.269-.686-8.519-.067-2.439-2.544-7.227-2.983-12.419-.267-3.13-2.91-17.584-3.493-21.3a98.64,98.64,0,0,0-3-12.863s.444-4.077,1.431-8.762c1.222-5.833,3.288-12.6,6.376-13.62a14.339,14.339,0,0,1,13.156,2.015,14.87,14.87,0,0,1,2.849,2.575A63.341,63.341,0,0,0,189.2,262.04Z" transform="translate(-107.96 -203.294)" fill="#ad4929"/>
                <path id="Trazado_816161" data-name="Trazado 816161" d="M177.045,345.174c-1.159.053-2.294.093-3.4.13.035-2.069.4-4.778.4-4.778s-.034-.218-.091-.582l0-.005a17.077,17.077,0,0,0-1.055-4.443c-1.031-2.612.41-4.567.4-9.914,0-.2-.679-8.269-.686-8.519-.067-2.439-2.544-7.227-2.983-12.419-.267-3.13-2.91-17.584-3.493-21.3-2.176-.973-4.705-2.225-7.658-3.787a58.358,58.358,0,0,1-14.619-10.372c4.89,3.587,16.694,6.586,17.138.908.424-5.453,3.881-12.658,4.954-14.778a21.565,21.565,0,0,0-1.382,6.406c-.11,1.113-.19,2.38-.224,3.827-.14,5.982,2.337,16.876,4.853,22.2a14.959,14.959,0,0,1,1.727,5.959,65.624,65.624,0,0,0,3.514,19.689c2.328,7.4.648,16.1.986,17.685s-.607,2.163-.19,4.628S176.511,338.945,177.045,345.174Z" transform="translate(-104.26 -204.828)" fill="#942f11"/>
                <path id="Trazado_816162" data-name="Trazado 816162" d="M189.791,208.405a7.907,7.907,0,0,0,4.1-.4c-.326.123-.74.662-1.095.856-.4.221-.831.422-1.248.622a18.025,18.025,0,0,1-9.716,1.654l1.688.868c-.128.362-.6.435-.982.447l-4.175.14c.126.109.254.214.385.316a11.842,11.842,0,0,0,10.685,1.617,8.286,8.286,0,0,1-3.185,1.819,8.488,8.488,0,0,0,3.279-.348,35.357,35.357,0,0,0,4.568-.868c1.09-.388,2.212-1.016,3.28-1.5a23.17,23.17,0,0,0,6.932-4.854,42.4,42.4,0,0,1-3.655,4.336,18.548,18.548,0,0,0,7.167-6.1,11.453,11.453,0,0,1,1.222-1.613c2.274-2.276,6.23-3.046,9.314-3.174a7.686,7.686,0,0,1,1.994.237c.578.128,1.137-.024,1.677.325a3.613,3.613,0,0,1,1.008,1.113,12.824,12.824,0,0,1,1.206,2.358c.076-.816.19-1.63.337-2.436-.014.078.41.461.473.533q.267.3.522.619a11.261,11.261,0,0,1,.93,1.311,7.473,7.473,0,0,1,.64,1.426,8.782,8.782,0,0,1,.27,1.648,7.4,7.4,0,0,0,.886-2.928c.461.981,1.222,1.788,1.764,2.726a13.81,13.81,0,0,1,1.275,3.64,1.67,1.67,0,0,1,.112-.488c.043-.2.081-.393.117-.59q.107-.591.176-1.189a8.2,8.2,0,0,0,.084-2.195,20.907,20.907,0,0,1,1.79,2.578,13.271,13.271,0,0,0-1.133-4.742,10.481,10.481,0,0,0-1.008-2.04,6.009,6.009,0,0,0-1.326-1.4,2.808,2.808,0,0,1,.878.082,7.146,7.146,0,0,1,1.524.775.381.381,0,0,1,.15.159.136.136,0,0,1,.007.076c.021-.112-.2-.425-.25-.53q-.142-.284-.3-.56c-.2-.362-.442-.686-.67-1.033a25.552,25.552,0,0,0-1.748-2.634,10.409,10.409,0,0,0-6.4-3.525,32.05,32.05,0,0,0-8.08-.262l4.2,1.224c-4.422.056-8.944.129-13.1,1.644l4.156-.315c-3.073,1.252-6.035,2.756-9.27,3.488a18.108,18.108,0,0,0-4.472,1.656,6.84,6.84,0,0,0,2.722-.215,10.4,10.4,0,0,0-1.6.96,14.12,14.12,0,0,0-1.664.9C194.179,206.111,192.32,207.842,189.791,208.405Z" transform="translate(-109.816 -195.14)" fill="#28304a"/>
                <path id="Trazado_816163" data-name="Trazado 816163" d="M233.6,224.205s1.515-1.472,2.638-.88c2.242,1.183,2,2.829,2,2.829a4.929,4.929,0,0,1-2.313-.148A6.223,6.223,0,0,1,233.6,224.205Z" transform="translate(-118.71 -199.655)" fill="#22222c"/>
                <path id="Trazado_816164" data-name="Trazado 816164" d="M242.455,246.057s3.437,6.633,3.663,7.259a.788.788,0,0,1-.206.935l-1.782-3.508-1.675-4.313Z" transform="translate(-120.136 -203.338)" fill="#050507"/>
                <path id="Trazado_816165" data-name="Trazado 816165" d="M228.723,206.1c-.212-2.879-3.153-4.648-5.742-5.924a7.26,7.26,0,0,1,3.441.977c-3.817-3-9.276-2.165-14.03-1.181a3.475,3.475,0,0,1,3.1-1.678,19.626,19.626,0,0,0-3.974-1.031,24.447,24.447,0,0,0-5.149,1.217l4.156-.314c-3.072,1.251-6.035,2.755-9.27,3.488a18.14,18.14,0,0,0-4.472,1.656,6.825,6.825,0,0,0,2.722-.215,10.427,10.427,0,0,0-1.6.96,14,14,0,0,0-1.664.9c-2.055,1.492-3.914,3.224-6.443,3.786a7.9,7.9,0,0,0,4.1-.4c-.326.123-.74.662-1.095.856-.4.221-.832.422-1.248.622a18.026,18.026,0,0,1-9.716,1.654l1.688.868c-.128.362-.6.435-.982.448l-4.175.14c.126.109.254.214.384.316a11.842,11.842,0,0,0,10.685,1.617,8.293,8.293,0,0,1-3.185,1.819,8.488,8.488,0,0,0,3.279-.348,35.359,35.359,0,0,0,4.568-.868c1.09-.388,2.212-1.016,3.28-1.5a23.169,23.169,0,0,0,6.932-4.854,42.608,42.608,0,0,1-3.654,4.336,18.54,18.54,0,0,0,7.166-6.1,11.452,11.452,0,0,1,1.222-1.613c2.274-2.276,6.23-3.046,9.314-3.174a7.687,7.687,0,0,1,1.994.237c.578.128,1.137-.024,1.677.325a3.6,3.6,0,0,1,1.008,1.113,12.746,12.746,0,0,1,1.206,2.358c.077-.816.19-1.63.337-2.436-.014.078.41.461.474.533.178.2.352.409.522.619a11.2,11.2,0,0,1,.93,1.311,7.4,7.4,0,0,1,.64,1.426,8.782,8.782,0,0,1,.27,1.649,7.4,7.4,0,0,0,.886-2.928,6.076,6.076,0,0,0,.341.613A4.844,4.844,0,0,0,228.723,206.1Z" transform="translate(-109.816 -195.483)" fill="#1c2134"/>
                <path id="Trazado_816166" data-name="Trazado 816166" d="M226.272,208.779s3.077-6.449,2.056-7.871c-.661-.92-4.232,2.177-4.854,3.035s-4.253,3.734-4.449,5.385c-.135,1.136,2.245,2.151,3.181,2.266,1.038.128,1.16-1.312,1.829-1.871C224.894,209.006,226.168,209.08,226.272,208.779Z" transform="translate(-116.363 -196.042)" fill="#82260a"/>
              </g>
              <path id="Trazado_816167" data-name="Trazado 816167" d="M95.476,256.148c0,2.95,2.177,17.614,2.177,18.7s-.67,8.72-.559,10.581a9.756,9.756,0,0,0,1.453,3.917,24.882,24.882,0,0,1,.612,4.525c-.107,1.154,1.312,3.358,1.813,4.093a34.069,34.069,0,0,1,1.656,3.933s5.859-.912,5.859-2a40.3,40.3,0,0,0-2.1-7.172c-.43-1.151-.751-2.009-.814-2.189a14.533,14.533,0,0,1-.336-4.109c.112-1.279-.559-3.658-.894-5.709s-.559-8.66-.165-9.716,1.954-5.865,1.954-7.979,2.625-8.1,3.072-8.488a77.462,77.462,0,0,0,4.641-7.007c.894-1.6,3.218-5.627,3.52-7.2s.286-15.192-2.956-21.681S101.7,207.7,98.619,209.385a5.986,5.986,0,0,0-3.183,4.7c-.416,4.932-.862,9.761.966,20.39.608,3.54,1.925,10.824,1.541,13.04C97.177,251.959,95.476,254.18,95.476,256.148Z" transform="translate(-95.066 -197.376)" fill="#ad4929"/>
              <path id="Trazado_816168" data-name="Trazado 816168" d="M116.187,223.241a3.238,3.238,0,0,0-.094.367,17.493,17.493,0,0,0,.3,3.041c.037,1.6-.077,3.218-.117,4.817a89.835,89.835,0,0,1-1.452,10.853c-.922,4.859-5.184,9.729-7.921,13.852-1.722,2.594-3.929,4.947-4.714,8.038-.381,1.5,1.953.4,1.858,1.894a11.256,11.256,0,0,1-1.45,4.354,10.056,10.056,0,0,0-1.283,5.438,26.079,26.079,0,0,0,.065,4.611c.321,1.962,1.015,3.822,1.384,5.757a26.879,26.879,0,0,1,.168,5.831c-.029,1,1.318,8.476-1.7,6.455-.24.877-.506,1.747-.789,2.613.543,1.209,3.052,3.027,3.052,3.027s5.859-.912,5.859-2a40.3,40.3,0,0,0-2.1-7.172c-.43-1.151-.752-2.009-.814-2.189a14.506,14.506,0,0,1-.335-4.109c.112-1.28-.56-3.658-.894-5.709s-.559-8.66-.165-9.716S107,267.43,107,265.316s2.624-8.1,3.072-8.488a77.3,77.3,0,0,0,4.64-7.007c.894-1.6,3.164-5.639,3.52-7.2C119.835,235.589,118.376,230.18,116.187,223.241Z" transform="translate(-95.931 -199.664)" fill="#a63513"/>
              <path id="Trazado_816169" data-name="Trazado 816169" d="M99.864,314.389c-.409.982.39,2.4,3.524,3.573,3.477,1.3,5.859-.912,5.859-2a40.3,40.3,0,0,0-2.1-7.172s-.738,2.286-4.286,2.135a4.256,4.256,0,0,1-2.942-.991C99.81,311.089,100.206,313.567,99.864,314.389Z" transform="translate(-95.822 -213.438)" fill="#222021"/>
            </g>
            <path id="Trazado_816170" data-name="Trazado 816170" d="M244.461,246.037c-2.027-.62-2.4,1.625-3.056,3.933s-.174,2.494.832,3.555,2.089,1.7,4.9,1.5,5.613-4.147,5.613-4.147Z" transform="translate(-101.783 -199.642)" fill="#7d341e"/>
            <path id="Trazado_816171" data-name="Trazado 816171" d="M247.629,254.37c3.46-.371,6-2.906,6.96-3.883s1.251-1.749.918-4.972-2.225-4.992-2.539-5.662c.434,1.373.19,1.889-.657,2.45-3.549,2.349-5.75,1.493-7.548,1.2s-2.993-.5-3.81,1.352,1.911,3.281,2.389,4.778S244.951,254.054,247.629,254.37Z" transform="translate(-101.734 -198.663)" fill="#7d341e"/>
            <path id="Trazado_816172" data-name="Trazado 816172" d="M249.86,249.113a.693.693,0,0,1,1.069.738c-.08.305-.173.681-.279,1.136-.113.485.7,1.252.718,1.594.049.928-.362,1.053-.981,1.083-.99.048-2.81-1.524-2.583-2.115A7.238,7.238,0,0,1,249.86,249.113Z" transform="translate(-102.859 -200.134)" fill="#1e1d1b"/>
            <path id="Trazado_816173" data-name="Trazado 816173" d="M189.365,362.268c.1,4.07-9.968,2.02-10.011-.075a45.516,45.516,0,0,1,.407-5.428s-.034-.218-.091-.582c1.044,2.095,6.417,1.752,7.438.562A28.28,28.28,0,0,1,189.365,362.268Z" transform="translate(-91.841 -217.393)" fill="#222021"/>
            <path id="Trazado_816174" data-name="Trazado 816174" d="M219.274,338.564a2.184,2.184,0,0,0,0-.331C219.363,338.251,219.356,338.347,219.274,338.564Z" transform="translate(-98.268 -214.503)" fill="#222021"/>
          </g>
          <path id="Trazado_816175" data-name="Trazado 816175" d="M142.755,270.914a5.843,5.843,0,0,1-.784-.848A3.321,3.321,0,0,1,142.755,270.914Z" transform="translate(-74.972 -203.528)" fill="#9a4025"/>
          <path id="Trazado_816176" data-name="Trazado 816176" d="M170.488,254.623c-.03.06-.115.225-.239.469A4.106,4.106,0,0,1,170.488,254.623Z" transform="translate(-79.525 -201.041)" fill="#9a4025"/>
        </g>
        <g id="Grupo_1071510" data-name="Grupo 1071510" transform="translate(80.493 35.059)">
          <g id="Grupo_1071509" data-name="Grupo 1071509">
            <g id="Grupo_1071492" data-name="Grupo 1071492" transform="translate(0.519 0.001)">
              <path id="Trazado_816177" data-name="Trazado 816177" d="M161.834,240.549a2.5,2.5,0,0,1-1.259-.323c-1.576-.868-2.321-3.216-1.662-5.244a3.165,3.165,0,0,1,2.788-2.422l.778-.013a3.165,3.165,0,0,0-2.788,2.422c-.659,2.028.086,4.375,1.662,5.244a2.505,2.505,0,0,0,1.259.323Z" transform="translate(-158.673 -232.547)" fill="#6a7dc4"/>
            </g>
            <g id="Grupo_1071493" data-name="Grupo 1071493" transform="translate(1.296)">
              <path id="Trazado_816178" data-name="Trazado 816178" d="M165.549,238.113c-.659,2.028-2.471,2.968-4.047,2.1s-2.321-3.216-1.662-5.244,2.471-2.968,4.047-2.1S166.209,236.086,165.549,238.113Z" transform="translate(-159.6 -232.545)" fill="#6a7dc4"/>
            </g>
            <g id="Grupo_1071494" data-name="Grupo 1071494" transform="translate(0.519 0.013)">
              <path id="Trazado_816179" data-name="Trazado 816179" d="M164.623,238.129c-.659,2.028-2.471,2.968-4.047,2.1s-2.321-3.216-1.662-5.244,2.471-2.968,4.047-2.1S165.282,236.1,164.623,238.129Zm-.641-.352a3.5,3.5,0,0,0-1.289-4.066c-1.222-.674-2.628.055-3.139,1.628a3.5,3.5,0,0,0,1.289,4.066c1.222.673,2.628-.055,3.139-1.628Z" transform="translate(-158.674 -232.561)" fill="#7185d1"/>
            </g>
            <g id="Grupo_1071495" data-name="Grupo 1071495" transform="translate(1.297 1.5)">
              <path id="Trazado_816180" data-name="Trazado 816180" d="M163.346,237.838a1.8,1.8,0,0,1-2.548,1.322,2.846,2.846,0,0,1-1.046-3.3,1.8,1.8,0,0,1,2.548-1.322A2.845,2.845,0,0,1,163.346,237.838Zm-1.354-.746a.7.7,0,0,0-.258-.813.444.444,0,0,0-.628.326.7.7,0,0,0,.258.813.445.445,0,0,0,.628-.326Z" transform="translate(-159.601 -234.334)" fill="#6a7dc4"/>
            </g>
            <g id="Grupo_1071496" data-name="Grupo 1071496" transform="translate(2.502 3.396)">
              <path id="Trazado_816181" data-name="Trazado 816181" d="M161.528,237.836a.393.393,0,0,1-.2-.05.7.7,0,0,1-.258-.813.491.491,0,0,1,.433-.376l.263,0a.491.491,0,0,0-.432.376.7.7,0,0,0,.258.813.39.39,0,0,0,.2.05Z" transform="translate(-161.037 -236.593)" fill="#6a7dc4"/>
            </g>
            <g id="Grupo_1071497" data-name="Grupo 1071497" transform="translate(2.993 4.258)">
              <path id="Trazado_816182" data-name="Trazado 816182" d="M161.885,238l-.263,0a.493.493,0,0,0,.433-.376l.263,0A.491.491,0,0,1,161.885,238Z" transform="translate(-161.622 -237.621)" fill="#6a7dc4"/>
            </g>
            <g id="Grupo_1071498" data-name="Grupo 1071498" transform="translate(2.972 3.396)">
              <path id="Trazado_816183" data-name="Trazado 816183" d="M161.6,236.6l.263,0a.392.392,0,0,1,.2.05.7.7,0,0,1,.258.813l-.263,0a.7.7,0,0,0-.258-.813A.39.39,0,0,0,161.6,236.6Z" transform="translate(-161.597 -236.593)" fill="#6a7dc4"/>
            </g>
            <g id="Grupo_1071499" data-name="Grupo 1071499" transform="translate(0 1.061)">
              <path id="Trazado_816184" data-name="Trazado 816184" d="M160.4,239.739a1.864,1.864,0,0,1-.933-.239,3.346,3.346,0,0,1-1.231-3.884,2.346,2.346,0,0,1,2.066-1.795l.69-.012a2.345,2.345,0,0,0-2.066,1.795,3.346,3.346,0,0,0,1.231,3.884,1.852,1.852,0,0,0,.933.239Z" transform="translate(-158.055 -233.81)" fill="#6a7dc4"/>
            </g>
            <g id="Grupo_1071500" data-name="Grupo 1071500" transform="translate(1.214 0.912)">
              <path id="Trazado_816185" data-name="Trazado 816185" d="M163.33,237.725l.785.223c-.511,1.572-1.916,2.3-3.139,1.628a3.5,3.5,0,0,1-1.289-4.066c.511-1.572,1.916-2.3,3.139-1.628a3.5,3.5,0,0,1,1.289,4.066l-.785-.223a2.846,2.846,0,0,0-1.046-3.3,1.8,1.8,0,0,0-2.548,1.322,2.846,2.846,0,0,0,1.046,3.3A1.8,1.8,0,0,0,163.33,237.725Z" transform="translate(-159.502 -233.632)" fill="#6a7dc4"/>
            </g>
            <g id="Grupo_1071501" data-name="Grupo 1071501" transform="translate(0.691 1.06)">
              <path id="Trazado_816186" data-name="Trazado 816186" d="M163.284,237.933c-.487,1.5-1.83,2.2-3,1.555a3.346,3.346,0,0,1-1.231-3.884c.487-1.5,1.83-2.2,3-1.556A3.348,3.348,0,0,1,163.284,237.933Zm-1.672-.92a.7.7,0,0,0-.258-.813.444.444,0,0,0-.628.326.7.7,0,0,0,.258.813.444.444,0,0,0,.628-.326Z" transform="translate(-158.878 -233.809)" fill="#6a7dc4"/>
            </g>
            <g id="Grupo_1071502" data-name="Grupo 1071502" transform="translate(2.112 3.416)">
              <path id="Trazado_816187" data-name="Trazado 816187" d="M161.482,237.468a.438.438,0,0,1-.618.32.691.691,0,0,1-.254-.8.438.438,0,0,1,.618-.321A.692.692,0,0,1,161.482,237.468Z" transform="translate(-160.572 -236.617)" fill="#6a7dc4"/>
            </g>
            <g id="Grupo_1071503" data-name="Grupo 1071503" transform="translate(3.68 5.568)">
              <path id="Trazado_816188" data-name="Trazado 816188" d="M163.219,241.6l-.778.013a3.165,3.165,0,0,0,2.788-2.422l.778-.013A3.165,3.165,0,0,1,163.219,241.6Z" transform="translate(-162.441 -239.182)" fill="#6a7dc4"/>
            </g>
            <g id="Grupo_1071504" data-name="Grupo 1071504" transform="translate(3.547 0.001)">
              <path id="Trazado_816189" data-name="Trazado 816189" d="M162.283,232.56l.778-.013a2.506,2.506,0,0,1,1.259.323c1.576.868,2.321,3.216,1.662,5.244l-.778.013c.659-2.028-.086-4.375-1.662-5.244A2.5,2.5,0,0,0,162.283,232.56Z" transform="translate(-162.283 -232.547)" fill="#6a7dc4"/>
            </g>
            <g id="Grupo_1071505" data-name="Grupo 1071505" transform="translate(0.674 1.942)">
              <path id="Trazado_816190" data-name="Trazado 816190" d="M161.206,237.185l.765.587a1.5,1.5,0,0,1-2.118,1.1,2.364,2.364,0,0,1-.869-2.744,1.5,1.5,0,0,1,2.118-1.1,2.364,2.364,0,0,1,.869,2.744l-.765-.587a.691.691,0,0,0-.254-.8.438.438,0,0,0-.618.32.69.69,0,0,0,.254.8A.438.438,0,0,0,161.206,237.185Z" transform="translate(-158.858 -234.859)" fill="#7d94e8"/>
            </g>
            <g id="Grupo_1071506" data-name="Grupo 1071506" transform="translate(2.342 5.184)">
              <path id="Trazado_816191" data-name="Trazado 816191" d="M161.536,240.519l-.69.012a2.345,2.345,0,0,0,2.066-1.795l.69-.012A2.345,2.345,0,0,1,161.536,240.519Z" transform="translate(-160.846 -238.724)" fill="#6a7dc4"/>
            </g>
            <g id="Grupo_1071507" data-name="Grupo 1071507" transform="translate(2.243 1.061)">
              <path id="Trazado_816192" data-name="Trazado 816192" d="M160.728,233.822l.69-.012a1.863,1.863,0,0,1,.933.239,3.346,3.346,0,0,1,1.231,3.884l-.69.012a3.347,3.347,0,0,0-1.231-3.884A1.852,1.852,0,0,0,160.728,233.822Z" transform="translate(-160.728 -233.81)" fill="#6a7dc4"/>
            </g>
            <g id="Grupo_1071508" data-name="Grupo 1071508" transform="translate(0 1.073)">
              <path id="Trazado_816193" data-name="Trazado 816193" d="M162.461,237.947c-.488,1.5-1.83,2.2-3,1.556a3.346,3.346,0,0,1-1.231-3.884c.487-1.5,1.83-2.2,3-1.555A3.346,3.346,0,0,1,162.461,237.947Zm-.621-.341a2.365,2.365,0,0,0-.869-2.744,1.5,1.5,0,0,0-2.118,1.1,2.365,2.365,0,0,0,.869,2.744,1.5,1.5,0,0,0,2.118-1.1Z" transform="translate(-158.055 -233.824)" fill="#7185d1"/>
            </g>
          </g>
        </g>
        <g id="Grupo_1071518" data-name="Grupo 1071518" transform="translate(27.892 13.483)">
          <path id="Trazado_816194" data-name="Trazado 816194" d="M122.738,362.578c-5.5,3.176-14.444,3.159-19.979-.036s-5.563-8.36-.062-11.535,14.444-3.159,19.979.036S128.238,359.4,122.738,362.578Z" transform="translate(-95.88 -229.661)" fill="#f2f2f2"/>
          <g id="Grupo_1071517" data-name="Grupo 1071517">
            <path id="Trazado_816195" data-name="Trazado 816195" d="M116.354,361.075c-.108-.011-2,1.07-2.144,1.782a7.411,7.411,0,0,0,.2,3,15.38,15.38,0,0,0,4.389,1.171,9.629,9.629,0,0,0,3.416-.708,34.778,34.778,0,0,0,6.553.627c2.451-.152,5.842-1.335,6.42-2.731a4.446,4.446,0,0,0,.313-2.51s-.1-.255-.315-.277S116.354,361.075,116.354,361.075Z" transform="translate(-98.385 -231.663)" fill="#161b29"/>
            <path id="Trazado_816196" data-name="Trazado 816196" d="M97.214,350.4a4.221,4.221,0,0,1-1.1,1.218,2.006,2.006,0,0,0-.618,1.371,5.8,5.8,0,0,0,0,2.509,5.448,5.448,0,0,0,4.328.692,11.734,11.734,0,0,0,3.105-2.3l.794-1.373a3.841,3.841,0,0,0,2-.051,20.4,20.4,0,0,0,4.573-2.082,3.554,3.554,0,0,0,1.427-1.891,3.19,3.19,0,0,0-.206-1.657s-4.342.615-4.82.675S97.214,350.4,97.214,350.4Z" transform="translate(-95.36 -229.371)" fill="#161b29"/>
            <path id="Trazado_816197" data-name="Trazado 816197" d="M133.656,227.09c-.534-.108-13.572,1.571-14.809,1.936s-7.032-1.639-7.032-1.639-6.464-.3-7.567,6.855,12.974,3.288,14.4,2.669,14.789-3.356,15.794-4.127S133.656,227.09,133.656,227.09Z" transform="translate(-96.781 -210.09)" fill="#dadaf0"/>
            <g id="Grupo_1071511" data-name="Grupo 1071511" transform="translate(27.79 27.132)">
              <path id="Trazado_816198" data-name="Trazado 816198" d="M143.306,272.771c-5.465,0-8.5-3.368-10.593-6.594-1.819-2.8-2.186-9.284-2.509-15.006a58.915,58.915,0,0,0-.893-8.934,20.3,20.3,0,0,0-.827-2.727l.8-.341a20.341,20.341,0,0,1,.87,2.859,59.042,59.042,0,0,1,.916,9.094c.318,5.615.679,11.978,2.373,14.583,2.706,4.164,6.612,8.048,15.124,5.268,3.046-1,5.732-3.661,7.561-7.5,3.137-6.585,3.3-15.344.415-22.857l.81-.311c2.962,7.728,2.793,16.748-.441,23.541-1.933,4.061-4.8,6.886-8.075,7.955A17.829,17.829,0,0,1,143.306,272.771Z" transform="translate(-128.483 -239.168)" fill="#28304a"/>
            </g>
            <g id="Grupo_1071512" data-name="Grupo 1071512" transform="translate(23.356 16.109)">
              <path id="Trazado_816199" data-name="Trazado 816199" d="M128,238.459l-.387-1.349a56.556,56.556,0,0,0-2.762-6.716,22.876,22.876,0,0,1-1.654-4.142l.837-.222a22.414,22.414,0,0,0,1.6,3.992,56.828,56.828,0,0,1,2.809,6.829l.392,1.368Z" transform="translate(-123.198 -226.029)" fill="#e6ebff"/>
            </g>
            <path id="Trazado_816200" data-name="Trazado 816200" d="M115.969,355.2s-.614,5.354-.534,6.707a3.008,3.008,0,0,0,1.373,2.138,21.445,21.445,0,0,0,4.592-.008c1.16-.319,6.451.907,9.028.586s4.447-1.911,4.547-2.9a8.8,8.8,0,0,0-.092-1.835,1.175,1.175,0,0,0-.947-1c-2.353-.445-9.018-1.712-9.069-1.806C124.806,356.965,115.969,355.2,115.969,355.2Z" transform="translate(-98.591 -230.717)" fill="#404759"/>
            <path id="Trazado_816201" data-name="Trazado 816201" d="M96.576,345.854c-.011.108-.6,5.246-.638,6.3s2.859,1.561,4.274,1.232,2.863-2.781,4.053-3.051a27.405,27.405,0,0,0,4.013-.857,6.068,6.068,0,0,0,3.073-2.706c.343-.874-1.4-2.137-1.5-2.22s-5.4.722-5.4.722Z" transform="translate(-95.453 -229.001)" fill="#404759"/>
            <path id="Trazado_816202" data-name="Trazado 816202" d="M101.97,273.437a27.078,27.078,0,0,0-2.892,8.1c-1.118,8.042,1.4,12.816,1.3,24.159-.018,2.177,6.205,5.135,7.854,4.648s1.758-7.31,1.758-7.31,1.78-26.21,1.326-27.819S101.97,273.437,101.97,273.437Z" transform="translate(-95.912 -217.553)" fill="#295ea9"/>
            <path id="Trazado_816203" data-name="Trazado 816203" d="M102.885,307.645c-1.281.088-2.557-2.74-3.028-.607s-2.773,12.306-3.425,15.875-.367,17.629-.264,19.13,4.461,1.179,5.721.942a4.1,4.1,0,0,0,2.759-2.483c.116-.788,4.025-25.8,4.214-26.569S102.885,307.645,102.885,307.645Z" transform="translate(-95.465 -222.835)" fill="#295ea9"/>
            <path id="Trazado_816204" data-name="Trazado 816204" d="M105.209,275.006a24.44,24.44,0,0,0-2.408,10.6c-.039,6.139,3.833,13.092,3.833,13.092s3.3,16.847,4.145,18.241,11.375-.49,11.385-3.927c.021-7.3.585-23.833.32-27.313s-1.442-9.452-1.442-9.452Z" transform="translate(-96.558 -217.806)" fill="#2c6bb8"/>
            <path id="Trazado_816205" data-name="Trazado 816205" d="M112.771,315.565a37.542,37.542,0,0,0-.894,7.171c-.131,4.394-.746,6.876.18,11.732s2.577,16.375,2.748,17.918,4.614,2.176,6.588,1.358,2.968-2.026,2.932-2.393-.7-32.369-.8-33.1S112.771,315.565,112.771,315.565Z" transform="translate(-97.967 -224.336)" fill="#2c6bb8"/>
            <g id="Grupo_1071513" data-name="Grupo 1071513" transform="translate(20.391 61.611)">
              <path id="Trazado_816206" data-name="Trazado 816206" d="M121.743,348.232c-.18-21.668-.226-28.022-.028-29.891a2.339,2.339,0,0,0-.021-.242l.053-.009c.01-.06.018-.112.029-.159.128-5.668.3-34.695-2.113-37.046l.6-.622c2.846,2.775,2.5,33.571,2.325,38.242.005.1.01.221.017.349h-.031a1.982,1.982,0,0,1-.02.241l-.063.029c-.058,4.062.029,18.877.114,29.1Z" transform="translate(-119.664 -280.263)" fill="#3279d1"/>
            </g>
            <path id="Trazado_816207" data-name="Trazado 816207" d="M100.712,276.366a21.878,21.878,0,0,0-1.069,3.581c-.087.335.472,1.79,3.51,3.173a25.025,25.025,0,0,0,11.555,2.116c4.448-.244,6.9-1.35,6.9-2.493a29.021,29.021,0,0,0-.467-3.583Z" transform="translate(-96.048 -218.025)" fill="#1d2329"/>
            <g id="Grupo_1071514" data-name="Grupo 1071514" transform="translate(23.688 61.316)">
              <rect id="Rectángulo_375768" data-name="Rectángulo 375768" width="1.303" height="5.886" transform="matrix(0.997, -0.074, 0.074, 0.997, 0, 0.096)" fill="#2c6bb8"/>
            </g>
            <g id="Grupo_1071515" data-name="Grupo 1071515" transform="translate(16.608 60.594)">
              <path id="Trazado_816208" data-name="Trazado 816208" d="M116.122,287.511l-.885-.953.443.477-.524-.373a17.343,17.343,0,0,0,.175-3.04c.031-2.418.079-3.932.491-4.571l1.094.7a17.13,17.13,0,0,0-.284,3.884C116.6,286.239,116.55,287.112,116.122,287.511Z" transform="translate(-115.155 -279.051)" fill="#2c6bb8"/>
            </g>
            <g id="Grupo_1071516" data-name="Grupo 1071516" transform="translate(7.26 60.934)">
              <rect id="Rectángulo_375769" data-name="Rectángulo 375769" width="6.297" height="1.3" transform="translate(0 6.273) rotate(-85.061)" fill="#2c6bb8"/>
            </g>
            <path id="Trazado_816209" data-name="Trazado 816209" d="M121.448,272.949c-5.13,2.864-12.781,1.179-16.523-.282-2.966-1.157-3.644-1.794-4.318-3.08s2.143-21.134,1.681-27.888,1.629-11.776,4.9-13.408,6.1-.69,7.619,1.208a55.687,55.687,0,0,0,4.4,5.417c1.154.989,5.66,3.9,5.653,8.691s-2.573,21.545-2.671,22.516S121.448,272.949,121.448,272.949Z" transform="translate(-96.188 -210.15)" fill="#4280ff"/>
            <path id="Trazado_816210" data-name="Trazado 816210" d="M126.591,241.424c-1.237-1.09-5.468.279-6.767,3.63-2.462,6.347,2.223,8.708,3.311,9.949s11.752,11.042,13.449,10.794,1.458-8.7.718-9.49S127.574,242.292,126.591,241.424Z" transform="translate(-99.185 -212.34)" fill="#dadaf0"/>
            <path id="Trazado_816211" data-name="Trazado 816211" d="M155.367,250.123c.762-1.493,2.218-4.138,2.689-5.017a50.338,50.338,0,0,1,3.161-4.042,17.929,17.929,0,0,1,3.2-.6.644.644,0,0,1-.112,1.107,17.913,17.913,0,0,1-1.749.586,24.16,24.16,0,0,0-1.642,1.933c-.107.262,2.565-1.349,2.565-1.349l1.943.2-.007,1.417-1.04-.3-1.68,1.3a4.7,4.7,0,0,1,1.737-.724c.513.052,1.069.217,1.165.881a.613.613,0,0,1-.538.737l-1.447.835s1.1-.406,1.53-.036a1.4,1.4,0,0,1,.293,1.148l-2.32,1.373a19.29,19.29,0,0,1-2.413,2.291c-.786.493-2.466,1.468-2.466,1.468Z" transform="translate(-105.021 -212.241)" fill="#ffa399"/>
            <path id="Trazado_816212" data-name="Trazado 816212" d="M138.227,265.154c.048.6-.2,2.053,1.713,1.974s6.08-2.38,9.237-5.182c3.454-3.067,7.1-6.108,7.524-7.047s-2.12-5.175-3.4-5.414-13.484,8.232-14.164,8.49S138.227,265.154,138.227,265.154Z" transform="translate(-102.261 -213.696)" fill="#dadaf0"/>
            <path id="Trazado_816213" data-name="Trazado 816213" d="M150,224.643c.168-.31-.221-.513-.221-.513l-2.478.24-4.55,1.584a29.358,29.358,0,0,0-3.228,1.3c-.312.273-.288,2.457-.095,3.24s1.29.73,1.29.73a4.177,4.177,0,0,1,1.3.9c.412.505,4.914,1.015,5.154.795s-.289-1.447-.289-1.447l-2.572-.451,1.958-1.029s4.558-.594,4.966-1.116-.232-.941-.232-.941l-4.271.358s5.15-1.5,5.361-1.966-.585-.686-.585-.686l-.637.1s.5-.658.4-.941S150,224.643,150,224.643Z" transform="translate(-102.432 -209.615)" fill="#ffa399"/>
            <path id="Trazado_816214" data-name="Trazado 816214" d="M113.021,222.5c.251.593,1.2,3.035-.57,7.04-.784,1.775,7.99,4.87,8.213,3.511a12.8,12.8,0,0,1,2.03-5.211c1.074-1.273-2.213-8.658-2.213-8.658S113.37,213.67,113.021,222.5Z" transform="translate(-98.103 -208.545)" fill="#ffa399"/>
            <path id="Trazado_816215" data-name="Trazado 816215" d="M119.841,214.133c-.016,1.6-.814,6.243-.852,8.42a8.089,8.089,0,0,0,.973,4.642c.643.937,6.039,2.574,7,2.381s1.193-1.733,1.193-1.733.04-3.631.721-3.89,1.676-.763.836-1.436a5.768,5.768,0,0,1-1.3-4.063c.235-.885.43-4.609-.54-5.8s-6.821-1.563-6.821-1.563Z" transform="translate(-99.163 -207.516)" fill="#ffa399"/>
            <path id="Trazado_816216" data-name="Trazado 816216" d="M127.31,214.334a8.172,8.172,0,0,1-3.543,1.436s-.5,2.33-.61,2.557c-.341.717-1.655.777-1.655.777l-.65,2.089-1.309-.3s.129-2.976-1.593-2.932-1.51,1.949-1.781,2.83-.692,3.182-1.3,3.775-2.337-.847-2.337-.847a12.243,12.243,0,0,1-1.844-3.163c-1.2-4.725-1.223-6.986.072-9.928,1-2.279,2.41-2.5,4.584-2.785a9.146,9.146,0,0,1,9.765.9c2.691,2.163,2.361,2.821,2.348,4.244A5.85,5.85,0,0,1,127.31,214.334Z" transform="translate(-97.683 -206.829)" fill="#1c2134"/>
          </g>
        </g>
        <g id="Grupo_1071519" data-name="Grupo 1071519" transform="translate(47.746 28.251)">
          <path id="Trazado_816217" data-name="Trazado 816217" d="M127.286,237.393c-7.062-1.22-8.217-12.4-8.263-12.879l.865-.083c.01.11,1.137,11,7.545,12.108Z" transform="translate(-119.023 -224.431)" fill="#e6ebff"/>
        </g>
        <path id="Trazado_816218" data-name="Trazado 816218" d="M120.29,224.182c.1.616-.193,1.456-.71,1.54s-1.062-.619-1.162-1.235.282-.909.8-.993A.818.818,0,0,1,120.29,224.182Z" transform="translate(-71.177 -196.026)" fill="#28304a"/>
        <path id="Trazado_816219" data-name="Trazado 816219" d="M126.228,241.037c-3.317-.617-6.5,1.608-7.158,5.406s-.023,5.092,1.91,6.967,4.552,4.535,4.983,4.8,1.885,1.188,5.467-1.464c3.345-2.478,2.436-5.443,2.043-6.13C133.176,250.1,126.228,241.037,126.228,241.037Z" transform="translate(-71.244 -198.838)" fill="#5c92ff"/>
      </g>
      <g id="Grupo_1071534" data-name="Grupo 1071534" transform="translate(290.581 197.864)">
        <g id="Grupo_1071533" data-name="Grupo 1071533">
          <path id="Trazado_816220" data-name="Trazado 816220" d="M378.174,372.026c5.135,2.964,13.486,2.949,18.653-.034s5.193-7.8.059-10.769-13.486-2.95-18.653.034S373.04,369.061,378.174,372.026Z" transform="translate(-346.264 -246.765)" fill="#f2f2f2"/>
          <path id="Trazado_816221" data-name="Trazado 816221" d="M351.7,387.7a16.657,16.657,0,0,0,15.074-.028c4.176-2.411,4.2-6.308.047-8.7a16.66,16.66,0,0,0-15.074.027C347.57,381.407,347.549,385.3,351.7,387.7Z" transform="translate(-342.119 -249.691)" fill="#f2f2f2"/>
          <g id="Grupo_1071521" data-name="Grupo 1071521" transform="translate(10.599)">
            <path id="Trazado_816222" data-name="Trazado 816222" d="M380.13,361.71l.64.342.084,2.116-.426,2.747a30.386,30.386,0,0,1-.642,4.633,2.482,2.482,0,0,1-2.549,1.628,5.758,5.758,0,0,1-3.7-1.069,3.326,3.326,0,0,1-1.178-2.7,13.9,13.9,0,0,1,.514-3.481C373.639,363.932,380.13,361.71,380.13,361.71Z" transform="translate(-356.544 -247.2)" fill="#080a0f"/>
            <path id="Trazado_816223" data-name="Trazado 816223" d="M390.962,357.566c-.357.048-1.608.993-1.6,1.425s-.181,1.7-.155,2.008a9.722,9.722,0,0,0,3.2,2.092,9.086,9.086,0,0,1,.988.05,43.528,43.528,0,0,0,3.042,3.776c.771.678,4.738,2.453,6.766,2.378s2.706-1.05,2.648-1.419.692-1.858-.706-2.718S390.962,357.566,390.962,357.566Z" transform="translate(-359.255 -246.533)" fill="#080a0f"/>
            <path id="Trazado_816224" data-name="Trazado 816224" d="M379.609,356.659c-.023.307.971,4.3.971,4.3a46.3,46.3,0,0,1-.224,4.934c-.217,1-.373,3.546-.96,4.581s-2.7.8-3.713.52-2.683-1.18-2.924-2.379a11.367,11.367,0,0,1,.442-4.745c.419-1.019.94-3,.94-3s.8-2.889.884-3.133.914-2.724.914-2.724Z" transform="translate(-356.593 -246.122)" fill="#404759"/>
            <path id="Trazado_816225" data-name="Trazado 816225" d="M397.87,355.724a10.845,10.845,0,0,0,1.2,2.676s5.881,5.161,6.386,5.9a3.608,3.608,0,0,1,.195,2.22,2.417,2.417,0,0,1-2.661,1.386c-2.146-.151-6.166-2.284-6.166-2.284a30.452,30.452,0,0,0-3.394-3.816c-1.435-.285-3.626-2.267-3.75-2.9s.793-3.619.647-3.742a23.041,23.041,0,0,1,3.158-.717Z" transform="translate(-359.33 -246.03)" fill="#404759"/>
            <path id="Trazado_816226" data-name="Trazado 816226" d="M398.385,286.015a9.6,9.6,0,0,1,1.432,3.358,51.7,51.7,0,0,1,1.06,13.667,201.2,201.2,0,0,1-1.953,21.092c-.368,1.427-3.433,2-6.245,1.362s-3.57-3.515-3.787-4.682-.306-13.067-.232-15.415.624-15.771.624-15.771Z" transform="translate(-359.164 -235.013)" fill="#295ea9"/>
            <path id="Trazado_816227" data-name="Trazado 816227" d="M398.493,324.544c.163.7.935-1.472,1.107.772s-1.176,25.594-1.2,26.817-8.058,2.356-8.3-.809-1.389-16.845-1.451-19.482.279-8.024.279-8.024Z" transform="translate(-359.164 -241.099)" fill="#295ea9"/>
            <path id="Trazado_816228" data-name="Trazado 816228" d="M388.872,291.608c.1,1.55.594,10.252-.488,12.211s-2.251,1.807-2.868,4.437-1.8,18.444-3.162,20.732-9.111-.1-9.011-3.972-.274-14.948-.406-17.409a72.067,72.067,0,0,1,1.343-19.141C374.619,287.116,388.872,291.608,388.872,291.608Z" transform="translate(-356.618 -235.367)" fill="#2c6bb8"/>
            <path id="Trazado_816229" data-name="Trazado 816229" d="M383.632,329.01c-.926,7.422-2.5,24.486-2.679,25.959s-2.528,1.678-3.786,1.586c-3.085-.224-2.814-2.332-2.814-2.332s-1.406-13.6-1.486-18.376,1.272-11.326,1.311-12.041S383.632,329.01,383.632,329.01Z" transform="translate(-356.625 -241.088)" fill="#2c6bb8"/>
            <path id="Trazado_816230" data-name="Trazado 816230" d="M403.78,275.08c-.691-1.7-1.449-1.839-1.436-4.789s-.878-12.4-.521-14.123-1.886-8.095-1.216-8.038c3.9.333,5.929,4.385,6.129,5.893s3.318,14.6,3.288,15.4S403.78,275.08,403.78,275.08Z" transform="translate(-361.071 -228.913)" fill="#ff4f4f"/>
            <path id="Trazado_816231" data-name="Trazado 816231" d="M398.328,259.564c.555-1.9.131-10.429-1.106-11.174s-4.423-1.172-6.428-1.607a37.385,37.385,0,0,0-8.517-.143c-3.443.193-8.2.91-8.554,1.858s-2.115,16.814-1.625,20.466,1.4,13.672,1.609,14.875,1.193,2.742,7.544,3.834c8.306,1.429,15.5-2.734,15.926-4.093s-.1-12.582.011-14.355S398.328,259.564,398.328,259.564Z" transform="translate(-356.488 -228.648)" fill="#ff3535"/>
            <path id="Trazado_816232" data-name="Trazado 816232" d="M382.112,264.775l-.086,7.431-3.681.628-2.7-1.543-.031-7.318Z" transform="translate(-357.067 -231.464)" fill="#ff4f4f"/>
            <path id="Trazado_816233" data-name="Trazado 816233" d="M397.508,288.019c.128-9.767-.568-15.461.084-18.759-2.344-1.171-1.794-2.759-3.468-2.792a93.887,93.887,0,0,1-15.805-.328,2.193,2.193,0,0,0-2.213,1.446c-.937,2.3-.988,3.359-1.985,3.833-1.206.576-2.1-1.986-2.1-1.986s.477,17.028,1.666,18.968,8.1,3.466,13.467,3.006A28.165,28.165,0,0,0,397.508,288.019Z" transform="translate(-356.49 -231.811)" fill="#2c6bb8"/>
            <path id="Trazado_816234" data-name="Trazado 816234" d="M381.853,246.775c-.359,3.663-.309,21.436-.511,22.274s-4.1.631-4.255,0,.031-17.457.507-19.624l.476-2.168A14.231,14.231,0,0,1,381.853,246.775Z" transform="translate(-357.297 -228.695)" fill="#2c6bb8"/>
            <path id="Trazado_816235" data-name="Trazado 816235" d="M371.828,248.08s-1.3.632-1.073,4.681c.141,2.551.167,7.444-.744,8.515-.234,1.055-8.077,6.178-9.595,6.873s-6.934.548-6.608-1.76,13.27-14.917,15.005-16.494A7.018,7.018,0,0,1,371.828,248.08Z" transform="translate(-353.555 -228.905)" fill="#ff4f4f"/>
            <path id="Trazado_816236" data-name="Trazado 816236" d="M359.764,268.523c.421.206,2.347,1.332,2.347,1.332l7.392,13.479s.787,1.357-4.684,4.4c-.628.349-5.369-5.937-6.454-7.324-4.422-5.654-5.581-8.976-4.448-11.06C354.57,268.142,359.764,268.523,359.764,268.523Z" transform="translate(-353.509 -232.187)" fill="#5c92ff"/>
            <path id="Trazado_816237" data-name="Trazado 816237" d="M370.668,286.4a10.018,10.018,0,0,0,1.712,1.572,15.776,15.776,0,0,1,1.6.617s2.858,2.589,3.131,2.952-.155.8-.425.793a36.281,36.281,0,0,1-3.3-2.222l-.079.367s3.53,3.648,3.671,3.864-.118.854-.388.831a3.7,3.7,0,0,1-.55-.1.6.6,0,0,1-.324.6c-.4.253-4.084-2.832-4.084-2.832a25.46,25.46,0,0,1,2.671,2.708c.056.327-.42.726-.85.6a34.612,34.612,0,0,1-3.218-2.739,15.582,15.582,0,0,1-2.025-1.262c-.647-.548-1.975-2.4-1.774-2.952C367.118,287.322,370.668,286.4,370.668,286.4Z" transform="translate(-355.587 -235.074)" fill="#ffa399"/>
            <path id="Trazado_816238" data-name="Trazado 816238" d="M390.634,255.443c-.328.029-2.107-2.281-2.267-2.368s-.652.108-.652.108l-2.16,2.325a28.388,28.388,0,0,1-2.07-4.471c-.321-1.345.557-4.955.557-4.955s1.622,4.866,2.266,5.547,2.613.51,2.613.51,2.285-1.779,2.739-3.547.71-2.629.71-2.629a7.785,7.785,0,0,1,.754,2.806C393.1,249.964,393.681,251.337,390.634,255.443Z" transform="translate(-358.324 -228.564)" fill="#ff4f4f"/>
            <path id="Trazado_816239" data-name="Trazado 816239" d="M388.19,249.722a4.1,4.1,0,0,0,3.039-1.686,10.312,10.312,0,0,0,2.437-4.053,58.633,58.633,0,0,0,1.938-8.736,10.609,10.609,0,0,0-1.092-4.509s-11.382-3.713-12.117.419a48.117,48.117,0,0,0-.2,12.627,11.082,11.082,0,0,0,3.289,5.488C385.958,249.675,388.19,249.722,388.19,249.722Z" transform="translate(-358.076 -225.866)" fill="#ffa399"/>
            <path id="Trazado_816240" data-name="Trazado 816240" d="M385.443,235.59c2.306.569,5.855.955,7.452.532a1,1,0,0,1,.94.142l-.169,2.517.623.2-.357,2.039.534-.02,1.483-2.941a29.287,29.287,0,0,0,1.091-7.809c-.021-2.887-3.41-5.8-8.163-4.743-5.031-1.411-6.569,2.931-6.808,4.479s-.274,6.315-.274,6.315l.066,2.635.144-1.934.717-1.136.3-1.519A5.3,5.3,0,0,0,385.443,235.59Z" transform="translate(-358.063 -225.226)" fill="#1c2134"/>
            <path id="Trazado_816241" data-name="Trazado 816241" d="M397.529,240.627c.045-.091.96-1.269,1.355-1.035s.451,1.754-.363,2.869-1.344,1.778-1.774,1.467.367-2.332.367-2.332Z" transform="translate(-360.45 -227.534)" fill="#ffa399"/>
            <path id="Trazado_816242" data-name="Trazado 816242" d="M390.156,282.037c1.414.765.837.4,2.342.369s13.009-3.961,13.948-4.88c1.558-1.528,1.476-3.817,1.607-4.411s-5.672-2.77-7.2-1.857-12.81,4.276-12.611,6.063A22.975,22.975,0,0,0,390.156,282.037Z" transform="translate(-359.101 -232.601)" fill="#ff4f4f"/>
            <path id="Trazado_816243" data-name="Trazado 816243" d="M386.243,282.053l-1.566,2.238a9.392,9.392,0,0,1-.784,2.272.694.694,0,0,1-1.1-.615c.115-.62.784-3.051.784-3.051s1.8-3.072,2.01-3.363a21.808,21.808,0,0,1,2.9-2.118c.487-.246,2.9,1,2.9,1a4.158,4.158,0,0,1,.86,2.467c-.135,1.165-.145,1.436-.145,1.436a17.869,17.869,0,0,1-1.587,3.156c-.414.307-1.192-.065-1.192-.065s-.357.574-.76.609a3.444,3.444,0,0,1-1.173-.3s-.206.424-1.019.428a.763.763,0,0,1-.842-.706Z" transform="translate(-358.221 -233.623)" fill="#ffa399"/>
          </g>
          <g id="Grupo_1071524" data-name="Grupo 1071524" transform="translate(0 19.742)">
            <path id="Trazado_816244" data-name="Trazado 816244" d="M369.414,305.528c1.431,1.692,1.684,9.877,1.51,13.739s-2.806,20.3-3.479,21.834-8.231,5.119-9.521,3.52.506-23.579.532-25.416,4.312-8.973,4.312-8.973Z" transform="translate(-343.546 -257.896)" fill="#295ea9"/>
            <g id="Grupo_1071522" data-name="Grupo 1071522" transform="translate(13.611 104.039)">
              <path id="Trazado_816245" data-name="Trazado 816245" d="M359.057,375.177c-.592.451-1.938,1.585-1.956,2.44a4.288,4.288,0,0,0,.143,1.535,16.77,16.77,0,0,0,3.24,1.454c.636.224.942-.24,1.634.256s2.443,1.852,3.33,2.5a8.162,8.162,0,0,0,5.131.964c1.944-.3,2.136-.979,2.278-1.787a3.37,3.37,0,0,0-.55-2.106,6.55,6.55,0,0,0-3.8-1.519C366.194,378.58,359.057,375.177,359.057,375.177Z" transform="translate(-357.099 -373.149)" fill="#2e3442"/>
              <path id="Trazado_816246" data-name="Trazado 816246" d="M363.614,372.76a8.2,8.2,0,0,0,.875,2.087s6.324,3.1,7.236,4.215a4.336,4.336,0,0,1,.894,2.531s-.371,1.292-2.833,1.3a7.053,7.053,0,0,1-4.88-1.505,8.925,8.925,0,0,0-3.344-1.927c-2.24-.527-4.1-1.3-4.069-2.418.031-1.15.212-3.621.212-3.621Z" transform="translate(-357.162 -372.76)" fill="#40485c"/>
            </g>
            <g id="Grupo_1071523" data-name="Grupo 1071523" transform="translate(6.556 107.542)">
              <path id="Trazado_816247" data-name="Trazado 816247" d="M349.672,379.2s-.665.108-.883,1.163a2.949,2.949,0,0,0,.058,1.8,8.4,8.4,0,0,0,1.342,1.983c.431.253.545.223.545.223a23.175,23.175,0,0,0,2.532,4.138,8.959,8.959,0,0,0,5.8,2.212c2.478,0,3.042-1.59,3.051-1.821s-.124-1.219-2.342-2.735S349.672,379.2,349.672,379.2Z" transform="translate(-348.69 -377.299)" fill="#2e3442"/>
              <path id="Trazado_816248" data-name="Trazado 816248" d="M355.8,376.939a10.64,10.64,0,0,0,1.369,3.44,51.545,51.545,0,0,1,4.394,5.57,8.422,8.422,0,0,1,.081,2.2c-.028.326-1.743,2.024-4.469,1.347s-4.494-3.214-5.45-4.942-2.405-3.219-2.643-4.085a13.48,13.48,0,0,1,.265-3.506C349.344,376.92,355.8,376.939,355.8,376.939Z" transform="translate(-348.743 -376.935)" fill="#40485c"/>
            </g>
            <path id="Trazado_816249" data-name="Trazado 816249" d="M368.471,342.3c-.443,3.29-3.078,25.1-3.792,26.618s-7.023,1-7.192.028.583-10.4.521-12.757,2.3-12.826,2.3-12.826Z" transform="translate(-343.546 -263.816)" fill="#295ea9"/>
            <path id="Trazado_816250" data-name="Trazado 816250" d="M378.044,292.657c.037.067-.2.161.96.82a7.386,7.386,0,0,0,3.2.911c.562-.022,2.535-.4,2.845-.817a14.447,14.447,0,0,1,2.118-1.546s3.2-.219,3.588-.363.631-.038.42.487a1.846,1.846,0,0,1-.764.818s-.356,4.851-1.052,5.292a3.72,3.72,0,0,1-2.069.21l-1.363-.127s-7.574,2.01-9.214,2.017-2.174-3.037-2.186-3.555S378.044,292.657,378.044,292.657Z" transform="translate(-346.293 -255.654)" fill="#ffa399"/>
            <path id="Trazado_816251" data-name="Trazado 816251" d="M363.671,310.749c.029,1.337-.54,10.565-1.967,12.155a10.754,10.754,0,0,0-1.684,2.181s-1.271,17.19-3.348,21.069-7.068-2.983-7.485-4.668-3.688-15.177-3.629-20.862a40.658,40.658,0,0,1,1.99-11.713C347.807,308.32,363.671,310.749,363.671,310.749Z" transform="translate(-341.63 -258.426)" fill="#2c6bb8"/>
            <path id="Trazado_816252" data-name="Trazado 816252" d="M346.912,311.556c.659,1.773,4.922,3.784,11.671,3.3s8.689-2.446,9.518-3.3l.83-.853a24.883,24.883,0,0,0-.622-4.01c-.276-.346-20.69,1.661-20.818,2.392S346.912,311.556,346.912,311.556Z" transform="translate(-341.848 -258.078)" fill="#1d2329"/>
            <path id="Trazado_816253" data-name="Trazado 816253" d="M365.223,312.469l3.043-.994c.239-.078.433.123.433.45v1.911a.785.785,0,0,1-.433.733l-3.043.994c-.239.078-.432-.123-.432-.45V313.2A.783.783,0,0,1,365.223,312.469Z" transform="translate(-344.726 -258.851)" fill="#dadaf0"/>
            <path id="Trazado_816254" data-name="Trazado 816254" d="M353.723,252.222s-5.1-2.975-7.407,1.347,2.718,9.909.651,12.592-6.091,3.052-6.091,3.052.3,5.367,8.569,6.485S358.521,255.57,353.723,252.222Z" transform="translate(-340.876 -249.153)" fill="#443a5c"/>
            <path id="Trazado_816255" data-name="Trazado 816255" d="M354.365,250.637c-2.5.177-3.706,2.759-3.706,5.057s5.588,2.943,5.942,1.9S354.365,250.637,354.365,250.637Z" transform="translate(-342.451 -249.059)" fill="#4280ff"/>
            <path id="Trazado_816256" data-name="Trazado 816256" d="M366.759,270.315c1.708-.9,3.882.784,4.876,3.06a71.18,71.18,0,0,1,3.416,9.106c.443,1.458,1.631,6.893,2.693,8.129s-.546,6.325-2.5,6.276-4.126-7.536-5.485-8.45S366.759,270.315,366.759,270.315Z" transform="translate(-345.043 -252.187)" fill="#dadaf0"/>
            <path id="Trazado_816257" data-name="Trazado 816257" d="M366.554,270.035c2.849-.744,4.62.858,6.6,5.836s2.026,5.607,2.026,5.607.041,1.524-4.135,1.965S366.554,270.035,366.554,270.035Z" transform="translate(-345.01 -252.154)" fill="#5c92ff"/>
            <path id="Trazado_816258" data-name="Trazado 816258" d="M362.634,305.713c1.122-.218,4.423-1.3,4.912-3.225.143-.687.2-1.133.48-2.311.335-1.393.465-2.479.7-3.894.388-2.371.91-4.724,1.217-7.109a24.482,24.482,0,0,0-1.164-10.525c-1.062-2.619-2.485-6.821-4.307-8.217-.949-.727-2.5-.4-3.706-.988s-2.682.68-4.832,1.15-3.928.445-5.535,1.26a26.2,26.2,0,0,0-5.087,4.358c-.67.763.738,12.468,1.726,17.681a21.01,21.01,0,0,1,.206,5.707c-.07.812-.034,1.653-.058,2.47a3.263,3.263,0,0,0,.078,1.225,6.323,6.323,0,0,0,1.719,1.564C349.4,305.122,354.895,307.217,362.634,305.713Z" transform="translate(-341.562 -252.062)" fill="#4280ff"/>
            <path id="Trazado_816259" data-name="Trazado 816259" d="M360.724,271.413c2.4,2.026,3.241,10.669,3.039,13.776-8.272-5.909-13.009-11.158-12.966-11.987s.505-1.214,2.514-2.059S360.724,271.413,360.724,271.413Z" transform="translate(-342.473 -252.309)" fill="#fff"/>
            <path id="Trazado_816260" data-name="Trazado 816260" d="M351.986,299.238a9.479,9.479,0,0,0-.181-3.047c-.33-1.582-1.631-8.763-2.29-10.624s-1.631-4.7-3.228-5.584-1.168-1.438-1.423-1.322-.749.824-.882,3.772-.957,5.53-.249,8.689,2.183,10.987,5.366,13.291C351.755,303.9,351.986,299.238,351.986,299.238Z" transform="translate(-341.29 -253.568)" fill="#dadaf0"/>
            <path id="Trazado_816261" data-name="Trazado 816261" d="M345.174,277.392c2.608.079,4.544,3.581,5.514,9.946l.97,6.365s-7.508,2.362-8.436-.422S342.9,278.114,345.174,277.392Z" transform="translate(-341.187 -253.366)" fill="#5c92ff"/>
            <path id="Trazado_816262" data-name="Trazado 816262" d="M362.446,266.594a11.9,11.9,0,0,0-1.1,5.584c.242,1.414-1.62,2.068-3.24,1.965s-6.926-3.541-6.861-3.77,2.275-.747,2.586-2.643.69-3.551.345-4.688-1.069-4.62,2.068-5.55,5.86,1.517,5.86,1.517Z" transform="translate(-342.545 -250.129)" fill="#ffa698"/>
            <path id="Trazado_816263" data-name="Trazado 816263" d="M356.042,259.49c-.069,1.827-.086,6.292.482,7.222s5.309,3.379,6.481,3.43,1.655-.066,2.155-1.016a23.716,23.716,0,0,0,2.327-6.052,13.7,13.7,0,0,0,0-4.826c-.224-1.758-.327-2.9-1.051-3.447a11.9,11.9,0,0,0-7.033-1C356.749,254.387,356.042,259.49,356.042,259.49Z" transform="translate(-343.312 -249.54)" fill="#ffa698"/>
            <path id="Trazado_816264" data-name="Trazado 816264" d="M364.321,255.1c-1.154.362-2.31-.586-3.551.155s-1.517,2.741-2.361,3.344a3.916,3.916,0,0,0-1.775,2.068c-.224.879-.5,3.9.086,5.171a27.8,27.8,0,0,1-1.5-4.844c-.258-.655-.46-1.2-1.316-1.1s.373,2.593.44,3.27a7.914,7.914,0,0,1-.258,1.955,4.9,4.9,0,0,0-.9-2.21,8.48,8.48,0,0,1-1.638-4.947c.1-1.827-.206-5.309,2.723-7.619s5.378-1.638,7.7-.862a6.613,6.613,0,0,1,4.775,4.43c.879,2.551-.024,3.222-.024,3.222a16.835,16.835,0,0,0-.562-2.239C365.993,254.637,365.6,254.5,364.321,255.1Z" transform="translate(-342.593 -248.756)" fill="#443a5c"/>
            <path id="Trazado_816265" data-name="Trazado 816265" d="M355.288,264.152c-.017-.643-.1-2.141-1.021-2.421s-1.3.28-1.252.873a2.517,2.517,0,0,0,.956,2.191c.988.791,1.17.61,1.318.248A1.66,1.66,0,0,0,355.288,264.152Z" transform="translate(-342.83 -250.833)" fill="#ffa698"/>
            <path id="Trazado_816266" data-name="Trazado 816266" d="M356.823,346.476c.147-.232,1.623-1.608,1.28,1.284s-2.183,24.441-2.269,25.331-4.093.987-5.177.483c-2.454-1.14-2.027-2.5-2.027-2.5s-1.774-12.539-1.378-16.636,1.4-12.137,1.4-12.137Z" transform="translate(-341.894 -263.816)" fill="#2c6bb8"/>
            <path id="Trazado_816267" data-name="Trazado 816267" d="M373.785,300.951c.2-.1,1.288-.342,1.79-.6s.858-.669.625-.883-4.191.6-4.6.784a5,5,0,0,0-.927.629Z" transform="translate(-345.673 -256.914)" fill="#ffa399"/>
          </g>
          <g id="Grupo_1071532" data-name="Grupo 1071532" transform="translate(23.577 49.682)">
            <g id="Grupo_1071531" data-name="Grupo 1071531">
              <g id="Grupo_1071525" data-name="Grupo 1071525" transform="translate(0 20.405)">
                <path id="Trazado_816268" data-name="Trazado 816268" d="M368.988,308.933l.788.962c-.023-.028-.008-.085.049-.171l-.788-.961C368.979,308.848,368.965,308.906,368.988,308.933Z" transform="translate(-368.978 -308.762)" fill="#303344"/>
              </g>
              <g id="Grupo_1071526" data-name="Grupo 1071526" transform="translate(22.842)">
                <path id="Trazado_816269" data-name="Trazado 816269" d="M397.324,285.422l-.788-.961c-.034-.042-.152-.013-.333.091l.788.961C397.172,285.408,397.289,285.38,397.324,285.422Z" transform="translate(-396.203 -284.442)" fill="#303344"/>
              </g>
              <g id="Grupo_1071527" data-name="Grupo 1071527" transform="translate(0.058 9.261)">
                <path id="Trazado_816270" data-name="Trazado 816270" d="M377.194,296.441l-.789-.961-7.359,11.144.789.961Z" transform="translate(-369.047 -295.48)" fill="#303344"/>
              </g>
              <g id="Grupo_1071528" data-name="Grupo 1071528" transform="translate(8.228 0.109)">
                <path id="Trazado_816271" data-name="Trazado 816271" d="M394.186,285.533l-.788-.961-14.614,8.438.788.961Z" transform="translate(-378.785 -284.572)" fill="#303344"/>
              </g>
              <g id="Grupo_1071529" data-name="Grupo 1071529" transform="translate(7.417 8.547)">
                <path id="Trazado_816272" data-name="Trazado 816272" d="M379.417,295.59l-.788-.961a2.867,2.867,0,0,0-.811.714l.788.961A2.854,2.854,0,0,1,379.417,295.59Z" transform="translate(-377.818 -294.629)" fill="#303344"/>
              </g>
              <g id="Grupo_1071530" data-name="Grupo 1071530" transform="translate(0.788 0.963)">
                <path id="Trazado_816273" data-name="Trazado 816273" d="M378.145,294.135a2.856,2.856,0,0,0-.811.715l-7.359,11.144c-.143.217-.013.253.287.08l14.614-8.437a2.831,2.831,0,0,0,.807-.711l7.359-11.144c.145-.219.017-.256-.284-.082Z" transform="translate(-369.916 -285.589)" fill="#303344"/>
              </g>
            </g>
          </g>
          <path id="Trazado_816274" data-name="Trazado 816274" d="M391.674,293.283s-.869.1-1.027.46a1.09,1.09,0,0,0,.086.818s-.056-.122-.334.647.01.843.01.843-.353.564-.089.879l.264.316s-.445.4-.253.763a2.327,2.327,0,0,0,.834.68,4.385,4.385,0,0,0,.888-.085c.125-.072,1.081-.275,1.237-.529a1.981,1.981,0,0,0,.055-.928,1.022,1.022,0,0,0,.576-.881,6.306,6.306,0,0,0-.133-1.016,2.574,2.574,0,0,0,.222-1.034c-.079-.306.164-.769-.044-1.071a1.6,1.6,0,0,0-.69-.47Z" transform="translate(-348.821 -236.085)" fill="#ffa399"/>
          <path id="Trazado_816275" data-name="Trazado 816275" d="M368.745,300.882c.649.31,4.016-.615,4.362-.548s.293.9.182,1.04.624.435.64.857a3.091,3.091,0,0,1-.24,1.029s.342.741.15.963a5.676,5.676,0,0,1-.581.535s.127.754-.243,1a18.352,18.352,0,0,1-3.622,1.338c-.753.1-1.664-.35-3.442-.143s-14.192,2.509-15.652,1.414-2.722-2.96-2.238-3.67,3.357-2.284,4.427-2.171,5.79.495,7.86.55,5.4-.229,5.6-.646a7.907,7.907,0,0,1,1.344-1.618C367.557,300.605,368.745,300.882,368.745,300.882Z" transform="translate(-342.016 -237.318)" fill="#ffa399"/>
          <path id="Trazado_816276" data-name="Trazado 816276" d="M363.918,303.033a3.48,3.48,0,0,0,0,2.281c.441,1.148.7,1.932.915,1.9s-.373.3-.811.565-10.839,2.136-13.945,1.035-4.38-7.569-4.38-7.569,6.111.954,6.7,1.234,9.637.54,10.11.473A6.679,6.679,0,0,1,363.918,303.033Z" transform="translate(-341.652 -237.465)" fill="#dadaf0"/>
        </g>
        <path id="Trazado_816277" data-name="Trazado 816277" d="M398.2,266.55a177.836,177.836,0,0,0,.3-17.794l-.181-1.111s-2.314-.455-2.619-.516-.715,5-.68,9.325,0,10.1,0,10.1H398.2Z" transform="translate(-349.594 -228.752)" fill="#2c6bb8"/>
      </g>
      <g id="Grupo_1071550" data-name="Grupo 1071550" transform="translate(28.492 234.746)">
        <g id="Grupo_1071535" data-name="Grupo 1071535" transform="translate(0 54.317)">
          <path id="Trazado_816278" data-name="Trazado 816278" d="M33.709,337.24c-7.165,4.312-6.919,11.184.549,15.348s19.33,4.044,26.5-.268,6.919-11.184-.549-15.348S40.874,332.928,33.709,337.24Z" transform="translate(-28.492 -333.926)" fill="#c1c8e0"/>
        </g>
        <g id="Grupo_1071549" data-name="Grupo 1071549" transform="translate(0.958)">
          <g id="Grupo_1071536" data-name="Grupo 1071536" transform="translate(0 62.355)" opacity="0.69">
            <path id="Trazado_816279" data-name="Trazado 816279" d="M59.423,351.9c3.584-2.216,5.426-5,5.472-8.287-.007,2.537-1.637,5.073-4.908,7.043-6.741,4.057-17.9,4.17-24.928.252-3.616-2.016-5.432-4.708-5.425-7.4a8.8,8.8,0,0,0,3.007,6.487,17.078,17.078,0,0,0,7.407,3.959c6.491,1.827,14.458.982,19.375-2.057Z" transform="translate(-29.634 -343.506)" fill="#4561ff"/>
          </g>
          <g id="Grupo_1071537" data-name="Grupo 1071537" transform="translate(0.001 59.749)" opacity="0.69">
            <path id="Trazado_816280" data-name="Trazado 816280" d="M64.9,343.108,64.9,340.5c-.007,2.537-1.636,5.073-4.908,7.043-6.741,4.057-17.9,4.17-24.928.253-3.616-2.016-5.433-4.708-5.425-7.4l-.008,2.606c-.008,2.691,1.809,5.381,5.425,7.4,7.027,3.918,18.187,3.8,24.928-.252,3.271-1.969,4.9-4.505,4.908-7.043Z" transform="translate(-29.635 -340.4)" fill="#4561ff"/>
          </g>
          <path id="Trazado_816281" data-name="Trazado 816281" d="M29.739,297.864c0-.746,0-1.26,0-1.486.108-4.824,4.164-7.444,5.691-8.43,1.06-.638,1.06-.638.245-.144a22.321,22.321,0,0,1,9.016-2.77,26.162,26.162,0,0,1,9.648.825A17.75,17.75,0,0,1,61.86,289.9a10.357,10.357,0,0,1,2.518,3.52A8.229,8.229,0,0,1,65,296.481c0,.226-.1,34.689-.1,35.085-.007,2.537-1.637,5.073-4.908,7.043-6.741,4.057-17.9,4.17-24.928.252-3.616-2.016-5.433-4.708-5.425-7.4C29.644,331.3,29.737,298.61,29.739,297.864Z" transform="translate(-29.635 -271.716)" fill="#8f9afc" opacity="0.85"/>
          <g id="Grupo_1071538" data-name="Grupo 1071538" transform="translate(0.884 51.828)">
            <path id="Trazado_816282" data-name="Trazado 816282" d="M35.353,333.922c-6.407,3.856-6.187,10,.491,13.723s17.283,3.616,23.69-.24,6.187-10-.491-13.723S41.759,330.067,35.353,333.922Z" transform="translate(-30.688 -330.959)" fill="#4280ff"/>
          </g>
          <path id="Trazado_816283" data-name="Trazado 816283" d="M30.689,338.28V316.531l33.509.149v21.66Z" transform="translate(-29.804 -276.808)" fill="#4280ff"/>
          <g id="Grupo_1071539" data-name="Grupo 1071539" transform="translate(0.884 30.104)">
            <path id="Trazado_816284" data-name="Trazado 816284" d="M35.353,308.03c-6.407,3.855-6.187,10,.491,13.723s17.283,3.616,23.69-.24,6.187-10-.491-13.723S41.759,304.174,35.353,308.03Z" transform="translate(-30.688 -305.067)" fill="#5c92ff"/>
          </g>
          <g id="Grupo_1071540" data-name="Grupo 1071540" transform="translate(0.436 13.71)" opacity="0.56">
            <path id="Trazado_816285" data-name="Trazado 816285" d="M34.982,288.734c-6.632,4.173-6.4,10.822.508,14.852s17.893,3.914,24.526-.259,6.4-10.822-.508-14.852S41.615,284.561,34.982,288.734Z" transform="translate(-30.153 -285.527)" fill="#e2e5fc"/>
          </g>
          <g id="Grupo_1071541" data-name="Grupo 1071541" transform="translate(1.543 13.581)" opacity="0.85">
            <path id="Trazado_816286" data-name="Trazado 816286" d="M35.993,288.361c-6.209,3.888-6,10.084.476,13.838s16.751,3.646,22.96-.242,6-10.084-.476-13.838S42.2,284.473,35.993,288.361Z" transform="translate(-31.473 -285.373)" fill="#8f9afc"/>
          </g>
          <g id="Grupo_1071542" data-name="Grupo 1071542" transform="translate(5.303 16.416)">
            <path id="Trazado_816287" data-name="Trazado 816287" d="M60.846,293.21l.013-4.385c-.005,1.79-1.155,3.581-3.465,4.971-4.759,2.864-12.637,2.944-17.6.178-2.552-1.423-3.835-3.322-3.829-5.222l-.013,4.385c-.005,1.9,1.277,3.8,3.829,5.222,4.96,2.765,12.838,2.686,17.6-.178,2.31-1.389,3.46-3.18,3.465-4.971Z" transform="translate(-35.955 -288.752)" fill="#6b73bd"/>
          </g>
          <path id="Trazado_816288" data-name="Trazado 816288" d="M40.625,277.176a5.1,5.1,0,0,1,2.207-2.344,13.639,13.639,0,0,1,12.382-.125c2.654,1.48,3.356,3.692,2.067,5.553l-.644.93c1.187-1.714.54-3.751-1.9-5.115a12.561,12.561,0,0,0-11.4.116,4.7,4.7,0,0,0-2.032,2.16,2.884,2.884,0,0,0,.355,2.8l-.639-.934A3.131,3.131,0,0,1,40.625,277.176Z" transform="translate(-31.366 -269.845)" fill="#cbd8d9"/>
          <g id="Grupo_1071543" data-name="Grupo 1071543" transform="translate(9.715 4.918)">
            <path id="Trazado_816289" data-name="Trazado 816289" d="M43.459,276.474c-3.084,1.856-2.978,4.814.236,6.606a12.568,12.568,0,0,0,11.405-.115c3.084-1.856,2.978-4.814-.237-6.606A12.561,12.561,0,0,0,43.459,276.474Z" transform="translate(-41.213 -275.047)" fill="#778a96"/>
          </g>
          <g id="Grupo_1071546" data-name="Grupo 1071546" transform="translate(11.846 6.049)">
            <g id="Grupo_1071544" data-name="Grupo 1071544">
              <path id="Trazado_816290" data-name="Trazado 816290" d="M45.633,282.528a3.142,3.142,0,0,1-1.879-2.566,3,3,0,0,1,1.707-2.53h0a9.139,9.139,0,0,1,8.284-.086,3.143,3.143,0,0,1,1.879,2.566,3.008,3.008,0,0,1-1.7,2.531,8.364,8.364,0,0,1-4.213,1.035A8.553,8.553,0,0,1,45.633,282.528Zm.094-4.653h0a2.522,2.522,0,0,0-1.455,2.078,2.661,2.661,0,0,0,1.614,2.122A8.566,8.566,0,0,0,53.651,282a2.522,2.522,0,0,0,1.454-2.078,2.655,2.655,0,0,0-1.613-2.122,8.016,8.016,0,0,0-3.822-.892A7.815,7.815,0,0,0,45.727,277.875Z" transform="translate(-43.754 -276.396)" fill="#93a3b0"/>
            </g>
            <g id="Grupo_1071545" data-name="Grupo 1071545" transform="translate(2.765 1.592)">
              <path id="Trazado_816291" data-name="Trazado 816291" d="M48.079,281.681a1.73,1.73,0,0,1-1.029-1.425,1.66,1.66,0,0,1,.935-1.407,4.754,4.754,0,0,1,4.375-.046,1.729,1.729,0,0,1,1.027,1.424,1.66,1.66,0,0,1-.935,1.408,4.39,4.39,0,0,1-2.222.555A4.484,4.484,0,0,1,48.079,281.681Zm.175-2.387a1.174,1.174,0,0,0-.684.955,1.247,1.247,0,0,0,.763.98,4.25,4.25,0,0,0,3.853-.037,1.177,1.177,0,0,0,.685-.955,1.248,1.248,0,0,0-.763-.979,3.978,3.978,0,0,0-1.9-.444A3.864,3.864,0,0,0,48.253,279.294Z" transform="translate(-47.05 -278.293)" fill="#93a3b0"/>
            </g>
          </g>
          <path id="Trazado_816292" data-name="Trazado 816292" d="M36.341,272.744l.845-.482c-5.618,3.381-5.425,8.768.43,12.033,4.451,2.482,10.893,3.023,16.194,1.654a17.293,17.293,0,0,0,4.578-1.864c3.37-2.029,4.65-4.78,3.869-7.361a8.378,8.378,0,0,0-4.111-4.567l.82.473A9.04,9.04,0,0,1,63.4,277.56c.843,2.786-.538,5.755-4.176,7.945a18.639,18.639,0,0,1-4.942,2.012c-5.723,1.477-12.676.894-17.48-1.785C30.485,282.208,30.277,276.393,36.341,272.744Z" transform="translate(-30.003 -269.664)" fill="#d3dfe0"/>
          <g id="Grupo_1071547" data-name="Grupo 1071547" transform="translate(3.093)">
            <path id="Trazado_816293" data-name="Trazado 816293" d="M58.183,271.574c5.855,3.265,6.047,8.653.43,12.033s-14.917,3.475-20.773.211-6.047-8.653-.43-12.033S52.327,268.309,58.183,271.574Zm-16.49,2.6c-3.348,2.015-3.233,5.226.257,7.173a13.64,13.64,0,0,0,12.381-.125c3.348-2.015,3.233-5.226-.257-7.173a13.637,13.637,0,0,0-12.381.125Z" transform="translate(-33.32 -269.186)" fill="#e3ebed"/>
          </g>
          <g id="Grupo_1071548" data-name="Grupo 1071548" transform="translate(1.906 9.414)">
            <path id="Trazado_816294" data-name="Trazado 816294" d="M63.623,286.523l.017-6.024c-.007,2.282-1.472,4.563-4.415,6.334-6.063,3.65-16.1,3.751-22.422.227-3.253-1.814-4.886-4.234-4.88-6.654l-.017,6.024c-.007,2.42,1.627,4.84,4.88,6.654,6.32,3.524,16.359,3.422,22.422-.227,2.943-1.771,4.409-4.052,4.415-6.334Z" transform="translate(-31.906 -280.406)" fill="#cbd8d9"/>
          </g>
          <path id="Trazado_816295" data-name="Trazado 816295" d="M38.25,307.939v37.827s-4.255-1.919-5.418-3.186V303.961S33.641,305.693,38.25,307.939Z" transform="translate(-30.149 -274.785)" fill="#e2e5fc" opacity="0.25"/>
          <path id="Trazado_816296" data-name="Trazado 816296" d="M29.986,309.746c.6,2.1,2.331,4.111,5.184,5.7,7.023,3.916,18.179,3.8,24.918-.253a14.421,14.421,0,0,0,1.443-.991v19.467a14.536,14.536,0,0,1-1.462,1.005c-6.739,4.056-17.895,4.168-24.918.252-2.822-1.574-4.548-3.559-5.165-5.634V309.746Z" transform="translate(-29.691 -275.716)" fill="#fff"/>
          <path id="Trazado_816297" data-name="Trazado 816297" d="M29.986,323.672c.615,2.077,2.339,4.065,5.165,5.641,7.023,3.916,18.18,3.8,24.918-.253a14.53,14.53,0,0,0,1.462-1.005v3.673a14.526,14.526,0,0,1-1.462,1.005c-6.738,4.056-17.895,4.168-24.918.253-2.822-1.574-4.548-3.559-5.165-5.634v-3.68Z" transform="translate(-29.691 -277.958)" fill="#3246fa"/>
        </g>
      </g>
    </g>
  </g>
</svg>
