<svg xmlns="http://www.w3.org/2000/svg" width="190" height="156.615" viewBox="0 0 190 156.615">
  <g id="_11" data-name="11" transform="translate(-16.2 -11.1)">
    <circle id="Background_3_" cx="78.307" cy="78.307" r="78.307" transform="translate(32.828 11.1)" fill="#fffbe5"/>
    <g id="Fieldwork_1_" transform="translate(16.2 21.283)">
      <g id="Grupo_1071960" data-name="Grupo 1071960" transform="translate(47.307)">
        <path id="Trazado_820455" data-name="Trazado 820455" d="M112.7,98.8h27.649a6.9,6.9,0,0,1,6.9,6.9v13.212a6.9,6.9,0,0,1-6.9,6.9H112.7a6.9,6.9,0,0,1-6.9-6.9V105.7a6.9,6.9,0,0,1,6.9-6.9Z" transform="translate(-95.359 -52.46)" fill="#f6f6f6" fill-rule="evenodd"/>
        <path id="Trazado_820456" data-name="Trazado 820456" d="M121.421,123.4h15.533a8.17,8.17,0,0,1,8.121,8.121v30.1a8.17,8.17,0,0,1-8.121,8.121H121.421a8.17,8.17,0,0,1-8.121-8.121v-30.1a8.17,8.17,0,0,1,8.121-8.121Z" transform="translate(-98.025 -61.205)" fill="#15965d" fill-rule="evenodd"/>
        <path id="Trazado_820457" data-name="Trazado 820457" d="M130.814,88.3h7.412a2.517,2.517,0,0,1,2.514,2.514v4.9a2.517,2.517,0,0,1-2.514,2.514h-7.412a2.517,2.517,0,0,1-2.514-2.514v-4.9a2.559,2.559,0,0,1,2.514-2.514Z" transform="translate(-103.358 -48.727)" fill="#fbd09b" fill-rule="evenodd"/>
        <path id="Trazado_820458" data-name="Trazado 820458" d="M125.269,80.178c-7.218,0-13.535-4.576-17.015-11.408-3.609-.451-7.541-6.058-5.156-8.379a3.211,3.211,0,0,1,2.514-.516,13.61,13.61,0,0,1-.129-1.676h39.573c-.064.58-.064,1.1-.129,1.676a3.211,3.211,0,0,1,2.514.516c2.385,2.32-1.547,7.992-5.156,8.379-3.48,6.9-9.8,11.408-17.015,11.408Z" transform="translate(-94.14 -38.027)" fill="#fbd09b" fill-rule="evenodd"/>
        <path id="Trazado_820459" data-name="Trazado 820459" d="M113.194,58.2l-1.225,9.41-2.127-5.027L107.587,64l-.387-5.8Z" transform="translate(-95.857 -38.027)" fill="#7d4b30" fill-rule="evenodd"/>
        <path id="Trazado_820460" data-name="Trazado 820460" d="M159.4,58.2l1.16,9.41,2.191-5.027L165.007,64l.387-5.8Z" transform="translate(-114.414 -38.027)" fill="#7d4b30" fill-rule="evenodd"/>
        <path id="Trazado_820461" data-name="Trazado 820461" d="M133.362,38.759c8.83.967,14.759,2.836,14.759,5.027,0,3.223-13.083,5.8-29.261,5.8s-29.26-2.578-29.26-5.8c0-2.062,5.478-3.867,13.664-4.9a15.459,15.459,0,0,1,30.1-.129Z" transform="translate(-89.6 -26.9)" fill="#f5b402" fill-rule="evenodd"/>
        <path id="Trazado_820462" data-name="Trazado 820462" d="M152.418,62.931,145.393,61.9l-.193,1.353,6.961,1.031Z" transform="translate(-109.366 -39.342)" fill="#7d4b30" fill-rule="evenodd"/>
        <path id="Trazado_820463" data-name="Trazado 820463" d="M148.925,70.385a1.193,1.193,0,1,0-1.225-1.16,1.17,1.17,0,0,0,1.225,1.16Z" transform="translate(-110.254 -41.511)" fill="#4d4d4d" fill-rule="evenodd"/>
        <path id="Trazado_820464" data-name="Trazado 820464" d="M145.254,76.3a30.6,30.6,0,0,1-16.177-1.1A31.967,31.967,0,0,1,112.9,76.3c2.127,5.349,5.414,14.179,16.113,14.566,10.57-.387,14.05-9.152,16.242-14.566Z" transform="translate(-97.883 -44.07)" fill="#7d4b30" fill-rule="evenodd"/>
        <path id="Trazado_820465" data-name="Trazado 820465" d="M133.865,82.537c1.74.516,1.353.516,3.094,0,1.611-.451,2.965-.387,2.965.193.064.58-1.225,1.418-2.836,1.869-.322.064-.645.129-.9.193a4.672,4.672,0,0,1-1.547,0c-.322-.064-.58-.129-.9-.193-1.611-.451-2.836-1.289-2.836-1.869.064-.58,1.353-.645,2.965-.193Z" transform="translate(-104.282 -46.573)" fill="#fff" fill-rule="evenodd"/>
        <path id="Trazado_820466" data-name="Trazado 820466" d="M127.894,75.816,121.9,83.227,132.212,77.3l10.377,5.929-5.994-7.412-4.383-.516Z" transform="translate(-101.082 -44.106)" fill="#8a5d45" fill-rule="evenodd"/>
        <path id="Trazado_820467" data-name="Trazado 820467" d="M118.9,62.931l7.025-1.031.193,1.353-7.025,1.031Z" transform="translate(-100.016 -39.342)" fill="#7d4b30" fill-rule="evenodd"/>
        <path id="Trazado_820468" data-name="Trazado 820468" d="M124.96,70.385a1.193,1.193,0,1,0,0-2.385,1.171,1.171,0,0,0-1.16,1.225,1.117,1.117,0,0,0,1.16,1.16Z" transform="translate(-101.758 -41.511)" fill="#4d4d4d" fill-rule="evenodd"/>
        <path id="Trazado_820469" data-name="Trazado 820469" d="M153.5,97.1h3.416a1.8,1.8,0,0,1,1.8,1.8V123.46a1.844,1.844,0,0,1-1.8,1.8H153.5a1.844,1.844,0,0,1-1.8-1.8V98.9a1.8,1.8,0,0,1,1.8-1.8Z" transform="translate(-111.676 -51.856)" fill="#15965d" fill-rule="evenodd"/>
        <path id="Trazado_820470" data-name="Trazado 820470" d="M115.1,97.1h3.416a1.8,1.8,0,0,1,1.8,1.8V123.46a1.844,1.844,0,0,1-1.8,1.8H115.1a1.844,1.844,0,0,1-1.8-1.8V98.9a1.762,1.762,0,0,1,1.8-1.8Z" transform="translate(-98.025 -51.856)" fill="#15965d" fill-rule="evenodd"/>
        <path id="Trazado_820471" data-name="Trazado 820471" d="M130.659,47.709c8.121,0,14.824-.838,14.824-1.8s-6.638-1.8-14.824-1.8c-8.121,0-14.759.773-14.759,1.8-.064,1.031,6.574,1.8,14.759,1.8Z" transform="translate(-98.949 -33.015)" fill="#f19d29" fill-rule="evenodd"/>
      </g>
      <g id="Grupo_1071962" data-name="Grupo 1071962" transform="translate(11.15 84.752)">
        <path id="Trazado_820472" data-name="Trazado 820472" d="M215.5,190.5a18.225,18.225,0,0,0,.193-2.642c0-16.242-18.046-29.454-40.346-29.454S135,171.612,135,187.854a17.584,17.584,0,0,0,.193,2.642Z" transform="translate(-69.583 -158.4)" fill="#9cb325" fill-rule="evenodd"/>
        <path id="Trazado_820473" data-name="Trazado 820473" d="M258.7,223.7a18.221,18.221,0,0,0,.193-2.642c0-16.242-18.046-29.454-40.346-29.454S178.2,204.812,178.2,221.054c0,.9.064,1.8.129,2.642Z" transform="translate(-84.94 -170.202)" fill="#bcd732" fill-rule="evenodd"/>
        <g id="Grupo_1071961" data-name="Grupo 1071961" transform="translate(0 10.312)">
          <path id="Trazado_820474" data-name="Trazado 820474" d="M143.517,218.291a33.3,33.3,0,0,0,.193-3.674c0-22.235-24.685-40.217-55.105-40.217S33.5,192.446,33.5,214.617a23.474,23.474,0,0,0,.258,3.674H143.517Z" transform="translate(-33.5 -174.4)" fill="#5e7912" fill-rule="evenodd"/>
          <path id="Trazado_820475" data-name="Trazado 820475" d="M92.442,208.7a2.684,2.684,0,0,1,2.642,2.771v.322a13.673,13.673,0,0,1-5.285,0v-.322a2.684,2.684,0,0,1,2.642-2.771Z" transform="translate(-53.514 -186.593)" fill="#bcd732" fill-rule="evenodd"/>
          <path id="Trazado_820476" data-name="Trazado 820476" d="M47.442,223a2.684,2.684,0,0,1,2.642,2.771v.322a13.673,13.673,0,0,1-5.285,0v-.322A2.726,2.726,0,0,1,47.442,223Z" transform="translate(-37.517 -191.677)" fill="#bcd732" fill-rule="evenodd"/>
          <path id="Trazado_820477" data-name="Trazado 820477" d="M58.242,207.6a2.684,2.684,0,0,1,2.642,2.771v.322a11.491,11.491,0,0,1-2.642.258,11.861,11.861,0,0,1-2.642-.258v-.322a2.726,2.726,0,0,1,2.642-2.771Z" transform="translate(-41.356 -186.202)" fill="#bcd732" fill-rule="evenodd"/>
          <path id="Trazado_820478" data-name="Trazado 820478" d="M74.342,194.7a2.684,2.684,0,0,1,2.642,2.771v.322a13.672,13.672,0,0,1-5.285,0v-.322a2.684,2.684,0,0,1,2.642-2.771Z" transform="translate(-47.08 -181.617)" fill="#bcd732" fill-rule="evenodd"/>
          <path id="Trazado_820479" data-name="Trazado 820479" d="M94.242,187.4a2.684,2.684,0,0,1,2.642,2.771v.322a13.671,13.671,0,0,1-5.285,0v-.322a2.684,2.684,0,0,1,2.642-2.771Z" transform="translate(-54.154 -179.021)" fill="#bcd732" fill-rule="evenodd"/>
          <path id="Trazado_820480" data-name="Trazado 820480" d="M77.342,220.4a2.684,2.684,0,0,1,2.642,2.771v.322a13.671,13.671,0,0,1-5.285,0v-.322a2.684,2.684,0,0,1,2.642-2.771Z" transform="translate(-48.146 -190.753)" fill="#bcd732" fill-rule="evenodd"/>
        </g>
      </g>
      <g id="Grupo_1071963" data-name="Grupo 1071963" transform="translate(20.044 52.914)">
        <path id="Trazado_820481" data-name="Trazado 820481" d="M58.708,109l5.736,22.107,5.672,22.107H47.3l5.672-22.107Z" transform="translate(-47.3 -109)" fill="#1f826d" fill-rule="evenodd"/>
        <path id="Trazado_820482" data-name="Trazado 820482" d="M60.331,160.436l1.74,1.74v-6.767a.706.706,0,0,1,.645-.709H63.1a.662.662,0,0,1,.645.709v3.609l2.385-1.289a.634.634,0,0,1,.838.258h0a.569.569,0,0,1-.258.838l-2.965,1.611v5.543l2.191-2.514a.685.685,0,0,1,.9-.064h0a.6.6,0,0,1,.064.838L64.069,167.4c-.064.129-.193.129-.322.193v9.861a.646.646,0,0,1-.645.645h-.387a.646.646,0,0,1-.645-.645V163.916a.139.139,0,0,1-.129-.129l-2.449-2.449a.623.623,0,0,1,0-.9h0a.55.55,0,0,1,.838,0Z" transform="translate(-51.566 -125.246)" fill="#633" fill-rule="evenodd"/>
        <path id="Trazado_820483" data-name="Trazado 820483" d="M89.232,129.7l3.416,13.212,3.416,13.212H82.4l3.416-13.212Z" transform="translate(-59.778 -116.359)" fill="#f4d546" fill-rule="evenodd"/>
        <path id="Trazado_820484" data-name="Trazado 820484" d="M90.3,160.516l1.031,1.031v-4.06a.372.372,0,0,1,.387-.387h.258a.416.416,0,0,1,.387.387v2.191l1.418-.773a.4.4,0,0,1,.516.129h0a.348.348,0,0,1-.129.516l-1.74.967V163.8l1.353-1.482a.392.392,0,0,1,.516,0h0a.392.392,0,0,1,0,.516l-1.676,1.869c-.064.064-.129.064-.193.129v6.445a.416.416,0,0,1-.387.387H91.78a.416.416,0,0,1-.387-.387v-8.7a.063.063,0,0,1-.064-.064l-1.482-1.482a.392.392,0,0,1,0-.516h0c.064-.129.322-.129.451,0Z" transform="translate(-62.391 -126.099)" fill="#633" fill-rule="evenodd"/>
        <path id="Trazado_820485" data-name="Trazado 820485" d="M79.883,156.6l2.191,8.572,2.191,8.507H75.5l2.191-8.507Z" transform="translate(-57.325 -125.922)" fill="#8cd181" fill-rule="evenodd"/>
        <path id="Trazado_820486" data-name="Trazado 820486" d="M80.424,176.456l.645.645v-2.643a.277.277,0,0,1,.258-.258h.129a.277.277,0,0,1,.258.258v1.418l.9-.516a.283.283,0,0,1,.322.064h0a.283.283,0,0,1-.064.322l-1.16.644v2.127l.838-.967c.064-.064.258-.129.322,0h0a.293.293,0,0,1,0,.322l-1.1,1.225a.225.225,0,0,1-.129.064v4.189a.277.277,0,0,1-.258.258h-.129a.277.277,0,0,1-.258-.258v-5.607a.063.063,0,0,1-.064-.064l-.967-.967a.293.293,0,0,1,0-.322h0c.193,0,.387,0,.451.064Z" transform="translate(-58.898 -132.178)" fill="#633" fill-rule="evenodd"/>
      </g>
      <g id="Grupo_1071964" data-name="Grupo 1071964" transform="translate(96.611 38.284)">
        <path id="Trazado_820487" data-name="Trazado 820487" d="M180.7,126.2h0a1.086,1.086,0,0,1,1.1,1.1V150.82l9.861,2.32c2,.451,3.674,1.676,3.674,3.674h0a3.635,3.635,0,0,1-3.48,3.674v23.718a1.086,1.086,0,0,1-1.1,1.1h0a1.086,1.086,0,0,1-1.1-1.1V160.488h-7.8v23.718a1.086,1.086,0,0,1-1.1,1.1h0a1.086,1.086,0,0,1-1.1-1.1V160.488h-7.8v23.718a1.086,1.086,0,0,1-1.1,1.1h0a1.086,1.086,0,0,1-1.1-1.1V160.488a3.679,3.679,0,0,1-3.48-3.674h0c0-2,1.676-3.223,3.674-3.674l9.861-2.32V127.3a.918.918,0,0,1,.967-1.1Z" transform="translate(-166.136 -100.484)" fill="#e6e6e6" fill-rule="evenodd"/>
        <path id="Trazado_820488" data-name="Trazado 820488" d="M180.537,185.4a1.063,1.063,0,0,1-.967-1.1V160.588h-7.8v23.718a1.086,1.086,0,0,1-1.1,1.1h0a1.086,1.086,0,0,1-1.1-1.1V160.588a3.679,3.679,0,0,1-3.48-3.674h0c0-2,1.676-3.223,3.674-3.674l9.861-2.32V127.4a1.114,1.114,0,0,1,.967-1.1v59.1Z" transform="translate(-166.1 -100.52)" fill="#ccc" fill-rule="evenodd"/>
        <path id="Trazado_820489" data-name="Trazado 820489" d="M187.585,115.5h.322a2.311,2.311,0,0,0,2.32-2.32V88.685a2.366,2.366,0,0,0-2.32-2.385h-3.223a2.379,2.379,0,0,0-2.385,2.385v24.491a2.326,2.326,0,0,0,2.385,2.32h2.9Z" transform="translate(-171.859 -86.3)" fill="#9e6544" fill-rule="evenodd"/>
        <path id="Trazado_820490" data-name="Trazado 820490" d="M186.3,86.4h-1.611a2.379,2.379,0,0,0-2.385,2.385v24.491a2.326,2.326,0,0,0,2.385,2.32H186.3Z" transform="translate(-171.859 -86.336)" fill="#8e5b3d" fill-rule="evenodd"/>
      </g>
      <g id="Grupo_1071965" data-name="Grupo 1071965" transform="translate(27.52 16.564)">
        <path id="Trazado_820491" data-name="Trazado 820491" d="M201.576,58.207a3.138,3.138,0,0,1,.773.064,3.1,3.1,0,0,1-.838-2.062c0-2,2-3.609,4.512-3.609s4.512,1.611,4.512,3.609a2.76,2.76,0,0,1-.387,1.418,5.183,5.183,0,0,1,1.611,1.16,4.634,4.634,0,0,1,4.318-2.514c2.514,0,4.512,1.611,4.512,3.609,0,1.74-1.547,3.158-3.609,3.48-.129,1.869-2.127,3.351-4.512,3.351a4.946,4.946,0,0,1-2.191-.451,4.428,4.428,0,0,1-4.383,2.642c-2.514,0-4.512-1.611-4.512-3.545C198.934,65.3,197,63.75,197,61.752c.129-1.934,2.127-3.545,4.576-3.545Z" transform="translate(-107.994 -52.6)" fill="#fff" fill-rule="evenodd"/>
        <path id="Trazado_820492" data-name="Trazado 820492" d="M62.445,86.918a1.785,1.785,0,0,1,.58.064,2.543,2.543,0,0,1-.645-1.611c0-1.547,1.547-2.771,3.48-2.771s3.48,1.225,3.48,2.771a1.687,1.687,0,0,1-.322,1.1,2.552,2.552,0,0,1,1.225.9,3.529,3.529,0,0,1,3.351-1.934c1.934,0,3.48,1.225,3.48,2.771a3.034,3.034,0,0,1-2.836,2.707,3.263,3.263,0,0,1-3.48,2.578,4.841,4.841,0,0,1-1.676-.322,3.455,3.455,0,0,1-3.351,2.062c-1.934,0-3.48-1.225-3.48-2.771C60.382,92.4,58.9,91.172,58.9,89.69c.064-1.547,1.611-2.771,3.545-2.771Z" transform="translate(-58.9 -63.265)" fill="#fff" fill-rule="evenodd"/>
        <path id="Trazado_820493" data-name="Trazado 820493" d="M272.214,142.558h.451a1.553,1.553,0,0,1-.451-1.16,2.287,2.287,0,0,1,2.514-2,2.329,2.329,0,0,1,2.514,2,1.716,1.716,0,0,1-.193.773,2.312,2.312,0,0,1,.9.645,2.5,2.5,0,0,1,2.385-1.418,2.329,2.329,0,0,1,2.514,2,2.137,2.137,0,0,1-2,1.934,2.332,2.332,0,0,1-2.514,1.869,2.615,2.615,0,0,1-1.225-.258,2.579,2.579,0,0,1-2.449,1.482,2.287,2.287,0,0,1-2.514-2,2.31,2.31,0,0,1-2.449-2c0-.967,1.1-1.869,2.514-1.869Z" transform="translate(-133.838 -83.457)" fill="#fff" fill-rule="evenodd"/>
      </g>
      <g id="Grupo_1071966" data-name="Grupo 1071966" transform="translate(36.028 93.131)">
        <path id="Trazado_820494" data-name="Trazado 820494" d="M92.66,194.116l-3.674-.516.709,1.547.838.193c-.451,5.22-1.8,10.957-5.736,15.081-3.094,3.287-8.314,5.478-12.7,6.123H92.724V194.116Z" transform="translate(-72.1 -179.292)" fill="#de765a" fill-rule="evenodd"/>
        <rect id="Rectángulo_375770" data-name="Rectángulo 375770" width="1.031" height="4.318" transform="translate(35.061 2.836)" fill="#de765a"/>
        <path id="Trazado_820495" data-name="Trazado 820495" d="M140.875,177.2v27.778a9.414,9.414,0,0,0-18.755,1.1,7,7,0,0,0,.064,1.16h-9.216a6.384,6.384,0,0,0-6.252-4.769,6.8,6.8,0,0,0-3.416.967V192.479a5.886,5.886,0,0,1,5.865-5.865h8.507V179.2h2.191v7.412h2.514V177.2a1.844,1.844,0,0,1,1.8-1.8h14.952a1.789,1.789,0,0,1,1.74,1.8Zm0,29.969Z" transform="translate(-83.191 -172.822)" fill="#f99e3f" fill-rule="evenodd"/>
        <path id="Trazado_820496" data-name="Trazado 820496" d="M144.35,189.185V178.1h5.285a.985.985,0,0,1,.645.258h0a.827.827,0,0,1,.258.644v9.281a.984.984,0,0,1-.258.645h0a.747.747,0,0,1-.645.258H144.35ZM143.9,178.1v14.759h-.645a13.5,13.5,0,0,0-3.931.58,11.3,11.3,0,0,0-3.223,1.482V179a1.145,1.145,0,0,1,.258-.644h0A1.145,1.145,0,0,1,137,178.1Z" transform="translate(-94.852 -173.782)" fill="#f2f2f2" fill-rule="evenodd"/>
        <path id="Trazado_820497" data-name="Trazado 820497" d="M136.1,189.507v1.225l2.836-1.482.516.967.967-.516-1.547-2.9-.967.516.516.967Z" transform="translate(-94.852 -176.875)" fill="#de765a" fill-rule="evenodd"/>
        <path id="Trazado_820498" data-name="Trazado 820498" d="M117,215.366h6.9a12.529,12.529,0,0,1,24.3-3.351c.9,2.514.709,4.963.709,7.541h-3.867a8.491,8.491,0,0,0,.645-3.416,9.313,9.313,0,0,0-18.626,0,9.757,9.757,0,0,0,.645,3.416h-9.668v-.645A5.729,5.729,0,0,0,117,215.366Z" transform="translate(-88.062 -182.882)" fill="#de765a" fill-rule="evenodd"/>
        <path id="Trazado_820499" data-name="Trazado 820499" d="M110.251,195.5h14.888a.416.416,0,0,1,.387.387h0a.416.416,0,0,1-.387.387H110.251a.431.431,0,0,1-.451-.387h0a.431.431,0,0,1,.451-.387Z" transform="translate(-85.502 -179.967)" fill="#de765a" fill-rule="evenodd"/>
        <path id="Trazado_820500" data-name="Trazado 820500" d="M141.583,227.637A10.119,10.119,0,1,0,131.4,217.519a10.191,10.191,0,0,0,10.183,10.119Z" transform="translate(-93.181 -184.198)" fill="#333" fill-rule="evenodd"/>
        <path id="Trazado_820501" data-name="Trazado 820501" d="M144.356,225.312a5.156,5.156,0,1,0-5.156-5.156,5.171,5.171,0,0,0,5.156,5.156Z" transform="translate(-95.954 -186.9)" fill="#f99e3f" fill-rule="evenodd"/>
        <path id="Trazado_820502" data-name="Trazado 820502" d="M104.612,230.724a7.412,7.412,0,1,0-7.412-7.412,7.455,7.455,0,0,0,7.412,7.412Z" transform="translate(-81.023 -187.22)" fill="#333" fill-rule="evenodd"/>
        <path id="Trazado_820503" data-name="Trazado 820503" d="M107.136,228.672a2.836,2.836,0,1,0-2.836-2.836,2.861,2.861,0,0,0,2.836,2.836Z" transform="translate(-83.547 -189.744)" fill="#f99e3f" fill-rule="evenodd"/>
        <path id="Trazado_820504" data-name="Trazado 820504" d="M133.165,173.978h16.95a2.483,2.483,0,0,0,1.934-1.289h0c.387-.709.064-1.289-.58-1.289h-16.95a2.483,2.483,0,0,0-1.934,1.289h0c-.451.709-.129,1.289.58,1.289Z" transform="translate(-93.528 -171.4)" fill="#de765a" fill-rule="evenodd"/>
      </g>
      <path id="Trazado_820505" data-name="Trazado 820505" d="M19.423,238H202.977a3.191,3.191,0,0,1,3.223,3.223h0a3.191,3.191,0,0,1-3.223,3.223H19.423a3.232,3.232,0,0,1-3.223-3.223h0A3.232,3.232,0,0,1,19.423,238Z" transform="translate(-16.2 -101.945)" fill="#4d4d4d" fill-rule="evenodd"/>
      <path id="Trazado_820506" data-name="Trazado 820506" d="M238.3,108.686l-1.74,6.767a7.992,7.992,0,1,1,4.383,0l-1.74-6.767,4.963,4.963.516-.516-5.349-5.349,5.349-5.349-.516-.516-5.349,5.349-5.349-5.349-.516.516,5.349,5.349-5.349,5.349.516.516Zm-3.738,14.372-9.474,36.35h3.674l1.353-6.7h17.273l1.353,6.7h3.674l-6.832-26.167v-.387h-.129l-2.578-9.8.516-.129-1.74-6.445a7.86,7.86,0,0,0,1.1-.451l3.351,5.8,1.1-.645-3.351-5.8a9.222,9.222,0,0,0,.967-.709l4.7,4.7.9-.9-4.7-4.7a5.334,5.334,0,0,0,.709-.967l5.8,3.351.645-1.1-5.8-3.351a7.86,7.86,0,0,0,.451-1.1l6.445,1.74.322-1.225-6.445-1.74a7.1,7.1,0,0,0,.129-1.16h6.7V107.01h-6.7a7.1,7.1,0,0,0-.129-1.16l6.445-1.74-.322-1.225-6.445,1.74a5.574,5.574,0,0,0-.451-1.1l5.8-3.351-.645-1.1-5.8,3.351a9.22,9.22,0,0,0-.709-.967l4.7-4.7-.9-.9-4.7,4.769a5.334,5.334,0,0,0-.967-.709l3.351-5.8-1.1-.645-3.351,5.8a5.576,5.576,0,0,0-1.1-.451l1.74-6.445-1.16-.322-1.74,6.509a7.1,7.1,0,0,0-1.16-.129V91.8H238.1v6.7a7.1,7.1,0,0,0-1.16.129l-1.74-6.509-1.225.322,1.74,6.445a7.861,7.861,0,0,0-1.1.451l-3.351-5.8-1.1.644,3.351,5.8a9.225,9.225,0,0,0-.967.709l-4.7-4.769-.9.9,4.7,4.7a5.334,5.334,0,0,0-.709.967l-5.8-3.351-.645,1.1,5.8,3.351a5.575,5.575,0,0,0-.451,1.1l-6.445-1.74-.322,1.225,6.445,1.74a7.1,7.1,0,0,0-.129,1.16h-6.7V108.3h6.7a7.1,7.1,0,0,0,.129,1.16l-6.445,1.74.322,1.225,6.445-1.74a7.863,7.863,0,0,0,.451,1.1l-5.8,3.351.645,1.1,5.8-3.351a9.219,9.219,0,0,0,.709.967l-4.7,4.7.9.9,4.7-4.7a5.335,5.335,0,0,0,.967.709l-3.351,5.8,1.1.645,3.351-5.8a7.863,7.863,0,0,0,1.1.451l-1.74,6.445Zm4.447-14.566-.258.838-.258-.838.258-.258Zm1.225,8.379a4.256,4.256,0,0,1-.9.064v6.7H238.1v-6.7c-.322,0-.58-.064-.9-.064l-3.158,16.048h9.41Zm-.258-1.225a7.8,7.8,0,0,1-1.225.064,8.638,8.638,0,0,1-1.289-.064l1.289-6.316Zm-9.539,35.512,3.416-17.273h5.092v17.273Zm16.628,0-3.416-17.273h-4.06v17.273Z" transform="translate(-89.61 -49.972)" fill="#633" fill-rule="evenodd"/>
    </g>
  </g>
</svg>
