<svg xmlns="http://www.w3.org/2000/svg" xmlns:xlink="http://www.w3.org/1999/xlink" width="141" height="141" viewBox="0 0 141 141">
  <defs>
    <clipPath id="clip-path">
      <rect id="Rectángulo_321603" data-name="Rectángulo 321603" width="128.612" height="128.604" fill="none"/>
    </clipPath>
    <clipPath id="clip-path-2">
      <rect id="Rectángulo_321604" data-name="Rectángulo 321604" width="90.109" height="9.406" fill="none"/>
    </clipPath>
    <clipPath id="clip-path-3">
      <rect id="Rectángulo_321605" data-name="Rectángulo 321605" width="79.317" height="31.944" fill="none"/>
    </clipPath>
    <clipPath id="clip-path-4">
      <rect id="Rectángulo_321606" data-name="Rectángulo 321606" width="5.031" height="11.959" fill="none"/>
    </clipPath>
    <clipPath id="clip-path-5">
      <rect id="Rectángulo_321607" data-name="Rectángulo 321607" width="12" height="7.512" fill="none"/>
    </clipPath>
    <clipPath id="clip-path-6">
      <rect id="Rectángulo_321616" data-name="Rectángulo 321616" width="5.716" height="19.101" fill="none"/>
    </clipPath>
    <clipPath id="clip-path-7">
      <rect id="Rectángulo_321608" data-name="Rectángulo 321608" width="12.008" height="7.35" fill="none"/>
    </clipPath>
    <clipPath id="clip-path-8">
      <rect id="Rectángulo_321609" data-name="Rectángulo 321609" width="3.588" height="16.82" fill="none"/>
    </clipPath>
    <clipPath id="clip-path-9">
      <rect id="Rectángulo_321610" data-name="Rectángulo 321610" width="4.11" height="17.893" fill="none"/>
    </clipPath>
    <clipPath id="clip-path-10">
      <rect id="Rectángulo_321611" data-name="Rectángulo 321611" width="4.291" height="17.523" fill="none"/>
    </clipPath>
    <clipPath id="clip-path-11">
      <rect id="Rectángulo_321612" data-name="Rectángulo 321612" width="4.889" height="18.813" fill="none"/>
    </clipPath>
    <clipPath id="clip-path-12">
      <rect id="Rectángulo_321613" data-name="Rectángulo 321613" width="5.343" height="19.399" fill="none"/>
    </clipPath>
    <clipPath id="clip-path-13">
      <rect id="Rectángulo_321614" data-name="Rectángulo 321614" width="5.683" height="19.336" fill="none"/>
    </clipPath>
    <clipPath id="clip-path-14">
      <rect id="Rectángulo_321615" data-name="Rectángulo 321615" width="5.922" height="18.596" fill="none"/>
    </clipPath>
    <clipPath id="clip-path-15">
      <rect id="Rectángulo_321617" data-name="Rectángulo 321617" width="4.91" height="17.757" fill="none"/>
    </clipPath>
    <clipPath id="clip-path-16">
      <rect id="Rectángulo_321618" data-name="Rectángulo 321618" width="4.794" height="18.641" fill="none"/>
    </clipPath>
    <clipPath id="clip-path-17">
      <rect id="Rectángulo_321619" data-name="Rectángulo 321619" width="4.447" height="18.47" fill="none"/>
    </clipPath>
    <clipPath id="clip-path-18">
      <rect id="Rectángulo_321620" data-name="Rectángulo 321620" width="3.922" height="17.406" fill="none"/>
    </clipPath>
    <clipPath id="clip-path-19">
      <rect id="Rectángulo_321621" data-name="Rectángulo 321621" width="3.655" height="17.352" fill="none"/>
    </clipPath>
    <clipPath id="clip-path-20">
      <rect id="Rectángulo_321622" data-name="Rectángulo 321622" width="3.279" height="16.729" fill="none"/>
    </clipPath>
    <clipPath id="clip-path-21">
      <rect id="Rectángulo_321623" data-name="Rectángulo 321623" width="1.692" height="16.856" fill="none"/>
    </clipPath>
  </defs>
  <g id="Grupo_1072402" data-name="Grupo 1072402" transform="translate(-4426.976 8978)">
    <path id="Trazado_821767" data-name="Trazado 821767" d="M259.863,70.5A70.5,70.5,0,1,1,189.363,0a70.5,70.5,0,0,1,70.5,70.5" transform="translate(4308.113 -8978.001)" fill="#1b3f5e"/>
    <g id="Grupo_1072349" data-name="Grupo 1072349" transform="translate(4433.292 -8971.68)" style="isolation: isolate">
      <g id="Grupo_253623" data-name="Grupo 253623" transform="translate(0 0)">
        <g id="Grupo_253622" data-name="Grupo 253622" clip-path="url(#clip-path)">
          <path id="Trazado_271692" data-name="Trazado 271692" d="M254.479,71.311A64.305,64.305,0,1,1,190.173,7.005a64.306,64.306,0,0,1,64.306,64.306" transform="translate(-125.867 -7.01)" fill="#e5dbd7"/>
        </g>
      </g>
    </g>
    <path id="Trazado_821768" data-name="Trazado 821768" d="M233.766,79.276c3.111,0,4.388,2.115,4.388,4.712,0,2.32-1.013,4.241-3.449,4.608a4.767,4.767,0,0,1-.94.087H152.193c-3.126,0-4.153-2.1-4.153-4.7s1.027-4.712,4.153-4.712h81.573Z" transform="translate(4305.249 -8985.781)" fill="#f57a62"/>
    <g id="Grupo_1072350" data-name="Grupo 1072350" transform="translate(4453.289 -8906.502)" style="mix-blend-mode: screen;isolation: isolate">
      <g id="Grupo_253626" data-name="Grupo 253626" transform="translate(0 0)">
        <g id="Grupo_253625" data-name="Grupo 253625" clip-path="url(#clip-path-2)">
          <path id="Trazado_271694" data-name="Trazado 271694" d="M152.677,88.6c0-2.6,1.027-4.711,4.153-4.711h81.318c-.032-2.553-1.31-4.617-4.383-4.617H152.193c-3.127,0-4.154,2.113-4.154,4.711s1.027,4.7,4.154,4.7h.489c0-.028,0-.052,0-.079" transform="translate(-148.039 -79.28)" fill="#783c30"/>
        </g>
      </g>
    </g>
    <path id="Trazado_821769" data-name="Trazado 821769" d="M243.383,89.7l.381,21.647s-.851.133-2.906.309L236.309,89.7h6.12a4.764,4.764,0,0,0,.94-.088Z" transform="translate(4296.586 -8986.796)" fill="#e4a915"/>
    <path id="Trazado_821770" data-name="Trazado 821770" d="M234.034,48.886c5.738,3.376,0,26.667,0,26.667H223.541c.983-5.46,3.1-19.2-.676-18.154-3.2.866-6,2.172-9.261,2.774s-6.81-.778-10.1-.455c-3.316.337-6.516,2.393-9.818,2.422-3.332.028-6.575-1.967-9.864-2.261-3.3-.279-6.853,1.116-10.1.5-3.259-.646-6.018-2-9.173-2.979-3.715-1.16-1.645,12.666-.676,18.154H153.372s-5.842-23.452,0-26.667c19.476-10.684,64.665-9.408,80.662,0" transform="translate(4304.981 -8982.059)" fill="#e96352"/>
    <g id="Grupo_1072351" data-name="Grupo 1072351" transform="translate(4457.324 -8939.266)" style="mix-blend-mode: screen;isolation: isolate">
      <g id="Grupo_253629" data-name="Grupo 253629" transform="translate(0 0)">
        <g id="Grupo_253628" data-name="Grupo 253628" clip-path="url(#clip-path-3)">
          <path id="Trazado_271697" data-name="Trazado 271697" d="M160.9,54.19c16.638-9.127,53.363-8.9,70.926-2.065A4.025,4.025,0,0,0,230.239,50c-14.934-8.783-57.12-9.975-75.3,0-5.454,3,0,24.895,0,24.895h5.055c-1.276-6.51-3.028-18.532.912-20.7" transform="translate(-152.514 -42.951)" fill="#5e2f26"/>
        </g>
      </g>
    </g>
    <g id="Grupo_1072352" data-name="Grupo 1072352" transform="translate(4529.53 -8919.344)" style="mix-blend-mode: screen;isolation: isolate">
      <g id="Grupo_253632" data-name="Grupo 253632" transform="translate(0 0)">
        <g id="Grupo_253631" data-name="Grupo 253631" clip-path="url(#clip-path-4)">
          <path id="Trazado_271698" data-name="Trazado 271698" d="M236.231,65.089c-.94.348-1.826.775-2.712,1.188A106.821,106.821,0,0,1,232.578,77h4.549c.571-5.438.989-12.621-.9-11.912" transform="translate(-232.578 -65.04)" fill="#5e2f26"/>
        </g>
      </g>
    </g>
    <g id="Grupo_1072353" data-name="Grupo 1072353" transform="translate(4528.521 -8914.015)" style="mix-blend-mode: multiply;isolation: isolate">
      <g id="Grupo_253635" data-name="Grupo 253635" transform="translate(0 0)">
        <g id="Grupo_253634" data-name="Grupo 253634" clip-path="url(#clip-path-5)">
          <path id="Trazado_271699" data-name="Trazado 271699" d="M231.46,78.459h10.492s.8-3.255,1.508-7.508q-5.519.813-11.056,1.422c-.3,2.342-.668,4.544-.944,6.086" transform="translate(-231.459 -70.95)" fill="#ebc1bc"/>
        </g>
      </g>
    </g>
    <path id="Trazado_821771" data-name="Trazado 821771" d="M235.776,89.708l4.55,21.957c-1.952.161-5,.381-9.451.572l2.332-22.528Z" transform="translate(4297.119 -8986.805)" fill="#f5c640"/>
    <g id="Grupo_1072362" data-name="Grupo 1072362" transform="translate(4533.751 -8895.671)" style="mix-blend-mode: screen;isolation: isolate">
      <g id="Grupo_253662" data-name="Grupo 253662" transform="translate(0 0)">
        <g id="Grupo_253661" data-name="Grupo 253661" clip-path="url(#clip-path-6)">
          <path id="Trazado_271722" data-name="Trazado 271722" d="M239.053,91.294h-1.795l3.957,19.1c.781-.068,1.352-.125,1.759-.172Z" transform="translate(-237.258 -91.29)" fill="#29261d"/>
        </g>
      </g>
    </g>
    <g id="Grupo_1072354" data-name="Grupo 1072354" transform="translate(4456.853 -8913.852)" style="mix-blend-mode: multiply;isolation: isolate">
      <g id="Grupo_253638" data-name="Grupo 253638" transform="translate(0)">
        <g id="Grupo_253637" data-name="Grupo 253637" clip-path="url(#clip-path-7)">
          <path id="Trazado_271700" data-name="Trazado 271700" d="M153.491,78.476H164c-.268-1.517-.62-3.673-.91-5.971q-5.568-.586-11.1-1.379c.709,4.173,1.5,7.35,1.5,7.35" transform="translate(-151.991 -71.13)" fill="#ebc1bc"/>
        </g>
      </g>
    </g>
    <path id="Trazado_821772" data-name="Trazado 821772" d="M232.524,89.708l-2.332,22.528c-.647.029-1.337.059-2.056.088l-4.212-22.617Z" transform="translate(4297.802 -8986.805)" fill="#e4a915"/>
    <path id="Trazado_821773" data-name="Trazado 821773" d="M223.358,89.708l4.211,22.617c-2.685.1-5.812.19-9.422.264l2.8-22.881Z" transform="translate(4298.368 -8986.805)" fill="#f5c640"/>
    <path id="Trazado_821774" data-name="Trazado 821774" d="M220.307,89.708l-2.8,22.881-2.069.043-3.846-22.924Z" transform="translate(4299.012 -8986.805)" fill="#e4a915"/>
    <path id="Trazado_821775" data-name="Trazado 821775" d="M210.984,89.708l3.846,22.924c-2.834.06-5.959.088-9.395.118l3.23-23.042Z" transform="translate(4299.616 -8986.805)" fill="#f5c640"/>
    <path id="Trazado_821776" data-name="Trazado 821776" d="M208.061,89.708l-3.23,23.042h-2.069l-3.494-23.042Z" transform="translate(4300.221 -8986.805)" fill="#e4a915"/>
    <path id="Trazado_821777" data-name="Trazado 821777" d="M198.629,89.708l3.494,23.042c-1.38.015-2.8.015-4.286.015-1.761,0-3.464,0-5.093-.015l3.6-23.042Z" transform="translate(4300.862 -8986.805)" fill="#f5c640"/>
    <path id="Trazado_821778" data-name="Trazado 821778" d="M195.773,89.708l-3.6,23.042c-.705,0-1.4,0-2.07-.014l-3.141-23.028Z" transform="translate(4301.429 -8986.805)" fill="#e4a915"/>
    <path id="Trazado_821779" data-name="Trazado 821779" d="M186.287,89.708l3.14,23.028c-3.434-.015-6.546-.059-9.377-.118l3.919-22.91Z" transform="translate(4302.108 -8986.805)" fill="#f5c640"/>
    <path id="Trazado_821780" data-name="Trazado 821780" d="M183.443,89.708l-3.918,22.91c-.705-.014-1.4-.029-2.056-.044L174.7,89.708Z" transform="translate(4302.633 -8986.805)" fill="#e4a915"/>
    <path id="Trazado_821781" data-name="Trazado 821781" d="M173.976,89.708l2.773,22.866c-3.64-.073-6.736-.176-9.393-.293l4.212-22.573Z" transform="translate(4303.354 -8986.805)" fill="#f5c640"/>
    <g id="Grupo_1072355" data-name="Grupo 1072355" transform="translate(4529.21 -8894.246)" style="mix-blend-mode: screen;isolation: isolate">
      <g id="Grupo_253641" data-name="Grupo 253641" transform="translate(0 0)">
        <g id="Grupo_253640" data-name="Grupo 253640" clip-path="url(#clip-path-8)">
          <path id="Trazado_271712" data-name="Trazado 271712" d="M235.811,92.871h-1.845l-1.742,16.823c.663-.028,1.273-.059,1.855-.087Z" transform="translate(-232.223 -92.87)" fill="#544d38"/>
        </g>
      </g>
    </g>
    <g id="Grupo_1072356" data-name="Grupo 1072356" transform="translate(4517.662 -8894.606)" style="mix-blend-mode: screen;isolation: isolate">
      <g id="Grupo_253644" data-name="Grupo 253644" transform="translate(0)">
        <g id="Grupo_253643" data-name="Grupo 253643" clip-path="url(#clip-path-9)">
          <path id="Trazado_271713" data-name="Trazado 271713" d="M223.528,92.664l-.035-.189h-1.883l-2.192,17.891c.672-.014,1.318-.029,1.947-.044Z" transform="translate(-219.418 -92.47)" fill="#544d38"/>
        </g>
      </g>
    </g>
    <g id="Grupo_1072357" data-name="Grupo 1072357" transform="translate(4506.403 -8894.336)" style="mix-blend-mode: screen;isolation: isolate">
      <g id="Grupo_253647" data-name="Grupo 253647" transform="translate(0 0)">
        <g id="Grupo_253646" data-name="Grupo 253646" clip-path="url(#clip-path-10)">
          <path id="Trazado_271714" data-name="Trazado 271714" d="M211.226,93.193l-.072-.426h-1.763l-2.457,17.525q.971-.008,1.9-.018Z" transform="translate(-206.934 -92.77)" fill="#544d38"/>
        </g>
      </g>
    </g>
    <g id="Grupo_1072358" data-name="Grupo 1072358" transform="translate(4494.706 -8894.977)" style="mix-blend-mode: screen;isolation: isolate">
      <g id="Grupo_253650" data-name="Grupo 253650" transform="translate(0 0)">
        <g id="Grupo_253649" data-name="Grupo 253649" clip-path="url(#clip-path-11)">
          <path id="Trazado_271715" data-name="Trazado 271715" d="M198.853,92.616l-.085-.559H196.9l-2.936,18.807c.666.007,1.345.009,2.038.01Z" transform="translate(-193.964 -92.06)" fill="#544d38"/>
        </g>
      </g>
    </g>
    <g id="Grupo_1072359" data-name="Grupo 1072359" transform="translate(4483.136 -8895.318)" style="mix-blend-mode: screen;isolation: isolate">
      <g id="Grupo_253653" data-name="Grupo 253653" transform="translate(0 0)">
        <g id="Grupo_253652" data-name="Grupo 253652" clip-path="url(#clip-path-12)">
          <path id="Trazado_271716" data-name="Trazado 271716" d="M186.478,92.193l-.07-.516h-1.96l-3.313,19.365c.683.014,1.391.028,2.111.04Z" transform="translate(-181.135 -91.68)" fill="#544d38"/>
        </g>
      </g>
    </g>
    <g id="Grupo_1072360" data-name="Grupo 1072360" transform="translate(4471.688 -8895.427)" style="mix-blend-mode: screen;isolation: isolate">
      <g id="Grupo_253656" data-name="Grupo 253656" transform="translate(0 0)">
        <g id="Grupo_253655" data-name="Grupo 253655" clip-path="url(#clip-path-13)">
          <path id="Trazado_271717" data-name="Trazado 271717" d="M174.124,91.852l-.036-.3h-2.054l-3.594,19.255c.673.031,1.389.059,2.128.085Z" transform="translate(-168.441 -91.56)" fill="#544d38"/>
        </g>
      </g>
    </g>
    <path id="Trazado_821782" data-name="Trazado 821782" d="M171.088,89.708l-4.212,22.573c-.72-.015-1.394-.044-2.041-.073l-2.377-22.5Z" transform="translate(4303.834 -8986.805)" fill="#e4a915"/>
    <path id="Trazado_821783" data-name="Trazado 821783" d="M161.7,89.708l2.377,22.5c-4.637-.221-7.631-.455-9.363-.618l4.433-21.882Z" transform="translate(4304.594 -8986.805)" fill="#f5c640"/>
    <g id="Grupo_1072361" data-name="Grupo 1072361" transform="translate(4460.423 -8895.346)" style="mix-blend-mode: screen;isolation: isolate">
      <g id="Grupo_253659" data-name="Grupo 253659" transform="translate(0 0)">
        <g id="Grupo_253658" data-name="Grupo 253658" clip-path="url(#clip-path-14)">
          <path id="Trazado_271720" data-name="Trazado 271720" d="M161.872,92.064l-.044-.411h-2.149l-3.727,18.41c.572.052,1.316.115,2.237.184Z" transform="translate(-155.95 -91.65)" fill="#544d38"/>
        </g>
      </g>
    </g>
    <path id="Trazado_821784" data-name="Trazado 821784" d="M158.924,89.708l-4.433,21.882c-1.423-.146-2.026-.234-2.026-.234l.161-21.647Z" transform="translate(4304.815 -8986.805)" fill="#e4a915"/>
    <g id="Grupo_1072363" data-name="Grupo 1072363" transform="translate(4523.071 -8894.67)" style="mix-blend-mode: screen;isolation: isolate">
      <g id="Grupo_253665" data-name="Grupo 253665" transform="translate(0 0)">
        <g id="Grupo_253664" data-name="Grupo 253664" clip-path="url(#clip-path-15)">
          <path id="Trazado_271723" data-name="Trazado 271723" d="M227.034,92.4h-1.619l3.306,17.754c.562-.023,1.1-.047,1.6-.069Z" transform="translate(-225.416 -92.4)" fill="#29261d"/>
        </g>
      </g>
    </g>
    <g id="Grupo_1072364" data-name="Grupo 1072364" transform="translate(4511.703 -8894.957)" style="mix-blend-mode: screen;isolation: isolate">
      <g id="Grupo_253668" data-name="Grupo 253668" transform="translate(0 0)">
        <g id="Grupo_253667" data-name="Grupo 253667" clip-path="url(#clip-path-16)">
          <path id="Trazado_271724" data-name="Trazado 271724" d="M214.482,92.08h-1.673l3.128,18.646,1.668-.035Z" transform="translate(-212.81 -92.08)" fill="#29261d"/>
        </g>
      </g>
    </g>
    <g id="Grupo_1072365" data-name="Grupo 1072365" transform="translate(4500.592 -8894.813)" style="mix-blend-mode: screen;isolation: isolate">
      <g id="Grupo_253671" data-name="Grupo 253671" transform="translate(0 0)">
        <g id="Grupo_253670" data-name="Grupo 253670" clip-path="url(#clip-path-17)">
          <path id="Trazado_271725" data-name="Trazado 271725" d="M202.136,92.243H200.49l2.8,18.471h1.647Z" transform="translate(-200.49 -92.24)" fill="#29261d"/>
        </g>
      </g>
    </g>
    <g id="Grupo_1072366" data-name="Grupo 1072366" transform="translate(4489.667 -8894.281)" style="mix-blend-mode: screen;isolation: isolate">
      <g id="Grupo_253674" data-name="Grupo 253674" transform="translate(0 0)">
        <g id="Grupo_253673" data-name="Grupo 253673" clip-path="url(#clip-path-18)">
          <path id="Trazado_271726" data-name="Trazado 271726" d="M189.924,92.834h-1.548l2.372,17.392c.505.01,1.023.01,1.55.01Z" transform="translate(-188.376 -92.83)" fill="#29261d"/>
        </g>
      </g>
    </g>
    <g id="Grupo_1072367" data-name="Grupo 1072367" transform="translate(4478.501 -8894.317)" style="mix-blend-mode: screen;isolation: isolate">
      <g id="Grupo_253677" data-name="Grupo 253677" transform="translate(0)">
        <g id="Grupo_253676" data-name="Grupo 253676" clip-path="url(#clip-path-19)">
          <path id="Trazado_271727" data-name="Trazado 271727" d="M177.546,92.792H176l2.1,17.313c.5.013,1.024.023,1.556.034Z" transform="translate(-175.996 -92.79)" fill="#29261d"/>
        </g>
      </g>
    </g>
    <g id="Grupo_1072368" data-name="Grupo 1072368" transform="translate(4467.438 -8894.173)" style="mix-blend-mode: screen;isolation: isolate">
      <g id="Grupo_253680" data-name="Grupo 253680" transform="translate(0 0)">
        <g id="Grupo_253679" data-name="Grupo 253679" clip-path="url(#clip-path-20)">
          <path id="Trazado_271728" data-name="Trazado 271728" d="M165.244,92.948h-1.515l1.761,16.673c.48.022.979.044,1.512.055l.005-.032Z" transform="translate(-163.729 -92.95)" fill="#29261d"/>
        </g>
      </g>
    </g>
    <g id="Grupo_1072369" data-name="Grupo 1072369" transform="translate(4457.784 -8894.589)" style="mix-blend-mode: screen;isolation: isolate">
      <g id="Grupo_253683" data-name="Grupo 253683" transform="translate(0 0)">
        <g id="Grupo_253682" data-name="Grupo 253682" clip-path="url(#clip-path-21)">
          <path id="Trazado_271729" data-name="Trazado 271729" d="M154.591,109.325l.125-16.831h-1.567l-.125,16.676s.465.067,1.56.18Z" transform="translate(-153.024 -92.49)" fill="#29261d"/>
        </g>
      </g>
    </g>
  </g>
</svg>
