<svg xmlns="http://www.w3.org/2000/svg" width="295" height="292.249" viewBox="0 0 295 292.249">
  <g id="Grupo_1074588" data-name="Grupo 1074588" transform="translate(-943.43 -10666.638)">
    <g id="Grupo_1074579" data-name="Grupo 1074579" transform="translate(943.43 10666.639)">
      <g id="Grupo_1074562" data-name="Grupo 1074562" transform="translate(0 0)">
        <g id="Grupo_1074402" data-name="Grupo 1074402" transform="translate(0 105.069)">
          <g id="Grupo_1074399" data-name="Grupo 1074399" transform="translate(0 16.304)">
            <g id="Grupo_1074398" data-name="Grupo 1074398">
              <path id="Trazado_824045" data-name="Trazado 824045" d="M57.024,325.522c-57.8,33.366-58.089,87.472-.673,120.836,57.39,33.366,150.8,33.366,208.605-.008,57.766-33.355,58.075-87.461.681-120.816C208.2,292.164,114.815,292.164,57.024,325.522Z" transform="translate(-13.482 -300.505)" fill="#999"/>
            </g>
          </g>
          <g id="Grupo_1074401" data-name="Grupo 1074401">
            <g id="Grupo_1074400" data-name="Grupo 1074400">
              <path id="Trazado_824046" data-name="Trazado 824046" d="M57.024,319.707c-57.8,33.366-58.089,87.475-.673,120.833,57.39,33.363,150.8,33.363,208.605-.006,57.766-33.355,58.075-87.464.681-120.816C208.2,286.352,114.815,286.352,57.024,319.707Z" transform="translate(-13.482 -294.692)" fill="#ddd"/>
            </g>
          </g>
        </g>
        <g id="Grupo_1074561" data-name="Grupo 1074561" transform="translate(25.205)">
          <g id="Grupo_1074440" data-name="Grupo 1074440">
            <g id="Grupo_1074403" data-name="Grupo 1074403" transform="translate(0 24.469)">
              <path id="Trazado_824047" data-name="Trazado 824047" d="M53.426,265.953S9.9,265.642,26.07,316.063c0,0,16.522,16.626,28.6-1.195C54.674,314.871,61.588,266.842,53.426,265.953Z" transform="translate(-22.469 -265.953)" fill="#a4a28e"/>
            </g>
            <g id="Grupo_1074404" data-name="Grupo 1074404" transform="translate(9.137 32.434)">
              <path id="Trazado_824048" data-name="Trazado 824048" d="M48.8,309.745s.407-27.241-1.248-40.953c-11.218,2.045-29.754,10.385-18.126,48.029C35.145,318.959,42.558,318.947,48.8,309.745Z" transform="translate(-25.727 -268.793)" fill="#666559"/>
            </g>
            <g id="Grupo_1074405" data-name="Grupo 1074405" transform="translate(83.451 80.236)">
              <path id="Trazado_824049" data-name="Trazado 824049" d="M60.155,285.878s-6.874-.914-7.931,5.909C52.224,291.788,59.1,293.184,60.155,285.878Z" transform="translate(-52.224 -285.837)" fill="#9bb5bc"/>
            </g>
            <g id="Grupo_1074406" data-name="Grupo 1074406" transform="translate(83.883 79.436)">
              <path id="Trazado_824050" data-name="Trazado 824050" d="M52.378,288.73s2.58,5.374,2.748,6.8,3.2,3.988,4.953,4.529c1.77.547,6.633,1.484,5.752-1.085s-1.851-3.587-2.16-5.27a11.522,11.522,0,0,0-3.144-5.253c-1.007-.69-4.257-2.9-4.257-2.9Z" transform="translate(-52.378 -285.552)" fill="#efb185"/>
            </g>
            <g id="Grupo_1074407" data-name="Grupo 1074407" transform="translate(59.885 26.986)">
              <path id="Trazado_824051" data-name="Trazado 824051" d="M49.763,266.858s5.012-.839,8.557,15.661,3.556,17.546,3.556,17.546l13.442,20.075a7.23,7.23,0,0,0-7.931,5.909s-11.148-11.575-12.4-15.753S34.313,268.947,49.763,266.858Z" transform="translate(-43.821 -266.85)" fill="#f1bb00"/>
            </g>
            <g id="Grupo_1074408" data-name="Grupo 1074408" transform="translate(68.048 59.924)">
              <path id="Trazado_824052" data-name="Trazado 824052" d="M62.135,304.857a7.781,7.781,0,0,1,2.131-4C55.819,293.2,49.542,278.6,49.542,278.6l-2.81,3.45c1.523,3.5,2.718,6.12,3,7.056C50.987,293.283,62.135,304.857,62.135,304.857Z" transform="translate(-46.732 -278.595)" fill="#f18b03"/>
            </g>
            <g id="Grupo_1074409" data-name="Grupo 1074409" transform="translate(65.944 86.44)">
              <path id="Trazado_824053" data-name="Trazado 824053" d="M68.209,288.337s-35.357,37.6-16.884,48.43c0,0,36.322,11.8,37.6-4.137C88.926,332.63,82.868,283.881,68.209,288.337Z" transform="translate(-45.982 -288.049)" fill="#666559"/>
            </g>
            <g id="Grupo_1074410" data-name="Grupo 1074410" transform="translate(72.645 86.888)">
              <path id="Trazado_824054" data-name="Trazado 824054" d="M84.615,332.342s-4.919-39.581-16.62-44.133c-7.286,9.558-26.829,37.472-16.839,49.464C60.711,340.209,83.6,344.934,84.615,332.342Z" transform="translate(-48.371 -288.209)" fill="#a4a28e"/>
            </g>
            <g id="Grupo_1074411" data-name="Grupo 1074411" transform="translate(80.68 89.457)">
              <path id="Trazado_824055" data-name="Trazado 824055" d="M66.313,289.125c-8.391,12.43-21.7,34.954-11.224,41.637,4.925,3.144,15.938,3.758,23.631,2.765a8.406,8.406,0,0,0,.724-2.838S75.507,299.09,66.313,289.125Z" transform="translate(-51.236 -289.125)" fill="#c1bfb0"/>
            </g>
            <g id="Grupo_1074412" data-name="Grupo 1074412" transform="translate(86.818 79.823)">
              <path id="Trazado_824056" data-name="Trazado 824056" d="M58.639,288.209s3.472,2.892,4.148,4.667,1.293,3.455.788,3.668c-1.2.5-1.924-1.155-2.4-2.361s-2.4-1.809-3.528-2.132-5.088-2.942-4.047-5.4l1.73-.965Z" transform="translate(-53.425 -285.69)" fill="#e5a67c"/>
            </g>
            <g id="Grupo_1074413" data-name="Grupo 1074413" transform="translate(54.402 169.662)">
              <path id="Trazado_824057" data-name="Trazado 824057" d="M42.76,319.552s-2.011,4.695,0,5.9,2.28,2.546,5.505,2.283,2.754.8,3.862,2.011,12.522,6.178,14.671,3.758-3.9-5.247-6.041-6.65-7.258-7.039-7.4-8.655S42.76,319.552,42.76,319.552Z" transform="translate(-41.866 -317.723)" fill="#111114"/>
            </g>
            <g id="Grupo_1074414" data-name="Grupo 1074414" transform="translate(54.396 171.788)">
              <path id="Trazado_824058" data-name="Trazado 824058" d="M42.764,324.087c2.011,1.212,2.28,2.546,5.505,2.283s2.754.8,3.862,2.011,12.522,6.179,14.671,3.758a1.78,1.78,0,0,0-.191-2.541c-.788.137-1.9.334-3.34.592-3.357.586-7.685-3.281-9.356-4.734-1.666-1.43-3.775-.872-6.65-1.355s-2.488-4.874-2.488-4.874l-2.131-.746C42.242,319.53,41.047,323.058,42.764,324.087Z" transform="translate(-41.864 -318.481)" fill="#0a0a0a"/>
            </g>
            <g id="Grupo_1074415" data-name="Grupo 1074415" transform="translate(34.774 186.748)">
              <path id="Trazado_824059" data-name="Trazado 824059" d="M35.039,323.815s-.861,5.547,1.276,8.562,6.826,8.206,8.851,7.971,2.35-1.15,2.35-1.15a20.118,20.118,0,0,0-.634-9.022,28.866,28.866,0,0,1-1.6-6.358H35.039Z" transform="translate(-34.868 -323.815)" fill="#111114"/>
            </g>
            <g id="Grupo_1074416" data-name="Grupo 1074416" transform="translate(34.774 186.745)">
              <path id="Trazado_824060" data-name="Trazado 824060" d="M36.315,332.376c1.873,2.639,5.73,6.972,8.013,7.828-3.012-3.873,1.5-3.074-1.89-4.914-4.661-2.53-1.683-4.644-3.775-5.236-2.07-.6-.552-5.73-.552-5.73l-1.122-.51H35.039S34.178,329.364,36.315,332.376Z" transform="translate(-34.868 -323.814)" fill="#0a0a0a"/>
            </g>
            <g id="Grupo_1074417" data-name="Grupo 1074417" transform="translate(54.398 88.242)">
              <path id="Trazado_824061" data-name="Trazado 824061" d="M47.1,296.831s9.58-1.046,12.8-8.139a234.612,234.612,0,0,1-1.063,33.82c-1.944,18.168-3.551,50.115-3.551,50.115s-6.212,5.845-12.621,0c0,0-1.792-21.09,0-32.783,0,0-1.2-20.459.8-30.691S47.1,296.831,47.1,296.831Z" transform="translate(-41.865 -288.692)" fill="#1772cc"/>
            </g>
            <g id="Grupo_1074418" data-name="Grupo 1074418" transform="translate(60.265 86.439)">
              <path id="Trazado_824062" data-name="Trazado 824062" d="M51.507,373.785s1.6-31.947,3.551-50.115a260.208,260.208,0,0,0,1.063-35.621c-2.356,5.2-8.122,8.949-11.039,9.625.224,6.93.878,27.367.766,34.16-.093,6.465-1.357,33.234-1.89,44.472C48.217,376.876,51.507,373.785,51.507,373.785Z" transform="translate(-43.957 -288.049)" fill="#2180f2"/>
            </g>
            <g id="Grupo_1074419" data-name="Grupo 1074419" transform="translate(32.93 95.285)">
              <path id="Trazado_824063" data-name="Trazado 824063" d="M38.377,291.2s-.926,10.615-1.122,27.126-1.4,22.726-1.8,25.258-1.8,30.16-1,38.213c0,0,5.2,8.057,13.414,0,0,0,1.4-28.315,2.8-34.757s9.241-37.758,12.413-48.993c1.4-4.97,1.73-6.846,1.73-6.846S51,301.145,38.377,291.2Z" transform="translate(-34.21 -291.203)" fill="#1772cc"/>
            </g>
            <g id="Grupo_1074420" data-name="Grupo 1074420" transform="translate(38.951 93.338)">
              <path id="Trazado_824064" data-name="Trazado 824064" d="M44,383.052s1.4-28.315,2.8-34.757,9.241-37.758,12.413-48.993a26.3,26.3,0,0,1,4.633-8.792s-9.07,6.372-16.926,6.355c-.356,2.42-3.682,25.541-4.459,35.649-.771,10.024-7.631,45.274-5.794,54.114C38.693,386.695,41.17,385.834,44,383.052Z" transform="translate(-36.357 -290.509)" fill="#2180f2"/>
            </g>
            <g id="Grupo_1074421" data-name="Grupo 1074421" transform="translate(30.435 25.317)">
              <path id="Trazado_824065" data-name="Trazado 824065" d="M49.016,270.315s-14.132,8.506-14.418,9.656-3.89,4.14,2.454,16.626c0,0,8.259,13.465,5.592,27.69A87.23,87.23,0,0,1,39.517,336.9s7.191,9.185,24.983,1.167c3.587-1.6,9.432-7.087,11.022-11.266a95.28,95.28,0,0,1-1.259-25.937c1.3-14.121,1.31-32.328-6.787-34.177C67.476,266.689,65.3,264.406,49.016,270.315Z" transform="translate(-33.321 -266.255)" fill="#f1bb00"/>
            </g>
            <g id="Grupo_1074430" data-name="Grupo 1074430" transform="translate(40.293)">
              <g id="Grupo_1074422" data-name="Grupo 1074422" transform="translate(3.428 19.364)">
                <path id="Trazado_824066" data-name="Trazado 824066" d="M38.058,264.133s4.964,6.49,1.73,11.328c-1.8,2.706,3.3,8.464,11.252,7.413,0,0,3.494-1.122,3.035-2.389-1.024-2.88.039-4.616,1.144-6.95S38.058,264.133,38.058,264.133Z" transform="translate(-38.058 -264.133)" fill="#efb185"/>
              </g>
              <g id="Grupo_1074423" data-name="Grupo 1074423" transform="translate(4.168 19.726)">
                <path id="Trazado_824067" data-name="Trazado 824067" d="M39.312,275.228a2.223,2.223,0,0,0-.351,1.091c2.782-3.259,8.5-3.9,8.5-3.9L39.3,264.579c-.311-.126-.575-.23-.8-.317l-.179.763C39.576,267.095,41.721,271.618,39.312,275.228Z" transform="translate(-38.322 -264.262)" fill="#dd9569"/>
              </g>
              <g id="Grupo_1074424" data-name="Grupo 1074424" transform="translate(14.414 26.017)">
                <path id="Trazado_824068" data-name="Trazado 824068" d="M47.006,276.2c-1.074-4.614.039-4.616,1.144-6.95.306-.645-.855-1.643-2.7-2.749a5.665,5.665,0,0,0-1.189,1.551c-2.754,4.984-2.471,8.7-1.955,10.66a8.157,8.157,0,0,0,1.66-.121C44.908,278.377,47.345,277.628,47.006,276.2Z" transform="translate(-41.975 -266.505)" fill="#f2b78f"/>
              </g>
              <g id="Grupo_1074429" data-name="Grupo 1074429">
                <g id="Grupo_1074425" data-name="Grupo 1074425" transform="translate(0.605 0.518)">
                  <path id="Trazado_824069" data-name="Trazado 824069" d="M37.939,272.563s2.591,8.862,9.064,12.506c5.747,3.236,12.3,5.16,13.022-1.472.569-5.275,2.185-18.718-2.608-21.051-6.167-3.006-8.633-7.087-15.321-4.075C42.1,258.467,34.515,262.621,37.939,272.563Z" transform="translate(-37.051 -257.413)" fill="#efb185"/>
                </g>
                <g id="Grupo_1074426" data-name="Grupo 1074426" transform="translate(0.612 2.832)">
                  <path id="Trazado_824070" data-name="Trazado 824070" d="M37.935,271.075a20.264,20.264,0,0,0,9.056,12.632,25.164,25.164,0,0,0,5.4,2.4c-3.04-1.913-3.385-2.558-5.805-5-2.437-2.448,3.211-1.834-1.063-8.229-1.458-2.179,5.093.295,6.518.16,8.425-.811,7.455-5.6,7.477-7.651a13.942,13.942,0,0,0-.881-2.454l-.9-1.484a4.4,4.4,0,0,0-.311-.384,27.552,27.552,0,0,0-2.953-2.821c-3.609.334-13.88,1.287-14.079,1.357-.143.039-1.736,2.569-3.22,4.964A13.9,13.9,0,0,0,37.935,271.075Z" transform="translate(-37.054 -258.238)" fill="#e6a376"/>
                </g>
                <g id="Grupo_1074427" data-name="Grupo 1074427" transform="translate(0.002)">
                  <path id="Trazado_824071" data-name="Trazado 824071" d="M42.655,281.347s-7.281-5.789-5.553-14.976a10.552,10.552,0,0,1,8.736-8.851c3.817-.735,10.61-.609,14.087,6.947,1.091,2.362.833,8.82-8.857,7.023-1.391-.269-4.4-2.016-5.6-.763s-1.172,3.424-.426,5.208c.651,1.579-.766,1.851-.987,1.529s-2.367-4.81-3.966-2.886C38.661,276.312,42.47,281.052,42.655,281.347Z" transform="translate(-36.836 -257.228)" fill="#603912"/>
                </g>
                <g id="Grupo_1074428" data-name="Grupo 1074428" transform="translate(0 3.771)">
                  <path id="Trazado_824072" data-name="Trazado 824072" d="M42.656,278.92c-.185-.295-3.994-5.034-2.563-6.77,1.6-1.924,3.753,2.558,3.966,2.886s1.638.051.987-1.529c-.746-1.786-.766-3.966.426-5.208,1.085-1.133,3.666.2,5.166.648a11.951,11.951,0,0,1-5.051-4.995c-1.753-3.419-3.977-4.908-6.016-5.379a10.923,10.923,0,0,0-2.471,5.374C35.375,273.132,42.656,278.92,42.656,278.92Z" transform="translate(-36.836 -258.573)" fill="#54300f"/>
                </g>
              </g>
            </g>
            <g id="Grupo_1074431" data-name="Grupo 1074431" transform="translate(48.113 27.969)">
              <path id="Trazado_824073" data-name="Trazado 824073" d="M64.148,325.1a95.28,95.28,0,0,1-1.259-25.937c1.091-11.776,1.254-26.349-3.4-31.958-1.787,1.781-5.275,5.763-5.822,10.254-.752,6.092-7.317,9.976-10.61,11.028s-4.65,6.616-2.1,15.047c2.059,6.852,1.035,25.6-.7,36.092a33.086,33.086,0,0,0,12.873-3.259C56.715,334.758,62.56,329.275,64.148,325.1Z" transform="translate(-39.624 -267.201)" fill="#ffc524"/>
            </g>
            <g id="Grupo_1074432" data-name="Grupo 1074432" transform="translate(28.583 38.478)">
              <path id="Trazado_824074" data-name="Trazado 824074" d="M39.839,270.973s-8-1.237-7.11,13.684.892,33.941,6.223,32.516,8.3-3.823,8.616-20.788C47.829,282.323,48.012,270.8,39.839,270.973Z" transform="translate(-32.66 -270.948)" fill="#f18b03"/>
            </g>
            <g id="Grupo_1074433" data-name="Grupo 1074433" transform="translate(28.583 38.478)">
              <path id="Trazado_824075" data-name="Trazado 824075" d="M32.729,284.657c.651,10.868.833,23.861,2.936,29.6,3.436-1.666,5.7-5.89,7.241-18.844,1.3-10.96,2.39-20.339-1.127-24.2a6.921,6.921,0,0,0-1.938-.247S31.84,269.736,32.729,284.657Z" transform="translate(-32.66 -270.948)" fill="#f1bb00"/>
            </g>
            <g id="Grupo_1074434" data-name="Grupo 1074434" transform="translate(30.958 61.63)">
              <path id="Trazado_824076" data-name="Trazado 824076" d="M33.507,297.248s8.714-13.041,15.282-18.045c0,0,1.242,2.645,4.978,1.579,0,0-7.637,25.2-17.057,21.57C36.71,302.352,34.208,301.146,33.507,297.248Z" transform="translate(-33.507 -279.203)" fill="#f1bb00"/>
            </g>
            <g id="Grupo_1074435" data-name="Grupo 1074435" transform="translate(33.395 63.209)">
              <path id="Trazado_824077" data-name="Trazado 824077" d="M52.2,279.766c-.028.006-.048.006-.076.011-8.829,18.143-16.2,18.757-17.747,21.029a4.573,4.573,0,0,0,.766.53C44.565,304.968,52.2,279.766,52.2,279.766Z" transform="translate(-34.376 -279.766)" fill="#f18b03"/>
            </g>
            <g id="Grupo_1074436" data-name="Grupo 1074436" transform="translate(30.958 24.427)">
              <path id="Trazado_824078" data-name="Trazado 824078" d="M56.611,298.5s-8.846-20.827-23.1-16.418v-16.1s21.1-2.426,24.885,29.672Z" transform="translate(-33.507 -265.938)" fill="#a4a28e"/>
            </g>
            <g id="Grupo_1074437" data-name="Grupo 1074437" transform="translate(30.958 32.121)">
              <path id="Trazado_824079" data-name="Trazado 824079" d="M56.611,293.545l.712-1.127c-6.064-28.248-23.817-23.424-23.817-23.424v8.133C44.254,273.271,56.611,293.545,56.611,293.545Z" transform="translate(-33.507 -268.682)" fill="#666559"/>
            </g>
            <g id="Grupo_1074438" data-name="Grupo 1074438" transform="translate(46.174 47.814)">
              <path id="Trazado_824080" data-name="Trazado 824080" d="M39,288.093s-.614-11.754,3.116-12.817,4.168-1.419,6.3-.356,1.4,3.921,0,3.643c-2.662-.53-3.461,3.556-3.1,4.978s-1.15,5.57-1.447,6.479S38.286,290.782,39,288.093Z" transform="translate(-38.932 -274.277)" fill="#efb185"/>
            </g>
            <g id="Grupo_1074439" data-name="Grupo 1074439" transform="translate(56.106 1.906)">
              <path id="Trazado_824081" data-name="Trazado 824081" d="M43.2,270.545s7.023,1.161,9.982-3.753c3.685-6.12-2.218-1.96-7.8-8.885C45.382,257.908,40.721,269.544,43.2,270.545Z" transform="translate(-42.474 -257.908)" fill="#603912"/>
            </g>
          </g>
          <g id="Grupo_1074441" data-name="Grupo 1074441" transform="translate(118.545 76.073)">
            <path id="Trazado_824082" data-name="Trazado 824082" d="M174.845,316.247l-54.874,31.885L64.737,316.247l54.877-31.894Z" transform="translate(-64.737 -284.353)" fill="#b7663a"/>
          </g>
          <g id="Grupo_1074449" data-name="Grupo 1074449" transform="translate(170.368 83.903)">
            <path id="Trazado_824083" data-name="Trazado 824083" d="M101.3,299.46c0,5.643-4.053,10.217-9.045,10.217s-9.045-4.574-9.045-10.217,4.053-10.228,9.045-10.228S101.3,293.806,101.3,299.46Z" transform="translate(-83.215 -283.378)" fill="#37bcd2"/>
            <g id="Grupo_1074442" data-name="Grupo 1074442" transform="translate(0.012 24.178)">
              <path id="Trazado_824084" data-name="Trazado 824084" d="M98.63,297.293c3.539,2.047,3.556,5.362.034,7.407a14.065,14.065,0,0,1-12.78,0c-3.534-2.045-3.556-5.357-.039-7.407A14.146,14.146,0,0,1,98.63,297.293Z" transform="translate(-83.219 -295.766)" fill="#40daf4"/>
            </g>
            <rect id="Rectángulo_376083" data-name="Rectángulo 376083" width="18.005" height="15.041" transform="translate(0.039 15.308)" fill="#40daf4"/>
            <g id="Grupo_1074443" data-name="Grupo 1074443" transform="translate(0.01 10.841)">
              <path id="Trazado_824085" data-name="Trazado 824085" d="M98.631,292.544c3.539,2.045,3.556,5.357.039,7.4a14.111,14.111,0,0,1-12.786,0c-3.534-2.045-3.562-5.357-.039-7.4A14.093,14.093,0,0,1,98.631,292.544Z" transform="translate(-83.218 -291.01)" fill="#37bcd2"/>
            </g>
            <g id="Grupo_1074444" data-name="Grupo 1074444" transform="translate(5.317 5.156)">
              <path id="Trazado_824086" data-name="Trazado 824086" d="M91.475,289.616c1.461.85,1.467,2.213.017,3.057a5.823,5.823,0,0,1-5.281,0c-1.461-.844-1.467-2.207-.017-3.057A5.823,5.823,0,0,1,91.475,289.616Z" transform="translate(-85.111 -288.983)" fill="#40daf4"/>
            </g>
            <g id="Grupo_1074445" data-name="Grupo 1074445" transform="translate(5.262 1.993)">
              <path id="Trazado_824087" data-name="Trazado 824087" d="M91.549,288.5c1.484.861,1.489,2.252.022,3.1a5.906,5.906,0,0,1-5.362,0c-1.489-.855-1.489-2.246-.011-3.1A5.9,5.9,0,0,1,91.549,288.5Z" transform="translate(-85.091 -287.855)" fill="#40daf4"/>
            </g>
            <rect id="Rectángulo_376084" data-name="Rectángulo 376084" width="7.466" height="3.063" transform="translate(5.315 4.41)" fill="#40daf4"/>
            <g id="Grupo_1074448" data-name="Grupo 1074448" transform="translate(4.79)">
              <g id="Grupo_1074446" data-name="Grupo 1074446" transform="translate(0.001 2.042)">
                <path id="Trazado_824088" data-name="Trazado 824088" d="M92.186,288.6c1.672.965,1.683,2.53.022,3.489a6.643,6.643,0,0,1-6.03.006c-1.666-.965-1.677-2.53-.011-3.495A6.619,6.619,0,0,1,92.186,288.6Z" transform="translate(-84.923 -287.873)" fill="#ffbd4a"/>
              </g>
              <rect id="Rectángulo_376085" data-name="Rectángulo 376085" width="8.523" height="2.087" transform="translate(0 2.601)" fill="#ffbd4a"/>
              <g id="Grupo_1074447" data-name="Grupo 1074447" transform="translate(0.007)">
                <path id="Trazado_824089" data-name="Trazado 824089" d="M92.177,287.866c1.672.959,1.677,2.513.022,3.478a6.614,6.614,0,0,1-6.016,0c-1.672-.965-1.677-2.519-.017-3.478A6.619,6.619,0,0,1,92.177,287.866Z" transform="translate(-84.925 -287.145)" fill="#f9b234"/>
              </g>
            </g>
          </g>
          <g id="Grupo_1074460" data-name="Grupo 1074460" transform="translate(140.09 103.7)">
            <path id="Trazado_824090" data-name="Trazado 824090" d="M84.257,297.9c1.259,1.228.547,4.126-1.666,6.386s-4.827,3.287-6.448,1.708-2.275-5.822-.059-8.08S82.636,296.306,84.257,297.9Z" transform="translate(-68.367 -290.152)" fill="#40daf4"/>
            <g id="Grupo_1074450" data-name="Grupo 1074450" transform="translate(15.977 15.721)">
              <path id="Trazado_824091" data-name="Trazado 824091" d="M83.939,299.982c2.5-.7,4.011.766,3.38,3.264a8.962,8.962,0,0,1-5.679,5.806c-2.5.7-4.011-.766-3.38-3.27A8.959,8.959,0,0,1,83.939,299.982Z" transform="translate(-78.116 -299.809)" fill="#40daf4"/>
            </g>
            <path id="Trazado_824092" data-name="Trazado 824092" d="M92.321,305.863l-8.161,8.058-9.028-8.862,8.007-8.189Z" transform="translate(-67.524 -289.394)" fill="#40daf4"/>
            <g id="Grupo_1074451" data-name="Grupo 1074451" transform="translate(6.594 6.576)">
              <path id="Trazado_824093" data-name="Trazado 824093" d="M78.715,296.665c1.7-.471,2.718.527,2.283,2.218a6.05,6.05,0,0,1-3.84,3.926c-1.694.477-2.723-.516-2.289-2.213A6.06,6.06,0,0,1,78.715,296.665Z" transform="translate(-74.77 -296.548)" fill="#37bcd2"/>
            </g>
            <g id="Grupo_1074452" data-name="Grupo 1074452" transform="translate(4.184 4.217)">
              <path id="Trazado_824094" data-name="Trazado 824094" d="M77.848,295.827c1.7-.477,2.723.519,2.289,2.213a6.054,6.054,0,0,1-3.845,3.932c-1.686.471-2.712-.527-2.283-2.218A6.056,6.056,0,0,1,77.848,295.827Z" transform="translate(-73.911 -295.707)" fill="#37bcd2"/>
            </g>
            <rect id="Rectángulo_376086" data-name="Rectángulo 376086" width="7.777" height="3.997" transform="matrix(0.699, -0.715, 0.715, 0.699, 4.288, 9.867)" fill="#37bcd2"/>
            <g id="Grupo_1074453" data-name="Grupo 1074453" transform="translate(3.121 3.134)">
              <path id="Trazado_824095" data-name="Trazado 824095" d="M79.355,295.494c2.493-.7,4,.766,3.374,3.27a8.941,8.941,0,0,1-5.679,5.8c-2.493.7-4-.766-3.374-3.265A8.955,8.955,0,0,1,79.355,295.494Z" transform="translate(-73.532 -295.321)" fill="#40daf4"/>
            </g>
            <path id="Trazado_824096" data-name="Trazado 824096" d="M82.767,296.432c1.259,1.231.547,4.137-1.666,6.4s-4.827,3.287-6.442,1.7-2.283-5.811-.065-8.074S81.146,294.845,82.767,296.432Z" transform="translate(-71.056 -292.786)" fill="#40daf4"/>
            <g id="Grupo_1074459" data-name="Grupo 1074459">
              <g id="Grupo_1074454" data-name="Grupo 1074454" transform="translate(2.393 2.348)">
                <path id="Trazado_824097" data-name="Trazado 824097" d="M75.59,295.111c1-.28,1.6.3,1.343,1.3a3.519,3.519,0,0,1-2.258,2.311c-1,.286-1.6-.3-1.346-1.3A3.547,3.547,0,0,1,75.59,295.111Z" transform="translate(-73.272 -295.041)" fill="#37bcd2"/>
              </g>
              <g id="Grupo_1074455" data-name="Grupo 1074455" transform="translate(0.992 0.978)">
                <path id="Trazado_824098" data-name="Trazado 824098" d="M75.126,294.624c1.012-.286,1.627.306,1.363,1.321a3.606,3.606,0,0,1-2.294,2.35c-1.007.286-1.621-.306-1.363-1.327A3.622,3.622,0,0,1,75.126,294.624Z" transform="translate(-72.773 -294.552)" fill="#40daf4"/>
              </g>
              <rect id="Rectángulo_376087" data-name="Rectángulo 376087" width="4.577" height="1.882" transform="matrix(0.699, -0.715, 0.715, 0.699, 1.359, 4.608)" fill="#37bcd2"/>
              <g id="Grupo_1074458" data-name="Grupo 1074458">
                <g id="Grupo_1074456" data-name="Grupo 1074456" transform="translate(0.9 0.878)">
                  <path id="Trazado_824099" data-name="Trazado 824099" d="M75.384,294.6c1.139-.317,1.829.351,1.54,1.489a4.094,4.094,0,0,1-2.58,2.639c-1.139.317-1.823-.351-1.54-1.489A4.081,4.081,0,0,1,75.384,294.6Z" transform="translate(-72.74 -294.517)" fill="#ffbd4a"/>
                </g>
                <path id="Trazado_824100" data-name="Trazado 824100" d="M77.117,295.219l-3.654,3.73-.914-.895,3.654-3.73Z" transform="translate(-72.187 -293.987)" fill="#ffbd4a"/>
                <g id="Grupo_1074457" data-name="Grupo 1074457">
                  <path id="Trazado_824101" data-name="Trazado 824101" d="M75.063,294.283c1.139-.317,1.823.345,1.534,1.484a4.086,4.086,0,0,1-2.575,2.639c-1.139.317-1.823-.351-1.54-1.489A4.11,4.11,0,0,1,75.063,294.283Z" transform="translate(-72.419 -294.204)" fill="#f9b234"/>
                </g>
              </g>
            </g>
            <path id="Trazado_824102" data-name="Trazado 824102" d="M77.426,302.122a7.229,7.229,0,0,1-2.011.093l6.131,6,.269.258a2.639,2.639,0,0,0,2.384.269,6.677,6.677,0,0,0,2.2-1.15l.878-.74a11.058,11.058,0,0,0,1.052-1.352l-6.765-6.61A7.912,7.912,0,0,1,77.426,302.122Z" transform="translate(-67.013 -285.74)" fill="#ffbd4a"/>
          </g>
          <g id="Grupo_1074461" data-name="Grupo 1074461" transform="translate(130.717 161.877)">
            <path id="Trazado_824103" data-name="Trazado 824103" d="M154.847,339.79l-42.753,24.846L69.077,339.79l42.742-24.843Z" transform="translate(-69.077 -314.947)" fill="#b7663a"/>
          </g>
          <g id="Grupo_1074462" data-name="Grupo 1074462" transform="translate(61.261 205.353)">
            <path id="Trazado_824104" data-name="Trazado 824104" d="M130.087,355.292,87.332,380.138,44.312,355.3l42.747-24.849Z" transform="translate(-44.312 -330.449)" fill="#b7663a"/>
          </g>
          <g id="Grupo_1074463" data-name="Grupo 1074463" transform="translate(155.645 74.621)">
            <path id="Trazado_824105" data-name="Trazado 824105" d="M84.187,295.292c-5.292,8-4.207,18.23,2.426,22.863.3.213.614.409.931.6l5.062,2.914c-.317-.185-.625-.384-.931-.592-6.627-4.639-7.718-14.878-2.42-22.869,5.045-7.62,14.073-10.441,20.645-6.661l-5.062-2.92C98.26,284.845,89.233,287.672,84.187,295.292Z" transform="translate(-72.793 -278.199)" fill="#222223"/>
            <path id="Trazado_824106" data-name="Trazado 824106" d="M109.377,285.642c10.091,7.068,11.746,22.661,3.691,34.833-7.7,11.619-21.444,15.913-31.453,10.15l5.062,2.914C96.683,339.3,110.44,335,118.13,323.395c8.058-12.178,6.4-27.777-3.691-34.839-.466-.323-.942-.625-1.419-.9l-5.068-2.908C108.44,285.023,108.911,285.317,109.377,285.642Z" transform="translate(-71.381 -282.193)" fill="#222223"/>
            <path id="Trazado_824107" data-name="Trazado 824107" d="M83.071,296.534c-8.058,12.172-6.4,27.765,3.7,34.827s24.815,2.931,32.878-9.247,6.4-27.765-3.691-34.833S91.134,284.362,83.071,296.534Zm27.872-1.674c6.622,4.633,7.713,14.873,2.426,22.857S98.4,328.425,91.788,323.791c-6.633-4.633-7.718-14.867-2.426-22.863S104.313,290.218,110.943,294.859Z" transform="translate(-77.965 -283.835)" fill="#404042"/>
          </g>
          <g id="Grupo_1074470" data-name="Grupo 1074470" transform="translate(184.64 101.238)">
            <g id="Grupo_1074465" data-name="Grupo 1074465" transform="translate(0 5.118)">
              <g id="Grupo_1074464" data-name="Grupo 1074464">
                <path id="Trazado_824108" data-name="Trazado 824108" d="M106.61,295.4c-7.477,2.154-26.144,22.114-14.665,29.782,4.793,3.206,19.643,3.932,22.142-6.069C115.587,313.084,116.109,292.664,106.61,295.4Z" transform="translate(-88.304 -295.15)" fill="#212121"/>
              </g>
            </g>
            <g id="Grupo_1074467" data-name="Grupo 1074467" transform="translate(17.945)">
              <g id="Grupo_1074466" data-name="Grupo 1074466">
                <path id="Trazado_824109" data-name="Trazado 824109" d="M95.781,298.526s-1.932-3.189-.625-4.844.07,3.15,2.892.149c.328-.345-.076,2.8.586,2.185a2.164,2.164,0,0,1,2.162-.384c.777.165-1.753,2.625.909,2.356.121-.011,1.22.286,1.282.724s-1.116-.05-2.252,1.644c-.171.247-2.081,1.77-2.081,1.77Z" transform="translate(-94.702 -293.326)" fill="#2b2b2b"/>
              </g>
            </g>
            <g id="Grupo_1074469" data-name="Grupo 1074469" transform="translate(6.933 5.784)">
              <g id="Grupo_1074468" data-name="Grupo 1074468">
                <path id="Trazado_824110" data-name="Trazado 824110" d="M108.815,321.145c1.254-5.023,2.619-22.437-2.684-25.757-7.373,2.4-21.96,23.334-11.97,31.38C100.292,327.38,107.1,328.047,108.815,321.145Z" transform="translate(-90.776 -295.388)" fill="#2b2b2b"/>
              </g>
            </g>
          </g>
          <g id="Grupo_1074477" data-name="Grupo 1074477" transform="translate(156.699 97.749)">
            <g id="Grupo_1074472" data-name="Grupo 1074472" transform="translate(3.081 4.01)">
              <g id="Grupo_1074471" data-name="Grupo 1074471">
                <path id="Trazado_824111" data-name="Trazado 824111" d="M80.834,297.042c-3.8,8.352-.213,40.386,15.459,35.966,6.546-1.84,18.575-14.6,11.524-24.492C103.566,302.544,85.653,286.435,80.834,297.042Z" transform="translate(-79.44 -293.511)" fill="#212121"/>
              </g>
            </g>
            <g id="Grupo_1074474" data-name="Grupo 1074474">
              <g id="Grupo_1074473" data-name="Grupo 1074473">
                <path id="Trazado_824112" data-name="Trazado 824112" d="M83.21,298.847s-4.339-.712-4.821-3.15,2.88,2.356,2.356-2.476c-.065-.564,2.454,2.218,2.406,1.15a2.575,2.575,0,0,1,1.31-2.235c.752-.569,1.024,3.582,2.816.993.081-.115,1.195-.883,1.627-.6s-.9.965-.252,3.276c.093.339-.011,3.225-.011,3.225Z" transform="translate(-78.341 -292.082)" fill="#2b2b2b"/>
              </g>
            </g>
            <g id="Grupo_1074476" data-name="Grupo 1074476" transform="translate(7.055 4.067)">
              <g id="Grupo_1074475" data-name="Grupo 1074475">
                <path id="Trazado_824113" data-name="Trazado 824113" d="M106.842,311.086c-3.534-4.973-18.1-19.545-25.143-17.327-3.495,8.442,4.086,37.567,18.965,34.771C105.894,323.505,111.711,317.918,106.842,311.086Z" transform="translate(-80.857 -293.532)" fill="#2b2b2b"/>
              </g>
            </g>
          </g>
          <path id="Trazado_824114" data-name="Trazado 824114" d="M84.46,327.61l-.045,71.713,42.753-24.846,12.166-78.753Z" transform="translate(89.318 -187.758)" fill="#d47544"/>
          <g id="Grupo_1074485" data-name="Grupo 1074485" transform="translate(212.591 160.246)">
            <path id="Trazado_824115" data-name="Trazado 824115" d="M116.348,326.681c0,5.648-4.041,10.226-9.039,10.226s-9.039-4.58-9.039-10.226,4.053-10.228,9.039-10.228S116.348,321.033,116.348,326.681Z" transform="translate(-98.27 -310.598)" fill="#37bcd2"/>
            <g id="Grupo_1074478" data-name="Grupo 1074478" transform="translate(0.005 24.18)">
              <path id="Trazado_824116" data-name="Trazado 824116" d="M113.684,324.518c3.539,2.047,3.556,5.368.039,7.407a14.065,14.065,0,0,1-12.781,0c-3.545-2.039-3.562-5.357-.045-7.407A14.111,14.111,0,0,1,113.684,324.518Z" transform="translate(-98.272 -322.987)" fill="#40daf4"/>
            </g>
            <rect id="Rectángulo_376088" data-name="Rectángulo 376088" width="17.994" height="15.041" transform="translate(0.039 15.314)" fill="#40daf4"/>
            <g id="Grupo_1074479" data-name="Grupo 1074479" transform="translate(0.007 10.841)">
              <path id="Trazado_824117" data-name="Trazado 824117" d="M113.683,319.762c3.539,2.053,3.556,5.368.039,7.407a14.064,14.064,0,0,1-12.781,0c-3.539-2.042-3.565-5.351-.039-7.407A14.1,14.1,0,0,1,113.683,319.762Z" transform="translate(-98.272 -318.231)" fill="#37bcd2"/>
            </g>
            <g id="Grupo_1074480" data-name="Grupo 1074480" transform="translate(5.309 5.161)">
              <path id="Trazado_824118" data-name="Trazado 824118" d="M106.524,316.835c1.467.85,1.472,2.218.022,3.063a5.823,5.823,0,0,1-5.281,0c-1.467-.844-1.467-2.213-.017-3.063A5.846,5.846,0,0,1,106.524,316.835Z" transform="translate(-100.163 -316.206)" fill="#40daf4"/>
            </g>
            <g id="Grupo_1074481" data-name="Grupo 1074481" transform="translate(5.258 2)">
              <path id="Trazado_824119" data-name="Trazado 824119" d="M106.6,315.724c1.484.855,1.489,2.241.017,3.1a5.9,5.9,0,0,1-5.357,0c-1.489-.861-1.489-2.252-.022-3.1A5.889,5.889,0,0,1,106.6,315.724Z" transform="translate(-100.145 -315.079)" fill="#40daf4"/>
            </g>
            <rect id="Rectángulo_376089" data-name="Rectángulo 376089" width="7.471" height="3.068" transform="translate(5.309 4.41)" fill="#40daf4"/>
            <g id="Grupo_1074484" data-name="Grupo 1074484" transform="translate(4.779)">
              <g id="Grupo_1074482" data-name="Grupo 1074482" transform="translate(0.004 2.052)">
                <path id="Trazado_824120" data-name="Trazado 824120" d="M107.244,315.815c1.666.965,1.677,2.524.017,3.489a6.648,6.648,0,0,1-6.024.006c-1.672-.97-1.683-2.53-.022-3.495A6.7,6.7,0,0,1,107.244,315.815Z" transform="translate(-99.975 -315.097)" fill="#ffbd4a"/>
              </g>
              <rect id="Rectángulo_376090" data-name="Rectángulo 376090" width="8.529" height="2.087" transform="translate(0 2.607)" fill="#ffbd4a"/>
              <g id="Grupo_1074483" data-name="Grupo 1074483" transform="translate(0.011)">
                <path id="Trazado_824121" data-name="Trazado 824121" d="M107.233,315.093c1.666.959,1.672,2.516.017,3.478a6.614,6.614,0,0,1-6.016,0c-1.666-.959-1.677-2.519-.022-3.478A6.591,6.591,0,0,1,107.233,315.093Z" transform="translate(-99.978 -314.366)" fill="#f9b234"/>
              </g>
            </g>
          </g>
          <path id="Trazado_824122" data-name="Trazado 824122" d="M64.737,295.725l12.172,78.753,43.017,24.846.045-71.713Z" transform="translate(53.808 -187.758)" fill="#a04c34"/>
          <g id="Grupo_1074486" data-name="Grupo 1074486" transform="translate(49.095 119.55)">
            <path id="Trazado_824123" data-name="Trazado 824123" d="M150.079,331.743,95.2,363.634,39.974,331.751l54.869-31.9Z" transform="translate(-39.974 -299.855)" fill="#b7663a"/>
          </g>
          <g id="Grupo_1074494" data-name="Grupo 1074494" transform="translate(104.713 150.397)">
            <path id="Trazado_824124" data-name="Trazado 824124" d="M77.883,323.167c0,5.643-4.041,10.223-9.039,10.223S59.8,328.81,59.8,323.167s4.053-10.225,9.039-10.225S77.883,317.513,77.883,323.167Z" transform="translate(-59.805 -307.085)" fill="#37bcd2"/>
            <g id="Grupo_1074487" data-name="Grupo 1074487" transform="translate(0.005 24.178)">
              <path id="Trazado_824125" data-name="Trazado 824125" d="M75.224,321c3.539,2.047,3.556,5.368.034,7.413a14.1,14.1,0,0,1-12.78,0c-3.545-2.045-3.562-5.362-.045-7.413A14.14,14.14,0,0,1,75.224,321Z" transform="translate(-59.807 -319.475)" fill="#40daf4"/>
            </g>
            <rect id="Rectángulo_376091" data-name="Rectángulo 376091" width="17.994" height="15.041" transform="translate(0.039 15.311)" fill="#40daf4"/>
            <g id="Grupo_1074488" data-name="Grupo 1074488" transform="translate(0.005 10.841)">
              <path id="Trazado_824126" data-name="Trazado 824126" d="M75.224,316.253c3.539,2.047,3.556,5.362.034,7.407a14.1,14.1,0,0,1-12.78,0c-3.545-2.045-3.562-5.357-.045-7.407A14.105,14.105,0,0,1,75.224,316.253Z" transform="translate(-59.807 -314.719)" fill="#37bcd2"/>
            </g>
            <g id="Grupo_1074489" data-name="Grupo 1074489" transform="translate(5.311 5.156)">
              <path id="Trazado_824127" data-name="Trazado 824127" d="M68.063,313.325c1.464.844,1.467,2.213.017,3.063a5.823,5.823,0,0,1-5.281,0c-1.461-.844-1.467-2.218-.017-3.063A5.822,5.822,0,0,1,68.063,313.325Z" transform="translate(-61.699 -312.692)" fill="#40daf4"/>
            </g>
            <g id="Grupo_1074490" data-name="Grupo 1074490" transform="translate(5.259 1.994)">
              <path id="Trazado_824128" data-name="Trazado 824128" d="M68.139,312.211c1.484.855,1.489,2.246.022,3.1a5.923,5.923,0,0,1-5.362,0c-1.489-.861-1.489-2.252-.017-3.1A5.877,5.877,0,0,1,68.139,312.211Z" transform="translate(-61.68 -311.565)" fill="#40daf4"/>
            </g>
            <rect id="Rectángulo_376092" data-name="Rectángulo 376092" width="7.46" height="3.068" transform="translate(5.315 4.409)" fill="#40daf4"/>
            <g id="Grupo_1074493" data-name="Grupo 1074493" transform="translate(4.785)">
              <g id="Grupo_1074491" data-name="Grupo 1074491" transform="translate(0.001 2.042)">
                <path id="Trazado_824129" data-name="Trazado 824129" d="M68.78,312.306c1.666.965,1.677,2.524.017,3.495a6.648,6.648,0,0,1-6.024,0c-1.672-.965-1.683-2.53-.022-3.495A6.643,6.643,0,0,1,68.78,312.306Z" transform="translate(-61.511 -311.582)" fill="#ffbd4a"/>
              </g>
              <rect id="Rectángulo_376093" data-name="Rectángulo 376093" width="8.523" height="2.081" transform="translate(0 2.606)" fill="#ffbd4a"/>
              <g id="Grupo_1074492" data-name="Grupo 1074492" transform="translate(0.009)">
                <path id="Trazado_824130" data-name="Trazado 824130" d="M68.769,311.575c1.666.959,1.672,2.518.017,3.478a6.579,6.579,0,0,1-6.016,0c-1.666-.959-1.677-2.518-.017-3.478A6.631,6.631,0,0,1,68.769,311.575Z" transform="translate(-61.514 -310.854)" fill="#f9b234"/>
              </g>
            </g>
          </g>
          <g id="Grupo_1074505" data-name="Grupo 1074505" transform="translate(70.639 147.18)">
            <path id="Trazado_824131" data-name="Trazado 824131" d="M59.491,313.393c1.259,1.231.552,4.131-1.66,6.392s-4.827,3.287-6.448,1.708-2.28-5.817-.064-8.08S57.875,311.808,59.491,313.393Z" transform="translate(-43.608 -305.656)" fill="#40daf4"/>
            <g id="Grupo_1074495" data-name="Grupo 1074495" transform="translate(15.976 15.717)">
              <path id="Trazado_824132" data-name="Trazado 824132" d="M59.171,315.486c2.5-.7,4.016.768,3.38,3.265a8.933,8.933,0,0,1-5.674,5.8c-2.5.7-4.016-.76-3.38-3.265A8.927,8.927,0,0,1,59.171,315.486Z" transform="translate(-53.352 -315.311)" fill="#40daf4"/>
            </g>
            <path id="Trazado_824133" data-name="Trazado 824133" d="M67.561,321.365,59.4,329.428l-9.034-8.868,8.015-8.189Z" transform="translate(-42.765 -304.898)" fill="#40daf4"/>
            <g id="Grupo_1074496" data-name="Grupo 1074496" transform="translate(6.589 6.576)">
              <path id="Trazado_824134" data-name="Trazado 824134" d="M53.948,312.171c1.7-.477,2.723.519,2.289,2.213a6.079,6.079,0,0,1-3.845,3.932c-1.7.471-2.718-.522-2.289-2.218A6.059,6.059,0,0,1,53.948,312.171Z" transform="translate(-50.005 -312.051)" fill="#37bcd2"/>
            </g>
            <g id="Grupo_1074497" data-name="Grupo 1074497" transform="translate(4.178 4.215)">
              <path id="Trazado_824135" data-name="Trazado 824135" d="M53.085,311.329c1.7-.477,2.729.519,2.289,2.213a6.036,6.036,0,0,1-3.845,3.932c-1.691.471-2.718-.522-2.283-2.213A6.064,6.064,0,0,1,53.085,311.329Z" transform="translate(-49.145 -311.209)" fill="#37bcd2"/>
            </g>
            <rect id="Rectángulo_376094" data-name="Rectángulo 376094" width="7.777" height="3.997" transform="matrix(0.699, -0.715, 0.715, 0.699, 4.285, 9.863)" fill="#37bcd2"/>
            <g id="Grupo_1074498" data-name="Grupo 1074498" transform="translate(3.113 3.132)">
              <path id="Trazado_824136" data-name="Trazado 824136" d="M54.591,311c2.5-.7,4.011.766,3.38,3.27a8.943,8.943,0,0,1-5.676,5.8c-2.5.7-4.016-.766-3.385-3.265A8.947,8.947,0,0,1,54.591,311Z" transform="translate(-48.766 -310.823)" fill="#40daf4"/>
            </g>
            <path id="Trazado_824137" data-name="Trazado 824137" d="M58,311.934c1.259,1.237.553,4.131-1.66,6.392s-4.827,3.293-6.448,1.7-2.275-5.811-.065-8.074S56.378,310.349,58,311.934Z" transform="translate(-46.295 -308.289)" fill="#40daf4"/>
            <g id="Grupo_1074504" data-name="Grupo 1074504">
              <g id="Grupo_1074499" data-name="Grupo 1074499" transform="translate(2.388 2.342)">
                <path id="Trazado_824138" data-name="Trazado 824138" d="M50.829,310.61c1-.275,1.6.311,1.343,1.3a3.539,3.539,0,0,1-2.263,2.311c-1,.286-1.593-.3-1.346-1.3A3.572,3.572,0,0,1,50.829,310.61Z" transform="translate(-48.507 -310.542)" fill="#37bcd2"/>
              </g>
              <g id="Grupo_1074500" data-name="Grupo 1074500" transform="translate(0.993 0.975)">
                <path id="Trazado_824139" data-name="Trazado 824139" d="M50.363,310.126c1.012-.286,1.621.306,1.363,1.326a3.633,3.633,0,0,1-2.294,2.345c-1.007.286-1.621-.311-1.363-1.321A3.605,3.605,0,0,1,50.363,310.126Z" transform="translate(-48.01 -310.054)" fill="#40daf4"/>
              </g>
              <path id="Trazado_824140" data-name="Trazado 824140" d="M52.7,311.5l-3.206,3.27-1.346-1.307,3.2-3.276Z" transform="translate(-46.775 -308.845)" fill="#37bcd2"/>
              <g id="Grupo_1074503" data-name="Grupo 1074503">
                <g id="Grupo_1074501" data-name="Grupo 1074501" transform="translate(0.893 0.876)">
                  <path id="Trazado_824141" data-name="Trazado 824141" d="M50.624,310.1c1.139-.317,1.823.35,1.54,1.495a4.093,4.093,0,0,1-2.586,2.634c-1.139.317-1.823-.351-1.54-1.489A4.1,4.1,0,0,1,50.624,310.1Z" transform="translate(-47.974 -310.019)" fill="#ffbd4a"/>
                </g>
                <rect id="Rectángulo_376095" data-name="Rectángulo 376095" width="5.225" height="1.279" transform="translate(0.402 4.086) rotate(-45.64)" fill="#ffbd4a"/>
                <g id="Grupo_1074502" data-name="Grupo 1074502">
                  <path id="Trazado_824142" data-name="Trazado 824142" d="M50.3,309.783c1.133-.311,1.82.351,1.534,1.484a4.069,4.069,0,0,1-2.58,2.639c-1.133.317-1.82-.351-1.534-1.484A4.081,4.081,0,0,1,50.3,309.783Z" transform="translate(-47.656 -309.707)" fill="#f9b234"/>
                </g>
              </g>
            </g>
            <path id="Trazado_824143" data-name="Trazado 824143" d="M52.656,317.628a7.1,7.1,0,0,1-2.005.087l6.128,6,.269.264a2.639,2.639,0,0,0,2.384.269,6.7,6.7,0,0,0,2.19-1.15l.878-.74a11.253,11.253,0,0,0,1.057-1.352l-6.765-6.616A7.831,7.831,0,0,1,52.656,317.628Z" transform="translate(-42.251 -301.248)" fill="#ffbd4a"/>
          </g>
          <g id="Grupo_1074516" data-name="Grupo 1074516" transform="translate(89.989 131.935)">
            <path id="Trazado_824144" data-name="Trazado 824144" d="M58.318,307.957c-1.259,1.234-.547,4.131,1.66,6.392s4.827,3.287,6.448,1.7,2.28-5.811.059-8.08S59.939,306.375,58.318,307.957Z" transform="translate(-48.883 -300.221)" fill="#40daf4"/>
            <g id="Grupo_1074506" data-name="Grupo 1074506" transform="translate(0 15.715)">
              <path id="Trazado_824145" data-name="Trazado 824145" d="M58.08,310.045c-2.5-.69-4.016.771-3.38,3.27a8.943,8.943,0,0,0,5.676,5.8c2.5.7,4.016-.76,3.38-3.27A8.986,8.986,0,0,0,58.08,310.045Z" transform="translate(-54.555 -309.874)" fill="#40daf4"/>
            </g>
            <path id="Trazado_824146" data-name="Trazado 824146" d="M54.743,315.926,62.9,324l9.039-8.876-8.018-8.184Z" transform="translate(-54.216 -299.463)" fill="#40daf4"/>
            <g id="Grupo_1074507" data-name="Grupo 1074507" transform="translate(12.399 6.577)">
              <path id="Trazado_824147" data-name="Trazado 824147" d="M61.362,306.734c-1.694-.471-2.718.516-2.289,2.207a6.067,6.067,0,0,0,3.845,3.932c1.7.471,2.718-.516,2.289-2.213A6.04,6.04,0,0,0,61.362,306.734Z" transform="translate(-58.976 -306.616)" fill="#37bcd2"/>
            </g>
            <g id="Grupo_1074508" data-name="Grupo 1074508" transform="translate(14.811 4.214)">
              <path id="Trazado_824148" data-name="Trazado 824148" d="M62.222,305.893c-1.694-.477-2.718.516-2.289,2.213a6.06,6.06,0,0,0,3.851,3.926c1.694.477,2.718-.516,2.283-2.213A6.076,6.076,0,0,0,62.222,305.893Z" transform="translate(-59.836 -305.773)" fill="#37bcd2"/>
            </g>
            <rect id="Rectángulo_376096" data-name="Rectángulo 376096" width="3.994" height="7.774" transform="translate(12.751 7.134) rotate(-44.4)" fill="#37bcd2"/>
            <g id="Grupo_1074509" data-name="Grupo 1074509" transform="translate(12.86 3.131)">
              <path id="Trazado_824149" data-name="Trazado 824149" d="M62.662,305.56c-2.5-.7-4.016.766-3.374,3.27a8.939,8.939,0,0,0,5.674,5.8c2.5.7,4.011-.766,3.38-3.27A8.959,8.959,0,0,0,62.662,305.56Z" transform="translate(-59.14 -305.387)" fill="#40daf4"/>
            </g>
            <path id="Trazado_824150" data-name="Trazado 824150" d="M59.809,306.5c-1.259,1.231-.552,4.131,1.66,6.392s4.827,3.293,6.448,1.7,2.28-5.817.065-8.074S61.43,304.915,59.809,306.5Z" transform="translate(-46.195 -302.853)" fill="#40daf4"/>
            <g id="Grupo_1074515" data-name="Grupo 1074515" transform="translate(19.208)">
              <g id="Grupo_1074510" data-name="Grupo 1074510" transform="translate(0 2.342)">
                <path id="Trazado_824151" data-name="Trazado 824151" d="M62.8,305.176c-.993-.281-1.593.306-1.343,1.3a3.559,3.559,0,0,0,2.263,2.317c1,.28,1.6-.311,1.346-1.31A3.561,3.561,0,0,0,62.8,305.176Z" transform="translate(-61.404 -305.106)" fill="#37bcd2"/>
              </g>
              <g id="Grupo_1074511" data-name="Grupo 1074511" transform="translate(1.34 0.974)">
                <path id="Trazado_824152" data-name="Trazado 824152" d="M63.307,304.688c-1.007-.281-1.621.311-1.369,1.327a3.663,3.663,0,0,0,2.3,2.35c1.012.28,1.621-.311,1.369-1.327A3.613,3.613,0,0,0,63.307,304.688Z" transform="translate(-61.882 -304.618)" fill="#40daf4"/>
              </g>
              <path id="Trazado_824153" data-name="Trazado 824153" d="M61.472,306.067l3.2,3.27,1.349-1.315-3.211-3.276Z" transform="translate(-61.281 -303.414)" fill="#37bcd2"/>
              <g id="Grupo_1074514" data-name="Grupo 1074514" transform="translate(0.963)">
                <g id="Grupo_1074512" data-name="Grupo 1074512" transform="translate(0 0.876)">
                  <path id="Trazado_824154" data-name="Trazado 824154" d="M63.351,304.666c-1.139-.328-1.823.345-1.54,1.484a4.1,4.1,0,0,0,2.586,2.639c1.139.311,1.823-.351,1.54-1.489A4.057,4.057,0,0,0,63.351,304.666Z" transform="translate(-61.747 -304.583)" fill="#ffbd4a"/>
                </g>
                <rect id="Rectángulo_376097" data-name="Rectángulo 376097" width="1.279" height="5.222" transform="translate(0.181 1.239) rotate(-44.445)" fill="#ffbd4a"/>
                <g id="Grupo_1074513" data-name="Grupo 1074513" transform="translate(0.906)">
                  <path id="Trazado_824155" data-name="Trazado 824155" d="M63.668,304.35c-1.133-.317-1.817.351-1.534,1.484a4.1,4.1,0,0,0,2.575,2.636c1.139.317,1.829-.345,1.54-1.484A4.059,4.059,0,0,0,63.668,304.35Z" transform="translate(-62.07 -304.271)" fill="#f9b234"/>
                </g>
              </g>
            </g>
            <path id="Trazado_824156" data-name="Trazado 824156" d="M66.886,312.186a7.044,7.044,0,0,0,2.016.093l-6.136,6-.269.269a2.643,2.643,0,0,1-2.378.269,6.674,6.674,0,0,1-2.2-1.15l-.878-.746a11.7,11.7,0,0,1-1.063-1.346l6.77-6.616A7.857,7.857,0,0,0,66.886,312.186Z" transform="translate(-51.98 -295.813)" fill="#ffbd4a"/>
          </g>
          <g id="Grupo_1074523" data-name="Grupo 1074523" transform="translate(121.57 138.029)">
            <g id="Grupo_1074518" data-name="Grupo 1074518" transform="translate(0 5.115)">
              <g id="Grupo_1074517" data-name="Grupo 1074517">
                <path id="Trazado_824157" data-name="Trazado 824157" d="M74.135,308.518c7.477,2.154,26.15,22.114,14.668,29.782-4.8,3.206-19.643,3.932-22.142-6.069C65.157,326.206,64.641,305.786,74.135,308.518Z" transform="translate(-65.816 -308.268)" fill="#212121"/>
              </g>
            </g>
            <g id="Grupo_1074520" data-name="Grupo 1074520" transform="translate(0.394)">
              <g id="Grupo_1074519" data-name="Grupo 1074519">
                <path id="Trazado_824158" data-name="Trazado 824158" d="M73.169,311.646s1.93-3.194.625-4.844-.07,3.15-2.892.143c-.334-.345.076,2.8-.586,2.19a2.164,2.164,0,0,0-2.168-.384c-.771.165,1.753,2.622-.9,2.356-.126-.011-1.223.28-1.287.724s1.116-.05,2.252,1.644c.177.241,2.087,1.764,2.087,1.764Z" transform="translate(-65.956 -306.444)" fill="#2b2b2b"/>
              </g>
            </g>
            <g id="Grupo_1074522" data-name="Grupo 1074522" transform="translate(0.513 5.783)">
              <g id="Grupo_1074521" data-name="Grupo 1074521">
                <path id="Trazado_824159" data-name="Trazado 824159" d="M67.144,334.263c-1.259-5.017-2.619-22.431,2.678-25.757C77.2,310.9,91.788,331.84,81.8,339.892,75.673,340.5,68.86,341.163,67.144,334.263Z" transform="translate(-65.999 -308.506)" fill="#2b2b2b"/>
              </g>
            </g>
          </g>
          <g id="Grupo_1074530" data-name="Grupo 1074530" transform="translate(71.705 148.034)">
            <g id="Grupo_1074525" data-name="Grupo 1074525" transform="translate(0 6.075)">
              <g id="Grupo_1074524" data-name="Grupo 1074524">
                <path id="Trazado_824160" data-name="Trazado 824160" d="M74.264,312.221c-9.126.948-34.965,20.229-23.225,31.523,4.9,4.712,21.982,8.644,26.96-2.437C81.007,334.621,85.85,311.024,74.264,312.221Z" transform="translate(-48.036 -312.177)" fill="#212121"/>
              </g>
            </g>
            <g id="Grupo_1074527" data-name="Grupo 1074527" transform="translate(26.462)">
              <g id="Grupo_1074526" data-name="Grupo 1074526">
                <path id="Trazado_824161" data-name="Trazado 824161" d="M58.1,316.088s-1.579-4.109.286-5.752-.581,3.668,3.332.771c.449-.334-.673,3.237.219,2.662a2.565,2.565,0,0,1,2.591,0c.878.356-2.58,2.69.564,2.925.149.011,1.363.592,1.343,1.108s-1.282-.292-2.953,1.442c-.247.247-2.788,1.621-2.788,1.621Z" transform="translate(-57.471 -310.011)" fill="#2b2b2b"/>
              </g>
            </g>
            <g id="Grupo_1074529" data-name="Grupo 1074529" transform="translate(7.758 7.437)">
              <g id="Grupo_1074528" data-name="Grupo 1074528">
                <path id="Trazado_824162" data-name="Trazado 824162" d="M71.561,343.118c2.5-5.559,7.707-25.5,2.235-30.455-9.05,1.254-30.34,22.518-20.415,33.941C60.365,348.578,68.125,350.769,71.561,343.118Z" transform="translate(-50.802 -312.663)" fill="#2b2b2b"/>
              </g>
            </g>
          </g>
          <path id="Trazado_824163" data-name="Trazado 824163" d="M59.69,343.116l-.039,71.713,42.756-24.846,12.163-78.758Z" transform="translate(44.63 -159.787)" fill="#d47544"/>
          <path id="Trazado_824164" data-name="Trazado 824164" d="M39.974,311.228,52.14,389.984l43.02,24.84L95.2,343.11Z" transform="translate(9.121 -159.782)" fill="#a04c34"/>
          <g id="Grupo_1074538" data-name="Grupo 1074538" transform="translate(143.138 203.727)">
            <path id="Trazado_824165" data-name="Trazado 824165" d="M91.59,342.181c0,5.643-4.047,10.223-9.045,10.223s-9.039-4.58-9.039-10.223,4.047-10.225,9.039-10.225S91.59,336.533,91.59,342.181Z" transform="translate(-73.506 -326.103)" fill="#37bcd2"/>
            <g id="Grupo_1074531" data-name="Grupo 1074531" transform="translate(0.004 24.18)">
              <path id="Trazado_824166" data-name="Trazado 824166" d="M88.92,340.018c3.545,2.047,3.556,5.362.039,7.407a14.076,14.076,0,0,1-12.786,0c-3.539-2.045-3.556-5.357-.039-7.407A14.145,14.145,0,0,1,88.92,340.018Z" transform="translate(-73.507 -338.49)" fill="#40daf4"/>
            </g>
            <rect id="Rectángulo_376098" data-name="Rectángulo 376098" width="18" height="15.041" transform="translate(0.036 15.31)" fill="#40daf4"/>
            <g id="Grupo_1074532" data-name="Grupo 1074532" transform="translate(0.002 10.838)">
              <path id="Trazado_824167" data-name="Trazado 824167" d="M88.921,335.269c3.545,2.042,3.556,5.357.039,7.4a14.093,14.093,0,0,1-12.786,0c-3.539-2.042-3.562-5.357-.039-7.4A14.076,14.076,0,0,1,88.921,335.269Z" transform="translate(-73.507 -333.733)" fill="#37bcd2"/>
            </g>
            <g id="Grupo_1074533" data-name="Grupo 1074533" transform="translate(5.309 5.153)">
              <path id="Trazado_824168" data-name="Trazado 824168" d="M81.765,332.339c1.461.855,1.467,2.218.017,3.063a5.823,5.823,0,0,1-5.281,0c-1.467-.844-1.467-2.207-.017-3.063A5.823,5.823,0,0,1,81.765,332.339Z" transform="translate(-75.399 -331.706)" fill="#40daf4"/>
            </g>
            <g id="Grupo_1074534" data-name="Grupo 1074534" transform="translate(5.256 1.996)">
              <path id="Trazado_824169" data-name="Trazado 824169" d="M81.838,331.224c1.484.861,1.495,2.246.022,3.107a5.924,5.924,0,0,1-5.362,0c-1.489-.861-1.489-2.246-.011-3.107A5.882,5.882,0,0,1,81.838,331.224Z" transform="translate(-75.38 -330.58)" fill="#40daf4"/>
            </g>
            <rect id="Rectángulo_376099" data-name="Rectángulo 376099" width="7.466" height="3.068" transform="translate(5.309 4.406)" fill="#40daf4"/>
            <g id="Grupo_1074537" data-name="Grupo 1074537" transform="translate(4.779)">
              <g id="Grupo_1074535" data-name="Grupo 1074535" transform="translate(0.004 2.044)">
                <path id="Trazado_824170" data-name="Trazado 824170" d="M82.477,331.319c1.672.965,1.677,2.53.022,3.489a6.661,6.661,0,0,1-6.03.006c-1.672-.965-1.677-2.53-.017-3.495A6.648,6.648,0,0,1,82.477,331.319Z" transform="translate(-75.211 -330.598)" fill="#ffbd4a"/>
              </g>
              <rect id="Rectángulo_376100" data-name="Rectángulo 376100" width="8.529" height="2.087" transform="translate(0 2.603)" fill="#ffbd4a"/>
              <g id="Grupo_1074536" data-name="Grupo 1074536" transform="translate(0.012)">
                <path id="Trazado_824171" data-name="Trazado 824171" d="M82.466,330.593c1.672.959,1.677,2.513.022,3.478a6.619,6.619,0,0,1-6.019,0c-1.666-.965-1.677-2.518-.017-3.478A6.607,6.607,0,0,1,82.466,330.593Z" transform="translate(-75.214 -329.869)" fill="#f9b234"/>
              </g>
            </g>
          </g>
          <g id="Grupo_1074549" data-name="Grupo 1074549" transform="translate(46.238 225.717)">
            <path id="Trazado_824172" data-name="Trazado 824172" d="M44.971,350.056c-1.683-.536-2.345-3.447-1.38-6.459s2.833-5.1,4.995-4.414,4.639,4.168,3.677,7.191S47.128,350.746,44.971,350.056Z" transform="translate(-31.395 -335.29)" fill="#40daf4"/>
            <g id="Grupo_1074539" data-name="Grupo 1074539">
              <path id="Trazado_824173" data-name="Trazado 824173" d="M43.585,347.84c-1.916,1.742-3.926,1.113-4.487-1.408a8.971,8.971,0,0,1,2.471-7.735c1.924-1.747,3.932-1.113,4.493,1.408A8.948,8.948,0,0,1,43.585,347.84Z" transform="translate(-38.955 -337.71)" fill="#40daf4"/>
            </g>
            <path id="Trazado_824174" data-name="Trazado 824174" d="M39.558,348.61l3.68-10.868,12.051,3.873-3.483,10.918Z" transform="translate(-37.868 -337.652)" fill="#40daf4"/>
            <g id="Grupo_1074540" data-name="Grupo 1074540" transform="translate(15.689 6.437)">
              <path id="Trazado_824175" data-name="Trazado 824175" d="M47.684,346.86c-1.3,1.189-2.662.763-3.04-.948a6.075,6.075,0,0,1,1.677-5.236c1.3-1.184,2.667-.76,3.04.954A6.04,6.04,0,0,1,47.684,346.86Z" transform="translate(-44.549 -340.005)" fill="#37bcd2"/>
            </g>
            <g id="Grupo_1074541" data-name="Grupo 1074541" transform="translate(18.899 7.464)">
              <path id="Trazado_824176" data-name="Trazado 824176" d="M48.832,347.233c-1.3,1.178-2.662.752-3.04-.959a6.031,6.031,0,0,1,1.677-5.23c1.3-1.189,2.662-.757,3.035.948A6.077,6.077,0,0,1,48.832,347.233Z" transform="translate(-45.694 -340.371)" fill="#37bcd2"/>
            </g>
            <rect id="Rectángulo_376101" data-name="Rectángulo 376101" width="7.772" height="3.994" transform="translate(16.815 13.854) rotate(-72.266)" fill="#37bcd2"/>
            <g id="Grupo_1074542" data-name="Grupo 1074542" transform="translate(17.145 5.478)">
              <path id="Trazado_824177" data-name="Trazado 824177" d="M49.695,349.793c-1.924,1.742-3.926,1.113-4.482-1.414a8.953,8.953,0,0,1,2.465-7.73c1.924-1.747,3.926-1.111,4.487,1.408A8.939,8.939,0,0,1,49.695,349.793Z" transform="translate(-45.068 -339.663)" fill="#40daf4"/>
            </g>
            <path id="Trazado_824178" data-name="Trazado 824178" d="M46.954,350.691c-1.672-.536-2.345-3.447-1.38-6.459s2.838-5.11,4.995-4.414,4.644,4.173,3.682,7.194S49.119,351.381,46.954,350.691Z" transform="translate(-27.813 -334.147)" fill="#40daf4"/>
            <g id="Grupo_1074548" data-name="Grupo 1074548" transform="translate(24.108 10.471)">
              <g id="Grupo_1074543" data-name="Grupo 1074543">
                <path id="Trazado_824179" data-name="Trazado 824179" d="M49.393,345.475c-.76.7-1.568.449-1.781-.552a3.55,3.55,0,0,1,.982-3.091.992.992,0,0,1,1.787.564A3.562,3.562,0,0,1,49.393,345.475Z" transform="translate(-47.551 -341.443)" fill="#37bcd2"/>
              </g>
              <g id="Grupo_1074544" data-name="Grupo 1074544" transform="translate(1.804 0.551)">
                <path id="Trazado_824180" data-name="Trazado 824180" d="M50.067,345.735c-.777.712-1.587.454-1.812-.569a3.6,3.6,0,0,1,1-3.127c.777-.707,1.587-.449,1.812.569A3.61,3.61,0,0,1,50.067,345.735Z" transform="translate(-48.195 -341.64)" fill="#40daf4"/>
              </g>
              <rect id="Rectángulo_376102" data-name="Rectángulo 376102" width="4.58" height="1.882" transform="translate(0.624 4.417) rotate(-72.235)" fill="#37bcd2"/>
              <g id="Grupo_1074547" data-name="Grupo 1074547" transform="translate(1.429 0.177)">
                <g id="Grupo_1074545" data-name="Grupo 1074545" transform="translate(0 0.033)">
                  <path id="Trazado_824181" data-name="Trazado 824181" d="M50.17,346.123c-.878.8-1.792.51-2.045-.642a4.078,4.078,0,0,1,1.127-3.517,1.135,1.135,0,0,1,2.045.642A4.086,4.086,0,0,1,50.17,346.123Z" transform="translate(-48.061 -341.518)" fill="#ffbd4a"/>
                </g>
                <rect id="Rectángulo_376103" data-name="Rectángulo 376103" width="5.219" height="1.279" transform="translate(0.753 4.972) rotate(-72.29)" fill="#ffbd4a"/>
                <g id="Grupo_1074546" data-name="Grupo 1074546" transform="translate(1.202 0.417)">
                  <path id="Trazado_824182" data-name="Trazado 824182" d="M50.592,346.26c-.872.788-1.787.5-2.039-.642a4.1,4.1,0,0,1,1.116-3.511c.878-.794,1.8-.516,2.05.639A4.073,4.073,0,0,1,50.592,346.26Z" transform="translate(-48.49 -341.655)" fill="#f9b234"/>
                </g>
              </g>
            </g>
            <path id="Trazado_824183" data-name="Trazado 824183" d="M51.406,341.754a6.944,6.944,0,0,1,1.758-.982l-8.178-2.614-.356-.115a2.627,2.627,0,0,0-2.246.827,6.7,6.7,0,0,0-1.453,2.011l-.449,1.063a11.338,11.338,0,0,0-.339,1.677l9.011,2.88A7.9,7.9,0,0,1,51.406,341.754Z" transform="translate(-36.812 -337.171)" fill="#ffbd4a"/>
          </g>
          <g id="Grupo_1074560" data-name="Grupo 1074560" transform="translate(169.58 201.481)">
            <path id="Trazado_824184" data-name="Trazado 824184" d="M88.947,341.413c-1.683-.536-2.345-3.447-1.38-6.459s2.827-5.1,4.995-4.414,4.639,4.173,3.677,7.188S91.107,342.1,88.947,341.413Z" transform="translate(-75.379 -326.651)" fill="#40daf4"/>
            <g id="Grupo_1074550" data-name="Grupo 1074550">
              <path id="Trazado_824185" data-name="Trazado 824185" d="M87.559,339.192c-1.918,1.747-3.926,1.116-4.482-1.408a8.962,8.962,0,0,1,2.465-7.729c1.921-1.747,3.932-1.111,4.487,1.408A8.928,8.928,0,0,1,87.559,339.192Z" transform="translate(-82.934 -329.068)" fill="#40daf4"/>
            </g>
            <path id="Trazado_824186" data-name="Trazado 824186" d="M83.536,339.968,87.207,329.1l12.057,3.87-3.486,10.918Z" transform="translate(-81.848 -329.011)" fill="#40daf4"/>
            <g id="Grupo_1074551" data-name="Grupo 1074551" transform="translate(15.682 6.434)">
              <path id="Trazado_824187" data-name="Trazado 824187" d="M91.668,338.219c-1.31,1.189-2.667.76-3.046-.948a6.093,6.093,0,0,1,1.672-5.242c1.31-1.178,2.667-.757,3.046.959A6.061,6.061,0,0,1,91.668,338.219Z" transform="translate(-88.526 -331.362)" fill="#37bcd2"/>
            </g>
            <g id="Grupo_1074552" data-name="Grupo 1074552" transform="translate(18.896 7.461)">
              <path id="Trazado_824188" data-name="Trazado 824188" d="M92.808,338.587c-1.3,1.189-2.662.757-3.04-.954a6.047,6.047,0,0,1,1.677-5.231c1.3-1.189,2.662-.763,3.04.942A6.1,6.1,0,0,1,92.808,338.587Z" transform="translate(-89.672 -331.729)" fill="#37bcd2"/>
            </g>
            <rect id="Rectángulo_376104" data-name="Rectángulo 376104" width="7.772" height="3.997" transform="matrix(0.305, -0.952, 0.952, 0.305, 16.797, 13.837)" fill="#37bcd2"/>
            <g id="Grupo_1074553" data-name="Grupo 1074553" transform="translate(17.133 5.481)">
              <path id="Trazado_824189" data-name="Trazado 824189" d="M93.668,341.148c-1.918,1.742-3.921,1.116-4.482-1.408a8.944,8.944,0,0,1,2.471-7.729c1.924-1.747,3.926-1.116,4.487,1.4A8.926,8.926,0,0,1,93.668,341.148Z" transform="translate(-89.043 -331.022)" fill="#40daf4"/>
            </g>
            <path id="Trazado_824190" data-name="Trazado 824190" d="M90.931,342.049c-1.677-.536-2.345-3.444-1.38-6.453s2.838-5.116,4.995-4.42,4.644,4.173,3.682,7.191S93.094,342.739,90.931,342.049Z" transform="translate(-71.796 -325.506)" fill="#40daf4"/>
            <g id="Grupo_1074559" data-name="Grupo 1074559" transform="translate(24.1 10.465)">
              <g id="Grupo_1074554" data-name="Grupo 1074554">
                <path id="Trazado_824191" data-name="Trazado 824191" d="M93.372,336.834a.989.989,0,0,1-1.787-.558,3.562,3.562,0,0,1,.987-3.085.991.991,0,0,1,1.787.564A3.6,3.6,0,0,1,93.372,336.834Z" transform="translate(-91.527 -332.799)" fill="#37bcd2"/>
              </g>
              <g id="Grupo_1074555" data-name="Grupo 1074555" transform="translate(1.804 0.554)">
                <path id="Trazado_824192" data-name="Trazado 824192" d="M94.046,337.1a1.007,1.007,0,0,1-1.817-.575,3.637,3.637,0,0,1,1-3.127c.782-.707,1.6-.449,1.817.575A3.6,3.6,0,0,1,94.046,337.1Z" transform="translate(-92.17 -332.997)" fill="#40daf4"/>
              </g>
              <rect id="Rectángulo_376105" data-name="Rectángulo 376105" width="4.577" height="1.876" transform="matrix(0.304, -0.953, 0.953, 0.304, 0.687, 4.366)" fill="#37bcd2"/>
              <g id="Grupo_1074558" data-name="Grupo 1074558" transform="translate(1.429 0.213)">
                <g id="Grupo_1074556" data-name="Grupo 1074556">
                  <path id="Trazado_824193" data-name="Trazado 824193" d="M94.144,337.483a1.132,1.132,0,0,1-2.045-.642,4.106,4.106,0,0,1,1.127-3.517c.878-.794,1.787-.5,2.045.642A4.078,4.078,0,0,1,94.144,337.483Z" transform="translate(-92.037 -332.875)" fill="#ffbd4a"/>
                </g>
                <rect id="Rectángulo_376106" data-name="Rectángulo 376106" width="5.225" height="1.273" transform="matrix(0.305, -0.952, 0.952, 0.305, 0.765, 5.011)" fill="#ffbd4a"/>
                <g id="Grupo_1074557" data-name="Grupo 1074557" transform="translate(1.207 0.388)">
                  <path id="Trazado_824194" data-name="Trazado 824194" d="M94.568,337.614c-.872.788-1.787.5-2.033-.639a4.049,4.049,0,0,1,1.116-3.511c.872-.794,1.787-.51,2.039.637A4.085,4.085,0,0,1,94.568,337.614Z" transform="translate(-92.467 -333.014)" fill="#f9b234"/>
                </g>
              </g>
            </g>
            <path id="Trazado_824195" data-name="Trazado 824195" d="M95.383,333.115a6.987,6.987,0,0,1,1.753-.99l-8.173-2.608-.356-.115a2.642,2.642,0,0,0-2.252.827,6.77,6.77,0,0,0-1.442,2.011l-.454,1.057a11.517,11.517,0,0,0-.339,1.683l9.011,2.88A7.835,7.835,0,0,1,95.383,333.115Z" transform="translate(-80.794 -328.53)" fill="#ffbd4a"/>
          </g>
        </g>
      </g>
      <g id="Grupo_1074570" data-name="Grupo 1074570" transform="translate(141.54 185.438)">
        <g id="Grupo_1074565" data-name="Grupo 1074565" transform="translate(13.414 9.379)">
          <g id="Grupo_1074563" data-name="Grupo 1074563" transform="translate(0 9.917)">
            <path id="Trazado_824196" data-name="Trazado 824196" d="M72.386,330.36l.151,2.8,4.81-2.928,2.123,4.4-6.647,3.834.154,2.844-4.246-2.723Z" transform="translate(-68.732 -330.228)" fill="#eaf2e7"/>
          </g>
          <g id="Grupo_1074564" data-name="Grupo 1074564" transform="translate(6.221)">
            <path id="Trazado_824197" data-name="Trazado 824197" d="M75.151,326.692l3.326,7.194-3.009,7.121-2.123-4.4-2.4-4.956Z" transform="translate(-70.95 -326.692)" fill="#eaf2e7"/>
          </g>
        </g>
        <g id="Grupo_1074566" data-name="Grupo 1074566" transform="translate(13.93)">
          <path id="Trazado_824198" data-name="Trazado 824198" d="M71.939,323.348l3.528,4.468,2.078-2.889L75.981,332.7l-6.448,3.36,2.047-2.841-2.664-3.088Z" transform="translate(-68.916 -323.348)" fill="#eaf2e7"/>
        </g>
        <g id="Grupo_1074567" data-name="Grupo 1074567" transform="translate(6.422)">
          <path id="Trazado_824199" data-name="Trazado 824199" d="M71.2,326.444l5.567-3.1-3.023,6.779-3.4,7.637-4.1-.409Z" transform="translate(-66.239 -323.348)" fill="#eaf2e7"/>
        </g>
        <g id="Grupo_1074568" data-name="Grupo 1074568" transform="translate(0 25.903)">
          <path id="Trazado_824200" data-name="Trazado 824200" d="M63.949,338.608l5.315-2.833,5.991-3.192.194,5.351-8.571,4.442Z" transform="translate(-63.949 -332.584)" fill="#eaf2e7"/>
        </g>
        <g id="Grupo_1074569" data-name="Grupo 1074569" transform="translate(0 18.081)">
          <path id="Trazado_824201" data-name="Trazado 824201" d="M70.3,329.8l3.225,4.588-2.319.247-1.944,6.178-5.315,2.833,2.844-8.546-2.361.25Z" transform="translate(-63.949 -329.795)" fill="#eaf2e7"/>
        </g>
      </g>
      <g id="Grupo_1074578" data-name="Grupo 1074578" transform="translate(210.594 142.862)">
        <g id="Grupo_1074573" data-name="Grupo 1074573" transform="translate(13.125 9.177)">
          <g id="Grupo_1074571" data-name="Grupo 1074571" transform="translate(0 9.698)">
            <path id="Trazado_824202" data-name="Trazado 824202" d="M96.824,315.026l.149,2.734,4.7-2.863,2.078,4.3-6.5,3.753.149,2.779-4.148-2.664Z" transform="translate(-93.251 -314.897)" fill="#eaf2e7"/>
          </g>
          <g id="Grupo_1074572" data-name="Grupo 1074572" transform="translate(6.08)">
            <path id="Trazado_824203" data-name="Trazado 824203" d="M99.531,311.439l3.253,7.034-2.945,6.967-2.078-4.3-2.342-4.846Z" transform="translate(-95.419 -311.439)" fill="#eaf2e7"/>
          </g>
        </g>
        <g id="Grupo_1074574" data-name="Grupo 1074574" transform="translate(13.627)">
          <path id="Trazado_824204" data-name="Trazado 824204" d="M96.386,308.167l3.45,4.372,2.033-2.827-1.529,7.6L94.033,320.6l2-2.782L93.43,314.8Z" transform="translate(-93.43 -308.167)" fill="#eaf2e7"/>
        </g>
        <g id="Grupo_1074575" data-name="Grupo 1074575" transform="translate(6.285)">
          <path id="Trazado_824205" data-name="Trazado 824205" d="M95.667,311.2l5.444-3.029-2.956,6.63-3.329,7.474-4.013-.4Z" transform="translate(-90.812 -308.167)" fill="#eaf2e7"/>
        </g>
        <g id="Grupo_1074576" data-name="Grupo 1074576" transform="translate(0 25.339)">
          <path id="Trazado_824206" data-name="Trazado 824206" d="M88.571,323.1l5.2-2.774,5.862-3.121.185,5.236-8.383,4.344Z" transform="translate(-88.571 -317.202)" fill="#eaf2e7"/>
        </g>
        <g id="Grupo_1074577" data-name="Grupo 1074577" transform="translate(0 17.689)">
          <path id="Trazado_824207" data-name="Trazado 824207" d="M94.786,314.474l3.155,4.487-2.269.241-1.9,6.044-5.2,2.774,2.782-8.363-2.311.247Z" transform="translate(-88.571 -314.474)" fill="#eaf2e7"/>
        </g>
      </g>
    </g>
  </g>
</svg>
