<svg xmlns="http://www.w3.org/2000/svg" width="188.136" height="252.677" viewBox="0 0 188.136 252.677">
  <g id="Grupo_1070654" data-name="Grupo 1070654" transform="translate(-1108.363 -20285.121)">
    <path id="Trazado_814976" data-name="Trazado 814976" d="M671.656,201.4l58.227,33.719c8.085,4.673,21.2,4.673,29.284,0s8.085-12.239,0-16.912L700.94,184.492c-8.085-4.673-21.2-4.673-29.284,0S663.571,196.731,671.656,201.4Z" transform="translate(457.14 20299.17)" fill="#35241a" opacity="0.1"/>
    <path id="Trazado_814977" data-name="Trazado 814977" d="M721.626,175.58l58.227,33.734c8.085,4.673,21.2,4.673,29.284,0s8.085-12.239,0-16.912L750.91,158.669c-8.085-4.658-21.2-4.658-29.284,0S713.541,170.922,721.626,175.58Z" transform="translate(481.299 20286.689)" fill="#35241a" opacity="0.1"/>
    <path id="Trazado_814978" data-name="Trazado 814978" d="M792.286,120.73h-33.1l3.071,26.287a7.135,7.135,0,0,0,3.931,5,21.155,21.155,0,0,0,19.107,0,7,7,0,0,0,3.9-5Z" transform="translate(502.393 20270.033)" fill="#f15a24"/>
    <path id="Trazado_814979" data-name="Trazado 814979" d="M789.983,128.333a12.089,12.089,0,0,1-2.507,1.854,25.931,25.931,0,0,1-23.454,0,12.945,12.945,0,0,1-2.507-1.854c-3.828-3.679-2.967-8.515,2.507-11.69a25.931,25.931,0,0,1,23.454,0C793.039,119.818,793.811,124.669,789.983,128.333Z" transform="translate(502.382 20266.707)" fill="#ad411a"/>
    <path id="Trazado_814980" data-name="Trazado 814980" d="M789.218,125.56a12.089,12.089,0,0,1-2.507,1.854,25.931,25.931,0,0,1-23.454,0,12.939,12.939,0,0,1-2.507-1.854,9.538,9.538,0,0,1,3.664-3.456,23.379,23.379,0,0,1,21.139,0,9.436,9.436,0,0,1,3.664,3.456Z" transform="translate(503.147 20269.479)" fill="#ffbe59"/>
    <path id="Trazado_814981" data-name="Trazado 814981" d="M775.962,133.834a24.745,24.745,0,0,1-12.061-2.878A13.9,13.9,0,0,1,761.276,129a7.254,7.254,0,0,1-2.507-6.127c.311-2.507,2.136-4.836,5.133-6.572,6.661-3.842,17.461-3.842,24.107,0,2.967,1.736,4.836,4.065,5.133,6.572A7.254,7.254,0,0,1,790.634,129a13,13,0,0,1-2.626,1.958,24.685,24.685,0,0,1-12.046,2.878Zm0-19.152a23.217,23.217,0,0,0-11.408,2.73c-2.655,1.483-4.258,3.516-4.45,5.608a6.023,6.023,0,0,0,2.121,5.059,12.947,12.947,0,0,0,2.388,1.765,25.219,25.219,0,0,0,22.816,0,12.044,12.044,0,0,0,2.373-1.765,5.934,5.934,0,0,0,2.121-5.044c-.252-2.107-1.854-4.094-4.451-5.622a23.261,23.261,0,0,0-11.512-2.73Z" transform="translate(502.176 20266.5)" fill="#ad411a"/>
    <path id="Trazado_814982" data-name="Trazado 814982" d="M766.44,114.956l.668-5.934,1.8-2.448-2.151-6.3s7.135,1.187,6.72,1.305,1.825,7.047,1.825,7.047,1.484,6.468,1.484,6.883v5.044l-3.59-1.276Z" transform="translate(505.898 20260.143)" fill="#ffb294"/>
    <path id="Trazado_814983" data-name="Trazado 814983" d="M787.318,133.229h-1.009V128.2c0-5.3-4.317-12.09-9.628-15.146l-6.2-3.575c-2.7-1.572-5.237-1.9-6.957-.9a5.029,5.029,0,0,0-2.151,4.643v5.934h-1.023v-5.934a5.934,5.934,0,0,1,2.67-5.519c2.047-1.187,4.94-.846,7.981.89l6.186,3.575c5.593,3.234,10.132,10.384,10.132,16.036Z" transform="translate(502.94 20263.395)" fill="#4d4d4d"/>
    <path id="Trazado_814984" data-name="Trazado 814984" d="M776.524,117.682l-11.749-7.773c-.994-1.558,1.1-4.688,2.507-3.8l11.749,7.773C780.336,115.2,778.823,118.6,776.524,117.682Z" transform="translate(504.967 20262.893)" fill="#333"/>
    <path id="Trazado_814985" data-name="Trazado 814985" d="M759.41,119.477a8.813,8.813,0,0,1,3.99-2.3v-2c0-1.1-.9-1.483-2-.831a4.094,4.094,0,0,0-1.988,3.145Z" transform="translate(502.499 20266.795)" fill="#ad411a"/>
    <path id="Trazado_814986" data-name="Trazado 814986" d="M759.3,107.116l16.125,17.238c1.32,1.1,7.328-.445,8.367-4.05a185.443,185.443,0,0,0-14.835-22.252c-3.649-7.714-3.145-16.318-5.652-24.344-3.4-9.479-9.835-8.53-15.443-6.423Z" transform="translate(496.914 20243.523)" fill="#d4eeff"/>
    <path id="Trazado_814987" data-name="Trazado 814987" d="M759.3,107.116l16.125,17.238c1.32,1.1,7.328-.445,8.367-4.05a185.443,185.443,0,0,0-14.835-22.252c-3.649-7.714-3.145-16.318-5.652-24.344-3.4-9.479-9.835-8.53-15.443-6.423Z" transform="translate(496.914 20243.523)" fill="#b1d8f2"/>
    <path id="Trazado_814988" data-name="Trazado 814988" d="M719.649,149.513c-1.676,1.276-2.581,3.783-3.219,6.705a10.829,10.829,0,0,0,4.806,5.756l5.355,7.417a13.883,13.883,0,0,0,6.1,4.154,18.484,18.484,0,0,0,7.566.134c3.427-1.113,4.45-2.3,5.593-4.376-.608-2.062-3.486-4.45-7.21-6.69l-5.163-6.231-.223-6.557-9.524-4.525Z" transform="translate(481.719 20281.916)"/>
    <path id="Trazado_814989" data-name="Trazado 814989" d="M775.724,113.941l-8.426,31a8.9,8.9,0,0,1-.371.86c-1.632,3.4-4.777,6.32-8.589,9.079-7.64,5.548-17.98,10.384-24.255,17.193-5.548,2.047-15.443-2.077-15.443-8.1a82.146,82.146,0,0,1,9.791-11.868A110.531,110.531,0,0,1,745.09,139.22l6.958-25.62Z" transform="translate(482.788 20266.588)" fill="#0051a3"/>
    <path id="Trazado_814990" data-name="Trazado 814990" d="M772.533,113.936l-8.426,31a8.854,8.854,0,0,1-.371.86l-8.589,9.079-7.833-7.061-22.074,4.3A110.533,110.533,0,0,1,741.9,139.23l6.958-25.62Z" transform="translate(485.978 20266.592)" fill="#0071bc" opacity="0.5"/>
    <path id="Trazado_814991" data-name="Trazado 814991" d="M751,68l8.055,25.219s5.934-9.45,2.8-17.579C759.367,69.187,751,68,751,68Z" transform="translate(498.433 20244.539)" fill="#d4eeff"/>
    <path id="Trazado_814992" data-name="Trazado 814992" d="M773.486,126.543c0,11.972-5.934,15.4-8.367,18.039a21.7,21.7,0,0,1-4.851,4.213c-7.818,4.984-8.233,12.417-16.9,5.059l-.134-.1c-9.984-6.29-10.384-14.494-9.272-22.386l-2.2-9.479-2.047-8.9-.326-2.967-.1-.949L726.86,86.815c.979-1.113,1.973-2.225,2.967-3.308s2.21-2.27,3.382-3.382A104.906,104.906,0,0,1,747.362,68.85h17.594c4.035,3.8,6.245,9.85,7.417,17.193C772.433,85.969,773.486,117.286,773.486,126.543Z" transform="translate(486.762 20244.953)" fill="#0071bc"/>
    <path id="Trazado_814993" data-name="Trazado 814993" d="M766.5,87.952c-3.976,5.073-11.675,8.5-21.288,11.082-1.246-10.5-6.186-18.781-13.989-18.959A103.758,103.758,0,0,1,745.372,68.8H759.08A33.688,33.688,0,0,1,766.5,87.952Z" transform="translate(488.87 20244.928)" fill="#d4eeff"/>
    <path id="Trazado_814994" data-name="Trazado 814994" d="M752.68,83.692a2.967,2.967,0,0,1-1.751,1.676c-7.18,2.121-13.084-6.082-12.253-10.9s1.053-7.684,1.053-7.684l13.915,3.427s.148,1.305.223,3.145C754.029,76.482,754.029,81.17,752.68,83.692Z" transform="translate(492.436 20243.953)" fill="#ffb294"/>
    <path id="Trazado_814995" data-name="Trazado 814995" d="M751.653,81.966a3.932,3.932,0,0,1-2.27.757c-6.572,0-8.664-12.372-8.664-12.372l12.12,1.276C753,74.756,753,79.444,751.653,81.966Z" transform="translate(493.463 20245.678)" fill="#ffb294" opacity="0.5"/>
    <path id="Trazado_814996" data-name="Trazado 814996" d="M741.751,74.931s1.483,6.023,4.2,8.619a16.154,16.154,0,0,0,8.619,3.976,4.346,4.346,0,0,0,3.976-1.291c1.068-1.246,1.721-12.7,1.721-12.7a35.194,35.194,0,0,0-.638-8.218c-.771-3.635-3.4-11.675-13.974-10.221a10.177,10.177,0,0,0-8.9,8.9c-.534,3.575,2.329,9.925,2.329,9.925Z" transform="translate(491.512 20238.219)" fill="#ffb294"/>
    <path id="Trazado_814997" data-name="Trazado 814997" d="M754.111,78.354c-6.572,0-13.351-12.728-13.351-12.728L758,64.32C758.354,73.666,758.651,78.354,754.111,78.354Z" transform="translate(493.482 20242.762)" fill="#ffb294" opacity="0.5"/>
    <path id="Trazado_814998" data-name="Trazado 814998" d="M739.119,74.653l5.014,2.67.386-2.967a2.433,2.433,0,0,1,2.611-2.477,19.048,19.048,0,0,0,9.658-1.691,6.958,6.958,0,0,0,3.946-3.916c1.706-6.512-6.883-11.541-13.351-11.319-7.847.252-11.037,5.533-11.052,10.191C736.3,69.342,739.119,74.653,739.119,74.653Z" transform="translate(491.34 20238.232)"/>
    <path id="Trazado_814999" data-name="Trazado 814999" d="M744.016,116.993a14.108,14.108,0,0,1-9.658.653c-.593-.148-1.2-.311-1.8-.519l-.949-4.094-1.1-4.836L725.25,86.478a8.783,8.783,0,0,1,1.083-2.967,20.649,20.649,0,0,1,4.332-4.851,12.966,12.966,0,0,1,8.723,4.584,12.741,12.741,0,0,1,2.314,4.821C745.069,101.15,745.1,110.139,744.016,116.993Z" transform="translate(485.983 20249.695)" fill="#d4eeff"/>
    <path id="Trazado_815000" data-name="Trazado 815000" d="M752.152,66.2a29.461,29.461,0,0,1-9.212,3.368l.267.163c5.281,3.056,12.09,6.231,19,2.225,7.581-4.361,1.483-7.922-3.857-10.963l-.341-.178a15.177,15.177,0,0,1-5.86,5.385Z" transform="translate(494.536 20241.066)" fill="#0051a3"/>
    <path id="Trazado_815001" data-name="Trazado 815001" d="M746.437,73.286a15.265,15.265,0,0,1-9.539-3.5s-3.561-11.274,6.112-14.953c15.8-6.023,18.232,9.539,18.232,9.539C760.13,69.251,754.063,71.654,746.437,73.286Z" transform="translate(491.306 20237.504)" fill="#0071bc"/>
    <path id="Trazado_815002" data-name="Trazado 815002" d="M739.788,65.563a1.736,1.736,0,0,0-2.122.326,1.661,1.661,0,0,0-.267,1.246,4.011,4.011,0,0,0,.445,1.216,19.9,19.9,0,0,0,1.1,1.988,2.4,2.4,0,0,0,1.335,1.2c.608.148,1.35.579,1.676,0a4.959,4.959,0,0,0,.178-2.6,5.029,5.029,0,0,0-2.344-3.382Z" transform="translate(491.844 20243.254)" fill="#ffb294"/>
    <path id="Trazado_815003" data-name="Trazado 815003" d="M761.322,184.688c0,3.738.3,7.18,1.483,9.554a7.641,7.641,0,0,0,3.664,2.418c1.38,2.077,2.819,3.783,4.539,4.258,5.044,1.9,14.3-1.1,15.666-5.266a15.205,15.205,0,0,0-7.165-6.616l-6.3-6.1-1.928-6.987-10.7,2.566Z" transform="translate(503.064 20296.732)"/>
    <path id="Trazado_815004" data-name="Trazado 815004" d="M786.824,209.9c-1.973,4.45-6.6,6.067-14.182,4.539q-1.736-3.961-3.367-7.922a334.827,334.827,0,0,1-13.084-38.14l-17.016-37.784-1.142-2.492-2.463-5.459,12.343-2.967,11.126-2.7c.623,1.483,5.667,14.152,5.667,14.152s2.967,8.174,4.213,12.09a189.464,189.464,0,0,1,5.474,20.531Z" transform="translate(490.973 20268.217)" fill="#0071bc"/>
    <path id="Trazado_815005" data-name="Trazado 815005" d="M748.34,127.991c-.386,15.606,6.245,33.986,15.027,53.257l9.287,38.125a333.6,333.6,0,0,1-13.084-38.125l-17.016-37.784-.133-.1c-9.984-6.29-10.384-14.494-9.272-22.386l-3.13-13.589-1.113-4.821L728.58,99.6l9.2-9.257C746.679,96.571,748.37,113.393,748.34,127.991Z" transform="translate(487.593 20255.342)" fill="#0071bc" opacity="0.5"/>
    <path id="Trazado_815006" data-name="Trazado 815006" d="M669.24,35.994l21.466-12.4V21.96l-21.466,12.4Z" transform="translate(505.96 20273.951)" fill="#1a1a1a"/>
    <g id="Grupo_1070652" data-name="Grupo 1070652" transform="translate(1188.425 20301.998)">
      <path id="Trazado_625207" data-name="Trazado 625207" d="M806.338,121.355,710.431,65.621a1.291,1.291,0,0,1-.549-1.2,4.154,4.154,0,0,1,1.884-3.264,1.306,1.306,0,0,1,1.35-.134l95.892,55.719a1.35,1.35,0,0,0-1.335.134,4.154,4.154,0,0,0-1.9,3.264,1.335,1.335,0,0,0,.564,1.216Z" transform="translate(-709.875 -60.893)" fill="#c4720e"/>
      <path id="Trazado_625208" data-name="Trazado 625208" d="M776.434,103.06c-1.053.608-1.9.119-1.914-1.083a4.154,4.154,0,0,1,1.9-3.264c1.038-.593,1.884-.119,1.9,1.083A4.184,4.184,0,0,1,776.434,103.06Z" transform="translate(-678.62 -42.732)" fill="#ffbe59"/>
    </g>
    <path id="Trazado_815007" data-name="Trazado 815007" d="M728.558,60.322l-21.421,12.4-12.951-7.417c-5.934-3.412-8.411-10.384-2.477-13.826s18.024-1.988,23.958,1.483Z" transform="translate(468.122 20235.605)" fill="#333"/>
    <path id="Trazado_815008" data-name="Trazado 815008" d="M722.24,65.871a117.2,117.2,0,0,0-10.963-5.934c-10.592-5.281-11.527-5.83-13.351-4.673-1.32.846,9.776,8.471,11.126,9.257l9.895,5.741C717.567,67.815,721.038,65.144,722.24,65.871Z" transform="translate(472.72 20238.141)" fill="#1a1a1a"/>
    <path id="Trazado_815009" data-name="Trazado 815009" d="M736.338,86.365l-.089-.252a6.186,6.186,0,0,0-10.473-1.483,5.934,5.934,0,0,0-1.2,2.507c-.935,4.094-.326,9,2.4,15.042l5.162,9,1.2,2.062a15.759,15.759,0,0,0,1.484,2.552c4.272,5.741,11.482,10.622,14.523,4.45C748.561,107.044,742.761,101.748,736.338,86.365Z" transform="translate(485.458 20251.484)" fill="#d4eeff"/>
    <path id="Trazado_815010" data-name="Trazado 815010" d="M743.74,103.891l7.106,5.281,3.115-8.144.3-.163a4.9,4.9,0,0,0,2.433-3.338l.831-4.08,1.869-3.8,1.84-1.261s1.691,1.113,1.572.9l.237-.7a2.656,2.656,0,0,0-.326-1.573,2.73,2.73,0,0,0-2.967-1.825v-.326c.163-.831-.579-1.914-2.225-1.483,0-.86-.564-1.127-2.047-.935-.1-.682-1.988-.816-2.789-.49L751.2,83.093a38.585,38.585,0,0,0-4.109,6.779l-.282,6.972Z" transform="translate(494.923 20251.213)" fill="#ffb294"/>
    <path id="Trazado_815011" data-name="Trazado 815011" d="M740.446,118.623c5.118-1.6,10.548-10.384,16.867-18.143-1.751-2.967-4.554-8.9-7.773-9.45L737.88,103.8Z" transform="translate(492.09 20255.676)" fill="#d4eeff"/>
    <path id="Trazado_815012" data-name="Trazado 815012" d="M766.083,112.786l-.653-1.572s0-1.691.683-2.032,4.836,2.032,4.836,2.032a22.072,22.072,0,0,1,3.234,2.611,2.151,2.151,0,0,1-.208,1.32s1.632-.92,2.181-.089a8.965,8.965,0,0,0,1.172,1.2c.5.846-6.587,1.187-7.684-.475C769.524,115.59,766.083,112.786,766.083,112.786Z" transform="translate(505.41 20264.436)" fill="#ffb294"/>
    <path id="Trazado_815013" data-name="Trazado 815013" d="M769.27,106l.43,3.338a5.085,5.085,0,0,0,.994,2.388l.756.994.252,4.45,1.661.831.608-5.86-.727-5.1Z" transform="translate(507.266 20262.912)" fill="#ffb294"/>
    <path id="Trazado_815014" data-name="Trazado 815014" d="M776.84,127.388a10,10,0,0,0,3.976-2.3v-2c0-1.1-.89-1.483-1.988-.846a4.139,4.139,0,0,0-1.988,3.145Z" transform="translate(510.926 20270.615)" fill="#f15a24"/>
    <path id="Trazado_815015" data-name="Trazado 815015" d="M709.414,96.43c4.169,1.038,9.064,13.6,15.769,23.736,5.741,6.082,12.476,17.609,19.8,29.121-2.151.133-2.092,1.973-3.738,2.492-7.417-9.494-17.8-16.556-20.116-21.5L708.85,113.891Z" transform="translate(478.054 20258.287)" fill="#ffb294"/>
    <path id="Trazado_815016" data-name="Trazado 815016" d="M709.414,96.43c3.649.9,7.862,10.666,13.351,19.923a12.654,12.654,0,0,0-6.72,7.21l-7.195-9.613Z" transform="translate(478.054 20258.287)" fill="#d4eeff"/>
    <path id="Trazado_815017" data-name="Trazado 815017" d="M729.37,132.515l1.958,3.189a6.779,6.779,0,0,0,2.537,5.563l2.107,2.685.49,2.018c.771,1.113,1.483.9,2.017.178l-.222,1.305-.682,2.967-1.335,1.929c-.475.949-.119,1.127.534,1.009,0,.816.43.994,1.142.89l1.113-1.78c.341.8,1.053,1.157,1.483.237l1.484-4.094a16.319,16.319,0,0,0-.148-6.186,25.425,25.425,0,0,0-5.756-7.684l-3.783-4.94Z" transform="translate(487.975 20274.422)" fill="#ffb294"/>
    <path id="Trazado_815018" data-name="Trazado 815018" d="M678.745,173.61l-.356.267c-3.545,1.765-5.934,3.991-5.014,7.655l6.6,2.967,4.614,7.136,7.121,3.16c1.884-1.869,3.427-3.753,1.053-5.934-3.412-2.967-5.311-6.038-5.548-9.3C683.4,178.936,679.917,177.259,678.745,173.61Z" transform="translate(460.807 20295.605)"/>
    <path id="Trazado_815019" data-name="Trazado 815019" d="M727.1,133.6l-26.406.237c3.857,9.257-1.706,13.633-4.6,31.287-15.68,7-12.906,21.11-19.167,27.83,1.113,6.409,7.046,9.494,11.542,7.566-.267-3.694,4.88-18.4,27.266-31.509A59.339,59.339,0,0,0,727.1,133.6Z" transform="translate(462.621 20276.26)" fill="#0051a3"/>
    <path id="Trazado_815020" data-name="Trazado 815020" d="M678.06,174.17c-4.45.786-5.934,3.664-6.32,7.284.727,4.094,5.192,4.376,7.981,6.735,6.394,5.4,6.067,8.382,9.761,9.568,4.45,1.483,11.171-.178,11.734-2.181.475-1.647-.756-3.531-5.133-5.682l-5.741-4.569a22.137,22.137,0,0,0,3.16,3.323c1.483,2.27,0,3.338-2.641,4.154-2.537,0-4.762-2.2-7.314-5.533l-5.682-6.868A4.792,4.792,0,0,1,678.06,174.17Z" transform="translate(460.112 20295.869)"/>
    <path id="Trazado_815021" data-name="Trazado 815021" d="M723.7,201.958a20.2,20.2,0,0,1-8.263-.178c0,.163.133.326.193.5-1.394,1.943-1.305,4.762-.994,7.848,0,0,6.468,7.907,6.6,8.307s8.975,2.107,8.975,2.107l2.759-5.474a27.846,27.846,0,0,1-9.272-13.114Z" transform="translate(480.757 20309.223)"/>
    <path id="Trazado_815022" data-name="Trazado 815022" d="M716.118,202.12c-3.1,2-2.967,6.067-2.314,9.094,1.483,2.448,3.545,3.931,5.934,7.521l2.27,2.359c4.45,2.967,12.58,3.382,15.413,1.8,1.854-2.566-.356-5.1-5.934-9.6,2.121,3.442-.3,5.118-5.771,4.658-2.611-.4-4.347-3.175-7.195-6.928C715.955,207.075,714.278,204.746,716.118,202.12Z" transform="translate(480.266 20309.383)"/>
    <path id="Trazado_815023" data-name="Trazado 815023" d="M690.293,152.673c6.572,23.736,15.933,24.715,21.08,41.33-2.344,14.479,2.833,24.106,8.2,37.369.638,1.484,1.231,3.056,1.84,4.643,2.329,1.869,12.224,3.412,15.384.742-.1-.312-.9-2.225-1.009-2.552-5.43-15.918-8.9-33.838-12.387-44.386-2.507-15.369-5.934-28.943-11.349-39,5.934-3.813,9.257-10.9,9.954-17l-21.065-.445-10.651-.222c-.223.742-.445,1.483-.623,2.27a29.833,29.833,0,0,0,.623,17.253Z" transform="translate(468.306 20276.041)" fill="#0071bc"/>
    <path id="Trazado_815024" data-name="Trazado 815024" d="M686.766,120.392a.95.95,0,0,1,0,.1c.46,1.483,1.024,3.264,1.691,5.148,0,0,1.1,3.264,2.833,7.981.341.816.653,1.632.964,2.477s.712,1.81,1.083,2.73c1.81,4.45-.3,8.011-1.706,12.224-.223.742-.445,1.483-.623,2.27,5.4,11.111,29.328,16.778,32.34-1.6l-.534-15.858v-1.81s7.6-.89,6.987-9.969c-.237-3.768-7.67-9.405-6.661-14.835,1.128-6.023-.638-14.182-4.688-13.025-9.865-.445-19.285,3.857-28.364,10.562C685.342,110.883,685.164,114.755,686.766,120.392Z" transform="translate(466.938 20258.135)" fill="#0071bc"/>
    <path id="Trazado_815025" data-name="Trazado 815025" d="M696.06,92l.416,9.45,2.552,8.174a24.567,24.567,0,0,0,6.186,5.934,4.287,4.287,0,0,0,6.705-4.287,20.921,20.921,0,0,0-1.483-4.45l-.608-3.308-1.484-6.3Z" transform="translate(471.871 20256.146)" fill="#ffb294"/>
    <path id="Trazado_815026" data-name="Trazado 815026" d="M697.32,94.36c0,.134,1.127,12.951,8.07,12.936,4.332,0,4.005-9.6,4.005-9.6Z" transform="translate(472.48 20257.287)" fill="#ffb294" opacity="0.5"/>
    <path id="Trazado_815027" data-name="Trazado 815027" d="M711.371,109.882c-3.219,1.246-7.64-2.344-9.628-4.2a5.786,5.786,0,0,1-1.484-2.285l-1.484-4.109h-2.67s-4.45-2.715-3.293-11.868c.593-4.539,6.631-8.812,11.452-8.589,7.61.356,10.147,5.163,12,8.382s.371,9.539.371,9.539S715.7,108.206,711.371,109.882Z" transform="translate(470.207 20249.775)" fill="#ffb294"/>
    <path id="Trazado_815028" data-name="Trazado 815028" d="M700.662,98.495s10.147-2.581,14.256-9.806a13.055,13.055,0,0,1,1.587,9.806,10.5,10.5,0,0,0-2.27-17.594c-9.272-4.851-20.991-2.225-21.688,8.693-.564,7.966,3.427,12.417,5.726,15.339C698.274,104.888,697.992,99.978,700.662,98.495Z" transform="translate(470.146 20249.65)" fill="#722811"/>
    <path id="Trazado_815029" data-name="Trazado 815029" d="M707.61,86.45l1.083-3.13c3.635,1.973,3.115,9.049.5,12.906C709.746,93.111,709.672,88.26,707.61,86.45Z" transform="translate(477.455 20251.951)" fill="#4d1b0b"/>
    <g id="Grupo_1070653" data-name="Grupo 1070653" transform="translate(1135.363 20338.93)">
      <path id="Trazado_625232" data-name="Trazado 625232" d="M755.406,136.749,674.572,89.782a1.127,1.127,0,0,1-.46-1.024A3.531,3.531,0,0,1,675.7,86a1.127,1.127,0,0,1,1.142-.1l80.82,46.967a1.1,1.1,0,0,0-1.127.119,3.471,3.471,0,0,0-1.587,2.744,1.113,1.113,0,0,0,.46,1.024Z" transform="translate(-674.106 -85.787)" fill="#c4720e"/>
      <path id="Trazado_625233" data-name="Trazado 625233" d="M730.2,121.32c-.89.519-1.6.119-1.6-.9a3.471,3.471,0,0,1,1.587-2.744c.876-.5,1.588-.1,1.6.9a3.5,3.5,0,0,1-1.587,2.744Z" transform="translate(-647.76 -70.477)" fill="#ffbe59"/>
    </g>
    <path id="Trazado_815030" data-name="Trazado 815030" d="M682.9,89.147a85.191,85.191,0,0,0-9.242-5.059c-2.8-1.38-4.332-2.359-5.756-1.291-2.284,1.721,2.789,4.45,3.931,5.148l8.367,4.836C678.967,90.734,681.89,88.539,682.9,89.147Z" transform="translate(457.973 20251.477)" fill="#333"/>
    <path id="Trazado_815031" data-name="Trazado 815031" d="M702.88,120.844l2.3,3.887,4.362-7.239c3.427-1.9,3.323-2.507,4.243-4.925l1.484-2.967,1.483-1.009s1.35.89,1.246.727l.193-.549a2.152,2.152,0,0,0-.252-1.246,2.181,2.181,0,0,0-2.314-1.484v-.267c.119-.653-.46-1.483-1.765-1.172,0-.682-.445-.89-1.617-.727-.089-.549-1.573-.653-2.21-.4l-1.187.89a31.4,31.4,0,0,0-3.4,5.37l-.223,5.519Z" transform="translate(475.168 20261.627)" fill="#ffb294"/>
    <path id="Trazado_815032" data-name="Trazado 815032" d="M722.021,86.783l-3.65-2.967s-9.939,5.756-13.47,9.361a19.5,19.5,0,0,0-5.252,11.007l-1.291-1.558s-1.958-1.958-3.783-7.521-7.937-7.566-7.937-7.566c5.177-2.225,13.974-11.571,20.561-11.378C712.883,77.867,720.864,82.125,722.021,86.783Z" transform="translate(467.316 20248.484)" fill="#d4eeff"/>
    <path id="Trazado_815033" data-name="Trazado 815033" d="M686.47,113.965c.43,1.6,1.023,3.308,1.661,5.207,0,0,.979,2.967,2.566,7.165.119.267.223.564.326.86.312.846.623,1.647.964,2.477s.712,1.81,1.083,2.73c1.81,4.45-.3,8.011-1.706,12.224-.223.742-.445,1.483-.623,2.27a29.833,29.833,0,0,0,.623,17.253c6.572,23.736,15.932,24.715,21.08,41.33-2.344,14.479,2.833,24.107,8.2,37.369-3.546-14.3-6.631-28.349-4.45-39.357-6.779-10.162-19.834-33.69-18.083-49.3a16.066,16.066,0,0,1,3.916-9.346c5.608-6.156,13.752-10.384,20.532-15.413h.074l-.119-1.216v-.579c-1.484.148-2.166-.519-3.783-1.914,0,0-1.142,7.21-7.417,7.981-11.171,1.38-12.091-12.654-23.187-24.166C687.553,108.8,686.945,111.206,686.47,113.965Z" transform="translate(467.234 20264.563)" fill="#0071bc" opacity="0.5"/>
    <path id="Trazado_815034" data-name="Trazado 815034" d="M702.722,123.947s-5.163-10.488-7.165-14.583c-1.32-2.685-3.293-6.023-5.667-5.237a5.074,5.074,0,0,0-3.4,3.768c-.786,3.442-.282,7.581,2.032,12.684l4.347,7.581,1.009,1.75a13,13,0,0,0,1.305,2.136c3.6,4.836,9.673,8.9,12.254,3.8C706.7,124.6,708.181,136.913,702.722,123.947Z" transform="translate(467.078 20261.953)" fill="#ffb294"/>
    <path id="Trazado_815035" data-name="Trazado 815035" d="M699.876,134.426c4.317-1.335,8.2-14.152,11.868-20.249-1.483-2.507-1.276-2.522-3.99-2.967L697.71,121.95Z" transform="translate(472.668 20265.434)" fill="#ffb294"/>
    <path id="Trazado_815036" data-name="Trazado 815036" d="M692.872,128.161l-4.347-7.581c-2.314-5.1-2.819-9.242-2.032-12.684a5.074,5.074,0,0,1,3.4-3.768c2.374-.786,4.347,2.552,5.667,5.237l6.186,12.58c-3.486-.816-7.8,5-7.788,8.085q0-.067,0-.134Z" transform="translate(467.078 20261.953)" fill="#d4eeff"/>
    <path id="Trazado_815037" data-name="Trazado 815037" d="M655.956,98.335c.133-3.575.445-10.666.92-10.815s.8,6.394.935,9.746l.9-.519c.134-3.59.445-10.681.935-10.815s.8,6.379.92,9.746l.92-.534c.119-3.575.43-10.666.92-10.815s.8,6.379.92,9.746l.92-.519c.119-3.59.445-10.681.92-10.815s.8,6.379.935,9.746l.9-.534c.134-3.575.445-10.666.92-10.815s.8,6.379.935,9.746l.9-.534c.134-3.575.445-10.666.935-10.8s.8,6.379.92,9.732l.92-.519c.119-3.59.43-10.681.92-10.815s.8,6.379.92,9.746l.92-.534c.134-3.575.445-10.666.92-10.8s.8,6.379.935,9.732l.9-.519c.134-3.59.445-10.681.935-10.815s.8,6.379.92,9.746l.92-.534c.119-3.575.43-10.666.92-10.815s.8,6.394.92,9.746l.92-.519c.119-3.59.445-10.681.92-10.815s.8,6.379.935,9.746l.9-.534c.134-3.575.445-10.666.935-10.815s.8,6.379.92,9.746v1.958l-1.973,1.142-.786.445-1.973,1.142-.727.445-1.988,1.142-.786.445L678,87.595l-.786.445-1.973,1.142-.786.46-1.988,1.142-.771.445-1.988,1.142-.786.46-1.973,1.142-.786.445-1.988,1.142-.771.46-1.988,1.142-.786.445-1.973,1.142-.786.46-1.914,1.1a9.853,9.853,0,0,1,0-1.973Z" transform="translate(452.457 20245.492)" fill="#333"/>
  </g>
</svg>
