<svg id="Grupo_246823" data-name="Grupo 246823" xmlns="http://www.w3.org/2000/svg" xmlns:xlink="http://www.w3.org/1999/xlink" width="63.494" height="78.1" viewBox="0 0 63.494 78.1">
  <defs>
    <clipPath id="clip-path">
      <rect id="Rectángulo_318659" data-name="Rectángulo 318659" width="63.494" height="78.099" fill="#fffad0"/>
    </clipPath>
  </defs>
  <g id="Grupo_246822" data-name="Grupo 246822" clip-path="url(#clip-path)">
    <path id="Trazado_266745" data-name="Trazado 266745" d="M46.312,4.5c-.2-1.333-.022-2.541,1.235-3.143,1.754-.839,3,.5,4.509,1.252a6.32,6.32,0,0,0,.575-.906,2.574,2.574,0,0,1,4.844,0,2.868,2.868,0,0,0,.458.909,1.633,1.633,0,0,0,.9.6c2.484.157,3.525,1.821,2.486,4.08-.389.845-.823,1.67-1.263,2.559.759.325,1.428.639,2.116.9,1.108.419,1.5.925,1.245,1.984A1.436,1.436,0,0,1,61.7,13.851c-.6-.052-1.215-.01-1.87-.01-.263,1.629-.713,3.126-2.233,4.042a.871.871,0,0,0-.2.78c.812,2.664,1.787,5.285,2.464,7.982a45.924,45.924,0,0,1,1.045,6.576,55.29,55.29,0,0,1,.374,7.236A16.136,16.136,0,0,1,57.4,50.773,58.615,58.615,0,0,1,52.9,54.945a3.014,3.014,0,0,0-.765.992c-2.2,5.41-6.275,8.669-11.764,10.319a7.4,7.4,0,0,1-.84.12c-.243.043-.482.11-.711.163.621,1.879,1.312,3.741,1.838,5.648a1.679,1.679,0,0,0,1.806,1.434c1.46.038,2.823,2.572,2.034,3.53A2.545,2.545,0,0,1,43.1,78a1.139,1.139,0,0,1-1.306-.957c-.067-.236-.5-.455-.8-.515a7.138,7.138,0,0,0-1.369-.022c-.356.763-.608,1.585-1.724,1.554-1.056-.03-1.159-.9-1.569-1.554H33.072l.181.254a6.877,6.877,0,0,1-1.493,1.249c-.73.324-1.293-.251-1.627-.834-.412-.72.153-2.306.951-2.972.145-.121.277-.32.438-.349,1.346-.237,1.081-.961.7-1.9a37.72,37.72,0,0,1-1.52-4.488,1.208,1.208,0,0,0-1.135-.989,11.019,11.019,0,0,1-7.905-5.359,21.156,21.156,0,0,1-1.595-4.034.8.8,0,0,0-.848-.653,27.038,27.038,0,0,1-4.7-.4c-3.289-.749-5.222-3.048-6.181-6.169a1.181,1.181,0,0,0-.963-.938C3.525,47.858.925,45.467.256,41.479a37.166,37.166,0,0,1-.208-6.687c.015-.958.845-1.231,1.716-1.231,2.281,0,4.562.007,6.843,0,2.537-.01,5.08.071,7.609-.084a48.389,48.389,0,0,0,6.521-.86c2.394-.479,4.74-1.2,7.11-1.8a1.791,1.791,0,0,1,1.945,1.256,1.8,1.8,0,0,1-1.345,1.818c-2.886.713-5.762,1.475-8.669,2.089a23.876,23.876,0,0,1-4.233.41c-4.832.14-9.665.22-14.511.323-.612,3.625.274,7.179,4.013,8.886a10.177,10.177,0,0,0,2.619.618c.816.13,1.311.388,1.348,1.349a5.888,5.888,0,0,0,5.9,5.779c1.347-.062,2.7-.014,4.048-.008a1.775,1.775,0,0,1,1.974,1.9c.018,3.763,2.656,6.709,6.03,8.079a4.948,4.948,0,0,0,1.765.253c2.345.03,4.7.146,7.033-.016a12.739,12.739,0,0,0,6.924-2.712A14.38,14.38,0,0,0,49.668,54a3.589,3.589,0,0,1,1.421-1.467c3.671-2.523,6.271-5.818,6.9-10.292a33.023,33.023,0,0,0,.029-6.837c-.162-2.309-.586-4.6-.939-6.9A47.579,47.579,0,0,0,54.3,19.078q-.278-.74-.536-1.487a1.408,1.408,0,0,1,1.244-2.01,1.7,1.7,0,0,0,1.685-1.728,14.868,14.868,0,0,0,.144-2.349,2.074,2.074,0,0,0-.771-1.229,3.785,3.785,0,0,0-6.179,2.245,48.533,48.533,0,0,1-2.1,7.207,20.084,20.084,0,0,1-5.712,8.22,1.552,1.552,0,0,1-1.994.021,1.518,1.518,0,0,1,0-2.232A17.807,17.807,0,0,0,44.623,19.4c.765-1.956,1.135-4.066,1.885-6.029.619-1.62.489-2.8-.959-3.9a3.78,3.78,0,0,1-1.337-2.069c-.307-1.51.677-2.376,2.1-2.905M57.643,7.718l.573-1.062a10.328,10.328,0,0,1-1.957-1.105,9.842,9.842,0,0,1-1.251-1.783C53.471,7.062,51.361,6,49.145,4.41A2.692,2.692,0,0,1,47.728,7.43c.525.57.77,1.175,1.67.362,2.032-1.836,6.31-1.739,8.245-.073M37.8,73.093q-.858-2.539-1.717-5.084c-.508-1.507-.72-1.617-2.357-1.172.587,1.79,1.187,3.573,1.754,5.367.433,1.372.98,1.6,2.32.889" transform="translate(0 0)" fill="#fffad0"/>
    <path id="Trazado_266746" data-name="Trazado 266746" d="M113.531,190.014c-.287,2.219-.418,4.473-.9,6.649a10.429,10.429,0,0,1-4.6,6.224,11.213,11.213,0,0,1-6.455,1.865,5.678,5.678,0,0,1-4.5-2.569c-.132-.174-.325-.347-.36-.544-.221-1.24-1.1-1.565-2.182-1.633a10.148,10.148,0,0,1-4.785-1.949,11.9,11.9,0,0,1-4.6-5.717c-.7-1.716,0-2.418,1.769-2.55,1.086-.081,2.19.062,3.273-.035,2.22-.2,4.432-.491,6.648-.744a53.175,53.175,0,0,0,11.379-3.1,25.556,25.556,0,0,0,2.451-1.125,1.675,1.675,0,0,1,2.618,1.635c.007,1.188,0,2.377,0,3.565l.249.032m-3.277-1.662a60.525,60.525,0,0,1-21.479,4.564,17.911,17.911,0,0,0,1.636,1.847,9.983,9.983,0,0,0,6.964,2.538c1.053-.035,1.528.483,1.618,1.526a3.165,3.165,0,0,0,.366,1.226,3.037,3.037,0,0,0,3.745,1.513,8.517,8.517,0,0,0,5.933-4.133c1.661-2.863,1.077-5.939,1.218-9.08" transform="translate(-68.51 -148.941)" fill="#fffad0"/>
    <path id="Trazado_266747" data-name="Trazado 266747" d="M251.084,200.017a11.538,11.538,0,0,1-4.669,8.841c-.394.307-.774.637-1.193.906a1.655,1.655,0,0,1-2.317-.514,1.672,1.672,0,0,1,.743-2.158,8.511,8.511,0,0,0,4.352-6.74,7.956,7.956,0,0,1,.2-1.392,1.349,1.349,0,0,1,1.459-1.078c.685.049,1.377.271,1.421,1.172.015.32,0,.642,0,.962" transform="translate(-195.932 -159.725)" fill="#fffad0"/>
    <path id="Trazado_266748" data-name="Trazado 266748" d="M270.492,166.777c1.082,0,1.435.345,1.43,1.386s-.456,1.505-1.461,1.5a1.432,1.432,0,0,1-1.436-1.512c-.011-.974.422-1.38,1.466-1.377" transform="translate(-217.154 -134.621)" fill="#fffad0"/>
    <path id="Trazado_266749" data-name="Trazado 266749" d="M178.995,150.222c0-.989.442-1.438,1.423-1.444,1.037-.006,1.478.439,1.476,1.49a1.45,1.45,0,0,1-2.9-.046" transform="translate(-144.483 -120.093)" fill="#fffad0"/>
    <path id="Trazado_266750" data-name="Trazado 266750" d="M178.986,351.939c-1.34.711-1.887.483-2.32-.889-.566-1.794-1.167-3.578-1.754-5.367,1.637-.445,1.849-.336,2.357,1.172q.857,2.545,1.717,5.084" transform="translate(-141.187 -278.846)" fill="#fffad0"/>
  </g>
</svg>
