<svg xmlns="http://www.w3.org/2000/svg" width="124" height="124" viewBox="0 0 124 124">
  <g id="Grupo_1075443" data-name="Grupo 1075443" transform="translate(-388.087 -6325.165)">
    <g id="Grupo_159182" data-name="Grupo 159182" transform="translate(3.087 4267.165)">
      <path id="Unión_12" data-name="Unión 12" d="M8438,11700a62,62,0,1,1-62,62A62,62,0,0,1,8438,11700Z" transform="translate(-7991 -9642)" fill="#1b3f5e"/>
      <circle id="Elipse_4842" data-name="Elipse 4842" cx="48" cy="48" r="48" transform="translate(399 2072)" fill="#1b3f5e"/>
    </g>
    <path id="Trazado_820729" data-name="Trazado 820729" d="M741.724,274.88c3.07.775,4.908,3,6.251,5.619,1.4,2.736,2.569,5.6,3.791,8.425a1.762,1.762,0,0,0,1.052,1.088,29.464,29.464,0,0,1,11,7.05,21.563,21.563,0,0,1,2.376,3.1,4.646,4.646,0,0,1-2,6.78c-1.645.751-3.383,1.3-5.054,1.993a1.321,1.321,0,0,0-.695.826,4.626,4.626,0,0,1-4.889,4.148c-.759.005-1.07.174-1.253.978a17.657,17.657,0,0,1-11.144,13.091,1.009,1.009,0,0,0-.771,1.105c.032,1.189.009,2.38.009,3.572.089.029.178.06.266.09q1.147-1.366,2.294-2.73c.887-1.056,1.516-1.141,2.6-.305q2.567,1.99,5.105,4.015c.287.23.665.552.7.861.081.805.625,1.016,1.407,1.331,0-.511.009-.932,0-1.352a28.468,28.468,0,0,1,1.458-10.812,26.274,26.274,0,0,1,7.949-10.684c1.28-1.1,2.638-2.1,3.961-3.148a1.514,1.514,0,0,1,2.014-.083,40.2,40.2,0,0,1,9.41,9.008,23.213,23.213,0,0,1,4.081,12.819c.043,1.177.033,2.357.013,3.535-.018,1.025-.605,1.638-1.484,1.61-.838-.025-1.309-.623-1.381-1.614a77.214,77.214,0,0,0-.709-8.247c-.74-4.042-3.042-7.311-5.98-10.107-1.538-1.463-3.2-2.8-4.818-4.2-4.4,3.335-8.356,6.833-10.319,12.047a22.267,22.267,0,0,0-1.326,7.96c.005,4.014.019,8.026-.017,12.039-.008.762.223,1,.976.969a31.859,31.859,0,0,1,3.819.01c.957.074,1.3-.322,1.577-1.167,1.179-3.594,2.435-7.163,3.647-10.747.261-.77.6-1.446,1.534-1.445s1.275.647,1.539,1.432c1.251,3.7,2.546,7.395,3.783,11.1a.986.986,0,0,0,1.147.813c1.431-.052,2.866-.043,4.3-.005.679.018.9-.237.862-.894a19.624,19.624,0,0,1,0-2.1,1.42,1.42,0,0,1,2.837-.039,24.513,24.513,0,0,1-.008,2.96,3.091,3.091,0,0,1-3.1,2.911c-1.719.046-3.44.037-5.16.009a1.155,1.155,0,0,0-1.13.649,6.253,6.253,0,0,0-.96,3.6c.06,5.892.025,11.785.025,17.677,0,.286.015.575-.013.859a1.449,1.449,0,0,1-1.476,1.445,1.41,1.41,0,0,1-1.369-1.526c-.018-3.375-.009-6.751-.009-10.127,0-.408,0-.815,0-1.29h-2.484v.985q0,4.921-.005,9.842a4.034,4.034,0,0,1-.118,1.13,1.284,1.284,0,0,1-1.455.971,1.309,1.309,0,0,1-1.26-1.22,7.438,7.438,0,0,1-.028-.954c0-6.274.055-12.549-.057-18.822-.018-1.014-.779-2.018-1.221-3.015-.045-.1-.263-.172-.4-.176-.757-.016-1.512-.008-2.4-.008v1.211q0,10.415,0,20.831c0,1.493-.439,2.16-1.413,2.169s-1.452-.687-1.452-2.142q0-10.415,0-20.83V348.7a13.021,13.021,0,0,1-1.94-.762,2.82,2.82,0,0,1-1.425-2.544c-.008-1.593-.062-3.188.014-4.777a1.732,1.732,0,0,0-.95-1.786c-.6-.341-1.195-.7-1.869-1.1-1.284,1.869-2.523,3.674-3.764,5.476-.819,1.189-1.112,1.289-2.581.813v26.258c0,.254.006.51,0,.765-.033,1.033-.583,1.678-1.432,1.684s-1.425-.635-1.429-1.668c-.01-3.09,0-6.179,0-9.269V344.078a13.014,13.014,0,0,1-12.006-.03v26.4c0,.318.017.639-.015.955a1.329,1.329,0,0,1-1.286,1.3,1.344,1.344,0,0,1-1.515-1.158,4.678,4.678,0,0,1-.048-1.046q0-12.708,0-25.417v-1.052c-1.518.452-1.757.368-2.619-.885-1.222-1.778-2.442-3.559-3.651-5.32a9.7,9.7,0,0,0-6.166,8.332c-.123,2.83-.065,5.667-.069,8.5q-.011,7.932-.005,15.862a5.171,5.171,0,0,1-.067,1.043,1.4,1.4,0,0,1-2.766-.1,6.44,6.44,0,0,1-.031-.859c0-7.644.011-15.288-.005-22.932a12.914,12.914,0,0,1,7.031-12.124c.182-.1.457-.272.46-.417.029-.908.711-1.308,1.3-1.777q2.284-1.805,4.583-3.6c1.137-.887,1.755-.822,2.67.263q1.133,1.343,2.259,2.693l.337-.036a21.181,21.181,0,0,1,.016-2.463c.172-1.449-.453-2.084-1.784-2.685a17.423,17.423,0,0,1-10.164-12.464c-.08-.34-.155-.679-.249-1.088-.5-.024-1.006-.044-1.508-.075a4.528,4.528,0,0,1-4.333-3.972,1.163,1.163,0,0,0-.935-1.1c-1.561-.541-3.112-1.119-4.629-1.772a4.7,4.7,0,0,1-2.169-7.074c2.759-4.376,6.823-7.189,11.46-9.152a5.8,5.8,0,0,0,3.657-3.863,40.554,40.554,0,0,1,3.052-6.559c1.39-2.556,3.17-4.779,6.208-5.536h2.1c1.282.663,2.575,1.305,3.84,2a1.984,1.984,0,0,0,2.067,0c1.267-.691,2.558-1.336,3.839-2ZM719.7,305.407c0,2.26-.1,4.524.019,6.775a14.955,14.955,0,0,0,10.3,13.369,15.2,15.2,0,0,0,16.268-4.582c3.984-4.62,3.709-10.117,3.5-15.672-.335-.022-.618-.038-.9-.057a28.818,28.818,0,0,1-11.658-2.932,1.94,1.94,0,0,0-1.609-.1c-2.626.743-5.242,1.557-7.913,2.093-2.607.524-5.274.743-8,1.106m20.406-8.732c-.158-.01-.315-.027-.475-.028-2.8-.025-5.6-.059-8.4-.069-1.362-.005-2.127-.952-1.633-2.062.335-.756,1.009-.791,1.688-.815a90.53,90.53,0,0,1,20.811,1.555c2.355.463,4.68,1.079,7.008,1.622-11.576-9.8-38.005-9.333-48.755.086.34-.093.575-.174.818-.224,3.923-.794,7.84-1.614,11.773-2.357a1.348,1.348,0,0,1,1.743,1.282c.067.835-.467,1.409-1.46,1.552-.976.14-1.958.248-2.928.419-.225.039-.59.272-.6.426-.046,1.417-.027,2.837-.027,4.346,7.3-.522,14.239-1.764,20.435-5.732m-19.194-8.129a57.166,57.166,0,0,1,27.622-.019c-.113-.335-.165-.55-.254-.748-.688-1.537-1.3-3.113-2.1-4.592a24.931,24.931,0,0,0-2.538-3.908c-1.43-1.757-3.137-1.958-5.1-.834-.579.331-1.151.679-1.747.979a4.152,4.152,0,0,1-3.943.05c-.793-.4-1.56-.856-2.343-1.28a3.151,3.151,0,0,0-3.44.093,7.75,7.75,0,0,0-1.847,1.758,35.882,35.882,0,0,0-4.306,8.5m8.258,52.331a9.756,9.756,0,0,0,11.168.011c-.821-.756-1.642-1.495-2.444-2.255a1.5,1.5,0,0,1-.137-2.4c.277-.345.56-.686.867-1.06-1.622-1.838-.812-4.1-1.126-6.083h-5.516c-.242,2.042.461,4.276-1.081,6.1.263.328.478.6.7.87.949,1.156.913,1.731-.183,2.75-.744.692-1.493,1.376-2.247,2.068m38.1-2.463-.207.025c-.873,2.547-1.724,5.1-2.633,7.634a1.635,1.635,0,0,0,.172,1.689,7.379,7.379,0,0,1,1.36,5.212c-.1,1.253-.018,2.52-.018,3.814h2.484c0-.805.025-1.561-.005-2.315-.1-2.523-.178-5.03,1.546-7.166a.973.973,0,0,0,.06-.784c-.9-2.708-1.834-5.408-2.758-8.11m-50.541-40.009a1.939,1.939,0,0,0-.514.006q-4.9,1.546-9.8,3.114c-.508.164-1.161.387-.98,1.071.158.6.444,1.387.912,1.626,1.487.759,3.085,1.3,4.725,1.962.887-2.864,2.9-3.922,5.656-3.785Zm41.752,7.757c1.57-.632,3.109-1.221,4.62-1.876a1.7,1.7,0,0,0,.986-1.71c0-.726-.542-.9-1.038-1.06-3.225-1.049-6.458-2.075-9.692-3.1a2.218,2.218,0,0,0-.586-.006v3.9c3.956.664,4.327.908,5.71,3.852m-8.636-3.768c0-1.449.019-2.811-.022-4.171a.758.758,0,0,0-.469-.552c-1.409-.235-2.828-.417-4.245-.6a.823.823,0,0,0-.539.093c-1.517,1.076-3.021,2.171-4.566,3.288a28.544,28.544,0,0,0,9.841,1.941m-5.289,30.18c-1.322,1.577-2.6,3.1-3.923,4.685l3.79,3.46c1.262-1.839,2.454-3.578,3.678-5.364l-3.544-2.781M721.4,335.362l3.678,5.356c1.308-1.2,2.533-2.313,3.79-3.46l-3.926-4.686-3.542,2.791m-4.681-24.4v-5.6c-2.089-.228-2.814.417-2.822,2.44,0,.285,0,.57,0,.855.013,1.944.782,2.593,2.82,2.308m36.069-.023c1.939.345,2.8-.332,2.819-2.177q.008-.572,0-1.146c-.022-1.843-.853-2.52-2.82-2.225Z" transform="translate(-291.81 6061.063)" fill="#fff"/>
  </g>
</svg>
