<svg xmlns="http://www.w3.org/2000/svg" width="124" height="124" viewBox="0 0 124 124">
  <g id="Grupo_1075448" data-name="Grupo 1075448" transform="translate(-1091.087 -6769.165)">
    <g id="Grupo_159184" data-name="Grupo 159184" transform="translate(706.087 4711.165)">
      <path id="Unión_12" data-name="Unión 12" d="M8438,11700a62,62,0,1,1-62,62A62,62,0,0,1,8438,11700Z" transform="translate(-7991 -9642)" fill="#1b3f5e"/>
      <circle id="Elipse_4842" data-name="Elipse 4842" cx="48" cy="48" r="48" transform="translate(399 2072)" fill="#1b3f5e"/>
    </g>
    <path id="Trazado_271238" data-name="Trazado 271238" d="M405.985,559.571a2.287,2.287,0,0,1-2.257,1.178q-40.249-.032-80.5-.016c-.194,0-.388.007-.581,0a1.67,1.67,0,0,1-1.655-1.632,1.637,1.637,0,0,1,1.688-1.674c2.711-.022,5.422-.008,8.133-.009h2.651a10.38,10.38,0,0,1-2.523-6.6c-.258-.016-.5-.042-.738-.043-1.327,0-2.655,0-3.983,0a4.989,4.989,0,0,1-5.234-5.2c-.007-1.162,0-2.323,0-3.485q0-19.462,0-38.922c0-3.491,2.018-5.515,5.5-5.515q23.235,0,46.473,0c3.428,0,5.462,2.04,5.464,5.472q0,5.063,0,10.124v1h.935c4.177,0,8.354.019,12.531-.007a5.167,5.167,0,0,1,5.045,3.095q4.135,8.309,8.307,16.6c.258.516.495,1.042.74,1.564v11.123a5.522,5.522,0,0,1-3.061,3.79c-.16.073-.248.444-.26.683a10.136,10.136,0,0,1-2.079,5.745c-.119.157-.213.332-.365.573,1.251,0,2.385.053,3.512-.015a2.175,2.175,0,0,1,2.252,1.177Zm-30.879-12.119v-.876q0-21.7,0-43.4c0-1.685-.538-2.212-2.249-2.212h-46.3c-1.715,0-2.249.525-2.249,2.21q0,15.058,0,30.119v.876c1.687,0,3.284-.016,4.882,0a1.626,1.626,0,0,1,1.748,1.7q.039,3.278,0,6.555a1.635,1.635,0,0,1-1.754,1.7c-1.189.022-2.379.006-3.568.007h-1.308c0,.492,0,.851,0,1.21.006,1.529.576,2.106,2.1,2.109,1.438,0,2.877-.023,4.314.013a1,1,0,0,0,1.093-.7,9.942,9.942,0,0,1,18.167-.027,1.07,1.07,0,0,0,1.16.731q11.533-.03,23.067-.013Zm3.341-.1a1,1,0,0,0,.288.094c1.383.007,2.767.033,4.149-.019.228-.008.535-.316.65-.558a9.644,9.644,0,0,1,8.821-6.015c4.237-.146,7.341,1.868,9.321,5.612.1.185.2.364.306.545l.283.032a7.234,7.234,0,0,0,.381-1.572c.042-2.323.018-4.648.018-6.972v-1h-1.018q-8.922,0-17.846,0c-1.472,0-2.051-.586-2.052-2.072q0-6.225,0-12.451c0-1.487.579-2.074,2.047-2.076q5.1-.005,10.21,0h.977c-.382-.775-.719-1.405-1.007-2.058a2.019,2.019,0,0,0-2.1-1.275c-4.205.03-8.411.013-12.617.015-.265,0-.53.023-.811.036Zm-29.878,10.007h36.474a26.346,26.346,0,0,1-1.614-3.064,28.607,28.607,0,0,1-.852-3.477H351.035a27.449,27.449,0,0,1-.838,3.421,27.982,27.982,0,0,1-1.627,3.12m36.5-23.253H401.6c-1.623-3.248-3.19-6.411-4.8-9.552-.1-.2-.534-.325-.814-.327-2.489-.026-4.978-.015-7.466-.015H385.1c-.016.213-.034.345-.034.477,0,3.121,0,6.244,0,9.418m-50.8,16.631a6.638,6.638,0,1,0,6.692-6.6,6.658,6.658,0,0,0-6.692,6.6m51.795.007a6.638,6.638,0,1,0,6.684-6.61,6.656,6.656,0,0,0-6.684,6.61m-61.71-9.987h3.209v-3.223h-3.209Z" transform="translate(792.015 6299.404)" fill="#fff"/>
  </g>
</svg>
