<svg xmlns="http://www.w3.org/2000/svg" width="124" height="124" viewBox="0 0 124 124">
  <g id="Grupo_1075445" data-name="Grupo 1075445" transform="translate(-1091.087 -6325.165)">
    <g id="Grupo_159184" data-name="Grupo 159184" transform="translate(706.087 4267.165)">
      <path id="Uni칩n_12" data-name="Uni칩n 12" d="M8438,11700a62,62,0,1,1-62,62A62,62,0,0,1,8438,11700Z" transform="translate(-7991 -9642)" fill="#1b3f5e"/>
      <circle id="Elipse_4842" data-name="Elipse 4842" cx="48" cy="48" r="48" transform="translate(399 2072)" fill="#1b3f5e"/>
    </g>
    <g id="Grupo_1072073" data-name="Grupo 1072073" transform="translate(214.609 -2056.607)">
      <path id="Trazado_271232" data-name="Trazado 271232" d="M696.673,754.819a8.968,8.968,0,0,1,2.682-5.31,44.794,44.794,0,0,1,3.866-2.654c-1.618-7.556.361-14.2,6.849-18.971,6.464-4.755,13.361-4.667,20.3-.738,1.3-1.226,2.993-1.6,4.65-2.066.786-.221,1.564-.468,2.352-.679.817-.219,1.019-.73.822-1.508-.385-1.523-.75-3.052-1.1-4.582a7.236,7.236,0,0,1-.156-1.168c-.144-2.259,1.176-3.727,3.429-3.523a32.406,32.406,0,0,1,4.779,1c2.213.543,2.326.49,2.947-1.693.4-1.394.768-2.8,1.282-4.152.989-2.6,3.285-3.209,5.423-1.418,1.273,1.066,2.422,2.278,3.65,3.4,1.09,1,1.333,1,2.419.017,1.232-1.118,2.379-2.334,3.656-3.4,2.192-1.821,4.481-1.217,5.472,1.446.578,1.554.961,3.179,1.456,4.764.443,1.416.639,1.516,2.1,1.175,1.529-.357,3.044-.782,4.585-1.078,2.968-.571,4.743,1.186,4.182,4.15-.3,1.57-.737,3.114-1.1,4.674-.323,1.4-.217,1.6,1.16,2.031,1.555.488,3.15.866,4.677,1.427,2.808,1.03,3.418,3.265,1.526,5.558-.922,1.117-1.968,2.133-2.975,3.179-1.458,1.518-1.457,1.729-.02,3.22,1.029,1.066,2.089,2.11,3.035,3.246,1.819,2.181,1.217,4.478-1.454,5.468-1.582.587-3.235.978-4.847,1.487-1.283.4-1.416.655-1.111,1.985.359,1.56.8,3.1,1.1,4.675.557,2.911-1.037,4.629-3.961,4.2-1.668-.247-3.3-.748-4.949-1.109-1.385-.3-1.5-.234-1.934,1.144-.488,1.556-.874,3.147-1.427,4.679-1.015,2.807-3.321,3.413-5.647,1.518-.817-.665-1.564-1.415-2.406-2.184-2.22,1.756-4.832,1.823-7.5,1.8-5.72-.043-11.441-.012-17.251-.012-.022.284-.06.542-.06.8,0,5.782-.011,11.563.016,17.345a1.784,1.784,0,0,0,.428,1.1,9,9,0,0,1-4.664,15.059c-.231.056-.457.129-.685.194h-2.362a1.374,1.374,0,0,0-.314-.151,8.614,8.614,0,0,1-6.945-6.056,8.717,8.717,0,0,1,2.095-9.065,1.937,1.937,0,0,0,.414-1.2c.026-5.687.019-11.375.016-17.061,0-.294-.025-.588-.042-.968h-1.122q-9.075,0-18.151,0a9.015,9.015,0,0,1-7.144-3.331A11.376,11.376,0,0,1,696.673,757Zm17.919,1.01c-.717,0-1.382-.045-2.04.012-.7.061-.918-.2-.993-.9a5.959,5.959,0,1,0-5.437,6.88c6.083.021,12.165.008,18.249,0,.257,0,.514-.045.809-.073v-1.08c0-3.572-.021-7.142.009-10.712a5.991,5.991,0,1,1,11.978.071c.036,3.57.009,7.142.009,10.712v1.086h1.148q8.488,0,16.977,0a16.4,16.4,0,0,0,2.082-.1,5.717,5.717,0,0,0,4.961-4.067,5.882,5.882,0,0,0-1.68-6.284,5.99,5.99,0,0,0-9.925,3.732c-.036.255-.3.661-.487.679-.826.074-1.663.032-2.6.032.39-4.818,2.913-7.657,7.373-8.887-.016-.23-.021-.408-.042-.586-.86-7.34-9.707-12.22-16.428-9.084-.552.258-.477.572-.406,1.009.211,1.319.395,2.642.591,3.971H735.7c-.041-.481-.079-.9-.113-1.323a14.976,14.976,0,1,0-29.461,4.928,1.309,1.309,0,0,0,1.266,1.2,8.84,8.84,0,0,1,7.2,8.774m50.192-3.894a16.357,16.357,0,0,0,11.073-18.826c-1.5-8.274-9.531-14.106-18.183-13.152-6.952.766-14.355,7.784-14.072,13.282,1.167.212,2.345.335,3.467.658a15.64,15.64,0,0,1,3.268,1.3,14.814,14.814,0,0,1,7.678,10.959c.053.314.3.788.535.848a9.322,9.322,0,0,1,6.234,4.928M737.155,734.6a5.827,5.827,0,0,1,1.436-.494c1.426-.141,1.852-.931,2.182-2.277a19.467,19.467,0,1,1,25.638,22.783c-.387.145-.786.19-.762.807a8.994,8.994,0,0,1-1.224,4.95c-.1.18-.19.542-.1.635.813.817,1.667,1.591,2.668,2.528.294-.893.505-1.484.683-2.085.359-1.216.652-2.453,1.059-3.653.892-2.623,2.375-3.457,5.107-2.884,1.271.267,2.518.64,3.784.929.589.135,1.2.189,1.92.3-.086-.511-.119-.808-.187-1.1-.387-1.647-.846-3.279-1.16-4.939-.447-2.363.366-3.779,2.628-4.592,1.361-.489,2.781-.814,4.166-1.242.562-.174,1.1-.427,1.773-.691-.323-.41-.521-.7-.763-.96-1.123-1.187-2.313-2.313-3.378-3.549a3.717,3.717,0,0,1-.008-5.462c.922-1.078,1.96-2.06,2.925-3.1.4-.432.751-.91,1.215-1.48-.575-.222-.977-.411-1.4-.536-1.447-.429-2.919-.784-4.347-1.267-2.426-.82-3.263-2.23-2.8-4.736.262-1.423.676-2.82.993-4.233.122-.542.166-1.1.263-1.781-.465.072-.76.1-1.044.162-1.647.386-3.279.846-4.938,1.16-2.446.462-3.881-.388-4.69-2.748-.479-1.4-.826-2.841-1.263-4.254-.154-.5-.4-.962-.655-1.576-.546.483-.961.828-1.35,1.2-1.033.978-2.013,2.015-3.089,2.94-1.894,1.627-3.651,1.627-5.535.005-1.076-.927-2.054-1.967-3.1-2.932-.428-.4-.911-.733-1.482-1.188-.246.72-.448,1.252-.611,1.8-.416,1.389-.745,2.807-1.236,4.167-.819,2.262-2.233,3.053-4.6,2.6-1.452-.276-2.877-.694-4.32-1.023-.514-.118-1.044-.162-1.77-.271.16.805.283,1.413.4,2.02.344,1.742.767,3.474,1,5.231a2.612,2.612,0,0,1-1.656,2.865c-1.58.659-3.24,1.123-4.865,1.677-.613.208-1.221.431-1.717.607l4.206,5.693m-8.929,27.239v3.032h2.893v3.006h-2.892v2.961h2.892v3.039h-2.89v2.96h2.89v3.042h-2.961c0,1.3-.061,2.478.017,3.648a2.665,2.665,0,0,1-1.05,2.473,5.782,5.782,0,0,0-1.082,7.427,5.966,5.966,0,1,0,8.8-7.775,1.745,1.745,0,0,1-.692-1.535q.026-16.659.01-33.317a12.429,12.429,0,0,0-.046-1.36,2.954,2.954,0,0,0-2.72-2.6,2.87,2.87,0,0,0-3.065,2.168,33.624,33.624,0,0,0-.215,3.862h3.008v3h-2.894v3h2.9v2.967Z" transform="translate(195.718 7695.919)" fill="#fff"/>
      <rect id="Rect치ngulo_321324" data-name="Rect치ngulo 321324" width="2.86" height="2.923" transform="translate(925.467 8484.781)" fill="#fff"/>
    </g>
  </g>
</svg>
