<svg xmlns="http://www.w3.org/2000/svg" xmlns:xlink="http://www.w3.org/1999/xlink" width="1030" height="715.381" viewBox="0 0 1030 715.381">
  <defs>
    <clipPath id="clip-path">
      <path id="Trazado_625010" data-name="Trazado 625010" d="M277.178,306.642a14.5,14.5,0,0,1,3.567,1.505c8.082,4.665,14.643,16.013,14.643,25.343a16.09,16.09,0,0,1-.436,3.868c-.421,1.716-2.664,4.831-5.7,8.488.752,8.2,1.61,48.384-3.431,53.425-3.01,3.01-24.786-5.854-24.786-5.854s6.607-45.434,15.049-55.126c-5.523-5.6-9.9-14.493-9.887-21.7C266.117,308.719,270.827,304.791,277.178,306.642Z" transform="translate(-261.03 -306.189)" fill="none"/>
    </clipPath>
  </defs>
  <g id="Grupo_1075435" data-name="Grupo 1075435" transform="translate(-285 -19304.486)">
    <rect id="Rectángulo_296060" data-name="Rectángulo 296060" width="1030" height="659.382" rx="15" transform="translate(285 19360.486)" fill="#f2eddc" opacity="0.5"/>
    <g id="_12" data-name="12" transform="translate(327.5 19304.486)">
      <path id="Trazado_631571" data-name="Trazado 631571" d="M363.989,136.309,206.515,227.225,49.01,136.309,206.515,45.36Z" transform="translate(108.495 -45.36)" fill="#783b25"/>
      <path id="Trazado_631572" data-name="Trazado 631572" d="M325.378,157.687,216.3,220.676,58.83,129.727,167.872,66.77C269.169,77.89,223.277,148.72,325.378,157.687Z" transform="translate(98.675 -38.778)" fill="#61301d"/>
      <path id="Trazado_631574" data-name="Trazado 631574" d="M223.823,175.981l-7.52,4.339L58.83,89.371,66.511,85C176,106.018,148.943,157.759,223.823,175.981Z" transform="translate(98.675 1.578)" fill="#783b25"/>
      <path id="Trazado_631575" data-name="Trazado 631575" d="M255.493,100.077,98.02,190.994V164.577L255.493,73.66Z" transform="translate(216.991 17.289)" fill="#5c2c1b"/>
      <path id="Trazado_631576" data-name="Trazado 631576" d="M49.01,100.077l157.505,90.917V164.577L49.01,73.66Z" transform="translate(108.495 17.289)" fill="#452014"/>
      <path id="Trazado_631577" data-name="Trazado 631577" d="M255.493,145.641,98.02,236.589V172.8L255.493,81.88Z" transform="translate(216.991 35.486)" fill="#a8804c"/>
      <path id="Trazado_631578" data-name="Trazado 631578" d="M49.01,145.641l157.505,90.949V172.8L49.01,81.88Z" transform="translate(108.495 35.486)" fill="#87673d"/>
      <path id="Trazado_631579" data-name="Trazado 631579" d="M255.493,137.328,98.02,228.245V192.669L255.493,101.72Z" transform="translate(216.991 79.406)" fill="#878787"/>
      <path id="Trazado_631580" data-name="Trazado 631580" d="M49.01,137.328l157.505,90.917V192.669L49.01,101.72Z" transform="translate(108.495 79.406)" fill="#636363"/>
      <path id="Trazado_631581" data-name="Trazado 631581" d="M413,164.577,255.493,255.525,98.02,164.577,255.493,73.66Z" transform="translate(216.991 17.289)" fill="#783b25"/>
      <path id="Trazado_631582" data-name="Trazado 631582" d="M374.388,185.9,265.313,249.016,107.84,158.1,216.914,95.11C318.179,106.1,272.416,176.932,374.388,185.9Z" transform="translate(207.171 23.959)" fill="#61301d"/>
      <path id="Trazado_631583" data-name="Trazado 631583" d="M310.356,197.382l-44.992,26.192L107.89,132.658l45.282-26.128C256.622,123.177,230.751,181.282,310.356,197.382Z" transform="translate(207.281 49.24)" fill="#87422a"/>
      <path id="Trazado_631584" data-name="Trazado 631584" d="M272.833,204.182l-7.52,4.5L107.84,117.765l7.681-4.435C224.981,134.251,197.953,185.96,272.833,204.182Z" transform="translate(207.171 64.293)" fill="#783b25"/>
      <path id="Trazado_631585" data-name="Trazado 631585" d="M304.525,128.367,147.02,219.284V192.9L304.525,101.95Z" transform="translate(325.464 79.915)" fill="#5c2c1b"/>
      <path id="Trazado_631586" data-name="Trazado 631586" d="M98.02,128.367l157.473,90.917V192.9L98.02,101.95Z" transform="translate(216.991 79.915)" fill="#452014"/>
      <path id="Trazado_631587" data-name="Trazado 631587" d="M304.525,173.963,147.02,264.879V201.087L304.525,110.17Z" transform="translate(325.464 98.112)" fill="#a8804c"/>
      <path id="Trazado_631588" data-name="Trazado 631588" d="M98.02,173.963l157.473,90.917V201.087L98.02,110.17Z" transform="translate(216.991 98.112)" fill="#87673d"/>
      <path id="Trazado_631589" data-name="Trazado 631589" d="M304.525,165.6,147.02,256.545V220.937L304.525,130.02Z" transform="translate(325.464 142.055)" fill="#878787"/>
      <path id="Trazado_631590" data-name="Trazado 631590" d="M98.02,165.6l157.473,90.949V220.937L98.02,130.02Z" transform="translate(216.991 142.055)" fill="#636363"/>
      <path id="Trazado_631591" data-name="Trazado 631591" d="M462.031,192.9,304.525,283.815,147.02,192.9,304.525,101.95Z" transform="translate(325.464 79.915)" fill="#783b25"/>
      <path id="Trazado_631592" data-name="Trazado 631592" d="M423.4,214.277,314.323,277.234,156.85,186.317,265.924,123.36C367.157,134.48,321.393,205.31,423.4,214.277Z" transform="translate(315.666 86.497)" fill="#61301d"/>
      <path id="Trazado_631593" data-name="Trazado 631593" d="M359.476,225.7l-45.153,26.16L156.85,160.948,202.1,134.82C305.743,151.467,279.872,209.572,359.476,225.7Z" transform="translate(315.666 111.866)" fill="#87422a"/>
      <path id="Trazado_631594" data-name="Trazado 631594" d="M321.843,232.583l-7.52,4.339L156.85,146l7.681-4.435C273.991,162.652,246.963,214.393,321.843,232.583Z" transform="translate(315.666 126.809)" fill="#783b25"/>
      <path id="Trazado_631595" data-name="Trazado 631595" d="M353.535,156.635,196.03,247.584V221.167L353.535,130.25Z" transform="translate(433.959 142.564)" fill="#5c2c1b"/>
      <path id="Trazado_631596" data-name="Trazado 631596" d="M147.02,156.635l157.505,90.949V221.167L147.02,130.25Z" transform="translate(325.464 142.564)" fill="#452014"/>
      <path id="Trazado_631597" data-name="Trazado 631597" d="M353.535,202.253,196.03,293.2V229.409L353.535,138.46Z" transform="translate(433.959 160.739)" fill="#a8804c"/>
      <path id="Trazado_631598" data-name="Trazado 631598" d="M147.02,202.253,304.525,293.2V229.409L147.02,138.46Z" transform="translate(325.464 160.739)" fill="#87673d"/>
      <path id="Trazado_631599" data-name="Trazado 631599" d="M353.535,193.918,196.03,284.835V249.259L353.535,158.31Z" transform="translate(433.959 204.682)" fill="#878787"/>
      <path id="Trazado_631600" data-name="Trazado 631600" d="M147.02,193.918l157.505,90.917V249.259L147.02,158.31Z" transform="translate(325.464 204.682)" fill="#636363"/>
      <path id="Trazado_631601" data-name="Trazado 631601" d="M511.041,221.167,353.535,312.115,196.03,221.167,353.535,130.25Z" transform="translate(433.959 142.564)" fill="#783b25"/>
      <path id="Trazado_631602" data-name="Trazado 631602" d="M472.408,242.649,363.333,305.606,205.86,214.657,314.934,151.7C416.167,162.659,370.4,233.522,472.408,242.649Z" transform="translate(424.161 149.234)" fill="#61301d"/>
      <path id="Trazado_631603" data-name="Trazado 631603" d="M408.486,253.995l-45.153,26.192L205.86,189.238,251.11,163.11C354.753,179.789,328.882,237.862,408.486,253.995Z" transform="translate(424.161 174.493)" fill="#87422a"/>
      <path id="Trazado_631604" data-name="Trazado 631604" d="M370.853,260.883l-7.52,4.339L205.86,174.273l7.681-4.4C323,190.952,295.973,242.661,370.853,260.883Z" transform="translate(424.161 189.458)" fill="#783b25"/>
      <path id="Trazado_631605" data-name="Trazado 631605" d="M402.545,184.957,245.04,275.874V249.489L402.545,158.54Z" transform="translate(542.455 205.191)" fill="#5c2c1b"/>
      <path id="Trazado_631606" data-name="Trazado 631606" d="M196.03,184.957l157.505,90.917V249.489L196.03,158.54Z" transform="translate(433.959 205.191)" fill="#452014"/>
      <path id="Trazado_631607" data-name="Trazado 631607" d="M402.545,230.553,245.04,321.469V257.677L402.545,166.76Z" transform="translate(542.455 223.388)" fill="#a8804c"/>
      <path id="Trazado_631608" data-name="Trazado 631608" d="M196.03,230.553l157.505,90.917V257.677L196.03,166.76Z" transform="translate(433.959 223.388)" fill="#87673d"/>
      <path id="Trazado_631609" data-name="Trazado 631609" d="M402.545,222.186,245.04,313.135V277.527L402.545,186.61Z" transform="translate(542.455 267.33)" fill="#878787"/>
      <path id="Trazado_631610" data-name="Trazado 631610" d="M196.03,222.186l157.505,90.949V277.527L196.03,186.61Z" transform="translate(433.959 267.33)" fill="#636363"/>
      <path id="Trazado_631611" data-name="Trazado 631611" d="M315.011,164.577,157.505,255.525,0,164.577,157.505,73.66Z" transform="translate(0 17.289)" fill="#783b25"/>
      <path id="Trazado_631613" data-name="Trazado 631613" d="M212.336,197.382l-44.992,26.192L9.87,132.658,55.119,106.53C158.634,123.177,132.763,181.282,212.336,197.382Z" transform="translate(-9.709 49.24)" fill="#87422a"/>
      <path id="Trazado_631614" data-name="Trazado 631614" d="M174.791,204.182l-7.488,4.5L9.83,117.765l7.681-4.435C126.971,134.251,99.943,185.96,174.791,204.182Z" transform="translate(-9.798 64.293)" fill="#783b25"/>
      <path id="Trazado_631615" data-name="Trazado 631615" d="M206.515,128.367,49.01,219.284V192.9L206.515,101.95Z" transform="translate(108.495 79.915)" fill="#5c2c1b"/>
      <path id="Trazado_631616" data-name="Trazado 631616" d="M0,128.367l157.505,90.917V192.9L0,101.95Z" transform="translate(0 79.915)" fill="#452014"/>
      <path id="Trazado_631617" data-name="Trazado 631617" d="M206.515,173.963,49.01,264.879V201.087L206.515,110.17Z" transform="translate(108.495 98.112)" fill="#a8804c"/>
      <path id="Trazado_631618" data-name="Trazado 631618" d="M0,173.963l157.505,90.917V201.087L0,110.17Z" transform="translate(0 98.112)" fill="#87673d"/>
      <path id="Trazado_631619" data-name="Trazado 631619" d="M206.515,165.6,49.01,256.545V220.937L206.515,130.02Z" transform="translate(108.495 142.055)" fill="#878787"/>
      <path id="Trazado_631620" data-name="Trazado 631620" d="M0,165.6l157.505,90.949V220.937L0,130.02Z" transform="translate(0 142.055)" fill="#636363"/>
      <path id="Trazado_631621" data-name="Trazado 631621" d="M363.989,192.9,206.515,283.815,49.01,192.9,206.515,101.95Z" transform="translate(108.495 79.915)" fill="#783b25"/>
      <path id="Trazado_631622" data-name="Trazado 631622" d="M325.378,214.166,216.3,277.123,58.83,186.367,167.872,123.41C269.169,134.369,223.277,205.2,325.378,214.166Z" transform="translate(98.675 86.608)" fill="#61301d"/>
      <path id="Trazado_631623" data-name="Trazado 631623" d="M261.456,225.594l-44.992,26.16L58.83,161l45.249-26.128C207.755,151.356,181.852,209.461,261.456,225.594Z" transform="translate(98.675 111.977)" fill="#87422a"/>
      <path id="Trazado_631624" data-name="Trazado 631624" d="M223.823,232.472l-7.52,4.339L58.83,146.055l7.681-4.435C176,162.542,148.943,214.283,223.823,232.472Z" transform="translate(98.675 126.92)" fill="#783b25"/>
      <path id="Trazado_631625" data-name="Trazado 631625" d="M255.493,156.635,98.02,247.584V221.167L255.493,130.25Z" transform="translate(216.991 142.564)" fill="#5c2c1b"/>
      <path id="Trazado_631626" data-name="Trazado 631626" d="M49.01,156.635l157.505,90.949V221.167L49.01,130.25Z" transform="translate(108.495 142.564)" fill="#452014"/>
      <path id="Trazado_631627" data-name="Trazado 631627" d="M255.493,202.253,98.02,293.2V229.409L255.493,138.46Z" transform="translate(216.991 160.739)" fill="#a8804c"/>
      <path id="Trazado_631628" data-name="Trazado 631628" d="M49.01,202.253,206.515,293.2V229.409L49.01,138.46Z" transform="translate(108.495 160.739)" fill="#87673d"/>
      <path id="Trazado_631629" data-name="Trazado 631629" d="M255.493,193.918,98.02,284.835V249.259L255.493,158.31Z" transform="translate(216.991 204.682)" fill="#878787"/>
      <path id="Trazado_631630" data-name="Trazado 631630" d="M49.01,193.918l157.505,90.917V249.259L49.01,158.31Z" transform="translate(108.495 204.682)" fill="#636363"/>
      <path id="Trazado_631631" data-name="Trazado 631631" d="M413,221.167,255.493,312.115,98.02,221.167,255.493,130.25Z" transform="translate(216.991 142.564)" fill="#783b25"/>
      <path id="Trazado_631632" data-name="Trazado 631632" d="M374.388,242.649,265.313,305.606,107.84,214.657,216.914,151.7C318.179,162.659,272.416,233.522,374.388,242.649Z" transform="translate(207.171 149.234)" fill="#61301d"/>
      <path id="Trazado_631633" data-name="Trazado 631633" d="M310.356,253.995l-44.992,26.192L107.89,189.238l45.282-26.128C256.622,179.789,230.751,237.862,310.356,253.995Z" transform="translate(207.281 174.493)" fill="#87422a"/>
      <path id="Trazado_631634" data-name="Trazado 631634" d="M272.833,260.883l-7.52,4.339L107.84,174.273l7.681-4.4C224.981,190.952,197.953,242.661,272.833,260.883Z" transform="translate(207.171 189.458)" fill="#783b25"/>
      <path id="Trazado_631635" data-name="Trazado 631635" d="M304.525,184.957,147.02,275.874V249.489L304.525,158.54Z" transform="translate(325.464 205.191)" fill="#5c2c1b"/>
      <path id="Trazado_631636" data-name="Trazado 631636" d="M98.02,184.957l157.473,90.917V249.489L98.02,158.54Z" transform="translate(216.991 205.191)" fill="#452014"/>
      <path id="Trazado_631637" data-name="Trazado 631637" d="M304.525,230.553,147.02,321.469V257.677L304.525,166.76Z" transform="translate(325.464 223.388)" fill="#a8804c"/>
      <path id="Trazado_631638" data-name="Trazado 631638" d="M98.02,230.553l157.473,90.917V257.677L98.02,166.76Z" transform="translate(216.991 223.388)" fill="#87673d"/>
      <path id="Trazado_631639" data-name="Trazado 631639" d="M304.525,222.186,147.02,313.135V277.527L304.525,186.61Z" transform="translate(325.464 267.33)" fill="#878787"/>
      <path id="Trazado_631640" data-name="Trazado 631640" d="M98.02,222.186l157.473,90.949V277.527L98.02,186.61Z" transform="translate(216.991 267.33)" fill="#636363"/>
      <path id="Trazado_631641" data-name="Trazado 631641" d="M462.031,249.489,304.525,340.405,147.02,249.489,304.525,158.54Z" transform="translate(325.464 205.191)" fill="#783b25"/>
      <path id="Trazado_631642" data-name="Trazado 631642" d="M423.4,270.889,314.323,333.846,156.85,242.929,265.924,179.94C367.157,191.092,321.393,261.922,423.4,270.889Z" transform="translate(315.666 211.75)" fill="#61301d"/>
      <path id="Trazado_631643" data-name="Trazado 631643" d="M359.476,282.294l-45.153,26.16L156.85,217.538,202.1,191.41C305.743,208.057,279.872,266.162,359.476,282.294Z" transform="translate(315.666 237.142)" fill="#87422a"/>
      <path id="Trazado_631644" data-name="Trazado 631644" d="M321.843,289.173l-7.52,4.339L156.85,202.6l7.681-4.435C273.991,219.242,246.963,270.951,321.843,289.173Z" transform="translate(315.666 252.085)" fill="#783b25"/>
      <path id="Trazado_631645" data-name="Trazado 631645" d="M353.535,213.225,196.03,304.174V277.757L353.535,186.84Z" transform="translate(433.959 267.84)" fill="#5c2c1b"/>
      <path id="Trazado_631646" data-name="Trazado 631646" d="M147.02,213.225l157.505,90.949V277.757L147.02,186.84Z" transform="translate(325.464 267.84)" fill="#452014"/>
      <path id="Trazado_631647" data-name="Trazado 631647" d="M353.535,258.843,196.03,349.791V286L353.535,195.05Z" transform="translate(433.959 286.014)" fill="#a8804c"/>
      <path id="Trazado_631648" data-name="Trazado 631648" d="M147.02,258.843l157.505,90.949V286L147.02,195.05Z" transform="translate(325.464 286.014)" fill="#87673d"/>
      <path id="Trazado_631649" data-name="Trazado 631649" d="M353.535,250.508,196.03,341.425V305.849L353.535,214.9Z" transform="translate(433.959 329.957)" fill="#878787"/>
      <path id="Trazado_631650" data-name="Trazado 631650" d="M147.02,250.508l157.505,90.917V305.849L147.02,214.9Z" transform="translate(325.464 329.957)" fill="#636363"/>
      <path id="Trazado_631691" data-name="Trazado 631691" d="M227.7,145.457c-15.008,8.677-51.42,1.639-81.565-15.683s-42.229-38.565-27.188-47.113,51.42-1.639,81.565,15.715S242.681,136.844,227.7,145.457Z" transform="translate(217.462 -11.701)" opacity="0.3"/>
      <path id="Trazado_631692" data-name="Trazado 631692" d="M110.52,71.3l.225.964L109.62,72l.289-1.093Z" transform="translate(242.67 11.201)" fill="#947676"/>
      <path id="Trazado_631693" data-name="Trazado 631693" d="M119.248,75.073a26.672,26.672,0,0,1-.354-3.053c0-2.153,18.254,16.422,16.711,16.069a6.428,6.428,0,0,0-2.892.514c.45.611.643.964.418.932a4.5,4.5,0,0,0-2.6.739c-2.057,2.475-2.732,6.427-5.72,7.135-3.824,5.624,1.7,8.838,2.6,12.534a.9.9,0,0,1-.193.964l-.771-.8s.193,1.253,0,1.318a2.732,2.732,0,0,1-1.607,0,8.934,8.934,0,0,1-5.4-3.214,10.477,10.477,0,0,1-1.51-4.21c0-1.671,1.221-2.057,1.51-3.953s-1.543-7.07-1.51-8.774,1.768-2.346,1.51-5.078-2.539-5.785-3.021-12.855C116.42,72.92,117.545,73.659,119.248,75.073Z" transform="translate(226.165 -27.542)" fill="#e6b8b8"/>
      <path id="Trazado_631694" data-name="Trazado 631694" d="M127.64,81.256l.193.964-1.093-.257.289-1.093Z" transform="translate(280.569 33.25)" fill="#947676"/>
      <path id="Trazado_631695" data-name="Trazado 631695" d="M137.607,82.471l.739,1.253a16.289,16.289,0,0,1,2.121-2.925l8.774,16.711s-.611.8-1.478,2.089l.225.354s-1.125,1.382-2.571,3.214a25.325,25.325,0,0,0-3.76,9,35.8,35.8,0,0,0,2.828,9.641,1.9,1.9,0,0,1-.257,1l-.707-.9s.257,1.382,0,1.446a3.214,3.214,0,0,1-1.992,0s-5.431-.321-5.978-3.471a51.424,51.424,0,0,0-.193-8.066A194.735,194.735,0,0,1,133.59,89.7a16.07,16.07,0,0,1,4.017-7.231Z" transform="translate(264.174 -7.72)" fill="#e6b8b8"/>
      <path id="Trazado_631696" data-name="Trazado 631696" d="M116.579,74.114a26.577,26.577,0,0,1,13.5-7.424h.193c5.978,0,18.9,9.159,33.326,19.282,13.241,9.127,27.735,19.09,32.137,23.525a126.334,126.334,0,0,1,20.118,31.72c1.992,4.467-4.339,10.123,2.732,21.821.611,0,2.121.868,1.735,1.575-.707,1.671-1.543,1.607-2.6,2.732s-2.314,2.025-3.214,1.864a35.126,35.126,0,0,1-14.333-5.11c-10.7-7.038-9.32-12.662-21.95-22.5s-10.348,0-28.442-11.344c-8.645-5.013-15.2-13.3-21.211-19.861-8.516-9.256-13.755-16.294-14.526-20.439,0,0-2.153-11.184,2.539-15.876Z" transform="translate(219.803 -38.955)" fill="#fcc"/>
      <path id="Trazado_631697" data-name="Trazado 631697" d="M150.95,97.228c-.707,1.671-1.543,1.607-2.6,2.732s-2.314,2.025-3.214,1.864C143.654,101.052,149.118,95.91,150.95,97.228Z" transform="translate(289.172 28.172)" fill="#cfa5a5"/>
      <path id="Trazado_631698" data-name="Trazado 631698" d="M150.857,90.232c1.9.739,3.664,1.382,3.728,1.928,0,1.382-4.853.193-7.552.578a2.892,2.892,0,0,0-2.7,2.314s-1.478-4.5.9-5.849C146.486,88.528,148.8,89.428,150.857,90.232Z" transform="translate(286.951 10.358)" fill="#fcc"/>
      <path id="Trazado_631699" data-name="Trazado 631699" d="M124.29,83.218l.193.964-1.093-.289.257-1.093Z" transform="translate(273.153 37.522)" fill="#c29b9b"/>
      <path id="Trazado_631700" data-name="Trazado 631700" d="M134.279,84.379l.739,1.253a15.231,15.231,0,0,1,2.121-2.892l8.773,16.9s-.611.8-1.478,2.089l.193.354s-1.125,1.382-2.539,3.374a25.709,25.709,0,0,0-3.792,8.966,35.51,35.51,0,0,0,2.86,9.641,1.9,1.9,0,0,1-.257,1l-.739-.9s.289,1.382,0,1.446a3.214,3.214,0,0,1-1.993,0s-5.463-.289-5.978-3.439a51.965,51.965,0,0,0-.193-8.1,194.214,194.214,0,0,1-1.768-22.11,15.779,15.779,0,0,1,4.049-7.584Z" transform="translate(256.736 -3.425)" fill="#fcc"/>
      <path id="Trazado_631701" data-name="Trazado 631701" d="M107.8,72.886l.193.964-1.093-.257.289-1.093Z" transform="translate(236.649 14.721)" fill="#c29b9b"/>
      <path id="Trazado_631702" data-name="Trazado 631702" d="M116.528,76.773c0-.932-.289-1.928-.386-3.214,0-2.153,18.318,16.454,16.744,16.069a7.231,7.231,0,0,0-2.925.482c.482.643.675.964.45.932a4.564,4.564,0,0,0-2.571.739c-2.089,2.475-2.764,6.427-5.753,7.167-3.824,5.624,1.7,8.838,2.6,12.534a.964.964,0,0,1-.193.964l-.771-.8s.193,1.253,0,1.318a3.021,3.021,0,0,1-1.607,0,8.934,8.934,0,0,1-5.4-3.214,11.12,11.12,0,0,1-1.543-4.21c0-1.671,1.253-2.057,1.51-3.985a75.648,75.648,0,0,0-1.51-8.774c0-1.7,1.832-2.314,1.543-5.078s-2.539-5.753-3.021-12.855C113.7,74.588,114.825,75.359,116.528,76.773Z" transform="translate(220.143 -24.132)" fill="#fcc"/>
      <path id="Trazado_631703" data-name="Trazado 631703" d="M142.693,91.061a7.3,7.3,0,0,1,5.592.289,7.681,7.681,0,0,1,3.76,2.635c0,1.382-4.853.193-7.584.578a5.656,5.656,0,0,0-3.728,2.8S140.283,92.379,142.693,91.061Z" transform="translate(279.913 14.06)" fill="#e6b8b8"/>
      <path id="Trazado_631704" data-name="Trazado 631704" d="M142.277,93.6a1.446,1.446,0,0,1,.707,1.061c0,.354-.321.45-.707.225a1.446,1.446,0,0,1-.707-1.061C141.57,93.475,141.891,93.378,142.277,93.6Z" transform="translate(281.84 20.356)"/>
      <path id="Trazado_631705" data-name="Trazado 631705" d="M119.5,65.749c-4.821,1.221,1.9,8.388,1.9,8.388l-2.989.611S111.079,62.6,119.5,65.749Z" transform="translate(224.018 -42.192)" fill="#fcc"/>
      <path id="Trazado_631706" data-name="Trazado 631706" d="M146.447,97.67s-.771,1.607-1.189,1.414S146.447,97.67,146.447,97.67Z" transform="translate(289.85 29.626)" fill="#7d6464"/>
      <path id="Trazado_631707" data-name="Trazado 631707" d="M147.065,97.25s-.193,1.061-.868,1.157S147.065,97.25,147.065,97.25Z" transform="translate(291.706 28.696)" fill="#7d6464"/>
      <path id="Trazado_631712" data-name="Trazado 631712" d="M71.931,84.2c2.442-1.864,5.078-4.467,5.174-3.889,0,1.735-5.271,7.424-8.773,11.987-3.214,4.049-3.214,4.5-3.214,4.5a5.528,5.528,0,0,1-1.318-8C65.311,85.931,69.2,86.252,71.931,84.2Z" transform="translate(107.106 -8.994)" fill="#fcc"/>
      <path id="Trazado_631717" data-name="Trazado 631717" d="M69.09,88.72c.257,0,.354.321.289.707a.836.836,0,0,1-.546.771c-.193,0-.321-.321-.289-.707A.877.877,0,0,1,69.09,88.72Z" transform="translate(120.167 9.813)"/>
      <path id="Trazado_631718" data-name="Trazado 631718" d="M179.963,196.034a157.476,157.476,0,0,1,19.282-9.352l-42.132-24.328,94.645-54.634L599.581,308.547,504.936,363.18l-52.448-30.306a142.309,142.309,0,0,1-20.7,14.4c-35.351,20.472-78.544,28.924-96.412,18.543s-3.214-35.126,32.137-55.6a184.128,184.128,0,0,1,24.907-11.955L351.48,274.642a148.644,148.644,0,0,1-18.093,12.244c-35.351,20.439-78.576,28.763-96.412,18.511s-3.214-35.126,32.137-55.6a190.657,190.657,0,0,1,21.211-10.445l-39.657-23.042A122.936,122.936,0,0,1,234.6,227.4c-30.016,17.322-66.492,24.328-81.5,15.683S150.075,213.356,179.963,196.034Z" transform="translate(293.036 51.874)" opacity="0.3"/>
      <path id="Trazado_631719" data-name="Trazado 631719" d="M582.548,285.186,487.935,339.82,140.08,138.994,234.725,84.36Z" transform="translate(310.101 40.976)" fill="#ffc935"/>
      <path id="Trazado_631720" data-name="Trazado 631720" d="M555.734,278.862,540.211,287.8,223.337,104.838l-63.279,36.54L144.6,132.412,223.337,86.97Z" transform="translate(320.107 46.754)" fill="#d49c00"/>
      <path id="Trazado_631721" data-name="Trazado 631721" d="M529.563,275.488l-63.246,36.54L149.41,129.07l63.279-36.54Z" transform="translate(330.755 59.062)" fill="#8a4d00"/>
      <path id="Trazado_631722" data-name="Trazado 631722" d="M325.193,191.232l-59.165,34.162-17.708-23.91,94.613-54.634Z" transform="translate(549.716 179.312)" fill="#f5b400"/>
      <path id="Trazado_631723" data-name="Trazado 631723" d="M505.643,326.1,157.82,125.27l-17.74-23.91L487.935,302.186Z" transform="translate(310.101 78.609)" fill="#d49c00"/>
      <path id="Trazado_631724" data-name="Trazado 631724" d="M204,174.971c0-2.764,23.717-6.042,21.693-4.049l-1.061,1.318c2.892-.257,4.821,0,4.178.482-6.2,7.038-7.874,17.9-11.923,24.681-4.017,11.505,2.539,10.959,2.121,14.173-.482,5.238-7.97,6.042-7.97,6.042a5.271,5.271,0,0,1-5.078-5.013c0-2.185,2.571-4.6,2.924-7.52s-1.671-6.845-1.671-9.223a57.4,57.4,0,0,0,.771-8.613C207.7,184.13,204.8,183.551,204,174.971Z" transform="translate(420.044 190.431)" fill="#fcc"/>
      <path id="Trazado_631725" data-name="Trazado 631725" d="M225.5,173.058a70.126,70.126,0,0,1,5.078-15.908l14.269,7.809h0l3.5,1.928s-11.827,23.91-12.405,31.238a16.616,16.616,0,0,0,3.214,8.613c.514,4.788-7.745,4.467-7.745,4.467-3.021.321-3.5-1.318-3.471-2.025a38.177,38.177,0,0,0,0-11.248C227.168,189.03,224.854,177.4,225.5,173.058Z" transform="translate(467.385 161.299)" fill="#e6b8b8"/>
      <path id="Trazado_631726" data-name="Trazado 631726" d="M259.013,166.324c17.193-8,35.93-16.744,41.586-17.483,11.923-.964,19.572,4.274,25.71,6.427,8.324,4.788,13.112,7.327,14.59,12.6,2.475,5.978-.225,10.67,1.061,12.855,1.864-.932,4.66,1.221,5.592,3.214s.321,7.906-3.407,7.456a25.71,25.71,0,0,1-11.12,8.163c-13.851,6.909-12.084-2.442-28.506,3.889s-13.4,15.3-36.862,27.863c-11.184,6.427-19.668,5.463-27.478,6.01-25.71,3.214-35.19-9.641-36.026-13.3a43.546,43.546,0,0,1,11.666-32.619C223.566,182.328,240.309,175.033,259.013,166.324Z" transform="translate(420.178 142.645)" fill="#fcc"/>
      <path id="Trazado_631727" data-name="Trazado 631727" d="M249.491,153.591c2.475-1.864,5.078-4.5,5.206-3.889,0,1.735-5.3,7.392-8.806,11.987-3.214,4.049-3.214,4.5-3.214,4.5a5.527,5.527,0,0,1-1.511-8C242.806,155.422,246.727,155.647,249.491,153.591Z" transform="translate(499.889 144.612)" fill="#fcc"/>
      <path id="Trazado_631728" data-name="Trazado 631728" d="M211.729,161.91c-5.142,7.263,2.057,7.424,3.021,7.2,3.053,0,1.543,6.427-2.6,4.821C210.926,173.158,202.635,168.98,211.729,161.91Z" transform="translate(427.837 171.837)" fill="#e6b8b8"/>
      <path id="Trazado_631729" data-name="Trazado 631729" d="M229.878,175.588a70.126,70.126,0,0,1,5.078-15.908l14.237,7.809h0l3.5,1.9S240.9,193.3,240.29,200.623a16.455,16.455,0,0,0,3.374,8.613c.514,4.788-7.745,4.467-7.745,4.467-3.021.321-3.535-1.285-3.471-1.993a40.844,40.844,0,0,0,0-11.248C231.517,191.56,229.235,179.991,229.878,175.588Z" transform="translate(477.081 166.9)" fill="#fcc"/>
      <path id="Trazado_631730" data-name="Trazado 631730" d="M208.42,177.5c0-2.8,23.685-6.042,21.661-4.049l-1.061,1.285c2.924-.225,4.821,0,4.178.514-6.2,7.006-7.842,17.9-11.923,24.649-4.017,11.537,2.539,10.991,2.121,14.173-.45,5.238-7.97,6.042-7.97,6.042a5.142,5.142,0,0,1-5.142-4.981c0-2.217,2.539-4.628,2.924-7.52s-1.8-6.974-1.768-9.223a53.833,53.833,0,0,0,.771-8.613C211.955,186.63,209.063,186.212,208.42,177.5Z" transform="translate(429.829 196.03)" fill="#fcc"/>
      <path id="Trazado_631731" data-name="Trazado 631731" d="M253.972,155.869c2.442-1.864,4.724-4.242,4.853-3.632a62.692,62.692,0,0,1-6.652,13.08c-1.028,1.318-2.6,5.27-3.856,4.5-.578-.257-6.267-2.635-2.539-7.681C247.416,159.372,251.272,157.926,253.972,155.869Z" transform="translate(509.741 150.207)" fill="#e6b8b8"/>
      <path id="Trazado_631732" data-name="Trazado 631732" d="M246.54,158.11c.257,0,.354.289.289.707a.9.9,0,0,1-.514.771c-.225,0-.353-.321-.321-.707S246.315,158.11,246.54,158.11Z" transform="translate(512.995 163.424)"/>
      <path id="Trazado_631733" data-name="Trazado 631733" d="M173.45,156.213c0-2.8,23.685-6.042,21.693-4.049a13.233,13.233,0,0,0-1.061,1.285c2.892-.225,4.788,0,4.146.514-6.17,7.038-7.842,17.9-11.891,24.649-4.017,11.537,2.539,10.991,2.121,14.2-.482,5.206-8,6.01-8,6.01a5.142,5.142,0,0,1-5.046-4.981c0-2.217,2.571-4.628,2.924-7.552s-1.768-6.942-1.768-9.191a53.509,53.509,0,0,0,.8-8.613C177.017,165.244,174.093,164.665,173.45,156.213Z" transform="translate(352.414 148.899)" fill="#fcc"/>
      <path id="Trazado_631734" data-name="Trazado 631734" d="M194.907,154.268a70.125,70.125,0,0,1,5.078-15.908l14.269,7.809h0l3.535,1.9s-11.827,23.91-12.437,31.238a16.454,16.454,0,0,0,3.374,8.613c.514,4.788-7.745,4.467-7.745,4.467-3.021.321-3.535-1.285-3.471-1.992a39.463,39.463,0,0,0,0-11.248C196.546,170.24,194.265,158.607,194.907,154.268Z" transform="translate(399.666 119.703)" fill="#e6b8b8"/>
      <path id="Trazado_631735" data-name="Trazado 631735" d="M228.5,147.556c17.194-8.034,35.962-16.744,41.586-17.515,11.923-.964,19.572,4.274,25.549,6.427,8.324,4.788,13.112,7.3,14.623,12.6,2.475,5.945-.225,10.67,1.06,12.855,1.864-.932,4.628,1.221,5.592,3.214s.321,7.906-3.407,7.424a25.967,25.967,0,0,1-11.152,8.2c-13.851,6.877-12.052-2.442-28.474,3.889s-13.4,15.265-36.862,27.831c-11.184,6.428-19.7,5.5-27.477,6.01-25.71,3.214-35.19-9.641-36.026-13.273a43.449,43.449,0,0,1,11.827-32.716C193.085,163.56,209.829,156.265,228.5,147.556Z" transform="translate(352.351 101.027)" fill="#fcc"/>
      <path id="Trazado_631736" data-name="Trazado 631736" d="M218.871,134.8c2.475-1.864,5.078-4.5,5.206-3.889,0,1.735-5.27,7.392-8.806,11.955-3.214,4.049-3.214,4.531-3.214,4.531a5.528,5.528,0,0,1-1.51-8C212.282,136.632,216.171,136.857,218.871,134.8Z" transform="translate(432.104 103.016)" fill="#fcc"/>
      <path id="Trazado_631737" data-name="Trazado 631737" d="M181.116,143.12c-5.142,7.231,2.057,7.392,3.021,7.167,3.053,0,1.543,6.427-2.635,4.853C180.344,154.336,172.085,150.19,181.116,143.12Z" transform="translate(360.142 130.24)" fill="#e6b8b8"/>
      <path id="Trazado_631738" data-name="Trazado 631738" d="M199.277,156.9a70.7,70.7,0,0,1,5.078-16.069l14.269,7.842h0l3.5,1.928s-11.794,23.91-12.4,31.238a16.069,16.069,0,0,0,3.214,8.613c.514,4.788-7.745,4.467-7.745,4.467-3.021.321-3.535-1.318-3.471-2.025a38.822,38.822,0,0,0,0-11.248C200.948,172.871,198.634,161.269,199.277,156.9Z" transform="translate(409.341 125.171)" fill="#fcc"/>
      <path id="Trazado_631739" data-name="Trazado 631739" d="M177.83,158.69c0-2.764,23.685-6.042,21.661-4.017-.386.418-.707.836-1.061,1.286,2.892-.225,4.821,0,4.178.514-6.2,7.006-7.842,17.868-11.923,24.649-4.017,11.537,2.539,10.959,2.121,14.173-.482,5.238-7.97,6.042-7.97,6.042a5.206,5.206,0,0,1-5.078-5.013c0-2.185,2.571-4.6,2.925-7.52s-1.768-6.942-1.768-9.191a53.869,53.869,0,0,0,.8-8.613C181.365,167.849,178.376,167.271,177.83,158.69Z" transform="translate(362.11 154.424)" fill="#fcc"/>
      <path id="Trazado_631740" data-name="Trazado 631740" d="M223.359,137.095c2.475-1.864,4.756-4.242,4.853-3.664a63.565,63.565,0,0,1-6.62,13.112c-1.028,1.318-2.6,5.271-3.889,4.5-.546-.289-6.267-2.635-2.507-7.681C216.8,140.6,220.6,139.151,223.359,137.095Z" transform="translate(442.013 108.596)" fill="#e6b8b8"/>
      <path id="Trazado_631741" data-name="Trazado 631741" d="M215.958,139.32c.225,0,.354.289.289.707s-.321.739-.546.739-.354-.289-.289-.707S215.733,139.32,215.958,139.32Z" transform="translate(445.269 121.828)"/>
      <path id="Trazado_631742" data-name="Trazado 631742" d="M147.43,138.791c0-2.346,20.054-5.11,18.35-3.439l-.9,1.125c2.475-.193,4.081,0,3.535.418-5.238,5.945-6.652,15.137-10.091,20.857-3.214,9.641,2.185,9.32,1.8,12.019-.418,4.435-6.749,5.11-6.749,5.11a4.371,4.371,0,0,1-4.114-4.178c0-1.864,2.153-3.889,2.475-6.427s-1.51-5.881-1.51-7.809a45.565,45.565,0,0,0,.675-7.3C150.451,146.536,147.976,146.054,147.43,138.791Z" transform="translate(294.813 111.913)" fill="#fcc"/>
      <path id="Trazado_631743" data-name="Trazado 631743" d="M165.576,137.2a60.1,60.1,0,0,1,4.306-13.5l12.084,6.652h0l2.957,1.607s-9.995,20.247-10.509,26.449a14.173,14.173,0,0,0,2.86,7.3c.45,4.049-6.428,3.76-6.428,3.76-2.539.289-2.989-1.093-2.957-1.7a32.132,32.132,0,0,0,0-9.641C167.119,150.7,165.062,140.733,165.576,137.2Z" transform="translate(334.803 87.25)" fill="#e6b8b8"/>
      <path id="Trazado_631744" data-name="Trazado 631744" d="M193.937,131.482c14.558-6.781,30.4-14.173,35.351-14.815,10.091-.8,16.551,3.632,21.628,5.5,7.038,4.049,11.087,6.2,12.373,10.67,2.089,5.046-.193,9.031.868,10.991,1.575-.8,3.953,1.028,4.756,2.667s.257,6.685-2.892,6.427a21.6,21.6,0,0,1-9.416,6.91c-11.73,5.849-10.22-2.057-24.135,3.214S221.125,175.9,201.264,186.6c-9.448,5.463-16.647,4.66-23.235,5.11-21.725,2.8-29.791-8.259-30.5-11.28a36.862,36.862,0,0,1,10.027-27.67C163.921,145.012,178.125,138.841,193.937,131.482Z" transform="translate(294.873 71.466)" fill="#fcc"/>
      <path id="Trazado_631745" data-name="Trazado 631745" d="M185.832,120.648c2.089-1.575,4.274-3.792,4.371-3.214,0,1.478-4.467,6.427-7.424,10.123s-2.635,3.824-2.635,3.824a4.692,4.692,0,0,1-1.285-6.781C180.24,122.191,183.518,122.416,185.832,120.648Z" transform="translate(362.336 73.172)" fill="#fcc"/>
      <path id="Trazado_631746" data-name="Trazado 631746" d="M153.934,127.73c-4.371,6.138,1.735,6.428,2.539,6.106,2.6,0,1.318,5.431-2.217,4.081C153.227,137.243,146.286,133.708,153.934,127.73Z" transform="translate(301.356 96.171)" fill="#e6b8b8"/>
      <path id="Trazado_631747" data-name="Trazado 631747" d="M169.3,139.276A59.581,59.581,0,0,1,173.6,125.81l12.052,6.62h0l2.957,1.607s-9.963,20.247-10.477,26.417a13.691,13.691,0,0,0,2.828,7.3c.45,4.049-6.428,3.792-6.428,3.792-2.539.257-2.989-1.093-2.925-1.7a33.935,33.935,0,0,0,0-9.641C170.709,152.9,168.749,143.068,169.3,139.276Z" transform="translate(343.007 91.921)" fill="#fcc"/>
      <path id="Trazado_631748" data-name="Trazado 631748" d="M151.14,140.942c0-2.378,20.054-5.142,18.318-3.439l-.868,1.125c2.442-.225,4.049,0,3.5.418-5.238,5.945-6.62,15.137-10.059,20.857-3.439,9.641,2.153,9.288,1.768,12.019-.386,4.4-6.717,5.078-6.717,5.078a4.371,4.371,0,0,1-4.306-4.21c0-1.864,2.153-3.921,2.475-6.427s-1.51-5.881-1.478-7.809a45.887,45.887,0,0,0,.643-7.3C154.129,148.687,151.654,148.173,151.14,140.942Z" transform="translate(303.026 116.639)" fill="#fcc"/>
      <path id="Trazado_631749" data-name="Trazado 631749" d="M189.648,122.7c2.057-1.575,3.985-3.6,4.081-3.214a54.377,54.377,0,0,1-5.592,11.087c-.868,1.093-2.218,4.467-3.214,3.792-.482-.225-5.3-2.217-2.153-6.427C184.088,125.653,187.366,124.464,189.648,122.7Z" transform="translate(370.699 77.808)" fill="#e6b8b8"/>
      <path id="Trazado_631750" data-name="Trazado 631750" d="M183.4,124.52c.193,0,.289.257.257.579s-.289.643-.45.643-.321-.225-.257-.579S183.143,124.52,183.4,124.52Z" transform="translate(373.412 89.065)"/>
      <path id="Trazado_631751" data-name="Trazado 631751" d="M69.76,187.385c17.74,10.22,60.836,1.928,96.412-18.543s49.813-45.378,32.137-55.6-60.868-1.928-96.412,18.511S52.02,177.133,69.76,187.385Z" transform="translate(106.032 54.416)" opacity="0.3"/>
      <path id="Trazado_631752" data-name="Trazado 631752" d="M89.391,99.59,89.744,101l-1.414.321.257-1.221Z" transform="translate(195.54 74.691)" fill="#947676"/>
      <path id="Trazado_631753" data-name="Trazado 631753" d="M116.437,97.266a23.906,23.906,0,0,1-.45,3.953c2.185-1.832,3.664-2.828,3.664-2.121-.675,9.32-3.567,13.241-3.921,16.776s1.928,4.339,1.96,6.427-2.314,8.87-1.96,11.377,1.928,2.957,1.96,5.142a14.4,14.4,0,0,1-1.96,5.463,11.794,11.794,0,0,1-7.006,4.049,3.825,3.825,0,0,1-2.089,0c-.225,0,0-1.7,0-1.7l-1.028,1.061a1.317,1.317,0,0,1-.225-1.285c1.157-4.788,8.324-8.934,3.374-16.069-3.856-1.157-4.724-6.106-7.424-9.288a5.849,5.849,0,0,0-3.214-.964c-.321,0,0-.418.546-1.221a8.774,8.774,0,0,0-3.76-.643C92.752,118.541,116.437,94.47,116.437,97.266Z" transform="translate(178.23 28.231)" fill="#e6b8b8"/>
      <path id="Trazado_631754" data-name="Trazado 631754" d="M67.223,112.5l.354,1.414-1.446.354.257-1.253Z" transform="translate(146.395 103.27)" fill="#947676"/>
      <path id="Trazado_631755" data-name="Trazado 631755" d="M85.319,108.65a18.418,18.418,0,0,1,2.764,3.76l.964-1.639a20.761,20.761,0,0,1,5.078,10.059c.643,3.6-1.318,18.608-2.25,28.666a71.985,71.985,0,0,0-.289,10.477c-.675,4.081-7.745,4.435-7.745,4.435a4.339,4.339,0,0,1-2.6,0c-.193,0,0-1.864,0-1.864l-.964,1.157a2.346,2.346,0,0,1-.321-1.318s3.953-9.127,3.7-12.63a34,34,0,0,0-4.885-11.634c-1.864-2.571-3.214-4.371-3.214-4.371l.257-.45c-1.093-1.671-1.9-2.732-1.9-2.732Z" transform="translate(132.059 53.933)" fill="#e6b8b8"/>
      <path id="Trazado_631756" data-name="Trazado 631756" d="M65.468,214.982c9.191-15.137.932-22.5,3.535-28.281,1.446-3.214,11.12-25,26.1-41.1,5.624-5.753,24.392-18.7,41.586-30.531,18.7-12.855,35.351-24.939,43.193-24.746h.257c3.214,0,13.723,4.981,17.515,9.641h0c6.074,6.042,3.214,20.568,3.214,20.568-1.028,5.367-7.809,14.494-18.865,26.513-7.777,8.452-16.294,19.282-27.477,25.71-23.46,14.526-20.472,2.153-36.862,14.719S103.037,207.366,89.153,216.4c-4.017,3.439-14.558,6.042-18.608,6.427-1.093.225-3.214-1.285-4.114-2.378s-2.442-1.414-3.214-3.567C62.7,216.107,64.665,214.854,65.468,214.982Z" transform="translate(108.202 13.354)" fill="#fcc"/>
      <path id="Trazado_631757" data-name="Trazado 631757" d="M70.537,135.887c-1.093.225-3.214-1.285-4.114-2.378s-2.442-1.414-3.214-3.567C65.46,128.238,72.53,134.89,70.537,135.887Z" transform="translate(108.372 100.452)" fill="#cfa5a5"/>
      <path id="Trazado_631758" data-name="Trazado 631758" d="M67.3,120.9c2.7-1.093,5.688-2.25,7.3-1.35,3.214,1.735,1.189,7.552,1.189,7.552a3.824,3.824,0,0,0-3.5-2.989c-3.535-.514-9.834,1.028-9.641-.739C62.579,122.637,64.86,121.866,67.3,120.9Z" transform="translate(107.107 77.354)" fill="#fcc"/>
      <path id="Trazado_631759" data-name="Trazado 631759" d="M71.541,115.01l.354,1.414-1.414.354.257-1.253Z" transform="translate(156.024 108.827)" fill="#c29b9b"/>
      <path id="Trazado_631760" data-name="Trazado 631760" d="M89.59,111.16a19.089,19.089,0,0,1,2.732,3.76l.964-1.639a20.761,20.761,0,0,1,5.078,10.22c.643,3.6-1.35,18.608-2.25,28.667a71.955,71.955,0,0,0-.289,10.477c-.675,4.081-7.745,4.467-7.745,4.467a3.889,3.889,0,0,1-2.6-.161c-.161,0,.193-1.832.193-1.832l-.964,1.157a2.346,2.346,0,0,1-.321-1.318s3.921-9.127,3.664-12.63a32.781,32.781,0,0,0-4.885-11.634c-1.832-2.571-3.214-4.371-3.214-4.371l.257-.45c-1.125-1.671-1.9-2.732-1.9-2.732Z" transform="translate(141.799 59.489)" fill="#fcc"/>
      <path id="Trazado_631761" data-name="Trazado 631761" d="M92.943,101.64l.354,1.446-1.446.321.257-1.253Z" transform="translate(203.332 79.229)" fill="#c29b9b"/>
      <path id="Trazado_631762" data-name="Trazado 631762" d="M120.015,99.316a24.315,24.315,0,0,1-.45,3.985c2.153-1.832,3.664-2.828,3.664-2.121-.675,9.288-3.567,13.208-3.921,16.776s1.928,4.339,1.96,6.427-2.346,8.9-1.96,11.377,1.928,2.989,1.96,5.174a15.009,15.009,0,0,1-1.96,5.431,11.7,11.7,0,0,1-7.006,4.049,3.825,3.825,0,0,1-2.089,0c-.257,0,0-1.7,0-1.7l-1,1.061a1.35,1.35,0,0,1-.257-1.286c1.189-4.756,8.356-8.934,3.214-16.069-3.824-1.125-4.724-6.074-7.424-9.256a5.785,5.785,0,0,0-3.214-1c-.289,0,0-.386.546-1.189a8.325,8.325,0,0,0-3.76-.643C96.458,120.623,120.015,96.52,120.015,99.316Z" transform="translate(185.869 32.769)" fill="#fcc"/>
      <path id="Trazado_631763" data-name="Trazado 631763" d="M71.365,122.3a9.641,9.641,0,0,1,7.263-.354c3.214,1.735,2.507,8.163,2.507,8.163a7.424,7.424,0,0,0-4.821-3.632c-3.535-.482-9.834,1.061-9.834-.707a10.316,10.316,0,0,1,4.885-3.471Z" transform="translate(115.61 82.159)" fill="#e6b8b8"/>
      <path id="Trazado_631764" data-name="Trazado 631764" d="M70.262,125.212c.514-.289.932,0,.932.321a1.832,1.832,0,0,1-.932,1.35c-.514.321-.932,0-.932-.289A1.9,1.9,0,0,1,70.262,125.212Z" transform="translate(121.92 90.333)"/>
      <path id="Trazado_631765" data-name="Trazado 631765" d="M103.8,89.119c10.959-4.049,1.478,11.7,1.478,11.7l-3.921-.8S110.069,90.693,103.8,89.119Z" transform="translate(192.826 9.222)" fill="#fcc"/>
      <path id="Trazado_631766" data-name="Trazado 631766" d="M66.243,132.374c-.514.225-1.543-1.864-1.543-1.864S66.757,132.085,66.243,132.374Z" transform="translate(111.67 102.325)" fill="#7d6464"/>
      <path id="Trazado_631767" data-name="Trazado 631767" d="M64.857,131.48c-.9,0-1.157-1.51-1.157-1.51S65.4,131.545,64.857,131.48Z" transform="translate(109.456 101.13)" fill="#7d6464"/>
      <path id="Trazado_631768" data-name="Trazado 631768" d="M227.85,222.742c-16.229,9.352-55.726,1.768-88.153-16.969s-45.635-41.521-29.406-50.906,55.694-1.768,88.153,16.969S244.048,213.39,227.85,222.742Z" transform="translate(197.231 147.352)" opacity="0.3"/>
      <path id="Trazado_631769" data-name="Trazado 631769" d="M139.624,157.209l-1.061-1.318c-2.025-1.992,21.725,1.286,21.725,4.081-.611,8.581-3.535,9.159-3.921,12.309a63.028,63.028,0,0,0,.8,8.645c0,2.25-2.121,6.427-1.768,9.223s2.924,5.335,2.957,7.552a5.238,5.238,0,0,1-5.11,4.885s-7.488-.8-7.97-6.042c-.45-3.214,6.138-2.667,2.121-14.237-4.081-6.781-5.753-17.676-11.955-24.746C134.8,157.08,136.7,156.952,139.624,157.209Z" transform="translate(268.007 157.159)" fill="#fcc"/>
      <path id="Trazado_631770" data-name="Trazado 631770" d="M118.144,149.942h0l14.3-7.842a69.867,69.867,0,0,1,5.11,16.069c.643,4.339-1.671,16.069-2.6,25.035a39.077,39.077,0,0,0,0,11.28c0,.707-.482,2.314-3.471,1.993,0,0-8.324.321-7.777-4.467a16.518,16.518,0,0,0,3.214-8.645c-.611-7.327-12.437-31.334-12.437-31.334Z" transform="translate(221.87 127.982)" fill="#e6b8b8"/>
      <path id="Trazado_631771" data-name="Trazado 631771" d="M104.183,165.754c1.318-2.314-1.382-7.038,1.093-12.855,1.51-5.3,6.427-7.842,14.655-12.63,6.01-2.25,13.658-7.52,25.71-6.427,5.624.771,24.457,9.641,41.779,17.547,18.736,8.773,35.544,16.069,43.321,25.228a43.578,43.578,0,0,1,11.826,32.78c-.8,3.567-10.348,16.679-36.122,13.369-7.809-.546-16.326.45-27.574-6.042-23.525-12.6-20.536-21.564-36.958-27.927s-14.687,2.989-28.6-3.921A26.159,26.159,0,0,1,102,176.456c-3.7.45-4.5-5.078-3.214-7.488C99.555,166.975,102.319,164.822,104.183,165.754Z" transform="translate(185.857 109.374)" fill="#fcc"/>
      <path id="Trazado_631772" data-name="Trazado 631772" d="M115.964,143.118a5.56,5.56,0,0,1-1.543,8.034s0-.45-3.214-4.531c-3.535-4.6-8.87-10.284-8.838-12.019,0-.611,2.764,2.025,5.238,3.921S114.357,140.322,115.964,143.118Z" transform="translate(195.061 111.185)" fill="#fcc"/>
      <path id="Trazado_631773" data-name="Trazado 631773" d="M138.461,154.049c.964.257,8.2,0,3.021-7.2,9.031,7.1.8,11.28-.418,12.084C136.919,160.508,135.408,154.177,138.461,154.049Z" transform="translate(271.387 138.498)" fill="#e6b8b8"/>
      <path id="Trazado_631774" data-name="Trazado 631774" d="M113.764,152.482h0l14.3-7.842a69.866,69.866,0,0,1,5.11,16.069c.643,4.339-1.671,16.069-2.571,25.035a38.373,38.373,0,0,0,0,11.28c0,.739-.482,2.346-3.471,2.025,0,0-8.324.321-7.777-4.467a17,17,0,0,0,3.214-8.645C121.959,178.577,110.1,154.6,110.1,154.6Z" transform="translate(212.174 133.605)" fill="#fcc"/>
      <path id="Trazado_631775" data-name="Trazado 631775" d="M135.233,159.739l-1.061-1.318c-2.025-1.993,21.757,1.285,21.757,4.081-.643,8.581-3.567,9.159-3.921,12.309a50.137,50.137,0,0,0,.8,8.645c0,2.25-2.153,6.428-1.768,9.256s2.892,5.335,2.925,7.52a5.206,5.206,0,0,1-5.11,5.013s-7.488-.8-7.97-6.042c-.45-3.214,6.138-2.635,2.121-14.2-4.081-6.781-5.72-17.708-11.955-24.746C130.413,159.642,132.341,159.514,135.233,159.739Z" transform="translate(258.289 162.76)" fill="#fcc"/>
      <path id="Trazado_631776" data-name="Trazado 631776" d="M111.144,147.078c3.76,5.078-1.96,7.424-2.539,7.713-1.253.771-2.828-3.214-3.889-4.531A64.274,64.274,0,0,1,98,137.147c0-.611,2.378,1.768,4.853,3.664S109.537,144.314,111.144,147.078Z" transform="translate(185.387 116.802)" fill="#e6b8b8"/>
      <path id="Trazado_631777" data-name="Trazado 631777" d="M101.051,143c.225,0,.482.354.546.771s0,.707-.289.707-.482-.354-.546-.771S100.826,143,101.051,143Z" transform="translate(191.464 129.975)"/>
      <path id="Trazado_631778" data-name="Trazado 631778" d="M184.36,160.456c-9,5.174-30.884.964-48.881-9.416s-25.292-23.01-16.294-28.217,30.884-.964,48.881,9.416S193.358,155.314,184.36,160.456Z" transform="translate(223.753 80.381)" opacity="0.3"/>
      <path id="Trazado_631779" data-name="Trazado 631779" d="M135.422,124.127l-.578-.707c-1.125-1.125,12.052.707,12.052,2.25-.354,4.756-1.993,5.078-2.185,6.813a33.331,33.331,0,0,0,.45,4.821c0,1.221-1.189,3.471-1,5.11s1.639,2.957,1.639,4.178a2.86,2.86,0,0,1-2.828,2.764s-4.146-.418-4.4-3.214c-.257-1.768,3.407-1.478,1.157-7.874-2.25-3.76-3.214-9.8-6.62-13.723C132.851,124.062,133.815,124,135.422,124.127Z" transform="translate(263.017 85.859)" fill="#fcc"/>
      <path id="Trazado_631780" data-name="Trazado 631780" d="M123.49,120.131h0l7.938-4.371a39.337,39.337,0,0,1,2.828,8.87,107.3,107.3,0,0,1-1.446,13.883,21.663,21.663,0,0,0,0,6.235c0,.418-.257,1.285-1.928,1.125,0,0-4.6,0-4.306-2.475a9.287,9.287,0,0,0,1.864-4.788c-.354-4.081-6.91-17.386-6.91-17.386Z" transform="translate(237.477 69.673)" fill="#e6b8b8"/>
      <path id="Trazado_631781" data-name="Trazado 631781" d="M115.921,128.95c.707-1.318-.8-3.921.578-7.231.836-2.957,3.5-4.339,8.131-7.006a28.313,28.313,0,0,1,14.2-3.632c3.214.418,13.562,5.271,23.139,9.641,10.413,4.853,19.732,8.9,24.039,13.98a24.2,24.2,0,0,1,6.427,18.19c-.45,1.96-5.753,9.223-20.054,7.392a28.923,28.923,0,0,1-15.265-3.214c-13.048-7.006-11.377-11.955-20.5-15.49s-8.131,1.671-15.844-2.153a14.526,14.526,0,0,1-6.2-4.564c-2.057.257-2.507-2.828-1.864-4.146S114.893,128.4,115.921,128.95Z" transform="translate(217.344 59.311)" fill="#fcc"/>
      <path id="Trazado_631782" data-name="Trazado 631782" d="M122.276,116.286a3.214,3.214,0,0,1-.868,4.467,10.961,10.961,0,0,0-1.7-2.507c-1.7-2.25-4.917-5.72-4.885-6.685,0-.321,1.51,1.125,2.892,2.185S121.376,114.872,122.276,116.286Z" transform="translate(222.622 60.277)" fill="#fcc"/>
      <path id="Trazado_631783" data-name="Trazado 631783" d="M134.8,122.385c.546,0,4.564,0,1.7-3.985,4.981,3.921.418,6.235-.225,6.685C133.933,125.952,133.1,122.449,134.8,122.385Z" transform="translate(264.86 75.517)" fill="#e6b8b8"/>
      <path id="Trazado_631784" data-name="Trazado 631784" d="M121.06,121.509h0L129,117.17a38.785,38.785,0,0,1,2.828,8.838,107.291,107.291,0,0,1-1.446,13.883,21.985,21.985,0,0,0,0,6.427c0,.386-.257,1.286-1.928,1.093,0,0-4.6.193-4.306-2.475a9.159,9.159,0,0,0,1.864-4.788c-.353-4.081-6.91-17.354-6.91-17.354Z" transform="translate(232.097 72.794)" fill="#fcc"/>
      <path id="Trazado_631785" data-name="Trazado 631785" d="M133.011,125.55l-.578-.739c-1.125-1.093,12.051.707,12.051,2.25-.354,4.756-1.993,5.11-2.185,6.845a32.392,32.392,0,0,0,.45,4.788c0,1.253-1.189,3.5-1,5.11s1.607,2.957,1.639,4.21a2.925,2.925,0,0,1-2.828,2.764s-4.178-.45-4.435-3.214c-.225-1.8,3.407-1.478,1.189-7.906-2.282-3.76-3.214-9.641-6.62-13.723C130.343,125.486,131.4,125.421,133.011,125.55Z" transform="translate(257.619 88.967)" fill="#fcc"/>
      <path id="Trazado_631786" data-name="Trazado 631786" d="M119.643,118.547c2.089,2.8-1.093,4.114-1.414,4.242s-1.575-1.768-2.153-2.507a35.126,35.126,0,0,1-3.7-7.263c0-.354,1.35,1,2.7,2.025S118.743,117,119.643,118.547Z" transform="translate(217.221 63.479)" fill="#e6b8b8"/>
      <path id="Trazado_631787" data-name="Trazado 631787" d="M114.056,116.292a.991.991,0,0,1,.321.418c.064.225,0,.386-.161.386s-.289-.193-.321-.418S113.928,116.26,114.056,116.292Z" transform="translate(220.558 70.843)"/>
    </g>
    <g id="Grupo_898085" data-name="Grupo 898085" transform="translate(892.617 19428.988)">
      <path id="Trazado_631788" data-name="Trazado 631788" d="M309.185,175.188,0,0" transform="translate(4.509 4.742)" fill="none" stroke="#12263f" stroke-width="2"/>
      <ellipse id="Elipse_5993" data-name="Elipse 5993" cx="4.588" cy="4.588" rx="4.588" ry="4.588" transform="translate(0)" fill="#0c1d30"/>
    </g>
    <g id="Grupo_898086" data-name="Grupo 898086" transform="matrix(0.999, 0.035, -0.035, 0.999, 754.759, 19443.047)">
      <line id="Línea_900" data-name="Línea 900" y1="50" x2="80" transform="translate(14.085 -14.038)" fill="none" stroke="#fff" stroke-width="2"/>
      <circle id="Elipse_5126" data-name="Elipse 5126" cx="3.048" cy="3.048" r="3.048" transform="translate(95.128 -18.221) rotate(59)" fill="#fff"/>
    </g>
    <text id="Profundidad" transform="translate(730.107 19469.287) rotate(-31)" fill="#fff" font-size="20" font-family="Roboto-Black, Roboto" font-weight="800"><tspan x="-55.571" y="19">Profundidad</tspan></text>
    <path id="Trazado_825336" data-name="Trazado 825336" d="M31.391,14.186a5.193,5.193,0,0,1-.8,2.622,4.833,4.833,0,0,1-2.056,1.763,7,7,0,0,1-3.022.625A5.584,5.584,0,0,1,21.1,17.369a7.54,7.54,0,0,1-1.611-5.156v-.7a8.607,8.607,0,0,1,.728-3.657,5.513,5.513,0,0,1,2.095-2.422,5.844,5.844,0,0,1,3.164-.854,6.129,6.129,0,0,1,4.16,1.362A5.383,5.383,0,0,1,31.42,9.693H28a2.547,2.547,0,0,0-.654-1.865,2.691,2.691,0,0,0-1.875-.566,2.048,2.048,0,0,0-1.875.957,6.151,6.151,0,0,0-.625,3.057v1.006a6.806,6.806,0,0,0,.571,3.252,2.091,2.091,0,0,0,1.968.977,2.632,2.632,0,0,0,1.807-.557,2.363,2.363,0,0,0,.664-1.768Zm1.055-.566a6.236,6.236,0,0,1,.615-2.817,4.4,4.4,0,0,1,1.768-1.9,5.323,5.323,0,0,1,2.705-.664,4.858,4.858,0,0,1,3.74,1.47,5.64,5.64,0,0,1,1.367,4v.117a5.472,5.472,0,0,1-1.372,3.921,4.871,4.871,0,0,1-3.716,1.45,4.927,4.927,0,0,1-3.623-1.353,5.29,5.29,0,0,1-1.475-3.667Zm3.291.205a3.932,3.932,0,0,0,.459,2.148,1.529,1.529,0,0,0,1.357.684q1.758,0,1.8-2.705v-.332q0-2.842-1.816-2.842-1.65,0-1.787,2.451ZM47.2,8.434l.107,1.24a3.633,3.633,0,0,1,3.018-1.436A2.675,2.675,0,0,1,53.032,9.83a3.516,3.516,0,0,1,3.105-1.592q3.213,0,3.3,3.887V19h-3.3V12.33a2.014,2.014,0,0,0-.273-1.182,1.164,1.164,0,0,0-1-.371,1.559,1.559,0,0,0-1.455.869l.01.137V19h-3.3V12.35a2.117,2.117,0,0,0-.264-1.2,1.161,1.161,0,0,0-1.006-.371,1.578,1.578,0,0,0-1.445.869V19H44.116V8.434ZM66.43,19.2a5.432,5.432,0,0,1-3.936-1.45,5.008,5.008,0,0,1-1.5-3.774V13.7a6.489,6.489,0,0,1,.6-2.861,4.395,4.395,0,0,1,1.753-1.919,5.292,5.292,0,0,1,2.734-.679A4.574,4.574,0,0,1,69.594,9.62a5.43,5.43,0,0,1,1.289,3.853v1.279H64.34a2.372,2.372,0,0,0,.771,1.4,2.3,2.3,0,0,0,1.543.508A2.958,2.958,0,0,0,69.1,15.563l1.5,1.777a4.2,4.2,0,0,1-1.743,1.353A5.891,5.891,0,0,1,66.43,19.2Zm-.371-8.418q-1.445,0-1.719,1.914h3.32v-.254a1.63,1.63,0,0,0-.4-1.226A1.593,1.593,0,0,0,66.059,10.777Zm5.732,2.861a6.455,6.455,0,0,1,1.084-3.955A3.568,3.568,0,0,1,75.9,8.238a3.035,3.035,0,0,1,2.383,1.113V4h3.3V19H78.627l-.166-1.133A3.116,3.116,0,0,1,75.883,19.2a3.562,3.562,0,0,1-2.988-1.445A6.659,6.659,0,0,1,71.791,13.639Zm3.291.205q0,2.813,1.641,2.813a1.62,1.62,0,0,0,1.563-.918V11.715a1.576,1.576,0,0,0-1.543-.937q-1.523,0-1.65,2.461ZM88.569,19.2a5.432,5.432,0,0,1-3.936-1.45,5.008,5.008,0,0,1-1.5-3.774V13.7a6.489,6.489,0,0,1,.6-2.861,4.395,4.395,0,0,1,1.753-1.919,5.292,5.292,0,0,1,2.734-.679A4.574,4.574,0,0,1,91.733,9.62a5.43,5.43,0,0,1,1.289,3.853v1.279H86.479a2.372,2.372,0,0,0,.771,1.4,2.3,2.3,0,0,0,1.543.508,2.958,2.958,0,0,0,2.441-1.094l1.5,1.777A4.2,4.2,0,0,1,91,18.692,5.891,5.891,0,0,1,88.569,19.2ZM88.2,10.777q-1.445,0-1.719,1.914H89.8v-.254a1.63,1.63,0,0,0-.4-1.226A1.593,1.593,0,0,0,88.2,10.777Zm12.539.635-1.084-.078a1.947,1.947,0,0,0-1.992.977V19H94.37V8.434h3.086l.107,1.357a2.548,2.548,0,0,1,2.314-1.553,3.209,3.209,0,0,1,.918.117Zm.42,2.207a6.236,6.236,0,0,1,.615-2.817,4.4,4.4,0,0,1,1.768-1.9,5.323,5.323,0,0,1,2.705-.664,4.858,4.858,0,0,1,3.74,1.47,5.64,5.64,0,0,1,1.367,4v.117a5.472,5.472,0,0,1-1.372,3.921,4.871,4.871,0,0,1-3.716,1.45,4.927,4.927,0,0,1-3.623-1.353,5.29,5.29,0,0,1-1.475-3.667Zm3.291.205a3.932,3.932,0,0,0,.459,2.148,1.529,1.529,0,0,0,1.357.684q1.758,0,1.8-2.705v-.332q0-2.842-1.816-2.842-1.65,0-1.787,2.451Z" transform="translate(999.892 19454.566) rotate(30)" fill="#12263f"/>
    <path id="Trazado_825338" data-name="Trazado 825338" d="M41.113,16.344h-4.7L35.6,19H31.933L37.148,4.781h3.223L45.624,19H41.943ZM37.236,13.7h3.057L38.759,8.766Zm13.74,2.959a1.464,1.464,0,0,0,1.074-.376,1.379,1.379,0,0,0,.371-1.05h3.086a3.653,3.653,0,0,1-1.245,2.852A4.631,4.631,0,0,1,51.054,19.2a4.689,4.689,0,0,1-3.633-1.445,5.7,5.7,0,0,1-1.328-4v-.137a6.436,6.436,0,0,1,.591-2.827,4.3,4.3,0,0,1,1.7-1.885,5.081,5.081,0,0,1,2.637-.659A4.573,4.573,0,0,1,54.3,9.381a4.053,4.053,0,0,1,1.211,3.1H52.421a1.807,1.807,0,0,0-.4-1.26,1.382,1.382,0,0,0-1.074-.439q-1.279,0-1.494,1.631a11.507,11.507,0,0,0-.068,1.426,4.52,4.52,0,0,0,.381,2.207A1.319,1.319,0,0,0,50.976,16.656Zm10.391,0a1.464,1.464,0,0,0,1.074-.376,1.379,1.379,0,0,0,.371-1.05H65.9a3.653,3.653,0,0,1-1.245,2.852A4.631,4.631,0,0,1,61.445,19.2a4.689,4.689,0,0,1-3.633-1.445,5.7,5.7,0,0,1-1.328-4v-.137a6.436,6.436,0,0,1,.591-2.827,4.3,4.3,0,0,1,1.7-1.885,5.081,5.081,0,0,1,2.637-.659,4.573,4.573,0,0,1,3.271,1.143,4.053,4.053,0,0,1,1.211,3.1H62.812a1.807,1.807,0,0,0-.4-1.26,1.382,1.382,0,0,0-1.074-.439q-1.279,0-1.494,1.631a11.507,11.507,0,0,0-.068,1.426,4.52,4.52,0,0,0,.381,2.207A1.319,1.319,0,0,0,61.367,16.656ZM72.4,19.2a5.432,5.432,0,0,1-3.936-1.45,5.008,5.008,0,0,1-1.5-3.774V13.7a6.489,6.489,0,0,1,.6-2.861,4.395,4.395,0,0,1,1.753-1.919,5.292,5.292,0,0,1,2.734-.679A4.574,4.574,0,0,1,75.566,9.62a5.43,5.43,0,0,1,1.289,3.853v1.279H70.312a2.372,2.372,0,0,0,.771,1.4,2.3,2.3,0,0,0,1.543.508,2.958,2.958,0,0,0,2.441-1.094l1.5,1.777a4.2,4.2,0,0,1-1.743,1.353A5.891,5.891,0,0,1,72.4,19.2Zm-.371-8.418q-1.445,0-1.719,1.914h3.32v-.254a1.63,1.63,0,0,0-.4-1.226A1.593,1.593,0,0,0,72.031,10.777Zm11.68,5.254a.76.76,0,0,0-.439-.674,6.685,6.685,0,0,0-1.67-.527,7.615,7.615,0,0,1-2.031-.718,3.4,3.4,0,0,1-1.221-1.079,2.577,2.577,0,0,1-.42-1.455,2.92,2.92,0,0,1,1.2-2.4,4.948,4.948,0,0,1,3.145-.942,5.482,5.482,0,0,1,3.359.947,2.962,2.962,0,0,1,1.27,2.49H83.6q0-1.27-1.338-1.27a1.326,1.326,0,0,0-.869.288.892.892,0,0,0-.352.718.819.819,0,0,0,.43.713,4.06,4.06,0,0,0,1.372.449,11.857,11.857,0,0,1,1.655.42,3.007,3.007,0,0,1,2.383,2.939A2.767,2.767,0,0,1,85.6,18.287a5.631,5.631,0,0,1-3.325.908,5.747,5.747,0,0,1-2.422-.488,4.05,4.05,0,0,1-1.66-1.328,3.007,3.007,0,0,1-.6-1.768h3.076a1.272,1.272,0,0,0,.488,1.069,2.009,2.009,0,0,0,1.2.337,1.58,1.58,0,0,0,1.011-.273A.875.875,0,0,0,83.71,16.031Zm4.3-2.412a6.236,6.236,0,0,1,.615-2.817A4.4,4.4,0,0,1,90.39,8.9,5.323,5.323,0,0,1,93.1,8.238a4.858,4.858,0,0,1,3.74,1.47,5.64,5.64,0,0,1,1.367,4v.117a5.472,5.472,0,0,1-1.372,3.921,4.871,4.871,0,0,1-3.716,1.45,4.927,4.927,0,0,1-3.623-1.353,5.29,5.29,0,0,1-1.475-3.667Zm3.291.205a3.932,3.932,0,0,0,.459,2.148,1.529,1.529,0,0,0,1.357.684q1.758,0,1.8-2.705v-.332q0-2.842-1.816-2.842-1.65,0-1.787,2.451Z" transform="translate(325.892 19640.176) rotate(30)" fill="#12263f"/>
    <path id="Trazado_825337" data-name="Trazado 825337" d="M23.154,19V4.781h5.107a7.232,7.232,0,0,1,4.175,1.006,3.347,3.347,0,0,1,1.431,2.92,3.383,3.383,0,0,1-.508,1.885,2.959,2.959,0,0,1-1.494,1.152,3,3,0,0,1,1.709,1.094,3.18,3.18,0,0,1,.6,1.953,3.765,3.765,0,0,1-1.323,3.14A6.3,6.3,0,0,1,28.925,19Zm3.428-6.045v3.408h2.246a2.136,2.136,0,0,0,1.426-.425,1.487,1.487,0,0,0,.5-1.2,1.576,1.576,0,0,0-1.768-1.787Zm0-2.246h1.787a2.539,2.539,0,0,0,1.6-.411,1.46,1.46,0,0,0,.479-1.185,1.533,1.533,0,0,0-.518-1.3,2.77,2.77,0,0,0-1.67-.4h-1.68ZM41.015,19.2a5.432,5.432,0,0,1-3.936-1.45,5.008,5.008,0,0,1-1.5-3.774V13.7a6.489,6.489,0,0,1,.6-2.861,4.395,4.395,0,0,1,1.753-1.919,5.292,5.292,0,0,1,2.734-.679A4.574,4.574,0,0,1,44.179,9.62a5.43,5.43,0,0,1,1.289,3.853v1.279H38.925a2.372,2.372,0,0,0,.771,1.4,2.3,2.3,0,0,0,1.543.508,2.958,2.958,0,0,0,2.441-1.094l1.5,1.777a4.2,4.2,0,0,1-1.743,1.353A5.891,5.891,0,0,1,41.015,19.2Zm-.371-8.418q-1.445,0-1.719,1.914h3.32v-.254a1.63,1.63,0,0,0-.4-1.226A1.593,1.593,0,0,0,40.644,10.777ZM56.6,13.8A6.44,6.44,0,0,1,55.527,17.8,3.6,3.6,0,0,1,52.5,19.2a3.122,3.122,0,0,1-2.6-1.279L49.765,19H46.816V4h3.291V9.283A3.013,3.013,0,0,1,52.48,8.238a3.6,3.6,0,0,1,3.047,1.416A6.473,6.473,0,0,1,56.6,13.639Zm-3.3-.21a4.3,4.3,0,0,0-.405-2.169,1.366,1.366,0,0,0-1.245-.648,1.576,1.576,0,0,0-1.543.848v4.192a1.585,1.585,0,0,0,1.563.838,1.4,1.4,0,0,0,1.475-1.131A8.121,8.121,0,0,0,53.3,13.595Zm9.863,5.6a5.432,5.432,0,0,1-3.936-1.45,5.008,5.008,0,0,1-1.5-3.774V13.7a6.489,6.489,0,0,1,.6-2.861,4.395,4.395,0,0,1,1.753-1.919,5.292,5.292,0,0,1,2.734-.679A4.574,4.574,0,0,1,66.328,9.62a5.43,5.43,0,0,1,1.289,3.853v1.279H61.074a2.372,2.372,0,0,0,.771,1.4,2.3,2.3,0,0,0,1.543.508,2.958,2.958,0,0,0,2.441-1.094l1.5,1.777a4.2,4.2,0,0,1-1.743,1.353A5.891,5.891,0,0,1,63.164,19.2Zm-.371-8.418q-1.445,0-1.719,1.914h3.32v-.254a1.63,1.63,0,0,0-.4-1.226A1.593,1.593,0,0,0,62.792,10.777Zm5.732,2.861a6.455,6.455,0,0,1,1.084-3.955,3.568,3.568,0,0,1,3.027-1.445,3.035,3.035,0,0,1,2.383,1.113V4h3.3V19H75.361l-.166-1.133A3.116,3.116,0,0,1,72.617,19.2a3.562,3.562,0,0,1-2.988-1.445A6.659,6.659,0,0,1,68.525,13.639Zm3.291.205q0,2.813,1.641,2.813a1.62,1.62,0,0,0,1.563-.918V11.715a1.576,1.576,0,0,0-1.543-.937q-1.523,0-1.65,2.461ZM85.3,19.2a5.432,5.432,0,0,1-3.936-1.45,5.008,5.008,0,0,1-1.5-3.774V13.7a6.489,6.489,0,0,1,.6-2.861,4.395,4.395,0,0,1,1.753-1.919,5.292,5.292,0,0,1,2.734-.679A4.574,4.574,0,0,1,88.466,9.62a5.43,5.43,0,0,1,1.289,3.853v1.279H83.212a2.372,2.372,0,0,0,.771,1.4,2.3,2.3,0,0,0,1.543.508,2.958,2.958,0,0,0,2.441-1.094l1.5,1.777a4.2,4.2,0,0,1-1.743,1.353A5.891,5.891,0,0,1,85.3,19.2Zm-.371-8.418q-1.445,0-1.719,1.914h3.32v-.254a1.63,1.63,0,0,0-.4-1.226A1.593,1.593,0,0,0,84.931,10.777Zm12.539.635-1.084-.078a1.947,1.947,0,0,0-1.992.977V19H91.1V8.434h3.086L94.3,9.791a2.548,2.548,0,0,1,2.314-1.553,3.209,3.209,0,0,1,.918.117Zm.42,2.207a6.236,6.236,0,0,1,.615-2.817,4.4,4.4,0,0,1,1.768-1.9,5.323,5.323,0,0,1,2.705-.664,4.858,4.858,0,0,1,3.74,1.47,5.64,5.64,0,0,1,1.367,4v.117a5.472,5.472,0,0,1-1.372,3.921A4.871,4.871,0,0,1,103,19.2a4.927,4.927,0,0,1-3.623-1.353A5.29,5.29,0,0,1,97.9,14.176Zm3.291.205a3.932,3.932,0,0,0,.459,2.148,1.529,1.529,0,0,0,1.357.684q1.758,0,1.8-2.705v-.332q0-2.842-1.816-2.842-1.65,0-1.787,2.451Z" transform="translate(1000 19964.227) rotate(-30)" fill="#12263f"/>
    <g id="Grupo_1070649" data-name="Grupo 1070649" transform="translate(335.363 -830.537)">
      <path id="Trazado_624980" data-name="Trazado 624980" d="M153.178,347.659c11.422-6.592,29.963-6.592,41.4,0l85.556,49.166a22.752,22.752,0,0,1,4.425,3.311L326.442,375.8l23.236,13.409c-4.394-5.327-2.8-11.889,4.831-16.3,9.707-5.6,25.433-5.6,35.14,0l28.8,16.554c9.692,5.6,9.692,14.673,0,20.287s-25.433,5.6-35.14,0l-3.973-2.3-100.2,58.362L225.22,434.674l19.474-11.317a31.741,31.741,0,0,1-5.9-2.619l-85.616-49.151C141.741,364.981,141.741,354.28,153.178,347.659Z" transform="translate(343.914 20238.652)" fill="#35241a" opacity="0.1"/>
      <path id="Trazado_624981" data-name="Trazado 624981" d="M239.52,282.573,255.232,270.4,252.6,239.622l13.966-5.222,6.2,25.449v12.9l-1.309,8.157-26.652,9.12Z" transform="translate(439.58 20236.377)" fill="#d4eeff"/>
      <path id="Trazado_624982" data-name="Trazado 624982" d="M319.364,362.87c1.189,1.625,1.114,5.328.768,9.526-1.219,4.214-5.222,3.807-8.668,4.289-6.622.918-10.008,5.839-18.8,5.659-5.237-.09-8.714-1.279-9.752-4.605-.135-1.5.783-3.01,2.664-4.605,12.13-5.177,12.115-5.192,12.4-5.373a61.211,61.211,0,0,0,5.869-4.44c.105-.406,2.242-9.571,2.242-9.571l12.912.226Z" transform="translate(413.748 20244.225)"/>
      <path id="Trazado_624983" data-name="Trazado 624983" d="M319.916,295.868l-9.3,50.972c1.4,15.531,6.757,30.836,5.327,45.84-1.144,6.215-14,5.282-16.449.707.843-11.663-6.02-28.94-8.578-48.068-.557-18.917-.331-38.391,3.522-53.41Z" transform="translate(417.681 20213)" fill="#0051a3"/>
      <path id="Trazado_624984" data-name="Trazado 624984" d="M330.46,374.517c1.2,3.823,1.43,4.921.933,7.75-.557,1.5-1.129,2.167-1.761,4.244-.722,2.558-.617,6.817-4.409,9.376-4.515,3.582-13.289,3.747-16.043-.075a20.091,20.091,0,0,1,3.522-9.3l4.515-8.262-.286-7.75,12.762-2.8Z" transform="translate(427.017 20251.27)"/>
      <path id="Trazado_624985" data-name="Trazado 624985" d="M340.271,410.393a3.973,3.973,0,0,1-1.7,3.3,6.156,6.156,0,0,1-1.5.828c-4,1.6-10.61.572-12.807-2.182-1.264-11.618-6.712-29.211-12.672-47.571-1.37-9.03-2.438-17.894-3.01-26.306-.256-3.356-.436-6.622-.542-9.827-10.881-3.507-13.243-16.268-16.7-18.947.828-7.329,0-10.535.783-16.554l17.683-.406L337,292.09c2.619,8.578.948,17.171-2.5,25.75L333.318,365.7A172.179,172.179,0,0,1,340.271,410.393Z" transform="translate(418.004 20213.09)" fill="#0071bc"/>
      <path id="Trazado_624986" data-name="Trazado 624986" d="M342.671,308.415c-8.488,6.727-17.788,9.376-27.4,7.946a44.2,44.2,0,0,1-17.487-6.908,6.817,6.817,0,0,0-.361-1.746c-2.363-6.637-15.26-15.049-17.487-28.413l1.37-16.645a31.9,31.9,0,0,1,13.033-3.01c8.232,0,15.049,4.018,21.295,9.571a22.123,22.123,0,0,1,9.707,3.4,21.3,21.3,0,0,1,4.921,4.515,36.437,36.437,0,0,1,4.861,8.428C338.006,292.312,339.932,300.379,342.671,308.415Z" transform="translate(412.248 20196.705)" fill="#0071bc"/>
      <path id="Trazado_624987" data-name="Trazado 624987" d="M325.787,372.293c3.612-9.9,3.582-24.275,2.739-39.6l-20.934,13.439-.542-9.827L293.1,309.643c6.02,3.1,11.438,3.672,15.516-1.61v-.376l.2-7.314.482-18.827,14.733,4.515,4.515-9.15c2.889,6.727,4.816,14.794,7.525,22.83,2.619,8.578.948,17.171-2.5,25.75l-1.144,47.917a172.179,172.179,0,0,1,6.953,44.712C334.772,400.165,330.091,378.147,325.787,372.293Z" transform="translate(418.898 20205.41)" fill="#0071bc" opacity="0.5"/>
      <path id="Trazado_624988" data-name="Trazado 624988" d="M267.74,311.141l20.648,35.787,26.5-19.73c1.821-1.385,2.935-3.9,2.935-7.359a26.381,26.381,0,0,0-11.919-20.648c-3.01-1.731-5.734-2.017-7.826-1.114C298.065,298.063,267.74,311.141,267.74,311.141Z" transform="translate(406.092 20215.861)" fill="#f15a24"/>
      <path id="Trazado_624989" data-name="Trazado 624989" d="M275.471,306.642a14.5,14.5,0,0,1,3.567,1.505c8.082,4.665,14.643,16.013,14.643,25.343a16.09,16.09,0,0,1-.436,3.868c-1.6,6.441-7.344,8.563-14.207,4.59-8.082-4.665-14.643-16.028-14.628-25.358C264.41,308.719,269.12,304.791,275.471,306.642Z" transform="translate(404.411 20220.209)" fill="#ad411a"/>
      <path id="Trazado_624990" data-name="Trazado 624990" d="M290.342,319.021a30.686,30.686,0,0,1,4.41,14.809,16.119,16.119,0,0,1-.467,4.063,9.03,9.03,0,0,1-5.072,6.546c-2.89,1.234-6.547.707-10.294-1.5-8.307-4.786-15.049-16.479-15.049-26.051,0-4.334,1.4-7.766,3.913-9.647a9.03,9.03,0,0,1,8.187-1.114,16.359,16.359,0,0,1,3.747,1.625A30.73,30.73,0,0,1,290.342,319.021ZM269.649,330.97a29.181,29.181,0,0,0,10.068,10.625c3.311,1.911,6.456,2.393,8.879,1.369a7.525,7.525,0,0,0,4.139-5.448,15.426,15.426,0,0,0,.421-3.687c0-9.03-6.4-20.121-14.237-24.651a14.841,14.841,0,0,0-3.386-1.5,7.524,7.524,0,0,0-6.787.858c-2.107,1.58-3.266,4.515-3.266,8.367a29.226,29.226,0,0,0,4.169,14.071Z" transform="translate(404.138 20219.916)" fill="#ad411a"/>
      <path id="Trazado_624991" data-name="Trazado 624991" d="M286.624,322.9a12.371,12.371,0,0,1,0,5.749l-2.152,1.249c-1.189.677-2.152,0-2.152-1.625a5.162,5.162,0,0,1,2.152-4.124Z" transform="translate(413.454 20228.648)" fill="#f15a24"/>
      <path id="Trazado_624992" data-name="Trazado 624992" d="M266.649,309.9a12.717,12.717,0,0,1,0,5.734l-2.167,1.249c-1.189.692-2.152,0-2.152-1.625a5.162,5.162,0,0,1,2.152-4.124Z" transform="translate(403.361 20222.082)" fill="#ad411a"/>
      <path id="Trazado_624993" data-name="Trazado 624993" d="M264.41,310.179v3.762l1.9,1.61h3.732l2.242-1.279,3.175-2.649-.2-1.716-2.784.135.286-2.152,3.01-1.324a29.745,29.745,0,0,0,1.821,2.468c2.438,2.227,2.438-.346,2.438-.346l-1.279-3.4.331-.15-.813-2.724-3.537-1.174-5.779,3.01Z" transform="translate(404.411 20217.711)" fill="#ffb294"/>
      <path id="Trazado_624994" data-name="Trazado 624994" d="M303.335,311.68l-3.913,3.491-5.388,2.453-1.987.993-2.513,2.844c-1.023,1.385.677,2.348,2.092,1.234l3.552-2.182v4.515l-1.6,2.9-3.853,2.859h4.2l7.766-2.167,3.01-3.687,3.19-9.752Z" transform="translate(416.94 20222.982)" fill="#ffb294"/>
      <path id="Trazado_624995" data-name="Trazado 624995" d="M307.814,284.35l2.032,28.233L296,335.518c4.229,0,6.923,2.829,6.456,6.155,9.406-5.779,15.32-10.971,22.574-22.89,2.408-9.436,2.438-21.822,1.866-34.915C325.045,262.709,306.113,272.311,307.814,284.35Z" transform="translate(420.362 20202.635)" fill="#d4eeff"/>
      <path id="Trazado_624996" data-name="Trazado 624996" d="M323.97,272.633c-.587,0-17.262-.843-14.613,23.628l-20.016-4.665s-10.264-10.9-5.4-21.265a34.311,34.311,0,0,1,9.03-10.67c8.232,0,15.049,4.018,21.295,9.571a22.123,22.123,0,0,1,9.707,3.4Z" transform="translate(413.612 20196.715)" fill="#d4eeff"/>
      <path id="Trazado_624997" data-name="Trazado 624997" d="M299.586,261l3.582,6.291c2.874,7.66-6.23,14.026-11.829,13.108l-5.659-10.2Z" transform="translate(415.151 20197.391)" fill="#ffb294"/>
      <path id="Trazado_624998" data-name="Trazado 624998" d="M298.317,266.17c.211,3.747,1.5,11.091,0,14.3-4.184,7.615-9.511-1.866-11.257-4.319Z" transform="translate(415.848 20200.002)" fill="#ffb294" opacity="0.5"/>
      <path id="Trazado_624999" data-name="Trazado 624999" d="M301.89,269.726c-.587,5.192-2.152,10.158-7.871,13.785a3.958,3.958,0,0,1-4.921-.12l-4.665-6.366a17.066,17.066,0,0,1-3.943-6.772l7.088-14.613h11.016l5.222,7.194Z" transform="translate(412.53 20194.686)" fill="#ffb294"/>
      <path id="Trazado_625000" data-name="Trazado 625000" d="M305.666,270.055l-4.364.933a3.747,3.747,0,0,0-4.741-.361,16.856,16.856,0,0,1-10.535,3.326,7.615,7.615,0,0,1-7.525-8.337c.3-4.184,7.374-13.65,15.531-13.108,9.647.662,14.252,7.856,12.431,18.526Z" transform="translate(411.509 20193.092)"/>
      <path id="Trazado_625001" data-name="Trazado 625001" d="M296.1,261.02a1.806,1.806,0,0,1,1.911.677,2.453,2.453,0,0,1,.331,1.5,7.72,7.72,0,0,1-.753,3.221,3.387,3.387,0,0,1-.813,1.129,1.58,1.58,0,0,1-1.279.436c-1.655-.241-1.354-2.348-1.5-3.522A3.16,3.16,0,0,1,296.1,261.02Z" transform="translate(419.331 20197.371)" fill="#ffb294"/>
      <path id="Trazado_625002" data-name="Trazado 625002" d="M297.8,263.813c-.346,6.742-3.9,13.213-10.79,13.454L280,267.756l2.558-6.366Z" transform="translate(412.283 20197.588)" fill="#ffb294" opacity="0.5"/>
      <path id="Trazado_625003" data-name="Trazado 625003" d="M287.973,264.8a31.964,31.964,0,0,0,10.64-.557c-.075.105.737,0,.662.151-4.169,5.358-9.03,13.544-19.278,10.535-9.03-2.634-4.515-7.525-.316-12.822l.271-.346a15.787,15.787,0,0,0,8.021,3.04Z" transform="translate(409.637 20197.775)" fill="#0051a3"/>
      <path id="Trazado_625004" data-name="Trazado 625004" d="M297.62,270.311a18.511,18.511,0,0,0,8.774-7.766s-.662-13-12.431-12.491c-19.218.828-15.666,17.683-15.666,17.683C281.412,272.208,288.846,272,297.62,270.311Z" transform="translate(411.292 20191.857)" fill="#0071bc"/>
      <g id="Grupo_895854" data-name="Grupo 895854" transform="translate(568.878 20592.949)">
        <path id="Trazado_625005" data-name="Trazado 625005" d="M235.24,430.81v9.225c0,3.19-1.129,5.418-3.01,6.471l102.336-59.49c1.821-1.053,3.01-3.3,3.01-6.471V371.32Z" transform="translate(-180.716 -339.852)" fill="#754c24"/>
        <path id="Trazado_625006" data-name="Trazado 625006" d="M166.29,375.07l102.381-59.49,54.494,31.468L220.8,406.539Z" transform="translate(-166.275 -315.58)" fill="#fbb03b"/>
        <path id="Trazado_625007" data-name="Trazado 625007" d="M172.07,373.364l93.683-54.434,45.81,26.442-93.7,54.449Z" transform="translate(-163.356 -313.888)" fill="#754c24"/>
        <path id="Trazado_625008" data-name="Trazado 625008" d="M252.524,421.408v9.225c0,6.411-4.515,9.03-10.113,5.779l-34.328-19.82A22.153,22.153,0,0,1,198,399.165V389.94Z" transform="translate(-198 -330.45)" fill="#c4720e"/>
      </g>
      <g id="Grupo_895855" data-name="Grupo 895855" transform="translate(663.734 20526.398)" clip-path="url(#clip-path)">
        <path id="Trazado_625009" data-name="Trazado 625009" d="M291.33,314s-13.168,7.991-17.141,18.977-6.02,53-6.02,53l-2.769,18.27,6.321-1.776L283.1,390.436l3.266-49.9,12.04-8.443Z" transform="translate(-258.823 -302.245)" fill="#54371a"/>
      </g>
      <path id="Trazado_625011" data-name="Trazado 625011" d="M276.408,330.2l-12.431-5.3-8.518,4.093-7.946,1.2-4.921,6.7-10.4,4.515-9.767,3.1-15.531,15.7L203.87,372.2H193.034l-10.5,7.254,30.054,17.352L300.2,345.879l-14.342-5.99-.9-7.133Z" transform="translate(410.803 20282.074)" fill="#54371a"/>
      <path id="Trazado_625012" data-name="Trazado 625012" d="M225.362,395.249l2.6,7.344-3.853-2.558v5.6s-1.821.2-6.02-3.853a16.987,16.987,0,0,1-2.2-2.573,29.164,29.164,0,0,1-3.9-8.187s.211-17.262-5.689-28.022c-9.331-17.021-6.893-42.138-6.893-42.138s25.358,9.135,28.594,29.226-4.063,23.327-4.063,23.327l-.391,16.63Z" transform="translate(371.448 20227.617)" fill="#b85e5e"/>
      <path id="Trazado_625013" data-name="Trazado 625013" d="M222.34,377.7l-3.853-2.558v5.6s-1.821.2-6.02-3.853a16.987,16.987,0,0,1-2.2-2.573,15.427,15.427,0,0,1,3.838-3.145,8.172,8.172,0,0,1,5.689-.813Z" transform="translate(377.073 20252.512)"/>
      <path id="Trazado_625014" data-name="Trazado 625014" d="M182.036,372.8l2.589,7.344-3.838-2.558v5.6s-1.836.2-6.02-3.853a16.886,16.886,0,0,1-2.182-2.573,29.182,29.182,0,0,1-3.9-8.172s.211-17.262-5.689-28.022c-9.331-17.021-6.893-42.138-6.893-42.138s25.358,9.12,28.594,29.211-4.048,23.342-4.048,23.342l-.482,16.584Z" transform="translate(349.579 20216.291)" fill="#b85e5e"/>
      <path id="Trazado_625015" data-name="Trazado 625015" d="M179.04,355.259,175.2,352.7v5.6s-1.836.2-6.02-3.853A16.888,16.888,0,0,1,167,351.872a15.634,15.634,0,0,1,3.823-3.13,8.142,8.142,0,0,1,5.7-.828Z" transform="translate(355.225 20241.182)"/>
      <path id="Trazado_625016" data-name="Trazado 625016" d="M271.478,362.211s-.256,17.1-27.089,22.574a94.81,94.81,0,0,1-25.584,1.731c-16.554-1.144-31.288-6.787-42.138-15.32a95.191,95.191,0,0,1-8.729-7.856,148.282,148.282,0,0,1-21.852-29.572c-2.513-4.319-3.371-11.769-2.679-18.466a28.187,28.187,0,0,1,2.679-10.038c3.807-7.148,19.564-12.626,19.564-12.626,3.928-1.625,11.6-1.219,16.78-.677a26.171,26.171,0,0,1,9.421,2.814c11.874,6.185,45.69,23.944,53.681,29.8C255.405,331.691,271.478,362.211,271.478,362.211Z" transform="translate(343.195 20212.783)" fill="#ff9797"/>
      <path id="Trazado_625017" data-name="Trazado 625017" d="M211.766,361.384l-1.249,6.547c-16.554-1.144-31.288-6.787-42.138-15.32a95.2,95.2,0,0,1-8.729-7.856l4.394-16.554C173.39,346.274,191.78,354.717,211.766,361.384Z" transform="translate(351.513 20231.324)" fill="#d98080" opacity="0.25"/>
      <path id="Trazado_625018" data-name="Trazado 625018" d="M168.739,379.653l3.326,9.376L168.2,386.8v5.282s-1.821.2-6.02-3.868a18.059,18.059,0,0,1-3.01-3.762,30.1,30.1,0,0,1-3.115-6.983s.226-17.262-5.674-28.022c-9.331-17.021-6.893-42.138-6.893-42.138s25.358,9.135,28.594,29.211S168,359.863,168,359.863l-.391,16.63Z" transform="translate(343.207 20220.775)" fill="#ff9797"/>
      <path id="Trazado_625019" data-name="Trazado 625019" d="M166.707,364.782l-3.868-2.227v5.282s-1.821.2-6.02-3.868a18.059,18.059,0,0,1-3.01-3.762c2.378-3.446,7.916-5.3,9.6-4.8Z" transform="translate(348.564 20245.021)"/>
      <path id="Trazado_625020" data-name="Trazado 625020" d="M212.054,402.092l3.326,9.376-3.853-2.242v5.282s-1.836.2-6.02-3.853a18.632,18.632,0,0,1-3.01-3.762,30.356,30.356,0,0,1-3.1-6.983s.211-17.262-5.689-28.022c-9.331-17.021-6.893-42.138-6.893-42.138s9.842,21.355,28.594,29.211a3.778,3.778,0,0,1,2.167,3.4c.813,6.667-6.23,19.94-6.23,19.94l-.406,16.63Z" transform="translate(365.086 20232.105)" fill="#ff9797"/>
      <path id="Trazado_625021" data-name="Trazado 625021" d="M210.022,387.222l-3.853-2.242v5.282s-1.836.2-6.02-3.853a19.051,19.051,0,0,1-3.01-3.762c2.378-3.446,7.916-5.3,9.6-4.8Z" transform="translate(370.444 20256.352)"/>
      <path id="Trazado_625022" data-name="Trazado 625022" d="M210.1,374.82l-.406,16.63.737-24.4c-12.371-.993-17.788-13.695-21.506-22.574l27.4,10.354C217.148,361.546,210.1,374.82,210.1,374.82Z" transform="translate(366.298 20239.543)" fill="#d98080" opacity="0.25"/>
      <path id="Trazado_625023" data-name="Trazado 625023" d="M188.93,347.02l32.055-2.348s15.049-7.344,27.39-4.515,4.169,15.516,4.169,15.516l-54.479-1.881Z" transform="translate(366.298 20237.035)" fill="#d98080" opacity="0.25"/>
      <path id="Trazado_625024" data-name="Trazado 625024" d="M249.659,401.807a3.012,3.012,0,0,1-.692-.482c-2.754-1.791-5.132-3.281-7.254-4.515a61.98,61.98,0,0,0-11.558-5.463c-2.92-.978-13.544-4.515-18.059-10.053-5.267-6.321-4.033-14.763-3.206-18.24.256-1.023.451-1.625.451-1.625l2.634-11.046c5.508-7.3,19.308-12.611,28.112-11.859l9.872,6.411c9.406,11.091,5.538,17.262,5.749,21.746l1.038,5.267c1.053,4.966,3.792,14.929,7.525,20.256a4.033,4.033,0,0,1,.617.873C266.424,397.066,255.017,404.877,249.659,401.807Z" transform="translate(376 20236.5)" fill="#ff9797"/>
      <path id="Trazado_625025" data-name="Trazado 625025" d="M226.1,353.336l3.507-5.3A110.927,110.927,0,0,1,233.474,334c1.911-4.756,8.518-14.447,8.518-14.447s8.488,15.23,7.148,22.363-12.356,15.049-12.356,15.049Z" transform="translate(385.067 20226.957)" fill="#ff9797"/>
      <path id="Trazado_625026" data-name="Trazado 625026" d="M235.72,384.18a3.01,3.01,0,0,1,.286-1.249,8.231,8.231,0,0,1,1.58-2.092l3.386-3.657a16.555,16.555,0,0,1,3.191-2.889,5.658,5.658,0,0,1,4.108-.918,4.184,4.184,0,0,1,2.483,1.7C252.38,379.244,241.153,387.371,235.72,384.18Z" transform="translate(389.924 20254.098)" fill="#d98080"/>
      <path id="Trazado_625027" data-name="Trazado 625027" d="M240.491,376.648c.151-.226.376-.451.632-.406s.406.557.406.9v1.731a5.839,5.839,0,0,1-.346,2.107c-.241.527-.843,1.279-1.5,1.219s-.361-.677-.211-1.174C239.843,379.613,239.663,377.927,240.491,376.648Z" transform="translate(391.715 20255.578)" fill="#1a1a1a"/>
      <path id="Trazado_625028" data-name="Trazado 625028" d="M242.67,376a1.716,1.716,0,0,1,.135-.722.692.692,0,0,1,.632-.391.662.662,0,0,1,.5.346,1.5,1.5,0,0,1,.181.557,8.307,8.307,0,0,1,.211,2.423c0,.467-1.038,2.859-1.655,1.866-.271-.421,0-1.294,0-1.761C242.625,377.554,242.655,376.771,242.67,376Z" transform="translate(393.373 20254.898)" fill="#1a1a1a"/>
      <path id="Trazado_625029" data-name="Trazado 625029" d="M224.047,359.449a3.657,3.657,0,0,0,1.234,1.505,2.619,2.619,0,0,0,.843.482,1.159,1.159,0,0,0,.948,0,1.2,1.2,0,0,0,.542-1.144,2.618,2.618,0,0,0-.452-1.219,3.311,3.311,0,0,0-1.189-1.264C224.619,356.966,223.505,358.065,224.047,359.449Z" transform="translate(383.959 20246.125)" fill="#1a1a1a"/>
      <path id="Trazado_625030" data-name="Trazado 625030" d="M238.362,355.052c.135.361.361.737.737.783a.737.737,0,0,0,.677-.406,1.5,1.5,0,0,0,.15-.813,3.16,3.16,0,0,0-.722-1.866,1.506,1.506,0,0,0-.5-.421C237.489,351.862,238.167,354.555,238.362,355.052Z" transform="translate(391.074 20243.48)" fill="#1a1a1a"/>
      <path id="Trazado_625031" data-name="Trazado 625031" d="M241.713,388.546a61.972,61.972,0,0,0-11.558-5.463c-2.92-.978-13.544-4.515-18.059-10.053-5.267-6.321-4.033-14.763-3.206-18.24h.482s5,21.792,20.362,23.191Z" transform="translate(376 20244.75)" fill="#d98080" opacity="0.25"/>
      <path id="Trazado_625032" data-name="Trazado 625032" d="M225.607,348.711c-.421,0-5.929-3.326-10.113-4.033s-26.953.286-26.562-.135,10.625,26.231,30.58,18.315S225.607,348.711,225.607,348.711Z" transform="translate(366.296 20239.512)" fill="#ff9797"/>
      <path id="Trazado_625033" data-name="Trazado 625033" d="M191.36,346.4s6.7,21.37,26.5,14.673c4.274-1.5,3.657-6.426,3.657-6.426S202.933,350.87,191.36,346.4Z" transform="translate(367.525 20240.514)" fill="#a65050"/>
      <path id="Trazado_625034" data-name="Trazado 625034" d="M217.637,344.723a5.4,5.4,0,0,0,1.023,6.02c1.7,1.655,4.244,1.956,6.546,2.513a17.923,17.923,0,0,1,6.667,4.2,4.8,4.8,0,0,0,7.931-4.063,9.761,9.761,0,0,1,0-1.084,14.011,14.011,0,0,0-2.558-8.593,10.7,10.7,0,0,0-7.209-4.078C226.516,339.245,219.352,341.217,217.637,344.723Z" transform="translate(380.542 20237.074)" fill="#fff" opacity="0.15"/>
      <path id="Trazado_625035" data-name="Trazado 625035" d="M157.7,305.48a14.87,14.87,0,0,0,3.145-.391c6.14-1.234,12.4,0,18.36,1.731,23.823,6.847,45.9,19.263,61.387,38.256a2.468,2.468,0,0,0,4.259-2.378,40.108,40.108,0,0,0-5.207-9.511c-3.537-4.8-8.262-7.525-13.108-10.971-9.632-6.893-17.818-10.113-27.45-17.006-6.02-4.244-12.04-8.563-18.947-10.82a39.55,39.55,0,0,0-22.288-.466C152.207,295.593,147.24,305.36,157.7,305.48Z" transform="translate(347.444 20213.32)" fill="#fff" opacity="0.15"/>
      <path id="Trazado_625036" data-name="Trazado 625036" d="M145.337,303.259a8.789,8.789,0,0,1-8.668-10.535,1.219,1.219,0,0,1,1.5-.948,1.2,1.2,0,0,1,.933,1.5,6.4,6.4,0,0,0,7.63,7.525,7.39,7.39,0,0,1-3.145-4.184,6.215,6.215,0,0,1,.647-4.7,5.177,5.177,0,0,1,3.175-2.483,5.3,5.3,0,0,1,4.2.828,6.02,6.02,0,0,1,2.468,3.461,7.4,7.4,0,0,1-1.5,6.261,17.2,17.2,0,0,0,3.988-.542,1.221,1.221,0,1,1,.557,2.378,16.223,16.223,0,0,1-7.1.346A9.617,9.617,0,0,1,145.337,303.259Zm3.175-11.618a2.26,2.26,0,0,0-.557,0,2.709,2.709,0,0,0-1.671,1.354,3.657,3.657,0,0,0-.406,2.814,5.553,5.553,0,0,0,3.672,3.552l.286-.226a5.252,5.252,0,0,0,1.836-4.966,3.491,3.491,0,0,0-3.16-2.528Z" transform="translate(339.821 20211.688)" fill="#ff9797"/>
    </g>
    <g id="Grupo_1070655" data-name="Grupo 1070655" transform="translate(-168.138 -939.646)">
      <path id="Trazado_630398" data-name="Trazado 630398" d="M14.36,273.89v15.139l6.277,3.739V277.628Z" transform="translate(492.218 20096.561)" fill="#a97c50"/>
      <path id="Trazado_630401" data-name="Trazado 630401" d="M14.36,280.31V295.4l6.277,3.739V284.048Z" transform="translate(492.218 20119.771)" fill="#a97c50"/>
      <path id="Trazado_630404" data-name="Trazado 630404" d="M14.79,277.93v14.077L213.715,407.162V393.085Z" transform="translate(493.773 20111.168)" fill="#a97c50"/>
      <path id="Trazado_630405" data-name="Trazado 630405" d="M57.89,305.845,65,302.06v14.123l-7.108,3.738Z" transform="translate(649.598 20198.408)" fill="#8b5e3c"/>
      <path id="Trazado_630406" data-name="Trazado 630406" d="M213.715,396.014l7.108-3.785L21.9,277.12l-7.108,3.738Z" transform="translate(493.773 20108.238)" fill="#c69466"/>
      <path id="Trazado_630407" data-name="Trazado 630407" d="M14.79,284.55v14.123L213.715,413.782V399.705Z" transform="translate(493.773 20135.102)" fill="#a97c50"/>
      <path id="Trazado_630408" data-name="Trazado 630408" d="M57.89,312.465,65,308.68V322.8l-7.108,3.738Z" transform="translate(649.598 20222.342)" fill="#8b5e3c"/>
      <path id="Trazado_630409" data-name="Trazado 630409" d="M213.715,402.634l7.108-3.785L21.9,283.74l-7.108,3.738Z" transform="translate(493.773 20132.174)" fill="#c69466"/>
      <path id="Trazado_630416" data-name="Trazado 630416" d="M17.21,275.34v75.047l12.508,7.477v-75Z" transform="translate(502.522 20101.803)" fill="#a97c50"/>
      <path id="Trazado_630417" data-name="Trazado 630417" d="M19.92,279.9l7.108-3.738v75L19.92,354.9Z" transform="translate(512.32 20104.768)" fill="#8b5e3c"/>
      <path id="Trazado_630418" data-name="Trazado 630418" d="M29.718,285.792l7.108-3.738L24.318,274.53l-7.108,3.738Z" transform="translate(502.522 20098.875)" fill="#c69466"/>
      <path id="Trazado_630419" data-name="Trazado 630419" d="M24.24,279.3v75l12.554,7.523v-75Z" transform="translate(527.939 20116.121)" fill="#a97c50"/>
      <path id="Trazado_630420" data-name="Trazado 630420" d="M26.96,283.859l7.108-3.739v75l-7.108,3.738Z" transform="translate(537.773 20119.086)" fill="#8b5e3c"/>
      <path id="Trazado_630421" data-name="Trazado 630421" d="M36.794,289.752l7.108-3.739L31.348,278.49l-7.108,3.739Z" transform="translate(527.939 20113.191)" fill="#c69466"/>
      <path id="Trazado_630422" data-name="Trazado 630422" d="M31.28,283.26v75l12.508,7.523v-75Z" transform="translate(553.392 20130.438)" fill="#a97c50"/>
      <path id="Trazado_630423" data-name="Trazado 630423" d="M33.99,287.855,41.1,284.07v75l-7.108,3.785Z" transform="translate(563.189 20133.367)" fill="#8b5e3c"/>
      <path id="Trazado_630424" data-name="Trazado 630424" d="M43.788,293.712l7.108-3.785L38.388,282.45l-7.108,3.738Z" transform="translate(553.392 20127.51)" fill="#c69466"/>
      <path id="Trazado_630425" data-name="Trazado 630425" d="M38.32,287.22v75l12.508,7.523v-75Z" transform="translate(578.844 20144.756)" fill="#a97c50"/>
      <path id="Trazado_630426" data-name="Trazado 630426" d="M41.03,291.815l7.108-3.785v75l-7.108,3.785Z" transform="translate(588.642 20147.684)" fill="#8b5e3c"/>
      <path id="Trazado_630427" data-name="Trazado 630427" d="M50.828,297.672l7.108-3.785L45.428,286.41l-7.108,3.739Z" transform="translate(578.844 20141.826)" fill="#c69466"/>
      <path id="Trazado_630428" data-name="Trazado 630428" d="M45.35,291.18v75L57.9,373.658v-75Z" transform="translate(604.261 20159.072)" fill="#a97c50"/>
      <path id="Trazado_630429" data-name="Trazado 630429" d="M48.07,295.729l7.108-3.739v75l-7.108,3.738Z" transform="translate(614.095 20162)" fill="#8b5e3c"/>
      <path id="Trazado_630430" data-name="Trazado 630430" d="M57.9,301.585l7.108-3.739L52.458,290.37l-7.108,3.739Z" transform="translate(604.261 20156.143)" fill="#c69466"/>
      <path id="Trazado_630431" data-name="Trazado 630431" d="M52.39,295.14v75L64.9,377.618v-75Z" transform="translate(629.713 20173.389)" fill="#a97c50"/>
      <path id="Trazado_630432" data-name="Trazado 630432" d="M55.1,299.688l7.108-3.738v75L55.1,374.689Z" transform="translate(639.511 20176.318)" fill="#8b5e3c"/>
      <path id="Trazado_630433" data-name="Trazado 630433" d="M64.9,305.582l7.108-3.738L59.5,294.32,52.39,298.1Z" transform="translate(629.713 20170.424)" fill="#c69466"/>
      <path id="Trazado_630463" data-name="Trazado 630463" d="M76.9,287.562l6.646,1.477A12.232,12.232,0,0,0,83,283.27a25.857,25.857,0,0,0-5.492-.507C76.35,283.454,76.9,286.316,76.9,287.562Z" transform="translate(603.308 20096.32)" fill="#663620"/>
      <path id="Trazado_630480" data-name="Trazado 630480" d="M98.039,298.735l-3,.692a5.815,5.815,0,0,1,.231-2.677,20.71,20.71,0,0,1,2.539-.231C98.316,296.982,98.039,298.274,98.039,298.735Z" transform="translate(669.128 20146.07)" fill="#663620"/>
      <path id="Trazado_630481" data-name="Trazado 630481" d="M94.472,300.7l-3,.692a5.63,5.63,0,0,1,0-2.631,11.3,11.3,0,0,1,2.539-.231C94.472,298.763,94.472,300.055,94.472,300.7Z" transform="translate(655.895 20153.336)" fill="#663620"/>
      <path id="Trazado_630482" data-name="Trazado 630482" d="M91.679,299.558l-3,.646a5.631,5.631,0,0,1,.231-2.631,11.308,11.308,0,0,1,2.538-.231C91.956,297.665,91.679,298.958,91.679,299.558Z" transform="translate(646.134 20149.033)" fill="#663620"/>
      <path id="Trazado_630487" data-name="Trazado 630487" d="M85.982,296.288a.646.646,0,0,0,0-.646,1.476,1.476,0,0,0-.462-.462v.369a.647.647,0,0,0,.323.369.415.415,0,0,1,0,.416Z" transform="translate(634.939 20141.227)" fill="#231f20"/>
      <path id="Trazado_630489" data-name="Trazado 630489" d="M71.547,294.527h-.785a2.584,2.584,0,0,1-1.846-1.061,3.323,3.323,0,0,1-.508-1.431,3.509,3.509,0,0,1,0-1.661,1.892,1.892,0,0,1,1.615-1.338,1.568,1.568,0,0,1,1.108.415,1.661,1.661,0,0,1,.462,1.015,3.738,3.738,0,0,1-.231,1.846,1.523,1.523,0,0,1-1.8.6,4.616,4.616,0,0,1-1.338-.785,2.031,2.031,0,0,1-.646-1.292,8.126,8.126,0,0,1,0-1.985,1.154,1.154,0,0,1,.462-.6h0a.97.97,0,0,0-.277.554,5.076,5.076,0,0,0,0,1.846,1.569,1.569,0,0,0,.6.923,3,3,0,0,0,1.154.554.785.785,0,0,0,.877-.277,3.971,3.971,0,0,0,0-1.292c0-.462-.323-.554-.554-.462a.739.739,0,0,0-.554.6,2.955,2.955,0,0,0,0,1.154,1.754,1.754,0,0,0,0,1.015,2.493,2.493,0,0,0,1.154,1.154,2.4,2.4,0,0,0,.692.277Z" transform="translate(569.849 20116.17)" fill="#d3716e"/>
      <path id="Trazado_630497" data-name="Trazado 630497" d="M67.8,296.842l3.046.692a5.124,5.124,0,0,0-.277-2.631,10.661,10.661,0,0,0-2.492-.231C67.57,294.95,67.8,296.2,67.8,296.842Z" transform="translate(570.688 20139.379)" fill="#663620"/>
      <path id="Trazado_630498" data-name="Trazado 630498" d="M71.931,297.515l3.046.646a5.722,5.722,0,0,0-.277-2.631,13.838,13.838,0,0,0-2.492-.231C71.7,295.623,71.931,296.915,71.931,297.515Z" transform="translate(585.619 20141.66)" fill="#663620"/>
      <path id="Trazado_630499" data-name="Trazado 630499" d="M75.9,296.728l3.046-.646a5.169,5.169,0,0,0-1.338-2.262,10.289,10.289,0,0,0-2.354.831C74.7,295.112,75.667,296.22,75.9,296.728Z" transform="translate(597.206 20136.309)" fill="#663620"/>
      <path id="Trazado_630501" data-name="Trazado 630501" d="M76.726,290.16a4.978,4.978,0,0,0-1.431.323.672.672,0,0,0,.646,1.062.969.969,0,0,0,.785-1.108Z" transform="translate(597.44 20123.076)" fill="#231f20"/>
      <path id="Trazado_630503" data-name="Trazado 630503" d="M78.945,291.794a.554.554,0,0,0-.369-.508,1.568,1.568,0,0,0-.646,0v.416a.785.785,0,0,0,.462,0,.415.415,0,0,1,.462,0Z" transform="translate(607.498 20127.027)" fill="#231f20"/>
      <path id="Trazado_630504" data-name="Trazado 630504" d="M78.569,292.054a.553.553,0,0,1,0-.6,1.154,1.154,0,0,1,.369-.554v.739a.369.369,0,0,0,0,.415Z" transform="translate(609.489 20125.752)" fill="#231f20"/>
      <path id="Trazado_630505" data-name="Trazado 630505" d="M79.437,292.443H79.16l-.277.323H77.775l-.969-.323a1.8,1.8,0,0,0-.646,0h2.4a7.113,7.113,0,0,1,.877,0Z" transform="translate(601.098 20131.225)" fill="#d3716e"/>
    </g>
  </g>
</svg>
