<svg xmlns="http://www.w3.org/2000/svg" width="190" height="142.955" viewBox="0 0 190 142.955">
  <g id="Grupo_898122" data-name="Grupo 898122" transform="translate(781 4276.6)">
    <path id="Trazado_624642" data-name="Trazado 624642" d="M206.184,175.138a.336.336,0,0,1-.186-.052l-1.29-.746a.373.373,0,0,1,.373-.641l1.29.746a.373.373,0,0,1-.186.693Z" transform="translate(-856.68 -4346.731)"/>
    <path id="Trazado_624643" data-name="Trazado 624643" d="M202.873,173.231a.351.351,0,0,1-.186-.052l-1.29-.746a.365.365,0,0,1-.134-.507.38.38,0,0,1,.507-.142l1.29.746a.388.388,0,0,1,.142.514A.38.38,0,0,1,202.873,173.231Z" transform="translate(-855.829 -4346.242)"/>
    <path id="Trazado_624648" data-name="Trazado 624648" d="M236.221,158.048a.373.373,0,0,1-.328-.186.365.365,0,0,1,.142-.507l1.29-.746a.373.373,0,0,1,.373.641l-1.29.746a.35.35,0,0,1-.186.052Z" transform="translate(-864.638 -4342.385)"/>
    <path id="Trazado_631915" data-name="Trazado 631915" d="M21.73,25.866l4.78,43.74L48.2,78.188l11.088,24.882,77.056,43.255,47.677-26.083L135.315,72.32l-45.1-23L70.973,41.883l-39.825-24Z" transform="translate(-786.527 -4281.137)" fill="#35241a" opacity="0.1"/>
    <path id="Trazado_624771" data-name="Trazado 624771" d="M88.337,64.39c-2.147-1.238-4.094-1.35-5.5-.537L79.62,65.724c1.4-.82,3.348-.7,5.5.537a17,17,0,0,1,7.71,13.362c0,2.438-.865,4.153-2.237,4.959l3.221-1.864c1.387-.805,2.237-2.528,2.237-4.966C96.054,72.845,92.579,66.858,88.337,64.39Z" transform="translate(-824.903 -4318.669)" fill="#333"/>
    <path id="Trazado_624772" data-name="Trazado 624772" d="M84.352,66.9a17,17,0,0,1,7.71,13.362c-.015,4.914-3.482,6.89-7.762,4.422a16.964,16.964,0,0,1-7.71-13.355C76.6,66.419,80.072,64.473,84.352,66.9Z" transform="translate(-824.133 -4319.312)"/>
    <path id="Trazado_631916" data-name="Trazado 631916" d="M46.23,59.948,36.783,58.68,31.72,61.208a14.592,14.592,0,0,1,6.651,4.355l13.69,1.909Z" transform="translate(-812.72 -4317.485)"/>
    <path id="Trazado_631917" data-name="Trazado 631917" d="M40.64,67.91a12.1,12.1,0,0,1,2.983,6.465l13.146,1.007L54.33,69.819Z" transform="translate(-814.989 -4319.833)" fill="#666"/>
    <path id="Trazado_631918" data-name="Trazado 631918" d="M51.489,75.7,40.468,74.21l-5.9,2.983a16.971,16.971,0,0,1,7.777,5.063l15.987,2.237Z" transform="translate(-813.445 -4321.435)"/>
    <path id="Trazado_631919" data-name="Trazado 631919" d="M45,85a14.167,14.167,0,0,1,3.445,7.531l15.331,1.178-2.811-6.472Z" transform="translate(-816.098 -4324.18)" fill="#666"/>
    <path id="Trazado_631920" data-name="Trazado 631920" d="M56.564,93.59l-12.676-1.7-6.808,3.4a19.588,19.588,0,0,1,8.948,5.846L64.453,103.7Z" transform="translate(-814.083 -4325.932)"/>
    <path id="Trazado_631921" data-name="Trazado 631921" d="M49,104.29a16.33,16.33,0,0,1,4,8.687l17.672,1.357-3.244-7.457Z" transform="translate(-817.115 -4329.086)" fill="#666"/>
    <path id="Trazado_631922" data-name="Trazado 631922" d="M54.211,35.34,45.89,40.172v5.138L62.824,88.721l6.51,3.728,37.35-21.706v-5.13ZM67.134,82.212,52.683,45.227l1.491-.887L95.536,68.2,69.326,83.479Z" transform="translate(-816.324 -4311.549)" fill="#ad411a"/>
    <path id="Trazado_631923" data-name="Trazado 631923" d="M54.211,35.34,106.7,65.658,69.348,87.349l-6.51-3.728L45.89,40.172ZM69.326,83.479l30.691-17.821L54.234,39.21l-3.162,1.842,16.061,41.16,2.192,1.268Z" transform="translate(-816.324 -4311.549)" fill="#f15a24"/>
    <path id="Trazado_631924" data-name="Trazado 631924" d="M47.89,22.26l3.02,16.479,3.833,2.6,4.623-12.557Z" transform="translate(-793.181 -4282.25)" fill="#ad411a"/>
    <path id="Trazado_631925" data-name="Trazado 631925" d="M54.946,55.912a2.013,2.013,0,0,1-1.834,0c-.507-.291-.5-.746,0-1.059a1.991,1.991,0,0,1,1.834,0C55.46,55.144,55.453,55.651,54.946,55.912Z" transform="translate(-818.065 -4316.455)"/>
    <path id="Trazado_631926" data-name="Trazado 631926" d="M61.985,73.932a2.036,2.036,0,0,1-1.834,0c-.507-.3-.507-.746,0-1.066a2.021,2.021,0,0,1,1.827,0,.567.567,0,0,1,.007,1.066Z" transform="translate(-819.854 -4321.038)"/>
    <path id="Trazado_631927" data-name="Trazado 631927" d="M69.022,91.944a2.006,2.006,0,0,1-1.842,0,.559.559,0,0,1,0-1.059,2.036,2.036,0,0,1,1.834,0,.559.559,0,0,1,.007,1.059Z" transform="translate(-821.643 -4325.621)"/>
    <path id="Trazado_631928" data-name="Trazado 631928" d="M221.788,93.967l-2.908-1.678a2.028,2.028,0,0,0-2.028-.2l-4.742,2.759a1.991,1.991,0,0,0-.835,1.827l-.045,16.069a6.234,6.234,0,0,0,2.841,4.914l2.908,1.685a2,2,0,0,0,2.028.186l4.735-2.751a2,2,0,0,0,.835-1.827l.045-16.069A6.271,6.271,0,0,0,221.788,93.967Z" transform="translate(-858.378 -4325.937)" fill="#4d4d4d"/>
    <path id="Trazado_631929" data-name="Trazado 631929" d="M217.019,97.664a6.219,6.219,0,0,1,2.833,4.906l-.045,16.076c0,1.812-1.283,2.535-2.848,1.633l-2.908-1.685a6.234,6.234,0,0,1-2.841-4.914l.045-16.069c0-1.812,1.29-2.535,2.856-1.626Z" transform="translate(-858.373 -4326.875)" fill="#1a1a1a"/>
    <path id="Trazado_624787" data-name="Trazado 624787" d="M222.056,40.757l-.112,41.056a.992.992,0,0,1-.589.82,3.147,3.147,0,0,1-2.848,0,1,1,0,0,1-.6-.828l.112-41.056a1.014,1.014,0,0,0,.6.828,3.162,3.162,0,0,0,2.856,0,.992.992,0,0,0,.582-.82Z" transform="translate(-860.077 -4312.925)" fill="#333"/>
    <path id="Trazado_624788" data-name="Trazado 624788" d="M221.5,39.532a.872.872,0,0,1,0,1.648,3.162,3.162,0,0,1-2.856,0,.872.872,0,0,1,0-1.655A3.139,3.139,0,0,1,221.5,39.532Z" transform="translate(-860.113 -4312.526)" fill="#333"/>
    <path id="Trazado_631930" data-name="Trazado 631930" d="M218.059,39.428c-.112-4.25,2.147-5.16,6.48-1.954l-2.051,3.482C221.869,40.793,218.059,39.428,218.059,39.428Z" transform="translate(-860.114 -4311.603)" fill="#333"/>
    <path id="Trazado_631931" data-name="Trazado 631931" d="M226.326,39.021c0-.91-.641-1.283-1.424-.835a3.147,3.147,0,0,0-1.432,2.468c0,.917.641,1.29,1.432.835a3.147,3.147,0,0,0,1.424-2.468Z" transform="translate(-861.491 -4312.225)"/>
    <path id="Trazado_624791" data-name="Trazado 624791" d="M254.477,155.956c6.181,3.564,11.185,12.229,11.185,19.335s-5.056,9.969-11.237,6.4-11.185-12.221-11.185-19.327S248.281,152.384,254.477,155.956Z" transform="translate(-866.52 -4341.836)" fill="#333"/>
    <path id="Trazado_624792" data-name="Trazado 624792" d="M254.477,155.956c6.181,3.564,11.185,12.229,11.185,19.335s-5.056,9.969-11.237,6.4-11.185-12.221-11.185-19.327S248.281,152.384,254.477,155.956Z" transform="translate(-866.52 -4341.836)"/>
    <path id="Trazado_624793" data-name="Trazado 624793" d="M263.6,146.686c-3.639-2.1-6.942-2.3-9.321-.917l-6.51,3.78c2.386-1.379,5.682-1.186,9.328.917,7.24,4.176,13.086,14.309,13.064,22.631,0,4.138-1.491,7.046-3.825,8.411l6.51-3.78c2.356-1.365,3.81-4.273,3.825-8.411C276.724,160.995,270.878,150.861,263.6,146.686Z" transform="translate(-867.672 -4339.411)" fill="#333"/>
    <path id="Trazado_624794" data-name="Trazado 624794" d="M255.833,151.756c-7.24-4.183-13.131-.828-13.153,7.457a21.878,21.878,0,0,0,.746,5.607c.1.388.2.746.306,1.156a18.731,18.731,0,0,1-.664-4.787c0-7.106,5.048-9.977,11.237-6.405s11.185,12.229,11.185,19.335-5.056,9.969-11.237,6.4a18.776,18.776,0,0,1-3.728-2.871l.85.835a22.368,22.368,0,0,0,4.355,3.37c7.24,4.176,13.131.82,13.153-7.5S263.051,155.954,255.833,151.756Z" transform="translate(-866.377 -4340.701)" fill="#1a1a1a"/>
    <path id="Trazado_631932" data-name="Trazado 631932" d="M253.447,160.843a7.665,7.665,0,0,1,2.058.94,18,18,0,0,1,7.613,13.183,8.038,8.038,0,0,1-.216,2.237c-.783,3.065-3.549,3.952-6.92,1.864a17.966,17.966,0,0,1-7.613-13.183C248.264,161.924,250.4,159.993,253.447,160.843Z" transform="translate(-867.823 -4343.42)" fill="#b3b3b3"/>
    <path id="Trazado_624796" data-name="Trazado 624796" d="M248.3,139.183l4.474,2.58a2.8,2.8,0,0,1-1.26-2.051,6.405,6.405,0,0,0,5.22-9.112,2.8,2.8,0,0,1,2.386.06l-4.474-2.58-.112-.052c-.127-.082-.246-.164-.38-.239a6.413,6.413,0,0,0-6.383,11.125l.373.194a1.142,1.142,0,0,0,.157.075Z" transform="translate(-866.852 -4334.847)" fill="#fbb03b"/>
    <path id="Trazado_624797" data-name="Trazado 624797" d="M252.6,144.245l.5.291a2.678,2.678,0,0,0-.067-.336A2.072,2.072,0,0,0,252.6,144.245Z" transform="translate(-868.9 -4339.237)" fill="#999"/>
    <path id="Trazado_624798" data-name="Trazado 624798" d="M253.582,129.177l2.543,1.491.216.127a3.459,3.459,0,0,1,1.491-.6l-.44-.254c.522.3.254.134-2.543-1.491a5.861,5.861,0,0,0-6.42.38A5.831,5.831,0,0,1,253.582,129.177Z" transform="translate(-867.84 -4335.034)" fill="#fff"/>
    <path id="Trazado_624799" data-name="Trazado 624799" d="M255.37,140.284a8.538,8.538,0,0,1,3.87-6.711c2.133-1.223,3.862-.209,3.862,2.237a8.515,8.515,0,0,1-3.862,6.711C257.107,143.773,255.37,142.759,255.37,140.284Z" transform="translate(-869.605 -4336.402)" fill="#ccc"/>
    <path id="Trazado_624800" data-name="Trazado 624800" d="M253.79,139.975c0,2.893,2.028,4.079,4.526,2.647a7.739,7.739,0,0,0,1.551-1.2l.291-.291a6.22,6.22,0,0,1-1.32,1.022c-2.133,1.23-3.87.216-3.87-2.237a8.538,8.538,0,0,1,3.87-6.711c2.133-1.223,3.862-.209,3.862,2.237a6.484,6.484,0,0,1-.216,1.618l.1-.4a7.641,7.641,0,0,0,.254-1.886c0-2.893-2.028-4.079-4.526-2.647A9.977,9.977,0,0,0,253.79,139.975Z" transform="translate(-869.203 -4336.011)" fill="#c4720e"/>
    <path id="Trazado_631933" data-name="Trazado 631933" d="M259.392,142.046a7.509,7.509,0,0,0,3.229-5.592c.06-2.036-1.3-2.833-3.035-1.782a7.509,7.509,0,0,0-3.236,5.6C256.3,142.307,257.662,143.105,259.392,142.046Z" transform="translate(-869.854 -4336.696)" fill="#fff"/>
    <path id="Trazado_631934" data-name="Trazado 631934" d="M256.385,140.853a2.982,2.982,0,0,1,0-.582,7.546,7.546,0,0,1,3.229-5.6,3.5,3.5,0,0,1,.5-.254c1.491-.634,2.595.194,2.543,2.036a7.509,7.509,0,0,1-3.229,5.592C257.839,143,256.579,142.449,256.385,140.853Z" transform="translate(-869.859 -4336.695)" fill="#fff"/>
    <path id="Trazado_631935" data-name="Trazado 631935" d="M256.385,140.925a2.982,2.982,0,0,1,0-.582,7.546,7.546,0,0,1,3.229-5.6,3.5,3.5,0,0,1,.5-.254,2.327,2.327,0,0,1,.656,1.611,5.22,5.22,0,0,1-2.647,4.593,2.282,2.282,0,0,1-1.737.231Z" transform="translate(-869.859 -4336.767)" fill="#fff8b3"/>
    <path id="Trazado_631936" data-name="Trazado 631936" d="M163.2,66.184l.007-2.923-.768-.559-.268-2.55.664-.388-.649-3.214-.768-.321-.895-3.035.567-.336-1.26-3.266-.716-.075-1.506-3.139.47-.425-1.79-3.109-.619.186-1.961-2.871.3-.649-2.2-2.744-.574.336-2.192-2.312.112-.82-2.461-2.177-.664.38-2.1-1.521-.1-.94-2.55-1.476-.858.5-1.708-.723-.283-.992-2.468-.664-1.365.8-.828-.089-.47-.977-2.207.194-1.983,1.148-.313-.455L127,28.006,114.8,35.1l.216.462-1.983,1.156-1.283,1.8.619.895-.328.708-1.4.813-.664,2.453.716.746-.224,1.8-.88.507-.007,2.93.768.559.268,2.55-.664.388.649,3.206.768.328.895,3.027-.574.336,1.268,3.273.716.075,1.506,3.132-.47.432,1.79,3.109.619-.194,1.961,2.878-.3.649,2.2,2.737.567-.336,2.2,2.319-.112.82,2.461,2.177.664-.388,2.1,1.529.1.94,2.543,1.469.865-.5,1.7.723.291.992,2.468.671,1.365-.8.828.082.47.977,2.207-.186,1.983-1.148.313.455,1.8-1.029,12.2-7.091-.216-.47,1.983-1.148,1.275-1.8-.611-.9.321-.7,1.4-.82.671-2.446L162.1,68.5l.224-1.8Z" transform="translate(-808.871 -4283.226)" fill="#333"/>
    <path id="Trazado_631937" data-name="Trazado 631937" d="M132.028,96.211l12.2-7.091-.291.656L131.73,96.867Z" transform="translate(-814.505 -4299.257)"/>
    <path id="Trazado_631938" data-name="Trazado 631938" d="M110.08,59.581l12.2-7.091.716.067-12.206,7.091Z" transform="translate(-808.999 -4289.94)"/>
    <path id="Trazado_631939" data-name="Trazado 631939" d="M139.074,100.751l12.206-7.091-.1.82-12.206,7.091Z" transform="translate(-816.347 -4300.412)"/>
    <path id="Trazado_631940" data-name="Trazado 631940" d="M109.59,50.961,121.8,43.87l.768.328-12.2,7.091Z" transform="translate(-808.874 -4287.748)"/>
    <path id="Trazado_631941" data-name="Trazado 631941" d="M145.97,103.111l12.206-7.091.1.94-12.2,7.1Z" transform="translate(-818.127 -4301.012)"/>
    <path id="Trazado_631942" data-name="Trazado 631942" d="M111,43.571l12.206-7.091.768.567-12.206,7.091Z" transform="translate(-809.233 -4285.868)"/>
    <path id="Trazado_631943" data-name="Trazado 631943" d="M152.25,103.151l12.206-7.091.291.992-12.206,7.091Z" transform="translate(-819.724 -4301.021)"/>
    <path id="Trazado_631944" data-name="Trazado 631944" d="M114.21,37.919l12.206-7.1.716.761-12.206,7.091Z" transform="translate(-810.049 -4284.428)"/>
    <path id="Trazado_631945" data-name="Trazado 631945" d="M157.51,100.851l12.2-7.091.47.984-12.2,7.091Z" transform="translate(-821.062 -4300.437)"/>
    <path id="Trazado_631946" data-name="Trazado 631946" d="M119,34.371l12.2-7.091.611.895-12.2,7.091Z" transform="translate(-811.267 -4283.528)"/>
    <path id="Trazado_631947" data-name="Trazado 631947" d="M159.024,98.991,171.23,91.9l-1.521,1.387-12.2,7.091Z" transform="translate(-821.062 -4299.963)" fill="#1a1a1a"/>
    <path id="Trazado_631948" data-name="Trazado 631948" d="M119.82,35.368l12.2-7.091,1.976-.6-12.2,7.091Z" transform="translate(-811.476 -4283.629)" fill="#1a1a1a"/>
    <path id="Trazado_631949" data-name="Trazado 631949" d="M161.39,96.381,173.6,89.29l.611.9L162,97.283Z" transform="translate(-822.049 -4299.3)"/>
    <path id="Trazado_631950" data-name="Trazado 631950" d="M125.03,33.181l12.206-7.091.47.977L125.5,34.158Z" transform="translate(-812.801 -4283.226)"/>
    <path id="Trazado_631951" data-name="Trazado 631951" d="M162.352,93.591l12.2-7.091-.954,2.08L161.39,95.672Z" transform="translate(-822.049 -4298.59)" fill="#1a1a1a"/>
    <path id="Trazado_631952" data-name="Trazado 631952" d="M125.66,34.491,137.866,27.4l2.3.239L127.957,34.73Z" transform="translate(-812.961 -4283.558)" fill="#1a1a1a"/>
    <path id="Trazado_631953" data-name="Trazado 631953" d="M163.64,90.051l12.206-7.091.716.753L164.356,90.8Z" transform="translate(-822.621 -4297.69)"/>
    <path id="Trazado_631954" data-name="Trazado 631954" d="M131.91,34.431l12.206-7.091.283.992-12.2,7.091Z" transform="translate(-814.551 -4283.543)"/>
    <path id="Trazado_631955" data-name="Trazado 631955" d="M163.976,86.511l12.2-7.091-.328,2.64L163.64,89.151Z" transform="translate(-822.621 -4296.79)" fill="#1a1a1a"/>
    <path id="Trazado_631956" data-name="Trazado 631956" d="M132.3,35.761l12.2-7.091,2.468,1.051-12.206,7.091Z" transform="translate(-814.65 -4283.882)" fill="#1a1a1a"/>
    <path id="Trazado_631957" data-name="Trazado 631957" d="M164.1,82.281l12.206-7.091.768.559L164.868,82.84Z" transform="translate(-822.738 -4295.714)"/>
    <path id="Trazado_631958" data-name="Trazado 631958" d="M139.16,38.041l12.2-7.091.1.94-12.2,7.091Z" transform="translate(-816.395 -4284.461)"/>
    <path id="Trazado_631959" data-name="Trazado 631959" d="M163.67,78.231l12.206-7.091.321,3.02-12.206,7.091Z" transform="translate(-822.629 -4294.684)" fill="#1a1a1a"/>
    <path id="Trazado_631960" data-name="Trazado 631960" d="M139.29,39.3l12.2-7.091L153.95,34l-12.206,7.091Z" transform="translate(-816.428 -4284.782)" fill="#1a1a1a"/>
    <path id="Trazado_631961" data-name="Trazado 631961" d="M162.73,73.6l12.206-7.091.768.321-12.2,7.091Z" transform="translate(-822.39 -4293.506)"/>
    <path id="Trazado_631962" data-name="Trazado 631962" d="M146.244,43.751l12.206-7.091-.112.82-12.2,7.091Z" transform="translate(-818.17 -4285.914)"/>
    <path id="Trazado_631963" data-name="Trazado 631963" d="M161.47,69.329l12.206-7.1.94,3.191L162.41,72.513Z" transform="translate(-822.07 -4292.417)" fill="#1a1a1a"/>
    <path id="Trazado_631964" data-name="Trazado 631964" d="M146.14,44.851l12.2-7.091,2.289,2.416-12.2,7.091Z" transform="translate(-818.17 -4286.193)" fill="#1a1a1a"/>
    <path id="Trazado_631965" data-name="Trazado 631965" d="M157.62,60.391,169.826,53.3l1.506,3.139L159.126,63.53Z" transform="translate(-821.09 -4290.146)" fill="#1a1a1a"/>
    <path id="Trazado_631966" data-name="Trazado 631966" d="M152.39,52.051,164.6,44.96l1.961,2.871-12.206,7.091Z" transform="translate(-819.76 -4288.024)" fill="#1a1a1a"/>
    <path id="Trazado_631967" data-name="Trazado 631967" d="M159.64,64.6l12.206-7.091.716.075-12.206,7.091Z" transform="translate(-821.604 -4291.217)"/>
    <path id="Trazado_631968" data-name="Trazado 631968" d="M152.688,51.181l12.206-7.091-.3.649L152.39,51.83Z" transform="translate(-819.76 -4287.803)"/>
    <path id="Trazado_631969" data-name="Trazado 631969" d="M155.02,55.838l12.206-7.091.619-.186-12.206,7.091Z" transform="translate(-820.429 -4288.94)"/>
    <path id="Trazado_631970" data-name="Trazado 631970" d="M131.636,39.224l.1.94,2.453,1.79.3-.649,2.461,2.177-.1.82,2.289,2.416.47-.44,2.2,2.744-.3.649,1.961,2.871.619-.186,1.8,3.109-.477.425,1.506,3.139.716.075,1.26,3.266-.611.186.94,3.184.775.321.649,3.214-.723-.082.321,3.02.768.559-.007,2.923-.768-.328-.336,2.64.716.753-.664,2.453-.768-.567-.962,2.08.611.9-1.275,1.8-.716-.753-1.514,1.387.47.984-1.8,1.029-.619-.9-1.969.6.291.992-2.207.186-.47-.977-2.3-.231.1.947-2.468-.671-.291-.992L131.6,85.984l-.1.82-2.543-1.469-.1-.94-2.461-1.8-.3.656-2.461-2.177.112-.82-2.3-2.423-.47.44-2.2-2.737.3-.649-1.961-2.878-.619.194-1.79-3.109.47-.432-1.506-3.132-.716-.075-1.268-3.273.619-.186-.94-3.176-.768-.328-.649-3.206.708.067-.313-3-.768-.559.007-2.93.775.328.328-2.64-.716-.746.664-2.453.768.567.962-2.088-.619-.895,1.283-1.8.716.753,1.521-1.394-.47-.977,1.8-1.029.611.895,1.976-.6-.3-.992L121.1,35.6l.47.977,2.3.239-.1-.947,2.468.664.291.992,2.461,1.051.1-.828Z" transform="translate(-808.871 -4285.644)"/>
    <path id="Trazado_631971" data-name="Trazado 631971" d="M160.7,82.849a15.337,15.337,0,0,1,3.3,1.432c7.665,4.355,13.839,15.1,13.839,23.921a15.868,15.868,0,0,1-.41,3.669c-1.491,6.107-6.949,8.15-13.422,4.422-7.643-4.384-13.847-15.114-13.847-23.98C150.153,84.811,154.649,81.06,160.7,82.849Z" transform="translate(-842.845 -4323.521)" fill="#666"/>
    <path id="Trazado_624840" data-name="Trazado 624840" d="M155.24,43.37l13.869-8.06,9.06,26.008L164.3,69.371Z" transform="translate(-820.485 -4285.57)" fill="#c4720e"/>
    <path id="Trazado_624841" data-name="Trazado 624841" d="M109.69,17.07,123.559,9.01l33.964,19.611-13.869,8.06Z" transform="translate(-808.899 -4278.88)" fill="#ffbe59"/>
    <path id="Trazado_624842" data-name="Trazado 624842" d="M152.714,65.432l-4.466,7.374-1.253-.723L122.873,58.132,111.912,27.866l-2.222-6.122V19.82l33.964,19.611Z" transform="translate(-808.899 -4281.63)" fill="#c4720e"/>
    <path id="Trazado_624843" data-name="Trazado 624843" d="M159.36,30,126.693,11.14l-3.363,1.946,32.891,18.992L164.587,56.1l3.214-1.872Z" transform="translate(-812.369 -4279.423)" fill="#fff" opacity="0.3"/>
    <path id="Trazado_631972" data-name="Trazado 631972" d="M149.177,72.478l-1.424,2.349L123.631,60.876,112.67,30.61l27.447,15.853Z" transform="translate(-809.657 -4284.375)" fill="#c4720e" opacity="0.3"/>
    <path id="Trazado_631973" data-name="Trazado 631973" d="M133.8,111.312l19.417-11.282,17.53,10.126-19.186,11.416Z" transform="translate(-815.032 -4302.032)" fill="#666"/>
    <path id="Trazado_631974" data-name="Trazado 631974" d="M133.019,108.834l19.417-11.282-2.289-7.263L130.73,101.572Z" transform="translate(-814.251 -4299.554)" fill="#4d4d4d"/>
    <path id="Trazado_624847" data-name="Trazado 624847" d="M101.33,84.6,120.747,73.31l21.922,12.661L123.252,97.253Z" transform="translate(-806.773 -4295.235)" fill="#333"/>
    <path id="Trazado_624848" data-name="Trazado 624848" d="M162.51,110.872,181.927,99.59l8.15,19.051L170.66,129.931Z" transform="translate(-822.334 -4301.92)" fill="#7c7c7c"/>
    <path id="Trazado_624849" data-name="Trazado 624849" d="M173.44,136.429l19.417-11.289,20.655,11.93L194.1,148.352Z" transform="translate(-825.114 -4308.418)" fill="#6e6e6e"/>
    <path id="Trazado_624850" data-name="Trazado 624850" d="M209.032,155.332l19.417-11.282-.03,9.321L209.01,164.652Z" transform="translate(-834.161 -4313.229)" fill="#333"/>
    <path id="Trazado_624851" data-name="Trazado 624851" d="M201.15,150.772l19.417-11.282,5.883,3.4-19.417,11.282Z" transform="translate(-832.162 -4312.068)" fill="#6e6e6e"/>
    <path id="Trazado_624852" data-name="Trazado 624852" d="M206.774,158.02l-5.883-3.4v1.23l-.761-.432v8.1l6.621,3.825Z" transform="translate(-831.903 -4315.917)" fill="#454545"/>
    <path id="Trazado_624853" data-name="Trazado 624853" d="M155.086,127.1l-8.15-26.926-9.3-5.376,1.939,21.676-14.048-8.105-2.289-7.263L101.317,88.45l-.037,15.681,62.806,36.261,10.9,6.293v-8.1Z" transform="translate(-806.76 -4299.086)"/>
    <path id="Trazado_631975" data-name="Trazado 631975" d="M201.15,150.772l19.417-11.282,5.883,3.4-19.417,11.282Z" transform="translate(-832.162 -4312.068)" fill="#4d4d4d"/>
    <path id="Trazado_631976" data-name="Trazado 631976" d="M206.535,158.02l-5.883-3.4v1.23l-1.461.805.7,6.86,6.621,3.825Z" transform="translate(-831.664 -4315.916)"/>
    <path id="Trazado_624856" data-name="Trazado 624856" d="M120.48,74.781l16.643-9.671L142.991,82.3l-16.636,9.671Z" transform="translate(-811.644 -4293.149)" fill="#333"/>
    <path id="Trazado_624857" data-name="Trazado 624857" d="M93,58.911l16.643-9.671,20.491,11.833-16.643,9.671Z" transform="translate(-804.654 -4289.113)" fill="#fbb03b"/>
    <path id="Trazado_624858" data-name="Trazado 624858" d="M113.478,74.043l5.876,17.187L92.95,75.99l.037-13.78Z" transform="translate(-804.642 -4292.412)" fill="#fbb03b"/>
    <path id="Trazado_624859" data-name="Trazado 624859" d="M149.348,54.661a6.539,6.539,0,0,0-2.871-4.474,4.559,4.559,0,0,0-.47-.231,1.842,1.842,0,0,0-1.618,0L126.24,60.515a1.857,1.857,0,0,1,1.626,0,3.816,3.816,0,0,1,.462.231A6.487,6.487,0,0,1,131.2,65.22l3.065,24.01,18.119-10.544Z" transform="translate(-836.761 -4315.219)" fill="#4d4d4d"/>
    <path id="Trazado_624860" data-name="Trazado 624860" d="M171.628,98.087,155.119,88.55,137,99.094l16.509,9.537a6.4,6.4,0,0,1,2.908,5.041,2.028,2.028,0,0,1-.85,1.872L173.708,105a2.043,2.043,0,0,0,.858-1.872A6.42,6.42,0,0,0,171.628,98.087Z" transform="translate(-839.498 -4325.083)" fill="#4d4d4d"/>
    <path id="Trazado_624861" data-name="Trazado 624861" d="M128.016,64.321a6.487,6.487,0,0,1,2.871,4.474l3.094,24.032,16.509,9.537A6.4,6.4,0,0,1,153.4,107.4c0,1.857-1.312,2.6-2.923,1.67l-21.49-12.4-3.818-30.139c-.254-1.976.835-3.072,2.438-2.446A3.816,3.816,0,0,1,128.016,64.321Z" transform="translate(-836.479 -4318.816)"/>
    <path id="Trazado_631977" data-name="Trazado 631977" d="M163.848,61.145l7.926,7.591,12.549,6.308c1.626-.455,2.416-1.014,1.365-2.632L175.129,63.77l-6.45-8.53c-1.327-3.564-4.012-5.965-6.51-6.04Z" transform="translate(-845.9 -4315.074)" fill="#0071bc"/>
    <path id="Trazado_631978" data-name="Trazado 631978" d="M189.633,139.694c.231,1.663-.5,2.8-.2,4.332.619,1.491,2.692,1.812,3.974,1.849,2.483.067,4.123,1.26,7.382,1.223,2.14,0,2.93-.746,3.176-2.006,0-.574-.41-1.1-1.171-1.588,0,0-4.75-1.76-4.877-1.819s-2.789-1.991-2.841-2.14-1.29-3.475-1.29-3.475l-4.906.746Z" transform="translate(-852.693 -4337.169)"/>
    <path id="Trazado_631979" data-name="Trazado 631979" d="M187.169,126.423c-.582,2.043-3.445,1.663-6.569,1.007q-1.178-2.983-2.237-5.786a106.3,106.3,0,0,1-5.033-17.15l-10.051-5.965-5.458-3.266,1.186-3.728.343-1.066.582-1.842.693-2.237.254-.8.35-1.111c1.864,1.014,3.728,2.028,5.473,3.08,6.577,3.87,12.326,8.075,15.39,13.325C183.843,106.753,185.543,116.424,187.169,126.423Z" transform="translate(-844.793 -4324.047)" fill="#0071bc"/>
    <path id="Trazado_631980" data-name="Trazado 631980" d="M180.473,123.231l-2.08.455a106.3,106.3,0,0,1-5.033-17.15l-10.051-5.965L157.85,97.3l1.186-3.728.343-1.066c3.907,4.608,10.044,8.769,16.926,12.423C176.447,111.852,177.125,120.2,180.473,123.231Z" transform="translate(-844.801 -4326.09)" fill="#0da5bf" opacity="0.5"/>
    <path id="Trazado_631981" data-name="Trazado 631981" d="M176.023,149.128a6.04,6.04,0,0,1,.529,2.774,2.958,2.958,0,0,0,2.371,2.714c2.483.619,2.505,1.834,5.861,2.118,2,.172,4.713-.746,5.22-1.991a2.762,2.762,0,0,0-1.036-2.036s-4.191-1.954-4.3-2.043-3.363-1.954-3.527-1.991c-.4-.082-2.326-4.071-2.036-4.123l-4.332,1.432Z" transform="translate(-849.104 -4339.326)"/>
    <path id="Trazado_631982" data-name="Trazado 631982" d="M171.762,133.382c-.746,1.357-2.416,1.73-4.474,1.678-.47,0-.969-.045-1.491-.089-4.362-8.635-7.71-16.956-9.321-24.771-7.457-5.167-16.017-10.722-17.62-13.705a18.537,18.537,0,0,1-1.022-6.838,1.331,1.331,0,0,1,.045-.425c.045-.134,0-.082,0-.119a1.01,1.01,0,0,0,0-.134,6.628,6.628,0,0,1,.746-2.237L143.994,86l7.867-1.029,4.28-.567c.052.746.082,1.432.082,2.155a15.619,15.619,0,0,1-.052,1.573,11.93,11.93,0,0,1-.746,3.452l-.075.194a4.265,4.265,0,0,0,.671,3.982l2.133,2.669,6.025,7.531a7.852,7.852,0,0,1,1.573,3.176C168.086,119.028,170.189,129.788,171.762,133.382Z" transform="translate(-839.707 -4324.027)" fill="#0071bc"/>
    <path id="Trazado_631983" data-name="Trazado 631983" d="M159.088,60.85A22.372,22.372,0,0,1,157.88,66.9a28.536,28.536,0,0,0-1.842,5.794,15.656,15.656,0,0,0-.291,2.781,2.081,2.081,0,0,1-.35,1.111,1.492,1.492,0,0,1-.216.268c-.119.134-.254.268-.388.4a24.047,24.047,0,0,1-5.622,4.138c-3.4,1.782-7.24,2.595-10.059.4-.589-.455-1.693-.4-1.693-1.081a1.136,1.136,0,0,1,.045-.425c.045-.112,0-.082,0-.119a1,1,0,0,0,0-.134,53.685,53.685,0,0,0-1.074-15.853,19.459,19.459,0,0,1-.2-2.043v-.88a13.422,13.422,0,0,1,.432-3.728,4.633,4.633,0,0,1,.194-.619c1.3-3.43,7.457-6.308,10.782-7.248s8.761,0,8.761,0a27.918,27.918,0,0,1,2.729,11.192Z" transform="translate(-839.29 -4315.084)" fill="#0071bc"/>
    <path id="Trazado_631984" data-name="Trazado 631984" d="M166.911,130.326c-.47,0-.969-.045-1.491-.089-4.4-8.635-7.747-16.956-9.358-24.771-7.457-5.167-16.017-10.722-17.62-13.705a18.538,18.538,0,0,1-1.022-6.838,1.33,1.33,0,0,1,.045-.425c.045-.134,0-.082,0-.119a1,1,0,0,0,0-.134,53.686,53.686,0,0,0-1.074-15.853,19.459,19.459,0,0,1-.2-2.043l.067-.268.082-.291H143.8l9.06,11,3.132.119a15.659,15.659,0,0,0-.291,2.781c1.864,1.014,3.728,2.028,5.473,3.08a22.878,22.878,0,0,0-2.483.134,21.341,21.341,0,0,0-2.983.515c-.447.112-.895.239-1.327.38a15.934,15.934,0,0,0-4.31,2.058c-3.02,2.08-4.407,5.026-2.5,8.2l10.834,9.425Z" transform="translate(-839.292 -4319.294)" fill="#0071bc" opacity="0.5"/>
    <path id="Trazado_631985" data-name="Trazado 631985" d="M137.813,69.1c1.036,2.118,3.877,7.121,5.824,10.514a9.052,9.052,0,0,0,5.749,4.28l12.057,2.983c1.812.4,3.5-3.087,1.678-4.161l-12.892-4.7-5.57-12.423s-3.579-7.688-6.711-6.711S136.262,65.942,137.813,69.1Z" transform="translate(-839.266 -4317.514)" fill="#0071bc"/>
    <path id="Trazado_631986" data-name="Trazado 631986" d="M179.84,90.37l2.028.887c.582.626.462,1.014-.179,1.23l-1.193-.134Z" transform="translate(-850.394 -4325.546)" fill="#fff"/>
    <path id="Trazado_631987" data-name="Trazado 631987" d="M179.254,99.432a4.429,4.429,0,0,1-1.1-.134,3.631,3.631,0,0,1-2.513-2.237c-.895-2.237-.224-5.518,1.8-8.866,2.983-5,7.934-8.239,11.185-7.382a3.624,3.624,0,0,1,2.505,2.237c.895,2.237.224,5.51-1.79,8.858C186.658,96.367,182.453,99.432,179.254,99.432Zm8.2-16.747c-2.237,0-5.831,2.416-8.329,6.554-1.64,2.722-2.289,5.488-1.655,7.061a1.655,1.655,0,0,0,1.156,1.044c2.1.552,6.211-1.916,8.948-6.48,1.64-2.714,2.289-5.488,1.655-7.054a1.633,1.633,0,0,0-1.156-1.051,2.423,2.423,0,0,0-.589-.075Z" transform="translate(-849.226 -4323.08)"/>
    <path id="Trazado_631988" data-name="Trazado 631988" d="M191,83.393l1.1,1.491,1.268,1.186.522.477c.746.634,1.208-.283.7-.843l-1.044-1.029-.641-.82A2.237,2.237,0,0,0,191,83.393Z" transform="translate(-853.232 -4323.758)" fill="#fff"/>
    <path id="Trazado_631989" data-name="Trazado 631989" d="M192.31,80.606l.746-.186,1.491.418,1.73,1.365a1.447,1.447,0,0,1,.522,1.1,1.35,1.35,0,0,1,.283,1.029,1.551,1.551,0,0,1-.067,1.208c.209.38-.075.679-.254,1.007l-.746.582-1.148-.2c-.47-.112-.447-.47-.082-.6l.4-.179L194.047,84.5v-.388a.634.634,0,0,1,.529-.7l.365-1.111A3.609,3.609,0,0,0,192.31,80.606Z" transform="translate(-853.566 -4323.015)" fill="#fff"/>
    <path id="Trazado_631990" data-name="Trazado 631990" d="M170.348,94.3c-.79-1-.455-2.1.432-3.259l.872-.134,2.155-.94,2.789-.321-.4.649,1.029,1.044-2.379,4.593-2.289-.529Z" transform="translate(-847.867 -4325.362)" fill="#fff"/>
    <path id="Trazado_631991" data-name="Trazado 631991" d="M175.86,96.005l1.432.336.843.239a.88.88,0,0,0,1.044-.5l.186-.462a.664.664,0,0,0,.746-.515l.037-.828h.164a.7.7,0,0,0,.179-1.312l-.246-.119.112-.41c.1-.373-.455-.932-.805-1.089-.992,0-1.454-.127-1.954-.865Z" transform="translate(-849.382 -4325.574)" fill="#fff"/>
    <path id="Trazado_631992" data-name="Trazado 631992" d="M151.595,50.507l1.685,5.667-5.16,8.448,2.058.06,4.325-7.449,4.914-1.059.41-1.379-4.66.291-2.334-5.5Z" transform="translate(-818.674 -4289.202)"/>
    <path id="Trazado_624878" data-name="Trazado 624878" d="M177,98.22l22.191-12.9,7.457,12.8c-6.181,4.757-13.757,8.948-22.183,12.892Z" transform="translate(-849.672 -4324.261)" fill="#ffbe59"/>
    <path id="Trazado_624879" data-name="Trazado 624879" d="M199.19,151.31l22.191-12.9-.007,1.23L199.19,152.533Z" transform="translate(-831.664 -4311.794)" fill="#fff"/>
    <path id="Trazado_624880" data-name="Trazado 624880" d="M199.227,132.69l22.191-12.9-.037,13.884-22.191,12.9Z" transform="translate(-831.664 -4307.058)" fill="#fff"/>
    <path id="Trazado_624881" data-name="Trazado 624881" d="M199.227,132.69l22.191-12.9-.037,13.884-22.191,12.9Z" transform="translate(-831.664 -4307.058)" fill="#fbb03b"/>
    <path id="Trazado_624882" data-name="Trazado 624882" d="M191.3,107.692,213.491,94.8l5.921,18.634-22.191,12.9Z" transform="translate(-829.657 -4300.702)" fill="#fbb03b"/>
    <path id="Trazado_624883" data-name="Trazado 624883" d="M195.09,109.989,213.1,99.52l5.473,16.5-18,10.462Z" transform="translate(-830.621 -4301.902)" fill="#c4720e"/>
    <path id="Trazado_624884" data-name="Trazado 624884" d="M155.23,80.54l22.191-12.9,26.9,20.252-22.191,12.892Z" transform="translate(-820.482 -4293.793)" fill="#ffbe59"/>
    <path id="Trazado_624885" data-name="Trazado 624885" d="M192.67,116.59l17.761-10.32,17.62,17.2a2.028,2.028,0,0,1-.4,3.206l-6.219,3.609a3.154,3.154,0,0,1-3.094.052Z" transform="translate(-853.657 -4329.59)" fill="#c4720e" opacity="0.5"/>
    <path id="Trazado_624886" data-name="Trazado 624886" d="M183.506,119.456l-.037,13v2.11L156.29,118.882l-1.633-19.223-11.036-6.815L137.38,73.912l3.05-3.169,2.833-2.953,7.427,12.788,26.9,20.252Z" transform="translate(-815.942 -4293.831)" fill="#c4720e"/>
    <path id="Trazado_624887" data-name="Trazado 624887" d="M183.506,119.456l-.037,13v2.11L156.29,118.882l-1.633-19.223-11.036-6.815L137.38,73.912l3.05-3.169,2.833-2.953,7.427,12.788,26.9,20.252Z" transform="translate(-815.942 -4293.831)" fill="#c4720e"/>
    <path id="Trazado_624888" data-name="Trazado 624888" d="M183.469,125.661v9.917L156.29,119.889l-1.633-19.223-11.036-6.815L137.38,74.919l3.05-3.169,7.531,16.822,14.779,9.574Z" transform="translate(-815.942 -4294.839)" fill="#c4720e" opacity="0.3"/>
    <path id="Trazado_631993" data-name="Trazado 631993" d="M104.542,100.051l.007-2.93-.768-.559-.268-2.55.671-.388-.649-3.206-.775-.328-.895-3.035.574-.328-1.268-3.273-.716-.067L98.95,80.247l.477-.432L97.63,76.7l-.619.186L95.05,74.02l.3-.649-2.2-2.737-.574.328-2.185-2.3.1-.828-2.461-2.177-.656.388-2.1-1.529-.1-.94L82.635,62.1l-.865.5-1.7-.731-.291-.984-2.468-.664-1.365.79-.828-.082-.462-.984-2.215.194L70.459,61.3l-.306-.455-1.8,1.022L56.142,68.957l.224.47-1.983,1.148-1.283,1.8.611.895-.321.716-1.4.813-.664,2.446.708.746L51.81,79.8l-.872.507-.007,2.923.768.559.261,2.55-.664.388.649,3.214.768.321.9,3.035-.574.336L54.308,96.9l.716.075L56.53,100.1l-.477.44,1.79,3.1.619-.186,1.961,2.871-.3.656,2.207,2.729.567-.328L65.09,111.7l-.1.82,2.461,2.185.664-.388,2.088,1.521.1.94,2.55,1.476.865-.5,1.693.716.3,1,2.461.664,1.372-.8.82.082.47.977,2.215-.186,1.976-1.148.313.455,1.8-1.029,12.206-7.091-.224-.462,1.983-1.148,1.275-1.8-.6-.895.321-.708,1.4-.813.664-2.453-.716-.753.231-1.8Z" transform="translate(-793.954 -4291.837)" fill="#333"/>
    <path id="Trazado_631994" data-name="Trazado 631994" d="M73.371,130.071l12.206-7.091-.3.656-12.2,7.1Z" transform="translate(-799.588 -4307.869)"/>
    <path id="Trazado_631995" data-name="Trazado 631995" d="M51.42,93.441,63.626,86.35l.708.075-12.2,7.091Z" transform="translate(-794.079 -4298.552)"/>
    <path id="Trazado_631996" data-name="Trazado 631996" d="M80.424,134.611l12.2-7.091-.1.828L80.32,135.439Z" transform="translate(-801.429 -4309.024)"/>
    <path id="Trazado_631997" data-name="Trazado 631997" d="M50.94,84.831l12.2-7.091.775.328L51.708,85.159Z" transform="translate(-793.957 -4296.362)"/>
    <path id="Trazado_631998" data-name="Trazado 631998" d="M87.31,136.971l12.206-7.091.1.947-12.206,7.091Z" transform="translate(-803.207 -4309.624)"/>
    <path id="Trazado_631999" data-name="Trazado 631999" d="M52.35,77.441,64.556,70.35l.768.559L53.118,78Z" transform="translate(-794.315 -4294.482)"/>
    <path id="Trazado_632000" data-name="Trazado 632000" d="M93.59,137.011,105.8,129.92l.291.992L93.888,138Z" transform="translate(-804.804 -4309.634)"/>
    <path id="Trazado_632001" data-name="Trazado 632001" d="M55.56,71.781l12.2-7.091.716.753L56.268,72.534Z" transform="translate(-795.132 -4293.043)"/>
    <path id="Trazado_632002" data-name="Trazado 632002" d="M98.85,134.711l12.206-7.091.47.984L99.32,135.7Z" transform="translate(-806.142 -4309.049)"/>
    <path id="Trazado_632003" data-name="Trazado 632003" d="M60.34,68.241,72.546,61.15l.611.895L60.951,69.136Z" transform="translate(-796.347 -4292.143)"/>
    <path id="Trazado_632004" data-name="Trazado 632004" d="M100.371,132.861l12.2-7.091-1.514,1.379L98.85,134.241Z" transform="translate(-806.142 -4308.579)" fill="#1a1a1a"/>
    <path id="Trazado_632005" data-name="Trazado 632005" d="M61.16,69.235l12.206-7.091,1.976-.6L63.136,68.631Z" transform="translate(-796.556 -4292.242)" fill="#1a1a1a"/>
    <path id="Trazado_632006" data-name="Trazado 632006" d="M102.74,130.251l12.206-7.091.6.895-12.2,7.091Z" transform="translate(-807.132 -4307.915)"/>
    <path id="Trazado_632007" data-name="Trazado 632007" d="M66.38,67.049l12.206-7.1.462.984L66.842,68.025Z" transform="translate(-797.884 -4291.837)"/>
    <path id="Trazado_632008" data-name="Trazado 632008" d="M103.694,127.451,115.9,120.36l-.954,2.088-12.206,7.091Z" transform="translate(-807.132 -4307.203)" fill="#1a1a1a"/>
    <path id="Trazado_632009" data-name="Trazado 632009" d="M67,68.361,79.206,61.27l2.3.231L69.3,68.592Z" transform="translate(-798.041 -4292.173)" fill="#1a1a1a"/>
    <path id="Trazado_632010" data-name="Trazado 632010" d="M104.98,123.911l12.206-7.091.716.753-12.2,7.1Z" transform="translate(-807.701 -4306.302)"/>
    <path id="Trazado_632011" data-name="Trazado 632011" d="M73.25,68.3,85.456,61.21l.291.984-12.206,7.1Z" transform="translate(-799.631 -4292.157)"/>
    <path id="Trazado_632012" data-name="Trazado 632012" d="M105.316,120.381l12.206-7.091-.336,2.632-12.206,7.091Z" transform="translate(-807.701 -4305.404)" fill="#1a1a1a"/>
    <path id="Trazado_632013" data-name="Trazado 632013" d="M73.64,69.629l12.206-7.1,2.461,1.059L76.1,70.68Z" transform="translate(-799.73 -4292.494)" fill="#1a1a1a"/>
    <path id="Trazado_632014" data-name="Trazado 632014" d="M105.44,116.141l12.206-7.091.768.559L106.208,116.7Z" transform="translate(-807.818 -4304.326)"/>
    <path id="Trazado_632015" data-name="Trazado 632015" d="M80.5,71.9,92.706,64.81l.1.94L80.6,72.841Z" transform="translate(-801.475 -4293.073)"/>
    <path id="Trazado_632016" data-name="Trazado 632016" d="M105.02,112.1l12.2-7.1.321,3.02-12.206,7.091Z" transform="translate(-807.712 -4303.296)" fill="#1a1a1a"/>
    <path id="Trazado_632017" data-name="Trazado 632017" d="M80.63,73.161,92.836,66.07l2.453,1.79L83.083,74.951Z" transform="translate(-801.508 -4293.394)" fill="#1a1a1a"/>
    <path id="Trazado_632018" data-name="Trazado 632018" d="M104.08,107.469l12.2-7.1.775.328-12.206,7.091Z" transform="translate(-807.472 -4302.118)"/>
    <path id="Trazado_632019" data-name="Trazado 632019" d="M87.592,77.611l12.2-7.091-.1.828L87.48,78.439Z" transform="translate(-803.25 -4294.526)"/>
    <path id="Trazado_632020" data-name="Trazado 632020" d="M102.81,103.191,115.016,96.1l.94,3.184-12.2,7.1Z" transform="translate(-807.149 -4301.032)" fill="#1a1a1a"/>
    <path id="Trazado_632021" data-name="Trazado 632021" d="M87.48,78.721,99.686,71.63l2.289,2.408L89.769,81.13Z" transform="translate(-803.25 -4294.808)" fill="#1a1a1a"/>
    <path id="Trazado_632022" data-name="Trazado 632022" d="M98.97,94.261l12.2-7.091,1.506,3.139-12.2,7.091Z" transform="translate(-806.173 -4298.76)" fill="#1a1a1a"/>
    <path id="Trazado_632023" data-name="Trazado 632023" d="M93.74,85.911l12.2-7.091,1.961,2.871-12.2,7.1Z" transform="translate(-804.843 -4296.637)" fill="#1a1a1a"/>
    <path id="Trazado_632024" data-name="Trazado 632024" d="M100.99,98.471l12.2-7.091.716.067L101.7,98.538Z" transform="translate(-806.687 -4299.831)"/>
    <path id="Trazado_632025" data-name="Trazado 632025" d="M94.038,85.041l12.2-7.091-.3.649L93.74,85.69Z" transform="translate(-804.843 -4296.415)"/>
    <path id="Trazado_632026" data-name="Trazado 632026" d="M96.37,89.705l12.2-7.1.619-.186-12.2,7.1Z" transform="translate(-805.511 -4297.553)"/>
    <path id="Trazado_632027" data-name="Trazado 632027" d="M72.979,73.086l.1.94,2.453,1.79.306-.649L78.3,77.344l-.112.828,2.289,2.408.477-.432,2.2,2.737-.3.649,1.961,2.878.619-.186,1.79,3.1-.47.432L88.257,92.9l.708.067,1.268,3.273-.619.179.947,3.191.768.321.649,3.206-.716-.075.313,3.012.768.559-.007,2.93-.768-.328-.336,2.632.723.761-.671,2.446-.768-.567-.954,2.088.611.895-1.283,1.8-.708-.753-1.521,1.379.47.984-1.8,1.029-.619-.9-1.969.6.3.992-2.215.186-.47-.977-2.3-.231.1.947-2.461-.664-.3-1-2.453-1.044-.1.828-2.55-1.476-.1-.94-2.461-1.8-.291.664-2.461-2.185.1-.82L62.8,111.7l-.47.432-2.207-2.729.3-.656-1.961-2.871-.619.186-1.79-3.1.477-.44-1.506-3.132-.716-.075L53.04,96.053l.619-.186-.947-3.184-.768-.321L51.3,89.148l.716.075L51.7,86.21l-.768-.559.007-2.923.768.328.328-2.647-.708-.746.664-2.446.768.559.954-2.088-.611-.895L54.382,73l.708.753,1.521-1.387-.47-.984,1.8-1.022.611.895,1.976-.6-.3-.992,2.215-.186.462.977,2.3.231-.1-.94,2.461.664.291.992,2.461,1.051.1-.828Z" transform="translate(-793.954 -4294.259)"/>
    <path id="Trazado_632028" data-name="Trazado 632028" d="M102.044,116.674a15.659,15.659,0,0,1,3.3,1.432c7.65,4.384,13.839,15.129,13.847,23.98a15.866,15.866,0,0,1-.418,3.676c-1.491,6.1-6.949,8.143-13.422,4.422C97.7,145.8,91.5,135.062,91.5,126.2,91.493,118.665,95.989,114.914,102.044,116.674Z" transform="translate(-827.925 -4332.126)" fill="#b3b3b3"/>
    <path id="Trazado_632029" data-name="Trazado 632029" d="M103.865,116.82a15.658,15.658,0,0,1,3.3,1.432c7.65,4.384,13.839,15.129,13.847,23.98a15.868,15.868,0,0,1-.418,3.676c-2.177,2.356-5.786,2.632-9.872.291-6.659-3.818-12.05-13.161-12.057-20.878C98.667,120.571,100.725,117.543,103.865,116.82Z" transform="translate(-829.746 -4332.273)" fill="#d4eeff"/>
    <path id="Trazado_632030" data-name="Trazado 632030" d="M103.865,116.82a15.658,15.658,0,0,1,3.3,1.432c7.65,4.384,13.839,15.129,13.847,23.98a15.868,15.868,0,0,1-.418,3.676c-2.177,2.356-5.786,2.632-9.872.291-6.659-3.818-12.05-13.161-12.057-20.878C98.667,120.571,100.725,117.543,103.865,116.82Z" transform="translate(-829.746 -4332.273)" fill="#e6e6e6"/>
    <path id="Trazado_632031" data-name="Trazado 632031" d="M112.176,131.35a5,5,0,0,1,.895.388,6.1,6.1,0,0,1,1.036.746,8.836,8.836,0,0,1,2.6,4.519,7.308,7.308,0,0,1,.134,1.253,5.115,5.115,0,0,1-.112,1c-.41,1.663-1.9,2.237-3.669,1.208a8.359,8.359,0,0,1-3.773-6.539C109.3,131.894,110.52,130.865,112.176,131.35Z" transform="translate(-832.45 -4335.938)" fill="gray"/>
    <path id="Trazado_632032" data-name="Trazado 632032" d="M115.246,132.927a8.836,8.836,0,0,1,2.6,4.519c-.268.828-1.059,1.1-2,.552a4.586,4.586,0,0,1-2.08-3.609C113.77,133.3,114.381,132.733,115.246,132.927Z" transform="translate(-833.589 -4336.36)" fill="#333"/>
    <path id="Trazado_632033" data-name="Trazado 632033" d="M108.068,139.7a1.186,1.186,0,0,1,.2.089,1.842,1.842,0,0,1,.835,1.447,1.037,1.037,0,0,1,0,.224c-.089.373-.425.492-.813.268a1.864,1.864,0,0,1-.843-1.491C107.427,139.821,107.7,139.6,108.068,139.7Z" transform="translate(-831.981 -4338.086)"/>
    <path id="Trazado_632034" data-name="Trazado 632034" d="M108.068,139.7a1.186,1.186,0,0,1,.2.089,1.842,1.842,0,0,1,.835,1.447,1.037,1.037,0,0,1,0,.224c-.089.373-.425.492-.813.268a1.864,1.864,0,0,1-.843-1.491C107.427,139.821,107.7,139.6,108.068,139.7Z" transform="translate(-831.981 -4338.086)"/>
    <path id="Trazado_632035" data-name="Trazado 632035" d="M120.181,132.711a.6.6,0,0,1,.2.089,1.827,1.827,0,0,1,.835,1.447,1.036,1.036,0,0,1,0,.224c-.089.365-.418.492-.813.268a1.857,1.857,0,0,1-.835-1.454C119.547,132.831,119.816,132.607,120.181,132.711Z" transform="translate(-835.064 -4336.309)"/>
    <path id="Trazado_632036" data-name="Trazado 632036" d="M120.181,132.711a.6.6,0,0,1,.2.089,1.827,1.827,0,0,1,.835,1.447,1.036,1.036,0,0,1,0,.224c-.089.365-.418.492-.813.268a1.857,1.857,0,0,1-.835-1.454C119.547,132.831,119.816,132.607,120.181,132.711Z" transform="translate(-835.064 -4336.309)"/>
    <path id="Trazado_632037" data-name="Trazado 632037" d="M119.949,146.351a.8.8,0,0,1,.2.089,1.827,1.827,0,0,1,.835,1.447,1.036,1.036,0,0,1,0,.224c-.089.373-.425.492-.813.268a1.864,1.864,0,0,1-.843-1.491C119.315,146.471,119.583,146.247,119.949,146.351Z" transform="translate(-835.003 -4339.778)"/>
    <path id="Trazado_632038" data-name="Trazado 632038" d="M119.949,146.351a.8.8,0,0,1,.2.089,1.827,1.827,0,0,1,.835,1.447,1.036,1.036,0,0,1,0,.224c-.089.373-.425.492-.813.268a1.864,1.864,0,0,1-.843-1.491C119.315,146.471,119.583,146.247,119.949,146.351Z" transform="translate(-835.003 -4339.778)"/>
    <path id="Trazado_632039" data-name="Trazado 632039" d="M108.431,126.391l.2.089a1.842,1.842,0,0,1,.835,1.447.746.746,0,0,1,0,.224c-.089.373-.418.492-.813.268a1.857,1.857,0,0,1-.835-1.447C107.789,126.511,108.065,126.287,108.431,126.391Z" transform="translate(-832.075 -4334.701)"/>
    <path id="Trazado_632040" data-name="Trazado 632040" d="M108.431,126.391l.2.089a1.842,1.842,0,0,1,.835,1.447.746.746,0,0,1,0,.224c-.089.373-.418.492-.813.268a1.857,1.857,0,0,1-.835-1.447C107.789,126.511,108.065,126.287,108.431,126.391Z" transform="translate(-832.075 -4334.701)"/>
    <path id="Trazado_632041" data-name="Trazado 632041" d="M115.487,145.8a8.4,8.4,0,0,1-4.273-1.372c-5.026-3.042-9.224-10.32-9.365-16.218-.06-2.684.746-4.78,2.237-5.906a5.152,5.152,0,0,1,4.839-.537,10.372,10.372,0,0,1,2.237,1.022c5.018,3.042,9.224,10.312,9.365,16.218a11.325,11.325,0,0,1-.216,2.483,5.22,5.22,0,0,1-2.9,3.937A4.69,4.69,0,0,1,115.487,145.8Zm-8.62-23.592a3.78,3.78,0,0,0-2.312.746c-1.29.962-1.976,2.833-1.916,5.22.134,5.66,4.168,12.676,8.948,15.562,2.051,1.245,3.982,1.581,5.451.947a4.474,4.474,0,0,0,2.438-3.378,10.625,10.625,0,0,0,.194-2.3c-.134-5.66-4.168-12.676-8.948-15.562a9.694,9.694,0,0,0-2.036-.947,6.114,6.114,0,0,0-1.819-.283Z" transform="translate(-830.556 -4333.436)" fill="#b3b3b3"/>
    <path id="Trazado_624938" data-name="Trazado 624938" d="M99.49,75.551l13.869-8.061L122.426,93.5l-13.869,8.06Z" transform="translate(-806.305 -4293.755)" fill="#fbb03b"/>
    <path id="Trazado_624939" data-name="Trazado 624939" d="M53.94,49.253,67.809,41.2l33.964,19.6L87.9,68.864Z" transform="translate(-794.72 -4287.068)" fill="#ffbe59"/>
    <path id="Trazado_624940" data-name="Trazado 624940" d="M87.9,71.611l9.067,26.008h-1.5l-8.6-24.674L53.94,53.931V52Z" transform="translate(-794.72 -4289.815)" fill="#c4720e"/>
    <path id="Trazado_624941" data-name="Trazado 624941" d="M87.9,71.611l9.067,26.008h-1.5l-8.6-24.674L53.94,53.931V52Z" transform="translate(-794.72 -4289.815)" fill="#c4720e"/>
    <path id="Trazado_624942" data-name="Trazado 624942" d="M200.167,187.293c6.189,3.572,11.185,12.236,11.185,19.335s-5.048,9.977-11.237,6.405S188.93,200.8,188.93,193.7,193.993,183.7,200.167,187.293Z" transform="translate(-852.706 -4349.805)" fill="#333"/>
    <path id="Trazado_624943" data-name="Trazado 624943" d="M200.167,187.293c6.189,3.572,11.185,12.236,11.185,19.335s-5.048,9.977-11.237,6.405S188.93,200.8,188.93,193.7,193.993,183.7,200.167,187.293Z" transform="translate(-852.706 -4349.805)"/>
    <path id="Trazado_624944" data-name="Trazado 624944" d="M209.35,178.027c-3.639-2.1-6.942-2.3-9.328-.91l-6.5,3.78c2.379-1.387,5.682-1.193,9.321.91,7.24,4.183,13.094,14.317,13.071,22.638,0,4.131-1.491,7.039-3.825,8.411l6.51-3.78c2.349-1.372,3.81-4.28,3.825-8.411C222.444,192.344,216.59,182.21,209.35,178.027Z" transform="translate(-853.873 -4347.384)" fill="#333"/>
    <path id="Trazado_624945" data-name="Trazado 624945" d="M201.516,183.1c-7.24-4.176-13.123-.82-13.146,7.5a21.863,21.863,0,0,0,.746,5.607c.1.38.209.746.306,1.148a18.307,18.307,0,0,1-.656-4.787c0-7.106,5.048-9.977,11.23-6.405S211.18,198.4,211.18,205.5s-5.048,9.977-11.237,6.405a18.5,18.5,0,0,1-3.728-2.878l.85.835a21.558,21.558,0,0,0,4.355,3.37c7.24,4.183,13.131.828,13.153-7.494S208.771,187.281,201.516,183.1Z" transform="translate(-852.564 -4348.674)" fill="#1a1a1a"/>
    <path id="Trazado_632042" data-name="Trazado 632042" d="M199.156,192.193a7.971,7.971,0,0,1,2.058.932,18.017,18.017,0,0,1,7.613,13.191,7.686,7.686,0,0,1-.224,2.192c-.746,3.072-3.549,3.959-6.912,1.872a17.98,17.98,0,0,1-7.613-13.191C193.967,193.274,196.114,191.342,199.156,192.193Z" transform="translate(-854.014 -4351.394)" fill="#b3b3b3"/>
    <path id="Trazado_632043" data-name="Trazado 632043" d="M200.288,192.26a7.971,7.971,0,0,1,2.058.932,16.024,16.024,0,0,1,4.772,4.936,17.424,17.424,0,0,1,.94,1.611,15.89,15.89,0,0,1,1.9,6.644,7.688,7.688,0,0,1-.224,2.192c-1.126.671-2.737.522-4.541-.589a15.752,15.752,0,0,1-6.666-11.55C198.469,194.34,199.155,192.894,200.288,192.26Z" transform="translate(-855.146 -4351.461)" fill="#d4eeff"/>
    <path id="Trazado_632044" data-name="Trazado 632044" d="M205.329,198.134a3.051,3.051,0,0,1,.746.41,8.046,8.046,0,0,1,2.983,5.22,3.338,3.338,0,0,1,0,.835c-.209,1.156-1.186,1.439-2.431.559a8.046,8.046,0,0,1-3.02-5.22C203.5,198.432,204.226,197.746,205.329,198.134Z" transform="translate(-856.436 -4352.928)" fill="#333"/>
    <path id="Trazado_632045" data-name="Trazado 632045" d="M203.107,203.99a.745.745,0,0,1,.194.1,2.133,2.133,0,0,1,.783,1.357,1.013,1.013,0,0,1,0,.216c-.06.3-.306.373-.634.142a2.118,2.118,0,0,1-.746-1.35C202.63,204.065,202.816,203.886,203.107,203.99Z" transform="translate(-856.205 -4354.437)" fill="#333"/>
    <path id="Trazado_632046" data-name="Trazado 632046" d="M210.93,209.04a.745.745,0,0,1,.2.1,2.132,2.132,0,0,1,.746,1.357,1.014,1.014,0,0,1,0,.216c-.06.3-.306.373-.634.142a2.051,2.051,0,0,1-.783-1.35C210.46,209.115,210.646,208.936,210.93,209.04Z" transform="translate(-858.182 -4355.722)" fill="#333"/>
    <path id="Trazado_632047" data-name="Trazado 632047" d="M202.69,194.761a1,1,0,0,1,.194.1,2.088,2.088,0,0,1,.746,1.357.68.68,0,0,1,0,.216c-.052.306-.306.373-.626.149a2.073,2.073,0,0,1-.783-1.357C202.22,194.843,202.406,194.664,202.69,194.761Z" transform="translate(-856.086 -4352.091)" fill="#333"/>
    <path id="Trazado_632048" data-name="Trazado 632048" d="M210.05,200.13a17.424,17.424,0,0,1,.939,1.611.559.559,0,0,1-.157-.089,2.051,2.051,0,0,1-.746-1.35A.658.658,0,0,1,210.05,200.13Z" transform="translate(-858.078 -4353.463)" fill="#333"/>
    <path id="Trazado_632049" data-name="Trazado 632049" d="M201.88,148.261l1.365-.783V139.85l-1.365.783Z" transform="translate(-832.348 -4312.16)"/>
    <path id="Trazado_632050" data-name="Trazado 632050" d="M205.14,146.381l1.357-.783V137.97l-1.357.783Z" transform="translate(-833.177 -4311.681)"/>
    <path id="Trazado_632051" data-name="Trazado 632051" d="M208.4,144.5l1.357-.783V136.09l-1.357.783Z" transform="translate(-834.006 -4311.204)"/>
    <path id="Trazado_632052" data-name="Trazado 632052" d="M211.66,142.621l1.357-.783V134.21l-1.357.783Z" transform="translate(-834.835 -4310.725)"/>
    <path id="Trazado_632053" data-name="Trazado 632053" d="M214.91,140.731l1.365-.783V132.32l-1.365.79Z" transform="translate(-835.662 -4310.244)"/>
    <path id="Trazado_632054" data-name="Trazado 632054" d="M218.17,138.851l1.365-.783V130.44l-1.365.79Z" transform="translate(-836.491 -4309.766)"/>
    <path id="Trazado_632055" data-name="Trazado 632055" d="M221.43,136.971l1.357-.783V128.56l-1.357.783Z" transform="translate(-837.32 -4309.289)"/>
    <path id="Trazado_632056" data-name="Trazado 632056" d="M224.69,135.091l1.357-.783V126.68l-1.357.783Z" transform="translate(-838.149 -4308.81)"/>
    <path id="Trazado_624961" data-name="Trazado 624961" d="M206.314,163.481l4.474,2.58a2.781,2.781,0,0,1-1.268-2.051,6.405,6.405,0,0,0,5.22-9.112,2.774,2.774,0,0,1,2.386.06l-4.474-2.58-.1-.052-.38-.239a6.405,6.405,0,0,0-6.405,11.088c.119.075.246.134.365.2Z" transform="translate(-856.213 -4341.047)" fill="#fbb03b"/>
    <path id="Trazado_624962" data-name="Trazado 624962" d="M210.56,168.515l.507.283a1.874,1.874,0,0,0-.075-.328A2.181,2.181,0,0,0,210.56,168.515Z" transform="translate(-858.208 -4345.41)" fill="#999"/>
    <path id="Trazado_624963" data-name="Trazado 624963" d="M211.563,153.488l2.543,1.491.216.127a3.43,3.43,0,0,1,1.529-.6l-.44-.254c.514.3.246.134-2.543-1.491a5.876,5.876,0,0,0-6.428.38,5.816,5.816,0,0,1,5.123.343Z" transform="translate(-857.16 -4341.217)" fill="#fff"/>
    <path id="Trazado_624964" data-name="Trazado 624964" d="M213.34,164.534a8.515,8.515,0,0,1,3.862-6.711c2.14-1.223,3.87-.209,3.87,2.237a8.508,8.508,0,0,1-3.87,6.711C215.07,168.031,213.34,167.024,213.34,164.534Z" transform="translate(-858.915 -4342.57)" fill="#ccc"/>
    <path id="Trazado_624965" data-name="Trazado 624965" d="M211.76,164.243c0,2.893,2.028,4.079,4.526,2.647a7.285,7.285,0,0,0,1.543-1.208l.3-.291a6.555,6.555,0,0,1-1.327,1.029c-2.133,1.223-3.862.216-3.862-2.237a8.515,8.515,0,0,1,3.862-6.711c2.14-1.223,3.87-.209,3.87,2.237a6.532,6.532,0,0,1-.216,1.618,1.605,1.605,0,0,1,.1-.4,7.643,7.643,0,0,0,.254-1.886c0-2.9-2.028-4.086-4.526-2.647a9.977,9.977,0,0,0-4.526,7.852Z" transform="translate(-858.513 -4342.182)" fill="#c4720e"/>
    <path id="Trazado_632057" data-name="Trazado 632057" d="M217.362,166.325a7.509,7.509,0,0,0,3.229-5.592c.052-2.043-1.3-2.841-3.042-1.782a7.524,7.524,0,0,0-3.229,5.6C214.267,166.578,215.624,167.376,217.362,166.325Z" transform="translate(-859.163 -4342.87)" fill="#fff"/>
    <path id="Trazado_632058" data-name="Trazado 632058" d="M214.346,165.114a3.557,3.557,0,0,1,0-.574,7.524,7.524,0,0,1,3.229-5.6,5.34,5.34,0,0,1,.492-.261c1.491-.626,2.595.2,2.55,2.043a7.509,7.509,0,0,1-3.229,5.592C215.808,167.262,214.547,166.717,214.346,165.114Z" transform="translate(-859.168 -4342.867)" fill="#fff"/>
    <path id="Trazado_632059" data-name="Trazado 632059" d="M214.346,165.185a3.557,3.557,0,0,1,0-.574,7.524,7.524,0,0,1,3.229-5.6,5.34,5.34,0,0,1,.492-.261,2.334,2.334,0,0,1,.664,1.618,5.22,5.22,0,0,1-2.655,4.593A2.274,2.274,0,0,1,214.346,165.185Z" transform="translate(-859.168 -4342.938)" fill="#fff8b3"/>
    <path id="Trazado_632060" data-name="Trazado 632060" d="M201.55,86.01l3.147-1.827L179.441,65.169l-6.8-11.7-3.251,1.886L176.3,67.25Z" transform="translate(-824.084 -4290.188)" fill="#fff" opacity="0.3"/>
    <path id="Trazado_632061" data-name="Trazado 632061" d="M103.552,62.585,70.885,43.72,67.53,45.674l32.883,18.984,8.374,24.017L112,86.811Z" transform="translate(-798.176 -4287.709)" fill="#fff" opacity="0.3"/>
    <path id="Trazado_632062" data-name="Trazado 632062" d="M155.524,56.229a1.491,1.491,0,0,1-.865.828c-3.542,1.044-6.442-2.983-6.032-5.376s.522-3.78.522-3.78l6.845,1.685s.075.641.112,1.551C156.173,52.68,156.15,54.984,155.524,56.229Z" transform="translate(-842.445 -4314.744)" fill="#ffb294"/>
    <path id="Trazado_632063" data-name="Trazado 632063" d="M156.051,57.117a1.991,1.991,0,0,1-1.126.373c-3.236,0-4.265-6.1-4.265-6.1l5.965.634C156.7,53.567,156.677,55.871,156.051,57.117Z" transform="translate(-842.972 -4315.631)" fill="#ffb294" opacity="0.5"/>
    <path id="Trazado_632064" data-name="Trazado 632064" d="M149.2,46.129s.746,2.983,2.073,4.25a8.083,8.083,0,0,0,4.243,1.961,2.147,2.147,0,0,0,1.961-.641c.522-.619.843-6.256.843-6.256A16.711,16.711,0,0,0,158,41.394c-.38-1.79-1.67-5.749-6.875-5.033a5.026,5.026,0,0,0-4.4,4.384c-.253,1.76,1.148,4.884,1.148,4.884Z" transform="translate(-841.965 -4311.786)" fill="#ffb294"/>
    <path id="Trazado_632065" data-name="Trazado 632065" d="M157.266,52.395c-3.236,0-6.606-6.271-6.606-6.271l8.493-.634C159.362,50.091,159.5,52.395,157.266,52.395Z" transform="translate(-842.972 -4314.13)" fill="#ffb294" opacity="0.5"/>
    <path id="Trazado_632066" data-name="Trazado 632066" d="M147.729,45.99l2.476,1.32.186-1.491a1.208,1.208,0,0,1,1.29-1.223,9.291,9.291,0,0,0,4.75-.828,3.423,3.423,0,0,0,1.946-1.931c.835-3.206-3.393-5.682-6.577-5.577-3.877.127-5.443,2.729-5.451,5.026A12.442,12.442,0,0,0,147.729,45.99Z" transform="translate(-841.876 -4311.782)"/>
    <path id="Trazado_632067" data-name="Trazado 632067" d="M157.374,44.7a14.816,14.816,0,0,1-4.534,1.655l.134.082c2.595,1.491,5.965,3.065,9.358,1.1,3.728-2.155.7-3.907-1.9-5.406l-.171-.089A7.457,7.457,0,0,1,157.374,44.7Z" transform="translate(-843.527 -4313.253)" fill="#0071bc"/>
    <path id="Trazado_632068" data-name="Trazado 632068" d="M151.288,44.6a7.516,7.516,0,0,1-4.705-1.73s-1.745-5.555,2.983-7.367c7.777-2.983,8.948,4.7,8.948,4.7C158.043,42.611,155.053,43.8,151.288,44.6Z" transform="translate(-841.855 -4311.416)" fill="#0071bc"/>
    <path id="Trazado_632069" data-name="Trazado 632069" d="M148.594,46.592a.865.865,0,0,0-1.051.157.85.85,0,0,0-.127.619,2.541,2.541,0,0,0,.216.6c.164.328.35.656.544.969a1.186,1.186,0,0,0,.656.6c.306.075.664.283.828,0a2.528,2.528,0,0,0-1.066-2.983Z" transform="translate(-842.143 -4314.382)" fill="#ffb294"/>
    <path id="Trazado_632070" data-name="Trazado 632070" d="M157.374,44.7a14.816,14.816,0,0,1-4.534,1.655l.134.082c2.595,1.491,5.965,3.065,9.358,1.1,3.728-2.155.7-3.907-1.9-5.406l-.171-.089A7.457,7.457,0,0,1,157.374,44.7Z" transform="translate(-843.527 -4313.253)" fill="#0071bc" opacity="0.5"/>
  </g>
</svg>
