<svg xmlns="http://www.w3.org/2000/svg" xmlns:xlink="http://www.w3.org/1999/xlink" width="146.255" height="146.255" viewBox="0 0 146.255 146.255">
  <defs>
    <clipPath id="clip-path">
      <rect id="Rectángulo_321521" data-name="Rectángulo 321521" width="133.404" height="133.405" fill="none"/>
    </clipPath>
    <clipPath id="clip-path-2">
      <rect id="Rectángulo_321522" data-name="Rectángulo 321522" width="22.289" height="22.287" fill="none"/>
    </clipPath>
    <clipPath id="clip-path-3">
      <rect id="Rectángulo_321523" data-name="Rectángulo 321523" width="15.57" height="15.57" fill="none"/>
    </clipPath>
    <clipPath id="clip-path-4">
      <rect id="Rectángulo_321524" data-name="Rectángulo 321524" width="19.733" height="19.732" fill="none"/>
    </clipPath>
    <clipPath id="clip-path-5">
      <rect id="Rectángulo_321525" data-name="Rectángulo 321525" width="13.345" height="13.349" fill="none"/>
    </clipPath>
    <clipPath id="clip-path-6">
      <rect id="Rectángulo_321526" data-name="Rectángulo 321526" width="20.164" height="20.161" fill="none"/>
    </clipPath>
    <clipPath id="clip-path-7">
      <rect id="Rectángulo_321527" data-name="Rectángulo 321527" width="69.842" height="5.732" fill="none"/>
    </clipPath>
    <clipPath id="clip-path-8">
      <rect id="Rectángulo_321528" data-name="Rectángulo 321528" width="53.366" height="56.14" fill="none"/>
    </clipPath>
    <clipPath id="clip-path-9">
      <rect id="Rectángulo_321529" data-name="Rectángulo 321529" width="31.175" height="66.25" fill="none"/>
    </clipPath>
    <clipPath id="clip-path-10">
      <rect id="Rectángulo_321530" data-name="Rectángulo 321530" width="35.162" height="5.835" fill="none"/>
    </clipPath>
    <clipPath id="clip-path-11">
      <rect id="Rectángulo_321531" data-name="Rectángulo 321531" width="30.034" height="5.391" fill="none"/>
    </clipPath>
    <clipPath id="clip-path-12">
      <rect id="Rectángulo_321532" data-name="Rectángulo 321532" width="20.653" height="31.868" fill="none"/>
    </clipPath>
    <clipPath id="clip-path-13">
      <rect id="Rectángulo_321533" data-name="Rectángulo 321533" width="18.801" height="27.77" fill="none"/>
    </clipPath>
    <clipPath id="clip-path-14">
      <rect id="Rectángulo_321534" data-name="Rectángulo 321534" width="15.06" height="15.057" fill="none"/>
    </clipPath>
    <clipPath id="clip-path-15">
      <rect id="Rectángulo_321535" data-name="Rectángulo 321535" width="14.528" height="14.528" fill="none"/>
    </clipPath>
    <clipPath id="clip-path-16">
      <rect id="Rectángulo_321536" data-name="Rectángulo 321536" width="10.193" height="10.197" fill="none"/>
    </clipPath>
  </defs>
  <g id="Grupo_1072405" data-name="Grupo 1072405" transform="translate(-4426.828 8403.969)">
    <path id="Trazado_821810" data-name="Trazado 821810" d="M472.765,713.256a73.127,73.127,0,1,1-73.127-73.127,73.128,73.128,0,0,1,73.127,73.127" transform="translate(4100.318 -9044.098)" fill="#1b3f5e"/>
    <g id="Grupo_1072375" data-name="Grupo 1072375" transform="translate(4432.847 -8397.544)" style="isolation: isolate">
      <g id="Grupo_253407" data-name="Grupo 253407" transform="translate(0 0)">
        <g id="Grupo_253406" data-name="Grupo 253406" clip-path="url(#clip-path)">
          <path id="Trazado_271399" data-name="Trazado 271399" d="M466.348,713.7a66.7,66.7,0,1,1-66.7-66.7,66.7,66.7,0,0,1,66.7,66.7" transform="translate(-332.944 -646.997)" fill="#e5dbd7"/>
        </g>
      </g>
    </g>
    <g id="Grupo_1072376" data-name="Grupo 1072376" transform="translate(4470.232 -8373.665)" style="mix-blend-mode: multiply;isolation: isolate">
      <g id="Grupo_253410" data-name="Grupo 253410" transform="translate(0 0)">
        <g id="Grupo_253409" data-name="Grupo 253409" clip-path="url(#clip-path-2)">
          <path id="Trazado_271400" data-name="Trazado 271400" d="M395.2,683.665a11.145,11.145,0,1,1-11.145-11.142A11.145,11.145,0,0,1,395.2,683.665" transform="translate(-372.909 -672.523)" fill="#bddef5"/>
        </g>
      </g>
    </g>
    <path id="Trazado_821811" data-name="Trazado 821811" d="M384.011,695.377a11.752,11.752,0,1,1,11.753-11.752,11.766,11.766,0,0,1-11.753,11.752m0-22.287a10.535,10.535,0,1,0,10.537,10.534,10.547,10.547,0,0,0-10.537-10.534" transform="translate(4097.366 -9046.146)" fill="#fff"/>
    <path id="Trazado_821812" data-name="Trazado 821812" d="M387.274,693.384a.608.608,0,0,1-.171-1.192,7.738,7.738,0,0,0,3.655-2.336.608.608,0,1,1,.915.8,8.946,8.946,0,0,1-4.227,2.7.648.648,0,0,1-.171.024" transform="translate(4096.436 -9047.293)" fill="#fff"/>
    <path id="Trazado_821813" data-name="Trazado 821813" d="M375.867,684.426a.608.608,0,0,1-.608-.608,8.955,8.955,0,0,1,8.946-8.945.609.609,0,1,1,0,1.217,7.737,7.737,0,0,0-7.73,7.728.608.608,0,0,1-.608.608" transform="translate(4097.172 -9046.34)" fill="#fff"/>
    <g id="Grupo_1072377" data-name="Grupo 1072377" transform="translate(4481.377 -8378.812)" style="mix-blend-mode: multiply;isolation: isolate">
      <g id="Grupo_253413" data-name="Grupo 253413" transform="translate(0 0)">
        <g id="Grupo_253412" data-name="Grupo 253412" clip-path="url(#clip-path-3)">
          <path id="Trazado_271404" data-name="Trazado 271404" d="M400.392,674.807a7.785,7.785,0,1,1-7.783-7.784,7.785,7.785,0,0,1,7.783,7.784" transform="translate(-384.822 -667.022)" fill="#bddef5"/>
        </g>
      </g>
    </g>
    <path id="Trazado_821814" data-name="Trazado 821814" d="M392.566,683.159a8.393,8.393,0,1,1,8.392-8.394,8.4,8.4,0,0,1-8.392,8.394m0-15.57a7.176,7.176,0,1,0,7.175,7.176,7.185,7.185,0,0,0-7.175-7.176" transform="translate(4096.597 -9045.791)" fill="#fff"/>
    <path id="Trazado_821815" data-name="Trazado 821815" d="M395.3,681.736a.609.609,0,0,1-.212-1.179,5.34,5.34,0,0,0,2.008-1.331.608.608,0,1,1,.882.837,6.575,6.575,0,0,1-2.466,1.634.627.627,0,0,1-.212.038" transform="translate(4095.918 -9046.608)" fill="#fff"/>
    <path id="Trazado_821816" data-name="Trazado 821816" d="M386.78,675.5a.608.608,0,0,1-.608-.608,6.53,6.53,0,0,1,6.523-6.522.608.608,0,1,1,0,1.217,5.312,5.312,0,0,0-5.307,5.305.608.608,0,0,1-.608.608" transform="translate(4096.468 -9045.92)" fill="#fff"/>
    <g id="Grupo_1072378" data-name="Grupo 1072378" transform="translate(4496.493 -8370.184)" style="mix-blend-mode: multiply;isolation: isolate">
      <g id="Grupo_253416" data-name="Grupo 253416" transform="translate(0 0)">
        <g id="Grupo_253415" data-name="Grupo 253415" clip-path="url(#clip-path-4)">
          <path id="Trazado_271408" data-name="Trazado 271408" d="M400.981,686.112a9.866,9.866,0,1,1,9.866,9.864,9.867,9.867,0,0,1-9.866-9.864" transform="translate(-400.981 -676.245)" fill="#bddef5"/>
        </g>
      </g>
    </g>
    <path id="Trazado_821817" data-name="Trazado 821817" d="M410.805,696.543a10.474,10.474,0,1,1,10.474-10.473,10.486,10.486,0,0,1-10.474,10.473m0-19.732a9.257,9.257,0,1,0,9.257,9.258,9.268,9.268,0,0,0-9.257-9.258" transform="translate(4095.554 -9046.387)" fill="#fff"/>
    <path id="Trazado_821818" data-name="Trazado 821818" d="M414.057,694.311a.609.609,0,0,1-.208-1.181,6.491,6.491,0,0,0,2.716-1.886.607.607,0,1,1,.924.789,7.7,7.7,0,0,1-3.225,2.241.625.625,0,0,1-.208.036" transform="translate(4094.708 -9047.383)" fill="#fff"/>
    <path id="Trazado_821819" data-name="Trazado 821819" d="M403.939,686.872a.608.608,0,0,1-.608-.608,7.678,7.678,0,0,1,7.668-7.67.609.609,0,0,1,0,1.217,6.459,6.459,0,0,0-6.452,6.453.608.608,0,0,1-.608.608" transform="translate(4095.36 -9046.58)" fill="#fff"/>
    <g id="Grupo_1072379" data-name="Grupo 1072379" transform="translate(4511.406 -8373.665)" style="mix-blend-mode: multiply;isolation: isolate">
      <g id="Grupo_253419" data-name="Grupo 253419" transform="translate(0 0)">
        <g id="Grupo_253418" data-name="Grupo 253418" clip-path="url(#clip-path-5)">
          <path id="Trazado_271412" data-name="Trazado 271412" d="M416.923,679.2a6.673,6.673,0,1,1,6.673,6.674,6.674,6.674,0,0,1-6.673-6.674" transform="translate(-416.923 -672.523)" fill="#bddef5"/>
        </g>
      </g>
    </g>
    <path id="Trazado_821820" data-name="Trazado 821820" d="M423.554,686.439a7.283,7.283,0,1,1,7.282-7.283,7.291,7.291,0,0,1-7.282,7.283m0-13.349a6.066,6.066,0,1,0,6.065,6.067,6.072,6.072,0,0,0-6.065-6.067" transform="translate(4094.525 -9046.146)" fill="#fff"/>
    <path id="Trazado_821821" data-name="Trazado 821821" d="M426.01,684.885a.608.608,0,0,1-.238-1.168,4.219,4.219,0,0,0,1.332-.9.608.608,0,0,1,.859.861,5.4,5.4,0,0,1-1.716,1.158.61.61,0,0,1-.238.049" transform="translate(4093.936 -9046.841)" fill="#fff"/>
    <path id="Trazado_821822" data-name="Trazado 821822" d="M418.881,679.894a.608.608,0,0,1-.608-.608,5.417,5.417,0,0,1,5.41-5.413.608.608,0,0,1,0,1.216,4.2,4.2,0,0,0-4.194,4.2.608.608,0,0,1-.608.608" transform="translate(4094.396 -9046.275)" fill="#fff"/>
    <g id="Grupo_1072380" data-name="Grupo 1072380" transform="translate(4484.221 -8371.54)" style="mix-blend-mode: multiply;isolation: isolate">
      <g id="Grupo_253422" data-name="Grupo 253422" transform="translate(0 0)">
        <g id="Grupo_253421" data-name="Grupo 253421" clip-path="url(#clip-path-6)">
          <path id="Trazado_271416" data-name="Trazado 271416" d="M387.862,684.875a10.082,10.082,0,1,1,10.082,10.081,10.082,10.082,0,0,1-10.082-10.081" transform="translate(-387.862 -674.795)" fill="#bddef5"/>
        </g>
      </g>
    </g>
    <path id="Trazado_821823" data-name="Trazado 821823" d="M397.9,695.523a10.69,10.69,0,1,1,10.69-10.69,10.7,10.7,0,0,1-10.69,10.69m0-20.162a9.473,9.473,0,1,0,9.473,9.472,9.483,9.483,0,0,0-9.473-9.472" transform="translate(4096.4 -9046.293)" fill="#fff"/>
    <path id="Trazado_821824" data-name="Trazado 821824" d="M401.279,693.332a.609.609,0,0,1-.21-1.18,6.616,6.616,0,0,0,2.264-1.4.609.609,0,0,1,.834.887,7.874,7.874,0,0,1-2.676,1.656.622.622,0,0,1-.21.037" transform="translate(4095.532 -9047.354)" fill="#fff"/>
    <path id="Trazado_821825" data-name="Trazado 821825" d="M390.82,685.634a.608.608,0,0,1-.608-.608,7.892,7.892,0,0,1,7.884-7.882.609.609,0,1,1,0,1.217,6.674,6.674,0,0,0-6.668,6.665.608.608,0,0,1-.608.608" transform="translate(4096.207 -9046.486)" fill="#fff"/>
    <path id="Trazado_821826" data-name="Trazado 821826" d="M434.264,699.41l-.328,4.64H370.652l-.328-4.64Z" transform="translate(4097.49 -9047.923)" fill="#73a847"/>
    <path id="Trazado_821827" data-name="Trazado 821827" d="M438.218,695.15v2.6a1.153,1.153,0,0,1-1.16,1.16H366.945a1.154,1.154,0,0,1-1.161-1.16v-2.6a3.47,3.47,0,0,1,3.471-3.471h65.493a3.469,3.469,0,0,1,3.471,3.471" transform="translate(4097.783 -9047.425)" fill="#9fd672"/>
    <g id="Grupo_1072381" data-name="Grupo 1072381" transform="translate(4465.183 -8354.995)" style="mix-blend-mode: screen;isolation: isolate">
      <g id="Grupo_253425" data-name="Grupo 253425" transform="translate(0 0)">
        <g id="Grupo_253424" data-name="Grupo 253424" clip-path="url(#clip-path-7)">
          <path id="Trazado_271422" data-name="Trazado 271422" d="M370.693,697.971a2.749,2.749,0,0,1,2.75-2.75h63.909a2.75,2.75,0,0,0-2.75-2.74H370.261a2.749,2.749,0,0,0-2.75,2.75v2.062a.915.915,0,0,0,.92.92h2.263Z" transform="translate(-367.511 -692.481)" fill="#525e46"/>
        </g>
      </g>
    </g>
    <path id="Trazado_821828" data-name="Trazado 821828" d="M433.958,704.37,430.3,756.747a10.07,10.07,0,0,1-9.9,9.233H384.239a10.071,10.071,0,0,1-9.907-9.233l-3.658-52.377Z" transform="translate(4097.468 -9048.243)" fill="#9fd672"/>
    <g id="Grupo_1072382" data-name="Grupo 1072382" transform="translate(4470.997 -8341.681)" style="mix-blend-mode: screen;isolation: isolate">
      <g id="Grupo_253428" data-name="Grupo 253428" transform="translate(0 0)">
        <g id="Grupo_253427" data-name="Grupo 253427" clip-path="url(#clip-path-8)">
          <path id="Trazado_271424" data-name="Trazado 271424" d="M425.646,757.984H392.691a9.179,9.179,0,0,1-9.027-8.414l-2.993-42.857h-6.944l3.332,47.727a9.176,9.176,0,0,0,9.027,8.414h32.955a9.183,9.183,0,0,0,8.052-5,8.637,8.637,0,0,1-1.447.132" transform="translate(-373.726 -706.714)" fill="#3a4231"/>
        </g>
      </g>
    </g>
    <g id="Grupo_1072383" data-name="Grupo 1072383" transform="translate(4500.579 -8348.514)" style="mix-blend-mode: multiply;isolation: isolate">
      <g id="Grupo_253431" data-name="Grupo 253431" transform="translate(0 0)">
        <g id="Grupo_253430" data-name="Grupo 253430" clip-path="url(#clip-path-9)">
          <path id="Trazado_271425" data-name="Trazado 271425" d="M405.349,699.41v66.25h17.292a10.07,10.07,0,0,0,9.9-9.233L436.2,704.05l.327-4.64Z" transform="translate(-405.349 -699.41)" fill="#dae6d1"/>
        </g>
      </g>
    </g>
    <path id="Trazado_821829" data-name="Trazado 821829" d="M414.675,669.63a3.244,3.244,0,1,1-3.245-3.244,3.245,3.245,0,0,1,3.245,3.244" transform="translate(4095.047 -9045.792)" fill="#bddef5"/>
    <path id="Trazado_821830" data-name="Trazado 821830" d="M412.942,672.291a.258.258,0,0,1-.131-.48,2.153,2.153,0,0,0,.558-.469.258.258,0,0,1,.393.333,2.665,2.665,0,0,1-.69.579.256.256,0,0,1-.13.036" transform="translate(4094.757 -9046.106)" fill="#fff"/>
    <path id="Trazado_821831" data-name="Trazado 821831" d="M409.049,669.927a.258.258,0,0,1-.257-.257,2.681,2.681,0,0,1,2.677-2.678.257.257,0,1,1,0,.514,2.165,2.165,0,0,0-2.163,2.164.258.258,0,0,1-.257.257" transform="translate(4095.008 -9045.831)" fill="#fff"/>
    <path id="Trazado_821832" data-name="Trazado 821832" d="M437.165,671.665a2.054,2.054,0,1,1-2.053-2.053,2.053,2.053,0,0,1,2.053,2.053" transform="translate(4093.442 -9046)" fill="#bddef5"/>
    <path id="Trazado_821833" data-name="Trazado 821833" d="M436.068,673.35a.163.163,0,0,1-.082-.3,1.365,1.365,0,0,0,.353-.3.163.163,0,1,1,.249.211,1.7,1.7,0,0,1-.437.367.167.167,0,0,1-.082.023" transform="translate(4093.258 -9046.199)" fill="#fff"/>
    <path id="Trazado_821834" data-name="Trazado 821834" d="M433.6,671.854a.164.164,0,0,1-.164-.164,1.7,1.7,0,0,1,1.7-1.694.162.162,0,0,1,0,.325,1.372,1.372,0,0,0-1.37,1.37.163.163,0,0,1-.163.164" transform="translate(4093.417 -9046.025)" fill="#fff"/>
    <path id="Trazado_821835" data-name="Trazado 821835" d="M421.241,733.713a1,1,0,0,1-.683,1.123,50.89,50.89,0,0,1-33.761,0,.968.968,0,0,1-.646-1.207c.01-.027.02-.047.029-.075l2.356-4.9c0-.01.01-.01.01-.02a1.143,1.143,0,0,1,1.441-.43,45.012,45.012,0,0,0,27.39,0,1.147,1.147,0,0,1,1.451.45l.056.122,2.3,4.779a.76.76,0,0,1,.057.159" transform="translate(4096.472 -9049.775)" fill="#73a847"/>
    <g id="Grupo_1072384" data-name="Grupo 1072384" transform="translate(4482.572 -8317.893)" style="mix-blend-mode: multiply;isolation: isolate">
      <g id="Grupo_253434" data-name="Grupo 253434" transform="translate(0 0)">
        <g id="Grupo_253433" data-name="Grupo 253433" clip-path="url(#clip-path-10)">
          <path id="Trazado_271433" data-name="Trazado 271433" d="M421.184,733.814l-.8-1.671a50.939,50.939,0,0,1-33.4,0l-.8,1.669c-.009.028-.018.048-.028.075a.967.967,0,0,0,.645,1.207,50.89,50.89,0,0,0,33.761,0,1,1,0,0,0,.684-1.123.883.883,0,0,0-.057-.159" transform="translate(-386.1 -732.143)" fill="#dae6d1"/>
        </g>
      </g>
    </g>
    <g id="Grupo_1072385" data-name="Grupo 1072385" transform="translate(4483.567 -8320.773)" style="mix-blend-mode: screen;isolation: isolate">
      <g id="Grupo_253437" data-name="Grupo 253437" transform="translate(0 0)">
        <g id="Grupo_253436" data-name="Grupo 253436" clip-path="url(#clip-path-11)">
          <path id="Trazado_271434" data-name="Trazado 271434" d="M390.266,731.968c0-.009.008-.009.008-.017a1.018,1.018,0,0,1,1.208-.36,40.022,40.022,0,0,0,11.8.872c10.078-.639,13.915-3.391,13.915-3.391-3.01,1.089-11.068,2.134-15.177,2.134a38.741,38.741,0,0,1-11.92-2.065.955.955,0,0,0-1.207.359c0,.008-.009.008-.009.017l-1.656,3.411c-.007.024-.016.04-.023.064a.81.81,0,0,0,.542,1.011c.341.128.784.284,1.307.453Z" transform="translate(-387.163 -729.063)" fill="#475c2f"/>
        </g>
      </g>
    </g>
    <path id="Trazado_821836" data-name="Trazado 821836" d="M384.761,731.346c-.01.028-.02.048-.029.075l-.019-.009c-13.948-5.7-20.59-18.635-20.59-33.685,0-2.05.44-3.528,1.852-3.826a3.342,3.342,0,0,0-.3,1.393v2.6a1.154,1.154,0,0,0,1.161,1.16h.046c1.721,12.508,8.335,22.779,20.244,27.372,0,.009-.011.009-.011.02Z" transform="translate(4097.891 -9047.567)" fill="#ffcc4d"/>
    <g id="Grupo_1072386" data-name="Grupo 1072386" transform="translate(4462.712 -8349.732)" style="mix-blend-mode: screen;isolation: isolate">
      <g id="Grupo_253440" data-name="Grupo 253440" transform="translate(0 0)">
        <g id="Grupo_253439" data-name="Grupo 253439" clip-path="url(#clip-path-12)">
          <path id="Trazado_271436" data-name="Trazado 271436" d="M364.87,698.107c0,14.235,6.282,26.471,19.472,31.858l.018.008c.009-.026.019-.044.026-.071l1.138-2.363c-18.936-6.5-20.653-29.433-20.653-29.433" transform="translate(-364.87 -698.107)" fill="#705e48"/>
        </g>
      </g>
    </g>
    <path id="Trazado_821837" data-name="Trazado 821837" d="M443.746,697.714c0,15.126-5.978,28.12-20.243,33.779a.839.839,0,0,0-.056-.159l-2.3-4.779c12.423-4.546,18.653-15,20.187-27.746a1.139,1.139,0,0,0,.458-.926v-2.6a3.38,3.38,0,0,0-.374-1.562l.028-.008c1.637,0,2.3.794,2.3,4" transform="translate(4094.211 -9047.556)" fill="#ffcc4d"/>
    <g id="Grupo_1072387" data-name="Grupo 1072387" transform="translate(4516.758 -8346.487)" style="mix-blend-mode: screen;isolation: isolate">
      <g id="Grupo_253443" data-name="Grupo 253443" transform="translate(0 0)">
        <g id="Grupo_253442" data-name="Grupo 253442" clip-path="url(#clip-path-13)">
          <path id="Trazado_271438" data-name="Trazado 271438" d="M422.645,727.218l1.023,2.128a28.4,28.4,0,0,0,17.75-27.77c-1.471,11.783-7.269,21.432-18.774,25.642" transform="translate(-422.644 -701.576)" fill="#705e48"/>
        </g>
      </g>
    </g>
    <g id="Grupo_1072388" data-name="Grupo 1072388" transform="translate(4464.43 -8368.104)" style="mix-blend-mode: multiply;isolation: isolate">
      <g id="Grupo_253446" data-name="Grupo 253446" transform="translate(0 0)">
        <g id="Grupo_253445" data-name="Grupo 253445" clip-path="url(#clip-path-14)">
          <path id="Trazado_271439" data-name="Trazado 271439" d="M381.766,686a7.53,7.53,0,1,1-7.53-7.53,7.529,7.529,0,0,1,7.53,7.53" transform="translate(-366.706 -678.467)" fill="#bddef5"/>
        </g>
      </g>
    </g>
    <path id="Trazado_821838" data-name="Trazado 821838" d="M374.195,694.091a8.138,8.138,0,1,1,8.138-8.138,8.148,8.148,0,0,1-8.138,8.138m0-15.058a6.921,6.921,0,1,0,6.921,6.921,6.928,6.928,0,0,0-6.921-6.921" transform="translate(4097.766 -9046.529)" fill="#fff"/>
    <path id="Trazado_821839" data-name="Trazado 821839" d="M376.63,692.782a.608.608,0,0,1-.193-1.185,5.02,5.02,0,0,0,1.026-.478.607.607,0,1,1,.635,1.036,6.12,6.12,0,0,1-1.276.6.6.6,0,0,1-.193.032" transform="translate(4097.123 -9047.383)" fill="#fff"/>
    <path id="Trazado_821840" data-name="Trazado 821840" d="M368.664,686.692a.608.608,0,0,1-.608-.608,6.275,6.275,0,0,1,6.268-6.268.609.609,0,0,1,0,1.217,5.057,5.057,0,0,0-5.052,5.051.608.608,0,0,1-.608.608" transform="translate(4097.637 -9046.659)" fill="#fff"/>
    <g id="Grupo_1072389" data-name="Grupo 1072389" transform="translate(4513.271 -8364.979)" style="mix-blend-mode: multiply;isolation: isolate">
      <g id="Grupo_253449" data-name="Grupo 253449" transform="translate(0 0)">
        <g id="Grupo_253448" data-name="Grupo 253448" clip-path="url(#clip-path-15)">
          <path id="Trazado_271443" data-name="Trazado 271443" d="M418.916,689.072a7.264,7.264,0,1,1,7.265,7.264,7.266,7.266,0,0,1-7.265-7.264" transform="translate(-418.916 -681.808)" fill="#bddef5"/>
        </g>
      </g>
    </g>
    <path id="Trazado_821841" data-name="Trazado 821841" d="M426.138,696.9a7.872,7.872,0,1,1,7.872-7.872,7.881,7.881,0,0,1-7.872,7.872m0-14.527a6.655,6.655,0,1,0,6.655,6.655,6.662,6.662,0,0,0-6.655-6.655" transform="translate(4094.397 -9046.745)" fill="#fff"/>
    <path id="Trazado_821842" data-name="Trazado 821842" d="M428.882,695.345a.608.608,0,0,1-.238-1.168,4.817,4.817,0,0,0,1.833-1.37.608.608,0,0,1,.939.773,6.054,6.054,0,0,1-2.3,1.718.609.609,0,0,1-.238.049" transform="translate(4093.751 -9047.482)" fill="#fff"/>
    <path id="Trazado_821843" data-name="Trazado 821843" d="M420.874,689.767a.608.608,0,0,1-.608-.608,6.009,6.009,0,0,1,6-6,.608.608,0,1,1,0,1.216,4.79,4.79,0,0,0-4.786,4.785.608.608,0,0,1-.608.608" transform="translate(4094.268 -9046.874)" fill="#fff"/>
    <g id="Grupo_1072390" data-name="Grupo 1072390" transform="translate(4526.04 -8363.457)" style="mix-blend-mode: multiply;isolation: isolate">
      <g id="Grupo_253452" data-name="Grupo 253452" transform="translate(0 0)">
        <g id="Grupo_253451" data-name="Grupo 253451" clip-path="url(#clip-path-16)">
          <path id="Trazado_271447" data-name="Trazado 271447" d="M432.566,688.533a5.1,5.1,0,1,1,5.1,5.1,5.1,5.1,0,0,1-5.1-5.1" transform="translate(-432.566 -683.435)" fill="#bddef5"/>
        </g>
      </g>
    </g>
    <path id="Trazado_821844" data-name="Trazado 821844" d="M437.631,694.066a5.566,5.566,0,1,1,5.563-5.565,5.571,5.571,0,0,1-5.563,5.565m0-10.2a4.63,4.63,0,1,0,4.628,4.631,4.635,4.635,0,0,0-4.628-4.631" transform="translate(4093.506 -9046.86)" fill="#fff"/>
    <path id="Trazado_821845" data-name="Trazado 821845" d="M439.642,693.027a.351.351,0,0,1-.137-.674,3.623,3.623,0,0,0,1.595-1.313.347.347,0,0,1,.486-.094.351.351,0,0,1,.094.487,4.329,4.329,0,0,1-1.9,1.568.367.367,0,0,1-.137.027" transform="translate(4093.04 -9047.373)" fill="#fff"/>
    <path id="Trazado_821846" data-name="Trazado 821846" d="M433.743,688.937a.351.351,0,0,1-.351-.351,4.33,4.33,0,0,1,4.324-4.327.351.351,0,1,1,0,.7,3.627,3.627,0,0,0-3.622,3.625.352.352,0,0,1-.351.351" transform="translate(4093.42 -9046.945)" fill="#fff"/>
  </g>
</svg>
