<svg xmlns="http://www.w3.org/2000/svg" width="124" height="124" viewBox="0 0 124 124">
  <g id="Grupo_1075447" data-name="Grupo 1075447" transform="translate(-740.087 -6769.165)">
    <g id="Grupo_159183" data-name="Grupo 159183" transform="translate(355.087 4711.165)">
      <path id="Unión_12" data-name="Unión 12" d="M8438,11700a62,62,0,1,1-62,62A62,62,0,0,1,8438,11700Z" transform="translate(-7991 -9642)" fill="#1b3f5e"/>
      <circle id="Elipse_4842" data-name="Elipse 4842" cx="48" cy="48" r="48" transform="translate(399 2072)" fill="#1b3f5e"/>
    </g>
    <g id="Grupo_1072071" data-name="Grupo 1072071" transform="translate(712.294 244.876)">
      <path id="Trazado_271244" data-name="Trazado 271244" d="M488.264,280.861l2.692.353c1.327.176,2.119,1.047,1.977,2.173a2.028,2.028,0,0,1-2.431,1.69,44.855,44.855,0,0,0-30.909,7.458c-11.566,7.818-18.629,18.706-20.127,32.589-2.083,19.306,5.4,34.464,21.736,44.9,16.638,10.632,39.159,8.6,53.973-4.368A45.959,45.959,0,0,0,522.7,304.1c-.093-.133-.187-.266-.292-.389a1.744,1.744,0,0,0-.319-.189c0,.678.019,1.274-.006,1.867a1.942,1.942,0,0,1-1.88,1.973,1.921,1.921,0,0,1-1.985-1.879q-.084-3.749-.006-7.5a1.891,1.891,0,0,1,2.045-1.909q3.614-.034,7.226,0a1.941,1.941,0,1,1,.034,3.88c-.935.034-1.869.007-2.958.007.236.353.377.59.543.809a49.343,49.343,0,0,1,9.9,26.242,7.163,7.163,0,0,0,.16.842V333.9a7.139,7.139,0,0,0-.17.852,48.325,48.325,0,0,1-3.676,15.267,50.049,50.049,0,0,1-95.431-10.635c-.313-1.817-.509-3.656-.758-5.485v-6.24c.056-.282.124-.562.167-.846.333-2.246.543-4.515,1.005-6.734a49.953,49.953,0,0,1,40.127-38.451c1.856-.3,3.727-.515,5.591-.768Z" transform="translate(-395.431 6255.517)" fill="#fff"/>
      <path id="Trazado_271245" data-name="Trazado 271245" d="M481.258,293.492a34.285,34.285,0,0,0-16.834,4.723c-.309.18-.608.379-.927.54a1.934,1.934,0,0,1-2.7-.712,1.869,1.869,0,0,1,.731-2.618,53.3,53.3,0,0,1,5.367-2.765,37.2,37.2,0,1,1-22.339,40.456,36.743,36.743,0,0,1,4.967-25.632c.425-.711.961-1.368,1.806-1.263a3.018,3.018,0,0,1,1.71.9,1.753,1.753,0,0,1,.011,2.095,63.761,63.761,0,0,0-2.891,5.836A33.367,33.367,0,1,0,486.3,293.984c-1.67-.245-3.361-.332-5.043-.492" transform="translate(-391.606 6259.334)" fill="#fff"/>
      <path id="Trazado_271246" data-name="Trazado 271246" d="M467.241,321.657a17.311,17.311,0,0,1,.569-2.348,1.058,1.058,0,0,0-.28-1.348q-2.867-2.79-5.666-5.648a3.277,3.277,0,0,1-.849-1.271,1.752,1.752,0,0,1,.842-2.1,1.793,1.793,0,0,1,2.263.167c.779.686,1.5,1.446,2.233,2.179,1.337,1.33,2.681,2.654,4,4a.912.912,0,0,0,1.187.234,6.3,6.3,0,0,1,4.944-.027,1.047,1.047,0,0,0,1.344-.289q5.984-6.02,12.007-12c.183-.184.363-.372.553-.55a1.967,1.967,0,1,1,2.738,2.781c-1.434,1.463-2.9,2.9-4.347,4.346-2.671,2.665-5.33,5.342-8.024,7.982a1.411,1.411,0,0,0-.412,1.746,6.383,6.383,0,0,1-1.746,7.125,6.676,6.676,0,0,1-7.265,1.22,6.936,6.936,0,0,1-4.091-6.205m9.6.06a2.8,2.8,0,1,0-2.764,2.805,2.754,2.754,0,0,0,2.764-2.805" transform="translate(-384.339 6264.568)" fill="#fff"/>
      <path id="Trazado_271247" data-name="Trazado 271247" d="M489.563,318.319c-.389,0-.779.019-1.167,0a1.927,1.927,0,0,1-.183-3.842,15.961,15.961,0,0,1,2.911.009,1.857,1.857,0,0,1,1.643,2.056,1.878,1.878,0,0,1-1.843,1.774c-.452.029-.908.006-1.361.006" transform="translate(-373.349 6269.937)" fill="#632059"/>
      <path id="Trazado_271248" data-name="Trazado 271248" d="M472.621,335.3c0,.42.033.845-.009,1.261a1.928,1.928,0,0,1-2,1.839,1.885,1.885,0,0,1-1.88-1.939c-.027-.775-.024-1.553,0-2.329a1.912,1.912,0,0,1,1.837-1.99,1.954,1.954,0,0,1,2.046,1.9c.034.417.006.841,0,1.261" transform="translate(-380.992 6277.556)" fill="#632059"/>
      <path id="Trazado_271249" data-name="Trazado 271249" d="M472.651,298.125c0,.42.021.842,0,1.261a1.905,1.905,0,0,1-1.827,1.9,1.86,1.86,0,0,1-2-1.606,14.532,14.532,0,0,1,.01-3.094,1.822,1.822,0,0,1,2.026-1.554,1.876,1.876,0,0,1,1.789,1.829c.029.419,0,.841.006,1.261" transform="translate(-380.98 6261.607)" fill="#632059"/>
      <path id="Trazado_271250" data-name="Trazado 271250" d="M452.5,314.405c.389,0,.779-.016,1.167,0a1.911,1.911,0,0,1,1.919,1.81,1.884,1.884,0,0,1-1.687,2.029,15.706,15.706,0,0,1-2.911,0,1.863,1.863,0,0,1-1.669-2.036,1.89,1.89,0,0,1,1.917-1.8c.42-.02.842,0,1.264,0" transform="translate(-389.33 6269.931)" fill="#632059"/>
      <path id="Trazado_271251" data-name="Trazado 271251" d="M478.194,284.1a1.972,1.972,0,0,1,1.983-1.88,1.905,1.905,0,0,1,1.9,2.032,1.943,1.943,0,0,1-2,1.847,2.006,2.006,0,0,1-1.879-2" transform="translate(-376.919 6256.1)" fill="#632059"/>
      <path id="Trazado_271252" data-name="Trazado 271252" d="M455.148,298.944a1.932,1.932,0,0,1-1.943,1.9,1.965,1.965,0,0,1-1.947-1.913,1.994,1.994,0,0,1,2.006-1.966,1.962,1.962,0,0,1,1.884,1.975" transform="translate(-388.495 6262.439)" fill="#632059"/>
    </g>
  </g>
</svg>
